<svg width="24" height="24" viewBox="0 0 24 24" fill="none" xmlns="http://www.w3.org/2000/svg">
<g clip-path="url(#clip0)">
<path d="M9.75 19.5703L12 22.7812L14.25 19.5703V4.38609C14.25 2.77312 13.3933 1.28152 12 0.46875C10.6067 1.28147 9.75 2.77308 9.75 4.38609V19.5703Z" fill="white"/>
<path d="M14.25 12.586L23.5312 15.0889V12.7607L14.25 7.60913V12.586Z" fill="#33D6F5"/>
<path d="M9.75 12.586L0.46875 15.0889V12.7607L9.75 7.60913V12.586Z" fill="#33D6F5"/>
<path d="M14.2499 19.5703L17.9999 20.2958V21.9609H12.834L14.2499 19.5703Z" fill="#33D6F5"/>
<path d="M9.75 19.5703L6 20.2958V21.9609H11.1659L9.75 19.5703Z" fill="#33D6F5"/>
<path d="M18.375 9.82816V8.11914C18.375 7.54961 17.9133 7.08789 17.3438 7.08789C16.7742 7.08789 16.3125 7.54961 16.3125 8.11914V8.70377L18.375 9.82816Z" fill="#C5D3DE"/>
<path d="M22.5 12.0547V10.416C22.5 9.84649 22.0383 9.38477 21.4688 9.38477C20.8992 9.38477 20.4375 9.84649 20.4375 10.416V11.0006L22.5 12.0547Z" fill="#C5D3DE"/>
<path d="M5.625 9.82816V8.11914C5.625 7.54961 6.08672 7.08789 6.65625 7.08789C7.22578 7.08789 7.6875 7.54961 7.6875 8.11914V8.70377L5.625 9.82816Z" fill="#C5D3DE"/>
<path d="M1.5 12.0547V10.416C1.5 9.84649 1.96172 9.38477 2.53125 9.38477C3.10078 9.38477 3.5625 9.84649 3.5625 10.416V11.0006L1.5 12.0547Z" fill="#C5D3DE"/>
<path d="M23.7588 12.3509L22.9688 11.9124V10.416C22.9688 9.58894 22.2959 8.91605 21.4688 8.91605C20.697 8.91605 20.0597 9.50194 19.9778 10.2523L18.8438 9.62278V8.11917C18.8438 7.29206 18.1709 6.61917 17.3438 6.61917C16.5697 6.61917 15.9307 7.20858 15.852 7.96219L14.7188 7.33317V4.38609C14.7188 2.61333 13.7675 0.957141 12.2362 0.0638437C12.0902 -0.0212812 11.9098 -0.0212812 11.7638 0.0638437C10.2325 0.957094 9.28125 2.61328 9.28125 4.38609V7.33317L8.148 7.96219C8.06925 7.20858 7.4303 6.61917 6.65625 6.61917C5.82914 6.61917 5.15625 7.29206 5.15625 8.11917V9.62278L4.02216 10.2523C3.94027 9.50194 3.303 8.91605 2.53125 8.91605C1.70414 8.91605 1.03125 9.58894 1.03125 10.416V11.9124L0.241219 12.3509C0.0923906 12.4335 0 12.5905 0 12.7607V15.0889C0 15.2347 0.067875 15.3723 0.183703 15.461C0.266438 15.5243 0.366797 15.5576 0.46875 15.5576C0.509531 15.5576 0.550547 15.5523 0.590813 15.5415L9.28125 13.1979V19.1836L5.91098 19.8357C5.69053 19.8783 5.53125 20.0713 5.53125 20.2959V21.9609C5.53125 22.2198 5.74116 22.4297 6 22.4297H11.1659C11.1709 22.4297 11.1757 22.4291 11.1807 22.4289L11.5312 22.9291V23.5312C11.5312 23.7901 11.7412 24 12 24C12.2588 24 12.4688 23.7901 12.4688 23.5312V22.9291L12.8193 22.4289C12.8243 22.4291 12.8291 22.4297 12.8341 22.4297H18C18.2588 22.4297 18.4688 22.2198 18.4688 21.9609V20.2958C18.4688 20.0713 18.3095 19.8783 18.089 19.8356L14.7188 19.1835V13.1979L16.7318 13.7408C16.7727 13.7518 16.8137 13.7571 16.8541 13.7571C17.0608 13.7571 17.25 13.6193 17.3064 13.4102C17.3738 13.1603 17.2258 12.903 16.9758 12.8356L14.7188 12.2269V8.40544L23.0625 13.0367V14.477L21.0495 13.9341C20.7996 13.8667 20.5424 14.0147 20.4749 14.2647C20.4075 14.5146 20.5555 14.7719 20.8055 14.8393L23.4092 15.5415C23.4495 15.5523 23.4905 15.5576 23.5313 15.5576C23.6333 15.5576 23.7336 15.5243 23.8163 15.461C23.9322 15.3722 24 15.2347 24 15.0889V12.7607C24 12.5905 23.9076 12.4335 23.7588 12.3509ZM12 1.02262C13.1053 1.77459 13.7812 3.03891 13.7812 4.38609V19.4224L12.4688 21.2955V20.1875C12.4688 19.9286 12.2588 19.7187 12 19.7187C11.7412 19.7187 11.5312 19.9286 11.5312 20.1875V21.2955L10.2188 19.4224V4.38609C10.2188 3.03891 10.8947 1.77459 12 1.02262ZM6.09375 8.11917C6.09375 7.809 6.34608 7.55667 6.65625 7.55667C6.96642 7.55667 7.21875 7.809 7.21875 8.11917V8.47795L6.09375 9.10238V8.11917ZM1.96875 10.416C1.96875 10.1059 2.22108 9.85355 2.53125 9.85355C2.84142 9.85355 3.09375 10.1059 3.09375 10.416V10.7676L1.96875 11.392V10.416ZM0.9375 14.477V13.0367L9.28125 8.40544V12.2269L0.9375 14.477ZM6.46875 21.4922V20.6826L9.54056 20.0883L10.5243 21.4922H6.46875ZM17.5312 21.4922H13.4757L14.4594 20.0883L17.5312 20.6826V21.4922ZM20.9062 10.416C20.9062 10.1059 21.1586 9.85355 21.4688 9.85355C21.7789 9.85355 22.0312 10.1059 22.0312 10.416V11.392L20.9062 10.7676V10.416ZM16.7812 8.11917C16.7812 7.809 17.0336 7.55667 17.3438 7.55667C17.6539 7.55667 17.9062 7.809 17.9062 8.11917V9.10242L16.7812 8.478V8.11917Z" fill="black"/>
<path d="M11.6309 4.92188H12.3809C12.6397 4.92188 12.8496 4.71202 12.8496 4.45312C12.8496 4.19423 12.6397 3.98438 12.3809 3.98438H11.6309C11.372 3.98438 11.1621 4.19423 11.1621 4.45312C11.1621 4.71202 11.372 4.92188 11.6309 4.92188Z" fill="black"/>
<path d="M18.8906 13.3689C18.7673 13.3689 18.6464 13.4191 18.5592 13.5062C18.472 13.5934 18.4219 13.7139 18.4219 13.8376C18.4219 13.9609 18.472 14.0819 18.5592 14.1691C18.6464 14.2562 18.7673 14.3064 18.8906 14.3064C19.0139 14.3064 19.1348 14.2562 19.222 14.1691C19.3092 14.0819 19.3594 13.9609 19.3594 13.8376C19.3594 13.7144 19.3092 13.5934 19.222 13.5062C19.1348 13.4191 19.0139 13.3689 18.8906 13.3689Z" fill="black"/>
</g>
<defs>
<clipPath id="clip0">
<rect width="24" height="24" fill="white"/>
</clipPath>
</defs>
</svg>
