<svg width="24" height="24" viewBox="0 0 24 24" fill="none" xmlns="http://www.w3.org/2000/svg">
<g clip-path="url(#clip0)">
<path d="M23.6482 16.2367C23.6518 18.8476 19.3166 19.542 13.965 19.5346C8.61349 19.5273 4.27217 18.8209 4.26856 16.21C4.26495 13.5991 8.60032 11.4885 13.9519 11.4959C19.3034 11.5032 23.6446 13.6258 23.6482 16.2367Z" fill="#D7AA8B"/>
<path d="M22.9086 14.4246C22.9321 14.5583 22.9449 14.6936 22.9451 14.8304C22.9487 17.4413 18.6135 18.1357 13.2619 18.1283C9.19773 18.1227 5.7168 17.7136 4.27539 16.3737C4.45816 18.8502 8.72744 19.5273 13.9651 19.5345C19.3166 19.5419 23.6518 18.8475 23.6482 16.2366C23.6473 15.595 23.384 14.983 22.9086 14.4246Z" fill="#CE9775"/>
<path d="M8.37033 14.3546C8.46356 14.8358 8.48658 15.3336 8.43862 15.8339C8.39062 16.3348 8.75419 16.7812 9.25064 16.8311C9.28064 16.8341 9.31036 16.8356 9.33984 16.8356C9.79893 16.8362 10.1914 16.4849 10.2365 16.0143C10.3012 15.3385 10.2697 14.6639 10.1429 14.0095C9.99872 13.2653 9.74278 12.6074 9.43462 12.0344C8.80612 12.1955 8.21864 12.3894 7.68164 12.6115C7.98389 13.1018 8.24025 13.6832 8.37033 14.3546Z" fill="#C6855B"/>
<path d="M13.9283 11.4961C13.1705 11.496 12.4334 11.5383 11.7261 11.6185C12.3106 12.2349 12.953 13.1528 13.1872 14.3612C13.2804 14.8424 13.3034 15.3402 13.2555 15.8405C13.2075 16.3414 13.571 16.7878 14.0675 16.8376C14.0975 16.8406 14.1272 16.8421 14.1567 16.8422C14.6158 16.8428 15.0082 16.4915 15.0533 16.0209C15.1181 15.345 15.0866 14.6705 14.9598 14.0161C14.7675 13.0238 14.3771 12.1839 13.9283 11.4961Z" fill="#C6855B"/>
<path d="M17.9476 14.379C18.0191 14.8639 18.0198 15.3621 17.9494 15.8598C17.879 16.3578 18.2223 16.8204 18.716 16.8928C18.7458 16.8972 18.7755 16.9001 18.805 16.9015C19.2636 16.9231 19.6714 16.5901 19.7376 16.1221C19.8326 15.4499 19.8314 14.7748 19.7341 14.1153C19.632 13.4241 19.4318 12.8017 19.1801 12.2493C18.4234 12.0114 17.5947 11.8236 16.7139 11.6948C17.2394 12.3327 17.7789 13.2363 17.9476 14.379Z" fill="#C6855B"/>
<path d="M14.8487 5.23942C16.6974 7.08306 14.123 10.6396 10.3336 14.4184C6.54432 18.1973 2.97507 20.7676 1.12632 18.924C-0.722427 17.0804 0.850745 12.5224 4.64007 8.74351C8.4294 4.96459 12.9999 3.39578 14.8487 5.23942Z" fill="#C6855B"/>
<path d="M14.8488 5.23942C14.4787 4.87038 13.9994 4.63844 13.4393 4.5332C13.4403 4.53423 13.4415 4.53522 13.4425 4.5363C15.2913 6.37998 12.7168 9.93644 8.9275 13.7154C5.89999 16.7345 3.0131 18.9819 1.03174 18.8234C1.0623 18.8577 1.09371 18.8914 1.12643 18.924C2.97518 20.7677 6.54443 18.1974 10.3338 14.4185C14.1231 10.6396 16.6975 7.08311 14.8488 5.23942Z" fill="#C17E4E"/>
<path d="M2.71459 14.7115C3.1208 14.9859 3.48901 15.3216 3.80893 15.7093C4.12918 16.0974 4.7019 16.156 5.0882 15.8402C5.11154 15.8211 5.13362 15.8011 5.15452 15.7803C5.4796 15.4561 5.50866 14.9302 5.20777 14.5656C4.77568 14.0419 4.27646 13.5872 3.72404 13.2141C3.09582 12.7898 2.4496 12.5056 1.82659 12.3184C1.49612 12.8767 1.21777 13.4292 0.995117 13.966C1.55551 14.0989 2.14787 14.3288 2.71459 14.7115Z" fill="#F2D59C"/>
<path d="M4.62344 8.7605C4.08752 9.29619 3.59627 9.84739 3.15283 10.4042C4.00197 10.4268 5.10537 10.6216 6.12541 11.3105C6.53163 11.5848 6.89984 11.9205 7.21976 12.3082C7.54001 12.6964 8.11273 12.755 8.49903 12.4391C8.52237 12.42 8.54445 12.4001 8.56535 12.3792C8.89043 12.0551 8.9195 11.5292 8.6186 11.1645C8.18651 10.6408 7.68729 10.1862 7.13487 9.81303C6.29721 9.24734 5.42726 8.92944 4.62344 8.7605Z" fill="#F2D59C"/>
<path d="M9.5042 7.95684C9.89772 8.24911 10.2505 8.60095 10.5526 9.00257C10.855 9.40457 11.4248 9.48895 11.8252 9.19101C11.8494 9.17301 11.8723 9.15407 11.8942 9.13425C12.2337 8.8252 12.2867 8.30137 12.0025 7.92365C11.5945 7.38122 11.1162 6.90464 10.5811 6.50714C10.0201 6.09052 9.43844 5.79206 8.86989 5.57935C8.16662 5.94619 7.44779 6.39942 6.73389 6.93122C7.55645 7.01067 8.57683 7.26811 9.5042 7.95684Z" fill="#F2D59C"/>
<path d="M22.5869 13.6124C22.4387 13.4867 22.217 13.505 22.0914 13.653C21.9658 13.8011 21.984 14.023 22.1321 14.1486C22.893 14.7939 23.2958 15.5162 23.2969 16.2374C23.2976 16.7215 23.124 17.1308 22.7662 17.4885C22.1679 18.0869 21.0547 18.5325 19.4574 18.8132C18.0236 19.0652 16.2278 19.1875 13.9659 19.183C10.4738 19.1782 8.01033 18.876 6.46898 18.2616C7.0627 17.8392 7.69791 17.3321 8.37909 16.7371C8.5853 16.9838 8.88094 17.1468 9.21234 17.1803C9.90066 17.2498 10.5201 16.7402 10.5865 16.0479C10.6309 15.5849 10.6319 15.1187 10.59 14.6593C11.2071 14.0437 11.7637 13.4625 12.2641 12.9112C12.5459 13.3936 12.74 13.902 12.8417 14.4278C12.9285 14.876 12.95 15.34 12.9053 15.807C12.8393 16.4988 13.3447 17.1182 14.0346 17.1879C14.7212 17.2573 15.3357 16.7516 15.4028 16.0545C15.4711 15.3468 15.4381 14.6385 15.3048 13.9492C15.1642 13.2232 14.9112 12.5222 14.5517 11.8577C15.2268 11.8788 15.8871 11.9337 16.5245 12.0211C17.1114 12.7648 17.4734 13.5747 17.5997 14.4304C17.6664 14.882 17.667 15.3464 17.6013 15.8106C17.504 16.4988 17.9812 17.1404 18.6652 17.2408C19.344 17.3404 19.9876 16.8644 20.0856 16.1713C20.1853 15.4658 20.184 14.7568 20.0818 14.064C20.0202 13.6471 19.9212 13.2347 19.7863 12.831C20.136 12.9652 20.4693 13.1122 20.7831 13.2718C20.9535 13.3585 21.1667 13.2931 21.2558 13.1179C21.3439 12.9449 21.275 12.7332 21.102 12.6451C19.1699 11.6619 16.499 11.12 13.7538 11.1456C13.943 10.9004 14.1192 10.6615 14.2825 10.4285C15.3122 8.95959 15.8128 7.75584 15.8128 6.7485C15.8128 6.05587 15.5719 5.46436 15.0967 4.99055C14.1026 3.99909 12.4196 3.84286 10.3578 4.55053C8.38017 5.22928 6.26133 6.63 4.39163 8.49459C1.68281 11.1961 0 14.3682 0 16.773C0 17.7702 0.303609 18.6001 0.878062 19.173C1.35455 19.6482 1.94048 19.8857 2.63133 19.8856C3.36267 19.8856 4.21158 19.6195 5.17256 19.0873C5.36953 18.9782 5.5718 18.8577 5.77931 18.7262C7.38258 19.501 10.0643 19.8809 13.965 19.8861C16.1945 19.8891 18.1371 19.7592 19.5791 19.5058C21.346 19.1953 22.5511 18.6981 23.2634 17.9857C23.7531 17.496 24.0009 16.9074 24 16.2364C23.9986 15.3026 23.51 14.3953 22.5869 13.6124ZM18.9211 12.535C19.1472 13.0624 19.3042 13.6103 19.3863 14.1666C19.4787 14.7928 19.4798 15.4342 19.3895 16.0729C19.3462 16.3786 19.0683 16.5892 18.7671 16.545C18.4649 16.5007 18.2542 16.2153 18.2975 15.909C18.3726 15.378 18.3719 14.846 18.2953 14.3277C18.1843 13.5754 17.9161 12.8571 17.4969 12.183C17.9907 12.2802 18.4669 12.3977 18.9211 12.535ZM9.88659 15.9808C9.85917 16.2677 9.62461 16.4839 9.34045 16.4839C9.16645 16.4839 9.00867 16.4041 8.90442 16.269C9.23166 15.9719 9.56911 15.6555 9.9172 15.3195C9.91762 15.5399 9.90773 15.7607 9.88659 15.9808ZM14.6145 14.0827C14.735 14.7057 14.7648 15.3464 14.703 15.9873C14.6735 16.2939 14.4052 16.5187 14.1025 16.4881C13.7989 16.4574 13.5759 16.1818 13.6053 15.8738C13.6563 15.3398 13.6317 14.8084 13.5321 14.2942C13.4013 13.6181 13.1392 12.9694 12.7526 12.3619C12.9 12.1927 13.0419 12.0262 13.1782 11.8626C13.3624 11.8556 13.5482 11.8505 13.7351 11.8486C14.1675 12.5507 14.4632 13.3014 14.6145 14.0827ZM8.88975 5.96517C9.42216 6.17817 9.92016 6.4545 10.3711 6.78942C10.8792 7.16686 11.3334 7.61958 11.7213 8.13511C11.8946 8.36555 11.8671 8.68331 11.6573 8.87428C11.4163 9.09361 11.0309 9.05404 10.8333 8.79131C10.5109 8.36278 10.1342 7.98712 9.71358 7.67475C9.10341 7.22156 8.40628 6.90333 7.63373 6.723C8.05153 6.44283 8.47139 6.18942 8.88975 5.96517ZM1.99172 12.7417C2.54048 12.9314 3.05602 13.1874 3.5272 13.5056C4.05169 13.8599 4.52587 14.2919 4.93655 14.7896C5.1202 15.0122 5.10722 15.3312 4.90617 15.5317C4.67569 15.7615 4.2892 15.7392 4.08009 15.4858C3.73875 15.0721 3.34552 14.7136 2.91131 14.4203C2.47678 14.1269 1.99678 13.8985 1.4813 13.7368C1.63172 13.4087 1.80216 13.0762 1.99172 12.7417ZM4.83197 18.4722C3.24811 19.3493 2.1172 19.4158 1.37456 18.6751C0.929016 18.2308 0.703125 17.5908 0.703125 16.773C0.703125 16.0546 0.880734 15.2432 1.20764 14.3881C1.68239 14.5305 2.12231 14.736 2.51775 15.003C2.89608 15.2586 3.23925 15.5715 3.5377 15.9333C4.00912 16.5046 4.88086 16.5498 5.40267 16.0295C5.86195 15.5715 5.89472 14.8461 5.47884 14.3421C5.02528 13.7924 4.50108 13.315 3.92072 12.923C3.43875 12.5975 2.91511 12.3316 2.3603 12.1275C2.64844 11.6713 2.96944 11.2144 3.32062 10.7633C4.0388 10.8038 5.02177 10.9897 5.92828 11.602C6.30666 11.8575 6.64978 12.1704 6.94819 12.5321C7.39134 13.0692 8.18695 13.1482 8.72119 12.7115C9.25931 12.2716 9.33126 11.4764 8.88937 10.941C8.61009 10.6025 8.30086 10.2883 7.9703 10.0072C7.82245 9.88148 7.6005 9.89934 7.47473 10.0473C7.34892 10.1952 7.36687 10.4171 7.51481 10.5428C7.81397 10.7972 8.09395 11.0817 8.34698 11.3884C8.54344 11.6265 8.5117 11.9744 8.27606 12.1671C8.03976 12.3603 7.68736 12.3232 7.49048 12.0846C7.14914 11.6709 6.75595 11.3124 6.32175 11.0192C5.60962 10.5382 4.76728 10.2287 3.85566 10.1081C4.13452 9.78187 4.42842 9.46064 4.73625 9.14667C5.2575 9.2707 5.7555 9.45061 6.21872 9.68339C6.38939 9.76917 6.60244 9.70275 6.6907 9.52715C6.77789 9.35367 6.70795 9.14236 6.53447 9.05517C6.14897 8.86144 5.74195 8.70159 5.31942 8.57564C5.81147 8.11359 6.31777 7.6853 6.83123 7.2959C7.77183 7.4069 8.60006 7.72359 9.29428 8.23917C9.6608 8.51142 9.98953 8.8394 10.2714 9.21403C10.7167 9.80601 11.5869 9.88903 12.1305 9.39436C12.6103 8.95767 12.6759 8.23462 12.2831 7.71244C11.8548 7.14305 11.3525 6.64261 10.7903 6.225C10.4521 5.97384 10.0905 5.75226 9.70964 5.56214C10.0043 5.43075 10.297 5.31487 10.5862 5.21559C11.3658 4.94798 12.0756 4.81495 12.6944 4.81495C13.5 4.81495 14.1513 5.04051 14.6004 5.4884C14.9432 5.83026 15.1098 6.24244 15.1098 6.7485C15.1098 7.59459 14.6378 8.6969 13.7069 10.0249C13.2416 10.6886 12.6572 11.4638 12.0561 12.0894C9.96131 14.2694 7.42402 17.0367 4.83197 18.4722Z" fill="black"/>
</g>
<defs>
<clipPath id="clip0">
<rect width="24" height="24" fill="white"/>
</clipPath>
</defs>
</svg>
