<svg width="24" height="24" viewBox="0 0 24 24" fill="none" xmlns="http://www.w3.org/2000/svg">
<path d="M9.75 12V9.07837C9.75 8.37525 9.26175 7.76663 8.5755 7.614L7.20413 7.30912C6.68963 7.19475 6.273 6.819 6.1065 6.31912L6 6H4.5L4.3935 6.31912C4.227 6.819 3.81037 7.19475 3.29587 7.30912L1.9245 7.614C1.23825 7.76663 0.75 8.37525 0.75 9.07837V12H9.75Z" fill="#3279EA"/>
<path d="M3.75 10.5C3.33562 10.5 3 10.1644 3 9.75V7.37512L3.29587 7.3095C3.81037 7.19513 4.227 6.81937 4.3935 6.3195L4.5 6H6L6.1065 6.31912C6.273 6.819 6.68963 7.19475 7.20413 7.30912L8.5755 7.614C9.26175 7.76663 9.75 8.37525 9.75 9.07837V10.5H3.75Z" fill="#2862BE"/>
<path d="M5.25 6C6.49275 6 7.5 4.99275 7.5 3.75V3C7.5 1.75725 6.49275 0.75 5.25 0.75C4.00725 0.75 3 1.75725 3 3V3.75C3 4.99275 4.00725 6 5.25 6Z" fill="#F2B9A1"/>
<path d="M4.39332 6.31904L4.49982 5.99992V5.62492L6.0152 5.62305L5.99982 5.99992L6.10632 6.31904C6.19107 6.57292 6.34032 6.79379 6.53382 6.96592L5.24982 8.24991L3.96582 6.96592C4.15932 6.79417 4.30895 6.57292 4.39332 6.31904Z" fill="#F2B9A1"/>
<path d="M1.875 10.125H4.125V10.875H1.875V10.125Z" fill="#78A0D4"/>
<path d="M3.37495 4.5C3.85532 4.01963 4.5067 3.75 5.1862 3.75H5.31445C5.99357 3.75 6.64532 4.02 7.1257 4.5L7.30007 4.67438C6.94682 5.4555 6.1627 6 5.24995 6C4.3372 6 3.55307 5.4555 3.2002 4.67475L3.37495 4.5Z" fill="#78A0D4"/>
<path d="M5.18588 3.75H5.31412C5.99325 3.75 6.645 4.02 7.12537 4.5L7.29975 4.67437C7.20412 4.88625 7.074 5.07862 6.92062 5.24962H4.5C4.293 5.24962 4.125 5.08162 4.125 4.87462V3.98288C4.45537 3.8325 4.81575 3.75 5.18588 3.75Z" fill="#C0DAFC"/>
<path d="M5.31938 0.751284C6.5505 0.788034 7.5 1.86241 7.5 3.09466V3.75016C7.08563 3.75016 6.75 3.41453 6.75 3.00016C6.75 2.58578 6.41438 2.25016 6 2.25016H4.5C4.08562 2.25016 3.75 2.58578 3.75 3.00016C3.75 3.41453 3.41438 3.75016 3 3.75016V3.00016C3 1.73453 4.04513 0.713034 5.31938 0.751284Z" fill="#4C506E"/>
<path d="M14.25 12V9.07837C14.25 8.37525 14.7382 7.76663 15.4245 7.614L16.7959 7.30912C17.3104 7.19475 17.727 6.819 17.8935 6.31912L18 6H19.5L19.6065 6.31912C19.773 6.819 20.1896 7.19475 20.7041 7.30912L22.0755 7.614C22.7618 7.76663 23.25 8.37525 23.25 9.07837V12H14.25Z" fill="#3279EA"/>
<path d="M20.25 10.5C20.6644 10.5 21 10.1644 21 9.75V7.37512L20.7041 7.3095C20.1896 7.19513 19.773 6.81937 19.6065 6.3195L19.5 6H18L17.8935 6.31912C17.727 6.819 17.3104 7.19475 16.7959 7.30912L15.4245 7.614C14.7382 7.76663 14.25 8.37525 14.25 9.07837V10.5H20.25Z" fill="#2862BE"/>
<path d="M8.25 12.75V10.875C8.25 9.42525 9.42525 8.25 10.875 8.25H13.125C14.5747 8.25 15.75 9.42525 15.75 10.875V12.75" fill="#3279EA"/>
<path d="M8.25 11.25H15.75V13.125H8.25V11.25Z" fill="#2862BE"/>
<path d="M9.375 15H8.625C8.00363 15 7.5 14.4964 7.5 13.875C7.5 13.2536 8.00363 12.75 8.625 12.75H9.375" fill="#F2B9A1"/>
<path d="M14.625 12.75H15.375C15.9964 12.75 16.5 13.2536 16.5 13.875C16.5 14.4964 15.9964 15 15.375 15H14.625" fill="#F2B9A1"/>
<path d="M10.5 16.875L7.4805 17.6985C6.82762 17.8766 6.375 18.4691 6.375 19.1456V23.25H17.625V19.1456C17.625 18.4691 17.1724 17.8766 16.5195 17.6985L13.5 16.875" fill="#2862BE"/>
<path d="M13.875 21.75C14.2894 21.75 14.625 21.4144 14.625 21V17.1818L13.5 16.875H10.5L7.4805 17.6985C6.82762 17.8766 6.375 18.4691 6.375 19.1456V21.75H13.875Z" fill="#3279EA"/>
<path d="M12.0001 19.5L13.7116 16.9327L13.5001 16.875H10.5001L10.2886 16.9327L12.0001 19.5Z" fill="#F2B9A1"/>
<path d="M13.875 16.9774L13.5 16.875H13.125V22.125H13.875V16.9774Z" fill="#78A0D4"/>
<path d="M10.875 16.875H10.5L10.125 16.9774V21.75H10.875V16.875Z" fill="#78A0D4"/>
<path d="M15 12.75V14.25C15 15.9068 13.6568 17.25 12 17.25C10.3432 17.25 9 15.9068 9 14.25V12.75" fill="#FBE1CA"/>
<path d="M14.6251 15.375L14.1312 15.1282C13.4697 14.7971 12.74 14.625 12.0001 14.625C11.2602 14.625 10.5305 14.7971 9.86897 15.1282L9.37509 15.375L9.24609 15.4395C9.70697 16.5045 10.766 17.25 12.0001 17.25C13.2342 17.25 14.2932 16.5045 14.7541 15.4395L14.6251 15.375Z" fill="#78A0D4"/>
<path d="M11.625 23.25H10.875V22.5C10.875 22.2934 10.707 22.125 10.5 22.125C10.293 22.125 10.125 22.2934 10.125 22.5V23.25H9.375V22.5C9.375 21.8798 9.87975 21.375 10.5 21.375C11.1202 21.375 11.625 21.8798 11.625 22.5V23.25Z" fill="#C0DAFC"/>
<path d="M15.375 21.75H17.625V23.25H15.375V21.75Z" fill="#F2B9A1"/>
<path d="M6.375 21.75H8.625V23.25H6.375V21.75Z" fill="#F2B9A1"/>
<path d="M13.5 23.25C13.9142 23.25 14.25 22.9142 14.25 22.5C14.25 22.0858 13.9142 21.75 13.5 21.75C13.0858 21.75 12.75 22.0858 12.75 22.5C12.75 22.9142 13.0858 23.25 13.5 23.25Z" fill="#C0DAFC"/>
<path d="M13.3125 14.25C13.0024 14.25 12.75 13.9976 12.75 13.6875C12.75 13.3774 13.0024 13.125 13.3125 13.125C13.6226 13.125 13.875 13.3774 13.875 13.6875C13.875 13.9976 13.6226 14.25 13.3125 14.25Z" fill="#4C506E"/>
<path d="M10.6875 14.25C10.3774 14.25 10.125 13.9976 10.125 13.6875C10.125 13.3774 10.3774 13.125 10.6875 13.125C10.9976 13.125 11.25 13.3774 11.25 13.6875C11.25 13.9976 10.9976 14.25 10.6875 14.25Z" fill="#4C506E"/>
<path d="M18.75 6C17.5073 6 16.5 4.99275 16.5 3.75V3C16.5 1.75725 17.5073 0.75 18.75 0.75C19.9927 0.75 21 1.75725 21 3V3.75C21 4.99275 19.9927 6 18.75 6Z" fill="#F2B9A1"/>
<path d="M19.6063 6.31904L19.4998 5.99992V5.62492L17.9844 5.62305L17.9998 5.99992L17.8933 6.31904C17.8086 6.57292 17.6593 6.79379 17.4658 6.96592L18.7498 8.24991L20.0338 6.96592C19.8403 6.79417 19.6907 6.57292 19.6063 6.31904Z" fill="#F2B9A1"/>
<path d="M19.875 10.125H22.125V10.875H19.875V10.125Z" fill="#78A0D4"/>
<path d="M20.6253 4.5C20.1449 4.01963 19.4936 3.75 18.8141 3.75H18.6858C18.0067 3.75 17.3549 4.02 16.8746 4.5L16.7002 4.67438C17.0534 5.4555 17.8376 6 18.7503 6C19.6631 6 20.4472 5.4555 20.8001 4.67475L20.6253 4.5Z" fill="#78A0D4"/>
<path d="M15.375 21.75V22.875H16.5C16.707 22.875 16.875 22.707 16.875 22.5V21.75H15.375Z" fill="#FBE1CA"/>
<path d="M6.375 21.75V22.875H7.5C7.707 22.875 7.875 22.707 7.875 22.5V21.75H6.375Z" fill="#FBE1CA"/>
<path d="M12.0001 14.625C11.2602 14.625 10.5305 14.7971 9.86897 15.1282L9.37509 15.375L9.24609 15.4395C9.35372 15.6881 9.49622 15.9169 9.66347 16.125H13.1251C13.3321 16.125 13.5001 15.957 13.5001 15.75V14.8732C13.0171 14.7127 12.512 14.625 12.0001 14.625Z" fill="#C0DAFC"/>
<path d="M18.8141 3.75H18.6858C18.0067 3.75 17.3549 4.02 16.8746 4.5L16.7002 4.67437C16.7958 4.88625 16.9259 5.07862 17.0793 5.24962H19.4999C19.7069 5.24962 19.8749 5.08162 19.8749 4.87462V3.98288C19.5446 3.8325 19.1842 3.75 18.8141 3.75Z" fill="#C0DAFC"/>
<path d="M18.6806 0.751284C17.4495 0.788034 16.5 1.86241 16.5 3.09466V3.75016C16.9144 3.75016 17.25 3.41453 17.25 3.00016C17.25 2.58578 17.5856 2.25016 18 2.25016H19.5C19.9144 2.25016 20.25 2.58578 20.25 3.00016C20.25 3.41453 20.5856 3.75016 21 3.75016V3.00016C21 1.73453 19.9549 0.713034 18.6806 0.751284Z" fill="#4C506E"/>
<path d="M12.75 13.6875C12.75 13.9976 13.0024 14.25 13.3125 14.25C13.6226 14.25 13.875 13.9976 13.875 13.6875C13.875 13.3774 13.6226 13.125 13.3125 13.125C13.0024 13.125 12.75 13.3774 12.75 13.6875Z" fill="black"/>
<path d="M10.125 13.6875C10.125 13.9976 10.3774 14.25 10.6875 14.25C10.9976 14.25 11.25 13.9976 11.25 13.6875C11.25 13.3774 10.9976 13.125 10.6875 13.125C10.3774 13.125 10.125 13.3774 10.125 13.6875Z" fill="black"/>
<path d="M19.875 10.125H22.125V10.875H19.875V10.125Z" fill="black"/>
<path d="M0.837028 12.375H7.87503V12.5835C7.42878 12.8438 7.12503 13.3223 7.12503 13.875C7.12503 14.7023 7.79778 15.375 8.62503 15.375H8.8219C9.00378 15.8869 9.30453 16.3417 9.69303 16.7066L7.38228 17.337C6.56853 17.5586 6.00003 18.3026 6.00003 19.1456V23.25C6.00003 23.457 6.16765 23.625 6.37503 23.625H17.625C17.8324 23.625 18 23.457 18 23.25V19.1456C18 18.3022 17.4319 17.5586 16.6182 17.3366L14.307 16.7062C14.6952 16.3414 14.9963 15.8869 15.1778 15.3746H15.375C16.2023 15.3746 16.875 14.7019 16.875 13.8746C16.875 13.3219 16.5713 12.8434 16.125 12.5831V12.375H23.25C23.4574 12.375 23.625 12.207 23.625 12V9.078C23.625 8.19263 23.0217 7.43962 22.1569 7.24762L20.7855 6.94312C20.4023 6.85763 20.0869 6.57337 19.9624 6.20062L19.9264 6.09338C20.784 5.661 21.375 4.77413 21.375 3.75V3C21.375 1.5525 20.1972 0.375 18.75 0.375C17.3029 0.375 16.125 1.5525 16.125 3V3.75C16.125 4.77413 16.716 5.661 17.5737 6.09338L17.538 6.20062C17.4135 6.57337 17.0982 6.85763 16.7145 6.94312L15.3435 7.24762C14.8512 7.35712 14.4364 7.65413 14.1728 8.06738C13.8462 7.94513 13.494 7.875 13.125 7.875H10.875C10.533 7.875 10.2057 7.93538 9.8989 8.04113C9.6349 7.64138 9.22615 7.35488 8.7439 7.24762L7.37253 6.94312C6.98928 6.858 6.6739 6.57337 6.5494 6.20062L6.5134 6.09338C7.37103 5.661 7.96203 4.77413 7.96203 3.75V3C7.96203 1.5525 6.78415 0.375 5.33703 0.375C3.8899 0.375 2.71203 1.5525 2.71203 3V3.75C2.71203 4.77413 3.30303 5.661 4.16065 6.09338L4.12503 6.20062C4.00053 6.57337 3.68515 6.858 3.3019 6.94312L1.93053 7.24762C1.06578 7.43962 0.462403 8.19263 0.462403 9.078V12C0.462028 12.207 0.630028 12.375 0.837028 12.375ZM14.5373 14.9119L14.2992 14.7926C12.8794 14.0827 11.1218 14.0824 9.70128 14.7926L9.46278 14.9119C9.40765 14.7 9.37503 14.4791 9.37503 14.25V13.125H10.6875H13.3125H14.625V14.25C14.625 14.4791 14.5924 14.7 14.5373 14.9119ZM10.5 22.125C10.707 22.125 10.875 22.2934 10.875 22.5V22.875H10.125V22.5C10.125 22.2934 10.293 22.125 10.5 22.125ZM10.875 21.444V18.4882L11.688 19.7078C11.7578 19.8124 11.8748 19.875 12 19.875C12.1253 19.875 12.2423 19.8124 12.312 19.7081L13.125 18.4886V21.4444C12.6897 21.5996 12.375 22.0121 12.375 22.5004C12.375 22.6324 12.402 22.7576 12.444 22.8754H11.625V22.5004C11.625 22.0117 11.3104 21.5992 10.875 21.444ZM11.1207 17.5046C11.4015 17.5807 11.6955 17.625 12 17.625C12.3045 17.625 12.5985 17.5807 12.8794 17.5046L12 18.8239L11.1207 17.5046ZM13.125 22.5C13.125 22.2934 13.293 22.125 13.5 22.125C13.707 22.125 13.875 22.2934 13.875 22.5C13.875 22.7066 13.707 22.875 13.5 22.875C13.293 22.875 13.125 22.7066 13.125 22.5ZM12 16.875C11.0483 16.875 10.2158 16.3643 9.75565 15.6041L10.0369 15.4635C11.2497 14.8564 12.7508 14.8568 13.9639 15.4635L14.2448 15.6041C13.7843 16.3643 12.9518 16.875 12 16.875ZM15 12.375H9.00003H8.62503V11.625H15.375V12.375H15ZM8.62503 14.625C8.2114 14.625 7.87503 14.2886 7.87503 13.875C7.87503 13.4614 8.2114 13.125 8.62503 13.125V14.25C8.62503 14.3767 8.63328 14.5016 8.64715 14.625H8.62503ZM7.57915 18.0604L10.125 17.3659V21.444C9.68965 21.5992 9.37503 22.0117 9.37503 22.5V22.875H9.00003V20.25H8.25003V21.375H6.75003V19.1456C6.75003 18.6397 7.0909 18.1935 7.57915 18.0604ZM6.75003 22.125H8.25003V22.875H6.75003V22.125ZM15.75 22.875V22.125H17.25V22.875H15.75ZM17.25 19.1456V21.375H15.75V20.25H15V22.875H14.556C14.598 22.7572 14.625 22.632 14.625 22.5C14.625 22.0117 14.3104 21.5992 13.875 21.444V17.3659L16.4213 18.0604C16.9092 18.1935 17.25 18.6397 17.25 19.1456ZM15.375 14.625H15.3529C15.3668 14.5016 15.375 14.3767 15.375 14.25V13.125C15.7887 13.125 16.125 13.4614 16.125 13.875C16.125 14.2886 15.7887 14.625 15.375 14.625ZM16.875 3C16.875 1.96613 17.7162 1.125 18.75 1.125C19.7839 1.125 20.625 1.96613 20.625 3V3.75C20.625 3.83025 20.6112 3.90675 20.6014 3.98475C20.091 3.591 19.47 3.375 18.8145 3.375H18.6859C18.0304 3.375 17.4094 3.591 16.8987 3.98475C16.8889 3.90713 16.875 3.83025 16.875 3.75V3ZM17.1657 4.74225C17.5755 4.34475 18.1137 4.125 18.6859 4.125H18.8145C19.3868 4.125 19.9249 4.34475 20.3344 4.74225C20.0025 5.27025 19.4187 5.625 18.75 5.625C18.0814 5.625 17.4975 5.27025 17.1657 4.74225ZM18.75 6.375C18.909 6.375 19.0639 6.3585 19.2154 6.33112L19.251 6.438C19.3129 6.624 19.4067 6.79462 19.5203 6.9495L18.75 7.71975L17.9802 6.94988C18.0942 6.795 18.1879 6.624 18.2498 6.43762L18.285 6.33112C18.4362 6.3585 18.591 6.375 18.75 6.375ZM15.5063 7.98L16.8773 7.6755C17.0727 7.632 17.2557 7.55438 17.424 7.45425L18.4853 8.5155C18.558 8.58825 18.654 8.625 18.75 8.625C18.846 8.625 18.942 8.58825 19.0152 8.51513L20.0764 7.45388C20.2448 7.554 20.4274 7.63162 20.6228 7.67512L21.9942 7.97962C22.5128 8.09512 22.875 8.547 22.875 9.078V11.625H16.125V10.875C16.125 9.8595 15.6165 8.96212 14.8425 8.41912C15.0015 8.19938 15.2329 8.04075 15.5063 7.98ZM13.125 8.625C14.3659 8.625 15.375 9.63412 15.375 10.875H8.62503C8.62503 9.63412 9.63415 8.625 10.875 8.625H13.125ZM3.46203 3C3.46203 1.96613 4.30315 1.125 5.33703 1.125C6.3709 1.125 7.21203 1.96613 7.21203 3V3.75C7.21203 3.83025 7.19815 3.90675 7.1884 3.98475C6.67803 3.591 6.05703 3.375 5.40153 3.375H5.27253C4.61703 3.375 3.99603 3.591 3.48565 3.98475C3.4759 3.90675 3.46203 3.83025 3.46203 3.75V3ZM3.75265 4.74225C4.16253 4.34475 4.70065 4.125 5.2729 4.125H5.4019C5.97415 4.125 6.51228 4.34475 6.92178 4.74225C6.58953 5.27025 6.00565 5.625 5.33703 5.625C4.6684 5.625 4.0849 5.27025 3.75265 4.74225ZM5.33703 6.375C5.49603 6.375 5.6509 6.3585 5.8024 6.33112L5.83803 6.438C5.8999 6.624 5.99365 6.79462 6.10728 6.9495L5.33703 7.71975L4.56678 6.9495C4.6804 6.79462 4.77415 6.624 4.83603 6.438L4.87165 6.33112C5.02315 6.3585 5.17803 6.375 5.33703 6.375ZM1.21203 9.078C1.21203 8.54663 1.57428 8.09512 2.0929 7.97962L3.46428 7.67512C3.65965 7.63162 3.84228 7.554 4.01065 7.45388L5.0719 8.51513C5.1454 8.58825 5.2414 8.625 5.33703 8.625C5.43265 8.625 5.52903 8.58825 5.60215 8.51513L6.6634 7.45388C6.83178 7.554 7.0144 7.63162 7.20978 7.67512L8.58115 7.97962C8.83728 8.03662 9.05365 8.1825 9.21078 8.38013C8.4064 8.919 7.87503 9.83587 7.87503 10.875V11.625H1.21203V9.078Z" fill="black"/>
<path d="M1.875 10.125H4.125V10.875H1.875V10.125Z" fill="black"/>
</svg>
