<svg width="24" height="24" viewBox="0 0 24 24" fill="none" xmlns="http://www.w3.org/2000/svg">
<g clip-path="url(#clip0)">
<path d="M19.1677 6.86392C19.4824 6.56049 19.6786 6.13488 19.6786 5.66318C19.6786 4.7743 18.9833 4.04807 18.107 3.99805C18.1177 3.93909 18.1241 3.87858 18.1241 3.81648C18.1241 3.25983 17.6729 2.80855 17.1162 2.80855C17.0939 2.80855 17.0721 2.81047 17.0501 2.81188C16.9647 2.18858 16.4305 1.70832 15.7837 1.70832C15.1308 1.70832 14.5925 2.19786 14.515 2.82986C14.5107 2.86442 14.4781 2.88751 14.4435 2.88316C14.3756 2.87454 14.3065 2.8699 14.2362 2.8699C14.2294 2.8699 14.2228 2.87032 14.216 2.87042C14.2289 2.77348 14.2362 2.67475 14.2362 2.5743C14.2362 1.34663 13.241 0.35144 12.0134 0.35144C10.8258 0.35144 9.85592 1.2827 9.79378 2.45473C9.54008 1.84268 8.92368 1.41903 8.21257 1.45233C7.38204 1.49125 6.70602 2.16718 6.66626 2.99766C6.65328 3.26798 6.70695 3.52429 6.81134 3.75255C6.72845 3.71785 6.63745 3.69856 6.54192 3.69856C6.15625 3.69856 5.8436 4.01121 5.8436 4.39688C5.8436 4.40362 5.84444 4.41018 5.84463 4.41692C5.77208 4.40399 5.69757 4.39688 5.62133 4.39688C4.92193 4.39688 4.35498 4.96383 4.35498 5.66323C4.35498 6.18218 4.66726 6.62797 5.11409 6.82355L6.79214 10.8593H17.3562L19.1677 6.86392Z" fill="#FCD89F"/>
<path d="M19.1677 6.86392C19.4824 6.56049 19.6786 6.13488 19.6786 5.66318C19.6786 4.7743 18.9833 4.04807 18.107 3.99805C18.1177 3.93909 18.1241 3.87858 18.1241 3.81648C18.1241 3.25983 17.6729 2.80855 17.1162 2.80855C17.0939 2.80855 17.0721 2.81047 17.0501 2.81188C16.9647 2.18858 16.4305 1.70832 15.7837 1.70832C15.1308 1.70832 14.5925 2.19786 14.515 2.82986C14.5107 2.86442 14.4781 2.88751 14.4435 2.88316C14.3756 2.87454 14.3065 2.8699 14.2362 2.8699C14.2294 2.8699 14.2228 2.87032 14.216 2.87042C14.2289 2.77348 14.2362 2.67475 14.2362 2.5743C14.2362 1.34663 13.241 0.35144 12.0134 0.35144C10.8258 0.35144 9.85592 1.2827 9.79378 2.45473C9.54008 1.84268 8.92368 1.41903 8.21257 1.45233C7.38204 1.49125 6.70602 2.16718 6.66626 2.99766C6.65328 3.26798 6.70695 3.52429 6.81134 3.75255C6.72845 3.71785 6.63745 3.69856 6.54192 3.69856C6.15625 3.69856 5.8436 4.01121 5.8436 4.39688C5.8436 4.40362 5.84444 4.41018 5.84463 4.41692C5.77208 4.40399 5.69757 4.39688 5.62133 4.39688C4.92193 4.39688 4.35498 4.96383 4.35498 5.66323C4.35498 6.18218 4.66726 6.62797 5.11409 6.82355L6.79214 10.8593H17.3562L19.1677 6.86392Z" fill="#FCD89F"/>
<path d="M4.81358 6.61169C4.81358 5.9123 5.38054 5.34535 6.07993 5.34535C6.10925 5.34535 6.13833 5.34638 6.16709 5.34844C6.24844 5.35415 6.32529 5.31191 6.36336 5.23978C6.47197 5.03382 6.71615 4.64707 7.00052 4.64707C7.01644 4.64707 7.03223 4.64759 7.04787 4.64867C7.14116 4.65494 7.21145 4.56324 7.1857 4.47337C7.13797 4.30707 7.11606 4.12986 7.12481 3.94623C7.16457 3.11575 7.84055 2.43981 8.67103 2.40085C9.17551 2.37715 9.63232 2.58349 9.94577 2.92387C10.0732 3.06226 10.2996 3.01323 10.3578 2.83433C10.6476 1.94367 11.4846 1.29991 12.4719 1.29991C13.1628 1.29991 13.7804 1.61505 14.1881 2.10946C13.9744 1.10495 13.0821 0.351318 12.0139 0.351318C10.8264 0.351318 9.85646 1.28258 9.79431 2.45461C9.54062 1.84256 8.92421 1.41886 8.21301 1.45221C7.38249 1.49117 6.70651 2.16711 6.66674 2.99759C6.65382 3.26786 6.70744 3.52422 6.81183 3.75243C6.72894 3.71773 6.63794 3.69843 6.5424 3.69843C6.15674 3.69843 5.84409 4.01109 5.84409 4.39675C5.84409 4.4035 5.84493 4.41005 5.84512 4.4168C5.77257 4.40387 5.69806 4.39675 5.62182 4.39675C4.92242 4.39675 4.35547 4.96371 4.35547 5.6631C4.35547 6.05551 4.53381 6.40591 4.81405 6.63811C4.81396 6.62926 4.81358 6.62059 4.81358 6.61169Z" fill="#FBC773"/>
<path d="M18.2416 21.9142L17.3642 20.6757H6.57031L5.91016 21.9142L6.07688 23.2484C6.10545 23.477 6.2998 23.6488 6.53022 23.6488H17.6379C17.8684 23.6488 18.0627 23.477 18.0913 23.2484L18.258 21.916L18.2416 21.9142Z" fill="#E43E54"/>
<path d="M19.9022 7.30568C18.9866 6.55028 17.939 6.47207 16.6857 7.44946H15.1475V21.9141H15.5318H18.2415L18.2579 21.916L20.0408 7.65178C20.0572 7.52018 20.0043 7.38998 19.9022 7.30568Z" fill="#F9F7F8"/>
<path d="M13.5451 7.44951H12.0171V21.9142H13.2346H15.5317L16.6857 7.44951C15.6142 6.51052 14.566 6.46322 13.5451 7.44951Z" fill="#E43E54"/>
<path d="M7.48204 7.44946C6.2288 6.47207 5.18116 6.55028 4.26559 7.30568C4.16349 7.38998 4.11057 7.52018 4.12696 7.65178L5.90987 21.9141H8.63599V7.72484L7.48204 7.44946Z" fill="#F9F7F8"/>
<path d="M10.6225 7.44951C9.60157 6.46322 8.55346 6.51052 7.48193 7.44951L8.63589 21.9142H10.933H11.7911V7.44951H10.6225Z" fill="#E43E54"/>
<path d="M13.2349 21.9142L13.5454 7.44949C12.5043 6.55873 11.5194 6.41449 10.623 7.44949L10.9335 21.9142H13.2349Z" fill="#F9F7F8"/>
<path d="M18.2412 21.9141L18.2576 21.9159L18.2579 21.9141H18.2412Z" fill="#EFEDEF"/>
<path d="M6.36958 7.3057C6.50938 7.19035 6.65227 7.09102 6.79848 7.0086C5.84071 6.52519 5.00957 6.69187 4.26559 7.3057C4.16349 7.39 4.11057 7.52019 4.12696 7.65179L5.90988 21.9142H8.01383L6.23091 7.65179C6.21457 7.52019 6.26749 7.39 6.36958 7.3057Z" fill="#EFEDEF"/>
<path d="M13.5483 7.44605C13.5496 7.44726 13.5508 7.44834 13.5521 7.44951C13.5652 7.43433 13.5784 7.42026 13.5916 7.40564C13.5772 7.41914 13.5627 7.43217 13.5483 7.44605Z" fill="#EFEDEF"/>
<path d="M12.0427 6.72824C11.8726 6.72042 11.7047 6.7421 11.5391 6.79478C11.7076 6.74833 11.8755 6.72599 12.0427 6.72824Z" fill="#EFEDEF"/>
<path d="M18.2412 21.9142L18.2576 21.9161L18.2579 21.9142H18.2412Z" fill="#EFEDEF"/>
<path d="M23.7161 15.2962C23.7161 14.8371 23.344 14.465 22.8849 14.465C22.5345 14.465 22.2354 14.6821 22.1131 14.9889C22.0092 14.9422 21.8943 14.9157 21.7731 14.9157C21.314 14.9157 20.9419 15.2878 20.9419 15.7469C20.9419 16.2059 21.314 16.578 21.7731 16.578C21.8544 16.578 21.9328 16.5658 22.0071 16.544C22.0757 16.934 22.4153 17.2307 22.8249 17.2307C23.284 17.2307 23.6561 16.8585 23.6561 16.3995C23.6561 16.2036 23.5879 16.0238 23.4745 15.8818C23.6238 15.7315 23.7161 15.5246 23.7161 15.2962Z" fill="#FCD89F"/>
<path d="M23.5512 16.6708C23.1416 16.6708 22.8019 16.3742 22.7334 15.9841C22.6591 16.0059 22.5807 16.0181 22.4993 16.0181C22.0403 16.0181 21.6682 15.646 21.6682 15.187C21.6682 15.093 21.6845 15.003 21.7133 14.9187C21.2823 14.9495 20.9419 15.308 20.9419 15.7468C20.9419 16.2059 21.314 16.578 21.7731 16.578C21.8544 16.578 21.9328 16.5658 22.0071 16.544C22.0757 16.934 22.4153 17.2306 22.8249 17.2306C23.19 17.2306 23.4993 16.995 23.611 16.6677C23.5912 16.6691 23.5714 16.6708 23.5512 16.6708Z" fill="#FBCE85"/>
<path d="M2.81895 10.2969C2.63874 9.87468 2.15041 9.6785 1.72822 9.85866C1.40592 9.99621 1.21601 10.3134 1.22402 10.6435C1.11017 10.6414 0.994073 10.662 0.882565 10.7096C0.46037 10.8898 0.264189 11.3781 0.444353 11.8003C0.624565 12.2225 1.11289 12.4187 1.53508 12.2385C1.60992 12.2066 1.67722 12.1646 1.73702 12.1154C1.95315 12.4472 2.38195 12.5866 2.75867 12.4259C3.18087 12.2457 3.37705 11.7573 3.19688 11.3351C3.11999 11.155 2.9867 11.0164 2.82667 10.9303C2.90498 10.7335 2.90863 10.507 2.81895 10.2969Z" fill="#FCD89F"/>
<path d="M1.08797 12.2713C0.90776 11.8491 1.10394 11.3607 1.52618 11.1806C1.63769 11.133 1.75379 11.1123 1.86764 11.1145C1.85963 10.7843 2.04958 10.4672 2.37184 10.3296C2.51397 10.269 2.66337 10.2519 2.80621 10.2708C2.61715 9.86707 2.14142 9.68237 1.72822 9.85869C1.40592 9.99624 1.21601 10.3134 1.22402 10.6436C1.11017 10.6414 0.994073 10.6621 0.882564 10.7096C0.46037 10.8898 0.264189 11.3782 0.444353 11.8004C0.56387 12.0805 0.8192 12.2602 1.10071 12.2974C1.09659 12.2886 1.09181 12.2803 1.08797 12.2713Z" fill="#FBCE85"/>
<path d="M20.1257 7.03461C19.9909 6.92343 19.8546 6.82649 19.7169 6.74336C19.9206 6.42359 20.0299 6.05254 20.0299 5.66303C20.0299 4.7113 19.368 3.90531 18.4703 3.69644C18.4156 3.07427 17.9401 2.57101 17.3308 2.47402C17.1135 1.82038 16.4933 1.35688 15.7838 1.35688C15.2751 1.35688 14.8149 1.5923 14.5143 1.96495C14.4584 1.73524 14.3709 1.51344 14.2538 1.30686C14.1582 1.13808 13.9438 1.07879 13.775 1.17446C13.6062 1.2701 13.547 1.48445 13.6426 1.65323C13.8013 1.93315 13.8851 2.25156 13.8851 2.5741C13.8851 2.65437 13.8793 2.73839 13.8679 2.82386C13.8545 2.92506 13.8856 3.02706 13.9534 3.1034C14.0212 3.17974 14.1192 3.2232 14.2209 3.22147L14.2364 3.22095C14.29 3.22095 14.3448 3.22446 14.3994 3.23139C14.5084 3.24521 14.6211 3.21458 14.7078 3.1471C14.7949 3.07938 14.8503 2.98187 14.8638 2.87242C14.9206 2.40892 15.3161 2.05941 15.7839 2.05941C16.245 2.05941 16.6398 2.40335 16.7023 2.8594C16.7273 3.04191 16.889 3.17388 17.0729 3.16222L17.0878 3.16124C17.0973 3.16058 17.1067 3.15965 17.1163 3.15965C17.4784 3.15965 17.773 3.45422 17.773 3.81633C17.773 3.85361 17.7692 3.89248 17.7615 3.9351C17.7435 4.0341 17.7689 4.1361 17.8311 4.2152C17.8933 4.2943 17.9865 4.34287 18.087 4.34858C18.7826 4.3883 19.3274 4.96565 19.3274 5.66303C19.3274 5.95419 19.2339 6.2297 19.0609 6.45703C18.3094 6.24909 17.5185 6.43113 16.697 7.00403C15.617 6.17093 14.5324 6.16615 13.5329 6.98923C12.7231 6.38125 11.6412 5.99601 10.6028 6.96333C9.91458 6.40963 9.18662 6.24745 8.44802 6.47613C8.29779 6.26515 8.21648 6.01362 8.21648 5.74925C8.21648 5.05617 8.78035 4.49231 9.47342 4.49231C9.6674 4.49231 9.82467 4.33505 9.82467 4.14107C9.82467 3.94709 9.6674 3.78982 9.47342 3.78982C8.393 3.78982 7.514 4.66882 7.514 5.74925C7.514 6.11707 7.61487 6.46897 7.80295 6.77418C7.6921 6.84222 7.5812 6.91851 7.47035 7.00403C6.66399 6.44162 5.88708 6.25555 5.14797 6.4456C4.87649 6.28126 4.70634 5.98585 4.70634 5.66303C4.70634 5.15846 5.11688 4.74792 5.62145 4.74792C5.67442 4.74792 5.72879 4.75284 5.78316 4.76253C5.88737 4.78113 5.99433 4.75172 6.07441 4.68254C6.1545 4.61337 6.19908 4.51179 6.19585 4.406C6.19571 4.40066 6.19543 4.39532 6.19505 4.38956C6.19889 4.20148 6.35307 4.04965 6.54204 4.04965C6.5884 4.04965 6.63345 4.05864 6.67579 4.07639C6.80931 4.13217 6.96325 4.10065 7.0638 3.99668C7.16439 3.89276 7.19099 3.73779 7.13086 3.60629C7.04553 3.41975 7.00727 3.22058 7.01715 3.01428C7.04825 2.36546 7.58059 1.83344 8.22908 1.80305C8.76588 1.7779 9.26408 2.09379 9.46939 2.58909C9.5322 2.74064 9.69157 2.8284 9.85328 2.80077C10.015 2.773 10.1359 2.637 10.1446 2.47318C10.1973 1.48023 11.0182 0.702487 12.0135 0.702487C12.2424 0.702487 12.4666 0.743746 12.6799 0.825141C12.8612 0.894266 13.0642 0.803364 13.1333 0.622123C13.2025 0.440834 13.1116 0.237862 12.9303 0.168737C12.6367 0.056761 12.3282 0 12.0135 0C10.934 0 10.0037 0.665349 9.6231 1.61652C9.24221 1.27028 8.73174 1.07644 8.19625 1.10136C7.18987 1.14852 6.36374 1.97404 6.31551 2.9807C6.30923 3.11174 6.31551 3.24099 6.33424 3.36786C5.97049 3.4412 5.67428 3.70323 5.55242 4.04698C4.69239 4.08323 4.0039 4.79424 4.0039 5.66303C4.0039 6.07586 4.16164 6.46302 4.43013 6.75591C4.29932 6.83623 4.16983 6.92896 4.04179 7.03466C3.84533 7.19675 3.74679 7.44369 3.77822 7.69518L5.72781 23.2919C5.77829 23.6956 6.12312 24 6.53 24H17.6374C18.0443 24 18.3892 23.6956 18.4396 23.2919L20.3892 7.69518C20.4207 7.44365 20.3221 7.19675 20.1257 7.03461ZM13.1902 7.61201L12.8908 21.5629H11.2766L10.9766 7.58091C11.4307 7.09821 12.0898 6.73713 13.1902 7.61201ZM4.4889 7.57646C4.67984 7.41887 4.91306 7.2588 5.1949 7.16438C5.21429 7.1598 5.23321 7.15385 5.25152 7.14607C5.39202 7.10453 5.54427 7.07971 5.70903 7.07971C6.10973 7.07971 6.58456 7.22658 7.14454 7.63468L7.98457 18.1648C7.99923 18.3487 8.15298 18.4881 8.33432 18.4881C8.34368 18.4881 8.35314 18.4878 8.3626 18.487C8.55597 18.4716 8.70022 18.3024 8.68481 18.109L7.84665 7.60217C8.71188 6.90709 9.48958 6.90845 10.2745 7.60597L10.574 21.5629H8.96042L8.80405 19.6026C8.78864 19.4093 8.61938 19.265 8.42597 19.2805C8.2326 19.2959 8.08835 19.4651 8.10381 19.6585L8.25573 21.563H6.21969L4.47532 7.60803C4.47387 7.59651 4.47893 7.58471 4.4889 7.57646ZM17.6374 23.2975H6.53C6.47666 23.2975 6.43146 23.2576 6.42486 23.2047L6.30745 22.2654H8.63517H8.63563H8.6362H15.5312H15.5318H15.5322H17.8599L17.7425 23.2047C17.7359 23.2576 17.6907 23.2975 17.6374 23.2975ZM17.9478 21.5629H15.9118L16.6952 11.7427C16.7106 11.5494 16.5664 11.3801 16.373 11.3646C16.1799 11.3489 16.0104 11.4934 15.9949 11.6869L15.2071 21.5629H13.5935L13.893 7.60597C14.678 6.90845 15.4557 6.90709 16.3208 7.60217L16.114 10.1947C16.0986 10.3881 16.2428 10.5574 16.4362 10.5728C16.4457 10.5736 16.4552 10.5739 16.4645 10.5739C16.6458 10.5739 16.7996 10.4344 16.8143 10.2506L17.023 7.63463C17.8655 7.02061 18.5148 6.99864 19.0096 7.17708C19.0311 7.18794 19.0534 7.19637 19.0763 7.20255C19.3123 7.29865 19.5115 7.43864 19.6786 7.57646C19.6886 7.58471 19.6936 7.59651 19.6922 7.60803L17.9478 21.5629Z" fill="black"/>
<path d="M11.7936 2.71826C11.5996 2.71826 11.4424 2.87553 11.4424 3.06951C11.4424 3.26349 11.5996 3.42075 11.7936 3.42075C12.0308 3.42075 12.2238 3.61375 12.2238 3.85095C12.2238 4.04494 12.3811 4.2022 12.5751 4.2022C12.7691 4.2022 12.9263 4.04494 12.9263 3.85095C12.9263 3.22635 12.4182 2.71826 11.7936 2.71826Z" fill="black"/>
<path d="M14.8988 5.35398C14.8988 5.03369 15.1593 4.77317 15.4796 4.77317C15.6736 4.77317 15.8308 4.6159 15.8308 4.42192C15.8308 4.22794 15.6736 4.07068 15.4796 4.07068C14.772 4.07068 14.1963 4.64634 14.1963 5.35398C14.1963 5.54796 14.3536 5.70523 14.5475 5.70523C14.7415 5.70523 14.8988 5.54796 14.8988 5.35398Z" fill="black"/>
<path d="M23.9737 15.2961C23.9737 14.6441 23.4433 14.1136 22.7913 14.1136C22.415 14.1136 22.072 14.2885 21.8524 14.5771C21.7954 14.5686 21.7377 14.5644 21.6795 14.5644C21.0275 14.5644 20.4971 15.0948 20.4971 15.7468C20.4971 16.3971 21.0247 16.9264 21.6744 16.9292C21.87 17.3213 22.2736 17.5818 22.7313 17.5818C23.3833 17.5818 23.9138 17.0514 23.9138 16.3994C23.9138 16.2286 23.876 16.0596 23.8051 15.9054C23.915 15.7232 23.9737 15.5141 23.9737 15.2961ZM23.1064 16.1008C23.175 16.1867 23.2112 16.29 23.2112 16.3994C23.2112 16.664 22.996 16.8793 22.7313 16.8793C22.4982 16.8793 22.2998 16.7127 22.2595 16.4832C22.2422 16.3847 22.1837 16.2983 22.0988 16.2456C22.0426 16.2107 21.9784 16.1927 21.9135 16.1927C21.8804 16.1927 21.8471 16.1974 21.8147 16.2069C21.7698 16.22 21.7243 16.2267 21.6794 16.2267C21.4148 16.2267 21.1995 16.0114 21.1995 15.7468C21.1995 15.4822 21.4148 15.2669 21.6794 15.2669C21.7469 15.2669 21.8128 15.2811 21.8754 15.3092C21.9628 15.3484 22.0624 15.3503 22.1512 15.3144C22.24 15.2785 22.3102 15.2078 22.3457 15.1188C22.4189 14.9349 22.5938 14.8161 22.7912 14.8161C23.0558 14.8161 23.2711 15.0314 23.2711 15.296C23.2711 15.4235 23.2216 15.5436 23.1316 15.6342C23.0061 15.7608 22.9952 15.9614 23.1064 16.1008Z" fill="black"/>
<path d="M3.22618 10.7855C3.25578 10.5748 3.22772 10.3593 3.14216 10.1589C3.0182 9.86835 2.78853 9.64355 2.49545 9.52582C2.20237 9.40808 1.88101 9.4115 1.59051 9.53551C1.24442 9.68322 0.997562 9.97869 0.908814 10.3303C0.85313 10.3449 0.79843 10.3636 0.744854 10.3865C0.454352 10.5104 0.229556 10.7401 0.111772 11.0332C-0.00601125 11.3262 -0.00254565 11.6476 0.121467 11.9381C0.376704 12.5362 1.06982 12.8159 1.66839 12.5635C1.88251 12.7455 2.154 12.8442 2.43227 12.8442C2.5879 12.8442 2.74572 12.8133 2.89671 12.7488C3.4964 12.4929 3.77599 11.7968 3.5201 11.1972C3.45303 11.04 3.35202 10.8995 3.22618 10.7855ZM2.62096 12.1027C2.40652 12.1941 2.15868 12.1188 2.03148 11.9235C1.97692 11.8398 1.8893 11.7833 1.79053 11.7681C1.77273 11.7654 1.75494 11.764 1.73719 11.764C1.65631 11.764 1.57725 11.792 1.51398 11.844C1.47788 11.8737 1.43868 11.8977 1.39737 11.9154C1.15394 12.0193 0.871442 11.9057 0.767567 11.6624C0.717269 11.5444 0.715864 11.414 0.76368 11.2951C0.811496 11.1761 0.902726 11.0829 1.02065 11.0326C1.0827 11.0061 1.14892 10.9934 1.21758 10.9946C1.31373 10.9969 1.40571 10.959 1.47324 10.8911C1.54077 10.8232 1.57768 10.7307 1.57533 10.6349C1.57056 10.437 1.68473 10.2591 1.86626 10.1816C2.10983 10.0778 2.39223 10.1913 2.49606 10.4346C2.54608 10.5518 2.54767 10.6817 2.50046 10.8004C2.43452 10.9661 2.50327 11.1549 2.66035 11.2395C2.7572 11.2916 2.8311 11.3723 2.874 11.4729C2.97783 11.7163 2.86435 11.9988 2.62096 12.1027Z" fill="black"/>
</g>
<defs>
<clipPath id="clip0">
<rect width="24" height="24" fill="white"/>
</clipPath>
</defs>
</svg>
