<svg width="24" height="24" viewBox="0 0 24 24" fill="none" xmlns="http://www.w3.org/2000/svg">
<g clip-path="url(#clip0)">
<path d="M17.6091 23.6481H6.39063C5.87744 23.6481 5.46143 23.2321 5.46143 22.7189V18.1051C5.46143 15.5271 7.55128 13.4373 10.1292 13.4373H13.8705C16.4485 13.4373 18.5383 15.5271 18.5383 18.1051V22.7189C18.5383 23.2321 18.1223 23.6481 17.6091 23.6481Z" fill="#698ED5"/>
<path d="M13.8701 13.4373H12.4985C15.0765 13.4373 17.1663 15.5271 17.1663 18.1051V22.7189C17.1663 23.2321 16.7503 23.6481 16.2371 23.6481H17.6087C18.1219 23.6481 18.5379 23.2321 18.5379 22.7189V18.1051C18.5379 15.5271 16.448 13.4373 13.8701 13.4373Z" fill="#4073C8"/>
<path d="M13.87 13.4373H13.832V15.3261H17.6206C16.7701 14.1801 15.4068 13.4373 13.87 13.4373Z" fill="#F6E266"/>
<path d="M16.249 15.3261H17.6206C17.3707 15.119 16.5576 13.529 13.832 13.4373V13.6309C14.8108 13.9222 15.655 14.5256 16.249 15.3261Z" fill="#FFD064"/>
<path d="M10.167 15.3261V13.4373H10.129C8.59217 13.4373 7.22893 14.1801 6.37842 15.3261H10.167Z" fill="#F6E266"/>
<path d="M10.1689 23.6481H13.8302L11.9996 14.9753L10.1689 23.6481Z" fill="#544F57"/>
<path d="M11.9996 14.9753L11.6035 16.8519L13.038 23.6481H13.8302L11.9996 14.9753Z" fill="#454045"/>
<path d="M10.4106 17.2263L11.9963 15.6406L13.582 17.2263L11.9963 18.812L10.4106 17.2263Z" fill="#AFAAB4"/>
<path d="M11.9998 16.704L14.3267 10.9399H9.67285L11.9998 16.704Z" fill="#544F57"/>
<path d="M11.9999 16.7038L10.4487 12.8611L9.42536 13.6997C9.1186 13.9511 9.01461 14.3748 9.17017 14.7396L10.471 17.7908L11.9999 16.7038Z" fill="#F6F1F1"/>
<path d="M11.9995 16.7038L13.5508 12.8611L14.5741 13.6997C14.8808 13.9511 14.9848 14.3748 14.8293 14.7396L13.5284 17.7908L11.9995 16.7038Z" fill="#F6F1F1"/>
<path d="M11.9995 14.1546C9.68468 14.1546 7.80811 12.2781 7.80811 9.96321V6.61646H16.191V9.96321C16.1909 12.2781 14.3144 14.1546 11.9995 14.1546Z" fill="#F1D0A5"/>
<path d="M15.2111 6.6167C12.7434 6.6167 10.2758 6.6167 7.80811 6.6167V7.79195C9.92063 8.77737 12.0331 9.01727 14.1457 8.51256C14.6885 8.38286 15.2111 8.78943 15.2111 9.34759V9.96346C15.2111 12.1125 13.5935 13.8836 11.5096 14.1262C11.6703 14.145 11.8338 14.1549 11.9995 14.1549C14.3144 14.1549 16.1909 12.2783 16.1909 9.96346V6.6167H15.2111Z" fill="#F1B986"/>
<path d="M7.80836 10.1509H7.46086C6.93448 10.1509 6.50781 9.7242 6.50781 9.19787V9.00016C6.50781 8.47378 6.93452 8.04712 7.46086 8.04712H7.80836V10.1509Z" fill="#E2A770"/>
<path d="M16.1909 10.1509H16.5384C17.0648 10.1509 17.4915 9.7242 17.4915 9.19787V9.00016C17.4915 8.47378 17.0648 8.04712 16.5384 8.04712H16.1909V10.1509Z" fill="#E2A770"/>
<path d="M16.4074 7.01289C13.4689 8.45431 10.5305 8.45431 7.59206 7.01289C7.45972 6.94799 7.37549 6.81359 7.37549 6.66619V5.86768H16.624V6.66619C16.624 6.81359 16.5397 6.94799 16.4074 7.01289Z" fill="#544F57"/>
<path d="M15.9284 5.86768V6.66619C15.9284 6.81354 15.8442 6.94799 15.7119 7.01289C14.3585 7.67672 13.0052 8.03403 11.6519 8.0864C13.237 8.14773 14.8221 7.79043 16.4072 7.01289C16.5395 6.94799 16.6238 6.81354 16.6238 6.66619V5.86768H15.9284Z" fill="#454045"/>
<path d="M16.7728 2.3225C15.1472 2.56221 13.519 1.90541 12.5148 0.604965C12.2544 0.267746 11.7455 0.267746 11.4851 0.604965C10.4808 1.90541 8.85261 2.56221 7.2271 2.3225L6.81738 2.26211C6.4651 2.21016 6.21681 2.59557 6.40724 2.89642C6.81466 3.54012 7.03662 4.2918 7.03662 5.06746V5.8679H12V5.86786V5.8679H16.9633V5.06746C16.9633 4.29185 17.1853 3.54012 17.5927 2.89642C17.7832 2.59557 17.5349 2.21016 17.1826 2.26211L16.7728 2.3225Z" fill="#698ED5"/>
<path d="M7.37169 2.34154C7.32349 2.336 7.27525 2.32981 7.22701 2.32268L6.81729 2.26228C6.688 2.24323 6.57303 2.2834 6.48828 2.35632C6.78524 2.38045 7.08093 2.37481 7.37169 2.34154Z" fill="#4073C8"/>
<path d="M15.5939 2.34137C14.3914 2.20368 13.2746 1.5887 12.515 0.604965C12.2546 0.267746 11.7457 0.267746 11.4853 0.604965C11.4845 0.605951 11.4837 0.606936 11.4829 0.607922C12.4575 1.86782 14.0182 2.52241 15.5939 2.34137Z" fill="#4073C8"/>
<path d="M17.1824 2.26207L16.7727 2.32246C16.6741 2.33701 16.5754 2.34809 16.477 2.35611C16.6231 2.48192 16.6787 2.70591 16.5581 2.89638C16.1507 3.54008 15.9287 4.29176 15.9287 5.06743V5.86786H16.9632V5.06743C16.9632 4.29176 17.1851 3.54008 17.5926 2.89638C17.783 2.59549 17.5346 2.21012 17.1824 2.26207Z" fill="#4073C8"/>
<path d="M11.9999 4.63817L12.4614 4.30288C12.8502 4.02038 13.0129 3.51966 12.8644 3.06255L12.6882 2.52002H11.3117L11.1354 3.06255C10.9869 3.51962 11.1496 4.02038 11.5384 4.30288L11.9999 4.63817Z" fill="#F6E266"/>
<path d="M12.8642 3.06255L12.6879 2.52002H12.0474L12.1932 2.96869C12.3417 3.42576 12.179 3.92652 11.7902 4.20902L11.5996 4.34746L11.9997 4.63817L12.4612 4.30288C12.85 4.02038 13.0127 3.51966 12.8642 3.06255Z" fill="#FFD064"/>
<path d="M16.1425 17.5082L16.389 18.0077C16.4079 18.0461 16.4446 18.0728 16.487 18.079L17.0383 18.1591C17.1451 18.1746 17.1878 18.3059 17.1105 18.3813L16.7116 18.7701C16.6809 18.8 16.6669 18.8431 16.6741 18.8854L16.7683 19.4344C16.7866 19.5408 16.6749 19.6219 16.5793 19.5717L16.0863 19.3125C16.0483 19.2926 16.003 19.2926 15.965 19.3125L15.472 19.5717C15.3764 19.622 15.2647 19.5408 15.283 19.4344L15.3772 18.8854C15.3844 18.8431 15.3704 18.8 15.3397 18.7701L14.9409 18.3813C14.8635 18.3059 14.9062 18.1746 15.0131 18.1591L15.5643 18.079C15.6067 18.0728 15.6434 18.0462 15.6624 18.0077L15.9089 17.5082C15.9566 17.4113 16.0947 17.4113 16.1425 17.5082Z" fill="#F6E266"/>
<path d="M9.39542 19.7386H6.92803C6.78763 19.7386 6.67383 19.6248 6.67383 19.4844V18.8377C6.67383 18.6973 6.78763 18.5835 6.92803 18.5835H9.39542C9.53582 18.5835 9.64962 18.6973 9.64962 18.8377V19.4844C9.64962 19.6247 9.53578 19.7386 9.39542 19.7386Z" fill="#F6F1F1"/>
<path d="M15.1381 13.2472C15.3483 13.0467 15.5409 12.8251 15.7116 12.5836C15.8239 12.4249 15.7862 12.2053 15.6275 12.0931C15.4688 11.9809 15.2491 12.0185 15.1369 12.1772C14.4171 13.195 13.2444 13.8028 11.9997 13.8028C9.88263 13.8028 8.16026 12.0804 8.16026 9.96331V8.04718V7.65463C9.3944 8.16299 10.6913 8.44287 11.9997 8.44287C13.3422 8.44287 14.6416 8.14802 15.8392 7.65463V8.04718V9.96331C15.8392 10.3167 15.7911 10.6669 15.6963 11.0043C15.6438 11.1914 15.7529 11.3858 15.94 11.4384C16.1271 11.491 16.3215 11.3819 16.374 11.1947C16.4376 10.9683 16.4828 10.737 16.5106 10.503H16.5386C17.2582 10.503 17.8437 9.91756 17.8437 9.19797V9.00027C17.8437 8.28219 17.2607 7.69776 16.5431 7.69536V7.3382C16.5495 7.33506 16.5559 7.33219 16.5623 7.32905C16.5624 7.32905 16.5624 7.32905 16.5624 7.329C16.8136 7.20572 16.9759 6.94561 16.9759 6.66634V6.21978H17.3217C17.5161 6.21978 17.6737 6.06225 17.6737 5.86783C17.6737 5.67341 17.5161 5.51587 17.3217 5.51587H17.315V5.06734C17.315 4.36428 17.5137 3.67863 17.8898 3.08453C18.0528 2.82718 18.051 2.50887 17.8852 2.25392C17.7201 1.9999 17.4314 1.86968 17.1309 1.91379L16.7212 1.97423C15.2236 2.19516 13.7184 1.58797 12.7931 0.389731C12.6019 0.142002 12.3127 0 11.9997 0C11.6867 0 11.3976 0.142002 11.2063 0.389731C10.8207 0.88913 10.3175 1.30153 9.7509 1.58239C9.57675 1.66873 9.50552 1.87991 9.59187 2.05405C9.67826 2.2282 9.88943 2.29934 10.0635 2.21309C10.7252 1.88507 11.313 1.40336 11.7635 0.81996C11.8204 0.746237 11.9066 0.703909 11.9997 0.703909C12.0929 0.703909 12.1791 0.74619 12.236 0.81996C13.3166 2.21938 15.0745 2.92849 16.824 2.67063L17.2336 2.61019C17.2434 2.60864 17.2734 2.60432 17.2951 2.63759C17.3177 2.67237 17.3007 2.69925 17.2951 2.70808C16.8477 3.41494 16.6111 4.23077 16.6111 5.06734V5.51587H7.38835V5.06734C7.38835 4.23077 7.15184 3.41494 6.70438 2.70812C6.6988 2.6993 6.68181 2.67237 6.70438 2.63759C6.72607 2.60427 6.75605 2.60873 6.76581 2.61019L7.17553 2.67063C7.62331 2.73666 8.0787 2.73999 8.5292 2.68058C8.72188 2.65514 8.8575 2.47832 8.83207 2.28559C8.80663 2.09286 8.62962 1.95701 8.43708 1.98272C8.05143 2.03364 7.66147 2.03078 7.2783 1.97423L6.86854 1.91379C6.5682 1.86958 6.27937 1.9999 6.11427 2.25392C5.94853 2.50892 5.94679 2.82718 6.10968 3.08457C6.48575 3.67863 6.68449 4.36428 6.68449 5.06734V5.51587H6.67778C6.48336 5.51587 6.32582 5.67341 6.32582 5.86783C6.32582 6.06225 6.48336 6.21978 6.67778 6.21978H7.02358V6.66634C7.02358 6.94561 7.18586 7.20572 7.43711 7.32905C7.44354 7.33219 7.44992 7.33506 7.45635 7.3382V7.69536C6.73883 7.6978 6.15576 8.28219 6.15576 9.00027V9.19797C6.15576 9.91756 6.74122 10.503 7.46081 10.503H7.48854C7.61618 11.5765 8.11924 12.5363 8.86276 13.2469C6.67693 13.815 5.10938 15.7981 5.10938 18.105V22.7189C5.10938 23.4253 5.68409 24 6.39058 24H7.49182C7.68624 24 7.84378 23.8425 7.84378 23.6481C7.84378 23.4537 7.68624 23.2961 7.49182 23.2961H6.39058C6.07228 23.2961 5.81328 23.0371 5.81328 22.7189V18.105C5.81328 17.232 6.07547 16.3896 6.56032 15.678H9.18735L10.147 17.929C10.1888 18.027 10.2727 18.1008 10.3752 18.1297C10.5754 18.186 10.7034 18.0514 10.7286 18.0394L10.9472 18.258L9.88375 23.2961H8.89898C8.70456 23.2961 8.54703 23.4536 8.54703 23.648C8.54703 23.8425 8.70456 24 8.89898 24H17.6089C18.3154 24 18.8901 23.4253 18.8901 22.7188V18.105C18.8901 15.8102 17.3339 13.8185 15.1381 13.2472ZM17.1398 9.00022V9.19793C17.1398 9.52792 16.8726 9.79667 16.5431 9.79906V8.39913C16.8725 8.40148 17.1398 8.67023 17.1398 9.00022ZM16.272 6.21974C16.2647 6.66906 16.2882 6.67925 16.2524 6.69703C14.9382 7.34163 13.4988 7.7414 11.9997 7.7414C10.5013 7.7414 9.05962 7.34097 7.74715 6.69708C7.73519 6.69117 7.72745 6.67911 7.72745 6.6663V6.21974H16.272ZM6.85967 9.19793V9.00022C6.85967 8.67023 7.12692 8.40148 7.45635 8.39908V9.79902C7.12692 9.79667 6.85967 9.52792 6.85967 9.19793ZM13.3764 17.2508L12.4301 16.578L13.3495 14.3006C13.6684 14.2011 13.975 14.0665 14.2639 13.9004L14.3512 13.9719C14.5358 14.1232 14.5993 14.3821 14.5058 14.6016L13.3764 17.2508ZM15.1534 14.8778C15.2751 14.5921 15.2812 14.2775 15.1869 13.995C15.8011 14.1915 16.3655 14.5247 16.8391 14.9741H15.1123L15.1534 14.8778ZM12.5194 14.4763L11.9997 15.7636L11.4803 14.4768C11.6508 14.4963 11.8241 14.5067 11.9997 14.5067C12.1744 14.5067 12.3479 14.4962 12.5194 14.4763ZM7.16038 14.9741C7.63397 14.5247 8.19836 14.1915 8.81259 13.995C8.71827 14.2775 8.72437 14.5921 8.84614 14.8778L8.88721 14.9741H7.16038ZM9.49369 14.6017C9.40012 14.3822 9.46361 14.1233 9.64822 13.972L9.73499 13.9009C10.022 14.0666 10.3287 14.2019 10.6506 14.3022L11.5694 16.578L10.6231 17.2508L9.49369 14.6017ZM11.9997 17.1357L12.689 17.6257L11.9997 18.315L11.3105 17.6257L11.9997 17.1357ZM10.6031 23.2961L11.5412 18.852C11.7018 18.9883 11.7804 19.1647 11.9997 19.1647C12.2191 19.1647 12.2966 18.9892 12.4583 18.8519L13.3964 23.2961H10.6031ZM18.1862 22.7188C18.1862 23.0371 17.9272 23.2961 17.6089 23.2961H14.1157L13.0523 18.2579L13.2708 18.0394C13.2961 18.0515 13.4238 18.1861 13.6242 18.1297C13.7267 18.1008 13.8106 18.027 13.8524 17.929L14.8121 15.6781H17.4391C17.9239 16.3897 18.1862 17.232 18.1862 18.105V22.7188H18.1862Z" fill="black"/>
<path d="M13.5552 9.44595V9.87153C13.5552 10.066 13.7127 10.2235 13.9071 10.2235C14.1015 10.2235 14.2591 10.066 14.2591 9.87153V9.44595C14.2591 9.25153 14.1015 9.09399 13.9071 9.09399C13.7127 9.09399 13.5552 9.25153 13.5552 9.44595Z" fill="black"/>
<path d="M9.74023 9.44595V9.87153C9.74023 10.066 9.89777 10.2235 10.0922 10.2235C10.2866 10.2235 10.4441 10.066 10.4441 9.87153V9.44595C10.4441 9.25153 10.2866 9.09399 10.0922 9.09399C9.89777 9.09399 9.74023 9.25153 9.74023 9.44595Z" fill="black"/>
<path d="M12.579 11.2811C12.1783 11.5852 11.8209 11.5852 11.4202 11.2811C11.2654 11.1637 11.0446 11.1939 10.9271 11.3487C10.8096 11.5035 10.8398 11.7243 10.9947 11.8418C11.3234 12.0913 11.6615 12.216 11.9996 12.216C12.3377 12.216 12.6758 12.0914 13.0045 11.8418C13.1594 11.7243 13.1896 11.5035 13.0721 11.3487C12.9546 11.1938 12.7339 11.1636 12.579 11.2811Z" fill="black"/>
<path d="M11.7926 4.92288C11.8543 4.96765 11.9269 4.99008 11.9995 4.99008C12.072 4.99008 12.1446 4.96765 12.2063 4.92284L12.6678 4.58754C13.1815 4.21428 13.3949 3.55767 13.1986 2.95377L13.0223 2.41119C12.9752 2.26614 12.8401 2.16797 12.6876 2.16797H11.3112C11.1587 2.16797 11.0236 2.26614 10.9764 2.41119L10.8001 2.95377C10.6039 3.55767 10.8172 4.21428 11.331 4.58759L11.7926 4.92288ZM11.4696 3.17127L11.5669 2.87193H12.4319L12.5292 3.17127C12.6309 3.48433 12.5204 3.82464 12.2541 4.01812L11.9995 4.20306L11.7448 4.01812C11.4785 3.82464 11.3679 3.48433 11.4696 3.17127Z" fill="black"/>
<path d="M17.0886 17.8107L16.6527 17.7473L16.4578 17.3523C16.376 17.1865 16.2103 17.0835 16.0254 17.0835C16.0253 17.0835 16.0253 17.0835 16.0253 17.0835C15.8404 17.0835 15.6747 17.1866 15.5929 17.3523L15.398 17.7473L14.9621 17.8107C14.7791 17.8372 14.6299 17.9631 14.5728 18.1389C14.5157 18.3148 14.5624 18.5042 14.6948 18.6332L15.0103 18.9406L14.9358 19.3747C14.9045 19.557 14.978 19.7378 15.1276 19.8465C15.2774 19.9553 15.4721 19.9692 15.6355 19.8832L16.0254 19.6782L16.4152 19.8831C16.5789 19.9692 16.7735 19.9552 16.9231 19.8465C17.0727 19.7379 17.1462 19.5571 17.115 19.3748L17.0405 18.9407L17.3559 18.6332C17.4883 18.5042 17.5351 18.3148 17.478 18.1389C17.4208 17.9631 17.2716 17.8372 17.0886 17.8107ZM16.4657 18.5179C16.352 18.6287 16.3002 18.7883 16.327 18.9449L16.3452 19.0511L16.2497 19.0009C16.1092 18.9271 15.9415 18.9271 15.801 19.0009L15.7055 19.0512L15.7237 18.9451C15.7506 18.7885 15.6988 18.6289 15.5851 18.5179L15.5078 18.4427L15.6144 18.4272C15.7716 18.4045 15.9074 18.3058 15.9777 18.1633L16.0255 18.0666L16.0732 18.1633C16.1435 18.3058 16.2793 18.4044 16.4363 18.4271L16.543 18.4427L16.4657 18.5179Z" fill="black"/>
<path d="M10.002 19.4842V18.8376C10.002 18.5034 9.73003 18.2314 9.39577 18.2314H6.92842C6.59421 18.2314 6.32227 18.5034 6.32227 18.8376V19.4842C6.32227 19.8184 6.59421 20.0904 6.92842 20.0904H9.39577C9.73003 20.0904 10.002 19.8184 10.002 19.4842ZM9.29806 19.3865H7.02617V18.9354H9.29806V19.3865Z" fill="black"/>
</g>
<defs>
<clipPath id="clip0">
<rect width="24" height="24" fill="white"/>
</clipPath>
</defs>
</svg>
