<svg width="24" height="24" viewBox="0 0 24 24" fill="none" xmlns="http://www.w3.org/2000/svg">
<g clip-path="url(#clip0)">
<path d="M4.12775 1.47754H2.43097L0.775391 6.09005H5.78338L4.12775 1.47754Z" fill="#FF9C9B"/>
<path d="M5.05809 22.5219H1.5C0.930469 22.5219 0.46875 22.0602 0.46875 21.4906V19.0625H6.08934V21.4906C6.08934 22.0602 5.62767 22.5219 5.05809 22.5219Z" fill="#FF9C9B"/>
<path d="M0.46875 6.08984H6.08934V19.0625H0.46875V6.08984Z" fill="white"/>
<path d="M0.46875 8.66113H6.08934V16.4916H0.46875V8.66113Z" fill="#FF7B79"/>
<path d="M12.8485 1.47754H11.1517L9.49609 6.09005H14.504L12.8485 1.47754Z" fill="#99EBFA"/>
<path d="M13.7788 22.5219H10.2207C9.65117 22.5219 9.18945 22.0602 9.18945 21.4906V19.0625H14.81V21.4906C14.81 22.0602 14.3483 22.5219 13.7788 22.5219Z" fill="#99EBFA"/>
<path d="M9.18945 6.08984H14.81V19.0625H9.18945V6.08984Z" fill="white"/>
<path d="M9.18945 8.66113H14.81V16.4916H9.18945V8.66113Z" fill="#33D6F5"/>
<path d="M21.5692 1.47754H19.8724L18.2168 6.09005H23.2248L21.5692 1.47754Z" fill="#E0EF9B"/>
<path d="M22.4995 22.5219H18.9414C18.3719 22.5219 17.9102 22.0602 17.9102 21.4906V19.0625H23.5308V21.4906C23.5308 22.0602 23.069 22.5219 22.4995 22.5219Z" fill="#E0EF9B"/>
<path d="M17.9102 6.08984H23.5308V19.0625H17.9102V6.08984Z" fill="white"/>
<path d="M17.9102 8.66113H23.5308V16.4916H17.9102V8.66113Z" fill="#D5EA79"/>
<path d="M14.834 5.62251L13.2893 1.3192C13.2225 1.13301 13.046 1.00879 12.8481 1.00879H11.1514C10.9535 1.00879 10.777 1.13296 10.7102 1.3192L9.16555 5.62251C8.91786 5.63502 8.7207 5.83921 8.7207 6.09004V21.4908C8.7207 22.3179 9.39359 22.9908 10.2207 22.9908H13.7788C14.6059 22.9908 15.2788 22.3179 15.2788 21.4908V6.09004C15.2788 5.83921 15.0816 5.63502 14.834 5.62251ZM14.3413 16.0229H9.6582V9.12988H14.3413V16.0229ZM14.3413 8.19238H9.6582V6.55879H14.3413V8.19238ZM9.6582 16.9604H14.3413V18.5939H9.6582V16.9604ZM11.4811 1.94629H12.5183L13.8374 5.62129H10.162L11.4811 1.94629ZM13.7788 22.0533H10.2207C9.91053 22.0533 9.6582 21.801 9.6582 21.4908V19.5314H14.3413V21.4908C14.3413 21.801 14.089 22.0533 13.7788 22.0533Z" fill="black"/>
<path d="M23.5546 5.62251L22.01 1.3192C21.9431 1.13301 21.7666 1.00879 21.5688 1.00879H19.8721C19.6742 1.00879 19.4977 1.13296 19.4309 1.3192L17.8862 5.62251C17.6386 5.63502 17.4414 5.83921 17.4414 6.09004V21.4908C17.4414 22.3179 18.1143 22.9908 18.9414 22.9908H22.4994C23.3265 22.9908 23.9994 22.3179 23.9994 21.4908V6.09004C23.9994 5.83921 23.8023 5.63502 23.5546 5.62251ZM18.3789 9.12988H23.0619V16.0229H18.3789V9.12988ZM23.0619 8.19238H18.3789V6.55879H23.0619V8.19238ZM18.3789 16.9604H23.0619V18.5939H18.3789V16.9604ZM20.2018 1.94629H21.239L22.5581 5.62129H18.8827L20.2018 1.94629ZM22.4994 22.0533H18.9414C18.6312 22.0533 18.3789 21.801 18.3789 21.4908V19.5314H23.0619V21.4908C23.0619 21.801 22.8096 22.0533 22.4994 22.0533Z" fill="black"/>
<path d="M6.08984 11.9409C5.96609 11.9409 5.84562 11.9911 5.75797 12.0783C5.67078 12.1654 5.62109 12.2864 5.62109 12.4097C5.62109 12.5329 5.67078 12.6539 5.75797 12.7411C5.84562 12.8282 5.96609 12.8784 6.08984 12.8784C6.21312 12.8784 6.33406 12.8282 6.42125 12.7411C6.50844 12.6539 6.55859 12.5329 6.55859 12.4097C6.55859 12.2864 6.50844 12.1654 6.42125 12.0783C6.33406 11.9911 6.21312 11.9409 6.08984 11.9409Z" fill="black"/>
<path d="M6.08934 14.0502C5.83045 14.0502 5.62059 14.2601 5.62059 14.519V16.0229H0.9375V9.12993H5.62059V10.3002C5.62059 10.5591 5.83045 10.769 6.08934 10.769C6.34823 10.769 6.55809 10.5591 6.55809 10.3002V6.09009C6.55809 5.83926 6.36094 5.63507 6.11325 5.62255L4.56862 1.3192C4.50178 1.13301 4.32525 1.00879 4.12744 1.00879H2.43066C2.23284 1.00879 2.05631 1.13296 1.98947 1.3192L0.444844 5.62255C0.197156 5.63507 0 5.83926 0 6.09009V21.4909C0 22.318 0.672891 22.9909 1.5 22.9909H5.05809C5.8852 22.9909 6.55809 22.318 6.55809 21.4909V14.519C6.55809 14.2601 6.34823 14.0502 6.08934 14.0502ZM5.62059 16.9604V18.594H0.9375V16.9604H5.62059ZM0.9375 8.19243V6.55884H5.62059V8.19243H0.9375ZM2.76042 1.94634H3.79767L5.11678 5.62134H1.44136L2.76042 1.94634ZM5.62059 21.4909C5.62059 21.801 5.36827 22.0534 5.05809 22.0534H1.5C1.18983 22.0534 0.9375 21.801 0.9375 21.4909V19.5315H5.62059V21.4909Z" fill="black"/>
</g>
<defs>
<clipPath id="clip0">
<rect width="24" height="24" fill="white"/>
</clipPath>
</defs>
</svg>
