<svg width="24" height="24" viewBox="0 0 24 24" fill="none" xmlns="http://www.w3.org/2000/svg">
<g clip-path="url(#clip0)">
<path d="M2.33008 7.66699V21.1684H16.2757V2.85938" fill="#FFD4B8"/>
<path d="M16.2754 2.85938V21.1684H21.1716V7.6267" fill="#FFAE55"/>
<path d="M16.2755 2.85938H1.96783L0.46875 7.38519H14.5977L16.2755 2.85938Z" fill="#B06D5D"/>
<path d="M21.5336 2.85938H16.2754L18.4516 7.38519H23.5311L21.5336 2.85938Z" fill="#B06D5D"/>
<path d="M9.30273 12.269L4.95215 15.4653V21.1683H13.6535L13.6533 15.4653L9.30273 12.269Z" fill="#FCD888"/>
<path d="M7.87891 16.8662H10.7256V21.1683H7.87891V16.8662Z" fill="#B06D5D"/>
<path d="M6.43677 12.2119V11.1649H5.01074V13.2596" fill="#FF4F4F"/>
<path d="M14.352 15.9785L9.30285 12.269L4.25391 15.9785V13.9567L9.30285 10.2471L14.352 13.9567V15.9785Z" fill="#FF4F4F"/>
<path d="M18.5176 9.59506C18.4872 9.59506 18.4566 9.59177 18.4262 9.58572C18.3962 9.58005 18.3667 9.57071 18.3385 9.55899C18.3103 9.54727 18.2832 9.53281 18.2574 9.51596C18.2321 9.49893 18.2078 9.47934 18.1862 9.45773C18.1646 9.43613 18.145 9.41232 18.1281 9.3865C18.1113 9.36124 18.0966 9.33395 18.0849 9.30539C18.0732 9.27737 18.0644 9.24789 18.0582 9.21768C18.0521 9.18784 18.0488 9.15689 18.0488 9.12631C18.0488 9.09592 18.0521 9.06497 18.0582 9.03494C18.0644 9.00491 18.0732 8.97543 18.0849 8.94687C18.0966 8.91867 18.1113 8.89157 18.1281 8.86612C18.145 8.84048 18.1646 8.8165 18.1862 8.79489C18.2078 8.77347 18.2321 8.75369 18.2574 8.7363C18.2832 8.71982 18.3105 8.70535 18.3385 8.69363C18.3667 8.68192 18.3962 8.67258 18.4262 8.6669C18.4866 8.65482 18.5489 8.65482 18.6095 8.6669C18.6395 8.67258 18.6685 8.68192 18.697 8.69363C18.7252 8.70535 18.7523 8.72 18.7778 8.7363C18.8036 8.75369 18.8274 8.77347 18.8494 8.79489C18.871 8.8165 18.8907 8.84048 18.9076 8.86612C18.9244 8.89157 18.9389 8.91867 18.9506 8.94687C18.9623 8.97543 18.9713 9.00491 18.9774 9.03494C18.9836 9.06497 18.9867 9.09592 18.9867 9.12631C18.9867 9.15689 18.9836 9.18784 18.9774 9.21768C18.9713 9.24789 18.9623 9.27737 18.9506 9.30539C18.9389 9.33395 18.9244 9.36124 18.9076 9.3865C18.8907 9.41232 18.871 9.43613 18.8494 9.45773C18.8274 9.47934 18.8036 9.49893 18.7778 9.51596C18.7523 9.53281 18.7252 9.54727 18.697 9.55899C18.6685 9.57071 18.6395 9.58005 18.6095 9.58572C18.5789 9.59177 18.5485 9.59506 18.5176 9.59506Z" fill="black"/>
<path d="M23.9601 7.19586L21.9626 2.67004C21.8877 2.50031 21.7194 2.39062 21.5338 2.39062H1.96787C1.76572 2.39062 1.58646 2.52008 1.52292 2.71197L0.0238406 7.23779C-0.0235836 7.38061 0.000586269 7.53753 0.088843 7.65966C0.176917 7.78161 0.318274 7.85394 0.468786 7.85394H1.86112V21.1684C1.86112 21.4272 2.07096 21.6372 2.32987 21.6372H21.1718C21.4305 21.6372 21.6405 21.4272 21.6405 21.1684V7.85394H23.5313C23.6898 7.85394 23.8374 7.77392 23.924 7.64117C24.0104 7.50842 24.0242 7.34088 23.9601 7.19586ZM2.30643 3.32812H15.6019L14.2716 6.91644H1.11789L2.30643 3.32812ZM2.79862 7.85394H14.5977C14.7938 7.85394 14.9691 7.73199 15.0372 7.54815L15.8068 5.47229V20.6997H14.1222L14.122 16.3872C14.1931 16.4269 14.2722 16.4472 14.3518 16.4472C14.4242 16.4472 14.4967 16.4306 14.5635 16.3967C14.7212 16.3169 14.8206 16.1552 14.8206 15.9785V13.9567C14.8206 13.8074 14.7495 13.6672 14.6294 13.5787L9.58029 9.86938C9.41513 9.74798 9.19046 9.74798 9.0253 9.86938L6.90567 11.4265V11.1648C6.90567 10.9059 6.69583 10.6961 6.43692 10.6961H5.0109C4.75198 10.6961 4.54215 10.9059 4.54215 11.1648V13.1629L3.97617 13.5787C3.85605 13.667 3.78501 13.8072 3.78501 13.9565V15.9785C3.78501 16.1552 3.88443 16.3169 4.04209 16.3967C4.18253 16.4679 4.34824 16.4632 4.48337 16.387L4.48355 20.6997H2.79862V7.85394ZM13.1847 20.6995H11.1949V16.8662C11.1949 16.6075 10.9849 16.3974 10.7262 16.3974H7.87942C7.62051 16.3974 7.41067 16.6075 7.41067 16.8662V20.6995H5.42105L5.42087 15.7026L9.3027 12.8507L13.1845 15.7026L13.1847 20.6995ZM10.2574 20.6995H8.34817V17.3349H10.2574V20.6995ZM13.8831 15.0524L9.58029 11.8912C9.49771 11.8306 9.40029 11.8002 9.3027 11.8002C9.20529 11.8002 9.10788 11.8306 9.0253 11.8912L4.7225 15.0524V14.1938L9.3027 10.8287L13.8831 14.1938V15.0524ZM5.96817 12.1152L5.47964 12.4742V11.6336H5.96817V12.1152ZM20.703 20.6997H18.987V10.8653C18.987 10.6064 18.7771 10.3965 18.5182 10.3965C18.2595 10.3965 18.0495 10.6064 18.0495 10.8653V20.6997H16.7443V4.91601L18.0293 7.58825C18.1073 7.75067 18.2716 7.85394 18.4517 7.85394H20.703V20.6997ZM18.7465 6.91644L17.0211 3.32812H21.2283L22.812 6.91644H18.7465Z" fill="black"/>
</g>
<defs>
<clipPath id="clip0">
<rect width="24" height="24" fill="white"/>
</clipPath>
</defs>
</svg>
