<svg width="24" height="24" viewBox="0 0 24 24" fill="none" xmlns="http://www.w3.org/2000/svg">
<g clip-path="url(#clip0)">
<path d="M21.197 12.9684H4.11075C3.38835 12.9684 2.80273 12.3827 2.80273 11.6602C2.80273 10.9377 3.38835 10.3521 4.11075 10.3521H21.197C20.7768 11.1656 20.7768 12.1547 21.197 12.9684Z" fill="#F7F7F7"/>
<path d="M21.1976 10.3521H4.11133H19.7913C19.3711 11.1657 19.3711 12.1548 19.7913 12.9684H21.1976C20.7774 12.1548 20.7774 11.1657 21.1976 10.3521Z" fill="#EFEFEF"/>
<path d="M4.30177 14.0581C3.65789 14.0581 3.05315 13.8055 2.59892 13.3468C2.14484 12.8883 1.89818 12.281 1.90441 11.6368C1.91712 10.3277 3.00444 9.2627 4.32821 9.2627H21.3881C21.7787 9.2627 22.0965 9.58051 22.0965 9.97113C22.0965 10.3617 21.7787 10.6796 21.3881 10.6796H4.30177C3.76102 10.6796 3.32109 11.1195 3.32109 11.6604C3.32109 12.2012 3.76102 12.6412 4.30177 12.6412H21.388C21.7787 12.6412 22.0964 12.959 22.0964 13.3497C22.0964 13.7403 21.7787 14.0581 21.388 14.0581H4.30177Z" fill="#FF815C"/>
<path d="M22.7948 22.5592H2.89591C2.17351 22.5592 1.58789 21.9735 1.58789 21.251C1.58789 20.5285 2.17351 19.9429 2.89591 19.9429H22.7947C22.3745 20.7564 22.3745 21.7456 22.7948 22.5592Z" fill="#F7F7F7"/>
<path d="M22.7937 19.9429H21.3874C20.9672 20.7565 20.9672 21.7455 21.3874 22.5592H22.7937C22.3734 21.7455 22.3734 20.7564 22.7937 19.9429Z" fill="#EFEFEF"/>
<path d="M2.89552 23.6489C2.25164 23.6489 1.6469 23.3963 1.19267 22.9377C0.738587 22.4791 0.491928 21.8718 0.498162 21.2276C0.510866 19.9185 1.59819 18.8535 2.92196 18.8535H22.7944C23.185 18.8535 23.5028 19.1713 23.5028 19.5619C23.5028 19.9526 23.185 20.2704 22.7944 20.2704H2.89552C2.35477 20.2704 1.91484 20.7104 1.91484 21.2512C1.91484 21.7921 2.35477 22.232 2.89552 22.232H22.7943C23.1849 22.232 23.5027 22.5498 23.5027 22.9405C23.5027 23.3311 23.1849 23.6489 22.7943 23.6489H2.89552V23.6489Z" fill="#FFE66B"/>
<path d="M1.20508 15.1475H21.1039C21.8263 15.1475 22.4119 15.7331 22.4119 16.4556C22.4119 17.1781 21.8263 17.7638 21.1039 17.7638H1.20508C1.62527 16.9502 1.62527 15.9611 1.20508 15.1475Z" fill="#F7F7F7"/>
<path d="M1.20643 18.8535C0.815817 18.8535 0.498047 18.5357 0.498047 18.1451C0.498047 17.7544 0.815817 17.4366 1.20643 17.4366H21.1052C21.646 17.4366 22.086 16.9966 22.086 16.4558C22.086 15.9149 21.646 15.475 21.1052 15.475H1.20643C0.815817 15.475 0.498047 15.1572 0.498047 14.7665C0.498047 14.3759 0.815817 14.0581 1.20643 14.0581H21.1053C21.7492 14.0581 22.3539 14.3107 22.8081 14.7693C23.2622 15.228 23.5088 15.8353 23.5026 16.4794C23.4899 17.7885 22.4026 18.8535 21.0788 18.8535H1.20643Z" fill="#C9F0FF"/>
<path d="M22.8074 14.7693C22.3533 14.3107 21.7485 14.0581 21.1046 14.0581H19.6984C20.3422 14.0581 20.947 14.3107 21.4012 14.7693C21.8553 15.228 22.1019 15.8353 22.0957 16.4794C22.083 17.7885 20.9956 18.8535 19.6719 18.8535H21.0781C22.4019 18.8535 23.4892 17.7885 23.502 16.4794C23.5081 15.8352 23.2615 15.2279 22.8074 14.7693Z" fill="#B5EAFF"/>
<path d="M18.5627 9.26269H5.4375L6.84377 4.52783H17.1564L18.5627 9.26269Z" fill="#288A9A"/>
<path d="M10.7877 0.50808L1.45904 2.95836C0.958967 3.08971 0.958967 3.79964 1.45904 3.93099L10.7877 6.38127C11.5823 6.58996 12.4172 6.58996 13.2118 6.38127L22.5405 3.93099C23.0405 3.79964 23.0405 3.08971 22.5405 2.95836L13.2118 0.50808C12.4172 0.29939 11.5823 0.29939 10.7877 0.50808Z" fill="#3498AC"/>
<path d="M22.5394 2.95836L13.2107 0.50808C12.4162 0.29939 11.5812 0.29939 10.7866 0.50808L9.36914 0.880413C10.0225 0.775787 10.6923 0.807897 11.3357 0.976837L20.6643 3.42712C21.1644 3.55847 21.1644 4.2684 20.6643 4.39974L22.5394 3.93099C23.0395 3.79964 23.0395 3.08971 22.5394 2.95836Z" fill="#288A9A"/>
<path d="M16.1932 11.297H14.1699C14.1699 11.297 14.1699 8.24365 15.1816 8.24365C16.1932 8.24365 16.1932 11.297 16.1932 11.297Z" fill="#FFE66B"/>
<path d="M6.03156 20.27L4.35938 21.1474V15.4746H6.03156V20.27Z" fill="#3498AC"/>
<path d="M12.6616 3.61285C12.2244 3.8806 11.7078 3.88093 11.2715 3.61285V2.61352C11.2715 2.22966 11.5827 1.91846 11.9665 1.91846C12.3504 1.91846 12.6616 2.22966 12.6616 2.61352V3.61285Z" fill="#FFE66B"/>
<path d="M22.9118 21.8866C22.8034 21.4701 22.8035 21.0308 22.9118 20.6148C24.1579 20.4442 24.1626 18.6873 22.9188 18.509C23.4853 18.0102 23.8464 17.2864 23.8542 16.4822C23.8645 15.4115 23.2281 14.4067 22.2555 13.9573C22.7606 13.2391 22.1799 12.237 21.3133 12.2891C21.2074 11.8774 21.2072 11.4429 21.3133 11.0306C22.7141 11.104 22.8063 8.91055 21.3882 8.91055H18.8254L17.8224 5.53354L22.6305 4.27062C23.4595 4.05288 23.4606 2.83599 22.6305 2.61792L13.3018 0.167733C12.4504 -0.0559109 11.5505 -0.0559109 10.6991 0.167733L7.23032 1.0789C6.80478 1.19065 6.96402 1.87565 7.40897 1.75897L10.8778 0.847805C11.6123 0.654911 12.3887 0.654911 13.1232 0.847805L22.4519 3.29809C22.602 3.33751 22.602 3.55122 22.4519 3.59064L15.2725 5.4764L13.0128 3.42746V2.61356C12.9553 1.22511 10.9769 1.22543 10.9195 2.61356V3.6129C10.9195 3.73506 10.983 3.8485 11.0871 3.91244C11.5631 4.20471 12.1214 4.24605 12.6266 4.02639L14.4608 5.68954L13.1232 6.04087C12.3887 6.23377 11.6122 6.23377 10.8777 6.04087L1.54904 3.59064C1.3989 3.55117 1.39885 3.33751 1.54904 3.29809L5.62985 2.22623C6.05538 2.11448 5.8961 1.42934 5.4512 1.54616L1.3704 2.61802C0.541449 2.83575 0.540277 4.05265 1.3704 4.27071L6.17848 5.53359L5.17548 8.9106H4.32825C2.81253 8.9106 1.56746 10.1318 1.55289 11.6329C1.54529 12.4187 1.88341 13.1808 2.46724 13.706H1.20647C-0.129763 13.7518 -0.226139 15.6305 1.08919 15.8194C1.19766 16.2359 1.19766 16.6747 1.08919 17.0912C-0.156998 17.2617 -0.161732 19.0187 1.08207 19.197C0.515527 19.6958 0.154444 20.4195 0.146616 21.2237C0.139491 21.9625 0.422292 22.6588 0.942892 23.1846C1.46363 23.7104 2.15711 24 2.89554 24H22.7943C24.1263 23.9562 24.2309 22.0774 22.9118 21.8866ZM12.3096 3.39685C12.085 3.48456 11.8467 3.4847 11.6226 3.39709V2.61356C11.6388 2.15887 12.2936 2.15915 12.3096 2.61356V3.39685ZM21.1053 15.8261C21.9388 15.8601 21.9408 17.0497 21.1053 17.0846H6.38351V15.8261H21.1053ZM5.68033 20.0573L4.71127 20.5658V15.8261H5.68033V20.0573ZM4.00814 17.0846H1.81178C1.89423 16.6695 1.89423 16.2412 1.81178 15.8261H4.00814V17.0846ZM4.17778 21.4481C4.29192 21.512 4.407 21.5155 4.52302 21.4586L6.11853 20.6215H22.1892C22.107 21.0363 22.107 21.4648 22.1893 21.88H2.89554C2.54866 21.88 2.26643 21.5977 2.26643 21.2508C2.26643 20.9038 2.54866 20.6215 2.89554 20.6215H4.00809V21.1473C4.00814 21.2703 4.0725 21.3844 4.17778 21.4481ZM20.5924 12.2892H4.30181C3.95493 12.2892 3.6727 12.0069 3.6727 11.6599C3.6727 11.3129 3.95493 11.0306 4.30181 11.0306H13.8251C13.8162 11.2811 13.8175 11.6482 14.1709 11.6482H16.1943C16.5487 11.6482 16.549 11.2812 16.5401 11.0306H20.5925C20.5102 11.4459 20.5101 11.8744 20.5924 12.2892ZM15.1826 8.59489C15.4924 8.59489 15.7873 9.69427 15.8358 10.9451H14.5295C14.5779 9.69427 14.8728 8.59489 15.1826 8.59489ZM21.7449 9.97065C21.7449 10.1674 21.5849 10.3275 21.3881 10.3275H16.494C16.4709 10.0885 16.4401 9.85008 16.3975 9.61374H21.3881C21.5849 9.61378 21.7449 9.77391 21.7449 9.97065ZM18.0919 8.91065H16.2218C16.0545 8.41827 15.8246 8.1034 15.5342 7.96821V6.13463L17.142 5.71232L18.0919 8.91065ZM6.85888 5.71232L10.6991 6.72099C11.5472 6.94375 12.4537 6.94375 13.3017 6.72099L14.831 6.31932V7.96821C14.5406 8.1034 14.3107 8.41827 14.1434 8.91065H5.90899L6.85888 5.71232ZM2.84876 13.099C2.46119 12.7076 2.25068 12.1894 2.25597 11.6397C2.26685 10.5226 3.19644 9.61378 4.32825 9.61378H13.9678C13.9251 9.85013 13.8944 10.0885 13.8712 10.3276H4.30181C3.56718 10.3276 2.96956 10.9253 2.96956 11.66C2.96956 12.3946 3.56723 12.9923 4.30181 12.9923H21.3881C21.8345 12.9923 21.8549 13.7061 21.3881 13.7061H4.30181C3.75252 13.7061 3.23647 13.4905 2.84876 13.099ZM0.849657 14.7661C0.849657 14.5693 1.00974 14.4092 1.20647 14.4092H21.1053C22.227 14.4092 23.1619 15.3533 23.1511 16.4755C23.1402 17.5926 22.2107 18.5015 21.0788 18.5015H19.2349C18.795 18.5015 18.7749 19.2046 19.2349 19.2046H22.7944C22.9911 19.2046 23.1512 19.3647 23.1512 19.5615C23.1512 19.7582 22.9911 19.9183 22.7944 19.9183H6.38347V19.2045H17.382C17.8219 19.2045 17.842 18.5014 17.382 18.5014H6.38347V17.7876H21.1053C21.8399 17.7876 22.4376 17.1899 22.4376 16.4552C22.4376 15.7206 21.8399 15.1228 21.1053 15.1228H1.20647C1.00969 15.1229 0.849657 14.9628 0.849657 14.7661ZM1.20647 18.5015C0.734108 18.4846 0.734483 17.8044 1.20647 17.7877H4.00814V18.5015H1.20647ZM22.7944 23.2969H2.89554C2.34621 23.2969 1.83015 23.0813 1.44249 22.6898C1.05493 22.2984 0.844407 21.7802 0.849704 21.2306C0.860579 20.1134 1.79017 19.2046 2.92198 19.2046H4.00814V19.9184H2.89554C1.12768 19.9918 1.12904 22.5104 2.89554 22.5831H22.7943C23.2668 22.5999 23.2664 23.2802 22.7944 23.2969Z" fill="black"/>
</g>
<defs>
<clipPath id="clip0">
<rect width="24" height="24" fill="white"/>
</clipPath>
</defs>
</svg>
