<svg width="24" height="24" viewBox="0 0 24 24" fill="none" xmlns="http://www.w3.org/2000/svg">
<path d="M21.2812 22.5938H2.71875C1.47609 22.5938 0.46875 21.5864 0.46875 20.3438V8.16016C0.46875 6.9175 1.47609 5.91016 2.71875 5.91016H21.2812C22.5239 5.91016 23.5312 6.9175 23.5312 8.16016V20.3438C23.5312 21.5864 22.5239 22.5938 21.2812 22.5938Z" fill="#C68A65"/>
<path d="M13.7871 14.1406V15.2812C13.7871 16.265 12.9896 17.0625 12.0059 17.0625C11.0221 17.0625 10.2246 16.265 10.2246 15.2812V14.1406H13.7871Z" fill="#C3D3DD"/>
<path d="M4.95998 14.1407H19.0403C21.5169 14.1407 23.5247 12.133 23.5247 9.65627V7.91598C23.4029 6.78822 22.4482 5.91016 21.2881 5.91016H2.72559C1.48293 5.91016 0.475586 6.9175 0.475586 8.16016V9.65627C0.475586 12.1329 2.48329 14.1407 4.95998 14.1407Z" fill="#D1A184"/>
<path d="M17.8125 5.91014H6.1875V3.65625C6.1875 2.41359 7.19484 1.40625 8.4375 1.40625H15.5625C16.8052 1.40625 17.8125 2.41359 17.8125 3.65625V5.91014Z" fill="white"/>
<path d="M15.5625 1.40625H8.4375C7.19484 1.40625 6.1875 2.41359 6.1875 3.65625H17.8125C17.8125 2.41359 16.8052 1.40625 15.5625 1.40625Z" fill="#A7BCCE"/>
<path d="M12.0059 17.0625C11.0221 17.0625 10.2246 16.265 10.2246 15.2812V12.6767C10.2246 12.346 10.4926 12.0781 10.8232 12.0781H13.1885C13.5191 12.0781 13.7871 12.346 13.7871 12.6767V15.2812C13.7871 16.265 12.9896 17.0625 12.0059 17.0625Z" fill="#E6E6F9"/>
<path d="M10.2246 14.1406V12.6767C10.2246 12.3461 10.4926 12.0781 10.8232 12.0781H13.1885C13.5191 12.0781 13.7871 12.3461 13.7871 12.6767V14.1406H10.2246Z" fill="#A7BCCE"/>
<path d="M21.2812 5.44139H18.2812V3.65625C18.2812 2.15714 17.0616 0.9375 15.5625 0.9375H8.4375C6.93839 0.9375 5.71875 2.15714 5.71875 3.65625V5.44139H2.71875C1.21964 5.44139 0 6.66103 0 8.16014V20.3438C0 21.8429 1.21964 23.0625 2.71875 23.0625H21.2812C22.7804 23.0625 24 21.8429 24 20.3438V8.16014C24 6.66103 22.7804 5.44139 21.2812 5.44139ZM8.4375 1.875H15.5625C16.3824 1.875 17.0744 2.43206 17.2807 3.1875H6.7193C6.92564 2.43206 7.61756 1.875 8.4375 1.875ZM0.9375 8.16014C0.9375 7.17797 1.73658 6.37889 2.71875 6.37889H9.89658C10.1554 6.37889 10.3653 6.16903 10.3653 5.91014C10.3653 5.65125 10.1554 5.44139 9.89658 5.44139H6.65625V4.125H17.3438V5.44139H14.1153C13.8564 5.44139 13.6466 5.6513 13.6466 5.91014C13.6466 6.16898 13.8564 6.37889 14.1153 6.37889H21.2812C22.2634 6.37889 23.0625 7.17797 23.0625 8.16014V9.65498C23.0625 11.8706 21.2599 13.6732 19.0442 13.6732H14.256V12.6767C14.256 12.0882 13.7771 11.6094 13.1886 11.6094H10.8232C10.2347 11.6094 9.75591 12.0883 9.75591 12.6767V13.6732H4.95577C2.74008 13.6732 0.9375 11.8706 0.9375 9.65498V8.16014ZM10.6935 14.6107H13.3185V15.2812C13.3185 16.005 12.7297 16.5938 12.006 16.5938C11.2822 16.5938 10.6935 16.005 10.6935 15.2812V14.6107ZM10.6935 13.6732V12.6767C10.6935 12.6051 10.7517 12.5468 10.8233 12.5468H13.1887C13.2602 12.5468 13.3185 12.6051 13.3185 12.6767V13.6732H10.6935ZM23.0625 20.3438C23.0625 21.3259 22.2634 22.125 21.2812 22.125H2.71875C1.73658 22.125 0.9375 21.3259 0.9375 20.3438V12.552C1.83848 13.7981 3.30389 14.6107 4.95577 14.6107H9.75595V15.2812C9.75595 16.5219 10.7653 17.5312 12.006 17.5312C13.2466 17.5312 14.256 16.5219 14.256 15.2812V14.6107H19.0442C20.6961 14.6107 22.1615 13.7981 23.0625 12.552V20.3438Z" fill="black"/>
<path d="M12.0059 6.37866C12.1291 6.37866 12.2501 6.32893 12.3373 6.24127C12.4244 6.15413 12.4746 6.03319 12.4746 5.90991C12.4746 5.78663 12.4245 5.66569 12.3373 5.57851C12.2501 5.49132 12.1291 5.44116 12.0059 5.44116C11.8826 5.44116 11.7616 5.49127 11.674 5.57851C11.5868 5.66569 11.5371 5.78663 11.5371 5.90991C11.5371 6.03319 11.5868 6.15413 11.674 6.24127C11.7616 6.32897 11.8826 6.37866 12.0059 6.37866Z" fill="black"/>
</svg>
