<svg width="24" height="24" viewBox="0 0 24 24" fill="none" xmlns="http://www.w3.org/2000/svg">
<path d="M21.9691 4.80737H2.03125V21.8722H21.9691V4.80737Z" fill="#E9EAEB"/>
<path d="M21.9688 4.80737H19.4375V21.8722H21.9688V4.80737Z" fill="#B9BBC1"/>
<path d="M22.0383 4.80741H1.96143V2.00606C1.96143 1.78224 2.14283 1.60083 2.36666 1.60083H21.633C21.8569 1.60083 22.0383 1.78224 22.0383 2.00606V4.80741Z" fill="#FDC74F"/>
<path d="M21.6333 1.60083H19.5073V3.70969H22.0386V2.00606C22.0386 1.78224 21.8571 1.60083 21.6333 1.60083Z" fill="#FCA629"/>
<path d="M2.03111 9.88741C1.11349 9.88741 0.369629 9.14355 0.369629 8.22592V6.87231H3.69255V8.22592C3.69255 9.14355 2.94869 9.88741 2.03111 9.88741Z" fill="#E60D28"/>
<path d="M5.35436 9.88741C4.43673 9.88741 3.69287 9.14355 3.69287 8.22592V6.87231H7.01579V8.22592C7.01584 9.14355 6.27198 9.88741 5.35436 9.88741Z" fill="#F2F2F2"/>
<path d="M8.67711 9.88741C7.75948 9.88741 7.01562 9.14355 7.01562 8.22592V6.87231H10.3385V8.22592C10.3385 9.14355 9.59469 9.88741 8.67711 9.88741Z" fill="#E60D28"/>
<path d="M11.9999 9.88741C11.0822 9.88741 10.3384 9.14355 10.3384 8.22592V6.87231H13.6613V8.22592C13.6613 9.14355 12.9175 9.88741 11.9999 9.88741Z" fill="#F2F2F2"/>
<path d="M15.3231 9.88741C14.4055 9.88741 13.6616 9.14355 13.6616 8.22592V6.87231H16.9845V8.22592C16.9845 9.14355 16.2407 9.88741 15.3231 9.88741Z" fill="#E60D28"/>
<path d="M18.6459 9.88741C17.7282 9.88741 16.9844 9.14355 16.9844 8.22592V6.87231H20.3073V8.22592C20.3073 9.14355 19.5635 9.88741 18.6459 9.88741Z" fill="#F2F2F2"/>
<path d="M21.9686 9.88741C21.051 9.88741 20.3071 9.14355 20.3071 8.22592V6.87231H23.6301V8.22592C23.6301 9.14355 22.8862 9.88741 21.9686 9.88741Z" fill="#E60D28"/>
<path d="M3.69255 6.87228H0.369629L1.95982 3.70972H4.82843L3.69255 6.87228Z" fill="#FC502A"/>
<path d="M7.01584 6.87228H3.69287L4.82875 3.70972H7.69736L7.01584 6.87228Z" fill="white"/>
<path d="M10.3385 6.87228H7.01562L7.69714 3.70972H10.5658L10.3385 6.87228Z" fill="#FC502A"/>
<path d="M13.6613 6.87228H10.3384L10.5656 3.70972H13.4341L13.6613 6.87228Z" fill="white"/>
<path d="M16.9842 6.87228H13.6613L13.4341 3.70972H16.3027L16.9842 6.87228Z" fill="#FC502A"/>
<path d="M20.3072 6.87228H16.9843L16.3027 3.70972H19.1713L20.3072 6.87228Z" fill="white"/>
<path d="M23.6302 6.87228H20.3073L19.1714 3.70972H22.04L23.6302 6.87228Z" fill="#FC502A"/>
<path d="M22.8896 20.3132H1.11037C0.691266 20.3132 0.351562 20.653 0.351562 21.0721V22.1841C0.351562 22.3029 0.447891 22.3992 0.566672 22.3992H23.4333C23.5521 22.3992 23.6484 22.3029 23.6484 22.1841V21.0721C23.6484 20.653 23.3087 20.3132 22.8896 20.3132Z" fill="#8B8996"/>
<path d="M22.8896 20.3132H21.1094V22.3992H23.4333C23.5521 22.3992 23.6485 22.3029 23.6485 22.1841V21.072C23.6484 20.653 23.3087 20.3132 22.8896 20.3132Z" fill="#706F7F"/>
<path d="M20.005 18.083H9.77109C9.60412 18.083 9.46875 17.9476 9.46875 17.7806V12.1493C9.46875 11.9823 9.60412 11.8469 9.77109 11.8469H20.005C20.172 11.8469 20.3074 11.9823 20.3074 12.1493V17.7806C20.3074 17.9476 20.172 18.083 20.005 18.083Z" fill="#00C6C8"/>
<path d="M20.0048 11.8469H17.7681V18.083H20.0048C20.1718 18.083 20.3071 17.9476 20.3071 17.7806V12.1493C20.3071 11.9823 20.1718 11.8469 20.0048 11.8469Z" fill="#0FB0C0"/>
<path d="M8.03147 20.3132H3.3623V12.1493C3.3623 11.9823 3.49768 11.8469 3.66465 11.8469H7.72913C7.89609 11.8469 8.03147 11.9823 8.03147 12.1493V20.3132Z" fill="#00C6C8"/>
<path d="M7.72893 11.8469H5.49219V20.3133H8.03127V12.1493C8.03127 11.9823 7.8959 11.8469 7.72893 11.8469Z" fill="#0FB0C0"/>
<path d="M6.72656 16.6292C6.92072 16.6292 7.07812 16.4717 7.07812 16.2776V15.6448C7.07812 15.4506 6.92072 15.2932 6.72656 15.2932C6.53241 15.2932 6.375 15.4506 6.375 15.6448V16.2776C6.375 16.4717 6.53241 16.6292 6.72656 16.6292Z" fill="black"/>
<path d="M22.8896 19.9617H22.3204V10.2075C23.2633 10.0406 23.9819 9.21586 23.9819 8.22581V6.87225C23.9819 6.86536 23.9813 6.85861 23.9809 6.85181C23.9806 6.84802 23.9806 6.84422 23.9803 6.84042C23.979 6.82655 23.9771 6.81291 23.9743 6.7996C23.9742 6.7988 23.9739 6.79805 23.9737 6.7973C23.9709 6.7845 23.9673 6.77203 23.9632 6.7598C23.9622 6.7567 23.961 6.75361 23.9598 6.75056C23.9559 6.74006 23.9516 6.72985 23.9468 6.71986C23.9459 6.71803 23.9453 6.71611 23.9445 6.71433L22.39 3.62297V2.00606C22.39 1.58878 22.0505 1.24927 21.6332 1.24927H5.64638C5.45222 1.24927 5.29481 1.40667 5.29481 1.60083C5.29481 1.79499 5.45222 1.95239 5.64638 1.95239H21.6332C21.6628 1.95239 21.6869 1.97649 21.6869 2.00606V3.35813H2.31314V2.00606C2.31314 1.97649 2.33723 1.95239 2.36681 1.95239H4.01062C4.20478 1.95239 4.36219 1.79499 4.36219 1.60083C4.36219 1.40667 4.20478 1.24927 4.01062 1.24927H2.36681C1.94953 1.24927 1.61002 1.58878 1.61002 2.00606V3.62297L0.0555938 6.71433C0.0547031 6.71616 0.0540938 6.71808 0.05325 6.71986C0.0484219 6.72985 0.0441094 6.74006 0.0402187 6.75056C0.0390937 6.75366 0.037875 6.7567 0.0368438 6.7598C0.0327188 6.77203 0.0291094 6.7845 0.0263437 6.7973C0.0261562 6.79805 0.0259219 6.7988 0.0257344 6.7996C0.0229219 6.81295 0.0209531 6.82655 0.0197344 6.84042C0.0194062 6.84422 0.0194062 6.84802 0.0191719 6.85181C0.0187969 6.85861 0.0181406 6.86536 0.0181406 6.87225V8.22581C0.0181406 9.21581 0.736734 10.0406 1.67963 10.2075V19.9617H1.11037C0.498094 19.9617 0 20.4598 0 21.0721V22.1841C0 22.4965 0.254203 22.7507 0.566672 22.7507H23.4333C23.7458 22.7507 24 22.4965 24 22.1841V21.0721C24 20.4598 23.5019 19.9617 22.8896 19.9617ZM23.2787 8.22586C23.2787 8.94816 22.6911 9.53578 21.9688 9.53578C21.2465 9.53578 20.6589 8.94816 20.6589 8.22586V7.22386H23.2787V8.22586ZM21.8234 4.06125L23.06 6.52069H20.5546L19.6713 4.06125H21.8234ZM18.9242 4.06125L19.8075 6.52069H17.2683L16.7383 4.06125H18.9242ZM19.9558 7.22381V8.22581C19.9558 8.94811 19.3682 9.53574 18.6459 9.53574C17.9236 9.53574 17.336 8.94811 17.336 8.22581V7.22381H19.9558ZM16.019 4.06125L16.549 6.52069H13.9887L13.812 4.06125H16.019ZM16.6328 7.22381V8.22581C16.6328 8.94811 16.0452 9.53574 15.323 9.53574C14.6007 9.53574 14.013 8.94811 14.013 8.22581V7.22381H16.6328ZM10.8929 4.06125H13.107L13.2837 6.52069H10.7162L10.8929 4.06125ZM10.6901 7.22381H13.3099V8.22581C13.3099 8.94811 12.7223 9.53574 12 9.53574C11.2777 9.53574 10.6901 8.94811 10.6901 8.22581V7.22381ZM12 10.2389C12.6892 10.2389 13.2985 9.89053 13.6615 9.3608C14.0245 9.89053 14.6337 10.2389 15.323 10.2389C16.0122 10.2389 16.6215 9.89053 16.9844 9.3608C17.3474 9.89053 17.9566 10.2389 18.6459 10.2389C19.3351 10.2389 19.9444 9.89053 20.3074 9.3608C20.6072 9.79833 21.0751 10.1115 21.6173 10.2075V19.9617H8.38294V12.1493C8.38294 11.7887 8.08959 11.4954 7.72903 11.4954H3.66455C3.30398 11.4954 3.01064 11.7887 3.01064 12.1493V19.9617H2.38275V10.2075C2.92491 10.1115 3.39286 9.79833 3.69267 9.3608C4.05567 9.89053 4.66491 10.2389 5.35416 10.2389C6.04341 10.2389 6.65264 9.89053 7.01564 9.3608C7.37864 9.89053 7.98787 10.2389 8.67708 10.2389C9.36628 10.2389 9.97556 9.89053 10.3386 9.3608C10.7015 9.89053 11.3108 10.2389 12 10.2389ZM7.67981 12.1985V19.9617H3.71377V12.1985H7.67981ZM4.04419 8.22586V7.22386H6.66403V8.22586C6.66403 8.94816 6.07641 9.53578 5.35411 9.53578C4.63181 9.53578 4.04419 8.94811 4.04419 8.22586ZM7.98098 4.06125H10.188L10.0113 6.52069H7.45097L7.98098 4.06125ZM7.36716 7.22381H9.98695V8.22581C9.98695 8.94811 9.39933 9.53574 8.67703 9.53574C7.95473 9.53574 7.36716 8.94811 7.36716 8.22581V7.22381ZM7.26169 4.06125L6.73167 6.52069H4.19245L5.07577 4.06125H7.26169ZM2.17664 4.06125H4.32867L3.44536 6.52069H0.939984L2.17664 4.06125ZM0.721266 8.22586V7.22386H3.34111V8.22586C3.34111 8.94816 2.75348 9.53578 2.03119 9.53578C1.30889 9.53578 0.721266 8.94811 0.721266 8.22586ZM23.2969 22.0476H0.703125V21.072C0.703125 20.8475 0.885797 20.6648 1.11037 20.6648H22.8896C23.1142 20.6648 23.2968 20.8475 23.2968 21.072V22.0476H23.2969Z" fill="black"/>
<path d="M9.11719 12.1493V17.7806C9.11719 18.1412 9.41053 18.4345 9.77109 18.4345H20.005C20.3655 18.4345 20.6589 18.1412 20.6589 17.7806V12.1493C20.6589 11.7887 20.3655 11.4954 20.005 11.4954H15.7059C15.5118 11.4954 15.3544 11.6528 15.3544 11.8469C15.3544 12.0411 15.5118 12.1985 15.7059 12.1985H19.9558V17.7314H9.82031V12.1985H14.0508C14.2449 12.1985 14.4023 12.0411 14.4023 11.8469C14.4023 11.6528 14.2449 11.4954 14.0508 11.4954H9.77109C9.41053 11.4954 9.11719 11.7887 9.11719 12.1493Z" fill="black"/>
</svg>
