<svg width="24" height="24" viewBox="0 0 24 24" fill="none" xmlns="http://www.w3.org/2000/svg">
<path d="M14.9992 18.5C12.4892 18.5 10.3192 17.08 9.23922 15H14.3792C14.7592 15 15.1092 14.79 15.2692 14.45C15.5992 13.79 15.1192 13 14.3792 13H8.57922C8.52922 12.67 8.49922 12.34 8.49922 12C8.49922 11.66 8.52922 11.33 8.57922 11H14.3792C14.7592 11 15.1092 10.79 15.2692 10.45C15.6092 9.78 15.1292 9 14.3792 9H9.23922C10.3192 6.92 12.4992 5.5 14.9992 5.5C16.2492 5.5 17.4192 5.86 18.4192 6.47C18.9192 6.78 19.5692 6.73 19.9892 6.31C20.5692 5.73 20.4392 4.78 19.7392 4.35C18.3592 3.5 16.7292 3 14.9992 3C11.0792 3 7.75922 5.51 6.51922 9H3.61922C3.23922 9 2.88922 9.21 2.71922 9.55C2.38922 10.22 2.86922 11 3.61922 11H6.05922C6.01922 11.33 5.99922 11.66 5.99922 12C5.99922 12.34 6.01922 12.67 6.05922 13H3.61922C3.23922 13 2.88922 13.21 2.72922 13.55C2.38922 14.22 2.86922 15 3.61922 15H6.51922C7.75922 18.49 11.0792 21 14.9992 21C16.7392 21 18.3592 20.51 19.7392 19.65C20.4292 19.22 20.5592 18.26 19.9792 17.68C19.5592 17.26 18.9092 17.21 18.4092 17.53C17.4192 18.15 16.2592 18.5 14.9992 18.5Z" fill="#336E7B"/>
</svg>
