<svg width="24" height="24" viewBox="0 0 24 24" fill="none" xmlns="http://www.w3.org/2000/svg">
<path d="M20.6719 23.5311L18.0937 16.8047H5.90625L3.32812 23.5311H20.6719Z" fill="#D8D8E4"/>
<path d="M17.414 0.46875H6.58594C4.91619 0.46875 3.5625 1.82245 3.5625 3.49219V14.8125L7.54009 18.1405H16.4599L20.4375 14.8125V3.49219C20.4375 1.82245 19.0838 0.46875 17.414 0.46875Z" fill="#7D9BFF"/>
<path d="M4.05811 21.9373H19.7962L18.9407 20.0623H5.04175L4.05811 21.9373Z" fill="#898998"/>
<path d="M20.6719 23.5311L18.0938 16.8047L19.489 15.75L23.5312 23.5311H20.6719Z" fill="#898998"/>
<path d="M3.32794 23.5311L5.90607 16.8047L4.51098 15.75L0.46875 23.5311H3.32794Z" fill="#898998"/>
<path d="M17.25 3.84375H6.75C6.23218 3.84375 5.8125 4.26343 5.8125 4.78125V8.90626C5.8125 9.4241 6.23218 9.84374 6.75 9.84374H17.25C17.7678 9.84374 18.1875 9.4241 18.1875 8.90626V4.78125C18.1875 4.26343 17.7678 3.84375 17.25 3.84375Z" fill="white"/>
<path d="M8.04737 13.125C8.04737 13.7463 7.54365 14.25 6.92236 14.25C6.30109 14.25 5.79736 13.7463 5.79736 13.125C5.79736 12.5035 6.30109 12 6.92236 12C7.54365 12 8.04737 12.5035 8.04737 13.125Z" fill="#FFB954"/>
<path d="M18.1875 13.125C18.1875 13.7463 17.6838 14.25 17.0625 14.25C16.4412 14.25 15.9375 13.7463 15.9375 13.125C15.9375 12.5035 16.4412 12 17.0625 12C17.6838 12 18.1875 12.5035 18.1875 13.125Z" fill="#FFB954"/>
<path d="M23.9471 23.315L20.0262 15.7676L20.7381 15.172C20.8447 15.0827 20.9063 14.9511 20.9063 14.8123V3.49219C20.9063 1.56665 19.3396 0 17.414 0H6.58592C4.66038 0 3.09373 1.56665 3.09373 3.49219V5.10937C3.09373 5.3681 3.30375 5.57812 3.56248 5.57812C3.82139 5.57812 4.03123 5.3681 4.03123 5.10937V3.49219C4.03123 2.08356 5.17729 0.937496 6.58592 0.937496H17.414C18.8227 0.937496 19.9687 2.08356 19.9687 3.49219V14.5933L16.2898 17.6717H14.9531V16.992C14.9531 16.7333 14.7433 16.5232 14.4844 16.5232C14.2254 16.5232 14.0156 16.7333 14.0156 16.992V17.6717H12.5917V16.992C12.5917 16.7333 12.382 16.5232 12.1232 16.5232C11.8643 16.5232 11.6545 16.7333 11.6545 16.992V17.6717H10.2306V16.992C10.2306 16.7333 10.0208 16.5232 9.76186 16.5232C9.50315 16.5232 9.29315 16.7333 9.29315 16.992V17.6717H7.71021L4.03123 14.5933V9.51565C4.03123 9.25673 3.82139 9.04687 3.56248 9.04687C3.30375 9.04687 3.09373 9.25673 3.09373 9.51565V14.8125C3.09373 14.9513 3.15525 15.0829 3.26182 15.172L3.97374 15.7676L0.0528961 23.315C-0.0664887 23.5446 0.0230499 23.8277 0.252664 23.9471C0.321878 23.983 0.39567 23.9998 0.468362 23.9998C0.637735 23.9998 0.801431 23.9079 0.884746 23.7472L4.71 16.3837L5.35783 16.9257L2.89048 23.3634C2.79783 23.6051 2.91868 23.876 3.16038 23.9689C3.21568 23.9899 3.27226 24 3.3281 24C3.51652 24 3.69431 23.8854 3.76591 23.6988L4.26139 22.406H16.1718C16.4306 22.406 16.6406 22.1963 16.6406 21.9373C16.6406 21.6784 16.4306 21.4686 16.1718 21.4686H4.62064L4.98173 20.5267C5.00168 20.5292 5.02165 20.5311 5.04234 20.5311H18.9413C18.9673 20.5311 18.9926 20.5285 19.0173 20.5244L20.234 23.6988C20.3056 23.8854 20.4832 24 20.6718 24C20.7277 24 20.7843 23.9899 20.8396 23.9689C21.0812 23.876 21.2021 23.6051 21.1095 23.3634L18.6421 16.9257L19.2899 16.3837L23.1152 23.7472C23.1987 23.9079 23.3622 23.9998 23.5316 23.9998C23.6043 23.9998 23.6783 23.983 23.7473 23.9471C23.9769 23.8277 24.0664 23.5448 23.9471 23.315ZM18.6606 19.5936H5.33934L6.11808 17.5619L7.23925 18.5C7.32346 18.5706 7.43005 18.6092 7.54009 18.6092H16.46C16.5701 18.6092 16.6765 18.5706 16.7608 18.5L17.8819 17.5619L18.6606 19.5936Z" fill="black"/>
<path d="M18.0937 21.4685C17.9703 21.4685 17.8495 21.5187 17.7623 21.6059C17.6751 21.6932 17.625 21.814 17.625 21.9373C17.625 22.0607 17.675 22.1815 17.7623 22.2687C17.8495 22.3559 17.9703 22.406 18.0937 22.406C18.217 22.406 18.3378 22.3559 18.425 22.2687C18.5123 22.1815 18.5625 22.0607 18.5625 21.9373C18.5625 21.814 18.5123 21.6932 18.425 21.6059C18.3378 21.5187 18.217 21.4685 18.0937 21.4685Z" fill="black"/>
<path d="M18.6563 4.78125C18.6563 4.0058 18.0255 3.375 17.25 3.375H6.75C5.97473 3.375 5.34375 4.0058 5.34375 4.78125V8.90626C5.34375 9.68167 5.97473 10.3125 6.75 10.3125H17.25C18.0255 10.3125 18.6563 9.68167 18.6563 8.90626V4.78125ZM6.28125 8.90626V4.78125C6.28125 4.52271 6.49164 4.3125 6.75 4.3125H11.5312V9.37496H6.75C6.49164 9.37496 6.28125 9.16461 6.28125 8.90626ZM17.7188 8.90626C17.7188 9.16461 17.5084 9.37496 17.25 9.37496H12.4688V4.3125H17.25C17.5084 4.3125 17.7188 4.52271 17.7188 4.78125V8.90626Z" fill="black"/>
<path d="M6.92236 14.7188C7.80109 14.7188 8.51614 14.0037 8.51614 13.1251C8.51614 12.2461 7.80109 11.5312 6.92236 11.5312C6.04364 11.5312 5.32861 12.2461 5.32861 13.1251C5.32861 14.0037 6.04364 14.7188 6.92236 14.7188ZM6.92236 12.4688C7.28417 12.4688 7.57859 12.763 7.57859 13.1251C7.57859 13.4868 7.28417 13.7813 6.92236 13.7813C6.56055 13.7813 6.26611 13.4868 6.26611 13.1251C6.26611 12.763 6.56055 12.4688 6.92236 12.4688Z" fill="black"/>
<path d="M17.0625 11.5312C16.1836 11.5312 15.4688 12.2461 15.4688 13.1251C15.4688 14.0037 16.1836 14.7188 17.0625 14.7188C17.9412 14.7188 18.6562 14.0037 18.6562 13.1251C18.6562 12.2461 17.9412 11.5312 17.0625 11.5312ZM17.0625 13.7813C16.7004 13.7813 16.4062 13.4868 16.4062 13.1251C16.4062 12.763 16.7004 12.4688 17.0625 12.4688C17.4243 12.4688 17.7188 12.763 17.7188 13.1251C17.7188 13.4868 17.4243 13.7813 17.0625 13.7813Z" fill="black"/>
<path d="M14.4842 11.5371H9.76175C9.50304 11.5371 9.29297 11.747 9.29297 12.0059C9.29297 12.2648 9.50304 12.4747 9.76175 12.4747H14.4842C14.7432 12.4747 14.9529 12.2648 14.9529 12.0059C14.9529 11.747 14.7432 11.5371 14.4842 11.5371Z" fill="black"/>
<path d="M14.4842 13.7812H9.76175C9.50304 13.7812 9.29297 13.9911 9.29297 14.25C9.29297 14.5087 9.50304 14.7188 9.76175 14.7188H14.4842C14.7432 14.7188 14.9529 14.5087 14.9529 14.25C14.9529 13.9911 14.7432 13.7812 14.4842 13.7812Z" fill="black"/>
<path d="M3.56251 7.7029C3.68591 7.7029 3.80676 7.65328 3.89392 7.56553C3.98108 7.47843 4.03125 7.35793 4.03125 7.23412C4.03125 7.11088 3.98108 6.99005 3.89392 6.90289C3.80676 6.81555 3.68591 6.76538 3.56251 6.76538C3.43927 6.76538 3.31843 6.81555 3.23108 6.90289C3.14392 6.99005 3.09375 7.11088 3.09375 7.23412C3.09375 7.35793 3.14392 7.47843 3.23108 7.56553C3.31843 7.65328 3.43927 7.7029 3.56251 7.7029Z" fill="black"/>
</svg>
