<svg width="24" height="24" viewBox="0 0 24 24" fill="none" xmlns="http://www.w3.org/2000/svg">
<g clip-path="url(#clip0)">
<path d="M21.8434 2.60864V7.81688H17.5409V5.51128H14.269V2.60864H21.8434Z" fill="#F07281"/>
<path d="M16.5975 2.94394V2.60864H14.269V5.51124H17.541V7.81683H18.938V5.28446C18.938 4.63814 18.4141 4.11417 17.7677 4.11417C17.1214 4.11422 16.5975 3.59025 16.5975 2.94394Z" fill="#EB5569"/>
<path d="M3.98667 5.58896H1.04765C0.661871 5.58896 0.349121 5.27621 0.349121 4.89043C0.349121 4.50464 0.661871 4.19189 1.04765 4.19189H3.98667C4.37043 4.19189 4.68229 4.50146 4.68515 4.88522C4.68806 5.27302 4.37446 5.58896 3.98667 5.58896Z" fill="#F07281"/>
<path d="M20.9878 16.199H8.45956L6.23389 7.81665H22.719C23.3305 7.81665 23.7761 8.39598 23.6192 8.98703L21.8881 15.5066C21.7797 15.9148 21.4102 16.199 20.9878 16.199Z" fill="#8AC9FE"/>
<path d="M23.6188 8.98718L23.5587 9.21396H11.3096C10.3923 9.21396 9.72394 10.083 9.95935 10.9696L11.348 16.1992H8.4594L6.2334 7.81689H22.7186C23.3301 7.81689 23.7758 8.39622 23.6188 8.98718Z" fill="#60B7FF"/>
<path d="M11.6957 18.7214C10.5383 18.7214 9.6001 19.6596 9.6001 20.817C9.6001 21.9744 10.5383 22.9126 11.6957 22.9126C12.853 22.9126 13.7913 21.9744 13.7913 20.817C13.7912 19.6596 12.853 18.7214 11.6957 18.7214ZM11.6957 21.5155C11.3105 21.5155 10.9972 21.2022 10.9972 20.817C10.9972 20.4318 11.3105 20.1185 11.6957 20.1185C12.0809 20.1185 12.3942 20.4318 12.3942 20.817C12.3942 21.2022 12.0809 21.5155 11.6957 21.5155Z" fill="#AA9EA9"/>
<path d="M18.2396 18.7214C17.0823 18.7214 16.144 19.6596 16.144 20.817C16.144 21.9744 17.0822 22.9126 18.2396 22.9126C19.397 22.9126 20.3352 21.9744 20.3352 20.817C20.3352 19.6596 19.397 18.7214 18.2396 18.7214ZM18.2396 21.5155C17.8545 21.5155 17.5411 21.2022 17.5411 20.817C17.5411 20.4318 17.8545 20.1185 18.2396 20.1185C18.6248 20.1185 18.9382 20.4318 18.9382 20.817C18.9382 21.2022 18.6248 21.5155 18.2396 21.5155Z" fill="#AA9EA9"/>
<path d="M8.45947 5.51147H17.541V7.81683H8.45947V5.51147Z" fill="#FEE97D"/>
<path d="M8.45996 5.51123H11.7197V7.81682H8.45996V5.51123Z" fill="#FEE45A"/>
<path d="M23.7334 7.96648C23.4886 7.64829 23.118 7.46576 22.7165 7.46576H22.1929V5.65784C22.1929 5.46364 22.0355 5.30628 21.8414 5.30628C21.6472 5.30628 21.4898 5.46364 21.4898 5.65784V7.46576H17.8915V5.51262C17.8915 5.37912 17.8171 5.26301 17.7075 5.20348C17.6576 5.17634 17.6005 5.16092 17.5397 5.16092H14.6203V2.96206H16.4347V3.62713C16.4347 3.82133 16.5921 3.97869 16.7863 3.97869C16.9804 3.97869 17.1378 3.82133 17.1378 3.62713V2.96206H18.9722V3.62713C18.9722 3.82133 19.1296 3.97869 19.3238 3.97869C19.5179 3.97869 19.6753 3.82133 19.6753 3.62713V2.96206H21.4898V4.12592C21.4898 4.32012 21.6472 4.47748 21.8414 4.47748C22.0355 4.47748 22.1929 4.32012 22.1929 4.12592V2.6105C22.1929 2.4163 22.0355 2.25894 21.8414 2.25894H19.672C19.6204 1.41168 18.9151 0.738037 18.055 0.738037C17.1949 0.738037 16.4896 1.41168 16.438 2.25894H14.2687C14.0746 2.25894 13.9172 2.4163 13.9172 2.6105V3.87941C13.6561 3.69941 13.3401 3.5937 12.9998 3.5937C12.1241 3.5937 11.4089 4.29209 11.3808 5.16106H8.46003C8.26587 5.16106 8.10847 5.31842 8.10847 5.51262V7.46576H6.50736L6.03313 5.62053C5.8941 5.07945 5.49168 4.68819 4.98918 4.57489C4.85399 4.15072 4.45541 3.84191 3.9884 3.84191H1.04995C0.470999 3.84191 0 4.31286 0 4.89186C0 5.47081 0.470999 5.94176 1.04995 5.94176H3.9884C4.27035 5.94176 4.53496 5.83156 4.73357 5.6315C4.83013 5.53423 4.90485 5.42131 4.95641 5.29873C5.14752 5.3824 5.29091 5.5572 5.35213 5.79551L7.35613 13.4107C7.40595 13.5983 7.59847 13.7101 7.78611 13.6602C7.9738 13.6104 8.0855 13.4179 8.03572 13.2302L6.69191 8.16888H8.45548C8.45703 8.16888 8.45848 8.16912 8.46003 8.16912H17.5342C17.536 8.16916 17.5378 8.1694 17.5397 8.1694H21.8414C21.8447 8.1694 21.848 8.16898 21.8513 8.16888H22.7165C22.898 8.16888 23.0655 8.25134 23.176 8.3951C23.2867 8.53891 23.3234 8.7221 23.2767 8.8976L21.5461 15.4157C21.4788 15.6693 21.2484 15.8465 20.9859 15.8465H8.7304L8.44259 14.7626C8.39277 14.5749 8.2002 14.4633 8.01256 14.513C7.82492 14.5629 7.71317 14.7554 7.763 14.9431L8.50798 17.7668C8.69197 18.4682 9.28775 18.9763 9.99448 19.0594C9.53539 19.5044 9.24917 20.1269 9.24917 20.8152C9.24917 22.1643 10.3468 23.2619 11.6959 23.2619C13.045 23.2619 14.1426 22.1643 14.1426 20.8152C14.1426 20.1332 13.8618 19.5158 13.4102 19.0716H16.524C16.0723 19.5158 15.7915 20.1332 15.7915 20.8152C15.7915 22.1643 16.8891 23.2619 18.2382 23.2619C19.5873 23.2619 20.685 22.1643 20.685 20.8152C20.685 20.1332 20.4042 19.5158 19.9525 19.0716H20.8389C21.0331 19.0716 21.1905 18.9143 21.1905 18.7201C21.1905 18.5258 21.0331 18.3685 20.8389 18.3685H10.1991C9.72434 18.3685 9.30856 18.0477 9.18809 17.5884L8.91566 16.5496H20.9859C21.567 16.5496 22.0768 16.1574 22.2257 15.596L23.9563 9.07807C24.0594 8.6899 23.9782 8.28476 23.7334 7.96648ZM18.055 1.44116C18.5271 1.44116 18.9168 1.7998 18.9666 2.25894H17.1435C17.1932 1.7998 17.5829 1.44116 18.055 1.44116ZM3.9884 5.23864H1.04995C0.858702 5.23864 0.703124 5.08306 0.703124 4.89186C0.703124 4.70061 0.858702 4.54503 1.04995 4.54503H3.9884C4.17819 4.54503 4.33382 4.69948 4.33518 4.88928C4.33588 4.98242 4.30012 5.07008 4.23454 5.13622C4.16896 5.20226 4.08154 5.23864 3.9884 5.23864ZM12.9998 4.29687C13.4877 4.29687 13.8866 4.68003 13.9143 5.16111H12.0853C12.1129 4.68003 12.5119 4.29687 12.9998 4.29687ZM8.81159 5.86418H11.3795V6.48274C11.3795 6.67695 11.5369 6.83431 11.7311 6.83431C11.9252 6.83431 12.0826 6.67695 12.0826 6.48274V5.86418H13.917V6.48274C13.917 6.67695 14.0744 6.83431 14.2685 6.83431C14.4627 6.83431 14.6201 6.67695 14.6201 6.48274V5.86418H17.1881V7.46576H8.81159V5.86418ZM19.9819 20.8152C19.9819 21.7767 19.1997 22.5588 18.2383 22.5588C17.2769 22.5588 16.4947 21.7766 16.4947 20.8152C16.4947 19.8538 17.2769 19.0716 18.2383 19.0716C19.1997 19.0716 19.9819 19.8538 19.9819 20.8152ZM13.4395 20.8152C13.4395 21.7767 12.6573 22.5588 11.6959 22.5588C10.7345 22.5588 9.95229 21.7766 9.95229 20.8152C9.95229 19.8538 10.7345 19.0716 11.6959 19.0716C12.6573 19.0716 13.4395 19.8538 13.4395 20.8152Z" fill="black"/>
<path d="M10.0718 14.4546H20.091C20.2852 14.4546 20.4426 14.2972 20.4426 14.103C20.4426 13.9088 20.2852 13.7515 20.091 13.7515H10.0718C9.87762 13.7515 9.72021 13.9088 9.72021 14.103C9.72021 14.2972 9.87762 14.4546 10.0718 14.4546Z" fill="black"/>
<path d="M21.555 9.9126C21.555 9.71839 21.3976 9.56104 21.2034 9.56104H8.95898C8.76483 9.56104 8.60742 9.71839 8.60742 9.9126C8.60742 10.1068 8.76483 10.2642 8.95898 10.2642H21.2034C21.3976 10.2642 21.555 10.1068 21.555 9.9126Z" fill="black"/>
<path d="M11.696 21.8653C12.2749 21.8653 12.7459 21.3943 12.7459 20.8153C12.7459 20.2364 12.2749 19.7654 11.696 19.7654C11.117 19.7654 10.646 20.2364 10.646 20.8153C10.646 21.3943 11.117 21.8653 11.696 21.8653ZM11.696 20.4685C11.8872 20.4685 12.0428 20.624 12.0428 20.8153C12.0428 21.0065 11.8872 21.1621 11.696 21.1621C11.5047 21.1621 11.3491 21.0065 11.3491 20.8153C11.3491 20.624 11.5048 20.4685 11.696 20.4685Z" fill="black"/>
<path d="M18.2379 21.8653C18.8169 21.8653 19.2879 21.3943 19.2879 20.8153C19.2879 20.2364 18.8169 19.7654 18.2379 19.7654C17.659 19.7654 17.188 20.2364 17.188 20.8153C17.188 21.3943 17.659 21.8653 18.2379 21.8653ZM18.2379 20.4685C18.4292 20.4685 18.5848 20.624 18.5848 20.8153C18.5848 21.0065 18.4292 21.1621 18.2379 21.1621C18.0467 21.1621 17.8911 21.0065 17.8911 20.8153C17.8911 20.624 18.0467 20.4685 18.2379 20.4685Z" fill="black"/>
<path d="M14.235 12.0078C14.235 11.8136 14.0776 11.6562 13.8834 11.6562H9.51514C9.32098 11.6562 9.16357 11.8136 9.16357 12.0078C9.16357 12.202 9.32098 12.3594 9.51514 12.3594H13.8834C14.0776 12.3594 14.235 12.202 14.235 12.0078Z" fill="black"/>
<path d="M20.9983 12.0078C20.9983 11.8136 20.8409 11.6562 20.6468 11.6562H15.4155C15.2214 11.6562 15.064 11.8136 15.064 12.0078C15.064 12.202 15.2214 12.3594 15.4155 12.3594H20.6468C20.8409 12.3594 20.9983 12.202 20.9983 12.0078Z" fill="black"/>
</g>
<defs>
<clipPath id="clip0">
<rect width="24" height="24" fill="white"/>
</clipPath>
</defs>
</svg>
