<svg width="24" height="24" viewBox="0 0 24 24" fill="none" xmlns="http://www.w3.org/2000/svg">
<g clip-path="url(#clip0)">
<path d="M16.5729 11.1314V12.124C16.5729 12.3732 16.4862 12.6149 16.3279 12.8069L15.1568 14.231V20.3111C15.1568 20.5153 14.9913 20.6809 14.7871 20.6809H9.21306C9.00887 20.6809 8.84332 20.5153 8.84332 20.3111V14.231L7.67224 12.8069C7.51391 12.6149 7.42725 12.3732 7.42725 12.124V11.1314V9.33537L12.8241 9.27307C12.5622 9.27307 12.3247 9.37941 12.1528 9.55132C11.9814 9.72324 11.875 9.96026 11.875 10.2226C11.875 10.7468 12.2999 11.1721 12.8241 11.1721L16.5729 11.1314Z" fill="#FFE5C2"/>
<path d="M3.06898 14.0469H0.982899C0.633962 14.0469 0.351074 13.764 0.351074 13.4151V6.23143C0.351074 5.8825 0.633962 5.59961 0.982899 5.59961H3.06898V14.0469Z" fill="#B5ADB6"/>
<path d="M20.9302 14.0469H23.0162C23.3652 14.0469 23.6481 13.764 23.6481 13.4151V6.23143C23.6481 5.8825 23.3652 5.59961 23.0162 5.59961H20.9302V14.0469Z" fill="#B5ADB6"/>
<path d="M3.34082 11.1312V8.51514H20.7522V11.1721L3.34082 11.1312Z" fill="#CBC4CC"/>
<path d="M11.9408 7.02742V8.43788C11.9408 8.99532 11.4888 9.44736 10.9309 9.44736C10.3734 9.44736 9.92139 8.99532 9.92139 8.43788V7.02742C9.92139 6.46998 10.3734 6.01794 10.9309 6.01794C11.2101 6.01794 11.4621 6.13084 11.6452 6.31353C11.8279 6.49622 11.9408 6.7487 11.9408 7.02742Z" fill="#FED2A4"/>
<path d="M13.9999 6.70061V8.34627C13.9999 8.99665 13.5298 9.52406 12.9497 9.52406C12.37 9.52406 11.8999 8.99665 11.8999 8.34627V6.70061C11.8999 6.05024 12.37 5.52283 12.9497 5.52283C13.24 5.52283 13.502 5.65455 13.6925 5.86769C13.8825 6.08083 13.9999 6.37543 13.9999 6.70061Z" fill="#FED2A4"/>
<path d="M15.9789 7.1689V8.57936C15.9789 9.1368 15.5268 9.58884 14.9689 9.58884C14.4115 9.58884 13.9595 9.1368 13.9595 8.57936V7.1689C13.9595 6.61146 14.4115 6.15942 14.9689 6.15942C15.2481 6.15942 15.5001 6.27232 15.6833 6.45501C15.866 6.6377 15.9789 6.89018 15.9789 7.1689Z" fill="#FED2A4"/>
<path d="M9.9213 7.31026V8.43778C9.9213 8.99522 9.46973 9.44726 8.91182 9.44726C8.35438 9.44726 7.90234 8.99522 7.90234 8.43778V7.31026C7.90234 6.75282 8.35438 6.30078 8.91182 6.30078C9.19101 6.30078 9.44302 6.41367 9.62571 6.59636C9.8084 6.77905 9.9213 7.03154 9.9213 7.31026Z" fill="#FED2A4"/>
<path d="M10.7416 8.43787V7.02742C10.7416 6.61604 10.9891 6.26233 11.3421 6.10507C11.2167 6.04924 11.0772 6.01794 10.9309 6.01794C10.3734 6.01794 9.92139 6.46998 9.92139 7.02742V8.43787C9.92139 8.99531 10.3734 9.44734 10.9309 9.44734C11.0771 9.44734 11.2175 9.41563 11.3429 9.3598C10.9899 9.20254 10.7416 8.84925 10.7416 8.43787Z" fill="#FFBD86"/>
<path d="M12.7202 8.34634V7.03084V6.70073C12.7202 6.21352 12.984 5.79534 13.36 5.61617C13.234 5.55616 13.0954 5.52295 12.9497 5.52295C12.37 5.52295 11.8999 6.05036 11.8999 6.70078V8.34644C11.8999 8.99681 12.37 9.52422 12.9497 9.52422C13.0952 9.52422 13.2339 9.49096 13.3599 9.43096C12.9839 9.25169 12.7202 8.83352 12.7202 8.34634Z" fill="#FFBD86"/>
<path d="M14.7797 8.57941V7.16895C14.7797 6.75757 15.0276 6.40409 15.3806 6.24679C15.2552 6.19095 15.1153 6.15942 14.9689 6.15942C14.4115 6.15942 13.9595 6.61146 13.9595 7.1689V8.57936C13.9595 9.1368 14.4115 9.58884 14.9689 9.58884C15.1152 9.58884 15.2537 9.55713 15.3792 9.50129C15.0262 9.34408 14.7797 8.99079 14.7797 8.57941Z" fill="#FFBD86"/>
<path d="M8.72257 8.43795V7.31043C8.72257 6.89909 8.97014 6.54543 9.32315 6.38813C9.1978 6.33229 9.05821 6.3009 8.91182 6.3009C8.35438 6.3009 7.90234 6.75294 7.90234 7.31038V8.4379C7.90234 8.99534 8.35438 9.44738 8.91182 9.44738C9.05807 9.44738 9.19813 9.4158 9.32353 9.35992C8.97056 9.20271 8.72257 8.84928 8.72257 8.43795Z" fill="#FFBD86"/>
<path d="M16.5724 10.001V11.1623L12.8236 11.1721C12.2994 11.1721 11.8745 10.7468 11.8745 10.2226C11.8745 9.96026 11.9808 9.72324 12.1523 9.55132C12.3242 9.37941 12.5617 9.27307 12.8236 9.27307H15.8445C16.2464 9.27307 16.5724 9.5991 16.5724 10.001Z" fill="#FFE5C2"/>
<path d="M4.52665 16.3273H3.4537C2.90488 16.3273 2.45996 15.8824 2.45996 15.3336V4.31271C2.45996 3.76389 2.90488 3.31897 3.4537 3.31897H4.52665C5.07546 3.31897 5.52038 3.76389 5.52038 4.31271V15.3337C5.52034 15.8824 5.07546 16.3273 4.52665 16.3273Z" fill="#A79BA7"/>
<path d="M19.4727 16.3273H20.5457C21.0945 16.3273 21.5394 15.8824 21.5394 15.3336V4.31271C21.5394 3.76389 21.0945 3.31897 20.5457 3.31897H19.4727C18.9239 3.31897 18.479 3.76389 18.479 4.31271V15.3337C18.479 15.8824 18.9239 16.3273 19.4727 16.3273Z" fill="#A79BA7"/>
<path d="M23.0168 5.24822H21.8911V4.31271C21.8911 3.57104 21.2877 2.96765 20.546 2.96765H19.4731C18.7314 2.96765 18.1281 3.57104 18.1281 4.31271V8.16381H16.3301V7.12988C16.3301 6.37949 15.7196 5.76908 14.9693 5.76908C14.6745 5.76908 14.4015 5.86365 14.1786 6.02362C13.9593 5.56549 13.4912 5.24822 12.9503 5.24822C12.439 5.24822 11.9927 5.53172 11.7603 5.9498C11.5306 5.77268 11.2432 5.66677 10.9313 5.66677C10.458 5.66677 10.0408 5.90993 9.79698 6.27766C9.55887 6.07342 9.24989 5.94966 8.91238 5.94966C8.162 5.94966 7.55158 6.56007 7.55158 7.31046V8.1639H5.87206V7.17213C5.87206 6.97806 5.71476 6.8208 5.52073 6.8208C5.32671 6.8208 5.16941 6.97806 5.16941 7.17213V15.3338C5.16941 15.688 4.88123 15.9761 4.52704 15.9761H3.45395C3.09972 15.9761 2.81159 15.688 2.81159 15.3338V4.31271C2.81159 3.95848 3.09977 3.6703 3.45395 3.6703H4.5269C4.88113 3.6703 5.16927 3.95848 5.16927 4.31271V5.67483C5.16927 5.8689 5.32657 6.02615 5.52059 6.02615C5.71462 6.02615 5.87192 5.8689 5.87192 5.67483V4.31271C5.87192 3.57104 5.26853 2.96765 4.5269 2.96765H3.45395C2.71228 2.96765 2.10894 3.57104 2.10894 4.31271V5.24822H0.98315C0.441031 5.24822 0 5.68925 0 6.23133V13.415C0 13.9572 0.441031 14.3982 0.98315 14.3982H2.10894V15.3337C2.10894 16.0753 2.71233 16.6787 3.45395 16.6787H4.5269C5.26857 16.6787 5.87192 16.0753 5.87192 15.3337V11.4826H7.07589V12.1241C7.07589 12.4538 7.19122 12.7756 7.4007 13.0303L8.49178 14.3568V20.681C8.49178 20.8751 8.64908 21.0324 8.8431 21.0324C9.03713 21.0324 9.19443 20.8751 9.19443 20.681V14.2309C9.19443 14.1495 9.16614 14.0706 9.11442 14.0077L7.94334 12.5839C7.83705 12.4547 7.77849 12.2914 7.77849 12.1241V11.4826L14.4227 11.5232C14.6167 11.5232 14.774 11.366 14.774 11.1719C14.774 10.9778 14.6167 10.8206 14.4227 10.8206H12.8241C12.4944 10.8206 12.226 10.5523 12.226 10.2225C12.226 9.89275 12.4944 9.62443 12.8241 9.62443H15.8449C16.0525 9.62443 16.2214 9.79326 16.2214 10.0008V12.1241C16.2214 12.2914 16.1628 12.4547 16.0565 12.5839L14.8854 14.0077C14.8337 14.0706 14.8054 14.1494 14.8054 14.2309V15.1575C14.8054 15.3516 14.9627 15.5088 15.1568 15.5088C15.3508 15.5088 15.5081 15.3516 15.5081 15.1575V14.3568L16.5992 13.0303C16.8086 12.7756 16.924 12.4538 16.924 12.1241V11.4826H18.1279V15.3337C18.1279 16.0753 18.7313 16.6787 19.473 16.6787H20.5459C21.2876 16.6787 21.8909 16.0753 21.8909 15.3337V14.3982H23.0167C23.5588 14.3982 23.9999 13.9571 23.9999 13.415V6.23133C24 5.68925 23.559 5.24822 23.0168 5.24822ZM0.98315 13.6955C0.828473 13.6955 0.702652 13.5697 0.702652 13.415V6.23133C0.702652 6.07665 0.828473 5.95088 0.98315 5.95088H2.10894V13.6955H0.98315ZM14.9692 6.47173C15.3322 6.47173 15.6274 6.76698 15.6274 7.12988V8.43789C15.6274 8.62339 15.5487 8.79793 15.414 8.92183H14.5244C14.3897 8.79793 14.311 8.62339 14.311 8.43789V7.12988C14.311 6.76698 14.6063 6.47173 14.9692 6.47173ZM12.2921 6.60903C12.2921 6.24613 12.5873 5.95088 12.9502 5.95088C13.3131 5.95088 13.6084 6.24613 13.6084 6.60903V8.43789C13.6084 8.62339 13.5297 8.79793 13.395 8.92183H12.8242C12.7272 8.92183 12.6328 8.93283 12.5418 8.95307C12.3854 8.82959 12.292 8.64166 12.292 8.43789V6.60903H12.2921ZM10.2731 7.02752C10.2731 6.66463 10.5683 6.36937 10.9312 6.36937C11.2941 6.36937 11.5894 6.66463 11.5894 7.02752V8.43784C11.5894 8.80078 11.2942 9.09604 10.9312 9.09604C10.5683 9.09604 10.2731 8.80078 10.2731 8.43784V7.02752ZM8.25409 7.31041C8.25409 6.94752 8.54935 6.65226 8.91224 6.65226C9.27514 6.65226 9.57039 6.94752 9.57039 7.31041V8.43789C9.57039 8.80083 9.27514 9.09608 8.91224 9.09608C8.54935 9.09608 8.25409 8.80083 8.25409 8.43789V7.31041ZM5.87196 8.86646H7.62101C7.80102 9.40741 8.31167 9.79869 8.91229 9.79869C9.31243 9.79869 9.67275 9.62499 9.92196 9.34918C10.1712 9.62495 10.5312 9.79869 10.9313 9.79869C11.2211 9.79869 11.4894 9.70674 11.7103 9.55168C11.5918 9.74768 11.5235 9.97726 11.5235 10.2225C11.5235 10.4219 11.5687 10.6109 11.6493 10.7799H5.87196V8.86646ZM16.9241 10.78V10.0009C16.9241 9.53543 16.6279 9.13792 16.2141 8.98685C16.2314 8.94754 16.2468 8.90735 16.2604 8.86646H18.1281V10.78H16.9241ZM23.2973 13.415C23.2973 13.5697 23.1715 13.6955 23.0168 13.6955H21.8911V12.6803C21.8911 12.4862 21.7338 12.3289 21.5397 12.3289C21.3457 12.3289 21.1884 12.4862 21.1884 12.6803V15.3337C21.1884 15.6879 20.9002 15.9761 20.546 15.9761H19.4731C19.1189 15.9761 18.8307 15.6879 18.8307 15.3337V4.31271C18.8307 3.95848 19.1189 3.6703 19.4731 3.6703H20.546C20.9003 3.6703 21.1884 3.95848 21.1884 4.31271V11.183C21.1884 11.3771 21.3457 11.5343 21.5397 11.5343C21.7338 11.5343 21.8911 11.3771 21.8911 11.183V5.95088H23.0168C23.1715 5.95088 23.2973 6.0767 23.2973 6.23133V13.415Z" fill="black"/>
<path d="M15.157 16.3035C14.963 16.3035 14.8057 16.4607 14.8057 16.6548V20.681C14.8057 20.8751 14.963 21.0324 15.157 21.0324C15.351 21.0324 15.5083 20.8751 15.5083 20.681V16.6548C15.5083 16.4607 15.3511 16.3035 15.157 16.3035Z" fill="black"/>
</g>
<defs>
<clipPath id="clip0">
<rect width="24" height="24" fill="white"/>
</clipPath>
</defs>
</svg>
