<svg width="24" height="24" viewBox="0 0 24 24" fill="none" xmlns="http://www.w3.org/2000/svg">
<path d="M4.96484 2.7207H19.0352V23.5312H4.96484V2.7207Z" fill="white"/>
<path d="M6.9375 0.46875H17.0625V2.72072H6.9375V0.46875Z" fill="#C5D3DE"/>
<path d="M0.46875 10.4062H4.96486V23.5312H0.46875V10.4062Z" fill="#FFCD69"/>
<path d="M23.5312 23.5312H19.0351V10.4062H23.5312V23.5312Z" fill="#FFCD69"/>
<path d="M14.4375 6.37696H13.0312V4.9707H10.9688V6.37696H9.5625V8.43946H10.9688V9.84571H13.0312V8.43946H14.4375V6.37696Z" fill="#FF7D97"/>
<path d="M7.59375 16.7812H16.4062V23.5312H7.59375V16.7812Z" fill="#DFEDFF"/>
<path d="M23.5312 9.9375H19.5039V2.72072C19.5039 2.46183 19.294 2.25197 19.0351 2.25197H17.5312V0.46875C17.5312 0.209859 17.3213 0 17.0625 0H6.9375C6.67861 0 6.46875 0.209859 6.46875 0.46875V2.25197H4.96486C4.70597 2.25197 4.49611 2.46183 4.49611 2.72072V9.9375H0.46875C0.209859 9.9375 0 10.1474 0 10.4062V23.5312C0 23.7901 0.209859 24 0.46875 24H23.5312C23.7901 24 24 23.7901 24 23.5312V10.4062C24 10.1474 23.7901 9.9375 23.5312 9.9375ZM0.9375 10.875H4.49611V23.0625H0.9375V10.875ZM5.43361 3.18947H9.89062C10.1495 3.18947 10.3594 2.97961 10.3594 2.72072C10.3594 2.46183 10.1495 2.25197 9.89062 2.25197H7.40625V0.9375H16.5938V2.25197H14.1094C13.8505 2.25197 13.6406 2.46183 13.6406 2.72072C13.6406 2.97961 13.8505 3.18947 14.1094 3.18947H18.5664V23.0625H16.875V16.7812C16.875 16.5224 16.6651 16.3125 16.4062 16.3125H7.59375C7.33486 16.3125 7.125 16.5224 7.125 16.7812V23.0625H5.43361V3.18947ZM8.0625 17.25H11.5312V23.0625H8.0625V17.25ZM12.4688 23.0625V17.25H15.9375V23.0625H12.4688ZM23.0625 23.0625H19.5039V10.875H23.0625V23.0625Z" fill="black"/>
<path d="M7.59375 15H9.03127C9.29016 15 9.50002 14.7901 9.50002 14.5312C9.50002 14.2724 9.29016 14.0625 9.03127 14.0625H7.59375C7.33486 14.0625 7.125 14.2724 7.125 14.5312C7.125 14.7901 7.33486 15 7.59375 15Z" fill="black"/>
<path d="M12.7188 14.0625H11.2813C11.0224 14.0625 10.8125 14.2724 10.8125 14.5312C10.8125 14.7901 11.0224 15 11.2813 15H12.7188C12.9776 15 13.1875 14.7901 13.1875 14.5312C13.1875 14.2724 12.9776 14.0625 12.7188 14.0625Z" fill="black"/>
<path d="M16.4063 14.0625H14.9688C14.7099 14.0625 14.5 14.2724 14.5 14.5312C14.5 14.7901 14.7099 15 14.9688 15H16.4063C16.6651 15 16.875 14.7901 16.875 14.5312C16.875 14.2724 16.6651 14.0625 16.4063 14.0625Z" fill="black"/>
<path d="M7.59375 12.5644H9.03127C9.29016 12.5644 9.50002 12.3546 9.50002 12.0957C9.50002 11.8368 9.29016 11.627 9.03127 11.627H7.59375C7.33486 11.627 7.125 11.8368 7.125 12.0957C7.125 12.3546 7.33486 12.5644 7.59375 12.5644Z" fill="black"/>
<path d="M12.7188 11.627H11.2813C11.0224 11.627 10.8125 11.8368 10.8125 12.0957C10.8125 12.3546 11.0224 12.5644 11.2813 12.5644H12.7188C12.9776 12.5644 13.1875 12.3546 13.1875 12.0957C13.1875 11.8368 12.9776 11.627 12.7188 11.627Z" fill="black"/>
<path d="M14.5 12.0957C14.5 12.3546 14.7099 12.5644 14.9688 12.5644H16.4063C16.6651 12.5644 16.875 12.3546 16.875 12.0957C16.875 11.8368 16.6651 11.627 16.4063 11.627H14.9688C14.7099 11.627 14.5 11.8368 14.5 12.0957Z" fill="black"/>
<path d="M9.5625 8.90821H10.5V9.84571C10.5 10.1046 10.7099 10.3145 10.9688 10.3145H13.0312C13.2901 10.3145 13.5 10.1046 13.5 9.84571V8.90821H14.4375C14.6963 8.90821 14.9062 8.69835 14.9062 8.43946V6.37696C14.9062 6.11806 14.6963 5.9082 14.4375 5.9082H13.5V4.9707C13.5 4.71181 13.2901 4.50195 13.0312 4.50195H10.9688C10.7099 4.50195 10.5 4.71181 10.5 4.9707V5.9082H9.5625C9.30361 5.9082 9.09375 6.11806 9.09375 6.37696V8.43946C9.09375 8.6983 9.30361 8.90821 9.5625 8.90821ZM10.0312 6.84571H10.9688C11.2276 6.84571 11.4375 6.63585 11.4375 6.37696V5.43945H12.5625V6.37696C12.5625 6.63585 12.7724 6.84571 13.0312 6.84571H13.9688V7.97071H13.0312C12.7724 7.97071 12.5625 8.18057 12.5625 8.43946V9.37696H11.4375V8.43946C11.4375 8.18057 11.2276 7.97071 10.9688 7.97071H10.0312V6.84571Z" fill="black"/>
<path d="M12 3.18945C12.1233 3.18945 12.2442 3.1393 12.3314 3.05211C12.4185 2.96492 12.4688 2.84398 12.4688 2.7207C12.4688 2.59742 12.4186 2.47648 12.3314 2.3893C12.2442 2.30211 12.1233 2.25195 12 2.25195C11.8767 2.25195 11.7558 2.30211 11.6686 2.3893C11.5814 2.47648 11.5312 2.59742 11.5312 2.7207C11.5312 2.84398 11.5814 2.96492 11.6686 3.05211C11.7558 3.1393 11.8767 3.18945 12 3.18945Z" fill="black"/>
</svg>
