<svg height="512pt" viewBox="0 0 512 512" width="512pt" xmlns="http://www.w3.org/2000/svg"><path d="m252.605469 257.773438c0 56.621093-48.265625 102.519531-107.804688 102.519531-59.535156 0-107.800781-45.898438-107.800781-102.519531 0-56.617188 48.265625-193.773438 107.800781-193.773438 59.539063 0 107.804688 137.15625 107.804688 193.773438zm0 0" fill="#9bef86"/><g fill="#50d670"><path d="m246.636719 291.472656c21.535156 33.914063 60.664062 56.589844 105.363281 56.589844 67.929688 0 123-52.367188 123-116.96875s-55.070312-221.09375-123-221.09375c-53.070312 0-98.292969 95.515625-115.535156 168.109375zm0 0"/><path d="m165.75 487.085938c0-29.46875-23.890625-53.359376-53.359375-53.359376-17.863281 0-33.667969 8.789063-43.351563 22.265626-3.714843-.929688-7.597656-1.433594-11.597656-1.433594-26.203125 0-47.441406 21.242187-47.441406 47.441406h153.621094c1.375-4.734375 2.128906-9.734375 2.128906-14.914062zm0 0"/><path d="m295 502c0-57.160156 46.339844-103.5 103.5-103.5s103.5 46.339844 103.5 103.5zm0 0"/></g><path d="m144.800781 480.148438c0-33.261719 26.964844-60.226563 60.226563-60.226563 27.367187 0 50.433594 18.265625 57.761718 43.261719 6.625-5.691406 15.21875-9.152344 24.632813-9.152344 17.167969 0 31.640625 11.4375 36.273437 27.105469 7.765626-16.027344 24.140626-27.105469 43.140626-27.105469 26.492187 0 47.96875 21.476562 47.96875 47.96875h-270.003907zm0 0" fill="#d8fb93"/><path d="m352 144.921875c2.628906 0 5.210938-1.070313 7.070312-2.933594 1.859376-1.867187 2.929688-4.4375 2.929688-7.078125 0-2.628906-1.070312-5.199218-2.929688-7.070312-1.859374-1.859375-4.441406-2.917969-7.070312-2.917969s-5.210938 1.058594-7.070312 2.917969c-1.859376 1.871094-2.929688 4.441406-2.929688 7.070312 0 2.640625 1.070312 5.210938 2.929688 7.078125 1.859374 1.863281 4.441406 2.933594 7.070312 2.933594zm0 0"/><path d="m54.441406 173.925781c1.171875.445313 2.375.65625 3.554688.65625 4.03125 0 7.828125-2.453125 9.347656-6.445312l.152344-.394531c1.957031-5.164063-.640625-10.9375-5.804688-12.894532-5.164062-1.957031-10.9375.640625-12.894531 5.804688l-.144531.371094c-1.964844 5.160156.628906 10.9375 5.789062 12.902343zm0 0"/><path d="m398.5 388.5c-12.601562 0-24.910156 2.128906-36.5 6.089844v-36.882813c68.683594-4.898437 123-59.8125 123-126.613281 0-35.695312-15.207031-92.867188-36.980469-139.039062-12.523437-26.554688-26.269531-47.898438-40.851562-63.4375-17.820313-18.988282-36.382813-28.617188-55.167969-28.617188-27.582031 0-55.15625 21.308594-79.742188 61.625-14.546874 23.859375-27.613281 53.59375-37.335937 84.535156-1.570313-3.648437-3.1875-7.25-4.847656-10.769531-11.03125-23.394531-23.148438-42.207031-36.019531-55.917969-15.863282-16.902344-32.433594-25.472656-49.253907-25.472656-36.472656 0-64.308593 39.769531-81.234375 73.136719-2.5 4.925781-.53125 10.941406 4.394532 13.441406 4.925781 2.5 10.941406.53125 13.441406-4.394531 20.050781-39.519532 43.15625-62.183594 63.398437-62.183594 21.742188 0 46.226563 25.484375 67.183594 69.921875 20.101563 42.625 30.621094 89.539063 30.621094 113.851563 0 47.824218-38.554688 87.285156-87.804688 92.039062v-62.242188l34.769531-34.769531c3.90625-3.90625 3.90625-10.238281 0-14.144531-3.902343-3.90625-10.234374-3.902344-14.140624 0l-20.628907 20.628906v-85.804687c0-5.523438-4.476562-10-10-10-5.523437 0-10 4.476562-10 10v124.371093l-32.886719-32.886718c-3.902343-3.90625-10.234374-3.90625-14.140624 0s-3.90625 10.238281 0 14.140625l47.027343 47.03125v23.675781c-49.246093-4.753906-87.800781-44.214844-87.800781-92.039062 0-12.496094 2.609375-29.734376 7.351562-48.535157 1.347657-5.355469-1.898437-10.792969-7.253906-12.140625-5.351562-1.347656-10.789062 1.894532-12.140625 7.25-5.207031 20.652344-7.957031 39.125-7.957031 53.425782 0 58.828124 47.507812 107.246093 107.800781 112.109374v57.929688c-7.097656-2.6875-14.65625-4.085938-22.410156-4.085938-18.152344 0-35.433594 7.871094-47.394531 21.332032-2.5-.332032-5.027344-.496094-7.558594-.496094-31.667969-.003906-57.4375 25.765625-57.4375 57.4375 0 5.523438 4.476562 10 10 10h492c5.523438 0 10-4.476562 10-10 0-62.585938-50.914062-113.5-113.5-113.5zm-46.5-368.5c25.371094 0 53.777344 29.371094 77.929688 80.585938 20.320312 43.089843 35.070312 97.976562 35.070312 130.507812 0 55.792969-45.359375 101.738281-103 106.546875v-73.136719l40.085938-40.085937c3.902343-3.902344 3.902343-10.234375 0-14.140625-3.90625-3.90625-10.238282-3.90625-14.144532 0l-25.941406 25.941406v-61.304688c0-5.523437-4.476562-10-10-10s-10 4.476563-10 10v105.308594l-39.929688-39.929687c-3.90625-3.902344-10.234374-3.902344-14.140624 0-3.90625 3.90625-3.90625 10.238281 0 14.144531l54.070312 54.070312v29.136719c-34.414062-2.820312-65.152344-20.113281-84.324219-47.652343 3.199219-10.210938 4.929688-21.023438 4.929688-32.21875 0-21.078126-6.019531-50.640626-15.75-80.078126 19.101562-78 63.253906-157.695312 105.144531-157.695312zm-103.398438 290.933594c10.328126 12.167968 22.960938 22.496094 37.222657 30.320312 17.160156 9.414063 36.40625 15.015625 56.175781 16.4375v45.972656c-17.28125 9.9375-31.933594 24.359376-42.074219 42.074219-4.019531-1.105469-8.214843-1.707031-12.503906-1.707031-6.878906 0-13.636719 1.496094-19.820313 4.316406-11.816406-23.128906-35.996093-38.425781-62.574218-38.425781-19.667969 0-37.464844 8.136719-50.226563 21.210937v-61.25c40.597657-3.277343 75.398438-26.296874 93.800781-58.949218zm-191.160156 153.625c3.085938 0 6.171875.382812 9.160156 1.132812 3.980469 1 8.164063-.53125 10.558594-3.863281 8.144532-11.335937 21.316406-18.101563 35.230469-18.101563 7.980469 0 15.667969 2.148438 22.410156 6.234376v42.039062h-113.445312c4.386719-15.804688 18.902343-27.441406 36.085937-27.441406zm247.558594 27.441406h-150.195312v-11.851562c0-27.695313 22.53125-50.226563 50.226562-50.226563 22.128906 0 41.933594 14.835937 48.164062 36.074219.957032 3.261718 3.5 5.8125 6.757813 6.773437 3.257813.964844 6.78125.210938 9.355469-2.003906 5.054687-4.339844 11.488281-6.734375 18.117187-6.734375 12.238281 0 23.210938 8.199219 26.679688 19.9375 1.171875 3.960938 4.65625 6.792969 8.773437 7.132812 4.117188.34375 8.015625-1.890624 9.816406-5.605468 6.417969-13.238282 19.5-21.464844 34.144532-21.464844 17.476562 0 32.230468 11.867188 36.628906 27.96875zm118.925781 0c-4.753906-27.210938-28.535156-47.96875-57.089843-47.96875-16.285157 0-31.300782 6.648438-42.042969 18.054688-2.109375-2.628907-4.492188-5.015626-7.089844-7.140626 9.222656-15.78125 22.808594-28.339843 38.769531-36.394531.140625-.070312.28125-.140625.417969-.21875 12.722656-6.339843 26.925781-9.832031 41.609375-9.832031 48.179688 0 87.964844 36.625 92.96875 83.5zm0 0"/></svg>