<svg width="24" height="24" viewBox="0 0 24 24" fill="none" xmlns="http://www.w3.org/2000/svg">
<path d="M4.84961 20.6177H19.1497V22.1329H4.84961V20.6177Z" fill="#26457D"/>
<path d="M19.1504 20.6177H23.6488V23.6481H19.1504V20.6177Z" fill="#DF75A5"/>
<path d="M4.84961 23.6484H0.35125V20.618H4.84961V23.6484Z" fill="#DF75A5"/>
<path d="M4.14062 22.1333H19.8613V23.6485H4.14062V22.1333Z" fill="#30579D"/>
<path d="M4.84961 20.6182H0.35125V11.9055H4.84961V20.6182Z" fill="#DAB46B"/>
<path d="M4.84961 20.6182H3.71317V11.9055H4.84961V20.6182Z" fill="#CBA763"/>
<path d="M4.84961 13.4204V16.4035H1.86648V13.4204H4.84961Z" fill="#D3EFFB"/>
<path d="M3.71289 13.4204H4.84933V16.4035H3.71289V13.4204Z" fill="#B1E4F9"/>
<path d="M19.1504 11.9053H23.6488V20.6179H19.1504V11.9053Z" fill="#DAB46B"/>
<path d="M19.1504 11.9053H20.2868V20.6179H19.1504V11.9053Z" fill="#CBA763"/>
<path d="M22.1328 13.4204V16.4035H19.1497V13.4204H22.1328Z" fill="#D3EFFB"/>
<path d="M19.1504 13.4204H20.2868V16.4035H19.1504V13.4204Z" fill="#B1E4F9"/>
<path d="M4.39425 9.96789L11.9998 5.5038L19.6053 9.96789C20.0953 10.2555 20.7124 9.90217 20.7124 9.33395C20.7124 9.07323 20.5743 8.83202 20.3495 8.70002L12.4792 4.08048C12.1832 3.90677 11.8163 3.90677 11.5204 4.08048L3.65006 8.70002C3.4252 8.83202 3.28711 9.07323 3.28711 9.33395C3.28711 9.90217 3.90422 10.2555 4.39425 9.96789Z" fill="#DF75A5"/>
<path d="M20.3507 8.70039L17.9828 7.31055C17.5454 7.60075 17.02 7.86573 16.4219 8.09903L19.6065 9.96826C20.0965 10.2559 20.7136 9.90254 20.7136 9.33433C20.7136 9.07356 20.5755 8.83234 20.3507 8.70039Z" fill="#DD5790"/>
<path d="M19.1498 20.618V9.70067L11.9997 5.50391L4.84961 9.70067V20.618H19.1498Z" fill="#F1D59D"/>
<path d="M11.9997 5.50391L4.84961 9.70067V10.9086L11.5203 6.99322C11.8163 6.8195 12.1831 6.8195 12.4791 6.99322L17.6404 10.0227C17.9301 10.1927 18.108 10.5035 18.108 10.8394V20.618H19.1498V9.70067L11.9997 5.50391Z" fill="#EFCB84"/>
<path d="M10.1055 16.167H13.8936V20.618H10.1055V16.167Z" fill="#AC80DD"/>
<path d="M13.8477 10.5796H17.6358V14.3677H13.8477V10.5796Z" fill="#E4FBEF"/>
<path d="M6.36523 10.5796H10.1533V14.3677H6.36523V10.5796Z" fill="#E4FBEF"/>
<path d="M15.0305 2.62444H12V0.351562H15.0305L14.557 1.488L15.0305 2.62444Z" fill="#AC80DD"/>
<path d="M22.8912 20.6176C23.3096 20.6176 23.6488 20.2785 23.6488 19.86C23.6488 19.4416 23.3096 19.1024 22.8912 19.1024C22.8496 19.1024 22.8091 19.1066 22.7693 19.113C22.6232 18.9131 22.4011 18.7732 22.1452 18.735C21.9503 18.5519 21.6882 18.4395 21.3996 18.4395C21.111 18.4395 20.8489 18.5519 20.654 18.735C20.398 18.7731 20.1759 18.9131 20.0299 19.113C19.9901 19.1066 19.9496 19.1024 19.908 19.1024C19.4896 19.1024 19.1504 19.4415 19.1504 19.86C19.1504 20.2784 19.4896 20.6176 19.908 20.6176H22.8912Z" fill="#86F1A7"/>
<path d="M1.1092 20.6176C0.690797 20.6176 0.351562 20.2785 0.351562 19.86C0.351562 19.4416 0.69075 19.1024 1.1092 19.1024C1.15078 19.1024 1.19128 19.1066 1.23103 19.113C1.37714 18.9131 1.59923 18.7732 1.85517 18.735C2.05003 18.5519 2.3122 18.4395 2.60077 18.4395C2.88933 18.4395 3.1515 18.5519 3.34636 18.735C3.60234 18.7731 3.82444 18.9131 3.9705 19.113C4.01025 19.1066 4.05075 19.1024 4.09233 19.1024C4.51073 19.1024 4.84997 19.4415 4.84997 19.86C4.84997 20.2784 4.51078 20.6176 4.09233 20.6176H1.1092Z" fill="#86F1A7"/>
<path d="M13.8477 14.7193H17.6358C17.8299 14.7193 17.9873 14.5619 17.9873 14.3677V10.5796C17.9873 10.3854 17.8299 10.228 17.6358 10.228H13.8477C13.6535 10.228 13.4961 10.3854 13.4961 10.5796V14.3677C13.4961 14.5619 13.6535 14.7193 13.8477 14.7193ZM14.1992 12.8252H15.3901V14.0162H14.1992V12.8252ZM16.0933 14.0161V12.8252H17.2843V14.0161H16.0933ZM17.2842 12.1221H16.0933V10.9312H17.2842V12.1221ZM15.3902 10.9312V12.1221H14.1993V10.9312H15.3902Z" fill="black"/>
<path d="M6.36523 14.7193H10.1533C10.3475 14.7193 10.5049 14.5619 10.5049 14.3677V10.5796C10.5049 10.3854 10.3475 10.228 10.1533 10.228H6.36523C6.17108 10.228 6.01367 10.3854 6.01367 10.5796V14.3677C6.01367 14.5619 6.17103 14.7193 6.36523 14.7193ZM6.7168 12.8252H7.90775V14.0162H6.7168V12.8252ZM8.61083 14.0161V12.8252H9.80173V14.0161H8.61083ZM9.80178 12.1221H8.61088V10.9312H9.80178V12.1221ZM7.9077 10.9312V12.1221H6.71675V10.9312H7.9077Z" fill="black"/>
<path d="M23.6484 13.8989C23.8426 13.8989 24 13.7415 24 13.5473V11.9053C24 11.7112 23.8426 11.5538 23.6484 11.5538H19.5016V10.3108C19.653 10.3851 19.8151 10.4226 19.9775 10.4226C20.1626 10.4226 20.3479 10.3742 20.5173 10.2773C20.8598 10.0813 21.0642 9.72872 21.0642 9.33422C21.0642 9.14592 21.0148 8.95941 20.9204 8.79333C20.8265 8.63002 20.691 8.493 20.5278 8.39681L17.2606 6.47916C17.0931 6.38077 16.8777 6.43697 16.7795 6.60441C16.6812 6.77184 16.7373 6.98728 16.9047 7.08558L20.1712 9.00286C20.2292 9.03703 20.2775 9.08583 20.31 9.14241C20.3434 9.20123 20.3611 9.26756 20.3611 9.33427C20.3611 9.53489 20.2261 9.63384 20.1681 9.66703C20.11 9.70022 19.9564 9.76645 19.7834 9.66483L12.1779 5.20092C12.0681 5.13642 11.9319 5.13642 11.822 5.20092L4.21627 9.66497C4.15575 9.70055 4.09097 9.71864 4.02375 9.71864C3.83869 9.71864 3.63891 9.57169 3.63891 9.33427C3.63891 9.1988 3.71156 9.07186 3.82814 9.00323L11.6981 4.38389C11.8843 4.27486 12.1157 4.27486 12.3016 4.3837L15.4896 6.25495C15.657 6.3532 15.8724 6.29714 15.9708 6.12975C16.0691 5.96227 16.013 5.74687 15.8456 5.64858L12.6572 3.77709C12.5602 3.72023 12.4573 3.67744 12.3517 3.64781V2.976H15.0306C15.1481 2.976 15.2579 2.91727 15.3231 2.81944C15.3883 2.72166 15.4003 2.59772 15.3551 2.4892L14.9379 1.488L15.3551 0.486797C15.4003 0.378281 15.3883 0.254391 15.3231 0.156562C15.2579 0.0587344 15.148 0 15.0305 0H12C11.8058 0 11.6484 0.157406 11.6484 0.351562V2.62444V3.64781C11.5427 3.67744 11.4397 3.72033 11.3425 3.77723L3.4718 8.39705C3.14114 8.59167 2.93573 8.95078 2.93573 9.33422C2.93573 9.93384 3.4238 10.4217 4.0237 10.4217C4.18753 10.4217 4.35 10.3833 4.49831 10.3107V11.5538H3.06609C2.87194 11.5538 2.71453 11.7112 2.71453 11.9053C2.71453 12.0995 2.87194 12.2569 3.06609 12.2569H4.49836V13.069H1.8668C1.67264 13.069 1.51523 13.2264 1.51523 13.4205V16.4037C1.51523 16.5979 1.67264 16.7553 1.8668 16.7553H4.49836V18.8282C4.38131 18.782 4.25466 18.7551 4.12223 18.7515C3.95264 18.5818 3.74077 18.4635 3.50583 18.4083C3.24998 18.2012 2.9325 18.0882 2.60077 18.0882C2.26903 18.0882 1.95159 18.2011 1.6957 18.4083C1.46072 18.4635 1.24884 18.5818 1.07925 18.7515C0.946828 18.7551 0.820172 18.782 0.703125 18.8282V12.2569H1.42547C1.61962 12.2569 1.77703 12.0995 1.77703 11.9053C1.77703 11.7112 1.61962 11.5538 1.42547 11.5538H0.351562C0.157406 11.5538 0 11.7112 0 11.9053V23.6484C0 23.8426 0.157406 24 0.351562 24H23.6484C23.8426 24 24 23.8426 24 23.6484V15.188C24 14.9938 23.8426 14.8364 23.6484 14.8364C23.4543 14.8364 23.2969 14.9938 23.2969 15.188V18.8282C23.1798 18.782 23.0532 18.7551 22.9207 18.7515C22.7512 18.5818 22.5393 18.4635 22.3043 18.4083C22.0484 18.2012 21.731 18.0882 21.3992 18.0882C21.0675 18.0882 20.75 18.2011 20.4942 18.4083C20.2592 18.4635 20.0474 18.5818 19.8778 18.7515C19.7453 18.7551 19.6187 18.782 19.5016 18.8282V16.7553H22.1332C22.3274 16.7553 22.4848 16.5979 22.4848 16.4037V13.4205C22.4848 13.2264 22.3274 13.069 22.1332 13.069H19.5016V12.2569H23.2969V13.5473C23.2969 13.7415 23.4543 13.8989 23.6484 13.8989ZM14.2325 1.62323L14.5031 2.27287H12.3516V0.703125H14.5031L14.2324 1.35277C14.1964 1.43934 14.1964 1.5367 14.2325 1.62323ZM12 5.91169L18.7985 9.90197V20.2664H14.2456V16.167C14.2456 15.9728 14.0882 15.8154 13.8941 15.8154H10.106C9.91181 15.8154 9.75441 15.9728 9.75441 16.167V20.2664H5.20153V9.90197L12 5.91169ZM5.20148 21.7816V20.9695H18.7985V21.7816H5.20148ZM13.5425 16.5185V20.2664H12.3516V16.5185H13.5425ZM11.6484 20.2664H10.4575V16.5185H11.6484V20.2664ZM2.21836 16.0521V13.7721H4.49836V16.0521H2.21836ZM1.1092 19.4543C1.12781 19.4543 1.14923 19.4563 1.17469 19.4604C1.30533 19.4816 1.43681 19.4276 1.51486 19.3207C1.60964 19.191 1.74891 19.1066 1.90688 19.0831C1.97775 19.0725 2.0437 19.0406 2.09592 18.9915C2.23327 18.8624 2.41252 18.7913 2.60072 18.7913C2.78892 18.7913 2.96817 18.8624 3.10552 18.9915C3.15773 19.0406 3.22369 19.0725 3.29456 19.0831C3.45258 19.1066 3.5918 19.191 3.68663 19.3207C3.76472 19.4276 3.89616 19.4815 4.0268 19.4604C4.05225 19.4563 4.07367 19.4543 4.09228 19.4543C4.31616 19.4543 4.49836 19.6364 4.49836 19.8603C4.49836 20.0843 4.3162 20.2664 4.09228 20.2664H1.10916C0.885281 20.2664 0.703078 20.0843 0.703078 19.8603C0.703078 19.6364 0.885281 19.4543 1.1092 19.4543ZM0.703125 20.9695H4.49836V21.7816H4.13967C3.94552 21.7816 3.78811 21.939 3.78811 22.1332V23.2969H0.703125V20.9695ZM4.49123 22.4848H19.5088V23.2969H4.49123V22.4848ZM20.2119 23.2969V22.1332C20.2119 21.939 20.0545 21.7816 19.8603 21.7816H19.5016V20.9695H23.2969V23.2969H20.2119ZM19.9077 19.4543C19.9262 19.4543 19.9477 19.4563 19.9732 19.4604C20.1038 19.4816 20.2352 19.4276 20.3133 19.3207C20.4082 19.191 20.5474 19.1066 20.7054 19.0831C20.7763 19.0725 20.8422 19.0406 20.8944 18.9915C21.0318 18.8624 21.211 18.7913 21.3992 18.7913C21.5874 18.7913 21.7667 18.8624 21.904 18.9915C21.9563 19.0406 22.0222 19.0725 22.0931 19.0831C22.2511 19.1066 22.3903 19.191 22.4851 19.3207C22.5631 19.4276 22.6946 19.4815 22.8253 19.4604C22.8507 19.4563 22.8721 19.4543 22.8908 19.4543C23.1146 19.4543 23.2968 19.6364 23.2968 19.8603C23.2968 20.0843 23.1147 20.2664 22.8908 20.2664H19.9076C19.6838 20.2664 19.5015 20.0843 19.5015 19.8603C19.5015 19.6364 19.6838 19.4543 19.9077 19.4543ZM21.7816 13.7721V16.0522H19.5016V13.7721H21.7816Z" fill="black"/>
</svg>
