<svg width="25" height="24" viewBox="0 0 25 24" fill="none" xmlns="http://www.w3.org/2000/svg">
<g clip-path="url(#clip0)">
<path d="M2.72656 16.9219H4.13281V19.4531H2.72656V16.9219Z" fill="#A35418"/>
<path d="M3.42969 17.7188C4.85355 17.7188 6.00781 16.5645 6.00781 15.1407C6.00781 13.7168 4.85355 12.5626 3.42969 12.5626C2.00583 12.5626 0.851562 13.7168 0.851562 15.1407C0.851562 16.5645 2.00583 17.7188 3.42969 17.7188Z" fill="#64CC56"/>
<path d="M3.42969 12.5626C3.18594 12.5626 2.95006 12.5964 2.72656 12.6596C3.80867 12.9656 4.60156 13.9606 4.60156 15.1407C4.60156 16.3208 3.80867 17.3157 2.72656 17.6218C2.95006 17.685 3.18594 17.7188 3.42969 17.7188C4.85356 17.7188 6.00781 16.5646 6.00781 15.1407C6.00781 13.7168 4.85356 12.5626 3.42969 12.5626Z" fill="#50A645"/>
<path d="M20.8672 16.9219H22.2734V19.4531H20.8672V16.9219Z" fill="#A35418"/>
<path d="M21.5703 17.7188C22.9942 17.7188 24.1484 16.5645 24.1484 15.1407C24.1484 13.7168 22.9942 12.5626 21.5703 12.5626C20.1465 12.5626 18.9922 13.7168 18.9922 15.1407C18.9922 16.5645 20.1465 17.7188 21.5703 17.7188Z" fill="#64CC56"/>
<path d="M21.5703 12.5626C21.3266 12.5626 21.0907 12.5964 20.8672 12.6596C21.9493 12.9656 22.7422 13.9606 22.7422 15.1407C22.7422 16.3208 21.9493 17.3157 20.8672 17.6218C21.0907 17.685 21.3266 17.7188 21.5703 17.7188C22.9942 17.7188 24.1484 16.5646 24.1484 15.1407C24.1484 13.7168 22.9942 12.5626 21.5703 12.5626Z" fill="#50A645"/>
<path d="M19.5312 19.4531H5.46875V9.19341L12.5 3.79688L19.5312 9.19294V19.4531Z" fill="#FFD180"/>
<path d="M18.125 8.11377V19.4532H19.5312V9.19297L18.125 8.11377Z" fill="#FFBA63"/>
<path d="M20.9905 9.37968L12.9281 3.19218C12.6756 2.99844 12.3244 2.99844 12.0719 3.19218L4.00947 9.37968C3.7014 9.61611 3.64333 10.0575 3.87972 10.3656C4.11615 10.6736 4.55753 10.7316 4.86559 10.4953L12.5 4.63635L20.1344 10.4953C20.2621 10.5933 20.4126 10.6407 20.562 10.6407C20.773 10.6407 20.9818 10.546 21.1203 10.3656C21.3567 10.0575 21.2986 9.61611 20.9905 9.37968Z" fill="#FF7043"/>
<path d="M23.3984 20.9531H1.60156C1.18733 20.9531 0.851562 20.6174 0.851562 20.2031C0.851562 19.7889 1.18733 19.4531 1.60156 19.4531H23.3984C23.8127 19.4531 24.1484 19.7889 24.1484 20.2031C24.1484 20.6174 23.8127 20.9531 23.3984 20.9531Z" fill="#A35418"/>
<path d="M23.3984 19.4531H21.9922C22.4064 19.4531 22.7422 19.7889 22.7422 20.2031C22.7422 20.6174 22.4064 20.9531 21.9922 20.9531H23.3984C23.8127 20.9531 24.1484 20.6174 24.1484 20.2031C24.1484 19.7889 23.8127 19.4531 23.3984 19.4531Z" fill="#8C4815"/>
<path d="M7.48438 12.7032H11.7031V19.4532H7.48438V12.7032Z" fill="#BF6724"/>
<path d="M10.2969 12.7032H11.7031V19.4532H10.2969V12.7032Z" fill="#A35418"/>
<path d="M17.7969 16.9219H13.1094C13.0058 16.9219 12.9219 16.8379 12.9219 16.7344V15.7031C12.9219 15.5996 13.0058 15.5156 13.1094 15.5156H17.7969C17.9004 15.5156 17.9844 15.5996 17.9844 15.7031V16.7344C17.9844 16.8379 17.9004 16.9219 17.7969 16.9219Z" fill="#FF7043"/>
<path d="M17.7969 15.5156H16.3906C16.4942 15.5156 16.5781 15.5996 16.5781 15.7031V16.7344C16.5781 16.8379 16.4942 16.9219 16.3906 16.9219H17.7969C17.9004 16.9219 17.9844 16.8379 17.9844 16.7344V15.7031C17.9844 15.5996 17.9004 15.5156 17.7969 15.5156Z" fill="#FF5722"/>
<path d="M13.3906 12.7032H17.5156V15.5157H13.3906V12.7032Z" fill="#B2EBF2"/>
<path d="M16.1094 12.7032H17.5156V15.5157H16.1094V12.7032Z" fill="#80DEEA"/>
<path d="M12.5 10.4785C13.4061 10.4785 14.1406 9.74392 14.1406 8.83783C14.1406 7.93174 13.4061 7.1972 12.5 7.1972C11.5939 7.1972 10.8594 7.93174 10.8594 8.83783C10.8594 9.74392 11.5939 10.4785 12.5 10.4785Z" fill="#B2EBF2"/>
<path d="M23.3984 19.1015H22.625V17.8731C23.7207 17.4487 24.5 16.3842 24.5 15.1405C24.5 13.5251 23.1857 12.2108 21.5703 12.2108C20.9545 12.2108 20.3701 12.4001 19.8828 12.7447V10.7452L19.9204 10.774C20.1063 10.9166 20.3281 10.992 20.562 10.992C20.8928 10.992 21.1979 10.8416 21.3992 10.5794C21.7532 10.118 21.6659 9.45462 21.2046 9.10052L18.3673 6.92295C18.2133 6.80468 17.9925 6.83374 17.8743 6.98782C17.7561 7.14185 17.7852 7.36254 17.9391 7.48076L20.7765 9.65834C20.9303 9.77637 20.9594 9.99752 20.8414 10.1513C20.7743 10.2387 20.6724 10.2889 20.5619 10.2889C20.4842 10.2889 20.4104 10.2637 20.3484 10.2161L12.714 4.35705C12.5878 4.26016 12.4122 4.26016 12.286 4.35705L4.65158 10.2161C4.49778 10.3341 4.27663 10.305 4.15859 10.1513C4.04056 9.99752 4.06972 9.77637 4.22347 9.65834L12.2859 3.4707C12.4119 3.37404 12.588 3.37399 12.714 3.4707L16.7495 6.56773C16.9035 6.68595 17.1242 6.65693 17.2424 6.50285C17.3606 6.34882 17.3315 6.12813 17.1775 6.00991L13.1421 2.91284C12.764 2.62277 12.236 2.62282 11.8579 2.91288L3.79541 9.10052C3.33406 9.45462 3.24678 10.118 3.60083 10.5794C3.95487 11.0407 4.61825 11.128 5.07964 10.774L5.11719 10.7451V12.7446C4.62992 12.4 4.04553 12.2107 3.42969 12.2107C1.81428 12.2107 0.5 13.525 0.5 15.1405C0.5 16.3841 1.27934 17.4486 2.375 17.873V19.1015H1.60156C0.994156 19.1015 0.5 19.5956 0.5 20.2031C0.5 20.8106 0.994156 21.3047 1.60156 21.3047H19.994C20.1882 21.3047 20.3456 21.1473 20.3456 20.9531C20.3456 20.759 20.1882 20.6016 19.994 20.6016H1.60156C1.38186 20.6016 1.20312 20.4229 1.20312 20.2031C1.20312 19.9834 1.38186 19.8047 1.60156 19.8047H23.3984C23.6181 19.8047 23.7969 19.9834 23.7969 20.2031C23.7969 20.4229 23.6181 20.6016 23.3984 20.6016H21.5132C21.3191 20.6016 21.1617 20.759 21.1617 20.9531C21.1617 21.1473 21.3191 21.3047 21.5132 21.3047H23.3984C24.0058 21.3047 24.5 20.8106 24.5 20.2031C24.5 19.5956 24.0058 19.1015 23.3984 19.1015ZM21.5703 12.9139C22.798 12.9139 23.7969 13.9128 23.7969 15.1405C23.7969 16.3683 22.798 17.3671 21.5703 17.3671C20.9155 17.3671 20.307 17.0861 19.8828 16.5927V13.6883C20.307 13.1949 20.9155 12.9139 21.5703 12.9139ZM19.8828 17.5364C20.0793 17.6754 20.2917 17.7886 20.5156 17.8746V19.1015H19.8828V17.5364ZM5.11719 17.5364V19.1015H4.48438V17.8746C4.70825 17.7886 4.92069 17.6754 5.11719 17.5364ZM1.20312 15.1405C1.20312 13.9128 2.20198 12.9139 3.42969 12.9139C4.08448 12.9139 4.69302 13.1949 5.11719 13.6883V16.5927C4.69302 17.0861 4.08453 17.3671 3.42969 17.3671C2.20198 17.3671 1.20312 16.3683 1.20312 15.1405ZM3.07812 19.1015V18.0484C3.19348 18.0623 3.31063 18.0703 3.42969 18.0703C3.54823 18.0703 3.66552 18.063 3.78125 18.0492V19.1016H3.07812V19.1015ZM12.0547 19.1015V12.703C12.0547 12.5088 11.8973 12.3514 11.7031 12.3514H7.48438C7.29022 12.3514 7.13281 12.5088 7.13281 12.703V16.8641C7.13281 17.0583 7.29022 17.2157 7.48438 17.2157C7.67853 17.2157 7.83594 17.0583 7.83594 16.8641V13.0545H11.3516V19.1015H7.83594V18.3738C7.83594 18.1796 7.67853 18.0222 7.48438 18.0222C7.29022 18.0222 7.13281 18.1796 7.13281 18.3738V19.1015H5.82031V10.2056L12.5 5.07912L19.1797 10.2055V19.1015H12.0547ZM21.2188 19.1015V18.0492C21.3345 18.0629 21.4518 18.0702 21.5703 18.0702C21.6894 18.0702 21.8065 18.0623 21.9219 18.0484V19.1015H21.2188V19.1015Z" fill="black"/>
<path d="M17.8672 15.169V12.7029C17.8672 12.5087 17.7098 12.3513 17.5156 12.3513H13.3906C13.1965 12.3513 13.0391 12.5087 13.0391 12.7029V15.169C12.775 15.2037 12.5703 15.4296 12.5703 15.703V16.7342C12.5703 17.0315 12.8121 17.2733 13.1094 17.2733H17.7969C18.0941 17.2733 18.3359 17.0315 18.3359 16.7342V15.703C18.3359 15.4296 18.1312 15.2037 17.8672 15.169ZM17.1641 15.1639H15.8047V13.0545H17.1641V15.1639ZM13.7422 13.0545H15.1016V15.1639H13.7422V13.0545ZM17.6328 16.5702H13.2734V15.8671H17.6328V16.5702Z" fill="black"/>
<path d="M14.4922 8.83751C14.4922 7.739 13.5985 6.84528 12.5 6.84528C11.4015 6.84528 10.5078 7.739 10.5078 8.83751C10.5078 9.93603 11.4015 10.8297 12.5 10.8297C13.5985 10.8297 14.4922 9.93603 14.4922 8.83751ZM13.7461 8.50756H12.8516V7.59753C13.2873 7.72128 13.6298 8.06871 13.7461 8.50756ZM12.1484 7.59753V8.50756H11.2539C11.3702 8.06871 11.7127 7.72128 12.1484 7.59753ZM11.2662 9.21068H12.1484V10.0774C11.7271 9.95782 11.393 9.62904 11.2662 9.21068ZM12.8516 10.0774V9.21068H13.7338C13.607 9.62904 13.2729 9.95782 12.8516 10.0774Z" fill="black"/>
</g>
<defs>
<clipPath id="clip0">
<rect width="24" height="24" fill="white" transform="translate(0.5)"/>
</clipPath>
</defs>
</svg>
