<svg width="24" height="24" viewBox="0 0 24 24" fill="none" xmlns="http://www.w3.org/2000/svg">
<g clip-path="url(#clip0)">
<path d="M22.8045 20.6288H1.19545C0.729375 20.6288 0.351562 20.251 0.351562 19.7849V4.83705C0.351562 4.37098 0.729375 3.99316 1.19545 3.99316H22.8045C23.2706 3.99316 23.6484 4.37098 23.6484 4.83705V19.7849C23.6484 20.251 23.2706 20.6288 22.8045 20.6288Z" fill="#678D98"/>
<path d="M22.8047 3.99316H21.3984C21.8645 3.99316 22.2423 4.37098 22.2423 4.83705V19.7849C22.2423 20.251 21.8645 20.6288 21.3984 20.6288H22.8047C23.2708 20.6288 23.6486 20.251 23.6486 19.7849V4.83705C23.6486 4.37098 23.2707 3.99316 22.8047 3.99316Z" fill="#537983"/>
<path d="M9.11117 18.6693H2.98713C2.41066 18.6693 1.94336 18.202 1.94336 17.6255V2.93097C1.94336 2.3545 2.41066 1.88721 2.98713 1.88721H9.11117C10.7067 1.88721 12.0002 3.18063 12.0002 4.77621V15.7803C12.0002 17.3758 10.7067 18.6693 9.11117 18.6693Z" fill="#FFF3EF"/>
<path d="M9.11132 1.88721H7.70508C9.3006 1.88721 10.5941 3.18068 10.5941 4.77621V15.7803C10.5941 17.3758 9.3006 18.6693 7.70508 18.6693H9.11132C10.7068 18.6693 12.0003 17.3758 12.0003 15.7803V4.77621C12.0003 3.18063 10.7068 1.88721 9.11132 1.88721Z" fill="#D9E7EC"/>
<path d="M14.889 18.6693H21.013C21.5895 18.6693 22.0568 18.202 22.0568 17.6255V2.93097C22.0568 2.3545 21.5895 1.88721 21.013 1.88721H14.889C13.2934 1.88721 12 3.18063 12 4.77621V15.7803C12 17.3758 13.2934 18.6693 14.889 18.6693Z" fill="#FFF3EF"/>
<path d="M21.0137 1.88721H19.6074C20.1839 1.88721 20.6512 2.3545 20.6512 2.93097V17.6255C20.6512 18.202 20.1839 18.6693 19.6074 18.6693H21.0137C21.5901 18.6693 22.0574 18.202 22.0574 17.6255V2.93097C22.0574 2.3545 21.5901 1.88721 21.0137 1.88721Z" fill="#D9E7EC"/>
<path d="M18.8985 22.0932L18.1534 21.8344C18.0758 21.8075 17.9914 21.8075 17.9137 21.8344L17.1686 22.0932C16.9313 22.1756 16.6836 21.9994 16.6836 21.7481V19.0347C16.6836 18.833 16.8471 18.6694 17.0488 18.6694H19.0183C19.22 18.6694 19.3836 18.8329 19.3836 19.0347V21.7481C19.3835 21.9993 19.1358 22.1755 18.8985 22.0932Z" fill="#FD6930"/>
<path d="M19.0176 18.6694H17.6113C17.813 18.6694 17.9766 18.8329 17.9766 19.0347V21.7481C17.9766 21.773 17.9735 21.7969 17.9689 21.8201C18.0301 21.8093 18.0933 21.8138 18.1526 21.8344L18.8978 22.0932C19.1351 22.1756 19.3828 21.9994 19.3828 21.7482V19.0347C19.3828 18.8329 19.2193 18.6694 19.0176 18.6694Z" fill="#FD5426"/>
<path d="M17.9999 19.5212C19.14 19.5212 20.0642 18.597 20.0642 17.4569C20.0642 16.3168 19.14 15.3926 17.9999 15.3926C16.8598 15.3926 15.9355 16.3168 15.9355 17.4569C15.9355 18.597 16.8598 19.5212 17.9999 19.5212Z" fill="#4FC123"/>
<path d="M17.9999 19.5212C19.14 19.5212 20.0642 18.597 20.0642 17.4569C20.0642 16.3168 19.14 15.3926 17.9999 15.3926C16.8598 15.3926 15.9355 16.3168 15.9355 17.4569C15.9355 18.597 16.8598 19.5212 17.9999 19.5212Z" fill="#07B27B"/>
<path d="M18.0005 18.3051C18.4689 18.3051 18.8486 17.9254 18.8486 17.457C18.8486 16.9886 18.4689 16.6089 18.0005 16.6089C17.5321 16.6089 17.1523 16.9886 17.1523 17.457C17.1523 17.9254 17.5321 18.3051 18.0005 18.3051Z" fill="#00F2A6"/>
<path d="M8.98628 13.6966C8.98628 12.7224 8.35783 11.8955 7.48445 11.5976V13.8213L6.76853 14.1638L6.08139 13.8213V11.5879C5.19302 11.8772 4.55078 12.7117 4.55078 13.6966C4.55078 14.6208 5.11623 15.4126 5.91995 15.7458V18.6693H7.57862V15.7611C8.40259 15.4374 8.98628 14.6355 8.98628 13.6966Z" fill="#D9E7EC"/>
<path d="M7.48405 11.5972V13.0517C7.54597 13.2556 7.57963 13.4719 7.57963 13.6961C7.57963 14.635 6.99594 15.437 6.17188 15.7606V18.6688H7.57813V15.7606C8.40219 15.437 8.98588 14.635 8.98588 13.6961C8.98588 12.7219 8.35742 11.895 7.48405 11.5972Z" fill="#C5D3DD"/>
<path d="M14.5625 6.16602C14.7567 6.16602 14.9141 6.00862 14.9141 5.81446C14.9141 5.62029 14.7567 5.46289 14.5625 5.46289C14.3683 5.46289 14.2109 5.62029 14.2109 5.81446C14.2109 6.00862 14.3683 6.16602 14.5625 6.16602Z" fill="black"/>
<path d="M14.5625 7.96582C14.7567 7.96582 14.9141 7.80842 14.9141 7.61426C14.9141 7.4201 14.7567 7.2627 14.5625 7.2627C14.3683 7.2627 14.2109 7.4201 14.2109 7.61426C14.2109 7.80842 14.3683 7.96582 14.5625 7.96582Z" fill="black"/>
<path d="M14.5625 9.76465C14.7567 9.76465 14.9141 9.60725 14.9141 9.41309C14.9141 9.21892 14.7567 9.06152 14.5625 9.06152C14.3683 9.06152 14.2109 9.21892 14.2109 9.41309C14.2109 9.60725 14.3683 9.76465 14.5625 9.76465Z" fill="black"/>
<path d="M14.5625 11.4751C14.7567 11.4751 14.9141 11.3177 14.9141 11.1235C14.9141 10.9294 14.7567 10.772 14.5625 10.772C14.3683 10.772 14.2109 10.9294 14.2109 11.1235C14.2109 11.3177 14.3683 11.4751 14.5625 11.4751Z" fill="black"/>
<path d="M22.8045 3.64193H22.4083V2.93097C22.4083 2.16161 21.7823 1.53564 21.013 1.53564H14.889C13.6293 1.53564 12.5359 2.25864 12 3.31108C11.4641 2.25864 10.3707 1.53564 9.111 1.53564H6.36647C6.17231 1.53564 6.01491 1.69305 6.01491 1.88721C6.01491 2.08136 6.17231 2.23877 6.36647 2.23877H9.111C10.5102 2.23877 11.6484 3.37704 11.6484 4.77621V15.7803C11.6484 17.1795 10.5101 18.3177 9.111 18.3177H7.92956V15.9886C8.7922 15.5536 9.33727 14.6783 9.33727 13.6966C9.33727 12.5971 8.63803 11.6198 7.59736 11.2649C7.49002 11.2283 7.37152 11.2458 7.27931 11.3118C7.18706 11.3778 7.13231 11.4842 7.13231 11.5976V13.5998L6.77109 13.7726L6.43233 13.6038V11.5879C6.43233 11.4753 6.37842 11.3696 6.2873 11.3034C6.19617 11.2373 6.07894 11.2188 5.97188 11.2536C4.91123 11.5991 4.19855 12.5808 4.19855 13.6966C4.19855 14.6588 4.72875 15.5266 5.56767 15.9688V18.3177H2.98697C2.60531 18.3177 2.29477 18.0072 2.29477 17.6255V2.93097C2.29477 2.54932 2.60531 2.23877 2.98697 2.23877H4.96017C5.15433 2.23877 5.31173 2.08136 5.31173 1.88721C5.31173 1.69305 5.15433 1.53564 4.96017 1.53564H2.98697C2.21756 1.53564 1.59164 2.16157 1.59164 2.93097V3.64193H1.19541C0.53625 3.64193 0 4.17818 0 4.83738V19.7853C0 20.4445 0.53625 20.9807 1.19545 20.9807H8.8357C9.02986 20.9807 9.18727 20.8233 9.18727 20.6291C9.18727 20.435 9.02986 20.2776 8.8357 20.2776H1.19545C0.923953 20.2776 0.703125 20.0567 0.703125 19.7853V4.83738C0.703125 4.56588 0.923953 4.34505 1.19545 4.34505H1.59169V17.6255C1.59169 18.3949 2.21761 19.0209 2.98702 19.0209H5.91937H7.57805H9.11105C10.3708 19.0209 11.4641 18.2979 12 17.2454C12.536 18.2979 13.6293 19.0209 14.889 19.0209H16.1612C16.2148 19.0838 16.2715 19.1438 16.3312 19.2009V20.2776H10.242C10.0478 20.2776 9.89039 20.435 9.89039 20.6291C9.89039 20.8233 10.0478 20.9807 10.242 20.9807H16.3311V21.748C16.3311 21.9795 16.4438 22.1979 16.6324 22.3321C16.821 22.4663 17.0643 22.5011 17.283 22.4252L18.0281 22.1664C18.0311 22.1654 18.0342 22.1654 18.0371 22.1664L18.7822 22.4252C18.8586 22.4517 18.9379 22.4647 19.0169 22.4647C19.1641 22.4647 19.31 22.4195 19.4328 22.3321C19.6215 22.1979 19.7341 21.9796 19.7341 21.7481V20.9808H22.8045C23.4637 20.9808 24 20.4445 24 19.7853V4.83738C24 4.17818 23.4637 3.64193 22.8045 3.64193ZM6.27089 18.3177V15.7458C6.27089 15.6037 6.1853 15.4755 6.054 15.4211C5.35402 15.1309 4.90177 14.454 4.90177 13.6966C4.90177 13.0609 5.22019 12.4851 5.72925 12.1453V13.8213C5.72925 13.9546 5.80467 14.0764 5.92397 14.1359L6.61111 14.4784C6.70809 14.5268 6.82195 14.5277 6.91969 14.4809L7.63561 14.1384C7.75772 14.08 7.83544 13.9566 7.83544 13.8213V12.1657C8.3272 12.5085 8.63414 13.0757 8.63414 13.6966C8.63414 14.4693 8.16914 15.1512 7.44947 15.4338C7.31489 15.4866 7.22644 15.6165 7.22644 15.761V18.3177H6.27089V18.3177ZM14.889 18.3177C13.4898 18.3177 12.3516 17.1795 12.3516 15.7803V4.77621C12.3516 3.37708 13.4898 2.23877 14.889 2.23877H21.013C21.3947 2.23877 21.7052 2.54927 21.7052 2.93097V17.6256C21.7052 18.0072 21.3947 18.3178 21.013 18.3178H20.2573C20.3597 18.0502 20.4164 17.7602 20.4164 17.4571C20.4164 16.1249 19.3326 15.0412 18.0005 15.0412C16.6683 15.0412 15.5846 16.1249 15.5846 17.4571C15.5846 17.7602 15.6412 18.0502 15.7436 18.3178H14.889V18.3177ZM16.2877 17.457C16.2877 16.5126 17.0561 15.7443 18.0005 15.7443C18.9449 15.7443 19.7132 16.5126 19.7132 17.457C19.7132 18.4015 18.9449 19.1698 18.0005 19.1698C17.0561 19.1698 16.2877 18.4014 16.2877 17.457ZM19.0253 21.7592C19.0196 21.7632 19.0161 21.762 19.0129 21.7609L18.2677 21.5022C18.1162 21.4496 17.9491 21.4496 17.7975 21.5022L17.0524 21.7609C17.0493 21.762 17.0458 21.7632 17.04 21.7592C17.0343 21.7551 17.0343 21.7513 17.0343 21.748V19.6706C17.3304 19.8004 17.6571 19.8729 18.0005 19.8729C18.369 19.8729 18.7183 19.7897 19.0311 19.6415V21.748C19.0311 21.7513 19.0311 21.755 19.0253 21.7592ZM23.2969 19.7853C23.2969 20.0568 23.076 20.2776 22.8045 20.2776H19.7342V19.137C19.7706 19.0994 19.8058 19.0607 19.8397 19.0209H21.013C21.7823 19.0209 22.4083 18.3949 22.4083 17.6255V4.34505H22.8045C23.076 4.34505 23.2969 4.56593 23.2969 4.83738V19.7853Z" fill="black"/>
<path d="M16.0605 6.16602H20.4051C20.5993 6.16602 20.7566 6.00862 20.7566 5.81446C20.7566 5.6203 20.5993 5.46289 20.4051 5.46289H16.0605C15.8663 5.46289 15.709 5.6203 15.709 5.81446C15.709 6.00862 15.8663 6.16602 16.0605 6.16602Z" fill="black"/>
<path d="M9.93834 5.50635H4.04297C3.84881 5.50635 3.69141 5.66375 3.69141 5.85791C3.69141 6.05206 3.84881 6.20947 4.04297 6.20947H9.93834C10.1325 6.20947 10.2899 6.05206 10.2899 5.85791C10.2899 5.66375 10.1325 5.50635 9.93834 5.50635Z" fill="black"/>
<path d="M9.93834 6.96924H4.04297C3.84881 6.96924 3.69141 7.12664 3.69141 7.3208C3.69141 7.51496 3.84881 7.67236 4.04297 7.67236H9.93834C10.1325 7.67236 10.2899 7.51496 10.2899 7.3208C10.2899 7.12664 10.1325 6.96924 9.93834 6.96924Z" fill="black"/>
<path d="M9.93845 8.44043H7.76172C7.56756 8.44043 7.41016 8.59784 7.41016 8.79199C7.41016 8.98615 7.56756 9.14355 7.76172 9.14355H9.93845C10.1326 9.14355 10.29 8.98615 10.29 8.79199C10.29 8.59784 10.1326 8.44043 9.93845 8.44043Z" fill="black"/>
<path d="M16.0605 7.96582H20.4051C20.5993 7.96582 20.7566 7.80841 20.7566 7.61426C20.7566 7.4201 20.5993 7.2627 20.4051 7.2627H16.0605C15.8663 7.2627 15.709 7.4201 15.709 7.61426C15.709 7.80841 15.8663 7.96582 16.0605 7.96582Z" fill="black"/>
<path d="M16.0605 9.76465H20.4051C20.5993 9.76465 20.7566 9.60724 20.7566 9.41309C20.7566 9.21893 20.5993 9.06152 20.4051 9.06152H16.0605C15.8663 9.06152 15.709 9.21893 15.709 9.41309C15.709 9.60724 15.8663 9.76465 16.0605 9.76465Z" fill="black"/>
<path d="M16.0605 11.4751H20.4051C20.5993 11.4751 20.7566 11.3177 20.7566 11.1235C20.7566 10.9294 20.5993 10.772 20.4051 10.772H16.0605C15.8663 10.772 15.709 10.9294 15.709 11.1235C15.709 11.3177 15.8663 11.4751 16.0605 11.4751Z" fill="black"/>
<path d="M19.2001 17.457C19.2001 16.7955 18.662 16.2573 18.0005 16.2573C17.3389 16.2573 16.8008 16.7955 16.8008 17.457C16.8008 18.1185 17.3389 18.6567 18.0005 18.6567C18.662 18.6567 19.2001 18.1185 19.2001 17.457ZM17.5039 17.457C17.5039 17.1832 17.7267 16.9604 18.0005 16.9604C18.2743 16.9604 18.497 17.1832 18.497 17.457C18.497 17.7308 18.2743 17.9535 18.0005 17.9535C17.7267 17.9535 17.5039 17.7308 17.5039 17.457Z" fill="black"/>
</g>
<defs>
<clipPath id="clip0">
<rect width="24" height="24" fill="white"/>
</clipPath>
</defs>
</svg>
