<svg width="24" height="24" viewBox="0 0 24 24" fill="none" xmlns="http://www.w3.org/2000/svg">
<path d="M19.3997 17.0664L15.4395 15.9016H8.56059L4.60033 17.0664C3.64085 17.3486 2.98193 18.2292 2.98193 19.2293V23.6485H21.0181V19.2293C21.0181 18.2292 20.3592 17.3486 19.3997 17.0664Z" fill="#EDEBED"/>
<path d="M13.8787 23.6484H10.1212L9.36963 16.1333H14.6302L13.8787 23.6484Z" fill="#A5CDFF"/>
<path d="M9.54053 17.8426C10.1999 18.4148 11.0584 18.7636 11.9999 18.7636C12.9414 18.7636 13.7999 18.4148 14.4593 17.8426L14.6302 16.1333H9.36963L9.54053 17.8426Z" fill="#8CB4EB"/>
<path d="M11.9999 17.6361C10.5473 17.6361 9.36963 16.4584 9.36963 15.0058V12.3755H14.6302V15.0058C14.6302 16.4584 13.4526 17.6361 11.9999 17.6361Z" fill="#F7D291"/>
<path d="M9.36963 14.341C10.1591 14.7627 11.0542 15.0058 11.9999 15.0058C12.9456 15.0058 13.8407 14.7627 14.6302 14.341V12.3755H9.36963V14.341Z" fill="#F0C382"/>
<path d="M17.4485 7.49092H16.8849V3.7334H7.1153V7.49092H6.55167C6.03287 7.49092 5.6123 7.91148 5.6123 8.43029C5.6123 8.94906 6.03287 9.36966 6.55167 9.36966H7.13428C7.32675 11.8913 9.42917 13.8787 12.0001 13.8787C14.5711 13.8787 16.6735 11.8913 16.8659 9.36966H17.4485C17.9674 9.36966 18.3879 8.94906 18.3879 8.43029C18.3879 7.91153 17.9673 7.49092 17.4485 7.49092Z" fill="#FFE1A0"/>
<path d="M7.11526 3.7334V7.49092H6.58951C6.16168 7.49092 5.76212 7.76205 5.65131 8.17525C5.48373 8.80013 5.95689 9.36971 6.5566 9.36971H7.13429C7.32676 11.8914 9.42918 13.8788 12.0001 13.8788C12.2572 13.8788 12.5078 13.8537 12.754 13.8155C10.4128 13.4541 8.61834 11.4364 8.61834 8.99401V6.6326C8.61834 5.95339 9.21703 5.44461 9.89151 5.52495C10.2417 5.56667 10.6166 5.58968 11.0185 5.58968C12.1402 5.58968 13.3888 5.41165 14.7298 5.06061C15.4735 4.86589 16.0952 4.37582 16.4775 3.73345L7.11526 3.7334Z" fill="#F7D291"/>
<path d="M8.94708 2.2304L8.99405 3.73343C8.99405 3.73343 7.86681 4.86068 7.86681 6.36372V6.82754C7.86681 7.20652 7.58457 7.52626 7.2085 7.57322L6.36377 7.67883V4.48488C6.36377 3.23975 7.53803 2.16777 8.94708 2.2304Z" fill="#A06E50"/>
<path d="M16.5018 18.0047L15.7575 17.2604L16.554 16.1984C16.7262 15.9687 16.6485 15.6392 16.3917 15.5109L14.6302 14.6301L12 23.6483H14.2545L16.6426 18.8721C16.7872 18.5828 16.7306 18.2334 16.5018 18.0047Z" fill="#DBD9DC"/>
<path d="M15.0533 1.10295L15.0063 3.73324C15.0063 3.73324 16.1336 4.86048 16.1336 6.36352V6.82734C16.1336 7.20633 16.4158 7.52606 16.7919 7.57303L17.6366 7.67863V3.35749C17.6366 2.11235 16.4624 1.04033 15.0533 1.10295Z" fill="#CD916E"/>
<path d="M7.49844 18.0047L8.24272 17.2604L7.44622 16.1984C7.274 15.9687 7.35177 15.6392 7.60855 15.5109L9.37001 14.6301L12.0002 23.6483H9.74571L7.35767 18.8721C7.21302 18.5828 7.26974 18.2334 7.49844 18.0047Z" fill="#DBD9DC"/>
<path d="M12.7282 0.351562C9.59322 0.351562 8.99242 1.30457 6.57842 2.07346C6.41253 2.12629 6.33786 2.31843 6.43161 2.4651C6.95544 3.28447 8.90514 5.42022 14.4442 3.96996C15.0929 3.80014 15.5916 3.27715 15.7232 2.61969C15.8755 1.85798 15.4126 1.10353 14.7165 0.758623C14.1637 0.484687 13.4387 0.351562 12.7282 0.351562Z" fill="#B67F5F"/>
<path d="M8.61783 21.3938H4.86035V23.6485H8.61783V21.3938Z" fill="#A5CDFF"/>
<path d="M9.7456 7.51514C9.55145 7.51514 9.39404 7.6725 9.39404 7.8667V8.24249C9.39404 8.43669 9.55145 8.59405 9.7456 8.59405C9.93976 8.59405 10.0972 8.43669 10.0972 8.24249V7.8667C10.0972 7.67254 9.93976 7.51514 9.7456 7.51514Z" fill="black"/>
<path d="M14.2544 7.51514C14.0602 7.51514 13.9028 7.6725 13.9028 7.8667V8.24249C13.9028 8.43669 14.0602 8.59405 14.2544 8.59405C14.4486 8.59405 14.606 8.43669 14.606 8.24249V7.8667C14.606 7.67254 14.4485 7.51514 14.2544 7.51514Z" fill="black"/>
<path d="M13.3739 10.7471C13.5122 10.6108 13.5137 10.3882 13.3773 10.25C13.241 10.1117 13.0184 10.1103 12.8802 10.2466C12.7519 10.3732 12.4443 10.521 11.9998 10.521C11.5553 10.521 11.2478 10.3732 11.1194 10.2466C10.9812 10.1102 10.7586 10.1117 10.6223 10.2499C10.4859 10.3882 10.4874 10.6107 10.6256 10.7471C10.9284 11.0458 11.4421 11.2241 11.9998 11.2241C12.5575 11.2241 13.0712 11.0458 13.3739 10.7471Z" fill="black"/>
<path d="M10.1211 6.38794H9.36963C9.17547 6.38794 9.01807 6.5453 9.01807 6.7395C9.01807 6.9337 9.17547 7.09106 9.36963 7.09106H10.1211C10.3153 7.09106 10.4727 6.9337 10.4727 6.7395C10.4727 6.5453 10.3153 6.38794 10.1211 6.38794Z" fill="black"/>
<path d="M13.8789 7.09106H14.6304C14.8246 7.09106 14.982 6.9337 14.982 6.7395C14.982 6.5453 14.8246 6.38794 14.6304 6.38794H13.8789C13.6847 6.38794 13.5273 6.5453 13.5273 6.7395C13.5273 6.9337 13.6847 7.09106 13.8789 7.09106Z" fill="black"/>
<path d="M19.5295 16.7455L16.9955 15.9664C16.9996 15.8899 16.994 15.8124 16.976 15.7359C16.9205 15.5011 16.7649 15.3044 16.549 15.1965L14.9819 14.4129V13.2955C16.1544 12.4801 16.9796 11.1983 17.1859 9.72121H17.3949C18.08 9.72121 18.6678 9.2121 18.7328 8.56209C18.7693 8.19783 18.6501 7.83417 18.4059 7.56432C18.2877 7.43368 18.1449 7.33032 17.9879 7.25808V3.35759C17.9879 1.9206 16.8189 0.751496 15.3818 0.751496C15.38 0.751496 15.3555 0.751496 15.3224 0.751543C14.6895 0.28467 13.7596 0 12.7281 0C10.532 0 9.52316 0.457497 8.35504 0.987229C7.731 1.27021 7.08577 1.5628 6.17115 1.83027C6.07515 1.85835 5.9956 1.92599 5.95252 2.01632C5.90945 2.1066 5.90687 2.21099 5.94545 2.30328C5.95613 2.32888 6.11321 2.69352 6.51844 3.13648C6.34346 3.35187 6.01224 3.9027 6.01224 4.98583V7.27374C5.60771 7.46663 5.31245 7.8487 5.2674 8.29828C5.23089 8.66254 5.35 9.02625 5.59421 9.2962C5.83857 9.56629 6.18755 9.72116 6.55168 9.72116H6.81408C7.02024 11.1987 7.84547 12.4807 9.01822 13.296V14.4129L7.45106 15.1964C7.2352 15.3044 7.07958 15.5011 7.02413 15.7359C7.00608 15.8124 7.0005 15.8898 7.00458 15.9664L4.47058 16.7454C3.36991 17.0839 2.63037 18.0849 2.63037 19.2365V23.6483C2.63037 23.8425 2.78778 23.9999 2.98193 23.9999C3.17609 23.9999 3.33349 23.8425 3.33349 23.6483V19.2365C3.33349 18.3957 3.87349 17.6647 4.67725 17.4176L7.31306 16.6072L7.77829 17.2275L7.24974 17.7561C6.91346 18.0924 6.83039 18.6041 7.04306 19.0295L8.04946 21.0422H7.09111V20.6423C7.09111 20.4481 6.93371 20.2907 6.73955 20.2907C6.5454 20.2907 6.38799 20.4481 6.38799 20.6423V21.0422H4.86076C4.66661 21.0422 4.5092 21.1996 4.5092 21.3938V23.6483C4.5092 23.8425 4.66661 23.9999 4.86076 23.9999H8.61834C8.81249 23.9999 8.9699 23.8425 8.9699 23.6483V22.883L9.43114 23.8056C9.49274 23.9288 9.61686 24 9.74586 24C9.79869 24 9.85231 23.988 9.9028 23.9627C10.0765 23.8759 10.1469 23.6648 10.06 23.491L7.67198 18.7149C7.59487 18.5607 7.62501 18.3752 7.74693 18.2533L8.49117 17.509C8.61487 17.3853 8.62879 17.1894 8.52384 17.0495L7.72734 15.9875C7.70086 15.9522 7.70419 15.9159 7.70854 15.8975C7.7129 15.879 7.72612 15.8451 7.76564 15.8253L9.15032 15.1329L10.1278 18.4844C10.1822 18.6709 10.3773 18.7778 10.5638 18.7235C10.7502 18.6692 10.8572 18.474 10.8028 18.2876L10.6488 17.7593C11.081 17.9096 11.5381 17.9878 12.0002 17.9878C12.4624 17.9878 12.9193 17.9098 13.3515 17.7596L12.0001 22.3927L11.2414 19.7914C11.187 19.6049 10.9919 19.4979 10.8055 19.5523C10.619 19.6067 10.512 19.8019 10.5664 19.9882L11.6626 23.7466C11.7064 23.8966 11.8439 23.9998 12.0001 23.9998C12.1563 23.9998 12.2939 23.8966 12.3376 23.7466L14.85 15.1329L16.2346 15.8253C16.2742 15.8451 16.2873 15.879 16.2917 15.8974C16.2961 15.9159 16.2994 15.9522 16.2729 15.9875L15.4764 17.0495C15.3715 17.1894 15.3854 17.3853 15.5091 17.509L16.2533 18.2533C16.3753 18.3752 16.4054 18.5608 16.3283 18.7149L13.9402 23.4911C13.8533 23.6648 13.9237 23.8759 14.0974 23.9628C14.1479 23.988 14.2015 24 14.2544 24C14.3833 24 14.5075 23.9288 14.5691 23.8056L16.9571 19.0295C17.1698 18.6042 17.0868 18.0925 16.7505 17.7562L16.2219 17.2275L16.6871 16.6072L19.3229 17.4177C20.1266 17.6647 20.6666 18.3957 20.6666 19.2366V23.6483C20.6666 23.8425 20.824 23.9999 21.0182 23.9999C21.2124 23.9999 21.3698 23.8425 21.3698 23.6483V19.2365C21.3697 18.0849 20.6302 17.0839 19.5295 16.7455ZM8.26673 23.2967H5.21228V21.7453H6.38794V21.7695C6.38794 21.9637 6.54535 22.1211 6.7395 22.1211C6.93366 22.1211 7.09106 21.9637 7.09106 21.7695V21.7453H8.26673V23.2967ZM8.64543 1.62758C9.78444 1.11107 10.6841 0.703121 12.7281 0.703121C14.0251 0.703121 15.1841 1.24593 15.4241 1.96579C15.4855 2.15 15.6845 2.24942 15.8688 2.18811C16.0529 2.12671 16.1525 1.92758 16.0911 1.74341C16.0709 1.68276 16.0468 1.62327 16.0194 1.56487C16.756 1.82765 17.2848 2.53189 17.2848 3.35759V7.13935H16.8849C16.6643 7.13935 16.4849 6.95996 16.4849 6.73941V6.36362C16.4849 4.73374 15.3049 3.53501 15.2547 3.48476C15.162 3.39204 15.0254 3.35881 14.9002 3.39809C12.9486 4.0144 10.1969 4.53382 8.1711 3.50881C7.45022 3.14403 7.02455 2.68048 6.80068 2.37097C7.54697 2.12572 8.12549 1.86336 8.64543 1.62758ZM14.2788 14.58L13.6074 16.8821C13.1154 17.1457 12.5627 17.2847 12.0002 17.2847C11.438 17.2847 10.8847 17.1459 10.393 16.8825L9.72139 14.58V13.7078C10.4107 14.0424 11.1838 14.2303 12.0001 14.2303C12.8163 14.2303 13.5894 14.0423 14.2788 13.7075V14.58ZM12.0001 13.5272C9.50047 13.5272 7.46691 11.4935 7.46691 8.9939C7.46691 8.7997 7.3095 8.64234 7.11535 8.64234C6.92119 8.64234 6.76378 8.7997 6.76378 8.9939V9.01809H6.55172C6.38593 9.01809 6.22698 8.94749 6.11565 8.82445C6.00287 8.69981 5.95009 8.53786 5.96705 8.3684C5.99663 8.07347 6.27704 7.84242 6.60544 7.84242H7.11535C7.72359 7.84242 8.2184 7.34757 8.2184 6.73937V5.41244C8.2184 5.21824 8.061 5.06088 7.86684 5.06088C7.67269 5.06088 7.51528 5.21824 7.51528 5.41244V6.73937C7.51528 6.95991 7.33584 7.1393 7.11535 7.1393H6.71541V4.98583C6.71541 4.16782 6.93525 3.76104 7.03678 3.61681C7.25156 3.78621 7.50347 3.95402 7.79831 4.10768C8.59504 4.52294 9.54332 4.75291 10.6167 4.79116C11.8749 4.83639 13.3129 4.61571 14.8936 4.13618C15.1726 4.47405 15.7819 5.33031 15.7819 6.36357V6.73937C15.7819 7.34761 16.2768 7.84242 16.885 7.84242H17.4486C17.6144 7.84242 17.7733 7.91302 17.8847 8.03606C17.9975 8.1607 18.0502 8.32261 18.0333 8.49206C18.0037 8.78704 17.7234 9.01809 17.395 9.01809H17.2363V8.99756C17.2363 8.80345 17.079 8.64609 16.8849 8.646C16.8849 8.646 16.8848 8.646 16.8848 8.646C16.6907 8.646 16.5334 8.80321 16.5332 8.99728C16.5313 11.495 14.4978 13.5272 12.0001 13.5272Z" fill="black"/>
<path d="M19.139 21.2299H18.5512V20.6421C18.5512 20.4479 18.3939 20.2905 18.1997 20.2905C18.0055 20.2905 17.8481 20.4479 17.8481 20.6421V21.2299H17.2603C17.066 21.2299 16.9087 21.3873 16.9087 21.5815C16.9087 21.7757 17.066 21.933 17.2603 21.933H17.8481V22.5208C17.8481 22.715 18.0055 22.8724 18.1997 22.8724C18.3939 22.8724 18.5512 22.715 18.5512 22.5208V21.933H19.139C19.3332 21.933 19.4906 21.7757 19.4906 21.5815C19.4906 21.3873 19.3332 21.2299 19.139 21.2299Z" fill="black"/>
</svg>
