<svg width="24" height="24" viewBox="0 0 24 24" fill="none" xmlns="http://www.w3.org/2000/svg">
<g clip-path="url(#clip0)">
<path d="M21.334 5.03063L15.4636 0.875369C14.3694 0.535012 13.206 0.351685 11.9998 0.351685C10.7432 0.351685 9.53309 0.550668 8.39924 0.918822L2.57538 5.15278C1.66236 6.8233 0.80127 8.27933 0.80127 10.4358C0.80127 17.3007 6.36633 22.8657 13.2311 22.8657C16.7888 22.8657 19.283 21.1111 21.4242 18.8472L23.6482 12C23.6481 9.38655 22.7874 6.97405 21.334 5.03063Z" fill="#F5FCFF"/>
<path d="M12.8895 22.524C6.40225 22.524 1.14332 17.265 1.14332 10.7778C1.14332 8.73987 1.66255 6.82335 2.57558 5.15283C1.17679 7.07484 0.351562 9.44112 0.351562 12.0001L2.66572 18.9695C4.11912 20.913 6.16525 22.3874 8.53612 23.1248L15.6005 23.0813C17.9624 22.3144 19.9935 20.8133 21.4244 18.8473C19.2832 21.1112 16.2514 22.524 12.8895 22.524Z" fill="#D6E0F4"/>
<path d="M21.0466 14.9393C22.8979 13.4743 23.6483 12.0001 23.6483 12.0001C23.6483 14.5591 22.8225 16.9248 21.4237 18.8468C21.4239 18.8458 21.6833 17.2123 21.0466 14.9393ZM10.6185 22.3037C11.2839 22.7488 13.2314 22.8658 13.7855 22.4897C13.257 22.2585 12.6467 21.9424 12 21.512C11.5124 21.8366 11.0454 22.0963 10.6185 22.3037ZM2.57628 5.15332C2.57717 5.15285 4.05059 4.4014 6.40904 4.30447C7.23029 2.09104 8.40042 0.921753 8.40042 0.921753C5.96669 1.71253 3.97193 3.22902 2.57628 5.15332ZM1.47168 13.5433C1.47168 14.8615 2.11574 16.0044 2.6277 16.4959C2.693 16.0263 2.79561 15.5025 2.95334 14.9393C2.34421 14.4573 1.85493 13.9745 1.47168 13.5433ZM15.5996 0.921753C15.5996 0.921753 16.7697 2.091 17.591 4.30447C19.9495 4.4014 21.4228 5.15285 21.4237 5.15332C20.0281 3.22902 18.0333 1.71253 15.5996 0.921753ZM15.9119 17.3843C14.761 17.6587 13.4619 17.8243 12 17.8243C10.538 17.8243 9.23892 17.6587 8.08809 17.3843C9.29184 19.3553 10.7164 20.6578 12 21.5121C13.2835 20.6578 14.7081 19.3553 15.9119 17.3843ZM15.9119 17.3843C18.1585 16.8485 19.8375 15.8961 21.0466 14.9393C20.6308 13.4546 19.8325 11.6971 18.3299 9.94336C18.2353 11.1226 17.9908 12.4096 17.5391 13.7999C17.0874 15.1902 16.5285 16.3746 15.9119 17.3843ZM5.67001 9.94331C4.16749 11.6971 3.36917 13.4546 2.95334 14.9393C4.16243 15.8961 5.84148 16.8485 8.08809 17.3842C7.47146 16.3746 6.91262 15.1902 6.46084 13.7998C6.00915 12.4095 5.76465 11.1226 5.67001 9.94331ZM8.57662 7.28818C9.75927 6.42892 10.9077 5.79869 12 5.34434C9.8676 4.45728 7.94939 4.24114 6.40881 4.30447C5.87251 5.75004 5.48528 7.6412 5.67001 9.94331C6.4397 9.04491 7.39397 8.14745 8.57662 7.28818ZM18.33 9.94331C18.5147 7.6412 18.1275 5.75004 17.5912 4.30447C16.0507 4.24114 14.1324 4.45723 12 5.34434C13.0923 5.79874 14.2407 6.42892 15.4234 7.28818C16.606 8.14745 17.5603 9.04491 18.33 9.94331Z" fill="#8A94DB"/>
<path d="M12.8895 22.5238C13.191 22.5238 13.4897 22.512 13.7855 22.4897C14.8633 22.9612 15.5994 23.078 15.5994 23.078C13.1657 23.8689 10.6605 23.8146 8.40033 23.0783C8.40108 23.0782 9.32493 22.9321 10.6185 22.3037C11.3533 22.4476 12.1124 22.5238 12.8895 22.5238ZM0.351562 12C0.351562 14.559 1.1774 16.9247 2.57619 18.8467C2.57605 18.846 2.42943 17.9213 2.62761 16.4958C2.11626 15.5801 1.72401 14.5891 1.47159 13.5433C0.690139 12.664 0.351562 12 0.351562 12Z" fill="#717ED4"/>
<path d="M12 23.9999C8.79467 23.9999 5.78124 22.7517 3.5147 20.4853C1.25004 18.2206 0.00205077 15.2101 3.5156e-05 12.0077C-1.17187e-05 12.0028 -1.17187e-05 11.9978 3.5156e-05 11.9929C0.00186327 8.79026 1.2499 5.77963 3.5147 3.51479C5.78119 1.2483 8.79467 0.00012207 12 0.00012207C12.3499 0.00012207 12.7031 0.0153564 13.0497 0.0454031C13.2431 0.0621842 13.3863 0.232621 13.3696 0.426026C13.3528 0.619431 13.1822 0.76268 12.9889 0.745899C12.6624 0.717587 12.3297 0.703196 12 0.703196C10.8292 0.703196 9.68567 0.880054 8.59977 1.22121C8.23185 1.61111 7.50871 2.57987 6.9307 3.94247C8.13421 3.94449 9.34831 4.11896 10.5483 4.46278C11.0347 4.6021 11.5188 4.76948 12 4.96444C12.4811 4.76948 12.9653 4.60214 13.4516 4.46278C14.6512 4.11905 15.8652 3.94463 17.0682 3.94247C16.4081 2.38516 15.6104 1.45319 15.4023 1.2251C15.0567 1.11574 14.7054 1.02302 14.3494 0.947742C14.1594 0.90757 14.038 0.721008 14.0782 0.531025C14.1184 0.341042 14.3049 0.21973 14.4949 0.259808C17.1452 0.820336 19.5561 2.28925 21.2836 4.39599C23.0338 6.53024 23.9983 9.22797 23.9999 11.9929C24 11.9978 24 12.0027 23.9999 12.0076C23.998 15.21 22.7499 18.2205 20.4853 20.4852C18.2187 22.7518 15.2053 23.9999 12 23.9999ZM9.72092 23.0683C10.4628 23.2194 11.2255 23.2969 12 23.2969C12.7746 23.2969 13.5375 23.2194 14.2795 23.0682C13.7107 22.8605 12.9894 22.5407 12.1982 22.0561C12.1331 22.0163 12.067 21.9749 12.0001 21.9321C11.1318 22.487 10.3369 22.8434 9.72092 23.0683ZM2.91274 18.7151C3.24438 19.1619 3.61122 19.5873 4.01195 19.9881C5.27063 21.2467 6.774 22.1718 8.4148 22.7189C8.94162 22.6198 10.0969 22.261 11.3661 21.4977C10.2487 20.68 8.97673 19.4649 7.8674 17.6927C7.3626 17.5674 6.8715 17.418 6.39534 17.2445C5.22249 16.8174 4.13757 16.2447 3.16281 15.539C2.83085 16.9752 2.845 18.1801 2.91274 18.7151ZM12.6346 21.4986C14.0913 22.3767 15.2947 22.659 15.5871 22.7183C17.2271 22.1711 18.7299 21.2462 19.9881 19.9881C20.3888 19.5873 20.7556 19.1619 21.0873 18.7151C21.155 18.1802 21.1692 16.9758 20.8374 15.5398C20.4574 15.8144 20.0383 16.0851 19.5776 16.3429C19.4081 16.4376 19.1939 16.3771 19.0991 16.2077C19.0044 16.0382 19.0649 15.824 19.2343 15.7292C19.7594 15.4355 20.2276 15.1229 20.6424 14.8078C20.2857 13.6256 19.7405 12.4883 19.0199 11.4238C18.8825 11.2208 18.7387 11.0205 18.5884 10.8227C18.451 11.8349 18.2125 12.8654 17.8736 13.9085C17.5353 14.9496 17.122 15.9243 16.6377 16.8251C17.12 16.6797 17.5878 16.5101 18.0402 16.3163C18.2186 16.2399 18.4254 16.3226 18.5018 16.5011C18.5782 16.6796 18.4955 16.8862 18.317 16.9627C17.6224 17.2601 16.8943 17.5035 16.1354 17.692C15.8608 18.1325 15.5674 18.5525 15.2559 18.9511C14.4871 19.9346 13.6072 20.7895 12.6346 21.4986ZM8.84872 17.9025C9.88207 19.3853 11.0191 20.4028 12.0005 21.087C13.0144 20.3824 13.9276 19.5124 14.7173 18.4982C14.8679 18.3047 15.0141 18.106 15.1558 17.9018C14.15 18.0841 13.096 18.1757 12 18.1757C10.9068 18.1757 9.85371 18.0842 8.84872 17.9025ZM21.4464 15.0708C21.7058 16.0687 21.799 16.9351 21.8223 17.5904C22.58 16.2641 23.0587 14.7956 23.228 13.2586C22.8239 13.775 22.2405 14.4191 21.4464 15.0708ZM0.771734 13.256C0.940764 14.794 1.41954 16.2633 2.17765 17.5904C2.20099 16.9347 2.29422 16.0679 2.55396 15.0692C1.75962 14.4162 1.17584 13.7719 0.771734 13.256ZM8.31453 17.0763C9.47295 17.3397 10.7064 17.4727 12 17.4727C13.2959 17.4727 14.529 17.3396 15.6877 17.0758C16.2968 16.0549 16.8048 14.9223 17.2048 13.6912C17.6056 12.4577 17.86 11.2445 17.967 10.0615C17.1843 9.16666 16.264 8.33346 15.2167 7.57255C14.1695 6.81172 13.0928 6.19396 12 5.72606C10.9072 6.19396 9.83046 6.81172 8.78328 7.57255C7.7361 8.33337 6.81581 9.16657 6.03314 10.0613C6.14044 11.2451 6.39525 12.4601 6.79523 13.6912C6.85523 13.8758 6.75417 14.0741 6.56953 14.1341C6.38494 14.1942 6.18656 14.0931 6.12656 13.9084C5.78822 12.8671 5.54963 11.8358 5.412 10.8222C5.26163 11.0201 5.11768 11.2207 4.98019 11.4237C4.25949 12.4883 3.71429 13.6258 3.35753 14.8081C4.34106 15.555 5.45077 16.1547 6.65957 16.5924C6.89034 16.6759 7.12504 16.7536 7.36316 16.8254C7.11379 16.363 6.87642 15.868 6.65512 15.338C6.58031 15.1589 6.66487 14.953 6.84407 14.8782C7.02332 14.8033 7.22915 14.888 7.30396 15.0671C7.61249 15.8062 7.9536 16.4738 8.31453 17.0763ZM0.703484 11.9129C0.964951 12.3872 1.66085 13.3673 2.77033 14.3313C3.14416 13.1874 3.68528 12.0864 4.38306 11.0515C4.66585 10.6321 4.97462 10.2233 5.30869 9.82591C5.27199 9.30808 5.26243 8.79584 5.28019 8.29034C5.32402 7.04267 5.53336 5.83392 5.90339 4.68863C4.21187 4.83413 3.08308 5.30662 2.80366 5.4344C1.45578 7.31394 0.721203 9.5568 0.703484 11.9129ZM18.6914 9.82614C19.0254 10.2234 19.3341 10.6322 19.6169 11.0515C20.3146 12.0864 20.8557 13.1872 21.2295 14.331C22.5044 13.2254 23.1406 12.1858 23.2964 11.9109C23.2779 9.58511 22.5364 7.3138 21.1911 5.43103C20.7014 5.20111 19.5619 4.81683 18.0969 4.68895C18.1867 4.96734 18.2703 5.25975 18.3455 5.56603C18.3918 5.75456 18.2765 5.94496 18.088 5.99132C17.8994 6.03763 17.709 5.92232 17.6627 5.73374C17.5681 5.34881 17.459 4.98689 17.3407 4.64822C16.1059 4.62192 14.8562 4.78922 13.6211 5.14561C13.3855 5.21362 13.1503 5.28858 12.9156 5.37042C13.837 5.81451 14.7442 6.36018 15.6299 7.00367C16.5156 7.64717 17.315 8.34148 18.022 9.08041C18.0364 8.4056 18.0012 7.74195 17.9164 7.091C17.8913 6.89849 18.027 6.72205 18.2196 6.69697C18.4121 6.67175 18.5886 6.8076 18.6136 7.00016C18.7337 7.92059 18.7594 8.86418 18.6914 9.82614ZM6.65864 4.64827C6.25228 5.81446 6.02484 7.05514 5.98209 8.34007C5.97394 8.58518 5.97253 8.83207 5.97788 9.08051C6.68493 8.34148 7.48424 7.64726 8.36999 7.00372C9.25573 6.36018 10.1629 5.81456 11.0843 5.37047C10.8416 5.28581 10.5984 5.20856 10.3547 5.13876C9.12725 4.78706 7.88507 4.62234 6.65864 4.64827ZM7.34071 1.70219C6.11677 2.25662 4.99051 3.03343 4.01195 4.01199C3.89031 4.13363 3.77186 4.25743 3.6565 4.38356C4.28645 4.20394 5.13666 4.0261 6.16205 3.96479C6.53925 3.00325 6.97392 2.24645 7.34071 1.70219ZM17.8388 3.96483C18.8634 4.02615 19.7131 4.20385 20.3428 4.38333C19.307 3.25051 18.0513 2.34133 16.6664 1.711C17.0324 2.2548 17.4645 3.0085 17.8388 3.96483Z" fill="black"/>
</g>
<defs>
<clipPath id="clip0">
<rect width="24" height="24" fill="white"/>
</clipPath>
</defs>
</svg>
