<svg width="24" height="24" viewBox="0 0 24 24" fill="none" xmlns="http://www.w3.org/2000/svg">
<g clip-path="url(#clip0)">
<path d="M21.4157 1.02969V22.9701C21.4157 23.3452 21.1118 23.6486 20.7372 23.6486H3.26297C2.88837 23.6486 2.58447 23.3452 2.58447 22.9701V1.02969C2.58447 0.655092 2.88837 0.351196 3.26297 0.351196H20.7372C21.1118 0.351196 21.4157 0.655092 21.4157 1.02969Z" fill="#E8AD8C"/>
<path d="M5.75898 23.2526C5.38424 23.2526 5.08049 22.9489 5.08049 22.5741C5.08049 22.3888 5.23267 22.2413 5.41796 22.2439C5.42475 22.244 5.43154 22.2441 5.43837 22.2441H18.5618C19.3621 22.2441 20.0109 21.5953 20.0109 20.7949V3.20505C20.0109 2.40471 19.3621 1.7559 18.5618 1.7559H5.43837C5.43715 1.7559 5.43589 1.7559 5.43467 1.7559C5.24025 1.75637 5.08053 1.60358 5.08053 1.40916V0.633739C5.08053 0.532784 5.1032 0.437308 5.14277 0.351196H3.26297C2.88823 0.351196 2.58447 0.654951 2.58447 1.02969V22.9701C2.58447 23.3448 2.88823 23.6486 3.26297 23.6486H20.7372C21.0109 23.6486 21.2463 23.4862 21.3535 23.2526H5.75898Z" fill="#E19974"/>
<path d="M4.69141 20.7948V3.20502C4.69141 2.79258 5.02574 2.45825 5.43817 2.45825H18.5616C18.974 2.45825 19.3083 2.79258 19.3083 3.20502V20.7948C19.3083 21.2073 18.974 21.5416 18.5616 21.5416H5.43817C5.02574 21.5416 4.69141 21.2073 4.69141 20.7948Z" fill="#BC7C63"/>
<path d="M17.4704 3.86304H6.52937C6.29014 3.86304 6.09619 4.05699 6.09619 4.29622V19.7035C6.09619 19.9427 6.29014 20.1367 6.52937 20.1367H7.87274L9.1815 19.6642H15.9047L16.1739 20.1367H17.4704C17.7097 20.1367 17.9036 19.9427 17.9036 19.7035V4.29622C17.9036 4.05699 17.7097 3.86304 17.4704 3.86304Z" fill="#FEE97D"/>
<path d="M15.0348 8.36995C15.0348 6.79148 13.6737 5.51184 11.9947 5.51184H11.7779C10.0989 5.51184 8.73779 6.79148 8.73779 8.36995V17.6222H15.0348V8.36995Z" fill="#A79BA7"/>
<path d="M13.7705 16.1377L13.0642 15.7146V10.7165V10.304H10.4907V13.8494C10.4907 13.9997 10.4018 14.1359 10.2642 14.1964L9.87728 14.3665C9.54951 14.5102 9.2531 14.7027 8.99463 14.9331V14.9335L8.99505 14.9338L10.2335 16.9851L13.7705 16.1377Z" fill="#FFE5C2"/>
<path d="M11.3825 10.3038H10.4907V13.8492C10.4907 13.9996 10.4018 14.1358 10.2642 14.1963L9.87728 14.3664C9.54951 14.5101 9.2531 14.7026 8.99463 14.933V14.9334L8.99505 14.9337L9.72042 16.1351C9.86413 15.9343 10.0295 15.7486 10.2152 15.5829C10.4737 15.3525 10.7701 15.1601 11.0979 15.0163L11.4848 14.8462C11.6225 14.7857 11.7113 14.6495 11.7113 14.4992V14.148C11.7113 13.8835 11.8688 13.643 12.113 13.5414C12.4688 13.3934 12.7909 13.1801 13.0642 12.9163V10.9538V10.7164V10.3039H11.3825V10.3038Z" fill="#FED2A4"/>
<path d="M13.0641 8.60645V10.7164C13.0641 11.8884 12.114 12.839 10.9419 12.839C10.3561 12.839 9.82514 12.6016 9.44118 12.2171C9.05721 11.8332 8.81934 11.3026 8.81934 10.7164V8.60645C8.81934 8.53059 8.86522 8.46223 8.93499 8.4332C9.26745 8.29506 9.58259 8.1204 9.87431 7.91391C10.166 7.70694 10.4353 7.46766 10.676 7.19982L10.7762 7.08791C10.8647 6.98958 11.0192 6.98958 11.1077 7.08791L11.2079 7.19982C11.6893 7.7355 12.2839 8.15693 12.9489 8.4332C12.984 8.44771 13.0125 8.47206 13.0327 8.5025C13.0528 8.53247 13.0641 8.56852 13.0641 8.60645Z" fill="#FFE5C2"/>
<path d="M9.70944 8.94259C10.0462 8.71835 10.357 8.45908 10.6349 8.16885L10.7506 8.04758C10.8528 7.941 11.0312 7.941 11.1333 8.04758L11.249 8.16885C11.7572 8.69966 12.3751 9.12657 13.0641 9.4247V8.93262C13.0641 8.89469 13.0528 8.85864 13.0327 8.82867C13.0125 8.79823 12.984 8.77388 12.9489 8.75937C12.2839 8.4831 11.6893 8.06167 11.2079 7.52599L11.1077 7.41408C11.0192 7.31575 10.8647 7.31575 10.7762 7.41408L10.676 7.52599C10.4353 7.79383 10.166 8.03311 9.87431 8.24008C9.58259 8.44657 9.26745 8.62123 8.93499 8.75937C8.86522 8.7884 8.81934 8.85676 8.81934 8.93262V9.42494C9.13189 9.28966 9.43008 9.12821 9.70944 8.94259Z" fill="#FED2A4"/>
<path d="M16.1742 17.4367V20.1367H7.87305V17.4367C7.87305 16.4642 8.29307 15.559 8.99498 14.933V14.9335L9.29372 15.1011C10.4555 15.7515 11.7923 15.9561 13.0646 15.7145C13.6353 15.6059 14.193 15.4073 14.7165 15.1189L14.9746 14.9763C15.021 14.9507 15.0792 14.9571 15.1178 14.9933C15.2532 15.1205 15.3772 15.2584 15.4892 15.4054C15.9251 15.9777 16.1742 16.6871 16.1742 17.4367Z" fill="#918291"/>
<path d="M9.09363 18.0867C9.09363 17.1141 9.51366 16.209 10.2156 15.5829C10.2352 15.5654 10.2555 15.5486 10.2755 15.5315C9.93864 15.4206 9.60955 15.2779 9.29372 15.1011L8.99497 14.9335V14.933C8.29307 15.559 7.87305 16.4642 7.87305 17.4367V20.1367H9.09363V18.0867Z" fill="#7A6D79"/>
<path d="M11.8694 19.6642V20.1367H9.18164V19.6642C9.18164 19.2357 9.52908 18.8883 9.958 18.8883H11.0935C11.522 18.8883 11.8694 19.2357 11.8694 19.6642Z" fill="#B5ADB6"/>
<path d="M20.7373 0H19.8544C19.6605 0 19.5032 0.157239 19.5032 0.351189C19.5032 0.545138 19.6605 0.702377 19.8544 0.702377H20.7373C20.9178 0.702377 21.0646 0.849221 21.0646 1.02969V22.9703C21.0646 23.1507 20.9178 23.2976 20.7373 23.2976H3.26308C3.08262 23.2976 2.93578 23.1508 2.93578 22.9703V1.02969C2.93578 0.849221 3.08262 0.702377 3.26308 0.702377H18.3577C18.5517 0.702377 18.7089 0.545138 18.7089 0.351189C18.7089 0.157239 18.5517 0 18.3577 0H3.26308C2.69533 0 2.2334 0.46193 2.2334 1.02969V22.9703C2.2334 23.538 2.69533 24 3.26308 24H20.7373C21.305 24 21.767 23.5381 21.767 22.9703V1.02969C21.767 0.46193 21.305 0 20.7373 0V0Z" fill="black"/>
<path d="M5.43829 2.10718C4.83289 2.10718 4.34033 2.59973 4.34033 3.20513V20.795C4.34033 21.4004 4.83289 21.8929 5.43829 21.8929H18.5617C19.1671 21.8929 19.6597 21.4004 19.6597 20.795V3.20513C19.6597 2.59973 19.1671 2.10718 18.5617 2.10718H5.43829ZM18.9573 3.20513V20.795C18.9573 21.0131 18.7798 21.1905 18.5617 21.1905H5.43829C5.22018 21.1905 5.04271 21.0131 5.04271 20.795V3.20513C5.04271 2.98702 5.22018 2.80956 5.43829 2.80956H18.5617C18.7798 2.80956 18.9573 2.98702 18.9573 3.20513Z" fill="black"/>
<path d="M17.9039 3.51184H6.09645C5.9025 3.51184 5.74526 3.66908 5.74526 3.86303V5.51188C5.74526 5.70583 5.9025 5.86307 6.09645 5.86307C6.2904 5.86307 6.44763 5.70583 6.44763 5.51188V4.21422H17.5527V19.7857H16.5255V19.0614C16.5255 18.8674 16.3682 18.7102 16.1743 18.7102C15.9803 18.7102 15.8231 18.8674 15.8231 19.0614V19.7857H12.2209V19.6644C12.2209 19.0428 11.7152 18.5371 11.0935 18.5371H9.95807C9.33647 18.5371 8.83071 19.0428 8.83071 19.6644V19.7857H8.22395V17.4366C8.22395 16.6517 8.53009 15.9155 9.05093 15.3676L9.12205 15.4074C9.99984 15.8991 10.9955 16.1606 12.0016 16.164H12.0209C13.0204 16.164 14.0107 15.9091 14.886 15.4264L14.9942 15.3667C15.0702 15.4464 15.1426 15.5298 15.2097 15.618C15.6052 16.1378 15.8231 16.7836 15.8231 17.4366V17.5647C15.8231 17.7587 15.9803 17.9159 16.1742 17.9159C16.3682 17.9159 16.5254 17.7587 16.5254 17.5647V17.4366C16.5254 16.6309 16.2567 15.834 15.7686 15.1926C15.573 14.9355 15.3453 14.7067 15.0911 14.5095V8.37C15.0911 6.60038 13.6514 5.16069 11.8818 5.16069H11.678C9.90834 5.16069 8.46866 6.60038 8.46866 8.37V14.9634C7.87079 15.6304 7.52148 16.5056 7.52148 17.4366V19.7857H6.44749V7.00851C6.44749 6.81456 6.29026 6.65732 6.09631 6.65732C5.90236 6.65732 5.74512 6.81456 5.74512 7.00851V20.1369C5.74512 20.3308 5.90236 20.4881 6.09631 20.4881H17.9037C18.0977 20.4881 18.2549 20.3308 18.2549 20.1369V3.86303C18.2551 3.66908 18.0978 3.51184 17.9039 3.51184ZM9.17113 12.4407C9.43873 12.7157 9.7695 12.9286 10.1398 13.056V13.8674L9.73617 14.0448C9.53683 14.1323 9.34827 14.2365 9.17113 14.3547V12.4407ZM9.17113 8.7144C9.84002 8.41902 10.4489 7.97816 10.9374 7.43457L10.9423 7.42914L10.9472 7.43457C11.4358 7.97821 12.0446 8.41907 12.7135 8.71444V10.7165C12.7135 11.6932 11.9189 12.4877 10.9423 12.4877C9.96566 12.4877 9.17113 11.6932 9.17113 10.7165V8.7144ZM9.63985 14.8878C9.76014 14.813 9.88652 14.7459 10.0188 14.6878L10.6323 14.4182C10.7599 14.3622 10.8422 14.236 10.8422 14.0967V13.1879C10.8755 13.1892 10.9088 13.1901 10.9424 13.1901C11.6363 13.1901 12.2639 12.9025 12.7135 12.4407V15.419C11.6736 15.5595 10.6048 15.3824 9.63985 14.8878ZM11.6781 5.86307H11.8819C13.2642 5.86307 14.3888 6.98767 14.3888 8.37V14.895C14.0739 15.0552 13.748 15.1813 13.4159 15.274V10.7165V8.60656C13.4159 8.38826 13.2857 8.193 13.0841 8.10909C12.4715 7.85417 11.9132 7.45859 11.4696 6.96501L11.3692 6.85328C11.2606 6.73233 11.1049 6.66299 10.9423 6.66303C10.7797 6.66303 10.6242 6.73238 10.5155 6.85328L10.4151 6.96501C10.0736 7.345 9.66396 7.66654 9.21406 7.91092C9.43035 6.74723 10.4526 5.86307 11.6781 5.86307ZM9.53308 19.6645C9.53308 19.4301 9.72376 19.2395 9.95807 19.2395H11.0935C11.3278 19.2395 11.5185 19.4301 11.5185 19.6645V19.7857H9.53308V19.6645Z" fill="black"/>
</g>
<defs>
<clipPath id="clip0">
<rect width="24" height="24" fill="white"/>
</clipPath>
</defs>
</svg>
