<svg width="24" height="24" viewBox="0 0 24 24" fill="none" xmlns="http://www.w3.org/2000/svg">
<path d="M9.11817 6.90659C10.0345 6.90659 10.7774 6.15797 10.7774 5.23451C10.7774 4.31105 10.0345 3.56244 9.11817 3.56244C8.20183 3.56244 7.45898 4.31105 7.45898 5.23451C7.45898 6.15797 8.20183 6.90659 9.11817 6.90659Z" fill="#F1DBC8"/>
<path d="M14.8838 6.90659C15.8001 6.90659 16.543 6.15797 16.543 5.23451C16.543 4.31105 15.8001 3.56244 14.8838 3.56244C13.9675 3.56244 13.2246 4.31105 13.2246 5.23451C13.2246 6.15797 13.9675 6.90659 14.8838 6.90659Z" fill="#F1DBC8"/>
<path d="M11.7317 8.0944C11.3525 7.38865 10.6106 6.90649 9.76228 6.90649H9.11719H8.472C7.6237 6.90649 6.88181 7.38865 6.50259 8.0944C7.29131 8.22364 7.89352 8.91336 7.89352 9.74478C7.89352 10.6683 7.15064 11.4169 6.23438 11.4169H6.87952C7.72781 11.4169 8.46975 11.899 8.84892 12.6046C8.93625 12.5903 9.02583 12.5829 9.11723 12.5829C9.20855 12.5829 9.29817 12.5903 9.3855 12.6048C9.76472 11.899 10.5066 11.4169 11.3549 11.4169H12C11.0836 11.4169 10.3408 10.6683 10.3408 9.74478C10.3408 8.91331 10.9429 8.22359 11.7317 8.0944Z" fill="#FF916C"/>
<path d="M14.2376 6.90649C13.3893 6.90649 12.6474 7.38865 12.2682 8.0944C13.057 8.22364 13.6591 8.91336 13.6591 9.74478C13.6591 10.6683 12.9163 11.4169 12 11.4169H12.6451C13.4934 11.4169 14.2353 11.899 14.6145 12.6046C14.7019 12.5903 14.7915 12.5829 14.8829 12.5829C14.9742 12.5829 15.0638 12.5903 15.1511 12.6048C15.5303 11.899 16.2722 11.4169 17.1205 11.4169H17.7656C16.8493 11.4169 16.1064 10.6683 16.1064 9.74478C16.1064 8.91336 16.7086 8.22364 17.4974 8.0944C17.1181 7.38865 16.3762 6.90649 15.5279 6.90649H14.8828H14.2376Z" fill="#C22C65"/>
<path d="M7.89259 9.74482C7.89259 8.9134 7.29039 8.22368 6.50167 8.09444C6.41434 8.0801 6.32477 8.07269 6.23341 8.07269C5.31705 8.07269 4.57422 8.82133 4.57422 9.74482C4.57422 10.6683 5.31705 11.4169 6.23341 11.4169C7.14977 11.4169 7.89259 10.6683 7.89259 9.74482Z" fill="#F1DBC8"/>
<path d="M11.7308 8.09444C10.942 8.22368 10.3398 8.9134 10.3398 9.74482C10.3398 10.6683 11.0827 11.4169 11.9991 11.4169C12.9154 11.4169 13.6582 10.6683 13.6582 9.74482C13.6582 8.9134 13.0561 8.22368 12.2673 8.09444C12.18 8.0801 12.0903 8.07269 11.999 8.07269C11.9078 8.07269 11.8181 8.0801 11.7308 8.09444Z" fill="#F1DBC8"/>
<path d="M17.4964 8.09444C16.7076 8.22368 16.1055 8.9134 16.1055 9.74482C16.1055 10.6683 16.8483 11.4169 17.7647 11.4169C18.681 11.4169 19.4238 10.6683 19.4238 9.74482C19.4238 8.82133 18.681 8.07269 17.7647 8.07269C17.6733 8.07269 17.5837 8.0801 17.4964 8.09444Z" fill="#F1DBC8"/>
<path d="M8.84888 12.6048C8.4697 11.8992 7.72777 11.4171 6.87947 11.4171H6.23438H5.58919C4.74089 11.4171 3.999 11.8992 3.61978 12.6048C4.40855 12.7341 5.0107 13.4238 5.0107 14.2552C5.0107 15.1787 4.26783 15.9273 3.35156 15.9273H3.9967C5.22745 15.9273 6.23438 16.9421 6.23438 18.1824C6.23438 16.9421 7.2413 15.9273 8.472 15.9273H9.11719C8.20083 15.9273 7.45795 15.1787 7.45795 14.2552C7.45795 13.4238 8.06011 12.7341 8.84888 12.6048Z" fill="#55CD8E"/>
<path d="M11.3548 11.4171C10.5065 11.4171 9.76463 11.8993 9.38541 12.6049C10.1742 12.7342 10.7763 13.4238 10.7763 14.2553C10.7763 15.1787 10.0335 15.9274 9.11719 15.9274H9.76233C10.993 15.9274 12 16.9421 12 18.1824C12 16.9421 13.0069 15.9274 14.2376 15.9274H14.8828C13.9665 15.9274 13.2236 15.1787 13.2236 14.2553C13.2236 13.4238 13.8257 12.7342 14.6145 12.605C14.2353 11.8993 13.4934 11.4171 12.6451 11.4171H12H11.3548Z" fill="#876E67"/>
<path d="M15.1511 12.6048C15.9398 12.7341 16.542 13.4238 16.542 14.2552C16.542 15.1787 15.7991 15.9273 14.8828 15.9273H15.528C16.7587 15.9273 17.7656 16.9421 17.7656 18.1824C17.7656 16.9421 18.7725 15.9273 20.0032 15.9273H20.6484C19.7321 15.9273 18.9892 15.1787 18.9892 14.2552C18.9892 13.4238 19.5914 12.7341 20.3802 12.605C20.0009 11.8992 19.259 11.4171 18.4107 11.4171H17.7656H17.1204C16.2722 11.4171 15.5303 11.8993 15.1511 12.6048Z" fill="#4BC1D7"/>
<path d="M3.35064 15.9273C4.26695 15.9273 5.00978 15.1787 5.00978 14.2552C5.00978 13.4238 4.40762 12.7341 3.61886 12.6048C3.53153 12.5905 3.44195 12.5831 3.35059 12.5831C2.43423 12.5831 1.69141 13.3318 1.69141 14.2552C1.69145 15.1787 2.43428 15.9273 3.35064 15.9273Z" fill="#F1DBC8"/>
<path d="M7.45703 14.2552C7.45703 15.1787 8.19991 15.9273 9.11627 15.9273C10.0326 15.9273 10.7754 15.1787 10.7754 14.2552C10.7754 13.4238 10.1732 12.7341 9.38448 12.6048C9.2972 12.5905 9.20758 12.5831 9.11622 12.5831C9.02486 12.5831 8.93528 12.5905 8.84791 12.6048C8.05919 12.7341 7.45703 13.4238 7.45703 14.2552Z" fill="#F1DBC8"/>
<path d="M13.2227 14.2552C13.2227 15.1787 13.9655 15.9273 14.8818 15.9273C15.7982 15.9273 16.541 15.1787 16.541 14.2552C16.541 13.4238 15.9389 12.7341 15.1501 12.6048C15.0628 12.5905 14.9732 12.5831 14.8818 12.5831C14.7905 12.5831 14.7009 12.5905 14.6135 12.605C13.8248 12.7341 13.2227 13.4238 13.2227 14.2552Z" fill="#F1DBC8"/>
<path d="M18.9883 14.2552C18.9883 15.1787 19.7312 15.9273 20.6475 15.9273C21.5638 15.9273 22.3067 15.1787 22.3067 14.2552C22.3067 13.3318 21.5638 12.5831 20.6475 12.5831C20.5562 12.5831 20.4666 12.5905 20.3793 12.605C19.5904 12.7341 18.9883 13.4238 18.9883 14.2552Z" fill="#F1DBC8"/>
<path d="M20.0032 15.9271C18.7725 15.9271 17.7656 16.9419 17.7656 18.1822V20.4373H23.5312V18.1822C23.5312 16.9419 22.5243 15.9272 21.2936 15.9272H20.6484L20.0032 15.9271Z" fill="#BDD377"/>
<path d="M17.7656 18.1822C17.7656 16.9419 16.7587 15.9271 15.528 15.9271H14.8828H14.2376C13.0069 15.9271 12 16.9419 12 18.1822V20.4373H17.7656V18.1822Z" fill="#FFBD50"/>
<path d="M12 18.1822C12 16.9419 10.993 15.9271 9.76233 15.9271H9.11719H8.472C7.2413 15.9271 6.23438 16.9419 6.23438 18.1822V20.4373H12V18.1822Z" fill="#76C8D6"/>
<path d="M6.23438 18.1822C6.23438 16.9419 5.22745 15.9271 3.9967 15.9271H3.35156H2.70638C1.47567 15.9271 0.46875 16.9419 0.46875 18.1822V20.4373H6.23438V18.1822Z" fill="#F13D7C"/>
<path d="M20.2611 18.2261H20.25C19.9912 18.2261 19.7812 18.436 19.7812 18.6949C19.7812 18.9537 19.9912 19.1636 20.25 19.1636H20.2611C20.5199 19.1636 20.7298 18.9537 20.7298 18.6949C20.7298 18.436 20.52 18.2261 20.2611 18.2261Z" fill="black"/>
<path d="M23.5312 20.9062C23.7901 20.9062 24 20.6963 24 20.4375V18.6955C24 18.6952 24 18.6949 24 18.6946C24 18.6943 24 18.694 24 18.6937V18.1823C24 17.0291 23.2793 16.0417 22.2649 15.645C22.5833 15.2707 22.7763 14.7853 22.7763 14.2552C22.7763 13.0747 21.8217 12.1143 20.6484 12.1143C20.6416 12.1143 20.6349 12.1147 20.6282 12.1148C20.316 11.6653 19.8816 11.3253 19.3849 11.1316C19.7017 10.7577 19.8935 10.2735 19.8935 9.74494C19.8935 8.56444 18.939 7.60406 17.7656 7.60406C17.7588 7.60406 17.7522 7.60453 17.7455 7.60458C17.4333 7.155 16.9988 6.81497 16.5021 6.62123C16.8188 6.24731 17.0107 5.76319 17.0107 5.23453C17.0107 4.05412 16.0561 3.09375 14.8828 3.09375C13.7095 3.09375 12.7549 4.05412 12.7549 5.23458C12.7549 5.76323 12.9467 6.24741 13.2635 6.62128C12.7667 6.81502 12.3323 7.15505 12.0201 7.60462C12.0134 7.60458 12.0067 7.60411 12 7.60411C11.9932 7.60411 11.9866 7.60458 11.9799 7.60462C11.6677 7.15505 11.2332 6.81502 10.7364 6.62128C11.0532 6.24736 11.2451 5.76323 11.2451 5.23458C11.245 4.05412 10.2905 3.09375 9.11719 3.09375C7.94381 3.09375 6.9892 4.05412 6.9892 5.23458C6.9892 5.76323 7.18106 6.24741 7.49784 6.62128C7.00106 6.81502 6.56658 7.15505 6.25444 7.60462C6.24773 7.60458 6.24108 7.60411 6.23438 7.60411C5.06105 7.60411 4.10644 8.56448 4.10644 9.74498C4.10644 10.2736 4.2983 10.7577 4.61508 11.1316C4.11834 11.3254 3.68386 11.6653 3.37172 12.1148C3.36497 12.1148 3.35831 12.1143 3.35156 12.1143C2.17823 12.1143 1.22362 13.0747 1.22362 14.2552C1.22362 14.7854 1.41661 15.2708 1.73508 15.6451C0.720703 16.0418 0 17.0292 0 18.1824V20.4375C0 20.6963 0.209859 20.9062 0.46875 20.9062H23.5312ZM21.8388 14.2552C21.8388 14.9187 21.3048 15.4585 20.6484 15.4585C19.992 15.4585 19.458 14.9187 19.458 14.2552C19.458 13.5916 19.992 13.0518 20.6484 13.0518C21.3048 13.0518 21.8388 13.5916 21.8388 14.2552ZM18.5205 14.2552C18.5205 14.7853 18.7134 15.2707 19.0319 15.645C18.5145 15.8474 18.0734 16.2029 17.7656 16.6563C17.4578 16.2029 17.0166 15.8474 16.4993 15.645C16.8177 15.2707 17.0107 14.7853 17.0107 14.2552C17.0107 13.4473 16.5635 12.7427 15.9052 12.3782C16.2295 12.067 16.6617 11.8858 17.1204 11.8858H18.4107C18.8693 11.8858 19.3016 12.067 19.6259 12.3782C18.9677 12.7427 18.5205 13.4473 18.5205 14.2552ZM12 16.6564C11.6922 16.2029 11.251 15.8474 10.7336 15.6451C11.052 15.2708 11.245 14.7854 11.245 14.2552C11.245 13.4474 10.7979 12.7427 10.1396 12.3783C10.464 12.067 10.8961 11.8858 11.3548 11.8858H12.6451C13.1038 11.8858 13.536 12.067 13.8603 12.3783C13.202 12.7427 12.7548 13.4474 12.7548 14.2552C12.7548 14.7854 12.9478 15.2708 13.2663 15.6451C12.7489 15.8474 12.3078 16.2029 12 16.6564ZM7.9267 14.2552C7.9267 13.5916 8.46075 13.0518 9.11719 13.0518C9.77353 13.0518 10.3075 13.5916 10.3075 14.2552C10.3075 14.9187 9.77353 15.4585 9.11719 15.4585C8.4608 15.4585 7.9267 14.9187 7.9267 14.2552ZM12 8.54161C12.6564 8.54161 13.1904 9.08147 13.1904 9.74498C13.1904 10.4085 12.6563 10.9483 12 10.9483C11.3436 10.9483 10.8096 10.4085 10.8096 9.74498C10.8096 9.08142 11.3436 8.54161 12 8.54161ZM13.6923 14.2552C13.6923 13.5916 14.2264 13.0518 14.8828 13.0518C15.5392 13.0518 16.0732 13.5916 16.0732 14.2552C16.0732 14.9187 15.5392 15.4585 14.8828 15.4585C14.2264 15.4585 13.6923 14.9187 13.6923 14.2552ZM18.9561 9.74498C18.9561 10.4085 18.422 10.9483 17.7656 10.9483C17.1092 10.9483 16.5752 10.4085 16.5752 9.74498C16.5752 9.08147 17.1092 8.54161 17.7656 8.54161C18.422 8.54161 18.9561 9.08142 18.9561 9.74498ZM14.8828 4.03125C15.5392 4.03125 16.0732 4.57106 16.0732 5.23458C16.0732 5.89809 15.5392 6.43795 14.8828 6.43795C14.2264 6.43795 13.6924 5.89809 13.6924 5.23458C13.6924 4.57106 14.2264 4.03125 14.8828 4.03125ZM14.2376 7.37545H15.5279C15.9866 7.37545 16.4189 7.55672 16.7432 7.86802C16.0849 8.23242 15.6377 8.93709 15.6377 9.74498C15.6377 10.2736 15.8295 10.7577 16.1463 11.1316C15.6495 11.3254 15.2152 11.6653 14.903 12.1148C14.8963 12.1148 14.8896 12.1143 14.8828 12.1143C14.876 12.1143 14.8694 12.1148 14.8626 12.1148C14.5504 11.6654 14.116 11.3254 13.6193 11.1316C13.936 10.7577 14.1279 10.2736 14.1279 9.74498C14.1279 8.93709 13.6807 8.23242 13.0223 7.86802C13.3467 7.55672 13.7789 7.37545 14.2376 7.37545ZM9.11719 4.03125C9.77353 4.03125 10.3075 4.57106 10.3075 5.23458C10.3075 5.89809 9.77353 6.43795 9.11719 6.43795C8.4608 6.43795 7.9267 5.89809 7.9267 5.23458C7.9267 4.57106 8.4608 4.03125 9.11719 4.03125ZM8.472 7.37545H9.76228C10.221 7.37545 10.6532 7.55672 10.9776 7.86806C10.3193 8.23242 9.87206 8.93709 9.87206 9.74498C9.87206 10.2736 10.0639 10.7577 10.3807 11.1316C9.88397 11.3254 9.44948 11.6653 9.13734 12.1148C9.13059 12.1148 9.12394 12.1143 9.11719 12.1143C9.11039 12.1143 9.10378 12.1148 9.09703 12.1148C8.78489 11.6653 8.35041 11.3254 7.85367 11.1316C8.17045 10.7577 8.36231 10.2736 8.36231 9.74498C8.36231 8.93709 7.91508 8.23242 7.25677 7.86802C7.58105 7.55672 8.01333 7.37545 8.472 7.37545ZM6.23438 8.54161C6.89077 8.54161 7.42477 9.08147 7.42477 9.74498C7.42477 10.4085 6.89072 10.9483 6.23438 10.9483C5.57798 10.9483 5.04394 10.4085 5.04394 9.74498C5.04394 9.08142 5.57798 8.54161 6.23438 8.54161ZM5.58919 11.8858H6.87947C7.33819 11.8858 7.77037 12.067 8.0947 12.3783C7.43639 12.7427 6.98916 13.4474 6.98916 14.2552C6.98916 14.7854 7.18214 15.2708 7.50061 15.6451C6.98325 15.8474 6.54211 16.2029 6.23428 16.6564C5.92645 16.2029 5.48531 15.8474 4.96795 15.6451C5.28642 15.2708 5.47941 14.7854 5.47941 14.2552C5.47941 13.4474 5.03222 12.7427 4.37391 12.3783C4.69833 12.067 5.13052 11.8858 5.58919 11.8858ZM3.35156 13.0518C4.00795 13.0518 4.54195 13.5917 4.54195 14.2552C4.54195 14.9187 4.00791 15.4585 3.35156 15.4585C2.69517 15.4585 2.16112 14.9187 2.16112 14.2552C2.16112 13.5916 2.69517 13.0518 3.35156 13.0518ZM0.9375 19.1633H2.39227C2.65116 19.1633 2.86102 18.9535 2.86102 18.6946C2.86102 18.4358 2.65116 18.2258 2.39227 18.2258H0.9375V18.1823C0.9375 17.1973 1.73888 16.396 2.72386 16.396H3.97922C4.96425 16.396 5.76558 17.1974 5.76558 18.1823V19.9688H0.9375V19.1633ZM6.70312 18.1824C6.70312 17.1974 7.5045 16.396 8.48948 16.396H9.74484C10.7299 16.396 11.5312 17.1974 11.5312 18.1824V19.9688H6.70312V18.1824ZM12.4688 18.1824C12.4688 17.1974 13.2701 16.396 14.2551 16.396H15.5105C16.4955 16.396 17.2968 17.1974 17.2968 18.1824V19.9688H12.4688V18.1824ZM18.2344 19.9688V18.1824C18.2344 17.1974 19.0358 16.396 20.0207 16.396H21.2761C22.2611 16.396 23.0624 17.1974 23.0624 18.1824V18.2259H21.6077C21.3488 18.2259 21.1389 18.4358 21.1389 18.6946C21.1389 18.9535 21.3488 19.1634 21.6077 19.1634H23.0624V19.9688H18.2344Z" fill="black"/>
<path d="M3.75125 18.2261H3.74023C3.48134 18.2261 3.27148 18.436 3.27148 18.6949C3.27148 18.9537 3.48134 19.1636 3.74023 19.1636H3.75125C4.01014 19.1636 4.22 18.9537 4.22 18.6949C4.22 18.436 4.01014 18.2261 3.75125 18.2261Z" fill="black"/>
</svg>
