<svg width="24" height="24" viewBox="0 0 24 24" fill="none" xmlns="http://www.w3.org/2000/svg">
<g clip-path="url(#clip0)">
<path d="M1.86391 16.3498C3.72738 18.2133 6.74866 18.2133 8.61218 16.3498L1.86391 9.60156C0.000441432 11.465 0.000441432 14.4864 1.86391 16.3498Z" fill="#FFBECB"/>
<path d="M8.61203 9.60146C6.74857 7.73799 3.72729 7.73799 1.86377 9.60146L8.61203 16.3497C10.4755 14.4863 10.4755 11.4649 8.61203 9.60146Z" fill="#FF9EB1"/>
<path d="M10.378 17.3707C8.96842 18.7802 8.96842 21.0656 10.378 22.4751C11.7875 23.8846 14.0728 23.8846 15.4824 22.4751L18.9835 18.974L13.879 13.8696L10.378 17.3707Z" fill="white"/>
<path d="M22.476 10.377C21.0664 8.96744 18.7811 8.96744 17.3716 10.377L13.8789 13.8696L18.9833 18.974L22.476 15.4814C23.8855 14.0718 23.8855 11.7865 22.476 10.377Z" fill="#80B6FF"/>
<path d="M13.7432 8.34473C16.6427 8.34473 18.9932 6.58185 18.9932 4.40723C18.9932 2.23261 16.6427 0.469727 13.7432 0.469727C10.8437 0.469727 8.49316 2.23261 8.49316 4.40723C8.49316 6.58185 10.8437 8.34473 13.7432 8.34473Z" fill="#FFDA8F"/>
<path d="M8.9436 9.26997C6.90032 7.22674 3.57566 7.22674 1.53243 9.26997C-0.510809 11.3132 -0.510809 14.6379 1.53243 16.6811C2.52224 17.6709 3.83825 18.216 5.23804 18.216C6.63782 18.216 7.95383 17.6709 8.94365 16.6811C10.9868 14.6379 10.9868 11.3132 8.9436 9.26997ZM8.28069 9.93293C9.84641 11.4986 9.95038 13.9803 8.59377 15.6684L2.54521 9.6198C4.23327 8.26319 6.71502 8.36721 8.28069 9.93293ZM2.19533 16.0182C0.629613 14.4525 0.525644 11.9708 1.88225 10.2828L7.93077 16.3313C6.24275 17.6879 3.761 17.5839 2.19533 16.0182Z" fill="black"/>
<path d="M22.8076 10.0453C21.848 9.08577 20.4789 8.66703 19.145 8.92559C18.8908 8.97481 18.7247 9.22077 18.774 9.47492C18.8232 9.72908 19.069 9.8952 19.3233 9.84599C20.3511 9.64695 21.4057 9.96927 22.1447 10.7083C23.3692 11.9328 23.3692 13.9252 22.1447 15.1498L18.9793 18.3152L14.5378 13.8737L16.2117 12.1998C16.3947 12.0168 16.3947 11.72 16.2117 11.5369C16.0286 11.3539 15.7319 11.3539 15.5487 11.5369L10.0465 17.039C8.45649 18.6291 8.45649 21.2164 10.0465 22.8064C10.8415 23.6014 11.8859 23.9989 12.9302 23.9989C13.9745 23.9989 15.0189 23.6014 15.8139 22.8064L22.8076 15.8127C24.3977 14.2226 24.3977 11.6353 22.8076 10.0453ZM15.151 22.1435C13.9264 23.368 11.934 23.368 10.7095 22.1435C9.48493 20.9189 9.48493 18.9265 10.7095 17.702L13.8749 14.5366L18.3164 18.9781L15.151 22.1435Z" fill="black"/>
<path d="M9.7496 7.56646C10.8218 8.3706 12.2401 8.81348 13.7432 8.81348C15.2462 8.81348 16.6645 8.3706 17.7367 7.56646C18.8492 6.73209 19.4619 5.61013 19.4619 4.40723C19.4619 3.20432 18.8493 2.08237 17.7367 1.24799C16.6645 0.443851 15.2462 0.000976562 13.7432 0.000976562C12.2401 0.000976562 10.8218 0.443851 9.7496 1.24799C8.63712 2.08237 8.02441 3.20432 8.02441 4.40723C8.02441 5.61013 8.63707 6.73209 9.7496 7.56646ZM13.7432 0.938477C16.3796 0.938477 18.5244 2.49454 18.5244 4.40723C18.5244 6.31991 16.3796 7.87598 13.7432 7.87598C11.1068 7.87598 8.96191 6.31991 8.96191 4.40723C8.96191 2.49454 11.1068 0.938477 13.7432 0.938477Z" fill="black"/>
<path d="M17.3716 9.90796C17.2483 9.90796 17.1274 9.95811 17.0402 10.0453C16.953 10.1325 16.9028 10.2534 16.9028 10.3767C16.9028 10.5 16.953 10.6209 17.0402 10.7081C17.1274 10.7958 17.2483 10.8455 17.3716 10.8455C17.4949 10.8455 17.6158 10.7958 17.703 10.7081C17.7902 10.6209 17.8403 10.5 17.8403 10.3767C17.8403 10.2534 17.7902 10.1325 17.703 10.0453C17.6158 9.95811 17.4949 9.90796 17.3716 9.90796Z" fill="black"/>
</g>
<defs>
<clipPath id="clip0">
<rect width="24" height="24" fill="white"/>
</clipPath>
</defs>
</svg>
