<svg width="24" height="24" viewBox="0 0 24 24" fill="none" xmlns="http://www.w3.org/2000/svg">
<g clip-path="url(#clip0)">
<path d="M22.979 18.0503L21.0751 1.75904C20.9943 0.956729 20.3254 0.351807 19.5191 0.351807H4.48166C3.67532 0.351807 3.00636 0.956775 2.9256 1.75904L1.02168 18.0503C0.928911 18.9722 1.65435 19.7708 2.57774 19.7708H10.8855V19.4492H18.4877V19.7708H21.423C22.3495 19.7708 23.0715 18.9691 22.979 18.0503Z" fill="#6C7ED6"/>
<path d="M2.75765 18.0503L4.66152 1.75904C4.74233 0.956729 5.41129 0.351807 6.21758 0.351807H4.48166C3.67532 0.351807 3.00636 0.956775 2.9256 1.75904L1.02168 18.0503C0.928911 18.9722 1.65435 19.7708 2.57774 19.7708H4.31371C3.39027 19.7708 2.66488 18.9722 2.75765 18.0503Z" fill="#4F67D2"/>
<path d="M21.3426 17.7353L19.5257 2.3074C19.5051 2.10345 19.3335 1.94824 19.1285 1.94824H4.87193C4.667 1.94824 4.49534 2.10345 4.47481 2.3074L2.65779 17.7353C2.63421 17.9704 2.81895 18.1744 3.05492 18.1744H20.9456C21.1819 18.1744 21.3662 17.9701 21.3426 17.7353Z" fill="#60B8FE"/>
<path d="M4.75156 17.7352L6.56857 2.30728C6.58911 2.10332 6.76076 1.94812 6.9657 1.94812H4.87193C4.667 1.94812 4.49534 2.10332 4.47481 2.30728L2.65779 17.7352C2.63421 17.9704 2.81895 18.1743 3.05492 18.1743H5.14868C4.91271 18.1743 4.72798 17.9704 4.75156 17.7352Z" fill="#23A8FE"/>
<path d="M15.4851 13.8045C13.8723 13.8351 12.5962 15.1862 12.5962 16.7992V18.2213H14.3067V16.7801C14.3067 16.1111 14.8258 15.5406 15.4944 15.5153C16.1972 15.4888 16.7774 16.0528 16.7774 16.7498V18.1912C17.1399 18.2667 17.4123 18.5878 17.4123 18.9726C17.4123 19.3574 17.1399 19.6786 16.7774 19.754V21.3841C17.1399 21.4595 17.4123 21.7806 17.4123 22.1654C17.4123 22.5503 17.1399 22.8714 16.7774 22.9468V23.3838C16.7774 23.5301 16.8959 23.6486 17.0422 23.6486H18.2231C18.3694 23.6486 18.4879 23.5301 18.4879 23.3838V16.7498C18.4879 15.1065 17.1354 13.7732 15.4851 13.8045Z" fill="#DFEBFA"/>
<path d="M16.661 18.1744H12.5493V19.7709H16.661C17.1018 19.7709 17.4592 19.4135 17.4592 18.9727C17.4592 18.5318 17.1018 18.1744 16.661 18.1744Z" fill="#B1DBFC"/>
<path d="M16.661 21.3673H12.5493V22.9638H16.661C17.1018 22.9638 17.4592 22.6064 17.4592 22.1655C17.4592 21.7247 17.1018 21.3673 16.661 21.3673Z" fill="#B1DBFC"/>
<path d="M12.5493 18.1744H14.3306V19.7709H12.5493V18.1744Z" fill="#8BCAFF"/>
<path d="M12.5493 21.3673H14.3306V22.9638H12.5493V21.3673Z" fill="#8BCAFF"/>
<path d="M9.5935 13.8045C7.98072 13.8351 6.70459 15.1861 6.70459 16.7992V18.1744H8.41506V16.7801C8.41506 16.1112 8.9342 15.5407 9.60274 15.5153C10.3055 15.4887 10.8858 16.0527 10.8858 16.7497V23.3839C10.8858 23.5302 11.0043 23.6487 11.1506 23.6487H12.3315C12.4777 23.6487 12.5963 23.5302 12.5963 23.3839V16.7498C12.5962 15.1065 11.2437 13.7732 9.5935 13.8045Z" fill="#DFEBFA"/>
<path d="M17.2052 7.98824C16.7122 7.97114 16.2669 7.75167 15.9513 7.37039C15.721 7.09209 15.298 7.09266 15.0681 7.37039C14.3839 8.19712 13.1246 8.19567 12.4416 7.37039C12.2085 7.08881 11.7852 7.09655 11.5584 7.37039C10.8744 8.19693 9.61516 8.19599 8.93191 7.37034C8.70119 7.09167 8.27824 7.09308 8.04874 7.37034C7.73313 7.75167 7.28782 7.97109 6.79488 7.98824C6.60082 7.99499 6.44899 8.15774 6.45579 8.35181C6.46254 8.54587 6.62425 8.69732 6.81935 8.69094C7.45526 8.66882 8.05619 8.39432 8.49026 7.93218C9.4407 8.94604 11.0482 8.94735 12 7.93223C12.9506 8.94608 14.558 8.94726 15.5098 7.93218C15.9439 8.39432 16.5448 8.66882 17.1807 8.69094C17.3739 8.69793 17.5376 8.54587 17.5443 8.35181C17.5511 8.15774 17.3992 7.99499 17.2052 7.98824Z" fill="black"/>
<path d="M15.951 10.2543C15.7207 9.976 15.2977 9.97656 15.0678 10.2543C14.3836 11.081 13.1243 11.0796 12.4413 10.2543C12.2082 9.97272 11.7849 9.98045 11.5581 10.2543C10.8739 11.0811 9.61459 11.0796 8.93162 10.2542C8.70174 9.97665 8.27879 9.9759 8.04844 10.2543C7.67373 10.707 7.10241 10.9332 6.51976 10.8596C6.32757 10.8353 6.15127 10.9716 6.12685 11.1643C6.10243 11.3569 6.23888 11.5328 6.43149 11.5572C7.20404 11.6551 7.96234 11.3793 8.49005 10.8162C9.44054 11.83 11.0479 11.8312 11.9997 10.8162C12.9502 11.83 14.5577 11.8313 15.5094 10.8162C16.0371 11.3793 16.7955 11.6551 17.5679 11.5572C17.7605 11.5328 17.897 11.3569 17.8726 11.1643C17.8481 10.9716 17.6715 10.8353 17.4796 10.8596C16.8968 10.9332 16.3257 10.7071 15.951 10.2543Z" fill="black"/>
<path d="M16.9119 5.04848C16.5331 4.96866 16.201 4.76723 15.9516 4.46597C15.7213 4.18767 15.2983 4.18824 15.0684 4.46597C14.3841 5.2927 13.1248 5.29125 12.4419 4.46597C12.2088 4.18439 11.7854 4.19213 11.5587 4.46597C10.8747 5.29251 9.61545 5.29158 8.9322 4.46592C8.70148 4.18725 8.27853 4.18866 8.04903 4.46592C7.79965 4.76719 7.46759 4.96866 7.08874 5.04848C6.89871 5.08851 6.77716 5.27498 6.8172 5.46497C6.85723 5.65495 7.04407 5.77654 7.23368 5.73647C7.72039 5.6339 8.15206 5.39006 8.49068 5.02786C9.4414 6.04181 11.0487 6.04261 12.0003 5.02781C12.9508 6.04153 14.5581 6.04293 15.5099 5.02791C15.8486 5.39011 16.2803 5.634 16.767 5.73647C16.9567 5.77654 17.1434 5.6549 17.1835 5.46492C17.2235 5.27494 17.1019 5.08847 16.9119 5.04848Z" fill="black"/>
<path d="M2.57723 20.1222H10.5334V23.3837C10.5334 23.7235 10.8099 24 11.1498 24H12.3307C12.6705 24 12.947 23.7235 12.947 23.3837V23.3151H16.425V23.3837C16.425 23.7235 16.7015 24 17.0414 24H18.2223C18.5621 24 18.8386 23.7235 18.8386 23.3837V20.1222H21.4223C22.553 20.1222 23.4417 19.1431 23.3281 18.0149C23.3279 18.013 23.3277 18.0111 23.3275 18.0092L22.7165 12.7795C22.6939 12.5867 22.5189 12.4485 22.3265 12.4711C22.1337 12.4937 21.9956 12.6683 22.0181 12.8611L22.6289 18.0878C22.6973 18.7831 22.1558 19.419 21.4224 19.419H18.8387V18.5257H20.9452C21.3891 18.5257 21.7364 18.1417 21.6921 17.6999C21.6919 17.6979 21.6916 17.6959 21.6914 17.6939L19.8747 2.26852C19.8344 1.88513 19.514 1.59647 19.1281 1.59647H12.8201C12.6259 1.59647 12.4686 1.75387 12.4686 1.94803C12.4686 2.14219 12.6259 2.29959 12.8201 2.29959H19.1281C19.1527 2.29959 19.173 2.31802 19.1755 2.34244C19.1757 2.34441 19.1759 2.34633 19.1761 2.3483L20.9925 17.7718C20.9934 17.7847 20.9891 17.7974 20.9804 17.807C20.9714 17.8169 20.9585 17.8226 20.9451 17.8226H18.8387V16.7495C18.8387 14.899 17.3267 13.4521 15.5413 13.4521C14.286 13.4521 13.1531 14.1641 12.5957 15.2683C12.0328 14.154 10.8742 13.4284 9.58603 13.4528C7.81884 13.486 6.35222 14.9337 6.35222 16.7496V17.8226H3.05447C3.04106 17.8226 3.02822 17.8169 3.01917 17.8069C3.0105 17.7974 3.00619 17.7846 3.00703 17.7717L4.82353 2.34834C4.82377 2.34637 4.824 2.34441 4.82419 2.34239C4.82667 2.31802 4.84697 2.29964 4.87153 2.29964H11.1795C11.3737 2.29964 11.5311 2.14223 11.5311 1.94808C11.5311 1.75392 11.3737 1.59652 11.1795 1.59652H4.87153C4.48561 1.59652 4.16527 1.88527 4.12495 2.26866L2.30822 17.694C2.30798 17.696 2.30775 17.698 2.30752 17.7C2.26317 18.1417 2.61052 18.5257 3.05447 18.5257H10.5334V19.4191H2.57723C1.88105 19.4191 1.29853 18.8199 1.37072 18.0879L3.27427 1.79962C3.2745 1.79775 3.27469 1.79587 3.27487 1.79405C3.3375 1.17211 3.85608 0.703125 4.48116 0.703125H19.5186C20.1436 0.703125 20.6622 1.17211 20.7248 1.794C20.725 1.79587 20.7252 1.79775 20.7254 1.79962L21.8264 11.2205C21.8489 11.4134 22.024 11.5516 22.2163 11.5289C22.4092 11.5064 22.5473 11.3317 22.5247 11.1389L21.4241 1.72069C21.3239 0.7395 20.5052 0 19.5186 0H4.48116C3.49448 0 2.67572 0.739547 2.57559 1.72078L0.672 18.0093C0.671765 18.0112 0.671578 18.013 0.67139 18.0149C0.558187 19.1399 1.44323 20.1222 2.57723 20.1222ZM14.6575 16.7799C14.6575 16.2959 15.0383 15.8757 15.5247 15.8666C16.0254 15.8571 16.4251 16.2646 16.4251 16.7496V17.8226H14.6575V16.7799ZM12.947 20.1222H16.4251V21.0155H12.947V20.1222ZM16.6133 18.5257C16.8744 18.5257 17.0828 18.7515 17.0579 19.0146C17.0357 19.2435 16.8428 19.419 16.6133 19.419H12.947V18.5257C14.171 18.5257 15.3923 18.5257 16.6133 18.5257ZM12.947 21.7186H16.6133C16.8729 21.7186 17.0828 21.9435 17.0579 22.2075C17.0358 22.436 16.8429 22.6119 16.6133 22.6119H12.947V21.7186ZM18.1356 23.2969H17.1283V23.1931C17.9727 22.7653 17.9745 21.5662 17.1283 21.1374V20.0002C17.9766 19.5704 17.9705 18.3713 17.1283 17.9445V16.7496C17.1283 15.7893 16.275 15.0378 15.3098 15.1797C14.5433 15.2922 13.9544 15.9544 13.9544 16.7496V17.8226H12.9471V16.799C12.9471 15.3669 14.0936 14.1696 15.5168 14.1559C16.9802 14.1436 18.1356 15.3305 18.1356 16.7496V23.2969ZM7.05544 17.8226V16.7989C7.05544 15.2884 8.30681 14.0997 9.75492 14.1579C11.1369 14.2143 12.2439 15.3533 12.2439 16.7495V23.2968H11.2366C11.2366 22.621 11.2366 17.622 11.2366 16.7495C11.2366 15.9081 10.5773 15.2118 9.74058 15.1653C8.83702 15.114 8.06278 15.8338 8.06278 16.7495V17.8225H7.05544V17.8226ZM8.76591 17.8226V16.7798C8.76591 16.338 9.08288 15.949 9.51014 15.8778C10.0557 15.791 10.5334 16.2171 10.5334 16.7495V17.8226H8.76591Z" fill="black"/>
</g>
<defs>
<clipPath id="clip0">
<rect width="24" height="24" fill="white"/>
</clipPath>
</defs>
</svg>
