<svg width="24" height="24" viewBox="0 0 24 24" fill="none" xmlns="http://www.w3.org/2000/svg">
<g clip-path="url(#clip0)">
<path d="M10.4078 17.6219V14.9722H1.39062V23.531H10.4078V21.8599" fill="#FFEE80"/>
<path d="M1.39062 6.41357H10.4078V14.9724H1.39062V6.41357Z" fill="#CCF5FC"/>
<path d="M5.8992 1.82617L1.39062 6.41359H10.4078L5.8992 1.82617Z" fill="#C193DC"/>
<path d="M8.05655 23.5316H3.74219V20.9662C3.74219 19.7748 4.70795 18.8091 5.89928 18.8091H5.89942C7.09074 18.8091 8.05651 19.7748 8.05651 20.9662V23.5316H8.05655Z" fill="#FAF7F5"/>
<path d="M8.05655 14.9727H3.74219V12.4134C3.74219 11.2221 4.70795 10.2563 5.89928 10.2563H5.89942C7.09074 10.2563 8.05651 11.2221 8.05651 12.4134V14.9727H8.05655Z" fill="#FAF7F5"/>
<path d="M18.0569 20.4126L15.7291 14.4138C15.4547 13.9353 14.9506 13.6411 14.4055 13.6411H10.4082V16.7524H13.525L15.8528 22.7513C16.1272 23.2297 16.6313 23.5239 17.1764 23.5239H22.6072V20.4126H18.0569Z" fill="#FF7D97"/>
<path d="M13.4083 13.6412H10.4082V8.36572H10.4083C12.0651 8.36572 13.4083 9.70888 13.4083 11.3657V13.6412Z" fill="#FFF7BF"/>
<path d="M10.7976 19.4896C10.6938 19.3313 10.4936 19.2514 10.3091 19.2915C10.1145 19.3338 9.96614 19.4987 9.94261 19.6961C9.91945 19.8902 10.0256 20.0839 10.2009 20.1698C10.3746 20.2549 10.5875 20.224 10.7288 20.0914C10.894 19.9365 10.9227 19.6777 10.7976 19.4896Z" fill="black"/>
<path d="M22.6069 19.9439H18.3775L16.1658 14.2442C16.1572 14.2222 16.1471 14.2009 16.1354 14.1805C15.7787 13.5586 15.1157 13.1723 14.4051 13.1723H13.8766V11.3656C13.8766 9.61195 12.5684 8.15803 10.8766 7.92848V6.41363C10.8766 6.40275 10.8762 6.39192 10.8755 6.38105C10.8695 6.29452 10.8401 6.21441 10.7935 6.14714C10.7795 6.12684 10.7638 6.10777 10.7468 6.08991C10.7453 6.08827 10.7437 6.08667 10.7421 6.08503L6.368 1.63439V0.46875C6.368 0.209859 6.15809 0 5.89925 0C5.64041 0 5.4305 0.209859 5.4305 0.46875V1.63444L1.05636 6.08508C1.05477 6.08667 1.05322 6.08831 1.05167 6.08995C1.03466 6.10781 1.01905 6.12689 1.00503 6.14719C0.958437 6.2145 0.929 6.29456 0.923047 6.38109C0.922812 6.38438 0.922625 6.38766 0.922437 6.39094C0.922062 6.3983 0.921922 6.40566 0.921875 6.41302V6.41367V23.5312C0.921875 23.7901 1.13178 24 1.39062 24H10.4078C10.6667 24 10.8766 23.7901 10.8766 23.5312V21.8602C10.8766 21.6014 10.6667 21.3915 10.4078 21.3915C10.149 21.3915 9.93908 21.6014 9.93908 21.8602V23.0625H8.52514V20.9658C8.52514 19.5179 7.34713 18.34 5.89916 18.34C4.45123 18.34 3.27327 19.518 3.27327 20.9658V23.0625H1.85938V15.4412H9.93908V17.6221C9.93908 17.8809 10.149 18.0908 10.4078 18.0908C10.6667 18.0908 10.8766 17.8809 10.8766 17.6221V17.2211H13.2037L15.4155 22.9208C15.424 22.9428 15.4341 22.9641 15.4459 22.9845C15.8025 23.6063 16.4655 23.9926 17.1762 23.9926H22.6069C22.8658 23.9926 23.0757 23.7827 23.0757 23.5239V20.4127C23.0757 20.1538 22.8658 19.9439 22.6069 19.9439ZM4.21081 20.9658C4.21081 20.0349 4.96827 19.2775 5.8993 19.2775C6.83023 19.2775 7.58769 20.0349 7.58769 20.9658V23.0625H4.21081V20.9658ZM10.8767 8.87789C12.0492 9.09839 12.9392 10.1301 12.9392 11.3656V13.1723H10.8766L10.8767 8.87789ZM5.89925 2.49497L9.28991 5.94492H2.50859L5.89925 2.49497ZM4.21081 14.5037V12.4132C4.21081 11.4822 4.96827 10.7248 5.8993 10.7248C6.83023 10.7248 7.58769 11.4822 7.58769 12.4132V14.5037H4.21081ZM8.52514 14.5037V12.4132C8.52514 10.9652 7.34713 9.78727 5.89916 9.78727C4.45123 9.78727 3.27327 10.9652 3.27327 12.4132V14.5037H1.85938V6.88238H9.93908V14.5037H8.52514ZM22.1382 23.0552H17.1761C16.811 23.0552 16.4689 22.8608 16.2755 22.5457L13.9616 16.5828C13.8917 16.4025 13.7181 16.2836 13.5246 16.2836H10.8766V14.1098H14.4051C14.7702 14.1098 15.1124 14.3042 15.3058 14.6193L17.6196 20.5822C17.6896 20.7626 17.8632 20.8814 18.0566 20.8814H22.1381V23.0552H22.1382Z" fill="black"/>
</g>
<defs>
<clipPath id="clip0">
<rect width="24" height="24" fill="white"/>
</clipPath>
</defs>
</svg>
