<svg width="24" height="24" viewBox="0 0 24 24" fill="none" xmlns="http://www.w3.org/2000/svg">
<g clip-path="url(#clip0)">
<path d="M0.35498 4.85718H23.6447V19.1426H0.35498V4.85718Z" fill="#FEC040"/>
<path d="M21.77 5.05366V18.936L23.6453 19.1425V4.85718L21.77 5.05366Z" fill="#FEB317"/>
<path d="M23.6447 19.1427L14.5626 11.9651H9.47821L0.35498 19.1427H23.6447Z" fill="#FED682"/>
<path d="M0.351074 4.85718L10.1792 12.6383C11.246 13.4829 12.7536 13.4829 13.8204 12.6383L23.6486 4.85718H0.351074Z" fill="#FEE8B8"/>
<path d="M23.6449 15.1575C23.8391 15.1575 23.9965 15.0001 23.9965 14.8059V4.90724C24.0268 4.69698 23.8568 4.50562 23.6488 4.50562H5.29603C4.8425 4.50562 4.8425 5.20883 5.29603 5.20883H22.6382L13.6024 12.3627C12.6589 13.1096 11.3411 13.1096 10.3976 12.3627L1.36179 5.20887H3.46594C3.91947 5.20887 3.91947 4.50566 3.46594 4.50566H0.351233C0.143176 4.50566 -0.0268135 4.69698 0.0035184 4.90729V19.1427C0.0035184 19.3332 0.164273 19.4943 0.355124 19.4943H23.6449C23.8361 19.4943 23.9965 19.3335 23.9965 19.1427V16.5943C23.9965 16.1408 23.2933 16.1408 23.2933 16.5943V18.4166L15.1837 12.0076L23.2933 5.58715V14.8059C23.2933 15.0001 23.4507 15.1575 23.6449 15.1575ZM8.83585 12.0231L0.70673 18.4187V5.58715L8.83585 12.0231ZM22.6329 18.791H1.37066L9.40269 12.4719C10.1846 13.091 10.9513 13.6268 12 13.6268C13.059 13.6268 13.8284 13.0806 14.6171 12.4562L22.6329 18.791Z" fill="black"/>
</g>
<defs>
<clipPath id="clip0">
<rect width="24" height="24" fill="white"/>
</clipPath>
</defs>
</svg>
