<svg width="24" height="24" viewBox="0 0 24 24" fill="none" xmlns="http://www.w3.org/2000/svg">
<g clip-path="url(#clip0)">
<path fill-rule="evenodd" clip-rule="evenodd" d="M20.2495 16.5835C19.9205 15.1842 18.825 14.5281 17.4506 14.2861C17.1347 14.2304 16.8057 14.196 16.4675 14.1802C16.2177 14.1724 16.0103 14.1207 15.8345 14.0372C14.8472 15.9089 10.3344 15.7767 9.58105 14.0372V14.024C9.39868 14.1154 9.18188 14.1722 8.92023 14.1802C8.59119 14.1962 8.27148 14.2278 7.96478 14.2808C6.62885 14.5096 5.5531 15.126 5.17773 16.4288C5.758 16.9858 10.4678 21.2329 10.5048 21.4658H20.3936V19.0849C20.3936 18.8309 20.5086 18.6021 20.6897 18.4486L20.2495 16.5835Z" fill="#64B0D9"/>
<path fill-rule="evenodd" clip-rule="evenodd" d="M8.92029 14.1802C8.59125 14.196 8.27155 14.2278 7.96484 14.2808V16.4288L8.68243 17.0729L9.58112 16.4288V14.024C9.39874 14.1154 9.18195 14.1722 8.92029 14.1802Z" fill="#E6E6E6"/>
<path fill-rule="evenodd" clip-rule="evenodd" d="M7.896 20.8797H9.82007C10.165 20.8797 10.4531 21.1349 10.5047 21.4658H18.7336L18.1034 17.8163C18.0439 17.4619 17.8099 17.1616 17.4504 17.1616V14.2861C17.1346 14.2304 16.8055 14.196 16.4673 14.1802C16.2176 14.1724 16.0101 14.1207 15.8344 14.0372V17.1616H10.8932C10.9037 17.241 8.47223 20.6429 7.896 20.8797Z" fill="#E6E6E6"/>
<path fill-rule="evenodd" clip-rule="evenodd" d="M15.0614 13.2039L12.8109 12.4937L10.3331 13.1907L10.3265 13.2026C10.1611 13.5533 9.92731 13.8495 9.58105 14.024V14.0372C10.3344 15.7767 14.8474 15.9089 15.8345 14.0372C15.4723 13.8653 15.2423 13.5558 15.0614 13.2039Z" fill="#FCC368"/>
<path fill-rule="evenodd" clip-rule="evenodd" d="M15.3993 6.42906C13.6074 6.16319 11.8047 6.15788 9.99164 6.42906C9.46832 6.50706 8.94519 6.60887 8.42041 6.7332V10.1816C8.42041 11.4024 9.30975 12.4805 10.3328 13.1908C11.1679 13.7727 12.093 14.1074 12.689 14.0757C13.4423 14.0332 14.3065 13.7185 15.0611 13.204C16.1341 12.4712 16.9852 11.3337 16.9852 9.9976V6.73192C16.4578 6.60887 15.9292 6.50706 15.3993 6.42906Z" fill="#FFDDA6"/>
<path fill-rule="evenodd" clip-rule="evenodd" d="M12.8147 1.01111C11.9889 1.01367 11.1193 1.43701 10.6872 2.27948H9.52682C7.84976 2.27948 6.85073 4.12354 8.42068 5.10095V7.66571C8.94528 7.54138 9.46859 7.44086 9.99191 7.36139C11.805 7.09039 13.6077 7.09552 15.3996 7.36139C15.9295 7.44086 16.4581 7.54138 16.9855 7.66571V5.10095C18.5554 4.12354 17.6 2.27948 15.9229 2.27948H14.6754C14.4309 1.43701 13.6553 1.01367 12.8306 1.01111H12.8147Z" fill="#E6E6E6"/>
<path fill-rule="evenodd" clip-rule="evenodd" d="M16.9855 5.10095C18.5554 4.12354 17.6 2.27966 15.9229 2.27966H14.9438C16.4477 2.27966 17.3766 3.62476 16.4173 4.63678C16.1093 4.96069 16.0115 4.79279 16.0115 5.24652L16.0075 7.4621C16.334 7.52161 16.6605 7.58899 16.9855 7.66571V5.10095Z" fill="#C2C7CC"/>
<path fill-rule="evenodd" clip-rule="evenodd" d="M16.9854 9.38135C16.9299 9.37073 16.433 9.27551 16.0074 8.93677V9.79407C16.0074 11.13 15.1551 12.2687 14.0821 13.0002C13.3275 13.5162 12.4633 13.8297 11.71 13.872C11.6834 13.8733 11.657 13.8746 11.6294 13.8746C12.0284 14.0189 12.3984 14.0916 12.6892 14.0756C13.4423 14.0333 14.3068 13.7186 15.0613 13.204C16.1343 12.4713 16.9854 11.3336 16.9854 9.99768V9.38135Z" fill="#FCC368"/>
<path fill-rule="evenodd" clip-rule="evenodd" d="M15.8345 14.0372C15.4723 13.8653 15.2423 13.5558 15.0614 13.2041C14.6174 13.507 14.1336 13.7411 13.6592 13.8906C13.8773 14.3124 14.0571 14.5056 14.6873 14.8044C14.7626 14.8403 14.8446 14.8707 14.9318 14.8932C15.3284 14.6801 15.6455 14.3945 15.8345 14.0372Z" fill="#EDA93B"/>
<path fill-rule="evenodd" clip-rule="evenodd" d="M20.2494 16.5835C19.9203 15.1842 18.8248 14.5281 17.4504 14.2861C17.1346 14.2304 16.8055 14.196 16.4673 14.1802C16.2176 14.1724 16.0101 14.1207 15.8344 14.0372C15.6454 14.3945 15.3281 14.6801 14.9316 14.8931C15.0494 14.9249 15.1776 14.9434 15.3202 14.9473C15.4947 14.9566 15.6652 14.9685 15.8344 14.987C15.9942 15.0042 16.15 15.0255 16.3035 15.0533C16.7144 15.126 17.1016 15.2357 17.4504 15.3906C18.2658 15.7555 18.8724 16.3707 19.1037 17.3522C19.4366 18.7661 19.5635 20.0147 19.5635 21.4658H20.3935V19.0849C20.3935 18.8309 20.5085 18.6021 20.6896 18.4486L20.2494 16.5835Z" fill="#4A83C9"/>
<path fill-rule="evenodd" clip-rule="evenodd" d="M17.4506 14.2861C17.1347 14.2304 16.8057 14.196 16.4675 14.1802C16.2177 14.1724 16.0103 14.1207 15.8345 14.0372V14.987C15.9943 15.0042 16.1501 15.0255 16.3036 15.0533C16.7145 15.126 17.1017 15.2357 17.4506 15.3906V14.2861Z" fill="#C2C7CC"/>
<path fill-rule="evenodd" clip-rule="evenodd" d="M23.3538 19.7329C23.3538 18.9181 22.6877 18.2516 21.8736 18.2516H21.2261C21.0225 18.2516 20.835 18.3256 20.6896 18.4486C20.5085 18.6021 20.3936 18.8309 20.3936 19.0849V21.7634C20.3936 22.2224 20.7689 22.5981 21.2261 22.5981H21.8736C22.6877 22.5981 23.3538 21.9315 23.3538 21.1166V19.7329Z" fill="#FFDDA6"/>
<path fill-rule="evenodd" clip-rule="evenodd" d="M22.6257 7.45557H21.1218C20.5601 7.45557 20.1016 7.91571 20.1016 8.47656V11.5612C20.1016 12.1233 20.5601 12.5823 21.1218 12.5823H22.6257C22.9413 12.5823 23.2242 12.4368 23.4119 12.2094C23.5573 12.0321 23.6458 11.8073 23.6458 11.5612V8.47656C23.6458 8.23193 23.5573 8.00562 23.4119 7.82965C23.2242 7.60223 22.9415 7.45557 22.6257 7.45557Z" fill="#E6E6E6"/>
<path fill-rule="evenodd" clip-rule="evenodd" d="M18.103 17.8164C18.0437 17.4619 17.8097 17.1616 17.4503 17.1616H16.5093L17.2798 21.4659H18.7335L18.103 17.8164Z" fill="#C2C7CC"/>
<path fill-rule="evenodd" clip-rule="evenodd" d="M23.3537 19.7329C23.3537 18.9181 22.6876 18.2516 21.8735 18.2516H21.226C21.1401 18.2516 21.0568 18.2648 20.9775 18.2899C21.6318 18.442 22.1234 19.0333 22.1234 19.7329V21.1165C22.1234 21.8163 21.6318 22.4062 20.9775 22.5597C21.0568 22.5835 21.1401 22.598 21.226 22.598H21.8735C22.6876 22.598 23.3537 21.9313 23.3537 21.1165V19.7329Z" fill="#FCC368"/>
<path fill-rule="evenodd" clip-rule="evenodd" d="M13.5032 17.1615C13.449 16.7501 13.0934 16.4287 12.6666 16.4287H11.2474C10.7492 16.4287 10.6646 16.8982 10.5576 17.381C10.5034 17.6218 11.5909 17.893 11.505 18.1179H12.6666C13.1319 18.1179 13.5111 17.7383 13.5111 17.2739C13.5111 17.2357 13.5084 17.1985 13.5032 17.1615Z" fill="#FCC368"/>
<path fill-rule="evenodd" clip-rule="evenodd" d="M2.61646 16.4287H1.1972C0.733398 16.4287 0.354004 16.8098 0.354004 17.2739C0.354004 17.7383 0.733398 18.1179 1.1972 18.1179H2.35608L3.45691 17.0729L2.61646 16.4287Z" fill="#FCC368"/>
<path fill-rule="evenodd" clip-rule="evenodd" d="M9.58116 16.4287H2.61674C2.1187 16.4287 2.04197 16.9341 2.14909 17.418C2.20311 17.6616 2.27324 17.8943 2.35655 18.1179C2.848 19.426 3.83128 20.3917 5.07347 20.8796L6.68168 21.8849L8.82915 20.8796C10.0569 20.373 11.0255 19.3679 11.5052 18.1179C11.5911 17.893 11.6625 17.6588 11.7154 17.418C11.8226 16.9341 11.7471 16.4287 11.2476 16.4287H9.58116Z" fill="#F78411"/>
<path fill-rule="evenodd" clip-rule="evenodd" d="M8.82892 20.8796H3.37512C2.99316 20.8796 2.68262 21.1918 2.68262 21.5729V22.2963C2.68262 22.6772 2.99316 22.9894 3.37512 22.9894H10.7532C11.1337 22.9894 11.4457 22.6772 11.4457 22.2963V21.5729C11.4457 21.537 11.4429 21.5 11.4363 21.4656C11.3849 21.1349 11.0967 20.8796 10.7532 20.8796H8.82892Z" fill="#808080"/>
<path fill-rule="evenodd" clip-rule="evenodd" d="M11.2474 16.4287H9.80304C10.3011 16.4287 10.3778 16.9341 10.2707 17.418C10.2165 17.6588 10.1466 17.893 10.0594 18.1179C9.9682 18.3572 9.85852 18.5861 9.73291 18.8056C9.50696 19.1985 9.22937 19.5569 8.90839 19.8718C8.88715 19.8916 8.86609 19.9128 8.84485 19.9326C8.42206 20.332 7.92786 20.6548 7.3833 20.8796H8.8291C9.0882 20.7725 9.33521 20.6442 9.56922 20.4948C10.4426 19.9379 11.1258 19.1046 11.5052 18.1179C11.5911 17.893 11.6625 17.6588 11.7152 17.418C11.7352 17.3322 11.7484 17.2461 11.7537 17.1615C11.7826 16.7713 11.6583 16.4287 11.2474 16.4287Z" fill="#F74311"/>
<path fill-rule="evenodd" clip-rule="evenodd" d="M11.4361 21.4658C11.3846 21.1349 11.0964 20.8796 10.7529 20.8796H9.30713C9.6521 20.8796 9.93884 21.1349 9.99176 21.4658C9.99707 21.5 9.99963 21.5372 9.99963 21.5729V22.2963C9.99963 22.6774 9.68781 22.9894 9.30713 22.9894H10.7529C11.1334 22.9894 11.4454 22.6772 11.4454 22.2963V21.5729C11.4453 21.5372 11.4427 21.5 11.4361 21.4658Z" fill="#666666"/>
<path fill-rule="evenodd" clip-rule="evenodd" d="M23.4117 7.82983C23.224 7.60223 22.9413 7.45557 22.6254 7.45557H21.2417C21.802 7.45557 22.262 7.91571 22.262 8.47656V11.5612C22.262 12.1233 21.802 12.5823 21.2417 12.5823H22.6254C22.9413 12.5823 23.224 12.4368 23.4117 12.2094C23.5571 12.0321 23.6455 11.8073 23.6455 11.5612V8.47656C23.6455 8.23193 23.5571 8.0058 23.4117 7.82983Z" fill="#C2C7CC"/>
<path fill-rule="evenodd" clip-rule="evenodd" d="M16.9852 7.66571C16.4578 7.54138 15.9292 7.44086 15.3993 7.36157C15.2131 9.04138 16.8793 9.36273 16.9852 9.38141V7.66571Z" fill="#808080"/>
<path fill-rule="evenodd" clip-rule="evenodd" d="M9.99164 7.36157C9.46832 7.44086 8.94519 7.54138 8.42041 7.66571V9.37866C8.64911 9.33362 10.1689 8.96594 9.99164 7.36157Z" fill="#808080"/>
<path fill-rule="evenodd" clip-rule="evenodd" d="M16.9853 7.66577C16.6603 7.58905 16.3338 7.52167 16.0073 7.46216V8.93689C16.4329 9.27545 16.9298 9.37085 16.9853 9.38129V7.66577Z" fill="#666666"/>
<path d="M3.39073 13.5084C3.25066 13.645 3.24773 13.8693 3.38433 14.0094C3.45372 14.0806 3.54582 14.1163 3.63793 14.1163C3.7271 14.1163 3.81645 14.083 3.8853 14.0158C4.59337 13.3256 4.30333 12.7576 4.11125 12.3817C3.93089 12.0291 3.85637 11.8829 4.23631 11.5253C4.37859 11.3913 4.38554 11.167 4.25133 11.0247C4.1173 10.8821 3.89299 10.8755 3.75072 11.0095C2.98333 11.7317 3.28234 12.3169 3.48027 12.7042C3.65331 13.0427 3.7249 13.1828 3.39073 13.5084Z" fill="black"/>
<path d="M5.35215 11.6091C5.21208 11.7457 5.20915 11.97 5.34575 12.1101C5.41514 12.1813 5.50725 12.217 5.59953 12.217C5.68852 12.217 5.77788 12.1837 5.84673 12.1165C6.55516 11.426 6.26439 10.858 6.07195 10.4822C5.8914 10.1296 5.8167 9.98346 6.19646 9.62604C6.33892 9.49201 6.34569 9.2677 6.21166 9.12543C6.07744 8.98279 5.85313 8.9762 5.71086 9.11023C4.94346 9.83258 5.24302 10.4178 5.44133 10.8051C5.61455 11.1434 5.68614 11.2835 5.35215 11.6091Z" fill="black"/>
<path d="M10.5574 9.60132C10.6491 9.60132 10.7406 9.5658 10.81 9.49493C10.9254 9.39258 11.4412 9.39368 11.5551 9.49603C11.6932 9.63483 11.9175 9.63556 12.0561 9.49768C12.1949 9.3598 12.1956 9.1355 12.0577 8.9967C11.8016 8.73871 11.3638 8.70959 11.1797 8.70959C11.1774 8.70959 11.175 8.70959 11.1726 8.70959C10.9957 8.71033 10.5572 8.73999 10.3043 8.99872C10.1675 9.13861 10.1695 9.36346 10.3096 9.50024C10.3785 9.56763 10.468 9.60132 10.5574 9.60132Z" fill="black"/>
<path d="M13.4265 9.60132C13.5183 9.60132 13.6098 9.5658 13.679 9.49493C13.7944 9.39258 14.3104 9.39368 14.4243 9.49603C14.5622 9.63483 14.7865 9.63556 14.9253 9.49768C15.064 9.3598 15.0648 9.1355 14.9269 8.9967C14.6706 8.73871 14.2329 8.70959 14.0489 8.70959C14.0463 8.70959 14.044 8.70959 14.0418 8.70959C13.8649 8.71033 13.4263 8.73999 13.1735 8.99872C13.0367 9.13861 13.0387 9.36346 13.1786 9.50006C13.2476 9.56763 13.337 9.60132 13.4265 9.60132Z" fill="black"/>
<path d="M12.6512 5.25671C12.8467 5.25671 13.0053 5.09814 13.0053 4.9024V3.27551C13.0053 3.07996 12.8467 2.92139 12.6512 2.92139C12.4554 2.92139 12.2969 3.07996 12.2969 3.27551V4.9024C12.2969 5.09814 12.4554 5.25671 12.6512 5.25671Z" fill="black"/>
<path d="M10.2457 3.65674C10.0502 3.65674 9.8916 3.81531 9.8916 4.01105V5.63666C9.8916 5.83221 10.0502 5.99078 10.2457 5.99078C10.4415 5.99078 10.6 5.83221 10.6 5.63666V4.01105C10.6 3.81531 10.4415 3.65674 10.2457 3.65674Z" fill="black"/>
<path d="M15.056 5.99078C15.2515 5.99078 15.4101 5.83221 15.4101 5.63647V4.01086C15.4101 3.81531 15.2515 3.65674 15.056 3.65674C14.8602 3.65674 14.7017 3.81531 14.7017 4.01086V5.63647C14.7017 5.83221 14.8602 5.99078 15.056 5.99078Z" fill="black"/>
<path d="M22.6256 12.9366C23.3835 12.9366 24 12.3195 24 11.5611V8.47652C24 7.71828 23.3835 7.10122 22.6256 7.10122H21.1218C20.3639 7.10122 19.7474 7.71828 19.7474 8.47652V11.5611C19.7474 12.3195 20.3639 12.9366 21.1218 12.9366H21.5195V17.8973H21.2261C21.1247 17.8973 21.0262 17.9101 20.9323 17.9341L20.5942 16.5022C20.2015 14.8372 18.8187 13.9369 16.4841 13.8263C16.4824 13.8261 16.4808 13.8261 16.4791 13.8261C16.2911 13.8199 16.1305 13.786 15.9886 13.7186C15.9831 13.7161 15.9778 13.7132 15.9721 13.7108C15.8031 13.6269 15.6605 13.4936 15.5292 13.3008C15.6046 13.2428 15.6793 13.1834 15.7516 13.1215C16.7758 12.2472 17.3395 11.138 17.3395 9.99776V7.71718C17.3448 7.68221 17.3447 7.6476 17.3395 7.6141V5.28884C18.0029 4.80251 18.2767 4.10726 18.0734 3.39663C17.8257 2.53036 16.9415 1.92538 15.9229 1.92538H14.9236C14.6155 1.21438 13.9453 0.751486 13.0827 0.668906C12.0368 0.56893 11.0189 1.06808 10.4813 1.92538H9.52679C8.49353 1.92538 7.59631 2.53933 7.34491 3.41842C7.14404 4.12136 7.41284 4.80837 8.06653 5.28866V9.37411V9.3774V10.1816C8.06653 11.376 8.79419 12.3157 9.40466 12.8934C9.55096 13.032 9.70587 13.1638 9.86664 13.2884C9.7326 13.4887 9.58685 13.6265 9.4129 13.7122C9.41235 13.7126 9.41199 13.7128 9.41144 13.713C9.26642 13.7842 9.10199 13.8197 8.90845 13.8261C8.9068 13.8261 8.90515 13.8263 8.9035 13.8263C8.54517 13.8433 8.20935 13.879 7.89606 13.9332C7.89478 13.9334 7.89349 13.9336 7.89221 13.934C6.35046 14.2015 5.35455 14.9189 4.92224 16.0747H1.19733C0.537048 16.0747 0 16.6126 0 17.274C0 17.9347 0.537048 18.4722 1.19733 18.4722H2.11798C2.47211 19.2957 3.01996 19.997 3.7196 20.5256H3.37518C2.79803 20.5256 2.32855 20.9954 2.32855 21.573V22.2964C2.32855 22.8739 2.79803 23.3438 3.37518 23.3438H5.44995C5.64551 23.3438 5.80408 23.1852 5.80408 22.9896C5.80408 22.7939 5.64551 22.6353 5.44995 22.6353H3.37518C3.1886 22.6353 3.03699 22.4834 3.03699 22.2964V21.573C3.03699 21.386 3.18878 21.234 3.37518 21.234H10.7531C10.9158 21.234 11.0521 21.3498 11.0843 21.5036C11.0854 21.5153 11.0872 21.5268 11.0896 21.5384C11.0909 21.5497 11.0914 21.5612 11.0914 21.573V22.2964C11.0914 22.4834 10.9396 22.6353 10.7531 22.6353H7.06348C6.86792 22.6353 6.70935 22.7939 6.70935 22.9896C6.70935 23.1852 6.86792 23.3438 7.06348 23.3438H10.7531C11.3304 23.3438 11.7999 22.8739 11.7999 22.2964V21.82H20.0407C20.0704 22.4495 20.5906 22.9523 21.226 22.9523H21.8736C22.8851 22.9523 23.7079 22.1289 23.7079 21.1167V19.7329C23.7079 18.8421 23.0704 18.0976 22.2277 17.9321V12.9366H22.6256ZM19.9047 16.665L20.3005 18.3428C20.1374 18.5462 20.0394 18.8042 20.0394 19.0849V21.1115H19.032L18.4528 17.7578C18.3812 17.3308 18.136 17.0091 17.8048 16.8754V14.7219C18.9774 15.0222 19.6686 15.6641 19.9047 16.665ZM17.0964 14.5897V16.8075H16.1885V14.5095C16.2722 14.5225 16.3601 14.5309 16.4529 14.534C16.6787 14.5448 16.8928 14.5637 17.0964 14.5897ZM13.771 16.8075C13.5886 16.3772 13.1624 16.0747 12.6667 16.0747H9.93512V14.9951C10.6108 15.4882 11.5909 15.7085 12.4499 15.7414C12.525 15.7443 12.6015 15.7458 12.6791 15.7458C13.6139 15.7458 14.7191 15.5312 15.4801 14.9643V16.8075H13.771ZM12.0612 17.4946C12.1194 17.2312 12.1271 16.9896 12.0861 16.7829H12.6667C12.937 16.7829 13.1569 17.0032 13.1569 17.274C13.1569 17.5441 12.937 17.7636 12.6667 17.7636H11.9936C12.0183 17.6748 12.041 17.5853 12.0612 17.4946ZM16.6311 7.949V8.90371C16.2753 8.74953 15.8177 8.42672 15.7493 7.77743C16.0437 7.82741 16.3378 7.88473 16.6311 7.949ZM9.64178 7.77779C9.57349 8.41262 9.13147 8.73617 8.77496 8.89528V7.94826C9.06335 7.88436 9.35248 7.8276 9.64178 7.77779ZM8.77496 10.1816V9.65041C8.99451 9.57882 9.29425 9.45193 9.57477 9.23531C9.93713 8.95589 10.3425 8.4659 10.3599 7.66866C10.8935 7.59835 11.4265 7.55184 11.9555 7.53023C12.1511 7.52236 12.303 7.35738 12.2952 7.16201C12.2871 6.96645 12.1212 6.81521 11.9268 6.82235C11.2755 6.8489 10.6187 6.91152 9.96185 7.00893C9.95892 7.00912 9.95599 7.00912 9.95306 7.00948C9.94043 7.01095 9.92816 7.01296 9.91589 7.01552C9.53522 7.07302 9.15454 7.14223 8.77478 7.22317V5.10097C8.77478 4.97866 8.71179 4.86495 8.60779 4.80031C8.1037 4.48629 7.89697 4.06478 8.02625 3.61306C8.16522 3.12655 8.72534 2.63381 9.52679 2.63381H10.687C10.8199 2.63381 10.9417 2.55947 11.0023 2.44118C11.4272 1.6119 12.3192 1.30758 13.0151 1.37423C13.6772 1.43758 14.1707 1.81295 14.3351 2.37856C14.3791 2.52981 14.5177 2.63381 14.6754 2.63381H15.9229C16.7443 2.63381 17.2603 3.13039 17.3921 3.59164C17.5214 4.04409 17.3049 4.48464 16.7981 4.80031C16.6941 4.86495 16.6311 4.97866 16.6311 5.10097V7.22335C16.2493 7.14315 15.8665 7.07503 15.4836 7.01772C15.4689 7.01424 15.4539 7.01113 15.4385 7.00948C15.4338 7.00893 15.429 7.00893 15.4243 7.00857C14.8275 6.92123 14.231 6.86117 13.639 6.83059C13.4445 6.82033 13.277 6.97066 13.2669 7.16604C13.2568 7.36141 13.4072 7.52804 13.6025 7.53811C14.0764 7.56246 14.5536 7.60732 15.0315 7.66976C15.0485 8.50143 15.4856 9.00094 15.876 9.282C16.1462 9.47646 16.426 9.59072 16.6311 9.65572V9.99776C16.6311 10.9272 16.1554 11.8453 15.2917 12.5828C14.5241 13.238 13.5192 13.6745 12.6696 13.7219C12.6489 13.723 12.6275 13.7238 12.6053 13.7238C12.1084 13.7236 11.3071 13.4347 10.5524 12.913C10.5408 12.9038 10.5286 12.8956 10.5161 12.8879C10.301 12.7368 10.0902 12.5667 9.89172 12.3789C9.38232 11.8967 8.77496 11.124 8.77496 10.1816ZM12.6055 14.4322C12.6405 14.4322 12.6751 14.4311 12.7088 14.4293C13.4344 14.3888 14.2242 14.1251 14.9423 13.6989C15.0467 13.8523 15.1756 14.0052 15.3378 14.1374C14.7596 14.8074 13.5341 15.074 12.4772 15.0335C11.3787 14.9914 10.455 14.6408 10.0521 14.1356C10.2158 14.0015 10.3453 13.8466 10.4502 13.6914C11.196 14.1493 11.9912 14.4322 12.6055 14.4322ZM8.93463 14.5342C9.0379 14.5305 9.13495 14.5203 9.22687 14.5047V16.0747H8.31903V14.586C8.51422 14.562 8.71912 14.5445 8.93463 14.5342ZM7.6106 14.7147V16.0747H5.69495C6.03735 15.3994 6.67108 14.9489 7.6106 14.7147ZM1.19733 17.7636C0.927795 17.7636 0.708435 17.5441 0.708435 17.274C0.708435 17.0032 0.927795 16.7829 1.19733 16.7829H1.77832C1.73712 16.9896 1.74481 17.2312 1.80304 17.4946V17.4952C1.82318 17.5858 1.84607 17.6752 1.87024 17.7636H1.19733ZM5.14178 20.5256C3.78534 19.9702 2.82239 18.8134 2.49481 17.3418C2.43475 17.0706 2.46295 16.878 2.5144 16.8137C2.52191 16.8045 2.53912 16.7831 2.61658 16.7831H5.17657H5.17786H5.17896H11.2474C11.3254 16.7831 11.3428 16.8045 11.3502 16.8137C11.4014 16.8776 11.4293 17.07 11.3694 17.3416C11.053 18.7709 10.079 19.9563 8.75739 20.5256H5.14178ZM11.6926 21.1115C11.5217 20.7647 11.1649 20.5256 10.7532 20.5256H10.1422C10.836 19.9907 11.3875 19.2843 11.7424 18.4721H12.6667C13.2449 18.4721 13.7287 18.061 13.8409 17.5157H17.4505C17.6869 17.5157 17.7479 17.8382 17.7543 17.8766L18.3131 21.1115H11.6926ZM22.9995 19.7329V21.1167C22.9995 21.7381 22.4945 22.2439 21.8736 22.2439H21.2261C20.9623 22.2439 20.7477 22.0283 20.7477 21.7634V19.0849C20.7477 18.9386 20.8136 18.8077 20.9171 18.7198C20.9203 18.7172 20.9235 18.7147 20.9266 18.7119C21.0086 18.6457 21.1128 18.6057 21.226 18.6057H21.8736C22.4945 18.6057 22.9995 19.1115 22.9995 19.7329ZM20.4556 11.5611V8.47652C20.4556 8.10885 20.7545 7.80965 21.1218 7.80965H22.6256C22.9927 7.80965 23.2916 8.10885 23.2916 8.47652V11.5611C23.2916 11.929 22.9927 12.2282 22.6256 12.2282H21.1218C20.7545 12.2282 20.4556 11.929 20.4556 11.5611Z" fill="black"/>
</g>
<defs>
<clipPath id="clip0">
<rect width="24" height="24" fill="white"/>
</clipPath>
</defs>
</svg>
