<svg width="24" height="24" viewBox="0 0 24 24" fill="none" xmlns="http://www.w3.org/2000/svg">
<g clip-path="url(#clip0)">
<path d="M16.0312 0.46875H12V2.34375H16.0312V0.46875Z" fill="#72D8FF"/>
<path d="M17.625 9.51563L12 3.89062L6.375 9.51563V23.5312H17.625V9.51563Z" fill="#FEDA9B"/>
<path d="M23.5312 12.2812H17.625V23.5312H23.5312V12.2812Z" fill="#FFB954"/>
<path d="M6.375 12.2812H0.46875V23.5312H6.375V12.2812Z" fill="#FFB954"/>
<path d="M23.5312 9.65625H17.625V12.2812H23.5312V9.65625Z" fill="#FF5D5D"/>
<path d="M6.375 9.65625H0.46875V12.2812H6.375V9.65625Z" fill="#FF5D5D"/>
<path d="M15.75 17.9062H8.25V23.5312H15.75V17.9062Z" fill="#C9F3FF"/>
<path d="M15.75 14.1562H8.25V16.0312H15.75V14.1562Z" fill="#C9F3FF"/>
<path d="M4.35938 14.1562H2.48438V16.0312H4.35938V14.1562Z" fill="#C9F3FF"/>
<path d="M4.35938 19.125H2.48438V21H4.35938V19.125Z" fill="#C9F3FF"/>
<path d="M21.4258 14.1562H19.5508V16.0312H21.4258V14.1562Z" fill="#C9F3FF"/>
<path d="M21.4258 19.125H19.5508V21H21.4258V19.125Z" fill="#C9F3FF"/>
<path d="M11.9768 11.2558C12.8604 11.2558 13.5766 10.5396 13.5766 9.656C13.5766 8.77243 12.8604 8.05615 11.9768 8.05615C11.0932 8.05615 10.377 8.77243 10.377 9.656C10.377 10.5396 11.0932 11.2558 11.9768 11.2558Z" fill="#FF5D5D"/>
<path d="M9 7.35938C9.12328 7.35938 9.24422 7.30922 9.33141 7.22203C9.41859 7.13484 9.46875 7.01391 9.46875 6.89062C9.46875 6.76734 9.41859 6.64641 9.33141 6.55922C9.24422 6.47203 9.12328 6.42188 9 6.42188C8.87672 6.42188 8.75578 6.47203 8.66859 6.55922C8.58141 6.64641 8.53125 6.76734 8.53125 6.89062C8.53125 7.01391 8.58141 7.13484 8.66859 7.22203C8.75578 7.30917 8.87672 7.35938 9 7.35938Z" fill="black"/>
<path d="M23.5312 9.18848H17.9595C17.9584 9.1874 17.9575 9.18618 17.9565 9.18515L12.4688 3.6974V2.81348H16.0312C16.2901 2.81348 16.5 2.60362 16.5 2.34473V0.469727C16.5 0.210836 16.2901 0.000976562 16.0312 0.000976562H12C11.7411 0.000976562 11.5312 0.210836 11.5312 0.469727V3.6974L9.71737 5.51127C9.53433 5.69432 9.53433 5.99113 9.71737 6.17423C9.90042 6.35727 10.1972 6.35727 10.3803 6.17423L12 4.55451L17.1562 9.71076V23.0634H16.2188V17.9072C16.2188 17.6483 16.0089 17.4384 15.75 17.4384H8.25C7.99111 17.4384 7.78125 17.6483 7.78125 17.9072V23.0634H6.84375V9.71076L8.26505 8.28946C8.44809 8.10641 8.44809 7.8096 8.26505 7.62651C8.082 7.44346 7.78519 7.44346 7.60209 7.62651L6.0435 9.1851C6.04242 9.18618 6.04153 9.18735 6.04045 9.18843H0.46875C0.209859 9.18843 0 9.39829 0 9.65718V23.5322C0 23.791 0.209859 24.0009 0.46875 24.0009H23.5312C23.7901 24.0009 24 23.791 24 23.5322V9.65723C24 9.39834 23.7901 9.18848 23.5312 9.18848ZM15.5625 1.87598H12.4688V0.938477H15.5625V1.87598ZM0.9375 10.126H5.90625V11.8135H0.9375V10.126ZM0.9375 12.7509H5.90625V23.0634H0.9375V12.7509ZM23.0625 11.8135H18.0938V10.126H23.0625V11.8135ZM8.71875 18.3759H11.5312V23.0634H8.71875V18.3759ZM12.4688 23.0634V18.3759H15.2812V23.0634H12.4688ZM23.0625 23.0634H18.0938V12.7509H23.0625V23.0634Z" fill="black"/>
<path d="M14.0471 9.65634C14.0471 8.51578 13.1192 7.58789 11.9786 7.58789C10.838 7.58789 9.91016 8.51578 9.91016 9.65634C9.91016 10.7969 10.838 11.7248 11.9786 11.7248C13.1192 11.7248 14.0471 10.7969 14.0471 9.65634ZM11.9786 10.7873C11.355 10.7873 10.8477 10.28 10.8477 9.65634C10.8477 9.03272 11.355 8.52539 11.9786 8.52539C12.6022 8.52539 13.1096 9.03272 13.1096 9.65634C13.1096 10.28 12.6022 10.7873 11.9786 10.7873Z" fill="black"/>
<path d="M7.78125 14.1562V16.0312C7.78125 16.2901 7.99111 16.5 8.25 16.5H15.75C16.0089 16.5 16.2188 16.2901 16.2188 16.0312V14.1562C16.2188 13.8974 16.0089 13.6875 15.75 13.6875H14.0391C13.7802 13.6875 13.5703 13.8974 13.5703 14.1562C13.5703 14.4151 13.7802 14.625 14.0391 14.625H15.2812V15.5625H8.71875V14.625H10.0781C10.337 14.625 10.5469 14.4151 10.5469 14.1562C10.5469 13.8974 10.337 13.6875 10.0781 13.6875H8.25C7.99111 13.6875 7.78125 13.8975 7.78125 14.1562Z" fill="black"/>
<path d="M11.6471 13.8248C11.5599 13.912 11.5098 14.033 11.5098 14.1562C11.5098 14.2795 11.5599 14.4005 11.6471 14.4876C11.7343 14.5748 11.8552 14.625 11.9785 14.625C12.1018 14.625 12.2227 14.5748 12.3104 14.4876C12.3976 14.4005 12.4473 14.2795 12.4473 14.1562C12.4473 14.033 12.3976 13.912 12.3104 13.8248C12.2227 13.7377 12.1023 13.6875 11.9785 13.6875C11.8552 13.6875 11.7343 13.7377 11.6471 13.8248Z" fill="black"/>
<path d="M4.35938 13.6875H2.48438C2.22548 13.6875 2.01562 13.8974 2.01562 14.1562V16.0312C2.01562 16.2901 2.22548 16.5 2.48438 16.5H4.35938C4.61827 16.5 4.82812 16.2901 4.82812 16.0312V14.1562C4.82812 13.8975 4.61827 13.6875 4.35938 13.6875ZM3.89062 15.5625H2.95312V14.625H3.89062V15.5625Z" fill="black"/>
<path d="M4.35938 18.6562H2.48438C2.22548 18.6562 2.01562 18.8662 2.01562 19.125V21C2.01562 21.2588 2.22548 21.4688 2.48438 21.4688H4.35938C4.61827 21.4688 4.82812 21.2588 4.82812 21V19.125C4.82812 18.8662 4.61827 18.6562 4.35938 18.6562ZM3.89062 20.5312H2.95312V19.5938H3.89062V20.5312Z" fill="black"/>
<path d="M19.5508 16.5H21.4258C21.6847 16.5 21.8945 16.2901 21.8945 16.0312V14.1562C21.8945 13.8974 21.6847 13.6875 21.4258 13.6875H19.5508C19.2919 13.6875 19.082 13.8974 19.082 14.1562V16.0312C19.082 16.2901 19.2919 16.5 19.5508 16.5ZM20.0195 14.625H20.957V15.5625H20.0195V14.625Z" fill="black"/>
<path d="M19.5508 21.4688H21.4258C21.6847 21.4688 21.8945 21.2588 21.8945 21V19.125C21.8945 18.8662 21.6847 18.6562 21.4258 18.6562H19.5508C19.2919 18.6562 19.082 18.8662 19.082 19.125V21C19.082 21.2589 19.2919 21.4688 19.5508 21.4688ZM20.0195 19.5938H20.957V20.5312H20.0195V19.5938Z" fill="black"/>
</g>
<defs>
<clipPath id="clip0">
<rect width="24" height="24" fill="white"/>
</clipPath>
</defs>
</svg>
