<svg width="24" height="24" viewBox="0 0 24 24" fill="none" xmlns="http://www.w3.org/2000/svg">
<g clip-path="url(#clip0)">
<path d="M4.31285 23.6481C2.89081 23.6481 1.73636 22.4804 1.75811 21.0534C1.77949 19.6515 2.9495 18.5381 4.35162 18.5381H21.5416C21.93 18.5381 22.2448 18.8529 22.2448 19.2413C22.2448 19.6297 21.93 19.9445 21.5416 19.9445H19.933V22.2417H21.5416C21.93 22.2417 22.2448 22.5565 22.2448 22.9449C22.2448 23.3333 21.93 23.6481 21.5416 23.6481H4.31285Z" fill="#FF6D50"/>
<path d="M19.666 19.9445H21.5413C21.9296 19.9445 22.2445 19.6297 22.2445 19.2413C22.2445 18.8529 21.9296 18.5381 21.5413 18.5381H19.666C20.0544 18.5381 20.3692 18.8529 20.3692 19.2413C20.3692 19.6297 20.0544 19.9445 19.666 19.9445Z" fill="#E86348"/>
<path d="M21.5413 22.2417H19.666C20.0544 22.2417 20.3692 22.5566 20.3692 22.9449C20.3692 23.3333 20.0544 23.6481 19.666 23.6481H21.5413C21.9296 23.6481 22.2445 23.3333 22.2445 22.9449C22.2445 22.5566 21.9296 22.2417 21.5413 22.2417Z" fill="#E86348"/>
<path d="M21.0726 22.2415H4.31265C3.6783 22.2415 3.16406 21.7273 3.16406 21.0929C3.16406 20.4586 3.6783 19.9443 4.31265 19.9443H21.0726V22.2415Z" fill="#EBF3FF"/>
<path d="M19.1973 19.9443H21.0725V22.2415H19.1973V19.9443Z" fill="#E0EDFF"/>
<path d="M12.0008 10.2291C12.8038 10.2291 13.4547 9.57819 13.4547 8.77521C13.4547 7.97223 12.8038 7.32129 12.0008 7.32129C11.1978 7.32129 10.5469 7.97223 10.5469 8.77521C10.5469 9.57819 11.1978 10.2291 12.0008 10.2291Z" fill="#FF6D50"/>
<path d="M12.0004 7.32129C11.7355 7.32129 11.4874 7.3925 11.2734 7.51627C11.7079 7.76769 12.0004 8.23716 12.0004 8.77521C12.0004 9.31326 11.7079 9.78273 11.2734 10.0342C11.4874 10.158 11.7355 10.2291 12.0004 10.2291C12.8034 10.2291 13.4543 9.57819 13.4543 8.77521C13.4543 7.97223 12.8034 7.32129 12.0004 7.32129Z" fill="#E86348"/>
<path d="M10.1749 2.70227C10.5487 2.70227 10.8517 2.39925 10.8517 2.02545C10.8517 1.65166 10.5487 1.34863 10.1749 1.34863C9.80107 1.34863 9.49805 1.65166 9.49805 2.02545C9.49805 2.39925 9.80107 2.70227 10.1749 2.70227Z" fill="#FFDA03"/>
<path d="M18.7608 11.2448C19.1346 11.2448 19.4376 10.9417 19.4376 10.5679C19.4376 10.1941 19.1346 9.89111 18.7608 9.89111C18.387 9.89111 18.084 10.1941 18.084 10.5679C18.084 10.9417 18.387 11.2448 18.7608 11.2448Z" fill="#FFDA03"/>
<path d="M7.0694 14.4088C7.4432 14.4088 7.74622 14.1058 7.74622 13.732C7.74622 13.3582 7.4432 13.0552 7.0694 13.0552C6.6956 13.0552 6.39258 13.3582 6.39258 13.732C6.39258 14.1058 6.6956 14.4088 7.0694 14.4088Z" fill="#FFDA03"/>
<path d="M21.5418 20.2962C22.9346 20.2457 22.9429 18.2406 21.5418 18.1866H4.35175C1.7838 18.1725 0.423076 21.314 2.24286 23.1318C2.79409 23.6916 3.52927 23.9998 4.31298 23.9998H21.5418C23.0096 23.928 22.9036 21.8186 21.4246 21.8902V20.2962H21.5418ZM21.8934 22.945C21.8934 23.1389 21.7356 23.2966 21.5418 23.2966H4.31298C3.11855 23.322 2.06565 22.2536 2.10986 21.0588C2.12809 19.8629 3.13383 18.8898 4.35175 18.8898H21.5418C21.9982 18.902 22.0137 19.5759 21.5418 19.593H4.31298C3.48577 19.593 2.81279 20.266 2.81279 21.0932C2.81279 21.9204 3.48577 22.5934 4.31298 22.5934H17.3299C17.7845 22.5934 17.7845 21.8902 17.3299 21.8902H4.31298C3.87352 21.8902 3.51601 21.5327 3.51601 21.0932C3.51601 20.6537 3.87352 20.2962 4.31298 20.2962H20.7213V21.8902H19.2034C18.7488 21.8902 18.7488 22.5934 19.2034 22.5934H21.5418C21.7356 22.5934 21.8934 22.7511 21.8934 22.945Z" fill="black"/>
<path d="M12.0024 10.5807C12.998 10.5807 13.8079 9.77075 13.8079 8.77519C13.8079 7.67611 12.7835 6.812 11.6998 6.99535C11.5084 7.0277 11.3794 7.20917 11.4117 7.40064C11.4441 7.5921 11.6256 7.72121 11.817 7.68872C12.4778 7.5771 13.1047 8.1024 13.1047 8.77519C13.1047 9.383 12.6102 9.8775 12.0024 9.8775C11.3605 9.8775 10.843 9.30293 10.9055 8.66638C10.9245 8.47313 10.7832 8.30108 10.5899 8.28209C10.3966 8.26339 10.2246 8.4044 10.2056 8.5977C10.1033 9.64127 10.9523 10.5807 12.0024 10.5807Z" fill="black"/>
<path d="M5.47156 9.62451C3.67461 11.6931 3.69294 13.8174 6.10984 14.0968C6.47936 15.0236 7.79212 14.9539 8.06403 13.9955C8.40725 13.9346 8.76275 13.8543 9.12785 13.7552C10.428 18.8185 13.5799 18.8111 14.8771 13.7545C15.6672 13.9709 16.5468 14.1297 17.3087 14.1279C19.3852 14.1641 20.3126 12.8993 19.5572 11.2177C20.1886 10.445 19.4441 9.31495 18.4923 9.57599C18.268 9.30914 18.0207 9.0415 17.7523 8.77484C21.4872 5.11723 19.9048 2.39128 14.8771 3.79612C14.7746 3.40789 14.6596 3.03941 14.5323 2.69483C13.6395 0.104891 11.7914 -0.941916 10.3407 1.01068C9.35518 0.852409 8.74868 2.05946 9.45077 2.75461C9.33183 3.08226 9.22377 3.43026 9.12701 3.79598C4.09194 2.39025 2.52246 5.1236 6.25297 8.77535C5.96798 9.05819 5.70634 9.34205 5.47156 9.62451ZM7.23311 14.014C7.15791 14.0574 7.07025 14.069 6.98633 14.0465C6.7997 13.9772 6.72304 13.8445 6.75638 13.6482C6.80401 13.4706 6.98689 13.3733 7.15468 13.4182C7.43015 13.4858 7.48177 13.8769 7.23311 14.014ZM13.8727 14.6122C12.3616 18.5996 10.5791 16.6054 9.80191 13.5545C10.5135 13.3248 11.2534 13.0309 12.0033 12.6794C12.7515 13.0298 13.4915 13.3238 14.2032 13.5537C14.105 13.9275 13.9948 14.2817 13.8727 14.6122ZM9.24253 8.77535C9.24253 8.24743 9.26156 7.72409 9.29803 7.21206C10.1615 6.62979 11.0664 6.10745 12.0024 5.65083C12.9394 6.10791 13.8449 6.63078 14.7084 7.21492C14.7809 8.25389 14.7809 9.29869 14.7083 10.3377C13.8439 10.9206 12.9384 11.4433 12.0007 11.8991C11.0647 11.4424 10.1599 10.92 9.29644 10.3377C9.2609 9.82825 9.24253 9.30581 9.24253 8.77535ZM8.56256 9.81935C8.10163 9.47829 7.67098 9.1286 7.27723 8.77535C7.67098 8.4221 8.10158 8.07246 8.56252 7.73141C8.53162 8.42684 8.53148 9.12391 8.56256 9.81935ZM9.38097 6.31668C9.44627 5.74834 9.53399 5.20072 9.64228 4.684C10.1443 4.84822 10.6617 5.04606 11.1866 5.27437C10.5697 5.59461 9.96684 5.94266 9.38097 6.31668ZM12.8182 5.27432C13.3441 5.04568 13.8622 4.84757 14.365 4.6832C14.4741 5.20081 14.5616 5.74857 14.6265 6.31822C14.0396 5.94378 13.436 5.59508 12.8182 5.27432ZM15.4424 7.73445C15.9019 8.07518 16.3324 8.42496 16.7257 8.77709C16.3325 9.12973 15.9025 9.47885 15.4423 9.81935C15.4733 9.12494 15.4733 8.42881 15.4424 7.73445ZM14.6264 11.2323C14.5616 11.802 14.474 12.3498 14.365 12.8675C13.8622 12.7031 13.3441 12.505 12.8183 12.2764C13.436 11.9554 14.0398 11.607 14.6264 11.2323ZM10.2709 11.7745C10.5745 11.9498 10.8792 12.1167 11.1839 12.2749C10.659 12.5025 10.1409 12.7004 9.63928 12.8649C9.53052 12.348 9.44318 11.8011 9.37839 11.2323C9.66853 11.4177 9.96637 11.5987 10.2709 11.7745ZM18.9239 10.2864C19.1726 10.4235 19.1209 10.8145 18.8455 10.8821C18.672 10.9286 18.4937 10.8256 18.4472 10.6521C18.4139 10.4559 18.4905 10.3231 18.6771 10.2538C18.7616 10.2316 18.8438 10.2424 18.9239 10.2864ZM17.9161 9.98352C17.3939 10.7303 18.0574 11.7367 18.9462 11.5794C19.8741 13.8376 16.833 13.5917 15.0402 13.0704C15.197 12.3388 15.3124 11.5507 15.3831 10.7272C16.0605 10.2545 16.685 9.76089 17.2399 9.25963C17.4855 9.50201 17.7119 9.74401 17.9161 9.98352ZM16.1221 4.23713C20.3309 3.55219 19.4951 6.09291 17.2416 8.2914C16.6869 7.78996 16.0624 7.29616 15.383 6.82257C15.3123 5.99939 15.1969 5.21155 15.0402 4.48021C15.413 4.37833 15.7749 4.29667 16.1221 4.23713ZM10.1755 1.70044C10.6052 1.71408 10.6051 2.33723 10.1755 2.35087C9.74565 2.33718 9.74579 1.71404 10.1755 1.70044ZM10.0917 3.05033C10.9901 3.12403 11.5523 2.03948 10.9586 1.36008C12.4503 -0.573196 13.7582 2.18355 14.2031 3.99696C13.4912 4.22695 12.7509 4.52109 12.0024 4.87161C11.2544 4.52132 10.5146 4.22733 9.80313 3.99742C9.89014 3.66372 9.98643 3.34681 10.0917 3.05033ZM6.01238 7.47665C3.31479 4.17431 5.93305 3.62763 8.96377 4.48002C8.80686 5.21117 8.69149 5.99892 8.62102 6.82402C7.94345 7.29682 7.31886 7.79066 6.76388 8.2921C6.4892 8.02015 6.23755 7.74758 6.01238 7.47665ZM8.62173 10.7272C8.69238 11.5501 8.80766 12.3378 8.96429 13.069C8.63157 13.1605 8.30875 13.2356 7.99924 13.2927C7.6136 12.4674 6.4103 12.5376 6.10257 13.3868C3.68234 13.0618 5.41595 10.5506 6.76383 9.25865C7.31904 9.76018 7.94387 10.2542 8.62173 10.7272Z" fill="black"/>
<path d="M22.2461 7.01855C22.052 7.01855 21.8945 7.17598 21.8945 7.37016V7.92003C21.9088 8.38462 22.5834 8.38481 22.5978 7.92003V7.37016C22.5978 7.17598 22.4404 7.01855 22.2461 7.01855Z" fill="black"/>
<path d="M22.2461 9.2793C22.052 9.2793 21.8945 9.43672 21.8945 9.6309V10.1808C21.9088 10.6454 22.5834 10.6455 22.5978 10.1808V9.6309C22.5978 9.43672 22.4404 9.2793 22.2461 9.2793Z" fill="black"/>
<path d="M23.6515 8.42383H23.1016C22.9074 8.42383 22.75 8.58125 22.75 8.77543C22.75 8.96961 22.9074 9.12704 23.1016 9.12704H23.6515C24.1161 9.11274 24.1162 8.43813 23.6515 8.42383Z" fill="black"/>
<path d="M20.8407 9.12704H21.3906C21.5847 9.12704 21.7422 8.96961 21.7422 8.77543C21.7422 8.58125 21.5847 8.42383 21.3906 8.42383H20.8407C20.3761 8.43808 20.3759 9.11269 20.8407 9.12704Z" fill="black"/>
<path d="M2.09379 2.55565C2.28798 2.55565 2.4454 2.39823 2.4454 2.20405V1.65418C2.4311 1.18959 1.75653 1.1894 1.74219 1.65418V2.20405C1.74219 2.39823 1.89961 2.55565 2.09379 2.55565Z" fill="black"/>
<path d="M2.09379 4.8164C2.28798 4.8164 2.4454 4.65897 2.4454 4.46479V3.91492C2.4311 3.45033 1.75653 3.45014 1.74219 3.91492V4.46479C1.74219 4.65897 1.89961 4.8164 2.09379 4.8164Z" fill="black"/>
<path d="M2.94812 3.41123H3.49803C3.69222 3.41123 3.84964 3.2538 3.84964 3.05962C3.84964 2.86543 3.69222 2.70801 3.49803 2.70801H2.94812C2.48353 2.72231 2.48334 3.39688 2.94812 3.41123Z" fill="black"/>
<path d="M0.688357 3.41123H1.23823C1.43241 3.41123 1.58983 3.2538 1.58983 3.05962C1.58983 2.86543 1.43241 2.70801 1.23823 2.70801H0.688357C0.223766 2.72231 0.223579 3.39688 0.688357 3.41123Z" fill="black"/>
<path d="M1.40625 13.0038V13.5537C1.40625 13.7479 1.56368 13.9053 1.75786 13.9053C1.95204 13.9053 2.10947 13.7479 2.10947 13.5537V13.0038C2.09517 12.5392 1.42055 12.539 1.40625 13.0038Z" fill="black"/>
<path d="M2.10947 15.8146V15.2647C2.10947 15.0705 1.95204 14.9131 1.75786 14.9131C1.56368 14.9131 1.40625 15.0705 1.40625 15.2647V15.8146C1.4205 16.2791 2.09512 16.2793 2.10947 15.8146Z" fill="black"/>
<path d="M2.61219 14.0576C2.14759 14.0719 2.14741 14.7465 2.61219 14.7608H3.16206C3.35624 14.7608 3.51366 14.6034 3.51366 14.4092C3.51366 14.215 3.35624 14.0576 3.16206 14.0576H2.61219Z" fill="black"/>
<path d="M0.901475 14.0576H0.351608C0.157427 14.0576 0 14.215 0 14.4092C0 14.6034 0.157427 14.7608 0.351608 14.7608H0.901475C1.36611 14.7465 1.3663 14.0719 0.901475 14.0576Z" fill="black"/>
</g>
<defs>
<clipPath id="clip0">
<rect width="24" height="24" fill="white"/>
</clipPath>
</defs>
</svg>
