<svg width="24" height="24" viewBox="0 0 24 24" fill="none" xmlns="http://www.w3.org/2000/svg">
<g clip-path="url(#clip0)">
<path d="M17.1075 11.7817L19.5381 9.3512L15.9164 5.72955H13.3149V4.76642C13.1407 4.94037 12.9622 5.11908 12.7397 5.34137H11.2339L10.6588 4.76624V5.72955H8.05719L4.43555 9.35101L6.86609 11.7816L8.30402 10.3436L7.3114 9.35101L9.13916 7.52325C9.23987 7.565 9.24738 7.56812 9.34808 7.60986V14.8453L7.97095 19.9889H10.0688L11.4338 14.8453H12.5398L13.9047 19.9889H16.0027L14.6255 14.8453V7.60986C14.7263 7.56812 14.7338 7.56519 14.8345 7.52344L16.662 9.35101L15.6696 10.3436L17.1075 11.7817Z" fill="#FFB655"/>
<path d="M13.9471 7.74225C13.9471 8.3075 13.489 8.76562 12.9238 8.76562C12.3585 8.76562 11.9004 8.3075 11.9004 7.74225C11.9004 7.177 12.3585 6.71887 12.9238 6.71887C13.489 6.71887 13.9471 7.177 13.9471 7.74225Z" fill="#FF7956"/>
<path d="M10.7541 7.60986C10.6534 7.56812 10.6459 7.56519 10.5452 7.52344L9.34784 8.72076V14.8453L7.9707 19.9889H9.37695L10.7541 14.8453V7.60986Z" fill="#FF7956"/>
<path d="M5.8418 9.3512L9.46344 5.72955H8.05719L4.43555 9.3512L6.86609 11.7817L7.56921 11.0786L5.8418 9.3512Z" fill="#FF7956"/>
<path d="M14.0106 2.37543V4.07043C13.5144 4.56683 13.2361 4.84515 12.7397 5.34137H11.2338C10.7376 4.84515 10.4593 4.56683 9.96289 4.07043V2.37543C9.96289 1.25775 10.8691 0.351562 11.9868 0.351562C13.1046 0.351562 14.0106 1.25775 14.0106 2.37543Z" fill="#FFDAAA"/>
<path d="M14.623 11.3888V12.4671L15.5217 13.366L17.1061 11.7816L15.668 10.3436L14.623 11.3888Z" fill="#FFDAAA"/>
<path d="M9.34814 11.3888V12.4671L8.44946 13.366L6.86523 11.7816L8.30316 10.3436L9.34814 11.3888Z" fill="#FFDAAA"/>
<path d="M14.7253 23.083C14.9987 23.2934 15.187 23.4382 15.4603 23.6484H16.9819L16.0021 19.9889H13.9043L14.7253 23.083Z" fill="#A4E276"/>
<path d="M6.99023 23.6484H8.51019C8.7843 23.4377 8.97327 23.2923 9.24719 23.0814L10.0681 19.9889H7.97003L6.99023 23.6484Z" fill="#A4E276"/>
<path d="M9.34766 12.2886H14.6251V13.5736H9.34766V12.2886Z" fill="#A4E276"/>
<path d="M9.34705 11.3877L8.11823 10.1589L8.73914 7.92242L9.13812 7.52344C9.23883 7.56519 9.24634 7.5683 9.34705 7.61005V11.3877ZM9.34705 14.8453V12.4682L8.44928 13.366L7.49329 12.4098L5.30078 20.3062L7.72125 20.9172L9.34705 14.8453ZM15.2324 7.92242L14.8334 7.52344C14.7327 7.56519 14.7252 7.5683 14.6245 7.60986V11.3877L15.8533 10.1589L15.2324 7.92242ZM15.5223 13.366L14.6247 12.4682V14.8455L16.2503 20.9172L18.6708 20.3062L16.4785 12.4098L15.5223 13.366ZM12.5388 14.8455H11.4328L9.68964 21.4142L10.2943 21.5669C11.4046 21.847 12.5671 21.847 13.6775 21.5669L14.2821 21.4142L12.5388 14.8455Z" fill="#A4E276"/>
<path d="M11.3691 2.37543C11.3691 1.50494 11.9188 0.762817 12.6899 0.47699C12.4709 0.395874 12.2339 0.351562 11.9868 0.351562C10.8691 0.351562 9.96289 1.25757 9.96289 2.37543V4.07043L11.2338 5.34137H12.6401L11.3691 4.07043V2.37543Z" fill="#FBB984"/>
<path d="M16.0293 12.4673V11.3888L16.3712 11.0468L15.668 10.3436L14.623 11.3888V12.4673L15.5217 13.366L16.2249 12.6628L16.0293 12.4673Z" fill="#FBB984"/>
<path d="M8.27148 11.7817L9.00629 11.0468L8.30316 10.3436L6.86523 11.7817L8.44946 13.366L9.15259 12.6628L8.27148 11.7817Z" fill="#FBB984"/>
<path d="M15.3105 19.9889H13.9043L14.7255 23.083C14.9987 23.2934 15.1871 23.4382 15.4605 23.6484H16.8668C16.5934 23.4382 16.4052 23.2934 16.1318 23.083L15.3105 19.9889Z" fill="#64C37D"/>
<path d="M7.97003 19.9889L6.99023 23.6484H8.39648L9.37628 19.9889H7.97003Z" fill="#64C37D"/>
<path d="M9.34766 12.2886H10.7539V13.5736H9.34766V12.2886Z" fill="#64C37D"/>
<path d="M9.34698 12.8573V12.4682L9.15234 12.6628L9.34698 12.8573Z" fill="#64C37D"/>
<path d="M9.34796 7.60986C9.24725 7.56812 9.23975 7.56519 9.13904 7.52344L8.74005 7.92242L8.11914 10.1589L9.34796 11.3877V7.60986Z" fill="#64C37D"/>
<path d="M15.2329 7.92242L14.8339 7.52344C14.7332 7.56519 14.7257 7.5683 14.625 7.60986V11.3877L15.8538 10.1589L15.2329 7.92242Z" fill="#64C37D"/>
<path d="M16.6719 13.1102L16.4775 12.4098L16.2246 12.6628L16.6719 13.1102Z" fill="#64C37D"/>
<path d="M6.70703 20.3062L8.70508 13.1102L8.44928 13.366L7.49329 12.4098L5.30078 20.3062L7.72144 20.9172L7.81042 20.5847L6.70703 20.3062Z" fill="#64C37D"/>
<path d="M16.0312 14.8455V12.8573L15.5228 13.366L14.625 12.4682V14.8455L16.2508 20.9172L17.5679 20.5847L16.0312 14.8455Z" fill="#64C37D"/>
<path d="M11.7003 21.5669L11.0957 21.4142L12.6887 15.4111L12.5386 14.8455H11.4326L9.68945 21.4142L10.2941 21.5669C11.0785 21.7648 11.8889 21.8229 12.6887 21.7412C12.3566 21.7072 12.0261 21.6491 11.7003 21.5669Z" fill="#64C37D"/>
<path d="M13.0096 7.74225C13.0096 8.3075 12.5515 8.76562 11.9863 8.76562C11.421 8.76562 10.9629 8.3075 10.9629 7.74225C10.9629 7.177 11.421 6.71887 11.9863 6.71887C12.5515 6.71887 13.0096 7.177 13.0096 7.74225Z" fill="#FF3F62"/>
<path d="M14.9762 14.7991V13.3169L15.5224 13.8631C15.9353 13.4502 19.8928 9.49292 20.0343 9.35101L16.0613 5.37799H13.6655V4.91199L14.3613 4.21619V2.37543C14.3613 1.06567 13.2958 0 11.9859 0C10.6761 0 9.61047 1.06567 9.61047 2.37543V4.21619L10.3063 4.91199V5.37799H7.91071L3.9375 9.3512L8.4494 13.8631L8.99561 13.3169V14.799C8.86761 15.2767 6.65991 23.5226 6.5321 24H8.62976L9.55646 23.2872L10.5251 19.6373L11.7034 15.197H12.2684L13.4469 19.6373L14.4159 23.2888L15.3404 24H17.4397C17.3119 23.5225 15.1042 15.2767 14.9762 14.7991ZM14.9762 10.539V8.16321L16.1642 9.35101C15.7282 9.78699 15.4257 10.0895 14.9762 10.539ZM16.6095 11.7817L15.5224 12.8687L14.9764 12.3226V11.5334L15.6687 10.8409C16.0172 11.1892 16.2612 11.4333 16.6095 11.7817ZM10.3136 2.37543C10.3136 1.45331 11.0638 0.703125 11.9859 0.703125C12.908 0.703125 13.6582 1.45331 13.6582 2.37543V3.92487L12.5933 4.98981H11.3785L10.3136 3.92487V2.37543ZM8.4494 12.8687L7.3623 11.7817L8.3031 10.8409L8.99561 11.5334V12.3226L8.4494 12.8687ZM7.8078 9.3512L8.99561 8.16339V10.539C8.59882 10.1422 8.20496 9.74835 7.8078 9.3512ZM8.93811 22.8757L8.39062 23.2969H7.44836L8.23993 20.3405H9.61102L8.93811 22.8757ZM12.8093 14.4939H11.1625L9.79761 19.6373H8.42816L9.69873 14.8914C9.69873 14.8471 9.69873 9.33801 9.69873 9.33801L10.3954 10.0347H11.4776V9.3316H10.6866L9.69873 8.34375V7.37494L9.05585 7.1087L6.81335 9.3512L7.80597 10.3436C7.45752 10.6921 7.21344 10.9362 6.86517 11.2844L4.93176 9.35101L8.20184 6.08112H11.0094V5.61511L11.0872 5.69293H12.8844L12.9624 5.61511V6.08112H15.77L19.04 9.35101L17.1066 11.2844C16.7582 10.936 16.5143 10.6921 16.1658 10.3436L17.1584 9.3512L14.9161 7.1087L14.2731 7.37512V8.34375L13.2852 9.3316H12.4942V10.0347H13.5764L14.2731 9.33801V14.8916L15.5436 19.6373H14.1742L12.8093 14.4939ZM15.5795 23.2969L15.0342 22.8774L14.361 20.3405H15.7321L16.5236 23.2969H15.5795Z" fill="black"/>
<path d="M12.338 10.4264H11.6348V11.937H10.2852V12.6401H13.6876V11.937H12.338V10.4264Z" fill="black"/>
<path d="M10.2852 13.222H13.6876V13.9252H10.2852V13.222Z" fill="black"/>
<path d="M16.4277 13.5416L18.2357 20.0535L17.0734 20.3469L17.2453 21.0286L19.1058 20.5591L17.1052 13.3535L16.4277 13.5416Z" fill="black"/>
<path d="M6.86584 13.3535L4.86523 20.5591L6.72577 21.0287L6.89789 20.3469L5.73535 20.0535L7.54333 13.5416L6.86584 13.3535Z" fill="black"/>
<path d="M10.6719 21.2913L10.5312 21.9802C11.0141 22.0787 11.5004 22.1279 11.9866 22.1279C12.4729 22.1279 12.959 22.0787 13.4419 21.9802L13.3015 21.2913C12.429 21.4693 11.5442 21.4693 10.6719 21.2913Z" fill="black"/>
<path d="M13.3612 7.74225C13.3612 6.98401 12.7445 6.36731 11.9863 6.36731C11.2282 6.36731 10.6113 6.98401 10.6113 7.74225C10.6113 8.50031 11.2282 9.11719 11.9863 9.11719C12.7445 9.11719 13.3612 8.50031 13.3612 7.74225ZM11.3145 7.74225C11.3145 7.37183 11.6158 7.07043 11.9863 7.07043C12.3567 7.07043 12.6581 7.37183 12.6581 7.74225C12.6581 8.11267 12.3567 8.41406 11.9863 8.41406C11.6158 8.41406 11.3145 8.11267 11.3145 7.74225Z" fill="black"/>
<path d="M12.5384 4.38226L12.0411 3.88513L12.4868 3.43945V2.37543C12.4868 2.09949 12.2623 1.875 11.9863 1.875V1.17188C12.6501 1.17188 13.1899 1.71185 13.1899 2.37543V3.73077L12.5384 4.38226Z" fill="white"/>
<path d="M16.8828 19.5577L16.1758 17.0112L16.8533 16.8232L17.5602 19.3696L16.8828 19.5577ZM16.0504 16.5595L15.8623 15.882L16.5398 15.694L16.7278 16.3715L16.0504 16.5595ZM15.7369 15.4305L15.5488 14.753L16.2263 14.5649L16.4144 15.2424L15.7369 15.4305Z" fill="white"/>
<path d="M17.9705 9.68884L16.9969 8.71527L17.4943 8.21814L18.4677 9.19171L17.9705 9.68884ZM16.6655 8.38385L16.1684 7.88672L16.6655 7.38959L17.1627 7.88672L16.6655 8.38385ZM15.837 7.55511L15.3398 7.05798L15.837 6.56085L16.3341 7.05798L15.837 7.55511Z" fill="white"/>
</g>
<defs>
<clipPath id="clip0">
<rect width="24" height="24" fill="white"/>
</clipPath>
</defs>
</svg>
