<svg width="24" height="24" viewBox="0 0 24 24" fill="none" xmlns="http://www.w3.org/2000/svg">
<g clip-path="url(#clip0)">
<path d="M23.6486 6.52225C23.6486 6.52225 22.2501 9.91646 19.3568 14.9288C16.4634 19.9416 14.2238 22.8502 14.2238 22.8502C14.2238 22.8502 13.809 22.688 13.137 22.389C12.6398 22.1672 12.0011 21.871 11.285 21.5091C11.5573 20.5519 11.1585 19.4968 10.2582 18.9765C9.3575 18.4566 8.24398 18.6385 7.55182 19.3533C5.97392 18.3202 4.92139 17.4779 4.92139 17.4779C4.92139 17.4779 6.31981 14.0837 9.21317 9.07131C12.1065 4.0585 14.3461 1.1499 14.3461 1.1499C14.3461 1.1499 15.6016 1.64068 17.285 2.491C17.0122 3.44818 17.411 4.50334 18.3117 5.02365C19.2125 5.5435 20.3255 5.36162 21.0177 4.64678C21.6878 5.08553 22.2633 5.48959 22.7033 5.80975C23.2999 6.24334 23.6486 6.52225 23.6486 6.52225Z" fill="#FD4755"/>
<path d="M19.3565 14.9288C16.4631 19.9416 14.2235 22.8502 14.2235 22.8502C14.2235 22.8502 13.8087 22.688 13.1367 22.3889C14.0632 21.1017 15.9916 18.3075 18.288 14.3292C20.5988 10.3256 22.0577 7.24454 22.703 5.80969C23.2995 6.24329 23.6482 6.52219 23.6482 6.52219C23.6482 6.52219 22.2498 9.91641 19.3565 14.9288Z" fill="#C41926"/>
<path d="M20.6 8.3827C20.6 8.3827 19.7532 10.6979 17.8224 14.0429C15.8916 17.3879 14.3104 19.2793 14.3104 19.2793C14.3104 19.2793 13.898 19.0768 13.2456 18.7332C12.672 18.4313 11.9129 18.0207 11.0852 17.543C9.31659 16.5216 7.96973 15.6174 7.96973 15.6174C7.96973 15.6174 8.81657 13.3022 10.7474 9.95723C12.6781 6.61223 14.2589 4.72083 14.2589 4.72083C14.2589 4.72083 15.7154 5.43567 17.4845 6.45708C18.3149 6.93614 19.0521 7.39036 19.6004 7.73629C20.2209 8.12817 20.6 8.3827 20.6 8.3827Z" fill="#FEE8C7"/>
<path d="M20.6 8.38274C20.6 8.38274 19.7531 10.6979 17.8223 14.0429C15.8916 17.3879 14.3104 19.2793 14.3104 19.2793C14.3104 19.2793 13.898 19.0768 13.2456 18.7332C13.9204 17.8477 15.2429 16.0145 16.7543 13.3965C18.2427 10.8179 19.1631 8.77883 19.6003 7.73633C20.2208 8.1282 20.6 8.38274 20.6 8.38274Z" fill="#FCCD7F"/>
<path d="M14.2035 3.89541C14.2035 3.89541 14.0498 7.56385 13.0451 13.2638C12.0403 18.9638 10.9301 22.4631 10.9301 22.4631C10.9301 22.4631 10.4915 22.4528 9.7665 22.4021C9.22148 22.3646 8.51381 22.3037 7.70967 22.2081C7.63889 21.2157 6.90314 20.3603 5.87916 20.1798C4.8547 19.9993 3.87103 20.551 3.46519 21.4595C1.62858 21.0287 0.351562 20.5974 0.351562 20.5974C0.351562 20.5974 0.505266 16.9295 1.51003 11.2295C2.5148 5.52947 3.62498 2.02979 3.62498 2.02979C3.62498 2.02979 4.97231 2.06166 6.84497 2.28479C6.91622 3.27713 7.65197 4.1326 8.67595 4.31307C9.69994 4.494 10.6841 3.94182 11.0899 3.03338C11.859 3.21385 12.5301 3.39432 13.0502 3.54291C13.7719 3.74963 14.2035 3.89541 14.2035 3.89541Z" fill="#0ED2B3"/>
<path d="M13.0503 3.54285C13.772 3.74957 14.2037 3.89535 14.2037 3.89535C14.2037 3.89535 14.05 7.56378 13.0452 13.2638C12.0404 18.9638 10.9302 22.463 10.9302 22.463C10.9302 22.463 10.4916 22.4527 9.7666 22.4021C10.2704 20.5149 11.0371 17.3588 11.7593 13.2638C12.54 8.83363 12.8957 5.41832 13.0503 3.54285Z" fill="#0AB69F"/>
<path d="M11.9753 6.68688C11.9753 6.68688 11.9711 9.15204 11.3005 12.9559C10.6298 16.7598 9.791 19.0778 9.791 19.0778C9.791 19.0778 9.33922 19.0291 8.61519 18.9311C7.9722 18.8434 7.11322 18.7169 6.16658 18.55C4.15517 18.1952 2.58008 17.8061 2.58008 17.8061C2.58008 17.8061 2.5843 15.3409 3.25494 11.537C3.92558 7.73313 4.76441 5.41516 4.76441 5.41516C4.76441 5.41516 6.37747 5.5886 8.38883 5.94297C9.34062 6.11079 10.1945 6.28657 10.8304 6.42438C11.538 6.57907 11.9753 6.68688 11.9753 6.68688Z" fill="#FEE8C7"/>
<path d="M10.8305 6.42432C11.5381 6.579 11.9753 6.68682 11.9753 6.68682C11.9753 6.68682 11.9711 9.15197 11.3005 12.9559C10.6299 16.7598 9.79105 19.0778 9.79105 19.0778C9.79105 19.0778 9.33927 19.029 8.61523 18.931C8.98639 17.6903 9.56422 15.5331 10.0648 12.6943C10.5539 9.91791 10.7508 7.72885 10.8305 6.42432Z" fill="#FCCD7F"/>
<path d="M14.5546 3.91036C14.5611 3.75426 14.4638 3.61256 14.3158 3.56259C14.263 3.54478 13.0017 3.12103 11.1703 2.69114C11.0061 2.65265 10.8378 2.73605 10.769 2.88994C10.4188 3.67331 9.58329 4.11614 8.73701 3.96698C7.89078 3.81773 7.25703 3.11564 7.19581 2.25965C7.18381 2.09151 7.05411 1.95558 6.88672 1.93565C5.01875 1.71305 3.68867 1.67981 3.63293 1.6785C3.47675 1.67386 3.33687 1.77473 3.28957 1.92365C3.28146 1.94915 3.08792 2.56148 2.78782 3.69417C2.73809 3.88186 2.84993 4.07433 3.03762 4.12406C3.22545 4.17375 3.41778 4.06195 3.46751 3.87426C3.65286 3.17465 3.79878 2.6708 3.88217 2.39114C4.32917 2.41045 5.30393 2.46436 6.53215 2.6024C6.72753 3.64509 7.54864 4.47136 8.61486 4.65942C9.68112 4.84739 10.7352 4.35197 11.2754 3.43894C12.4767 3.72933 13.411 4.01212 13.8376 4.14694C13.7814 5.0865 13.5367 8.44898 12.6987 13.2027C11.8613 17.9527 10.9409 21.199 10.6724 22.1019C10.2253 22.0826 9.25062 22.0287 8.02264 21.8906C7.82726 20.8479 7.00615 20.0216 5.93993 19.8336C4.87376 19.6456 3.81954 20.1411 3.2794 21.054C2.07828 20.7637 1.14392 20.4809 0.717168 20.3461C0.773512 19.4058 1.01871 16.0404 1.85609 11.2904C2.2189 9.23236 2.63515 7.23351 3.09336 5.34928C3.13925 5.16061 3.02346 4.97048 2.83479 4.92459C2.64612 4.8787 2.456 4.99448 2.41011 5.18315C1.94839 7.08187 1.529 9.09558 1.16361 11.1683C0.16634 16.8258 0.00185533 20.5457 0.000308459 20.5826C-0.00620717 20.7387 0.0910584 20.8804 0.23909 20.9304C0.291871 20.9482 1.55309 21.372 3.38454 21.8018C3.54856 21.8404 3.71698 21.757 3.78584 21.603C4.13604 20.8196 4.97178 20.3767 5.81782 20.526C6.66406 20.6752 7.29781 21.3773 7.35903 22.2333C7.37103 22.4015 7.50073 22.5374 7.66812 22.5573C9.53604 22.7799 10.8662 22.8132 10.9219 22.8145C11.0775 22.8183 11.2182 22.7183 11.2653 22.5693C11.2764 22.5341 12.3939 18.9823 13.3912 13.3247C14.3885 7.6672 14.553 3.9473 14.5546 3.91036Z" fill="black"/>
<path d="M11.2393 13.3021C11.4308 13.3359 11.6128 13.2081 11.6466 13.0169C12.3148 9.22668 12.3264 6.78937 12.3266 6.68746C12.3269 6.52555 12.2165 6.38441 12.0594 6.34556C12.0435 6.34166 10.4498 5.9496 8.44981 5.59687C6.44984 5.24418 4.81817 5.06737 4.80191 5.06563C4.64094 5.04829 4.48892 5.14326 4.4338 5.29551C4.39911 5.39132 3.57669 7.68566 2.90853 11.4759C2.24038 15.2661 2.22866 17.7035 2.22852 17.8054C2.22823 17.9673 2.33858 18.1084 2.49575 18.1473C2.51159 18.1512 4.10534 18.5433 6.10531 18.896C8.10528 19.2487 9.73695 19.4255 9.75317 19.4272C9.91184 19.445 10.0666 19.35 10.1213 19.1974C10.1465 19.1277 10.7461 17.4574 11.3396 14.6132C11.3793 14.4231 11.2573 14.2369 11.0673 14.1972C10.8771 14.1574 10.691 14.2795 10.6513 14.4696C10.2012 16.6266 9.73878 18.121 9.54922 18.6959C9.00416 18.6308 7.7202 18.4668 6.22742 18.2036C4.73459 17.9403 3.47202 17.6551 2.93755 17.5299C2.96042 16.7878 3.07081 14.6052 3.60097 11.598C4.13108 8.59077 4.77364 6.50212 5.00591 5.79693C5.99314 5.86106 10.6679 6.68554 11.6175 6.96299C11.5947 7.70512 11.4843 9.88766 10.9542 12.8949C10.9204 13.0861 11.0481 13.2684 11.2393 13.3021Z" fill="black"/>
<path d="M10.0895 8.0676C10.1232 7.8764 9.99553 7.69406 9.80428 7.66031L6.4708 7.0724C6.27955 7.03875 6.09725 7.16634 6.0635 7.35754C6.0298 7.54874 6.15744 7.73109 6.34869 7.76484L9.68217 8.35274C9.86887 8.3871 10.0566 8.25988 10.0895 8.0676Z" fill="black"/>
<path d="M6.15798 8.84741C5.96678 8.8138 5.78444 8.9414 5.75069 9.1326L4.90774 13.9144C4.87404 14.1056 5.00172 14.2879 5.19293 14.3216C5.37963 14.356 5.56736 14.2288 5.60022 14.0364L6.44317 9.25466C6.47692 9.06346 6.34919 8.88112 6.15798 8.84741Z" fill="black"/>
<path d="M7.82487 9.14137C7.63381 9.10771 7.45133 9.23535 7.41758 9.42656L6.72805 13.3378C6.69435 13.5291 6.82204 13.7114 7.01324 13.7451C7.19994 13.7795 7.38767 13.6522 7.42053 13.4599L8.11006 9.54862C8.14376 9.35742 8.01608 9.17507 7.82487 9.14137Z" fill="black"/>
<path d="M9.49148 9.43534C9.30037 9.40159 9.11794 9.52932 9.08419 9.72053L8.24124 14.5022C8.20753 14.6935 8.33522 14.8758 8.52642 14.9095C8.71313 14.9438 8.90086 14.8166 8.93372 14.6243L9.77667 9.84259C9.81033 9.65139 9.68269 9.46904 9.49148 9.43534Z" fill="black"/>
<path d="M6.44864 16.9466C6.63534 16.981 6.82308 16.8538 6.85594 16.6614L6.90684 16.3728L7.19541 16.4237C7.38211 16.4581 7.56985 16.3309 7.60271 16.1386C7.63641 15.9474 7.50877 15.7651 7.31752 15.7313L7.02891 15.6804L7.07981 15.3917C7.11352 15.2005 6.98583 15.0182 6.79462 14.9845C6.60347 14.9509 6.42108 15.0785 6.38733 15.2697L6.33647 15.5583L6.04795 15.5074C5.85665 15.4737 5.6744 15.6014 5.64065 15.7925C5.60695 15.9837 5.73459 16.1661 5.92584 16.1998L6.2144 16.2507L6.1635 16.5394C6.12975 16.7306 6.25743 16.9129 6.44864 16.9466Z" fill="black"/>
<path d="M13.4964 2.31599C13.6544 2.42877 13.874 2.39216 13.9868 2.23414C14.1935 1.94464 14.3553 1.7241 14.4642 1.57756C14.8776 1.74861 15.7753 2.13285 16.8823 2.68274C16.8163 3.08417 16.8468 3.49588 16.9732 3.88864C17.0323 4.0752 17.2358 4.17495 17.4156 4.11556C17.6005 4.05603 17.702 3.85799 17.6426 3.67316C17.5284 3.31864 17.5216 2.94322 17.623 2.58753C17.6692 2.42544 17.5939 2.25336 17.4434 2.17738C15.7642 1.32917 14.5257 0.842892 14.4738 0.822595C14.3282 0.765736 14.1626 0.81172 14.0673 0.935564C14.0576 0.948126 13.8259 1.24949 13.4146 1.82558C13.3018 1.9836 13.3384 2.20316 13.4964 2.31599Z" fill="black"/>
<path d="M23.868 6.2477C23.8245 6.21288 22.7842 5.38324 21.2102 4.35274C21.0691 4.26034 20.8824 4.2812 20.7651 4.40228C20.1681 5.01859 19.2315 5.14891 18.4874 4.7192C18.3193 4.62208 18.1043 4.67969 18.0072 4.84783C17.91 5.01597 17.9676 5.23099 18.1358 5.32806C19.0735 5.86961 20.2334 5.76456 21.0531 5.09139C22.0827 5.77525 22.8641 6.36067 23.2189 6.6333C22.9756 7.19533 22.3073 8.69331 21.2112 10.8107C21.122 10.9832 21.1894 11.1953 21.3619 11.2845C21.5307 11.373 21.746 11.308 21.8357 11.1339C23.2542 8.39359 23.9663 6.67314 23.9734 6.65608C24.0329 6.5117 23.99 6.34534 23.868 6.2477Z" fill="black"/>
<path d="M20.964 12.0376C20.7932 11.9456 20.5799 12.0094 20.4878 12.1804C18.8678 15.3972 14.5658 21.9641 14.105 22.4225C13.8363 22.3115 13.3636 22.1106 12.7642 21.8337C12.5879 21.7523 12.3791 21.8292 12.2976 22.0054C12.2162 22.1817 12.2931 22.3906 12.4693 22.472C13.4399 22.9204 14.0694 23.1672 14.0957 23.1775C14.2391 23.234 14.4067 23.1892 14.5023 23.0645C14.5248 23.0352 16.7893 20.0799 19.6611 15.1047C20.158 14.2438 20.6444 13.3722 21.1068 12.5138C21.1989 12.3429 21.135 12.1297 20.964 12.0376Z" fill="black"/>
<path d="M13.6629 18.5552C13.2424 18.3547 12.9331 18.9501 13.3384 19.179C13.8392 19.4394 14.1427 19.5885 14.1554 19.5947C14.299 19.6656 14.4756 19.6296 14.5799 19.5046C14.6453 19.4265 16.2026 17.5518 18.1266 14.2187C20.0505 10.8857 20.8949 8.59932 20.9299 8.5036C20.9855 8.35159 20.9301 8.18124 20.7957 8.09096C20.719 7.99299 17.0019 5.70559 15.7695 5.10484C15.351 4.90037 15.036 5.49273 15.439 5.72546C16.0783 6.06582 16.7072 6.41438 17.3082 6.76145C18.6211 7.5196 19.71 8.21949 20.1693 8.52001C19.8941 9.20954 19.0441 11.2227 17.5176 13.8672C15.9911 16.5118 14.6731 18.2546 14.2137 18.8379C14.0773 18.7689 13.8898 18.6732 13.6629 18.5552Z" fill="black"/>
<path d="M17.8758 9.16387C18.0409 9.2601 18.2584 9.20493 18.356 9.03524C18.4531 8.8671 18.3955 8.65208 18.2274 8.55501L15.7208 7.1075C15.5527 7.01038 15.3377 7.06794 15.2406 7.23613C15.1434 7.40427 15.201 7.61929 15.3692 7.71636L17.8758 9.16387Z" fill="black"/>
<path d="M14.6417 11.3818C14.8069 11.4779 15.0243 11.4227 15.1219 11.253L15.9896 9.74985C16.2083 9.33861 15.627 9.00346 15.3806 9.39833L14.5129 10.9015C14.4159 11.0697 14.4735 11.2847 14.6417 11.3818Z" fill="black"/>
<path d="M14.5479 14.9299C14.7131 15.0261 14.9305 14.9709 15.0282 14.8012L17.4554 10.5962C17.5524 10.4281 17.4948 10.2131 17.3266 10.116C17.1585 10.019 16.9435 10.0765 16.8464 10.2447L14.4192 14.4497C14.3221 14.6179 14.3798 14.8329 14.5479 14.9299Z" fill="black"/>
</g>
<defs>
<clipPath id="clip0">
<rect width="24" height="24" fill="white"/>
</clipPath>
</defs>
</svg>
