<svg width="24" height="24" viewBox="0 0 24 24" fill="none" xmlns="http://www.w3.org/2000/svg">
<path fill-rule="evenodd" clip-rule="evenodd" d="M11.5004 23.5594C11.5006 23.5595 11.5007 23.5596 12 23L11.5007 23.5596C11.7852 23.8135 12.2148 23.8135 12.4993 23.5596L12 23C12.4993 23.5596 12.4994 23.5595 12.4996 23.5594L12.5 23.559L12.5016 23.5576L12.5072 23.5526L12.5279 23.534C12.5458 23.5178 12.5721 23.4941 12.606 23.4632C12.6739 23.4013 12.7727 23.3107 12.898 23.194C13.1484 22.9607 13.505 22.6229 13.9323 22.2023C14.7862 21.3619 15.9269 20.1869 17.0698 18.8517C18.2102 17.5193 19.3668 16.0112 20.2422 14.5051C21.1067 13.0176 21.75 11.4433 21.75 10C21.75 4.61522 17.3848 0.25 12 0.25C6.61522 0.25 2.25 4.61522 2.25 10C2.25 11.4433 2.89327 13.0176 3.75781 14.5051C4.63316 16.0112 5.78979 17.5193 6.93022 18.8517C8.0731 20.1869 9.2138 21.3619 10.0677 22.2023C10.495 22.6229 10.8516 22.9607 11.102 23.194C11.2273 23.3107 11.3261 23.4013 11.394 23.4632C11.4279 23.4941 11.4542 23.5178 11.4721 23.534L11.4928 23.5526L11.4984 23.5576L11.5 23.559L11.5004 23.5594Z" fill="#F44336"/>
<path fill-rule="evenodd" clip-rule="evenodd" d="M10.2369 3.75C9.82269 3.75 9.4869 4.08579 9.4869 4.5V5.69413L8.50448 5.15542C8.32637 5.05776 8.11627 5.03652 7.92222 5.09655C7.72816 5.15658 7.56676 5.29276 7.47492 5.47393L5.8307 8.71741C5.64769 9.07843 5.78415 9.51953 6.13905 9.71414L6.66013 9.99988L6.13905 10.2856C5.78415 10.4802 5.64768 10.9213 5.8307 11.2823L7.47492 14.5258C7.56676 14.707 7.72816 14.8432 7.92221 14.9032C8.11627 14.9632 8.32637 14.942 8.50447 14.8443L9.4869 14.3056V15.5C9.4869 15.9142 9.82269 16.25 10.2369 16.25H13.7624C14.1766 16.25 14.5124 15.9142 14.5124 15.5V14.3056L15.4949 14.8443C15.673 14.942 15.8831 14.9632 16.0771 14.9032C16.2712 14.8432 16.4326 14.707 16.5244 14.5258L18.1686 11.2823C18.3517 10.9213 18.2152 10.4802 17.8603 10.2856L17.3392 9.99988L17.8603 9.71414C18.2152 9.51953 18.3517 9.07843 18.1686 8.71741L16.5244 5.47393C16.4326 5.29276 16.2712 5.15658 16.0771 5.09655C15.8831 5.03652 15.673 5.05776 15.4949 5.15542L14.5124 5.69414V4.5C14.5124 4.08579 14.1766 3.75 13.7624 3.75H10.2369Z" fill="#FAFAFA"/>
<path fill-rule="evenodd" clip-rule="evenodd" d="M12 1.75C7.44365 1.75 3.75 5.44365 3.75 10C3.75 11.042 4.23173 12.3354 5.05469 13.7513C5.86684 15.1487 6.96021 16.5799 8.06978 17.8763C9.1769 19.1697 10.2862 20.3127 11.1198 21.1332C11.4693 21.4772 11.7696 21.7637 12 21.98C12.2304 21.7637 12.5307 21.4772 12.8802 21.1332C13.7138 20.3127 14.8231 19.1697 15.9302 17.8763C17.0398 16.5799 18.1332 15.1487 18.9453 13.7513C19.7683 12.3354 20.25 11.042 20.25 10C20.25 5.44365 16.5563 1.75 12 1.75ZM12 23C11.5007 23.5596 11.5006 23.5595 11.5004 23.5594L11.4928 23.5526L11.4721 23.534C11.4542 23.5178 11.4279 23.4941 11.394 23.4632C11.3261 23.4013 11.2273 23.3107 11.102 23.194C10.8516 22.9607 10.495 22.6229 10.0677 22.2023C9.2138 21.3619 8.0731 20.1869 6.93022 18.8517C5.78979 17.5193 4.63316 16.0112 3.75781 14.5051C2.89327 13.0176 2.25 11.4433 2.25 10C2.25 4.61522 6.61522 0.25 12 0.25C17.3848 0.25 21.75 4.61522 21.75 10C21.75 11.4433 21.1067 13.0176 20.2422 14.5051C19.3668 16.0112 18.2102 17.5193 17.0698 18.8517C15.9269 20.1869 14.7862 21.3619 13.9323 22.2023C13.505 22.6229 13.1484 22.9607 12.898 23.194C12.7727 23.3107 12.6739 23.4013 12.606 23.4632C12.5721 23.4941 12.5458 23.5178 12.5279 23.534L12.5072 23.5526L12.5 23.559C12.4999 23.5591 12.4993 23.5596 12 23ZM12 23L12.4993 23.5596C12.2148 23.8135 11.7849 23.8132 11.5004 23.5594L12 23Z" fill="black"/>
<path fill-rule="evenodd" clip-rule="evenodd" d="M9.4869 4.5C9.4869 4.08579 9.82269 3.75 10.2369 3.75H13.7624C14.1766 3.75 14.5124 4.08579 14.5124 4.5V5.69414L15.4949 5.15542C15.673 5.05776 15.8831 5.03652 16.0771 5.09655C16.2712 5.15658 16.4326 5.29276 16.5244 5.47393L18.1686 8.71741C18.3517 9.07843 18.2152 9.51953 17.8603 9.71414L17.3392 9.99988L17.8603 10.2856C18.2152 10.4802 18.3517 10.9213 18.1686 11.2823L16.5244 14.5258C16.4326 14.707 16.2712 14.8432 16.0771 14.9032C15.8831 14.9632 15.673 14.942 15.4949 14.8443L14.5124 14.3056V15.5C14.5124 15.9142 14.1766 16.25 13.7624 16.25H10.2369C9.82269 16.25 9.4869 15.9142 9.4869 15.5V14.3056L8.50447 14.8443C8.32637 14.942 8.11627 14.9632 7.92221 14.9032C7.72816 14.8432 7.56676 14.707 7.47492 14.5258L5.8307 11.2823C5.64768 10.9213 5.78415 10.4802 6.13905 10.2856L6.66013 9.99988L6.13905 9.71414C5.78415 9.51953 5.64769 9.07843 5.8307 8.71741L7.47492 5.47393C7.56676 5.29276 7.72816 5.15658 7.92222 5.09655C8.11627 5.03652 8.32637 5.05776 8.50448 5.15542L9.4869 5.69413V4.5ZM10.9869 5.25V6.96075C10.9869 7.22575 10.8471 7.47108 10.6191 7.6061C10.3911 7.74112 10.1087 7.74578 9.8763 7.61837L8.46255 6.84314L7.49691 8.74801L8.58063 9.34226C8.82075 9.47393 8.97002 9.72602 8.97002 9.99988C8.97002 10.2737 8.82075 10.5258 8.58063 10.6575L7.49691 11.2517L8.46255 13.1566L9.8763 12.3814C10.1087 12.254 10.3911 12.2586 10.6191 12.3937C10.8471 12.5287 10.9869 12.774 10.9869 13.039V14.75H13.0124V13.039C13.0124 12.774 13.1523 12.5287 13.3803 12.3937C13.6083 12.2586 13.8907 12.254 14.123 12.3814L15.5368 13.1566L16.5024 11.2517L15.4187 10.6575C15.1786 10.5258 15.0293 10.2737 15.0293 9.99988C15.0293 9.72602 15.1786 9.47393 15.4187 9.34225L16.5024 8.74801L15.5368 6.84314L14.123 7.61837C13.8907 7.74578 13.6083 7.74112 13.3803 7.6061C13.1523 7.47108 13.0124 7.22575 13.0124 6.96075V5.25H10.9869Z" fill="black"/>
</svg>
