<svg width="15" height="11" viewBox="0 0 15 11" fill="none" xmlns="http://www.w3.org/2000/svg">
<path d="M10.875 5.5C11.91 5.5 12.7425 4.66 12.7425 3.625C12.7425 2.59 11.91 1.75 10.875 1.75C9.84 1.75 9 2.59 9 3.625C9 4.66 9.84 5.5 10.875 5.5ZM5.25 4.75C6.495 4.75 7.4925 3.745 7.4925 2.5C7.4925 1.255 6.495 0.25 5.25 0.25C4.005 0.25 3 1.255 3 2.5C3 3.745 4.005 4.75 5.25 4.75ZM10.875 7C9.5025 7 6.75 7.69 6.75 9.0625V10C6.75 10.4125 7.0875 10.75 7.5 10.75H14.25C14.6625 10.75 15 10.4125 15 10V9.0625C15 7.69 12.2475 7 10.875 7ZM5.25 6.25C3.5025 6.25 0 7.1275 0 8.875V10C0 10.4125 0.3375 10.75 0.75 10.75H5.25V9.0625C5.25 8.425 5.4975 7.3075 7.0275 6.46C6.375 6.325 5.745 6.25 5.25 6.25Z" fill="currentColor"/>
</svg>
