<svg width="24" height="24" viewBox="0 0 24 24" fill="none" xmlns="http://www.w3.org/2000/svg">
<path d="M19.1997 6.40023C19.1205 6.40023 19.0433 6.37702 18.9777 6.33301C18.2621 5.8546 17.4205 5.59984 16.5598 5.60021H7.44191C6.58035 5.59942 5.73833 5.85423 5.02194 6.33301C4.90236 6.4118 4.75035 6.42141 4.62196 6.35823L3.02197 5.55826L3.37958 4.84229L4.77955 5.54148C5.58275 5.05628 6.50352 4.79987 7.44191 4.80029H16.5598C17.4993 4.7995 18.4209 5.0559 19.2249 5.54148L20.6229 4.84229L20.9805 5.55826L19.3805 6.35823C19.3245 6.38583 19.2625 6.40023 19.1997 6.40023Z" fill="#91562F"/>
<path d="M17.5997 23.6H6.3999C6.3999 22.7165 7.11629 22.0001 7.99989 22.0001H15.9998C16.8834 22.0001 17.5997 22.716 17.5997 23.6Z" fill="#F9B44D"/>
<path d="M16.0003 22.0001H12.8003C13.6839 22.0001 14.4003 22.7165 14.4003 23.6H17.6002C17.6002 22.716 16.8839 22.0001 16.0003 22.0001Z" fill="#FA982F"/>
<path d="M14.4 22.0001H9.6001L11.2001 20.4001H12.8L14.4 22.0001Z" fill="#F9B44D"/>
<path d="M12.8002 3.59995H11.2002V20.3997H12.8002V3.59995Z" fill="#91562F"/>
<path d="M12.7997 3.6003H11.1997L10.7877 1.95274C10.6201 1.28355 11.0269 0.605173 11.6965 0.437548C11.7956 0.412751 11.8976 0.40033 11.9996 0.40033C12.6896 0.40033 13.2488 0.959501 13.2488 1.6495C13.2488 1.75188 13.2364 1.8535 13.2116 1.95269L12.7997 3.6003Z" fill="#F9B44D"/>
<path d="M11.9997 0.400421C11.8721 0.402437 11.7457 0.423999 11.6245 0.464406C12.2533 0.661187 12.6201 1.31359 12.4613 1.95278L12.0497 3.60034H12.7997L13.2117 1.95278C13.3792 1.28359 12.9725 0.605218 12.3029 0.437593C12.2041 0.412796 12.1021 0.400421 11.9997 0.400421Z" fill="#FA982F"/>
<path d="M14 3.19992H10V3.99989H14V3.19992Z" fill="#F9B44D"/>
<path d="M8.66972 14.6034L4.80019 6.16028L0.930653 14.6034C0.838638 14.8042 0.601075 14.8922 0.400263 14.8001C0.19945 14.7081 0.111466 14.4706 0.203481 14.2698L4.43662 5.0335C4.52864 4.83269 4.7662 4.74471 4.96701 4.83672C5.0542 4.87671 5.12381 4.94631 5.16379 5.0335L9.39693 14.2698C9.48933 14.4706 9.40092 14.7078 9.20015 14.7997C8.99929 14.8922 8.76211 14.8042 8.66972 14.6034Z" fill="#F0E4D6"/>
<path d="M23.0696 14.6034L19.2001 6.16028L15.3306 14.6034C15.2385 14.8042 15.001 14.8922 14.8002 14.8001C14.5994 14.7081 14.5114 14.4706 14.6034 14.2698L18.8365 5.0335C18.9285 4.83269 19.1661 4.74471 19.3669 4.83672C19.4541 4.87671 19.5237 4.94631 19.5637 5.0335L23.7968 14.2698C23.8892 14.4706 23.8008 14.7078 23.6 14.7997C23.3992 14.8922 23.162 14.8042 23.0696 14.6034Z" fill="#F0E4D6"/>
<path d="M14.7998 14.8001H23.5996C23.5996 16.1257 22.5253 17.2001 21.1997 17.2001H17.1998C15.8746 17.2001 14.7998 16.1253 14.7998 14.8001Z" fill="#F9B44D"/>
<path d="M21.1998 14.8001C21.1998 16.1257 20.1254 17.2001 18.7998 17.2001H21.1998C22.5253 17.2001 23.5997 16.1257 23.5997 14.8001H21.1998Z" fill="#FA982F"/>
<path d="M0.399902 14.8001H9.19975C9.19975 16.1257 8.12537 17.2001 6.79979 17.2001H2.7999C1.4747 17.2001 0.399902 16.1253 0.399902 14.8001Z" fill="#F9B44D"/>
<path d="M6.79985 14.8001C6.79985 16.1257 5.72548 17.2001 4.3999 17.2001H6.79985C8.12543 17.2001 9.19981 16.1257 9.19981 14.8001H6.79985Z" fill="#FA982F"/>
<path d="M23.9632 14.6333L20.0229 6.0359L20.9785 5.5603L20.6209 4.84434L19.6893 5.3083L19.5633 5.03352C19.4713 4.83271 19.2337 4.74473 19.0329 4.83674C18.9457 4.87673 18.8761 4.94634 18.8361 5.03352L18.7237 5.2791C18.0457 4.96429 17.3073 4.80069 16.5597 4.80032H13.1998V4.0003H13.9998V3.20034H13.3122L13.5998 2.04955C13.8205 1.16596 13.2834 0.270367 12.3998 0.0495853C11.5162 -0.171196 10.6206 0.365992 10.3998 1.24959C10.3342 1.51199 10.3342 1.78677 10.3998 2.04918L10.6874 3.19996H9.99976V3.99993H10.7998V4.7999H7.44188C6.69348 4.80032 5.9543 4.96429 5.27593 5.2799L5.16352 5.03432C5.07151 4.83351 4.83395 4.74552 4.63313 4.83754C4.54595 4.87752 4.47634 4.94713 4.43635 5.03432L4.31035 5.3091L3.37876 4.84312L3.02115 5.55988L3.97674 6.03749L0.0364299 14.6333C0.0124299 14.6853 -0.000366987 14.7426 8.01281e-06 14.8001C0.00160176 16.3457 1.25438 17.5985 2.79995 17.6001H6.79988C8.34545 17.5985 9.59823 16.3457 9.59982 14.8001C9.59902 14.7425 9.58501 14.6861 9.55984 14.6345L5.60874 6.00468C6.18315 5.73829 6.80874 5.60029 7.44193 5.60029H10.7998V20.2344L9.43426 21.6H7.99988C6.89588 21.6012 6.00113 22.496 5.99991 23.6C5.99991 23.8207 6.17912 23.9999 6.3999 23.9999H17.5997C17.8205 23.9999 17.9997 23.8207 17.9997 23.6C17.9985 22.496 17.1037 21.6012 15.9997 21.6H14.5653L13.1998 20.2344V5.60029H16.5598C17.193 5.60029 17.8186 5.73829 18.393 6.00468L14.4362 14.6333C14.4118 14.6857 14.3994 14.7426 14.3998 14.8001C14.4014 16.3457 15.6542 17.5985 17.1998 17.6001H21.1997C22.7453 17.5985 23.998 16.3457 23.9996 14.8001C23.9988 14.7425 23.9848 14.6861 23.9597 14.6345L23.9632 14.6333ZM6.79988 16.8001H2.79999C1.85002 16.7989 1.03121 16.1309 0.840008 15.2001H8.75987C8.56866 16.1305 7.75027 16.7989 6.79988 16.8001ZM8.57668 14.4001H1.0232L4.69754 6.38385C4.76476 6.40185 4.83512 6.40185 4.90234 6.38385L8.57668 14.4001ZM11.3306 1.12677C11.6422 0.757163 12.1942 0.70996 12.5638 1.02159C12.6018 1.0536 12.637 1.0888 12.669 1.12677C12.8306 1.33279 12.8878 1.60194 12.8238 1.85554L12.4874 3.20034H11.5122L11.1759 1.85554C11.1118 1.60157 11.1691 1.33237 11.3306 1.12677ZM11.5998 4.80032V4.0003H12.3998V4.80027H11.5998V4.80032ZM12.3998 5.60029V20.0001H11.5998V5.60029H12.3998ZM15.9998 22.4C16.5082 22.4008 16.9614 22.7208 17.1313 23.2H6.86832C7.03834 22.7208 7.49152 22.4008 7.99988 22.4H15.9998ZM13.4342 21.6H10.5654L11.3654 20.8001H12.6342L13.4342 21.6ZM19.0965 6.38507C19.1625 6.40827 19.2349 6.40546 19.2989 6.37668L22.9764 14.4001H15.423L19.0965 6.38507ZM21.1996 16.8001H17.1997C16.2497 16.7989 15.4309 16.1309 15.2397 15.2001H23.1596C22.9684 16.1305 22.15 16.7989 21.1996 16.8001Z" fill="black"/>
</svg>
