<svg width="70" height="61" viewBox="0 0 70 61" fill="none" xmlns="http://www.w3.org/2000/svg">
<path d="M69.8504 11.9401C69.7366 11.8087 69.5711 11.7336 69.3973 11.7344C64.6281 11.7344 55.6173 13.0877 52.8273 13.6659C47.8852 14.6883 38.5912 17.1862 33.6461 19.2906C32.0812 18.2682 30.4567 17.222 28.4685 16.5304C24.1383 15.0212 19.688 13.8814 15.1654 13.1234C14.4917 13.0102 13.8181 12.8939 13.1444 12.7747C9.82089 12.1785 6.38705 11.5824 2.83994 11.9013C2.54821 11.9269 2.31829 12.1606 2.29745 12.4527C2.29745 12.4945 2.01427 16.5811 1.85927 18.5782C1.81456 19.1744 1.7311 20.2147 1.62081 21.559C1.21245 26.5667 0.452355 35.8845 0.35399 39.0799C0.318221 40.2215 0.27649 41.4019 0.231779 42.6002C0.0916833 46.4751 -0.066297 50.4843 0.0290874 54.1357C0.0372606 54.4403 0.273811 54.6897 0.577547 54.714C8.77166 55.3638 16.7988 56.1507 24.9572 58.6426C26.066 58.9794 30.102 60.3804 30.2003 60.4162C30.2332 60.4282 30.2672 60.4372 30.3017 60.443H30.4001H30.4686C34.0455 60.0436 37.1604 59.5726 40.4571 59.0778C42.9848 58.6963 45.596 58.3028 48.4247 57.9451C50.1804 57.7216 59.4535 56.9108 64.0618 57.1016C64.376 57.1143 64.646 56.8808 64.6788 56.568C64.9769 53.778 65.275 51.5007 65.5581 49.3128C65.9546 46.3321 66.3272 43.5153 66.6312 39.682C66.8309 37.1573 67.3496 33.6251 67.8503 30.2091C68.1872 27.9289 68.5031 25.7708 68.7028 24.0658C68.8012 23.2073 68.8936 22.2207 69.0009 21.085C69.2185 18.7004 69.4898 15.7644 69.9905 12.4408C70.0229 12.2613 69.9713 12.0767 69.8504 11.9401Z" fill="#C44538"/>
<path d="M66.9112 11.0306C66.4745 11.0043 66.0362 11.0203 65.6026 11.0783C65.9543 9.19744 66.3091 7.17052 66.315 7.14071C66.3427 6.98453 66.307 6.82375 66.2158 6.69397C66.1246 6.56418 65.9855 6.47609 65.8291 6.44917C65.7636 6.44917 64.4938 6.21966 63.3849 6.1511C63.5459 5.21812 63.683 4.29409 63.7814 3.4088C63.7998 3.23486 63.741 3.06157 63.6204 2.93486C63.4988 2.80832 63.3276 2.7418 63.1524 2.75303C59.504 2.97361 56.1268 3.94534 52.4038 5.10485C51.6735 5.33437 50.9909 5.58475 50.3173 5.85302C50.3173 4.09437 50.3173 2.33274 50.2904 0.589C50.2882 0.401527 50.1979 0.226035 50.0466 0.115239C49.8954 0.00444274 49.7008 -0.0287482 49.5214 0.0256363C45.247 1.30736 39.4613 3.82909 36.1646 8.57446C34.7811 10.5213 33.7881 12.7179 33.2405 15.0427C30.9045 12.1125 27.9642 9.72022 24.6201 8.02898C22.1177 6.76643 19.5277 5.68559 16.8702 4.79485C15.4894 4.38491 14.0749 4.09862 12.6434 3.93937C12.3371 3.90913 12.0581 4.11708 11.9996 4.41928C11.8357 5.25389 11.6598 6.18091 11.4809 7.16158C10.4913 7.096 9.48086 7.05725 8.44951 7.05725C8.13483 7.05658 7.87382 7.30063 7.85336 7.61465C7.76692 8.92321 7.55528 10.2616 7.34365 11.5582C6.30933 11.5582 5.27202 11.5731 4.22876 11.6208C4.16138 11.6242 4.09449 11.6342 4.02905 11.6506C3.78733 11.6343 3.54934 11.7168 3.36955 11.8792C3.18975 12.0415 3.08354 12.2699 3.0752 12.512C2.10944 26.5693 1.24204 38.4447 1.24502 52.3052C1.22706 52.6934 1.48716 53.0398 1.86501 53.1309C1.94575 53.2237 2.06401 53.2751 2.18694 53.271C4.73126 53.3219 7.26857 53.557 9.77893 53.9744C11.0159 54.1592 12.253 54.35 13.493 54.5139C14.717 54.6389 15.9338 54.8269 17.1384 55.0773C18.2622 55.3485 21.544 56.1086 22.7333 56.4008C23.9226 56.6929 26.3549 57.5752 27.5234 57.9418C28.0987 58.1177 28.6799 58.3025 29.2433 58.5201C29.4758 58.6125 29.9169 58.7585 30.2806 58.8778C30.4097 58.9016 30.542 58.9016 30.6711 58.8778C30.7204 58.8929 30.7715 58.901 30.8231 58.9016C30.8764 58.9005 30.9294 58.8935 30.9811 58.8807C31.1301 58.839 31.2762 58.7913 31.4193 58.7377C31.7948 58.6482 32.1555 58.5439 32.3284 58.4992C33.2405 58.2727 35.5297 57.8464 37.035 57.5185C39.1424 57.0625 42.7998 56.5677 46.5496 56.1444C51.1102 55.6287 55.1223 55.3605 59.9213 55.2204C60.5284 55.2686 61.1393 55.2325 61.7366 55.1131C62.0963 55.0423 62.4159 54.8378 62.6308 54.5408C62.789 54.2515 62.8672 53.9254 62.8573 53.5959C62.8646 53.4432 62.8795 53.291 62.902 53.1398C62.9717 52.8507 63.0264 52.5582 63.066 52.2635C63.1226 52.0101 63.8261 45.828 64.0317 44.0515C64.6279 39.0398 65.2161 34.0302 65.7964 29.0225L67.7994 11.9308C67.865 11.4241 67.3464 11.0574 66.9112 11.0306Z" fill="#F2F2F2"/>
<path d="M66.262 11.049C66.1063 11.0194 65.9451 11.0531 65.8142 11.1426C65.6833 11.2321 65.5935 11.3701 65.5645 11.526C65.3887 12.4798 65.2456 13.2071 65.1443 13.69C64.6107 16.2356 63.627 25.1093 63.0398 30.4121C62.852 32.126 62.6941 33.5359 62.5957 34.3675C62.1903 37.7626 61.9131 41.0981 61.621 44.8002C61.469 46.7198 60.7268 51.4115 60.7268 51.6082H60.6344C59.144 51.6291 56.4017 51.6887 54.6192 51.8497C52.4194 52.0464 49.0958 52.3445 46.5711 52.884C45.9392 53.0211 45.3123 53.1533 44.6903 53.2805L44.6128 53.2954C41.477 53.9422 37.3695 55.218 32.6331 57.0124C35.9417 54.3595 40.085 53.0241 44.1299 51.7275C45.5934 51.2595 47.1106 50.7736 48.5563 50.2371C49.5016 49.9009 50.4813 49.671 51.4775 49.5515C51.7755 49.5038 52.1094 49.4532 52.4522 49.3906C54.3675 49.0541 56.3056 48.8628 58.2498 48.8183C58.5543 48.8101 58.8038 48.5735 58.828 48.2698C58.828 48.2698 59.2662 42.666 59.445 40.4185C59.7133 37.083 60.8728 28.561 61.7194 22.3372C62.1426 19.2163 62.4795 16.7512 62.551 16.0448C62.6404 15.1237 62.9355 13.2161 63.2217 11.371C63.4631 9.81799 63.6896 8.35145 63.782 7.55559C63.8199 7.22635 63.5837 6.92875 63.2544 6.89088C62.9252 6.85302 62.6276 7.08923 62.5897 7.41848C62.5003 8.19049 62.2768 9.64809 62.0383 11.1891C61.7402 13.0491 61.4421 14.9747 61.3587 15.9285C61.2901 16.6111 60.9563 19.0673 60.533 22.1881C59.6835 28.4269 58.521 36.9668 58.2527 40.335C58.1037 42.1622 57.7877 46.2041 57.6745 47.6558C55.8553 47.7163 54.0426 47.9036 52.2495 48.2161C51.9097 48.2758 51.5937 48.3264 51.2927 48.3741C50.2171 48.505 49.1594 48.7549 48.139 49.1193C46.7172 49.6529 45.2179 50.1328 43.7662 50.6097C40.1297 51.7782 36.3978 52.9764 33.1935 55.1345C34.2157 53.805 35.3335 52.5518 36.5379 51.3847C40.556 47.2951 47.5011 45.4888 49.537 45.0327C49.8143 44.9702 50.0089 44.7207 50.002 44.4365C49.9752 42.4454 50.2643 37.238 50.4253 35.0084C50.7382 30.7221 51.6563 13.4575 51.6176 7.01607C51.6176 6.68683 51.3507 6.41992 51.0214 6.41992C50.6922 6.41992 50.4253 6.68683 50.4253 7.01607C50.4551 13.4307 49.531 30.6416 49.233 34.916C49.0809 37.0025 48.8216 41.6853 48.8067 43.9656C46.2462 44.5826 39.6587 46.4933 35.6914 50.5382C34.1354 52.1209 32.5347 53.7484 31.2798 55.8618C31.414 52.3564 31.718 44.2368 31.8313 39.6166C31.9505 34.9488 32.2754 28.3702 32.5288 23.6726C32.6301 21.8036 33.0593 17.8809 33.3485 16.1789C33.3941 15.9649 33.3187 15.743 33.1521 15.601C32.9855 15.459 32.7546 15.4197 32.5504 15.4987C32.3462 15.5776 32.2018 15.7621 32.1741 15.9792C31.876 17.714 31.4408 21.7082 31.3394 23.61C31.0861 28.3136 30.7433 34.9041 30.6419 39.5868C30.5197 44.4306 30.1919 53.1314 30.0696 56.3029C28.4332 54.5771 26.1947 52.9108 23.2735 51.2357C20.5398 49.6856 17.6824 48.3646 14.7306 47.2861C12.4146 46.4664 10.4115 46.0223 8.63797 45.9388C8.6797 44.5319 8.75124 43.2413 8.84663 42.0996C9.18047 38.1918 9.39807 34.2036 9.61268 30.3435C9.71999 28.3911 9.83028 26.3731 9.95547 24.382C10.1909 20.6381 10.6977 16.7989 11.1865 13.0879C11.416 11.362 11.6515 9.57357 11.8512 7.84174C11.8891 7.5125 11.6529 7.2149 11.3236 7.17704C10.9944 7.13917 10.6968 7.37538 10.6589 7.70463C10.4592 9.42751 10.2237 11.21 9.9972 12.9329C9.50537 16.6618 8.99566 20.5219 8.7572 24.3045C8.63201 26.2927 8.52172 28.3136 8.41441 30.266C8.1998 34.1171 7.97922 38.0965 7.65134 41.9864C7.53807 43.3128 7.46057 44.83 7.41884 46.4962C7.41553 46.6563 7.47676 46.811 7.58874 46.9255C7.70099 47.04 7.85464 47.1045 8.01499 47.1043C9.80345 47.1043 11.8661 47.5276 14.3223 48.398C17.2057 49.4495 19.9973 50.7376 22.6684 52.2491C25.6015 53.9273 27.7983 55.5786 29.3632 57.2866C27.8728 56.6904 26.3824 55.981 24.9099 55.3044C23.5358 54.6695 22.117 54.0137 20.716 53.4265C19.947 53.1046 19.1809 52.7827 18.4208 52.4548C14.0182 50.568 9.27884 50.0881 5.09981 49.6648L4.04164 49.5545C4.23241 41.9297 4.87327 35.0263 5.6274 27.4402C5.76452 26.0721 5.92548 24.7039 6.06558 23.3775V23.3655C6.33683 20.9541 6.61404 18.4592 6.78692 16.012C6.86552 15.0663 6.99187 14.1252 7.16548 13.1922C7.21317 12.915 7.26086 12.6288 7.30855 12.3308C7.3582 12.0067 7.1369 11.7034 6.81317 11.6518C6.48944 11.6001 6.18477 11.8196 6.13115 12.143C6.08346 12.4351 6.03577 12.7183 5.98808 12.9925C5.80858 13.964 5.67825 14.9439 5.5976 15.9285C5.42769 18.3519 5.15048 20.8319 4.88221 23.2314V23.2612C4.74212 24.528 4.58414 25.9648 4.44404 27.3389C3.68693 34.9518 3.04308 41.8761 2.85193 49.5426C2.8366 50.1652 3.30281 50.6951 3.92241 50.7587L4.98058 50.869C9.07614 51.2833 13.7202 51.7633 17.9528 53.5696C18.7159 53.8975 19.485 54.2194 20.257 54.5443C21.6371 55.1255 23.0499 55.7754 24.4151 56.4043C26.3854 57.3164 28.4272 58.2553 30.4005 58.9946C30.4676 59.018 30.5381 59.0304 30.6092 59.0304C30.6847 59.0312 30.7597 59.017 30.8297 58.9886C36.4455 56.762 41.2952 55.1971 44.8393 54.4638L44.9168 54.4459C45.5428 54.3188 46.1727 54.1866 46.8066 54.0495C49.2449 53.5249 52.5267 53.2298 54.6967 53.036C56.4375 52.881 59.1678 52.8214 60.6224 52.8006H60.7655C61.3176 52.7604 61.7694 52.3456 61.8565 51.799C61.934 51.2953 62.6374 46.8301 62.7894 44.8956C63.0875 41.2143 63.3558 37.8938 63.7582 34.5195C63.8595 33.6849 64.0145 32.2691 64.2053 30.5522C64.8015 25.2732 65.7672 16.4323 66.2918 13.9434C66.3932 13.4515 66.5363 12.7153 66.7181 11.7555C66.7863 11.4346 66.5825 11.119 66.262 11.049Z" fill="#EBE8E5"/>
</svg>
