<svg width="24" height="25" viewBox="0 0 24 25" fill="none" xmlns="http://www.w3.org/2000/svg">
<g clip-path="url(#clip0_3857_21286)">
<path d="M23.6482 17.0296C23.6518 19.6479 19.3166 20.3442 13.965 20.3368C8.61349 20.3294 4.27217 19.6211 4.26856 17.0028C4.26495 14.3846 8.60032 12.2681 13.9519 12.2754C19.3034 12.2828 23.6446 14.4113 23.6482 17.0296Z" fill="#D7AA8B"/>
<path d="M22.9086 15.2124C22.9321 15.3466 22.9449 15.4823 22.9451 15.6194C22.9487 18.2376 18.6135 18.934 13.2619 18.9265C9.19773 18.9209 5.7168 18.5108 4.27539 17.167C4.45816 19.6505 8.72744 20.3295 13.9651 20.3367C19.3166 20.3441 23.6518 19.6478 23.6482 17.0296C23.6473 16.3862 23.384 15.7725 22.9086 15.2124Z" fill="#CE9775"/>
<path d="M8.37033 15.1422C8.46356 15.6248 8.48658 16.124 8.43862 16.6257C8.39062 17.128 8.75419 17.5757 9.25064 17.6256C9.28064 17.6286 9.31036 17.6302 9.33984 17.6302C9.79893 17.6308 10.1914 17.2785 10.2365 16.8066C10.3012 16.1288 10.2697 15.4524 10.1429 14.7962C9.99872 14.0499 9.74278 13.3901 9.43462 12.8155C8.80612 12.9771 8.21864 13.1715 7.68164 13.3942C7.98389 13.8859 8.24025 14.4689 8.37033 15.1422Z" fill="#C6855B"/>
<path d="M13.9283 12.2756C13.1705 12.2754 12.4334 12.3179 11.7261 12.3983C12.3106 13.0164 12.953 13.937 13.1872 15.1487C13.2804 15.6313 13.3034 16.1304 13.2555 16.6322C13.2075 17.1345 13.571 17.5822 14.0675 17.6321C14.0975 17.6351 14.1272 17.6366 14.1567 17.6367C14.6158 17.6373 15.0082 17.285 15.0533 16.8131C15.1181 16.1353 15.0866 15.4589 14.9598 14.8027C14.7675 13.8076 14.3771 12.9653 13.9283 12.2756Z" fill="#C6855B"/>
<path d="M17.9476 15.1661C18.0191 15.6524 18.0198 16.152 17.9494 16.651C17.879 17.1505 18.2223 17.6144 18.716 17.687C18.7458 17.6914 18.7755 17.6943 18.805 17.6957C19.2636 17.7173 19.6714 17.3834 19.7376 16.9141C19.8326 16.2401 19.8314 15.563 19.7341 14.9017C19.632 14.2085 19.4318 13.5844 19.1801 13.0304C18.4234 12.7918 17.5947 12.6035 16.7139 12.4744C17.2394 13.1141 17.7789 14.0202 17.9476 15.1661Z" fill="#C6855B"/>
<path d="M14.8487 6.00041C16.6974 7.84923 14.123 11.4157 10.3337 15.2052C6.54432 18.9947 2.97507 21.5723 1.12632 19.7235C-0.722427 17.8746 0.850745 13.3038 4.64007 9.51435C8.4294 5.72481 12.9999 4.15159 14.8487 6.00041Z" fill="#C6855B"/>
<path d="M14.8488 6.00145C14.4787 5.63136 13.9994 5.39877 13.4393 5.29324C13.4403 5.29428 13.4415 5.29526 13.4426 5.29635C15.2913 7.14521 12.7168 10.7117 8.9275 14.5012C5.89999 17.5288 3.0131 19.7825 1.03174 19.6236C1.0623 19.658 1.09371 19.6918 1.12643 19.7245C2.97518 21.5733 6.54443 18.9958 10.3338 15.2063C14.1231 11.4168 16.6975 7.85032 14.8488 6.00145Z" fill="#C17E4E"/>
<path d="M2.71459 15.5002C3.1208 15.7753 3.48901 16.1119 3.80893 16.5008C4.12918 16.89 4.7019 16.9488 5.0882 16.632C5.11154 16.6129 5.13362 16.5929 5.15452 16.572C5.4796 16.2469 5.50866 15.7195 5.20777 15.3539C4.77568 14.8287 4.27646 14.3727 3.72404 13.9986C3.09582 13.5731 2.4496 13.2881 1.82659 13.1003C1.49612 13.6602 1.21777 14.2143 0.995117 14.7526C1.55551 14.8859 2.14787 15.1164 2.71459 15.5002Z" fill="#F2D59C"/>
<path d="M4.62344 9.53244C4.08752 10.0696 3.59627 10.6224 3.15283 11.1808C4.00197 11.2034 5.10537 11.3987 6.12541 12.0896C6.53163 12.3647 6.89984 12.7013 7.21976 13.0901C7.54001 13.4794 8.11273 13.5381 8.49903 13.2214C8.52237 13.2023 8.54445 13.1822 8.56535 13.1614C8.89043 12.8363 8.9195 12.3089 8.6186 11.9432C8.18651 11.4181 7.68729 10.9621 7.13487 10.5879C6.29721 10.0207 5.42726 9.70185 4.62344 9.53244Z" fill="#F2D59C"/>
<path d="M9.5042 8.72649C9.89772 9.01958 10.2505 9.37241 10.5526 9.77516C10.855 10.1783 11.4248 10.2629 11.8252 9.96413C11.8494 9.94608 11.8723 9.92709 11.8942 9.90721C12.2337 9.59729 12.2867 9.07199 12.0026 8.69321C11.5945 8.14925 11.1162 7.67133 10.5811 7.27272C10.0201 6.85492 9.43844 6.55563 8.86989 6.34232C8.16662 6.71019 7.44779 7.1647 6.73389 7.69799C7.55645 7.77766 8.57683 8.03582 9.5042 8.72649Z" fill="#F2D59C"/>
<path d="M22.5869 14.3978C22.4387 14.2718 22.217 14.2902 22.0914 14.4386C21.9658 14.5871 21.984 14.8097 22.1321 14.9356C22.893 15.5827 23.2958 16.3071 23.2969 17.0303C23.2976 17.5157 23.124 17.9262 22.7662 18.2849C22.1679 18.8849 21.0547 19.3318 19.4574 19.6133C18.0236 19.866 16.2278 19.9886 13.9659 19.9841C10.4738 19.9794 8.01033 19.6763 6.46898 19.0602C7.0627 18.6365 7.69791 18.1281 8.37909 17.5314C8.5853 17.7788 8.88094 17.9422 9.21234 17.9758C9.90066 18.0455 10.5201 17.5345 10.5865 16.8402C10.6309 16.3759 10.6319 15.9084 10.59 15.4477C11.2071 14.8303 11.7638 14.2476 12.2641 13.6948C12.5459 14.1785 12.74 14.6882 12.8417 15.2156C12.9285 15.665 12.95 16.1303 12.9053 16.5986C12.8393 17.2924 13.3447 17.9136 14.0346 17.9835C14.7212 18.053 15.3357 17.5459 15.4028 16.8469C15.4711 16.1371 15.4381 15.4268 15.3048 14.7356C15.1642 14.0075 14.9112 13.3047 14.5517 12.6383C15.2268 12.6594 15.8871 12.7145 16.5245 12.8021C17.1114 13.5479 17.4734 14.36 17.5997 15.2182C17.6664 15.6711 17.667 16.1367 17.6013 16.6022C17.504 17.2924 17.9812 17.9358 18.6652 18.0364C19.344 18.1363 19.9876 17.659 20.0856 16.964C20.1853 16.2565 20.184 15.5455 20.0818 14.8507C20.0202 14.4327 19.9212 14.0192 19.7863 13.6142C20.136 13.7489 20.4693 13.8962 20.7831 14.0563C20.9535 14.1433 21.1667 14.0777 21.2558 13.902C21.3439 13.7285 21.275 13.5162 21.102 13.4279C19.1699 12.4419 16.499 11.8984 13.7538 11.9241C13.943 11.6783 14.1192 11.4387 14.2825 11.205C15.3122 9.732 15.8128 8.52487 15.8128 7.51469C15.8128 6.82012 15.5719 6.22694 15.0968 5.7518C14.1026 4.75756 12.4196 4.60089 10.3578 5.31055C8.38017 5.9912 6.26133 7.39586 4.39163 9.26569C1.68281 11.9748 0 15.1558 0 17.5673C0 18.5674 0.303609 19.3996 0.878063 19.9741C1.35455 20.4506 1.94048 20.6888 2.63133 20.6888C3.36267 20.6888 4.21158 20.4218 5.17256 19.8882C5.36953 19.7788 5.5718 19.6579 5.77931 19.526C7.38258 20.303 10.0643 20.684 13.965 20.6892C16.1945 20.6922 18.1371 20.5619 19.5791 20.3078C21.346 19.9964 22.5511 19.4978 23.2634 18.7835C23.7531 18.2924 24.0009 17.7022 24 17.0293C23.9986 16.0929 23.51 15.1829 22.5869 14.3978ZM18.9211 13.3174C19.1472 13.8463 19.3042 14.3958 19.3863 14.9536C19.4787 15.5816 19.4798 16.2248 19.3895 16.8653C19.3462 17.1718 19.0683 17.383 18.7671 17.3387C18.4649 17.2943 18.2543 17.0081 18.2975 16.7009C18.3726 16.1685 18.3719 15.635 18.2953 15.1152C18.1843 14.3608 17.9161 13.6405 17.4969 12.9644C17.9907 13.0619 18.4669 13.1798 18.9211 13.3174ZM9.88659 16.7729C9.85917 17.0606 9.62461 17.2774 9.34045 17.2774C9.16645 17.2774 9.00867 17.1974 8.90442 17.0619C9.23166 16.764 9.56911 16.4467 9.9172 16.1098C9.91762 16.3308 9.90773 16.5522 9.88659 16.7729ZM14.6145 14.8695C14.735 15.4943 14.7648 16.1368 14.703 16.7795C14.6735 17.0869 14.4052 17.3123 14.1025 17.2817C13.7989 17.2509 13.5759 16.9745 13.6053 16.6657C13.6563 16.1302 13.6317 15.5973 13.5321 15.0816C13.4013 14.4036 13.1392 13.7531 12.7526 13.1439C12.9 12.9741 13.0419 12.8072 13.1782 12.6431C13.3624 12.6361 13.5482 12.631 13.7351 12.6292C14.1675 13.3332 14.4632 14.086 14.6145 14.8695ZM8.88975 6.72916C9.42216 6.94276 9.92016 7.21987 10.3711 7.55573C10.8792 7.93423 11.3334 8.38822 11.7213 8.9052C11.8946 9.13628 11.8671 9.45494 11.6573 9.64645C11.4163 9.86639 11.0309 9.82672 10.8333 9.56324C10.5109 9.13351 10.1342 8.7568 9.71358 8.44354C9.10341 7.98908 8.40628 7.66996 7.63373 7.48912C8.05153 7.20816 8.47139 6.95404 8.88975 6.72916ZM1.99172 13.5248C2.54048 13.7149 3.05602 13.9717 3.5272 14.2908C4.05169 14.6461 4.52588 15.0792 4.93655 15.5784C5.1202 15.8016 5.10722 16.1215 4.90617 16.3225C4.67569 16.553 4.2892 16.5306 4.08009 16.2765C3.73875 15.8617 3.34552 15.5022 2.91131 15.2081C2.47678 14.9138 1.99678 14.6848 1.4813 14.5226C1.63172 14.1936 1.80216 13.8602 1.99172 13.5248ZM4.83197 19.2714C3.24811 20.1509 2.1172 20.2176 1.37456 19.4748C0.929016 19.0293 0.703125 18.3875 0.703125 17.5673C0.703125 16.847 0.880734 16.0333 1.20764 15.1758C1.68239 15.3185 2.12231 15.5246 2.51775 15.7924C2.89608 16.0487 3.23925 16.3625 3.5377 16.7253C4.00912 17.2982 4.88086 17.3435 5.40267 16.8217C5.86195 16.3625 5.89472 15.635 5.47884 15.1296C5.02528 14.5784 4.50108 14.0996 3.92072 13.7066C3.43875 13.3801 2.91511 13.1135 2.3603 12.9089C2.64844 12.4513 2.96944 11.9932 3.32062 11.5408C4.0388 11.5814 5.02177 11.7678 5.92828 12.3818C6.30666 12.638 6.64978 12.9519 6.94819 13.3146C7.39134 13.8532 8.18695 13.9324 8.72119 13.4944C9.25931 13.0533 9.33127 12.2559 8.88938 11.7189C8.61009 11.3795 8.30086 11.0645 7.9703 10.7826C7.82245 10.6565 7.6005 10.6744 7.47473 10.8227C7.34892 10.971 7.36687 11.1936 7.51481 11.3197C7.81397 11.5748 8.09395 11.8601 8.34698 12.1677C8.54344 12.4064 8.5117 12.7553 8.27606 12.9485C8.03977 13.1422 7.68736 13.1051 7.49048 12.8657C7.14914 12.4509 6.75595 12.0915 6.32175 11.7974C5.60963 11.3151 4.76728 11.0047 3.85566 10.8837C4.13452 10.5566 4.42842 10.2345 4.73625 9.9196C5.2575 10.044 5.7555 10.2244 6.21872 10.4578C6.38939 10.5439 6.60244 10.4772 6.6907 10.3012C6.77789 10.1272 6.70795 9.91528 6.53447 9.82785C6.14897 9.63357 5.74195 9.47327 5.31942 9.34697C5.81147 8.88362 6.31777 8.45412 6.83123 8.06364C7.77183 8.17495 8.60006 8.49253 9.29428 9.00955C9.6608 9.28257 9.98953 9.61147 10.2714 9.98715C10.7168 10.5808 11.5869 10.664 12.1305 10.168C12.6103 9.73007 12.6759 9.00499 12.2831 8.48134C11.8548 7.91035 11.3525 7.4085 10.7903 6.98972C10.4521 6.73786 10.0905 6.51566 9.70964 6.325C10.0043 6.19324 10.297 6.07704 10.5862 5.97748C11.3658 5.70912 12.0756 5.57571 12.6944 5.57571C13.5 5.57571 14.1513 5.80191 14.6004 6.25106C14.9432 6.59388 15.1098 7.00721 15.1098 7.51469C15.1098 8.36316 14.6378 9.46857 13.7069 10.8003C13.2416 11.4658 12.6572 12.2432 12.0561 12.8706C9.96131 15.0567 7.42402 17.8318 4.83197 19.2714Z" fill="black"/>
</g>
<defs>
<clipPath id="clip0_3857_21286">
<rect width="24" height="24.0674" fill="white" transform="translate(0 0.747192)"/>
</clipPath>
</defs>
</svg>
