<svg width="24" height="24" viewBox="0 0 24 24" fill="none" xmlns="http://www.w3.org/2000/svg">
<path d="M23.625 6.97243V11.8929C23.625 12.332 23.4274 12.7475 23.0868 13.0248C21.9249 13.9707 18.7254 15.9067 12 15.9067C5.27456 15.9067 2.07506 13.9707 0.913219 13.0248C0.572625 12.7476 0.375 12.3321 0.375 11.8929V6.97243C0.375 6.16651 1.0283 5.51321 1.83422 5.51321H22.1658C22.9717 5.51321 23.625 6.16656 23.625 6.97243Z" fill="#9C8F9A"/>
<path d="M23.625 6.97243V11.8929C23.625 12.332 23.4274 12.7475 23.0868 13.0248C21.9249 13.9707 18.7254 15.9067 12 15.9067C5.27456 15.9067 2.07506 13.9707 0.913219 13.0248C0.572625 12.7476 0.375 12.3321 0.375 11.8929V6.97243C0.375 6.16651 1.0283 5.51321 1.83422 5.51321H22.1658C22.9717 5.51321 23.625 6.16656 23.625 6.97243Z" fill="#9C8F9A"/>
<path d="M23.625 6.97243V11.8929C23.625 12.332 23.4274 12.7475 23.0868 13.0248C21.9249 13.9707 18.7254 15.9067 12 15.9067C5.27456 15.9067 2.07506 13.9707 0.913219 13.0248C0.572625 12.7476 0.375 12.3321 0.375 11.8929V6.97243C0.375 6.16651 1.0283 5.51321 1.83422 5.51321H22.1658C22.9717 5.51321 23.625 6.16656 23.625 6.97243Z" fill="#407093"/>
<path d="M23.0868 12.1805C21.9249 13.1264 18.7254 15.0624 12 15.0624C5.27456 15.0624 2.07506 13.1264 0.913219 12.1805C0.572625 11.9032 0.375 11.4877 0.375 11.0486V11.8923C0.375 12.3315 0.572625 12.747 0.913219 13.0243C2.07506 13.9701 5.27456 15.9061 12 15.9061C18.7254 15.9061 21.9249 13.9701 23.0868 13.0242C23.4274 12.7469 23.625 12.3314 23.625 11.8923V11.0485C23.625 11.4877 23.4274 11.9032 23.0868 12.1805Z" fill="#365E7D"/>
<path d="M12 15.9067C5.3928 15.9067 2.18884 14.0382 0.976562 13.0756V20.7078C0.976562 21.5137 1.62986 22.167 2.43578 22.167H21.5642C22.3702 22.167 23.0235 21.5137 23.0235 20.7078V13.0756C21.8112 14.0382 18.6072 15.9067 12 15.9067Z" fill="#365E7D"/>
<path d="M0.976562 13.0757V13.9194C2.18884 14.882 5.3928 16.7504 12 16.7504C18.6072 16.7504 21.8112 14.882 23.0235 13.9194V13.0756C21.8112 14.0382 18.6072 15.9067 12 15.9067C5.3928 15.9067 2.18884 14.0382 0.976562 13.0757Z" fill="#2B4D66"/>
<path d="M12.0002 17.7452C11.2453 17.7452 10.6333 17.1332 10.6333 16.3783V14.7058C10.6333 14.4372 10.8511 14.2194 11.1197 14.2194H12.8806C13.1492 14.2194 13.367 14.4372 13.367 14.7058V16.3783C13.367 17.1332 12.7551 17.7452 12.0002 17.7452Z" fill="#FFE27A"/>
<path d="M12.0002 16.9018C11.2453 16.9018 10.6333 16.2898 10.6333 15.5349V16.3787C10.6333 17.1335 11.2453 17.7455 12.0002 17.7455C12.7551 17.7455 13.3671 17.1336 13.3671 16.3787V15.5349C13.367 16.2898 12.7551 16.9018 12.0002 16.9018Z" fill="#F9CF58"/>
<path d="M9.55659 5.5131V3.90327C9.97598 3.68924 10.8146 3.35952 12 3.35952C13.1855 3.35952 14.0241 3.68929 14.4435 3.90327V5.51314H15.9718V3.47052C15.9718 3.23216 15.8605 3.00739 15.6709 2.86288C15.6331 2.8341 15.2837 2.57413 14.6612 2.32391C13.8592 2.0016 12.9389 1.83121 12 1.83121C11.0611 1.83121 10.1409 2.0016 9.33885 2.32391C8.71635 2.57408 8.3669 2.83405 8.32912 2.86288C8.13956 3.00744 8.02832 3.23211 8.02832 3.47052V5.51314H9.55659V5.5131Z" fill="#E8834D"/>
<path d="M8.02832 4.66861H9.55659V5.51236H8.02832V4.66861Z" fill="#D66E41"/>
<path d="M14.4429 4.66861H15.9711V5.51236H14.4429V4.66861Z" fill="#D66E41"/>
<path d="M22.1857 5.14861H16.3316V3.45427C16.3316 3.10777 16.1671 2.77547 15.8915 2.56528C15.8234 2.51335 15.4505 2.24096 14.7976 1.97855C14.5215 1.8676 14.229 1.77258 13.9283 1.69622C13.7399 1.64827 13.548 1.76232 13.5001 1.95089C13.4523 2.13943 13.5663 2.3311 13.7549 2.379C14.0253 2.44772 14.2878 2.53294 14.5349 2.63222C15.1256 2.8696 15.4508 3.11517 15.4644 3.12549C15.5663 3.20321 15.6271 3.32607 15.6271 3.45422V5.14861H14.8004V3.88786C14.8004 3.75549 14.7262 3.63427 14.6083 3.57408C14.1813 3.35625 13.2748 2.99077 11.9999 2.99077C10.725 2.99077 9.81853 3.35621 9.39155 3.57408C9.27361 3.63427 9.19941 3.75544 9.19941 3.88786V5.14866H8.37263V3.45427C8.37263 3.32616 8.43342 3.20325 8.53542 3.12553C8.54897 3.11518 8.87405 2.86969 9.46486 2.63222C10.2271 2.32589 11.1038 2.16399 11.9999 2.16399C12.1496 2.16399 12.3013 2.16858 12.4508 2.17772C12.645 2.18958 12.812 2.04169 12.8238 1.84753C12.8356 1.65338 12.6878 1.48636 12.4936 1.4745C12.3299 1.46457 12.1638 1.4595 11.9999 1.4595C11.0146 1.4595 10.0471 1.63899 9.20212 1.97855C8.54902 2.24105 8.17627 2.51339 8.10816 2.56533C7.83262 2.77543 7.66814 3.10772 7.66814 3.45422V5.14861H1.81434C0.813891 5.14861 0 5.9625 0 6.96291V11.893C0 12.4119 0.218766 12.899 0.602719 13.2431V20.7252C0.602719 21.7256 1.41661 22.5395 2.41702 22.5395H16.3348C16.5293 22.5395 16.687 22.3818 16.687 22.1873C16.687 21.9927 16.5293 21.835 16.3348 21.835H2.41706C1.80511 21.835 1.30725 21.3371 1.30725 20.7252V13.7669C1.81777 14.1048 2.51269 14.4921 3.42333 14.8579C3.6037 14.9303 3.80897 14.8429 3.88153 14.6623C3.95405 14.4818 3.86644 14.2767 3.68597 14.2042C2.39583 13.686 1.57519 13.1295 1.11394 12.754C0.853734 12.5422 0.704531 12.2284 0.704531 11.893V6.96291C0.704531 6.35096 1.20239 5.8531 1.81434 5.8531H22.1857C22.7977 5.8531 23.2955 6.35096 23.2955 6.96291V11.893C23.2955 12.2283 23.1463 12.5422 22.8861 12.7539C22.3594 13.1828 21.4122 13.8105 19.8908 14.3663C18.1419 15.0051 16.0676 15.3914 13.7216 15.5167V14.7123C13.7216 14.2493 13.345 13.8727 12.882 13.8727H11.1177C10.6547 13.8727 10.278 14.2493 10.278 14.7123V15.5172C8.38139 15.4157 6.65339 15.1418 5.13694 14.7017C4.95028 14.6477 4.75472 14.755 4.70048 14.9419C4.64625 15.1287 4.75378 15.3241 4.94063 15.3783C6.51867 15.8362 8.31295 16.1197 10.278 16.2224V16.3881C10.278 17.3375 11.0505 18.1098 11.9999 18.1098C12.9492 18.1098 13.7216 17.3375 13.7216 16.3881V16.2226C18.485 15.9744 21.2419 14.7331 22.6927 13.7683V20.7252C22.6927 21.3372 22.1949 21.835 21.5829 21.835H17.7438C17.5492 21.835 17.3915 21.9928 17.3915 22.1873C17.3915 22.3818 17.5492 22.5396 17.7438 22.5396H21.5829C22.5833 22.5396 23.3972 21.7257 23.3972 20.7253V13.2431C23.7812 12.899 24 12.4119 24 11.893V6.96291C24 5.9625 23.1861 5.14861 22.1857 5.14861ZM9.90389 4.11052C10.3239 3.92541 11.0395 3.69525 11.9999 3.69525C12.9602 3.69525 13.6758 3.92541 14.0958 4.11052V5.14861H9.90384V4.11052H9.90389ZM13.0171 16.3881C13.0171 16.9491 12.5608 17.4054 11.9999 17.4054C11.4389 17.4054 10.9825 16.9491 10.9825 16.3881V14.7123C10.9825 14.6378 11.0432 14.5772 11.1177 14.5772H12.882C12.9565 14.5772 13.0171 14.6378 13.0171 14.7123V16.3881Z" fill="black"/>
</svg>
