<svg width="41" height="43" viewBox="0 0 41 43" fill="none" xmlns="http://www.w3.org/2000/svg">
<path d="M2.31839 5.22505V40.8644H24.1497V1.96183L2.31839 5.22372V5.22505ZM1.27512 3.54408L24.9235 0.0100283C25.4732 -0.0713522 25.9654 0.352893 25.9654 0.907882V41.7729C25.9654 42.2745 25.5585 42.6814 25.0569 42.6814H1.40853C0.906903 42.6814 0.5 42.2745 0.5 41.7729V4.44193C0.5 3.99234 0.829525 3.60945 1.27378 3.54408H1.27512Z" fill="#191970"/>
<path d="M11.3424 40.8299H14.9565V33.6764H11.3424V40.8299ZM10.4339 31.8594H15.865C16.3667 31.8594 16.7736 32.2663 16.7736 32.7679V41.7371C16.7736 42.2387 16.3667 42.6456 15.865 42.6456H10.4339C9.93229 42.6456 9.52539 42.2387 9.52539 41.7371V32.7679C9.52539 32.2663 9.93229 31.8594 10.4339 31.8594Z" fill="#191970"/>
<path d="M11.3424 26.3139H14.9565V22.6637H11.3424V26.3139ZM10.4339 20.8467H15.865C16.3667 20.8467 16.7736 21.2536 16.7736 21.7552V27.221C16.7736 27.7227 16.3667 28.1296 15.865 28.1296H10.4339C9.93229 28.1296 9.52539 27.7227 9.52539 27.221V21.7552C9.52539 21.2536 9.93229 20.8467 10.4339 20.8467Z" fill="#191970"/>
<path d="M11.3424 15.4135H14.9565V11.7633H11.3424V15.4135ZM10.4339 9.94629H15.865C16.3667 9.94629 16.7736 10.3532 16.7736 10.8548V16.3207C16.7736 16.8223 16.3667 17.2292 15.865 17.2292H10.4339C9.93229 17.2292 9.52539 16.8223 9.52539 16.3207V10.8548C9.52539 10.3532 9.93229 9.94629 10.4339 9.94629Z" fill="#191970"/>
<path d="M25.9655 16.3667V40.8662H38.6822V19.0149L25.9655 16.3667ZM25.2424 14.3602L39.7762 17.3873C40.1978 17.4753 40.4993 17.8462 40.4993 18.2771V41.7748C40.4993 42.2764 40.0924 42.6833 39.5907 42.6833H25.057C24.5553 42.6833 24.1484 42.2764 24.1484 41.7748V15.25C24.1484 14.6737 24.6781 14.2428 25.2424 14.3602Z" fill="#191970"/>
<path d="M33.1491 41.7383C33.1491 42.2399 32.7422 42.6468 32.2406 42.6468C31.7389 42.6468 31.332 42.2399 31.332 41.7383V36.3538C31.332 35.8522 31.7389 35.4453 32.2406 35.4453C32.7422 35.4453 33.1491 35.8522 33.1491 36.3538V41.7383Z" fill="#191970"/>
<path d="M33.1491 30.8153C33.1491 31.317 32.7422 31.7239 32.2406 31.7239C31.7389 31.7239 31.332 31.317 31.332 30.8153V28.8529C31.332 28.3512 31.7389 27.9443 32.2406 27.9443C32.7422 27.9443 33.1491 28.3512 33.1491 28.8529V30.8153Z" fill="#191970"/>
<path d="M33.1491 25.3661C33.1491 25.8677 32.7422 26.2746 32.2406 26.2746C31.7389 26.2746 31.332 25.8677 31.332 25.3661V23.4036C31.332 22.902 31.7389 22.4951 32.2406 22.4951C32.7422 22.4951 33.1491 22.902 33.1491 23.4036V25.3661Z" fill="#191970"/>
</svg>
