<svg width="24" height="24" viewBox="0 0 24 24" fill="none" xmlns="http://www.w3.org/2000/svg">
<g clip-path="url(#clip0_3857_21222)">
<path d="M21.0435 10.3464C21.4056 9.76117 21.6147 9.07141 21.6147 8.33276C21.6147 6.21588 19.8989 4.5 17.7822 4.5C15.6653 4.5 13.9494 6.21588 13.9494 8.33276C13.9494 9.07141 14.1587 9.76117 14.5207 10.3464C13.0676 10.8911 12.0332 12.2926 12.0332 13.936C12.0332 16.0529 13.7491 17.7687 15.8658 17.7687C16.564 17.7687 17.2184 17.582 17.7822 17.2559C18.3459 17.582 19.0004 17.7687 19.6985 17.7687C21.8152 17.7687 23.5311 16.0529 23.5311 13.936C23.5311 12.2926 22.4968 10.8911 21.0435 10.3464Z" fill="#CBE558"/>
<path d="M0.46875 0.46875H14.9062V2.34375H0.46875V0.46875Z" fill="#FFCB7C"/>
<path d="M0.84375 2.34375H14.5312V23.5312H0.84375V2.34375Z" fill="#FFD89E"/>
<path d="M4.78125 21H2.71875V18.375H4.78125V21Z" fill="#DFF6FC"/>
<path d="M8.71875 21H6.65625V18.375H8.71875V21Z" fill="#DFF6FC"/>
<path d="M12.6562 21H10.5938V18.375H12.6562V21Z" fill="#DFF6FC"/>
<path d="M4.78125 16.5H2.71875V13.875H4.78125V16.5Z" fill="#DFF6FC"/>
<path d="M8.71875 16.5H6.65625V13.875H8.71875V16.5Z" fill="#DFF6FC"/>
<path d="M12.6562 16.5H10.5938V13.875H12.6562V16.5Z" fill="#DFF6FC"/>
<path d="M4.78125 12H2.71875V9.375H4.78125V12Z" fill="#DFF6FC"/>
<path d="M8.71875 12H6.65625V9.375H8.71875V12Z" fill="#DFF6FC"/>
<path d="M12.6562 12H10.5938V9.375H12.6562V12Z" fill="#DFF6FC"/>
<path d="M4.78125 7.5H2.71875V4.875H4.78125V7.5Z" fill="#DFF6FC"/>
<path d="M8.71875 7.5H6.65625V4.875H8.71875V7.5Z" fill="#DFF6FC"/>
<path d="M12.6562 7.5H10.5938V4.875H12.6562V7.5Z" fill="#DFF6FC"/>
<path d="M12.2902 23.5312C12.0792 23.2797 11.9521 22.9554 11.9521 22.6014C11.9521 21.8013 12.6007 21.1527 13.4009 21.1527C13.4296 21.1527 13.4582 21.1536 13.4866 21.1553C13.8107 20.4155 14.549 19.8984 15.4084 19.8984C16.3364 19.8984 17.1232 20.5014 17.3995 21.3369C17.6088 21.2197 17.8498 21.1527 18.1065 21.1527C18.9067 21.1527 19.5554 21.8013 19.5554 22.6014C19.5554 22.9554 19.4282 23.2797 19.2174 23.5312H12.2902Z" fill="#D8EC84"/>
<path d="M19.6985 18.2375C22.0704 18.2375 24 16.3079 24 13.936C24 12.3311 23.0918 10.8596 21.6932 10.1246C21.9498 9.56506 22.0836 8.95459 22.0836 8.33258C22.0836 5.96082 20.1541 4.03125 17.7823 4.03125C16.7424 4.03125 15.7652 4.39856 15 5.04968V2.80316C15.2139 2.75958 15.375 2.57043 15.375 2.34375V0.46875C15.375 0.209839 15.1652 0 14.9062 0H0.46875C0.209839 0 0 0.209839 0 0.46875V2.34375C0 2.57043 0.161133 2.75958 0.375 2.80316V23.5312C0.375 23.7902 0.584839 24 0.84375 24H19.2171C19.3559 24 19.4874 23.9387 19.5765 23.8323C19.8649 23.4879 20.0239 23.0508 20.0239 22.6014C20.0239 21.5929 19.2409 20.7642 18.251 20.6898V17.987C18.7132 18.1518 19.2034 18.2375 19.6985 18.2375ZM17.7823 4.96875C19.6371 4.96875 21.1461 6.47772 21.1461 8.33276C21.1461 8.9588 20.9729 9.56982 20.6451 10.0997C20.5714 10.2189 20.5547 10.3651 20.6001 10.4978C20.6453 10.6306 20.7477 10.736 20.8792 10.7853C22.1851 11.2747 23.0625 12.5411 23.0625 13.936C23.0625 15.7908 21.5535 17.3 19.6985 17.3C19.196 17.3 18.7007 17.1872 18.251 16.973V15.3818L20.3787 13.2539C20.5618 13.0708 20.5618 12.774 20.3787 12.5909C20.1958 12.408 19.899 12.408 19.7159 12.5909L18.251 14.0559V12.9379C18.251 12.9377 18.251 12.9375 18.251 12.9373V9.57825C18.251 9.31934 18.041 9.1095 17.7823 9.1095C17.5234 9.1095 17.3135 9.31934 17.3135 9.57825V11.8059L16.9257 11.4181C16.7426 11.2352 16.446 11.2352 16.2627 11.4181C16.0798 11.6012 16.0798 11.898 16.2627 12.0811L17.3135 13.1318V15.1873V15.1879V16.973C16.8636 17.1872 16.3683 17.3 15.8659 17.3C15.5709 17.3 15.2809 17.2619 15 17.1872V6.44147C15.6286 5.51697 16.6589 4.96875 17.7823 4.96875ZM17.3135 20.2758C16.8376 19.7483 16.1523 19.4297 15.4081 19.4297C15.2699 19.4297 15.1337 19.441 15 19.4625V18.1492C15.2834 18.2073 15.5728 18.2375 15.8659 18.2375C16.3612 18.2375 16.8512 18.1518 17.3135 17.987V20.2758ZM1.3125 2.8125H5.56256C5.82129 2.8125 6.03131 2.60266 6.03131 2.34375C6.03131 2.08484 5.82129 1.875 5.56256 1.875H0.9375V0.9375H14.4375V1.875H9.78113C9.5224 1.875 9.31238 2.08484 9.31238 2.34375C9.31238 2.60266 9.5224 2.8125 9.78113 2.8125H14.0625V19.8111C13.7106 20.0279 13.4112 20.3293 13.1962 20.6946C13.1724 20.6971 13.1486 20.7004 13.125 20.7039V18.375C13.125 18.1161 12.9152 17.9062 12.6562 17.9062H10.5938C10.3348 17.9062 10.125 18.1161 10.125 18.375V21C10.125 21.2589 10.3348 21.4688 10.5938 21.4688H11.8548C11.6215 21.7864 11.4833 22.1779 11.4833 22.6014C11.4833 22.7578 11.5029 22.9125 11.54 23.0625H1.3125V2.8125ZM12.1875 20.5312H11.0625V18.8438H12.1875V20.5312ZM19.0864 22.6014C19.0864 22.7629 19.0463 22.9215 18.971 23.0625H12.5361C12.4611 22.9215 12.4208 22.7629 12.4208 22.6014C12.4208 22.0611 12.8604 21.6215 13.4008 21.6215C13.4203 21.6215 13.4399 21.6222 13.4592 21.6233C13.6555 21.6345 13.8371 21.5231 13.9158 21.3433C14.1755 20.7504 14.7612 20.3672 15.4081 20.3672C16.112 20.3672 16.7333 20.816 16.9543 21.4841C16.9984 21.6169 17.0993 21.7233 17.2297 21.7738C17.36 21.8245 17.5063 21.8143 17.6285 21.7458C17.7739 21.6645 17.939 21.6215 18.1064 21.6215C18.6467 21.6215 19.0864 22.0611 19.0864 22.6014Z" fill="black"/>
<path d="M4.78125 17.9062H2.71875C2.45984 17.9062 2.25 18.1161 2.25 18.375V21C2.25 21.2589 2.45984 21.4688 2.71875 21.4688H4.78125C5.04016 21.4688 5.25 21.2589 5.25 21V18.375C5.25 18.1161 5.04016 17.9062 4.78125 17.9062ZM4.3125 20.5312H3.1875V18.8438H4.3125V20.5312Z" fill="black"/>
<path d="M8.71875 17.9062H6.65625C6.39734 17.9062 6.1875 18.1161 6.1875 18.375V21C6.1875 21.2589 6.39734 21.4688 6.65625 21.4688H8.71875C8.97766 21.4688 9.1875 21.2589 9.1875 21V18.375C9.1875 18.1161 8.97766 17.9062 8.71875 17.9062ZM8.25 20.5312H7.125V18.8438H8.25V20.5312Z" fill="black"/>
<path d="M4.78125 13.4062H2.71875C2.45984 13.4062 2.25 13.6161 2.25 13.875V16.5C2.25 16.7589 2.45984 16.9688 2.71875 16.9688H4.78125C5.04016 16.9688 5.25 16.7589 5.25 16.5V13.875C5.25 13.6161 5.04016 13.4062 4.78125 13.4062ZM4.3125 16.0312H3.1875V14.3438H4.3125V16.0312Z" fill="black"/>
<path d="M8.71875 13.4062H6.65625C6.39734 13.4062 6.1875 13.6161 6.1875 13.875V16.5C6.1875 16.7589 6.39734 16.9688 6.65625 16.9688H8.71875C8.97766 16.9688 9.1875 16.7589 9.1875 16.5V13.875C9.1875 13.6161 8.97766 13.4062 8.71875 13.4062ZM8.25 16.0312H7.125V14.3438H8.25V16.0312Z" fill="black"/>
<path d="M10.5938 16.9688H12.6562C12.9152 16.9688 13.125 16.7589 13.125 16.5V13.875C13.125 13.6161 12.9152 13.4062 12.6562 13.4062H10.5938C10.3348 13.4062 10.125 13.6161 10.125 13.875V16.5C10.125 16.7589 10.3348 16.9688 10.5938 16.9688ZM11.0625 14.3438H12.1875V16.0312H11.0625V14.3438Z" fill="black"/>
<path d="M4.78125 8.90625H2.71875C2.45984 8.90625 2.25 9.11609 2.25 9.375V12C2.25 12.2589 2.45984 12.4688 2.71875 12.4688H4.78125C5.04016 12.4688 5.25 12.2589 5.25 12V9.375C5.25 9.11609 5.04016 8.90625 4.78125 8.90625ZM4.3125 11.5312H3.1875V9.84375H4.3125V11.5312Z" fill="black"/>
<path d="M8.71875 8.90625H6.65625C6.39734 8.90625 6.1875 9.11609 6.1875 9.375V12C6.1875 12.2589 6.39734 12.4688 6.65625 12.4688H8.71875C8.97766 12.4688 9.1875 12.2589 9.1875 12V9.375C9.1875 9.11609 8.97766 8.90625 8.71875 8.90625ZM8.25 11.5312H7.125V9.84375H8.25V11.5312Z" fill="black"/>
<path d="M10.5938 12.4688H12.6562C12.9152 12.4688 13.125 12.2589 13.125 12V9.375C13.125 9.11609 12.9152 8.90625 12.6562 8.90625H10.5938C10.3348 8.90625 10.125 9.11609 10.125 9.375V12C10.125 12.2589 10.3348 12.4688 10.5938 12.4688ZM11.0625 9.84375H12.1875V11.5312H11.0625V9.84375Z" fill="black"/>
<path d="M4.78125 4.40625H2.71875C2.45984 4.40625 2.25 4.61609 2.25 4.875V7.5C2.25 7.75891 2.45984 7.96875 2.71875 7.96875H4.78125C5.04016 7.96875 5.25 7.75891 5.25 7.5V4.875C5.25 4.61609 5.04016 4.40625 4.78125 4.40625ZM4.3125 7.03125H3.1875V5.34375H4.3125V7.03125Z" fill="black"/>
<path d="M8.71875 4.40625H6.65625C6.39734 4.40625 6.1875 4.61609 6.1875 4.875V7.5C6.1875 7.75891 6.39734 7.96875 6.65625 7.96875H8.71875C8.97766 7.96875 9.1875 7.75891 9.1875 7.5V4.875C9.1875 4.61609 8.97766 4.40625 8.71875 4.40625ZM8.25 7.03125H7.125V5.34375H8.25V7.03125Z" fill="black"/>
<path d="M10.5938 7.96875H12.6562C12.9152 7.96875 13.125 7.75891 13.125 7.5V4.875C13.125 4.61609 12.9152 4.40625 12.6562 4.40625H10.5938C10.3348 4.40625 10.125 4.61609 10.125 4.875V7.5C10.125 7.75891 10.3348 7.96875 10.5938 7.96875ZM11.0625 5.34375H12.1875V7.03125H11.0625V5.34375Z" fill="black"/>
<path d="M7.67188 2.8125C7.7951 2.8125 7.91595 2.76233 8.00311 2.67517C8.09027 2.58801 8.14062 2.46698 8.14062 2.34375C8.14062 2.22052 8.09045 2.09949 8.00311 2.01233C7.91595 1.92517 7.7951 1.875 7.67188 1.875C7.54791 1.875 7.42761 1.92517 7.34045 2.01233C7.25275 2.09949 7.20312 2.22052 7.20312 2.34375C7.20312 2.46698 7.25275 2.58801 7.34045 2.67517C7.42761 2.76233 7.54791 2.8125 7.67188 2.8125Z" fill="black"/>
</g>
<defs>
<clipPath id="clip0_3857_21222">
<rect width="24" height="24" fill="white"/>
</clipPath>
</defs>
</svg>
