<svg width="70" height="32" viewBox="0 0 70 32" fill="none" xmlns="http://www.w3.org/2000/svg">
<path fill-rule="evenodd" clip-rule="evenodd" d="M0.712106 0.90332H58.5351C58.9284 0.90332 59.2472 1.22214 59.2472 1.61543V26.824C59.2472 26.942 59.1516 27.0376 59.0336 27.0376H0.213632C0.0956462 27.0376 0 26.942 0 26.824V1.61543C0 1.22214 0.318821 0.90332 0.712106 0.90332Z" fill="#C3E9E9"/>
<path fill-rule="evenodd" clip-rule="evenodd" d="M13.2454 18.4922H23.2861C24.112 18.4922 24.7815 19.1617 24.7815 19.9876V26.8238C24.7815 26.9418 24.6859 27.0375 24.5679 27.0375H11.9636C11.8456 27.0375 11.75 26.9418 11.75 26.8238V19.9876C11.75 19.1617 12.4195 18.4922 13.2454 18.4922Z" fill="#BDE6E6"/>
<path fill-rule="evenodd" clip-rule="evenodd" d="M14.5271 21.4121H21.8618C22.4518 21.4121 22.93 21.8903 22.93 22.4803V27.0377H13.459V22.4803C13.459 21.8903 13.9372 21.4121 14.5271 21.4121Z" fill="#BDE6E6"/>
<path d="M18.3377 31.0973C20.6384 31.0973 22.5035 29.2322 22.5035 26.9314C22.5035 24.6307 20.6384 22.7656 18.3377 22.7656C16.037 22.7656 14.1719 24.6307 14.1719 26.9314C14.1719 29.2322 16.037 31.0973 18.3377 31.0973Z" fill="#37B4B4"/>
<path fill-rule="evenodd" clip-rule="evenodd" d="M57.3965 11.6562L69.5372 17.9034C69.8219 18.0499 70.0008 18.3431 70.0008 18.6632V27.0377H57.3965V11.6562Z" fill="#CECCFF"/>
<path fill-rule="evenodd" clip-rule="evenodd" d="M57.6809 18.4922H68.5049C69.3308 18.4922 70.0003 19.1617 70.0003 19.9876V26.8238C70.0003 26.9418 69.9046 27.0375 69.7867 27.0375H57.1824C57.0644 27.0375 56.9688 26.9418 56.9688 26.8238V19.2043C56.9688 18.811 57.2876 18.4922 57.6809 18.4922Z" fill="#BDE6E6"/>
<path fill-rule="evenodd" clip-rule="evenodd" d="M59.8182 21.4121H67.1529C67.7428 21.4121 68.221 21.8903 68.221 22.4803V27.0377H58.75V22.4803C58.75 21.8903 59.2282 21.4121 59.8182 21.4121Z" fill="#BDE6E6"/>
<path d="M18.3726 29.1027C19.5525 29.1027 20.509 28.1463 20.509 26.9664C20.509 25.7865 19.5525 24.8301 18.3726 24.8301C17.1928 24.8301 16.2363 25.7865 16.2363 26.9664C16.2363 28.1463 17.1928 29.1027 18.3726 29.1027Z" fill="#E8E7FF"/>
<path d="M63.5545 31.0973C65.8552 31.0973 67.7203 29.2322 67.7203 26.9314C67.7203 24.6307 65.8552 22.7656 63.5545 22.7656C61.2538 22.7656 59.3887 24.6307 59.3887 26.9314C59.3887 29.2322 61.2538 31.0973 63.5545 31.0973Z" fill="#37B4B4"/>
<path d="M63.5894 29.1027C64.7693 29.1027 65.7258 28.1463 65.7258 26.9664C65.7258 25.7865 64.7693 24.8301 63.5894 24.8301C62.4096 24.8301 61.4531 25.7865 61.4531 26.9664C61.4531 28.1463 62.4096 29.1027 63.5894 29.1027Z" fill="#E8E7FF"/>
<path d="M55.7589 5.81641H47.9258V25.6842H55.7589V5.81641Z" fill="#37B4B4"/>
<path d="M45.9313 5.81641H38.5254V11.6557H45.9313V5.81641Z" fill="#37B4B4"/>
<path d="M59.1767 5.8877H57.3965V12.6527H59.1767V5.8877Z" fill="#37B4B4"/>
<path d="M37.7418 5.81641H30.3359V11.6557H37.7418V5.81641Z" fill="#37B4B4"/>
<path d="M29.7672 5.81641H22.3613V11.6557H29.7672V5.81641Z" fill="#37B4B4"/>
<path d="M21.6481 5.81738H14.2422V11.6567H21.6481V5.81738Z" fill="#37B4B4"/>
<path d="M13.529 5.81641H6.12305V11.6557H13.529V5.81641Z" fill="#37B4B4"/>
<path d="M5.41201 5.81738H0V11.6567H5.41201V5.81738Z" fill="#37B4B4"/>
<path d="M47.9247 15.0742H0V17.1393H47.9247V15.0742Z" fill="#37B4B4"/>
</svg>
