<svg width="41" height="40" viewBox="0 0 41 40" fill="none" xmlns="http://www.w3.org/2000/svg">
<path fill-rule="evenodd" clip-rule="evenodd" d="M3.51219 40C1.85215 40 0.5 38.6479 0.5 36.9878V3.01219C0.5 1.35215 1.85215 0 3.51219 0H37.4878C39.1491 0 40.5013 1.35215 40.5013 3.01219V36.9878C40.5013 38.6479 39.1491 40 37.4878 40H3.51219ZM2.729 37.7749H38.271L38.2761 2.229H2.729V37.7749ZM12.7947 16.6053C12.7947 17.4763 13.1013 17.9189 13.7081 17.9189C14.3136 17.9189 14.6215 17.4763 14.6215 16.6053V14.1203H17.1064C17.9775 14.1203 18.4201 13.8137 18.4201 13.2069C18.4201 12.6014 17.9775 12.2935 17.1064 12.2935H14.6215V9.80731C14.6215 8.93624 14.3136 8.49365 13.7081 8.49365C13.1026 8.49365 12.7947 8.93496 12.7947 9.80731V12.2935H10.3098C9.43869 12.2935 8.99609 12.6014 8.99609 13.2069C8.99609 13.8124 9.4374 14.1203 10.3098 14.1203H12.7947V16.6053ZM23.8986 14.1193C23.0263 14.1193 22.585 13.8114 22.585 13.2059C22.585 12.6004 23.0276 12.2925 23.8986 12.2925H30.694C31.5664 12.2925 32.0077 12.6004 32.0077 13.2059C32.0077 13.8127 31.5651 14.1193 30.694 14.1193H23.8986ZM22.585 30.1923C22.585 30.7991 23.0263 31.1057 23.8986 31.1057H30.694C31.5651 31.1057 32.0077 30.7991 32.0077 30.1923C32.0077 29.5855 31.5664 29.2776 30.694 29.2776H23.8986C23.0276 29.2776 22.585 29.5855 22.585 30.1923ZM23.8986 26.0114C23.0263 26.0114 22.585 25.7048 22.585 25.098C22.585 24.4912 23.0276 24.1846 23.8986 24.1846H30.694C31.5664 24.1846 32.0077 24.4912 32.0077 25.098C32.0077 25.7048 31.5651 26.0114 30.694 26.0114H23.8986ZM16.4464 30.8364C16.8287 31.2175 17.1648 31.4099 17.4445 31.4099C17.6369 31.4099 17.8268 31.315 18.0218 31.12C18.449 30.6915 18.3541 30.1591 17.7383 29.5433L14.9852 26.7915L17.737 24.0398C18.3528 23.4227 18.4477 22.8916 18.0205 22.4631C17.8422 22.2835 17.6575 22.1976 17.456 22.1976C17.1584 22.1976 16.7992 22.3939 16.4451 22.7466L13.6934 25.4997L10.9416 22.7466C10.5888 22.3926 10.2296 22.1976 9.93199 22.1976C9.73058 22.1976 9.54584 22.2848 9.36624 22.4644C9.1443 22.6851 9.06477 22.9121 9.11608 23.1764C9.16868 23.442 9.3547 23.7422 9.65104 24.0398L12.4041 26.7915L9.65232 29.5433C9.03526 30.1617 8.94033 30.6915 9.36752 31.12C9.542 31.2944 9.73443 31.3817 9.93969 31.3817C10.2399 31.3817 10.5863 31.1918 10.9429 30.8364L13.6947 28.0834L16.4464 30.8364Z" fill="#191970"/>
</svg>
