<svg width="24" height="24" viewBox="0 0 24 24" fill="none" xmlns="http://www.w3.org/2000/svg">
<path d="M12.0003 23.2002C18.1859 23.2002 23.2003 18.1858 23.2003 12.0002C23.2003 5.81464 18.1859 0.800232 12.0003 0.800232C5.8147 0.800232 0.800293 5.81464 0.800293 12.0002C0.800293 18.1858 5.8147 23.2002 12.0003 23.2002Z" fill="#009688"/>
<path d="M12.0009 0.800232C11.8009 0.800232 11.6009 0.806232 11.4009 0.816632C17.3423 1.13851 21.995 6.05006 21.995 12.0002C21.995 17.9504 17.3423 22.8619 11.4009 23.1838C11.6009 23.1942 11.8009 23.2002 12.0009 23.2002C18.1865 23.2002 23.2009 18.1858 23.2009 12.0002C23.2009 5.81464 18.1865 0.800232 12.0009 0.800232Z" fill="#00695C"/>
<path d="M12.0009 21.6008C17.3028 21.6008 21.6009 17.3027 21.6009 12.0008C21.6009 6.69882 17.3028 2.40076 12.0009 2.40076C6.69895 2.40076 2.40088 6.69882 2.40088 12.0008C2.40088 17.3027 6.69895 21.6008 12.0009 21.6008Z" fill="#FFE0B2"/>
<path d="M12.0009 2.40076C11.8009 2.40076 11.6009 2.40916 11.4009 2.42156C16.464 2.73208 20.4113 6.92889 20.4113 12.0016C20.4113 17.0742 16.464 21.271 11.4009 21.5816C11.6009 21.594 11.8009 21.6024 12.0009 21.6024C17.3033 21.6024 21.6017 17.3039 21.6017 12.0016C21.6017 6.69918 17.3033 2.40076 12.0009 2.40076Z" fill="#DFC49C"/>
<path d="M12.0004 11.9992H0.400391L8.46839 9.89524L9.60039 9.59924L12.0004 11.9992Z" fill="#FFDC00"/>
<path d="M12.0011 0.398254V11.9983L9.60107 9.59825L9.89707 8.46625L12.0011 0.398254Z" fill="#FF9801"/>
<path d="M14.4 9.59825L12 11.9983V0.398254L14.104 8.46625L14.4 9.59825Z" fill="#FFDC00"/>
<path d="M23.6 11.9992H12L14.4 9.59924L15.532 9.89524L23.6 11.9992Z" fill="#FF9801"/>
<path d="M23.6 12L15.532 14.104L14.4 14.4L12 12H23.6Z" fill="#FFDC00"/>
<path d="M14.4 14.4L14.104 15.532L12 23.6V12L14.4 14.4Z" fill="#FF9801"/>
<path d="M12.0011 12V23.6L9.89707 15.532L9.60107 14.4L12.0011 12Z" fill="#FFDC00"/>
<path d="M12.0004 12L9.60039 14.4L8.46839 14.104L0.400391 12H12.0004Z" fill="#FF9801"/>
<path d="M9.89629 8.46823L9.60029 9.60023L8.46829 9.89623L6.80029 6.80023L9.89629 8.46823Z" fill="#F57C00"/>
<path d="M17.2005 6.80023L15.5325 9.89623L14.4005 9.60023L14.1045 8.46823L17.2005 6.80023Z" fill="#F57C00"/>
<path d="M9.89629 15.5307L6.80029 17.1986L8.46829 14.1027L9.60029 14.3987L9.89629 15.5307Z" fill="#F57C00"/>
<path d="M17.2005 17.1986L14.1045 15.5307L14.4005 14.3987L15.5325 14.1027L17.2005 17.1986Z" fill="#F57C00"/>
<path d="M0.300108 12.3861L0.415308 12.4161C0.657781 18.481 5.51885 23.342 11.5837 23.5845L11.6137 23.6997C11.6594 23.8761 11.8187 23.9993 12.0009 23.9993C12.1832 23.9993 12.3424 23.8761 12.3881 23.6997L12.4181 23.5845C18.483 23.342 23.344 18.481 23.5865 12.4161L23.7017 12.3861C23.8781 12.3404 24.0013 12.1811 24.0013 11.9989C24.0013 11.8166 23.8781 11.6574 23.7017 11.6117L23.5865 11.5817C23.344 5.51683 18.483 0.655767 12.4181 0.413294L12.3881 0.298094C12.3424 0.121673 12.1832 -0.00152588 12.0009 -0.00152588C11.8187 -0.00152588 11.6594 0.121673 11.6137 0.298094L11.5837 0.413294C5.51885 0.655767 0.657781 5.51683 0.415308 11.5817L0.300108 11.6117C0.123687 11.6574 0.000488281 11.8166 0.000488281 11.9989C0.000488281 12.1811 0.123687 12.3404 0.300108 12.3861ZM3.36491 8.85449L3.96491 9.10289C4.09695 9.15756 4.24813 9.13762 4.36149 9.0506C4.47485 8.96357 4.53318 8.82268 4.51449 8.681C4.49581 8.53931 4.40295 8.41836 4.27091 8.3637L3.67451 8.1165C4.06941 7.2658 4.59317 6.4811 5.22731 5.79009L5.31891 5.88169C5.47586 6.03328 5.72534 6.03112 5.87964 5.87682C6.03393 5.72253 6.0361 5.47305 5.88451 5.31609L5.79291 5.22449C6.48395 4.59039 7.26863 4.06663 8.11931 3.67169L8.36651 4.26809C8.45101 4.47222 8.68498 4.56919 8.88911 4.48469C9.09323 4.4002 9.19021 4.16622 9.10571 3.96209L8.85731 3.36209C9.5309 3.11517 10.2314 2.94894 10.9441 2.86689L9.63771 7.87289L6.99051 6.44689C6.83504 6.36346 6.64328 6.39175 6.51852 6.51651C6.39376 6.64126 6.36548 6.83303 6.44891 6.98849L7.87491 9.63569L2.86971 10.9413C2.95184 10.2286 3.11806 9.52811 3.36491 8.85449ZM15.1133 4.48449C15.2113 4.52515 15.3215 4.52519 15.4195 4.48461C15.5176 4.44402 15.5955 4.36614 15.6361 4.26809L15.8833 3.67169C16.734 4.06659 17.5187 4.59035 18.2097 5.22449L18.1181 5.31609C18.0141 5.41652 17.9724 5.56525 18.009 5.7051C18.0456 5.84495 18.1549 5.95417 18.2947 5.99077C18.4346 6.02738 18.5833 5.98568 18.6837 5.88169L18.7753 5.79009C19.4094 6.48113 19.9332 7.26582 20.3281 8.1165L19.7317 8.3637C19.5276 8.44819 19.4306 8.68217 19.5151 8.88629C19.5996 9.09042 19.8336 9.18739 20.0377 9.10289L20.6377 8.85449C20.8846 9.52809 21.0509 10.2286 21.1329 10.9413L16.1269 9.63569L17.5529 6.98849C17.6363 6.83303 17.6081 6.64126 17.4833 6.51651C17.3585 6.39175 17.1668 6.36346 17.0113 6.44689L14.3641 7.87289L13.0585 2.86769C13.7712 2.94983 14.4717 3.11605 15.1453 3.36289L14.8969 3.96289C14.813 4.16669 14.9098 4.39992 15.1133 4.48449ZM20.6369 15.1433L20.0369 14.8949C19.8328 14.8104 19.5988 14.9074 19.5143 15.1115C19.4298 15.3156 19.5268 15.5496 19.7309 15.6341L20.3273 15.8813C19.9324 16.732 19.4087 17.5167 18.7745 18.2077L18.6829 18.1161C18.526 17.9645 18.2765 17.9667 18.1222 18.121C17.9679 18.2753 17.9657 18.5247 18.1173 18.6817L18.2089 18.7733C17.5179 19.4074 16.7332 19.9312 15.8825 20.3261L15.6353 19.7297C15.5508 19.5256 15.3168 19.4286 15.1127 19.5131C14.9086 19.5976 14.8116 19.8316 14.8961 20.0357L15.1445 20.6357C14.4709 20.8826 13.7704 21.0489 13.0577 21.1309L14.3633 16.1257L17.0105 17.5517C17.166 17.6351 17.3577 17.6068 17.4825 17.4821C17.6073 17.3573 17.6355 17.1656 17.5521 17.0101L16.1261 14.3629L21.1313 13.0573C21.0494 13.7697 20.8834 14.4699 20.6369 15.1433ZM8.88851 19.5133C8.79049 19.4726 8.68033 19.4726 8.58228 19.5132C8.48423 19.5538 8.40632 19.6317 8.36571 19.7297L8.11851 20.3261C7.26781 19.9312 6.48312 19.4074 5.79211 18.7733L5.88371 18.6817C6.0353 18.5247 6.03313 18.2753 5.87884 18.121C5.72454 17.9667 5.47506 17.9645 5.31811 18.1161L5.22651 18.2077C4.5924 17.5167 4.06865 16.732 3.67371 15.8813L4.27011 15.6341C4.47423 15.5496 4.57121 15.3156 4.48671 15.1115C4.40221 14.9074 4.16823 14.8104 3.96411 14.8949L3.36411 15.1433C3.11718 14.4697 2.95095 13.7692 2.86891 13.0565L7.87411 14.3621L6.44891 17.0093C6.36548 17.1648 6.39376 17.3565 6.51852 17.4813C6.64328 17.606 6.83504 17.6343 6.99051 17.5509L9.63771 16.1249L10.9433 21.1301C10.2306 21.048 9.53013 20.8817 8.85651 20.6349L9.10491 20.0349C9.18878 19.8311 9.09201 19.5979 8.88851 19.5133ZM9.48011 13.9533L3.52091 12.3989H11.0353L9.48011 13.9533ZM9.27291 14.7269L9.42971 15.3269L7.78571 16.2129L8.67171 14.5689L9.27291 14.7269ZM10.0457 14.5197L11.6009 12.9645V20.4809L10.0457 14.5197ZM12.4009 12.9645L13.9561 14.5189L12.4009 20.4809V12.9645ZM14.7289 14.7269L15.3289 14.5701L16.2149 16.2141L14.5709 15.3281L14.7289 14.7269ZM14.5209 13.9541L12.9665 12.3989H20.4829L14.5209 13.9541ZM12.9665 11.5989L14.5209 10.0437L15.4301 10.2809L15.4409 10.2837L20.4829 11.5989H12.9665ZM14.7289 9.2709L14.5721 8.67089L16.2161 7.78489L15.3301 9.42889L14.7289 9.2709ZM13.9561 9.47809L12.4009 11.0333V3.51889L13.9561 9.47809ZM11.6009 11.0333L10.0457 9.4789L11.6009 3.51889V11.0333ZM9.27291 9.2709L8.67291 9.42769L7.78691 7.78369L9.43091 8.66969L9.27291 9.2709ZM8.56091 10.2837L8.57171 10.2809L9.48091 10.0437L11.0353 11.5989H3.52091L8.56091 10.2837ZM1.22291 12.6269L2.04611 12.8417C2.12874 13.8637 2.36989 14.8666 2.76091 15.8145C2.76091 15.8181 2.76091 15.8221 2.76331 15.8257C2.76632 15.8314 2.76965 15.8368 2.77331 15.8421C3.27293 17.049 4.00587 18.1454 4.93011 19.0685C5.85453 19.9945 6.95292 20.7286 8.16211 21.2285C8.16611 21.2305 8.16851 21.2341 8.17291 21.2357C8.17731 21.2373 8.18091 21.2357 8.18491 21.2381C9.13259 21.6286 10.1352 21.8693 11.1569 21.9517L11.3717 22.7749C5.9147 22.4334 1.56486 18.0839 1.22291 12.6269ZM12.6289 22.7769L12.8437 21.9537C13.8656 21.8711 14.8684 21.6299 15.8161 21.2389C15.8201 21.2389 15.8241 21.2389 15.8277 21.2365C15.8313 21.2341 15.8345 21.2313 15.8389 21.2293C17.0478 20.7291 18.1461 19.9951 19.0705 19.0693C19.995 18.1462 20.7281 17.0496 21.2277 15.8425C21.2305 15.8369 21.2349 15.8325 21.2373 15.8265C21.2397 15.8205 21.2373 15.8189 21.2397 15.8149C21.6302 14.8671 21.871 13.8643 21.9533 12.8425L22.7765 12.6277C22.4352 18.0847 18.0859 22.4347 12.6289 22.7769ZM22.7789 11.3709L21.9557 11.1561C21.8731 10.1341 21.6319 9.13116 21.2409 8.18329C21.2409 8.17969 21.2409 8.17569 21.2385 8.17209C21.2361 8.16849 21.2333 8.16529 21.2313 8.16129C20.7312 6.95219 19.9972 5.85382 19.0713 4.92929C18.1469 4.00329 17.0485 3.26921 15.8393 2.76929C15.8353 2.76929 15.8329 2.76369 15.8285 2.76209C15.8241 2.76049 15.8209 2.76209 15.8169 2.75969C14.8691 2.36918 13.8663 2.12844 12.8445 2.04609L12.6289 1.22089C18.0871 1.56195 22.4379 5.91271 22.7789 11.3709ZM11.3729 1.22089L11.1581 2.04409C10.1361 2.12673 9.13317 2.36788 8.18531 2.75889C8.18171 2.75889 8.17771 2.75889 8.17411 2.76129C8.17051 2.76369 8.16731 2.76649 8.16291 2.76849C6.95398 3.26866 5.85576 4.00271 4.93131 4.92849C4.0053 5.85291 3.27122 6.95131 2.77131 8.16049C2.77131 8.16449 2.76571 8.16689 2.76411 8.17129C2.76251 8.17569 2.76411 8.17889 2.76171 8.18289C2.3712 9.13071 2.13045 10.1335 2.04811 11.1553L1.22491 11.3701C1.56624 5.91293 5.91579 1.56287 11.3729 1.22089Z" fill="black"/>
</svg>
