<svg width="20" height="17" viewBox="0 0 20 17" fill="none" xmlns="http://www.w3.org/2000/svg">
<path fill-rule="evenodd" clip-rule="evenodd" d="M20 1.25C20 0.911974 19.8762 0.618812 19.6287 0.371287C19.3812 0.123762 19.0888 0 18.75 0H1.25C0.911974 0 0.618812 0.123762 0.371287 0.371287C0.123762 0.618812 0 0.9112 0 1.25V11.875C0 12.213 0.123762 12.5062 0.371287 12.7537C0.618812 13.0012 0.9112 13.125 1.25 13.125H9.375V15H6.25C6.06745 15 5.91816 15.0588 5.80059 15.1756C5.68379 15.2932 5.625 15.4425 5.625 15.625C5.625 15.8075 5.68301 15.9576 5.80059 16.0744C5.91816 16.1912 6.06745 16.25 6.25 16.25H13.75C13.9325 16.25 14.0826 16.1912 14.1994 16.0744C14.3162 15.9568 14.375 15.8075 14.375 15.625C14.375 15.4425 14.317 15.2924 14.1994 15.1756C14.0818 15.0588 13.9325 15 13.75 15H10.625V13.125H18.75C19.088 13.125 19.3812 13.0012 19.6287 12.7537C19.8762 12.5062 20 12.2138 20 11.875V1.25ZM1.24995 1.25001H18.75V11.875H1.24995V1.25001Z" fill="#4833E3"/>
</svg>
