<svg width="25" height="24" viewBox="0 0 25 24" fill="none" xmlns="http://www.w3.org/2000/svg">
    <g clip-path="url(#clip0_4801_29978)">
        <path d="M9.61768 6.90665C10.534 6.90665 11.2769 6.15804 11.2769 5.23457C11.2769 4.31111 10.534 3.5625 9.61768 3.5625C8.70134 3.5625 7.9585 4.31111 7.9585 5.23457C7.9585 6.15804 8.70134 6.90665 9.61768 6.90665Z" fill="white"/>
        <path d="M15.3833 6.90665C16.2997 6.90665 17.0425 6.15804 17.0425 5.23457C17.0425 4.31111 16.2997 3.5625 15.3833 3.5625C14.467 3.5625 13.7241 4.31111 13.7241 5.23457C13.7241 6.15804 14.467 6.90665 15.3833 6.90665Z" fill="white"/>
        <path d="M12.2317 8.09465C11.8525 7.3889 11.1106 6.90674 10.2623 6.90674H9.61719H8.972C8.1237 6.90674 7.38181 7.3889 7.00259 8.09465C7.79131 8.22388 8.39352 8.9136 8.39352 9.74503C8.39352 10.6685 7.65064 11.4171 6.73438 11.4171H7.37952C8.22781 11.4171 8.96975 11.8993 9.34892 12.6049C9.43625 12.5906 9.52583 12.5831 9.61723 12.5831C9.70855 12.5831 9.79817 12.5906 9.8855 12.605C10.2647 11.8993 11.0066 11.4171 11.8549 11.4171H12.5C11.5836 11.4171 10.8408 10.6685 10.8408 9.74503C10.8408 8.91356 11.4429 8.22384 12.2317 8.09465Z" fill="white"/>
        <path d="M14.7376 6.90674C13.8893 6.90674 13.1474 7.3889 12.7682 8.09465C13.557 8.22388 14.1591 8.9136 14.1591 9.74503C14.1591 10.6685 13.4163 11.4171 12.5 11.4171H13.1451C13.9934 11.4171 14.7353 11.8993 15.1145 12.6049C15.2019 12.5906 15.2915 12.5831 15.3829 12.5831C15.4742 12.5831 15.5638 12.5906 15.6511 12.605C16.0303 11.8993 16.7722 11.4171 17.6205 11.4171H18.2656C17.3493 11.4171 16.6064 10.6685 16.6064 9.74503C16.6064 8.9136 17.2086 8.22388 17.9974 8.09465C17.6181 7.3889 16.8762 6.90674 16.0279 6.90674H15.3828H14.7376Z" fill="white"/>
        <path d="M8.39308 9.74488C8.39308 8.91346 7.79088 8.22374 7.00216 8.0945C6.91483 8.08016 6.82525 8.07275 6.73389 8.07275C5.81754 8.07275 5.07471 8.8214 5.07471 9.74488C5.07471 10.6684 5.81754 11.417 6.73389 11.417C7.65025 11.417 8.39308 10.6684 8.39308 9.74488Z" fill="white"/>
        <path d="M12.2313 8.0945C11.4425 8.22374 10.8403 8.91346 10.8403 9.74488C10.8403 10.6684 11.5832 11.417 12.4996 11.417C13.4159 11.417 14.1587 10.6684 14.1587 9.74488C14.1587 8.91346 13.5566 8.22374 12.7678 8.0945C12.6805 8.08016 12.5908 8.07275 12.4995 8.07275C12.4083 8.07275 12.3186 8.08016 12.2313 8.0945Z" fill="white"/>
        <path d="M17.9959 8.0945C17.2071 8.22374 16.605 8.91346 16.605 9.74488C16.605 10.6684 17.3478 11.417 18.2642 11.417C19.1805 11.417 19.9234 10.6684 19.9234 9.74488C19.9234 8.8214 19.1805 8.07275 18.2642 8.07275C18.1729 8.07275 18.0832 8.08016 17.9959 8.0945Z" fill="white"/>
        <path d="M9.34888 12.6048C8.9697 11.8991 8.22777 11.417 7.37947 11.417H6.73438H6.08919C5.24089 11.417 4.499 11.8991 4.11978 12.6048C4.90855 12.734 5.5107 13.4237 5.5107 14.2551C5.5107 15.1786 4.76783 15.9272 3.85156 15.9272H4.4967C5.72745 15.9272 6.73438 16.942 6.73438 18.1823C6.73438 16.942 7.7413 15.9272 8.972 15.9272H9.61719C8.70083 15.9272 7.95795 15.1786 7.95795 14.2551C7.95795 13.4237 8.56011 12.734 9.34888 12.6048Z" fill="white"/>
        <path d="M11.8548 11.417C11.0065 11.417 10.2646 11.8991 9.88541 12.6048C10.6742 12.734 11.2763 13.4237 11.2763 14.2551C11.2763 15.1786 10.5335 15.9273 9.61719 15.9273H10.2623C11.493 15.9273 12.5 16.942 12.5 18.1823C12.5 16.942 13.5069 15.9273 14.7376 15.9273H15.3828C14.4665 15.9273 13.7236 15.1786 13.7236 14.2551C13.7236 13.4237 14.3257 12.734 15.1145 12.6049C14.7353 11.8991 13.9934 11.417 13.1451 11.417H12.5H11.8548Z" fill="white"/>
        <path d="M15.6511 12.6048C16.4398 12.734 17.042 13.4237 17.042 14.2551C17.042 15.1786 16.2991 15.9272 15.3828 15.9272H16.028C17.2587 15.9272 18.2656 16.942 18.2656 18.1823C18.2656 16.942 19.2725 15.9272 20.5032 15.9272H21.1484C20.2321 15.9272 19.4892 15.1786 19.4892 14.2551C19.4892 13.4237 20.0914 12.734 20.8802 12.6049C20.5009 11.8991 19.759 11.417 18.9107 11.417H18.2656H17.6204C16.7722 11.417 16.0303 11.8992 15.6511 12.6048Z" fill="white"/>
        <path d="M3.85113 15.9273C4.76744 15.9273 5.51027 15.1786 5.51027 14.2551C5.51027 13.4237 4.90811 12.734 4.11935 12.6048C4.03202 12.5905 3.94244 12.583 3.85108 12.583C2.93472 12.583 2.19189 13.3317 2.19189 14.2551C2.19194 15.1787 2.93477 15.9273 3.85113 15.9273Z" fill="white"/>
        <path d="M7.95752 14.2551C7.95752 15.1786 8.70039 15.9273 9.61675 15.9273C10.5331 15.9273 11.2758 15.1786 11.2758 14.2551C11.2758 13.4237 10.6737 12.734 9.88497 12.6048C9.79769 12.5905 9.70807 12.583 9.61671 12.583C9.52535 12.583 9.43577 12.5905 9.34839 12.6048C8.55968 12.734 7.95752 13.4237 7.95752 14.2551Z" fill="white"/>
        <path d="M13.7222 14.2551C13.7222 15.1786 14.465 15.9273 15.3814 15.9273C16.2977 15.9273 17.0405 15.1786 17.0405 14.2551C17.0405 13.4237 16.4384 12.734 15.6496 12.6048C15.5623 12.5905 15.4727 12.583 15.3814 12.583C15.29 12.583 15.2004 12.5905 15.113 12.6049C14.3243 12.734 13.7222 13.4237 13.7222 14.2551Z" fill="white"/>
        <path d="M19.4888 14.2551C19.4888 15.1786 20.2316 15.9273 21.148 15.9273C22.0643 15.9273 22.8071 15.1786 22.8071 14.2551C22.8071 13.3317 22.0643 12.583 21.148 12.583C21.0566 12.583 20.9671 12.5905 20.8797 12.6049C20.0909 12.734 19.4888 13.4237 19.4888 14.2551Z" fill="white"/>
        <path d="M20.5032 15.9272C19.2725 15.9272 18.2656 16.942 18.2656 18.1823V20.4375H24.0312V18.1824C24.0312 16.942 23.0243 15.9273 21.7936 15.9273H21.1484L20.5032 15.9272Z" fill="white"/>
        <path d="M18.2656 18.1823C18.2656 16.942 17.2587 15.9272 16.028 15.9272H15.3828H14.7376C13.5069 15.9272 12.5 16.942 12.5 18.1823V20.4374H18.2656V18.1823Z" fill="white"/>
        <path d="M12.5 18.1823C12.5 16.942 11.493 15.9272 10.2623 15.9272H9.61719H8.972C7.7413 15.9272 6.73438 16.942 6.73438 18.1823V20.4374H12.5V18.1823Z" fill="white"/>
        <path d="M6.73438 18.1823C6.73438 16.942 5.72745 15.9272 4.4967 15.9272H3.85156H3.20638C1.97567 15.9272 0.96875 16.942 0.96875 18.1823V20.4374H6.73438V18.1823Z" fill="white"/>
        <path d="M20.7611 18.2261H20.75C20.4912 18.2261 20.2812 18.436 20.2812 18.6948C20.2812 18.9537 20.4912 19.1636 20.75 19.1636H20.7611C21.0199 19.1636 21.2298 18.9537 21.2298 18.6948C21.2298 18.436 21.02 18.2261 20.7611 18.2261Z" fill="black"/>
        <path d="M24.0312 20.9062C24.2901 20.9062 24.5 20.6963 24.5 20.4375V18.6955C24.5 18.6952 24.5 18.6949 24.5 18.6946C24.5 18.6943 24.5 18.694 24.5 18.6937V18.1823C24.5 17.0291 23.7793 16.0417 22.7649 15.645C23.0833 15.2707 23.2763 14.7853 23.2763 14.2552C23.2763 13.0747 22.3217 12.1143 21.1484 12.1143C21.1416 12.1143 21.1349 12.1148 21.1282 12.1148C20.816 11.6653 20.3816 11.3253 19.8849 11.1316C20.2017 10.7577 20.3935 10.2735 20.3935 9.74494C20.3935 8.56444 19.439 7.60406 18.2656 7.60406C18.2588 7.60406 18.2522 7.60453 18.2455 7.60458C17.9333 7.155 17.4988 6.81497 17.0021 6.62123C17.3188 6.24731 17.5107 5.76319 17.5107 5.23453C17.5107 4.05412 16.5561 3.09375 15.3828 3.09375C14.2095 3.09375 13.2549 4.05412 13.2549 5.23458C13.2549 5.76323 13.4467 6.24741 13.7635 6.62128C13.2667 6.81502 12.8323 7.15505 12.5201 7.60462C12.5134 7.60458 12.5067 7.60411 12.5 7.60411C12.4932 7.60411 12.4866 7.60458 12.4799 7.60462C12.1677 7.15505 11.7332 6.81502 11.2364 6.62128C11.5532 6.24736 11.7451 5.76323 11.7451 5.23458C11.745 4.05412 10.7905 3.09375 9.61719 3.09375C8.44381 3.09375 7.4892 4.05412 7.4892 5.23458C7.4892 5.76323 7.68106 6.24741 7.99784 6.62128C7.50106 6.81502 7.06658 7.15505 6.75444 7.60462C6.74773 7.60458 6.74108 7.60411 6.73438 7.60411C5.56105 7.60411 4.60644 8.56448 4.60644 9.74498C4.60644 10.2736 4.7983 10.7577 5.11508 11.1316C4.61834 11.3254 4.18386 11.6653 3.87172 12.1148C3.86497 12.1148 3.85831 12.1143 3.85156 12.1143C2.67823 12.1143 1.72362 13.0747 1.72362 14.2552C1.72362 14.7854 1.91661 15.2708 2.23508 15.6451C1.2207 16.0418 0.5 17.0292 0.5 18.1824V20.4375C0.5 20.6963 0.709859 20.9062 0.96875 20.9062H24.0312ZM22.3388 14.2552C22.3388 14.9187 21.8048 15.4585 21.1484 15.4585C20.492 15.4585 19.958 14.9187 19.958 14.2552C19.958 13.5916 20.492 13.0518 21.1484 13.0518C21.8048 13.0518 22.3388 13.5916 22.3388 14.2552ZM19.0205 14.2552C19.0205 14.7853 19.2134 15.2707 19.5319 15.645C19.0145 15.8474 18.5734 16.2029 18.2656 16.6563C17.9578 16.2029 17.5166 15.8474 16.9993 15.645C17.3177 15.2707 17.5107 14.7853 17.5107 14.2552C17.5107 13.4473 17.0635 12.7427 16.4052 12.3782C16.7295 12.067 17.1617 11.8858 17.6204 11.8858H18.9107C19.3693 11.8858 19.8016 12.067 20.1259 12.3782C19.4677 12.7427 19.0205 13.4473 19.0205 14.2552ZM12.5 16.6564C12.1922 16.2029 11.751 15.8474 11.2336 15.6451C11.552 15.2708 11.745 14.7854 11.745 14.2552C11.745 13.4474 11.2979 12.7427 10.6396 12.3783C10.964 12.067 11.3961 11.8858 11.8548 11.8858H13.1451C13.6038 11.8858 14.036 12.067 14.3603 12.3783C13.702 12.7427 13.2548 13.4474 13.2548 14.2552C13.2548 14.7854 13.4478 15.2708 13.7663 15.6451C13.2489 15.8474 12.8078 16.2029 12.5 16.6564ZM8.4267 14.2552C8.4267 13.5916 8.96075 13.0518 9.61719 13.0518C10.2735 13.0518 10.8075 13.5916 10.8075 14.2552C10.8075 14.9187 10.2735 15.4585 9.61719 15.4585C8.9608 15.4585 8.4267 14.9187 8.4267 14.2552ZM12.5 8.54161C13.1564 8.54161 13.6904 9.08147 13.6904 9.74498C13.6904 10.4085 13.1563 10.9483 12.5 10.9483C11.8436 10.9483 11.3096 10.4085 11.3096 9.74498C11.3096 9.08142 11.8436 8.54161 12.5 8.54161ZM14.1923 14.2552C14.1923 13.5916 14.7264 13.0518 15.3828 13.0518C16.0392 13.0518 16.5732 13.5916 16.5732 14.2552C16.5732 14.9187 16.0392 15.4585 15.3828 15.4585C14.7264 15.4585 14.1923 14.9187 14.1923 14.2552ZM19.4561 9.74498C19.4561 10.4085 18.922 10.9483 18.2656 10.9483C17.6092 10.9483 17.0752 10.4085 17.0752 9.74498C17.0752 9.08147 17.6092 8.54161 18.2656 8.54161C18.922 8.54161 19.4561 9.08142 19.4561 9.74498ZM15.3828 4.03125C16.0392 4.03125 16.5732 4.57106 16.5732 5.23458C16.5732 5.89809 16.0392 6.43795 15.3828 6.43795C14.7264 6.43795 14.1924 5.89809 14.1924 5.23458C14.1924 4.57106 14.7264 4.03125 15.3828 4.03125ZM14.7376 7.37545H16.0279C16.4866 7.37545 16.9189 7.55672 17.2432 7.86802C16.5849 8.23242 16.1377 8.93709 16.1377 9.74498C16.1377 10.2736 16.3295 10.7577 16.6463 11.1316C16.1495 11.3254 15.7152 11.6653 15.403 12.1148C15.3963 12.1148 15.3896 12.1143 15.3828 12.1143C15.376 12.1143 15.3694 12.1148 15.3626 12.1148C15.0504 11.6654 14.616 11.3254 14.1193 11.1316C14.436 10.7577 14.6279 10.2736 14.6279 9.74498C14.6279 8.93709 14.1807 8.23242 13.5223 7.86802C13.8467 7.55672 14.2789 7.37545 14.7376 7.37545ZM9.61719 4.03125C10.2735 4.03125 10.8075 4.57106 10.8075 5.23458C10.8075 5.89809 10.2735 6.43795 9.61719 6.43795C8.9608 6.43795 8.4267 5.89809 8.4267 5.23458C8.4267 4.57106 8.9608 4.03125 9.61719 4.03125ZM8.972 7.37545H10.2623C10.721 7.37545 11.1532 7.55672 11.4776 7.86806C10.8193 8.23242 10.3721 8.93709 10.3721 9.74498C10.3721 10.2736 10.5639 10.7577 10.8807 11.1316C10.384 11.3254 9.94948 11.6653 9.63734 12.1148C9.63059 12.1148 9.62394 12.1143 9.61719 12.1143C9.61039 12.1143 9.60378 12.1148 9.59703 12.1148C9.28489 11.6653 8.85041 11.3254 8.35367 11.1316C8.67045 10.7577 8.86231 10.2736 8.86231 9.74498C8.86231 8.93709 8.41508 8.23242 7.75677 7.86802C8.08105 7.55672 8.51333 7.37545 8.972 7.37545ZM6.73438 8.54161C7.39077 8.54161 7.92477 9.08147 7.92477 9.74498C7.92477 10.4085 7.39072 10.9483 6.73438 10.9483C6.07798 10.9483 5.54394 10.4085 5.54394 9.74498C5.54394 9.08142 6.07798 8.54161 6.73438 8.54161ZM6.08919 11.8858H7.37947C7.83819 11.8858 8.27037 12.067 8.5947 12.3783C7.93639 12.7427 7.48916 13.4474 7.48916 14.2552C7.48916 14.7854 7.68214 15.2708 8.00061 15.6451C7.48325 15.8474 7.04211 16.2029 6.73428 16.6564C6.42645 16.2029 5.98531 15.8474 5.46795 15.6451C5.78642 15.2708 5.97941 14.7854 5.97941 14.2552C5.97941 13.4474 5.53222 12.7427 4.87391 12.3783C5.19833 12.067 5.63052 11.8858 6.08919 11.8858ZM3.85156 13.0518C4.50795 13.0518 5.04195 13.5917 5.04195 14.2552C5.04195 14.9187 4.50791 15.4585 3.85156 15.4585C3.19517 15.4585 2.66112 14.9187 2.66112 14.2552C2.66112 13.5916 3.19517 13.0518 3.85156 13.0518ZM1.4375 19.1633H2.89227C3.15116 19.1633 3.36102 18.9535 3.36102 18.6946C3.36102 18.4358 3.15116 18.2258 2.89227 18.2258H1.4375V18.1823C1.4375 17.1973 2.23887 16.396 3.22386 16.396H4.47922C5.46425 16.396 6.26558 17.1974 6.26558 18.1823V19.9688H1.4375V19.1633ZM7.20312 18.1824C7.20312 17.1974 8.0045 16.396 8.98948 16.396H10.2448C11.2299 16.396 12.0312 17.1974 12.0312 18.1824V19.9688H7.20312V18.1824ZM12.9688 18.1824C12.9688 17.1974 13.7701 16.396 14.7551 16.396H16.0105C16.9955 16.396 17.7968 17.1974 17.7968 18.1824V19.9688H12.9688V18.1824ZM18.7344 19.9688V18.1824C18.7344 17.1974 19.5358 16.396 20.5207 16.396H21.7761C22.7611 16.396 23.5624 17.1974 23.5624 18.1824V18.2259H22.1077C21.8488 18.2259 21.6389 18.4358 21.6389 18.6946C21.6389 18.9535 21.8488 19.1634 22.1077 19.1634H23.5624V19.9688H18.7344Z" fill="black"/>
        <path d="M4.25027 18.2261H4.23926C3.98037 18.2261 3.77051 18.436 3.77051 18.6948C3.77051 18.9537 3.98037 19.1636 4.23926 19.1636H4.25027C4.50916 19.1636 4.71902 18.9537 4.71902 18.6948C4.71902 18.436 4.50916 18.2261 4.25027 18.2261Z" fill="black"/>
    </g>
    <defs>
        <clipPath id="clip0_4801_29978">
            <rect width="24" height="24" fill="white" transform="translate(0.5)"/>
        </clipPath>
    </defs>
</svg>
