<svg width="41" height="34" viewBox="0 0 41 34" fill="none" xmlns="http://www.w3.org/2000/svg">
<path fill-rule="evenodd" clip-rule="evenodd" d="M30.9543 12.6053C30.9543 13.2189 30.8891 13.8498 30.7576 14.5219L30.759 14.5205C34.4284 14.4487 37.3911 11.4314 37.3911 7.73408C37.3911 3.99148 34.3553 0.946289 30.6235 0.946289C29.524 0.946289 28.4761 1.20582 27.5068 1.71823C26.7285 2.13083 26.026 2.70046 25.4536 3.38324C26.1734 3.7732 26.8254 4.22705 27.4018 4.73548C28.2411 3.82512 29.3925 3.31137 30.6262 3.31137C33.0579 3.31137 35.0353 5.29447 35.0353 7.73009C35.0353 10.0672 33.2145 11.9864 30.921 12.1382C30.9396 12.2872 30.9543 12.4416 30.9543 12.6053ZM20.4576 19.3931C16.7232 19.3931 13.6847 16.3479 13.6847 12.6053C13.6847 8.8627 16.7232 5.81751 20.4576 5.81751C24.1894 5.81751 27.2253 8.8627 27.2253 12.6053C27.2253 16.3479 24.1894 19.3931 20.4576 19.3931ZM20.4548 8.1772C18.0245 8.1772 16.0457 10.1603 16.0457 12.5986C16.0457 15.0329 18.0231 17.0133 20.4548 17.0133C22.8864 17.0133 24.8637 15.0315 24.8637 12.5946C24.8637 10.159 22.8864 8.1772 20.4548 8.1772ZM33.768 26.0518L34.0324 28.4181H40.4997L39.541 15.5386L35.8039 14.028L34.9221 16.2294L37.3776 17.213L37.8092 26.0518H33.768ZM10.8823 33.2841L11.8318 20.406L15.5915 18.8967L16.4679 21.0954L13.9979 22.0789L13.5715 30.9151H27.6366L27.2036 22.0789L24.7481 21.0954L25.6286 18.8967L29.3656 20.406L30.3245 33.2855L10.8823 33.2841ZM0.5 28.4181L1.45883 15.5386L5.19589 14.028L6.07636 16.2267L3.62085 17.213L3.18924 26.0504H7.23041L6.96614 28.4168L0.5 28.4181ZM10.2376 14.5245C10.2378 14.5245 10.2379 14.5245 10.2381 14.5245V14.5271C10.2379 14.5263 10.2378 14.5254 10.2376 14.5245ZM3.60331 7.73806C3.60331 11.4366 6.56716 14.4523 10.2376 14.5245C10.1051 13.852 10.0402 13.2207 10.0402 12.6067C10.0402 12.4443 10.0548 12.2886 10.0734 12.1395C7.77994 11.9864 5.96187 10.0672 5.96187 7.73141C5.96187 5.29447 7.94063 3.31269 10.3709 3.31269C11.6086 3.31269 12.76 3.82776 13.594 4.73946C14.1756 4.22705 14.8278 3.77453 15.5422 3.38722C14.9699 2.70445 14.2674 2.13348 13.4877 1.72222C12.5183 1.20981 11.4705 0.950274 10.3709 0.950274C6.63916 0.950274 3.60331 3.99547 3.60331 7.73806Z" fill="#191970"/>
</svg>
