<svg width="24" height="24" viewBox="0 0 24 24" fill="none" xmlns="http://www.w3.org/2000/svg">
<path d="M9.11768 6.90659C10.034 6.90659 10.7769 6.15797 10.7769 5.23451C10.7769 4.31105 10.034 3.56244 9.11768 3.56244C8.20134 3.56244 7.4585 4.31105 7.4585 5.23451C7.4585 6.15797 8.20134 6.90659 9.11768 6.90659Z" fill="#F1DBC8"/>
<path d="M14.8833 6.90659C15.7997 6.90659 16.5425 6.15797 16.5425 5.23451C16.5425 4.31105 15.7997 3.56244 14.8833 3.56244C13.967 3.56244 13.2241 4.31105 13.2241 5.23451C13.2241 6.15797 13.967 6.90659 14.8833 6.90659Z" fill="#F1DBC8"/>
<path d="M11.7317 8.09437C11.3525 7.38862 10.6106 6.90646 9.76228 6.90646H9.11719H8.472C7.6237 6.90646 6.88181 7.38862 6.50259 8.09437C7.29131 8.22361 7.89352 8.91333 7.89352 9.74475C7.89352 10.6682 7.15064 11.4168 6.23438 11.4168H6.87952C7.72781 11.4168 8.46975 11.899 8.84892 12.6046C8.93625 12.5903 9.02583 12.5829 9.11723 12.5829C9.20855 12.5829 9.29817 12.5903 9.3855 12.6047C9.76472 11.899 10.5066 11.4168 11.3549 11.4168H12C11.0836 11.4168 10.3408 10.6682 10.3408 9.74475C10.3408 8.91328 10.9429 8.22356 11.7317 8.09437Z" fill="#FF916C"/>
<path d="M14.2376 6.90646C13.3893 6.90646 12.6474 7.38862 12.2682 8.09437C13.057 8.22361 13.6591 8.91333 13.6591 9.74475C13.6591 10.6682 12.9163 11.4168 12 11.4168H12.6451C13.4934 11.4168 14.2353 11.899 14.6145 12.6046C14.7019 12.5903 14.7915 12.5829 14.8829 12.5829C14.9742 12.5829 15.0638 12.5903 15.1511 12.6047C15.5303 11.899 16.2722 11.4168 17.1205 11.4168H17.7656C16.8493 11.4168 16.1064 10.6682 16.1064 9.74475C16.1064 8.91333 16.7086 8.22361 17.4974 8.09437C17.1181 7.38862 16.3762 6.90646 15.5279 6.90646H14.8828H14.2376Z" fill="#C22C65"/>
<path d="M7.89308 9.74482C7.89308 8.9134 7.29088 8.22368 6.50216 8.09444C6.41483 8.0801 6.32525 8.07269 6.23389 8.07269C5.31754 8.07269 4.57471 8.82133 4.57471 9.74482C4.57471 10.6683 5.31754 11.4169 6.23389 11.4169C7.15025 11.4169 7.89308 10.6683 7.89308 9.74482Z" fill="#F1DBC8"/>
<path d="M11.7313 8.09444C10.9425 8.22368 10.3403 8.9134 10.3403 9.74482C10.3403 10.6683 11.0832 11.4169 11.9996 11.4169C12.9159 11.4169 13.6587 10.6683 13.6587 9.74482C13.6587 8.9134 13.0566 8.22368 12.2678 8.09444C12.1805 8.0801 12.0908 8.07269 11.9995 8.07269C11.9083 8.07269 11.8186 8.0801 11.7313 8.09444Z" fill="#F1DBC8"/>
<path d="M17.4959 8.09444C16.7071 8.22368 16.105 8.9134 16.105 9.74482C16.105 10.6683 16.8478 11.4169 17.7642 11.4169C18.6805 11.4169 19.4234 10.6683 19.4234 9.74482C19.4234 8.82133 18.6805 8.07269 17.7642 8.07269C17.6729 8.07269 17.5832 8.0801 17.4959 8.09444Z" fill="#F1DBC8"/>
<path d="M8.84888 12.6048C8.4697 11.8992 7.72777 11.417 6.87947 11.417H6.23438H5.58919C4.74089 11.417 3.999 11.8992 3.61978 12.6048C4.40855 12.7341 5.0107 13.4237 5.0107 14.2552C5.0107 15.1786 4.26783 15.9273 3.35156 15.9273H3.9967C5.22745 15.9273 6.23438 16.942 6.23438 18.1823C6.23438 16.942 7.2413 15.9273 8.472 15.9273H9.11719C8.20083 15.9273 7.45795 15.1786 7.45795 14.2552C7.45795 13.4237 8.06011 12.7341 8.84888 12.6048Z" fill="#55CD8E"/>
<path d="M11.3548 11.4171C10.5065 11.4171 9.76463 11.8993 9.38541 12.6049C10.1742 12.7342 10.7763 13.4238 10.7763 14.2553C10.7763 15.1787 10.0335 15.9274 9.11719 15.9274H9.76233C10.993 15.9274 12 16.9421 12 18.1824C12 16.9421 13.0069 15.9274 14.2376 15.9274H14.8828C13.9665 15.9274 13.2236 15.1787 13.2236 14.2553C13.2236 13.4238 13.8257 12.7342 14.6145 12.605C14.2353 11.8993 13.4934 11.4171 12.6451 11.4171H12H11.3548Z" fill="#876E67"/>
<path d="M15.1511 12.6048C15.9398 12.7341 16.542 13.4237 16.542 14.2552C16.542 15.1786 15.7991 15.9273 14.8828 15.9273H15.528C16.7587 15.9273 17.7656 16.942 17.7656 18.1823C17.7656 16.942 18.7725 15.9273 20.0032 15.9273H20.6484C19.7321 15.9273 18.9892 15.1786 18.9892 14.2552C18.9892 13.4237 19.5914 12.7341 20.3802 12.6049C20.0009 11.8992 19.259 11.417 18.4107 11.417H17.7656H17.1204C16.2722 11.4171 15.5303 11.8992 15.1511 12.6048Z" fill="#4BC1D7"/>
<path d="M3.35113 15.9273C4.26744 15.9273 5.01027 15.1786 5.01027 14.2552C5.01027 13.4237 4.40811 12.7341 3.61935 12.6048C3.53202 12.5905 3.44244 12.583 3.35108 12.583C2.43472 12.583 1.69189 13.3317 1.69189 14.2552C1.69194 15.1787 2.43477 15.9273 3.35113 15.9273Z" fill="#F1DBC8"/>
<path d="M7.45752 14.2552C7.45752 15.1786 8.20039 15.9273 9.11675 15.9273C10.0331 15.9273 10.7758 15.1786 10.7758 14.2552C10.7758 13.4237 10.1737 12.7341 9.38497 12.6048C9.29769 12.5905 9.20807 12.583 9.11671 12.583C9.02535 12.583 8.93577 12.5905 8.84839 12.6048C8.05968 12.7341 7.45752 13.4237 7.45752 14.2552Z" fill="#F1DBC8"/>
<path d="M13.2222 14.2552C13.2222 15.1786 13.965 15.9273 14.8814 15.9273C15.7977 15.9273 16.5405 15.1786 16.5405 14.2552C16.5405 13.4237 15.9384 12.7341 15.1496 12.6048C15.0623 12.5905 14.9727 12.583 14.8814 12.583C14.79 12.583 14.7004 12.5905 14.613 12.6049C13.8243 12.7341 13.2222 13.4237 13.2222 14.2552Z" fill="#F1DBC8"/>
<path d="M18.9888 14.2552C18.9888 15.1786 19.7316 15.9273 20.648 15.9273C21.5643 15.9273 22.3071 15.1786 22.3071 14.2552C22.3071 13.3317 21.5643 12.583 20.648 12.583C20.5566 12.583 20.4671 12.5905 20.3797 12.6049C19.5909 12.7341 18.9888 13.4237 18.9888 14.2552Z" fill="#F1DBC8"/>
<path d="M20.0032 15.9271C18.7725 15.9271 17.7656 16.9418 17.7656 18.1822V20.4373H23.5312V18.1822C23.5312 16.9419 22.5243 15.9271 21.2936 15.9271H20.6484L20.0032 15.9271Z" fill="#BDD377"/>
<path d="M17.7656 18.1822C17.7656 16.9419 16.7587 15.9271 15.528 15.9271H14.8828H14.2376C13.0069 15.9271 12 16.9419 12 18.1822V20.4373H17.7656V18.1822Z" fill="#FFBD50"/>
<path d="M12 18.1822C12 16.9419 10.993 15.9271 9.76233 15.9271H9.11719H8.472C7.2413 15.9271 6.23438 16.9419 6.23438 18.1822V20.4373H12V18.1822Z" fill="#76C8D6"/>
<path d="M6.23438 18.1822C6.23438 16.9419 5.22745 15.9271 3.9967 15.9271H3.35156H2.70638C1.47567 15.9271 0.46875 16.9419 0.46875 18.1822V20.4373H6.23438V18.1822Z" fill="#F13D7C"/>
<path d="M20.2611 18.2261H20.25C19.9912 18.2261 19.7812 18.436 19.7812 18.6949C19.7812 18.9537 19.9912 19.1636 20.25 19.1636H20.2611C20.5199 19.1636 20.7298 18.9537 20.7298 18.6949C20.7298 18.436 20.52 18.2261 20.2611 18.2261Z" fill="black"/>
<path d="M23.5312 20.9062C23.7901 20.9062 24 20.6963 24 20.4375V18.6955C24 18.6952 24 18.6949 24 18.6946C24 18.6943 24 18.694 24 18.6937V18.1823C24 17.0291 23.2793 16.0417 22.2649 15.645C22.5833 15.2707 22.7763 14.7853 22.7763 14.2552C22.7763 13.0747 21.8217 12.1143 20.6484 12.1143C20.6416 12.1143 20.6349 12.1147 20.6282 12.1148C20.316 11.6653 19.8816 11.3253 19.3849 11.1316C19.7017 10.7577 19.8935 10.2735 19.8935 9.74494C19.8935 8.56444 18.939 7.60406 17.7656 7.60406C17.7588 7.60406 17.7522 7.60453 17.7455 7.60458C17.4333 7.155 16.9988 6.81497 16.5021 6.62123C16.8188 6.24731 17.0107 5.76319 17.0107 5.23453C17.0107 4.05412 16.0561 3.09375 14.8828 3.09375C13.7095 3.09375 12.7549 4.05412 12.7549 5.23458C12.7549 5.76323 12.9467 6.24741 13.2635 6.62128C12.7667 6.81502 12.3323 7.15505 12.0201 7.60462C12.0134 7.60458 12.0067 7.60411 12 7.60411C11.9932 7.60411 11.9866 7.60458 11.9799 7.60462C11.6677 7.15505 11.2332 6.81502 10.7364 6.62128C11.0532 6.24736 11.2451 5.76323 11.2451 5.23458C11.245 4.05412 10.2905 3.09375 9.11719 3.09375C7.94381 3.09375 6.9892 4.05412 6.9892 5.23458C6.9892 5.76323 7.18106 6.24741 7.49784 6.62128C7.00106 6.81502 6.56658 7.15505 6.25444 7.60462C6.24773 7.60458 6.24108 7.60411 6.23438 7.60411C5.06105 7.60411 4.10644 8.56448 4.10644 9.74498C4.10644 10.2736 4.2983 10.7577 4.61508 11.1316C4.11834 11.3254 3.68386 11.6653 3.37172 12.1148C3.36497 12.1148 3.35831 12.1143 3.35156 12.1143C2.17823 12.1143 1.22362 13.0747 1.22362 14.2552C1.22362 14.7854 1.41661 15.2708 1.73508 15.6451C0.720703 16.0418 0 17.0292 0 18.1824V20.4375C0 20.6963 0.209859 20.9062 0.46875 20.9062H23.5312ZM21.8388 14.2552C21.8388 14.9187 21.3048 15.4585 20.6484 15.4585C19.992 15.4585 19.458 14.9187 19.458 14.2552C19.458 13.5916 19.992 13.0518 20.6484 13.0518C21.3048 13.0518 21.8388 13.5916 21.8388 14.2552ZM18.5205 14.2552C18.5205 14.7853 18.7134 15.2707 19.0319 15.645C18.5145 15.8474 18.0734 16.2029 17.7656 16.6563C17.4578 16.2029 17.0166 15.8474 16.4993 15.645C16.8177 15.2707 17.0107 14.7853 17.0107 14.2552C17.0107 13.4473 16.5635 12.7427 15.9052 12.3782C16.2295 12.067 16.6617 11.8858 17.1204 11.8858H18.4107C18.8693 11.8858 19.3016 12.067 19.6259 12.3782C18.9677 12.7427 18.5205 13.4473 18.5205 14.2552ZM12 16.6564C11.6922 16.2029 11.251 15.8474 10.7336 15.6451C11.052 15.2708 11.245 14.7854 11.245 14.2552C11.245 13.4474 10.7979 12.7427 10.1396 12.3783C10.464 12.067 10.8961 11.8858 11.3548 11.8858H12.6451C13.1038 11.8858 13.536 12.067 13.8603 12.3783C13.202 12.7427 12.7548 13.4474 12.7548 14.2552C12.7548 14.7854 12.9478 15.2708 13.2663 15.6451C12.7489 15.8474 12.3078 16.2029 12 16.6564ZM7.9267 14.2552C7.9267 13.5916 8.46075 13.0518 9.11719 13.0518C9.77353 13.0518 10.3075 13.5916 10.3075 14.2552C10.3075 14.9187 9.77353 15.4585 9.11719 15.4585C8.4608 15.4585 7.9267 14.9187 7.9267 14.2552ZM12 8.54161C12.6564 8.54161 13.1904 9.08147 13.1904 9.74498C13.1904 10.4085 12.6563 10.9483 12 10.9483C11.3436 10.9483 10.8096 10.4085 10.8096 9.74498C10.8096 9.08142 11.3436 8.54161 12 8.54161ZM13.6923 14.2552C13.6923 13.5916 14.2264 13.0518 14.8828 13.0518C15.5392 13.0518 16.0732 13.5916 16.0732 14.2552C16.0732 14.9187 15.5392 15.4585 14.8828 15.4585C14.2264 15.4585 13.6923 14.9187 13.6923 14.2552ZM18.9561 9.74498C18.9561 10.4085 18.422 10.9483 17.7656 10.9483C17.1092 10.9483 16.5752 10.4085 16.5752 9.74498C16.5752 9.08147 17.1092 8.54161 17.7656 8.54161C18.422 8.54161 18.9561 9.08142 18.9561 9.74498ZM14.8828 4.03125C15.5392 4.03125 16.0732 4.57106 16.0732 5.23458C16.0732 5.89809 15.5392 6.43795 14.8828 6.43795C14.2264 6.43795 13.6924 5.89809 13.6924 5.23458C13.6924 4.57106 14.2264 4.03125 14.8828 4.03125ZM14.2376 7.37545H15.5279C15.9866 7.37545 16.4189 7.55672 16.7432 7.86802C16.0849 8.23242 15.6377 8.93709 15.6377 9.74498C15.6377 10.2736 15.8295 10.7577 16.1463 11.1316C15.6495 11.3254 15.2152 11.6653 14.903 12.1148C14.8963 12.1148 14.8896 12.1143 14.8828 12.1143C14.876 12.1143 14.8694 12.1148 14.8626 12.1148C14.5504 11.6654 14.116 11.3254 13.6193 11.1316C13.936 10.7577 14.1279 10.2736 14.1279 9.74498C14.1279 8.93709 13.6807 8.23242 13.0223 7.86802C13.3467 7.55672 13.7789 7.37545 14.2376 7.37545ZM9.11719 4.03125C9.77353 4.03125 10.3075 4.57106 10.3075 5.23458C10.3075 5.89809 9.77353 6.43795 9.11719 6.43795C8.4608 6.43795 7.9267 5.89809 7.9267 5.23458C7.9267 4.57106 8.4608 4.03125 9.11719 4.03125ZM8.472 7.37545H9.76228C10.221 7.37545 10.6532 7.55672 10.9776 7.86806C10.3193 8.23242 9.87206 8.93709 9.87206 9.74498C9.87206 10.2736 10.0639 10.7577 10.3807 11.1316C9.88397 11.3254 9.44948 11.6653 9.13734 12.1148C9.13059 12.1148 9.12394 12.1143 9.11719 12.1143C9.11039 12.1143 9.10378 12.1148 9.09703 12.1148C8.78489 11.6653 8.35041 11.3254 7.85367 11.1316C8.17045 10.7577 8.36231 10.2736 8.36231 9.74498C8.36231 8.93709 7.91508 8.23242 7.25677 7.86802C7.58105 7.55672 8.01333 7.37545 8.472 7.37545ZM6.23438 8.54161C6.89077 8.54161 7.42477 9.08147 7.42477 9.74498C7.42477 10.4085 6.89072 10.9483 6.23438 10.9483C5.57798 10.9483 5.04394 10.4085 5.04394 9.74498C5.04394 9.08142 5.57798 8.54161 6.23438 8.54161ZM5.58919 11.8858H6.87947C7.33819 11.8858 7.77037 12.067 8.0947 12.3783C7.43639 12.7427 6.98916 13.4474 6.98916 14.2552C6.98916 14.7854 7.18214 15.2708 7.50061 15.6451C6.98325 15.8474 6.54211 16.2029 6.23428 16.6564C5.92645 16.2029 5.48531 15.8474 4.96795 15.6451C5.28642 15.2708 5.47941 14.7854 5.47941 14.2552C5.47941 13.4474 5.03222 12.7427 4.37391 12.3783C4.69833 12.067 5.13052 11.8858 5.58919 11.8858ZM3.35156 13.0518C4.00795 13.0518 4.54195 13.5917 4.54195 14.2552C4.54195 14.9187 4.00791 15.4585 3.35156 15.4585C2.69517 15.4585 2.16112 14.9187 2.16112 14.2552C2.16112 13.5916 2.69517 13.0518 3.35156 13.0518ZM0.9375 19.1633H2.39227C2.65116 19.1633 2.86102 18.9535 2.86102 18.6946C2.86102 18.4358 2.65116 18.2258 2.39227 18.2258H0.9375V18.1823C0.9375 17.1973 1.73888 16.396 2.72386 16.396H3.97922C4.96425 16.396 5.76558 17.1974 5.76558 18.1823V19.9688H0.9375V19.1633ZM6.70312 18.1824C6.70312 17.1974 7.5045 16.396 8.48948 16.396H9.74484C10.7299 16.396 11.5312 17.1974 11.5312 18.1824V19.9688H6.70312V18.1824ZM12.4688 18.1824C12.4688 17.1974 13.2701 16.396 14.2551 16.396H15.5105C16.4955 16.396 17.2968 17.1974 17.2968 18.1824V19.9688H12.4688V18.1824ZM18.2344 19.9688V18.1824C18.2344 17.1974 19.0358 16.396 20.0207 16.396H21.2761C22.2611 16.396 23.0624 17.1974 23.0624 18.1824V18.2259H21.6077C21.3488 18.2259 21.1389 18.4358 21.1389 18.6946C21.1389 18.9535 21.3488 19.1634 21.6077 19.1634H23.0624V19.9688H18.2344Z" fill="black"/>
<path d="M3.75027 18.2261H3.73926C3.48037 18.2261 3.27051 18.436 3.27051 18.6949C3.27051 18.9537 3.48037 19.1636 3.73926 19.1636H3.75027C4.00916 19.1636 4.21902 18.9537 4.21902 18.6949C4.21902 18.436 4.00916 18.2261 3.75027 18.2261Z" fill="black"/>
</svg>
