<svg width="24" height="25" viewBox="0 0 24 25" fill="none" xmlns="http://www.w3.org/2000/svg">
<g clip-path="url(#clip0_3857_21311)">
<path d="M19.3997 18.0188L15.4395 16.8507H8.56059L4.60033 18.0188C3.64085 18.3018 2.98193 19.1848 2.98193 20.1878V24.6193H21.0181V20.1878C21.0181 19.1849 20.3592 18.3018 19.3997 18.0188Z" fill="#EDEBED"/>
<path d="M13.8787 24.6192H10.1212L9.36963 17.083H14.6302L13.8787 24.6192Z" fill="#A5CDFF"/>
<path d="M9.54053 18.7972C10.1999 19.3709 11.0584 19.7207 11.9999 19.7207C12.9414 19.7207 13.7999 19.3709 14.4593 18.7972L14.6302 17.083H9.36963L9.54053 18.7972Z" fill="#8CB4EB"/>
<path d="M11.9999 18.5902C10.5473 18.5902 9.36963 17.4092 9.36963 15.9525V13.3148H14.6302V15.9525C14.6302 17.4092 13.4526 18.5902 11.9999 18.5902Z" fill="#F7D291"/>
<path d="M9.36963 15.2859C10.1591 15.7088 11.0542 15.9525 11.9999 15.9525C12.9456 15.9525 13.8407 15.7088 14.6302 15.2859V13.3148H9.36963V15.2859Z" fill="#F0C382"/>
<path d="M17.4485 8.41637H16.8849V4.64828H7.1153V8.41637H6.55167C6.03287 8.41637 5.6123 8.83811 5.6123 9.35838C5.6123 9.8786 6.03287 10.3004 6.55167 10.3004H7.13428C7.32675 12.8291 9.42917 14.8221 12.0001 14.8221C14.5711 14.8221 16.6735 12.8291 16.8659 10.3004H17.4485C17.9674 10.3004 18.3879 9.8786 18.3879 9.35838C18.3879 8.83816 17.9673 8.41637 17.4485 8.41637Z" fill="#FFE1A0"/>
<path d="M7.11526 4.64828V8.41637H6.58951C6.16168 8.41637 5.76212 8.68825 5.65131 9.10262C5.48373 9.72926 5.95689 10.3004 6.5566 10.3004H7.13429C7.32676 12.8292 9.42918 14.8222 12.0001 14.8222C12.2572 14.8222 12.5078 14.7971 12.754 14.7587C10.4128 14.3963 8.61834 12.3729 8.61834 9.92368V7.55563C8.61834 6.87451 9.21703 6.3643 9.89151 6.44487C10.2417 6.48671 10.6166 6.50979 11.0185 6.50979C12.1402 6.50979 13.3888 6.33126 14.7298 5.97923C15.4735 5.78396 16.0952 5.29251 16.4775 4.64833L7.11526 4.64828Z" fill="#F7D291"/>
<path d="M8.94708 3.1412L8.99405 4.64846C8.99405 4.64846 7.86681 5.77887 7.86681 7.28614V7.75126C7.86681 8.13131 7.58457 8.45194 7.2085 8.49904L6.36377 8.60495V5.40202C6.36377 4.15339 7.53803 3.0784 8.94708 3.1412Z" fill="#A06E50"/>
<path d="M16.5018 18.9597L15.7575 18.2134L16.554 17.1484C16.7262 16.9181 16.6485 16.5877 16.3917 16.4589L14.6302 15.5757L12 24.6192H14.2545L16.6426 19.8296C16.7872 19.5395 16.7306 19.1891 16.5018 18.9597Z" fill="#DBD9DC"/>
<path d="M15.0533 2.01057L15.0063 4.64824C15.0063 4.64824 16.1336 5.77865 16.1336 7.28592V7.75104C16.1336 8.13109 16.4158 8.45172 16.7919 8.49882L17.6366 8.60473V4.27144C17.6366 3.02281 16.4624 1.94777 15.0533 2.01057Z" fill="#CD916E"/>
<path d="M7.49844 18.9597L8.24272 18.2134L7.44622 17.1484C7.274 16.9181 7.35177 16.5877 7.60855 16.4589L9.37001 15.5757L12.0002 24.6192H9.74571L7.35767 19.8296C7.21302 19.5395 7.26974 19.1891 7.49844 18.9597Z" fill="#DBD9DC"/>
<path d="M12.7282 1.25604C9.59322 1.25604 8.99242 2.21173 6.57842 2.98278C6.41253 3.03575 6.33786 3.22843 6.43161 3.37552C6.95544 4.19719 8.90514 6.33894 14.4442 4.88461C15.0929 4.71431 15.5916 4.18986 15.7232 3.53054C15.8755 2.76669 15.4126 2.01012 14.7165 1.66425C14.1637 1.38954 13.4387 1.25604 12.7282 1.25604Z" fill="#B67F5F"/>
<path d="M8.61783 22.3583H4.86035V24.6193H8.61783V22.3583Z" fill="#A5CDFF"/>
<path d="M9.7456 8.44063C9.55145 8.44063 9.39404 8.59843 9.39404 8.79318V9.17003C9.39404 9.36478 9.55145 9.52258 9.7456 9.52258C9.93976 9.52258 10.0972 9.36478 10.0972 9.17003V8.79318C10.0972 8.59848 9.93976 8.44063 9.7456 8.44063Z" fill="black"/>
<path d="M14.2544 8.44063C14.0602 8.44063 13.9028 8.59843 13.9028 8.79318V9.17003C13.9028 9.36478 14.0602 9.52258 14.2544 9.52258C14.4486 9.52258 14.606 9.36478 14.606 9.17003V8.79318C14.606 8.59848 14.4485 8.44063 14.2544 8.44063Z" fill="black"/>
<path d="M13.3739 11.6818C13.5122 11.5451 13.5137 11.3219 13.3773 11.1833C13.241 11.0446 13.0184 11.0432 12.8802 11.18C12.7519 11.3069 12.4443 11.4551 11.9998 11.4551C11.5553 11.4551 11.2478 11.3069 11.1194 11.18C10.9812 11.0431 10.7586 11.0447 10.6223 11.1833C10.4859 11.3219 10.4874 11.5451 10.6256 11.6818C10.9284 11.9814 11.4421 12.1602 11.9998 12.1602C12.5575 12.1602 13.0712 11.9814 13.3739 11.6818Z" fill="black"/>
<path d="M10.1211 7.3103H9.36963C9.17547 7.3103 9.01807 7.4681 9.01807 7.66285C9.01807 7.8576 9.17547 8.0154 9.36963 8.0154H10.1211C10.3153 8.0154 10.4727 7.8576 10.4727 7.66285C10.4727 7.4681 10.3153 7.3103 10.1211 7.3103Z" fill="black"/>
<path d="M13.8789 8.0154H14.6304C14.8246 8.0154 14.982 7.8576 14.982 7.66285C14.982 7.4681 14.8246 7.3103 14.6304 7.3103H13.8789C13.6847 7.3103 13.5273 7.4681 13.5273 7.66285C13.5273 7.8576 13.6847 8.0154 13.8789 8.0154Z" fill="black"/>
<path d="M19.5295 17.697L16.9955 16.9158C16.9996 16.839 16.994 16.7614 16.976 16.6846C16.9205 16.4491 16.7649 16.2519 16.549 16.1436L14.9819 15.3579V14.2374C16.1544 13.4197 16.9796 12.1343 17.1859 10.653H17.3949C18.08 10.653 18.6678 10.1425 18.7328 9.49063C18.7693 9.12534 18.6501 8.76067 18.4059 8.49005C18.2877 8.35905 18.1449 8.2554 17.9879 8.18296V4.2715C17.9879 2.83048 16.8189 1.65809 15.3818 1.65809C15.38 1.65809 15.3555 1.65809 15.3224 1.65813C14.6895 1.18995 13.7596 0.90448 12.7281 0.90448C10.532 0.90448 9.52316 1.36326 8.35504 1.89448C7.731 2.17826 7.08577 2.47168 6.17115 2.73989C6.07515 2.76805 5.9956 2.83588 5.95252 2.92646C5.90945 3.017 5.90687 3.12168 5.94545 3.21424C5.95613 3.2399 6.11321 3.60556 6.51844 4.04978C6.34346 4.26577 6.01224 4.81814 6.01224 5.90432V8.19866C5.60771 8.39209 5.31245 8.77524 5.2674 9.22608C5.23089 9.59137 5.35 9.95609 5.59421 10.2268C5.83857 10.4977 6.18755 10.653 6.55168 10.653H6.81408C7.02024 12.1347 7.84547 13.4202 9.01822 14.2379V15.3579L7.45106 16.1436C7.2352 16.2519 7.07958 16.4491 7.02413 16.6846C7.00608 16.7613 7.0005 16.839 7.00458 16.9157L4.47058 17.697C3.36991 18.0364 2.63037 19.0402 2.63037 20.195V24.6192C2.63037 24.814 2.78778 24.9718 2.98193 24.9718C3.17609 24.9718 3.33349 24.814 3.33349 24.6192V20.195C3.33349 19.3518 3.87349 18.6188 4.67725 18.371L7.31306 17.5583L7.77829 18.1804L7.24974 18.7105C6.91346 19.0477 6.83039 19.5608 7.04306 19.9874L8.04946 22.0058H7.09111V21.6048C7.09111 21.41 6.93371 21.2522 6.73955 21.2522C6.5454 21.2522 6.38799 21.41 6.38799 21.6048V22.0058H4.86076C4.66661 22.0058 4.5092 22.1636 4.5092 22.3584V24.6192C4.5092 24.814 4.66661 24.9718 4.86076 24.9718H8.61834C8.81249 24.9718 8.9699 24.814 8.9699 24.6192V23.8518L9.43114 24.7769C9.49274 24.9005 9.61686 24.9719 9.74586 24.9719C9.79869 24.9719 9.85231 24.9598 9.9028 24.9346C10.0765 24.8475 10.1469 24.6357 10.06 24.4615L7.67198 19.672C7.59487 19.5173 7.62501 19.3313 7.74693 19.209L8.49117 18.4627C8.61487 18.3386 8.62879 18.1422 8.52384 18.0019L7.72734 16.9369C7.70086 16.9015 7.70419 16.8651 7.70854 16.8466C7.7129 16.8281 7.72612 16.7941 7.76564 16.7742L9.15032 16.0799L10.1278 19.4409C10.1822 19.6279 10.3773 19.735 10.5638 19.6806C10.7502 19.6261 10.8572 19.4304 10.8028 19.2435L10.6488 18.7137C11.081 18.8644 11.5381 18.9428 12.0002 18.9428C12.4624 18.9428 12.9193 18.8646 13.3515 18.714L12.0001 23.3601L11.2414 20.7515C11.187 20.5645 10.9919 20.4572 10.8055 20.5117C10.619 20.5662 10.512 20.762 10.5664 20.9489L11.6626 24.7179C11.7064 24.8683 11.8439 24.9717 12.0001 24.9717C12.1563 24.9717 12.2939 24.8683 12.3376 24.7179L14.85 16.0799L16.2346 16.7742C16.2742 16.7941 16.2873 16.8281 16.2917 16.8466C16.2961 16.8651 16.2994 16.9015 16.2729 16.9369L15.4764 18.0019C15.3715 18.1422 15.3854 18.3386 15.5091 18.4627L16.2533 19.2091C16.3753 19.3313 16.4054 19.5174 16.3283 19.672L13.9402 24.4616C13.8533 24.6357 13.9237 24.8475 14.0974 24.9346C14.1479 24.9599 14.2015 24.9719 14.2544 24.9719C14.3833 24.9719 14.5075 24.9005 14.5691 24.777L16.9571 19.9875C17.1698 19.5609 17.0868 19.0478 16.7505 18.7106L16.2219 18.1804L16.6871 17.5584L19.3229 18.3711C20.1266 18.6189 20.6666 19.3519 20.6666 20.1951V24.6192C20.6666 24.814 20.824 24.9718 21.0182 24.9718C21.2124 24.9718 21.3698 24.814 21.3698 24.6192V20.195C21.3697 19.0402 20.6302 18.0364 19.5295 17.697ZM8.26673 24.2667H5.21228V22.7109H6.38794V22.7352C6.38794 22.9299 6.54535 23.0877 6.7395 23.0877C6.93366 23.0877 7.09106 22.9299 7.09106 22.7352V22.7109H8.26673V24.2667ZM8.64543 2.53664C9.78444 2.01867 10.6841 1.60958 12.7281 1.60958C14.0251 1.60958 15.1841 2.15391 15.4241 2.87579C15.4855 3.06052 15.6845 3.16023 15.8688 3.09874C16.0529 3.03716 16.1525 2.83748 16.0911 2.65279C16.0709 2.59196 16.0468 2.53231 16.0194 2.47374C16.756 2.73726 17.2848 3.44349 17.2848 4.2715V8.06389H16.8849C16.6643 8.06389 16.4849 7.884 16.4849 7.66283V7.28598C16.4849 5.65152 15.3049 4.44942 15.2547 4.39903C15.162 4.30605 15.0254 4.27273 14.9002 4.31212C12.9486 4.93016 10.1969 5.45104 8.1711 4.42315C7.45022 4.05734 7.02455 3.5925 6.80068 3.28211C7.54697 3.03618 8.12549 2.77308 8.64543 2.53664ZM14.2788 15.5255L13.6074 17.834C13.1154 18.0984 12.5627 18.2378 12.0002 18.2378C11.438 18.2378 10.8847 18.0986 10.393 17.8344L9.72139 15.5255V14.6508C10.4107 14.9863 11.1838 15.1748 12.0001 15.1748C12.8163 15.1748 13.5894 14.9862 14.2788 14.6505V15.5255ZM12.0001 14.4696C9.50047 14.4696 7.46691 12.4303 7.46691 9.92365C7.46691 9.72891 7.3095 9.57111 7.11535 9.57111C6.92119 9.57111 6.76378 9.72891 6.76378 9.92365V9.94791H6.55172C6.38593 9.94791 6.22698 9.87712 6.11565 9.75373C6.00287 9.62874 5.95009 9.46633 5.96705 9.2964C5.99663 9.00064 6.27704 8.76894 6.60544 8.76894H7.11535C7.72359 8.76894 8.2184 8.27269 8.2184 7.66279V6.33213C8.2184 6.13738 8.061 5.97958 7.86684 5.97958C7.67269 5.97958 7.51528 6.13738 7.51528 6.33213V7.66279C7.51528 7.88395 7.33584 8.06384 7.11535 8.06384H6.71541V5.90432C6.71541 5.08401 6.93525 4.67609 7.03678 4.53145C7.25156 4.70133 7.50347 4.86961 7.79831 5.0237C8.59504 5.44013 9.54332 5.67075 10.6167 5.7091C11.8749 5.75446 13.3129 5.53316 14.8936 5.05228C15.1726 5.3911 15.7819 6.24977 15.7819 7.28593V7.66279C15.7819 8.27274 16.2768 8.76894 16.885 8.76894H17.4486C17.6144 8.76894 17.7733 8.83973 17.8847 8.96312C17.9975 9.08811 18.0502 9.25047 18.0333 9.4204C18.0037 9.71622 17.7234 9.94791 17.395 9.94791H17.2363V9.92732C17.2363 9.73267 17.079 9.57487 16.8849 9.57477C16.8849 9.57477 16.8848 9.57477 16.8848 9.57477C16.6907 9.57477 16.5334 9.73243 16.5332 9.92704C16.5313 12.4318 14.4978 14.4696 12.0001 14.4696Z" fill="black"/>
<path d="M19.139 22.1941H18.5512V21.6047C18.5512 21.4099 18.3939 21.2521 18.1997 21.2521C18.0055 21.2521 17.8481 21.4099 17.8481 21.6047V22.1941H17.2603C17.066 22.1941 16.9087 22.3519 16.9087 22.5467C16.9087 22.7414 17.066 22.8992 17.2603 22.8992H17.8481V23.4887C17.8481 23.6834 18.0055 23.8412 18.1997 23.8412C18.3939 23.8412 18.5512 23.6834 18.5512 23.4887V22.8992H19.139C19.3332 22.8992 19.4906 22.7414 19.4906 22.5467C19.4906 22.3519 19.3332 22.1941 19.139 22.1941Z" fill="black"/>
</g>
<defs>
<clipPath id="clip0_3857_21311">
<rect width="24" height="24.0674" fill="white" transform="translate(0 0.90448)"/>
</clipPath>
</defs>
</svg>
