<svg width="51" height="52" viewBox="0 0 51 52" fill="none" xmlns="http://www.w3.org/2000/svg">
<path d="M23.2277 48.3786C23.5007 48.6218 23.8211 48.8592 24.1177 49.0906C24.803 49.6157 25.5121 50.1586 25.9155 50.8468C26.0756 51.1236 26.1907 51.424 26.2567 51.7368C25.2355 51.767 24.2135 51.7412 23.1951 51.6597C17.7971 51.2405 12.685 49.0648 8.64062 45.4653C8.67313 45.4249 8.70884 45.3872 8.74743 45.3526C10.6787 43.4984 12.5655 44.6376 14.0874 45.5513C14.3841 45.7323 14.6808 45.9044 14.9478 46.0527C15.2262 45.82 15.5422 45.6364 15.8823 45.5098C15.9653 44.3469 16.2679 42.2465 17.3953 41.9023C17.4981 41.8708 17.6051 41.8549 17.7127 41.8549C18.5226 41.8549 19.196 42.7627 19.4274 43.086C20.7595 44.9046 20.7862 45.4208 20.3441 47.4886C20.307 47.6568 20.2584 47.8224 20.1988 47.984C20.1472 48.1164 20.1084 48.2535 20.0831 48.3934C21.3617 47.7259 22.4712 47.72 23.2277 48.3786Z" fill="#C1EAF7"/>
<path d="M44.7578 9.23921C44.3781 9.55317 43.9153 9.75002 43.4258 9.80584C42.7375 9.93044 41.8179 9.58927 40.8478 9.23031C39.7086 8.80904 38.421 8.34031 38.0917 8.89508C38.0021 9.05195 37.8255 9.13789 37.6467 9.11164C36.0744 8.89211 35.0509 7.86861 34.2143 6.92817C34.0185 6.7116 33.8583 6.498 33.7011 6.2933C33.3926 5.82901 32.9879 5.43645 32.5144 5.14223C31.5621 4.5845 31.4256 4.6468 30.9213 4.87227C30.5581 5.0439 30.1784 5.17809 29.788 5.27277C27.5749 5.80677 24.2581 3.42454 23.7657 1.4695C23.7034 1.2203 23.65 0.935499 23.6055 0.629932C24.8574 0.5068 26.1163 0.471113 27.3731 0.523132C33.17 0.775299 39.4564 4.0416 43.6305 8.08221C44.03 8.45798 44.4058 8.84365 44.7578 9.23921Z" fill="#C1EAF7"/>
<path d="M1.51454 18.4897C3.80184 9.34639 11.5448 3.09562 20.3588 1.14651C20.3292 2.30352 19.7477 4.07758 19.4985 4.40985C19.0921 4.93199 18.9408 5.76265 18.7924 6.56662C18.7083 7.12812 18.5712 7.6804 18.383 8.21609C18.2468 8.54948 18.045 8.85212 17.7897 9.10609C17.6461 9.24654 17.5241 9.4075 17.4278 9.58372C17.2865 9.98639 17.2528 10.4189 17.3299 10.8386C17.37 11.1846 17.37 11.534 17.3299 11.8799C17.2828 12.144 17.1905 12.3979 17.0569 12.6305C16.9671 12.7755 16.9066 12.9368 16.8789 13.1052C16.9178 13.3485 17.0368 13.572 17.2171 13.74C17.4185 13.9658 17.5755 14.2274 17.6799 14.5114C17.8846 15.1611 17.7066 15.9087 17.5672 16.5079L17.5286 16.6652C17.4832 16.889 17.4564 17.1163 17.4485 17.3445C17.4395 17.5531 17.4197 17.761 17.3892 17.9675C17.1578 19.4331 15.2651 19.6971 14.1259 19.5191C13.6908 19.4225 13.2844 19.2254 12.9392 18.9436C12.7391 18.786 12.5185 18.6562 12.2835 18.5579C11.9713 18.4642 11.6439 18.4319 11.3194 18.463C10.7498 18.4808 10.0556 18.5015 9.53938 17.745C9.34061 17.8014 9.15371 18.0031 8.87484 18.3384C8.78584 18.4481 8.69981 18.5549 8.60784 18.6499C8.04418 19.264 7.83058 19.3025 7.10374 19.3441H6.98507C5.89631 19.4093 5.42164 19.9611 4.67701 20.9312C4.55713 21.0776 4.42514 21.2135 4.28244 21.3377C4.08664 21.5186 3.8137 21.7708 3.8137 21.931C3.8137 22.0912 3.8137 22.0734 4.19937 22.1654C4.31768 22.1907 4.43454 22.2224 4.54944 22.2603C4.70074 22.3137 4.84611 22.3671 4.98851 22.4235C5.58184 22.6519 5.93191 22.7735 6.35317 22.5985C6.90201 22.373 6.98804 22.3463 7.43008 22.4086L7.70301 22.4413C8.10152 22.455 8.49905 22.3936 8.87484 22.2603C9.13147 22.1822 9.39315 22.1217 9.65804 22.0793C9.85817 22.0423 10.0562 21.9947 10.2514 21.9369C10.5347 21.8486 10.8258 21.787 11.1206 21.753C11.409 21.7522 11.696 21.7942 11.972 21.8776C12.0937 21.9043 12.2064 21.934 12.3013 21.9488C12.5574 21.9782 12.815 21.9911 13.0727 21.9874C13.5552 21.969 14.0377 22.026 14.5026 22.1565C15.1622 22.3777 15.6698 22.9108 15.8584 23.5805C16.2114 24.7464 15.7338 26.2712 15.1049 27.1108C15.0277 27.2156 14.9536 27.3145 14.8824 27.4075C14.6859 27.6187 14.539 27.8711 14.4522 28.1462C14.3358 28.5083 14.3745 28.9024 14.559 29.235C14.6094 29.3685 14.6658 29.5138 14.7222 29.68C14.9358 30.3267 14.7222 30.8666 14.5442 31.3621C14.3929 31.7626 14.2623 32.1067 14.3662 32.4716C14.5139 32.8837 14.7133 33.2755 14.9595 33.6375C15.4223 34.3881 15.9474 35.2365 15.7991 36.1206C15.5677 37.506 13.8381 38.224 13.1053 38.4672C12.9065 38.5355 12.7078 38.5948 12.512 38.6571C12.0184 38.7954 11.5363 38.9719 11.0702 39.1852C10.9812 39.2267 10.8833 39.2682 10.7735 39.3068C10.6071 39.364 10.4494 39.4439 10.3048 39.5441C10.2508 39.6014 10.2003 39.6618 10.1535 39.7251C10.0173 39.9478 9.81657 40.1237 9.57794 40.2294C9.32102 40.3037 9.0468 40.2911 8.79771 40.1938C8.72446 40.1694 8.64891 40.1525 8.57224 40.1434C8.23217 40.2002 7.90836 40.3298 7.62291 40.5231C7.58434 40.5498 7.48051 40.6388 7.40338 40.7071C7.23661 40.883 7.03437 41.0216 6.81004 41.1135C6.5787 41.1759 6.34058 41.2098 6.10101 41.2144C5.86912 41.2017 5.63986 41.2687 5.45131 41.4042L5.41571 41.428L5.09234 41.6445C4.61467 40.9806 4.17967 40.287 3.78997 39.5679C0.209201 32.8662 -0.283267 25.6809 1.51454 18.4897Z" fill="#59D89E"/>
<path d="M44.7574 23.6956C44.8079 24.1465 44.8583 24.6153 44.9354 25.0573C44.9621 25.2175 44.9948 25.3777 45.0244 25.5349C45.1427 26.053 45.2074 26.5819 45.2173 27.1132C45.1865 27.8854 45.0792 28.6525 44.8969 29.4035C44.8286 29.7298 44.7574 30.068 44.704 30.3973C44.4697 31.7976 44.265 32.7083 43.0368 33.7318C42.5393 34.1603 41.9126 34.4099 41.2568 34.4409C40.9729 34.4711 40.6914 34.5206 40.4142 34.5892C39.3403 34.8621 39.1801 35.1202 39.1623 35.1825C39.1996 35.3653 39.2668 35.5407 39.3611 35.7017C39.6228 35.7498 39.8874 35.7805 40.1532 35.7937C40.3875 35.8115 40.6308 35.8323 40.8711 35.8708C41.4595 36.0063 42.0678 36.0335 42.6659 35.9509C43.3512 35.8085 43.8526 35.9124 44.173 36.2476C44.7663 36.9032 44.3925 38.1107 44.0573 39.1757C44.0039 39.3567 43.9475 39.5317 43.903 39.6889C44.2165 39.5323 44.4998 39.3214 44.7396 39.0659L44.888 38.9265C45.3132 38.5415 45.8204 38.2585 46.3713 38.0988L46.4217 38.081C46.9707 37.8789 47.5352 37.7221 48.1098 37.6123C45.0759 44.1405 39.3066 48.9898 32.3538 50.8555C32.3524 50.8387 32.3524 50.8218 32.3538 50.805C32.3537 50.6752 32.3606 50.5455 32.3746 50.4164C32.3919 50.2725 32.3919 50.1271 32.3746 49.9833C32.3226 49.8803 32.2533 49.787 32.1699 49.7074C32.0035 49.542 31.8714 49.3454 31.7812 49.1289L31.6952 48.8856C31.4994 48.3338 31.4341 48.1469 30.912 47.9689C30.5797 47.8664 30.2407 47.7871 29.8974 47.7316C29.3646 47.6576 28.8446 47.5109 28.3518 47.2955C27.4841 46.8485 26.557 46.5279 25.5987 46.3432C25.4122 46.3044 25.272 46.1498 25.2516 45.9605C25.2041 45.5481 24.7799 45.1239 24.3616 44.7174C24.0038 44.3977 23.7028 44.0195 23.4716 43.599C23.1749 42.9552 22.8782 41.7033 23.3292 40.8934C23.5459 40.4913 23.9509 40.2258 24.4061 40.1873C24.5564 40.1691 24.7056 40.2296 24.8007 40.3475C24.9431 40.5329 25.0673 40.7316 25.1715 40.9409C25.2735 41.1514 25.3978 41.3503 25.5423 41.5342C25.7421 41.5388 25.9416 41.5168 26.1357 41.4689C26.0467 40.5789 25.9399 39.8669 25.2457 39.33C25.0509 39.2065 24.8309 39.1284 24.6019 39.1015C24.057 39.0552 23.5636 38.7609 23.2639 38.3035C22.7477 37.4639 22.9435 36.3336 23.0533 35.8857C23.074 35.7937 23.0948 35.7106 23.1126 35.6305C23.193 35.0914 23.4459 34.5928 23.8335 34.2095C24.2724 33.7423 24.8052 33.3732 25.397 33.1266C25.5722 33.0626 25.7689 33.1147 25.8894 33.2572C26.141 33.5154 26.4443 33.7176 26.7794 33.8505C27.068 33.9777 27.3424 34.1348 27.5982 34.3192C28.0528 34.7272 28.4263 35.2174 28.6989 35.764L28.7879 35.9153C29.1194 36.5324 29.2491 37.238 29.1587 37.9327C29.1587 38.0484 29.135 38.1641 29.1172 38.2738C29.1824 38.2145 29.2596 38.1374 29.3248 38.0751C29.9389 37.4817 30.4522 37.01 30.9476 37.0486C31.1493 37.061 31.3356 37.1606 31.4579 37.3215C31.8495 37.8348 31.7278 38.4726 31.621 39.0333C31.6032 39.1253 31.5854 39.2143 31.5706 39.3003L31.6003 39.2617C31.7726 39.0312 31.962 38.814 32.1669 38.612C32.2801 38.4854 32.3795 38.3472 32.4636 38.1997C32.6181 37.919 32.8292 37.6735 33.0836 37.4788C33.3956 37.2942 33.7687 37.2429 34.119 37.3364C34.5744 37.4244 34.9795 37.682 35.2522 38.0573C35.3782 38.2953 35.4662 38.5515 35.5133 38.8167C35.5521 38.9884 35.6007 39.1578 35.6587 39.324C35.8759 39.1191 36.0547 38.8769 36.1867 38.6091C36.3529 38.1403 36.1096 37.6301 35.4213 37.01C35.3323 36.927 35.2344 36.835 35.1247 36.7371C34.7805 36.4048 34.3504 35.9895 34.0003 35.9331C33.8586 35.9268 33.7167 35.9407 33.579 35.9747C33.1973 36.0918 32.7845 36.0501 32.4339 35.8589C32.2433 35.7322 32.0741 35.576 31.9325 35.3962C31.8451 35.2864 31.7456 35.1869 31.6359 35.0995C31.001 34.6663 30.3365 34.2747 29.6334 33.8594L29.31 33.6666C28.9036 33.9306 28.3933 33.5716 27.9869 33.2839L27.8741 33.2067C27.7288 33.1266 27.5775 33.0584 27.4202 32.9872C26.8761 32.7998 26.4062 32.4432 26.0793 31.9696C25.7648 31.4534 25.7975 30.8008 25.8242 30.2252C25.8242 30.0769 25.8242 29.9286 25.8242 29.798C25.8242 28.8339 26.2988 27.5997 26.7705 26.8076C27.5715 25.4578 28.6722 24.7992 29.9478 24.9001C30.4409 24.9567 30.9269 25.0631 31.3985 25.2175C31.9322 25.4132 32.4974 25.5088 33.0658 25.4993C33.5998 25.443 33.7333 25.2887 34.0952 24.8793L34.205 24.7517C34.3766 24.5688 34.561 24.3982 34.7568 24.2415C34.9831 24.0687 35.183 23.8638 35.3501 23.6333C35.5726 23.2743 35.5044 22.9421 35.3679 22.3784C35.3148 22.175 35.2723 21.9691 35.2404 21.7613C35.1794 21.175 35.2651 20.5828 35.4896 20.0377C35.5252 19.919 35.5667 19.8004 35.6023 19.6758C35.8269 18.7548 35.9267 17.8079 35.899 16.8604V16.7299C35.9168 15.8399 35.9346 14.9914 36.4745 14.1518C36.5279 14.0717 36.5932 13.956 36.6673 13.8255C37.0678 13.1283 37.3793 12.621 37.765 12.4608C37.9278 12.3895 38.1035 12.3521 38.2812 12.3511C39.3848 12.3511 40.0612 13.9293 40.4943 14.9232C40.5956 15.1783 40.7125 15.427 40.8444 15.6678C41.1915 16.2137 41.5861 16.7388 42.0014 17.2965C43.0071 18.6404 44.0484 20.0288 44.4341 21.7317C44.5779 22.3799 44.6858 23.0355 44.7574 23.6956Z" fill="#59D89E"/>
<path d="M46.7562 22.2892C46.0828 21.5831 45.2047 18.8597 45.1068 18.5512C45.0897 18.4996 45.0827 18.4452 45.086 18.391C45.086 18.3494 45.086 18.296 45.086 18.2308C45.0445 17.8392 44.9347 16.7919 46.0739 16.4508C46.1533 16.4243 46.2365 16.4113 46.3201 16.4121C46.5131 16.4154 46.7001 16.4798 46.8541 16.5961C47.848 17.3081 48.4443 20.3252 48.471 21.2419V21.3458C48.4917 22.0578 48.5095 22.6719 48.02 22.8766C47.5691 23.0516 47.13 22.6778 46.7562 22.2892Z" fill="#59D89E"/>
<path d="M48.1081 37.609C47.5335 37.7188 46.969 37.8756 46.42 38.0777L46.3696 38.0955C45.8187 38.2552 45.3115 38.5382 44.8863 38.9232L44.7379 39.0626C44.4981 39.3181 44.2148 39.529 43.9013 39.6856C43.9458 39.5284 44.0022 39.3534 44.0556 39.1724C44.3908 38.1074 44.7676 36.8999 44.1713 36.2443C43.8568 35.8972 43.3495 35.7934 42.6642 35.9476C42.0661 36.0302 41.4578 36.0031 40.8694 35.8675C40.6291 35.829 40.3858 35.8082 40.1515 35.7904C39.8857 35.7772 39.6211 35.7465 39.3594 35.6984C39.2651 35.5375 39.1979 35.3621 39.1606 35.1793C39.1784 35.1318 39.3386 34.8826 40.4125 34.5859C40.6897 34.5173 40.9712 34.4678 41.2551 34.4376C41.9109 34.4067 42.5376 34.157 43.0351 33.7286C44.2633 32.7051 44.468 31.7943 44.7023 30.394C44.7557 30.0647 44.8269 29.7265 44.8952 29.4002C45.0775 28.6493 45.1848 27.8821 45.2156 27.1099C45.2057 26.5786 45.141 26.0497 45.0227 25.5317C44.9931 25.3744 44.9604 25.2142 44.9337 25.054C44.8566 24.612 44.8062 24.1433 44.7557 23.6923C44.693 23.0327 44.5939 22.3771 44.4591 21.7284C44.0734 20.0255 43.0321 18.6371 42.0264 17.2932C41.6111 16.7355 41.2165 16.2104 40.8694 15.6645C40.7375 15.4237 40.6206 15.1751 40.5193 14.9199C40.0892 13.926 39.4098 12.3478 38.3062 12.3478C38.1285 12.3488 37.9528 12.3862 37.79 12.4575C37.4043 12.6177 37.0928 13.125 36.6923 13.8222C36.6182 13.9527 36.5529 14.0684 36.4995 14.1485C35.9596 14.9881 35.9418 15.8336 35.924 16.7266V16.8571C35.9517 17.8046 35.8519 18.7516 35.6273 19.6725C35.5917 19.7971 35.5502 19.9157 35.5146 20.0344C35.2901 20.5795 35.2044 21.1717 35.2654 21.758C35.2973 21.9658 35.3398 22.1718 35.3929 22.3751C35.5294 22.9388 35.5976 23.2651 35.3751 23.63C35.208 23.8606 35.0081 24.0655 34.7818 24.2382C34.586 24.3949 34.4016 24.5655 34.23 24.7485L34.1202 24.876C33.7583 25.2854 33.6248 25.4397 33.0908 25.4961C32.5224 25.5055 31.9572 25.41 31.4235 25.2142C30.9519 25.0598 30.4659 24.9534 29.9728 24.8968C28.6972 24.7959 27.5995 25.4545 26.7955 26.8044C26.3238 27.5965 25.8462 28.8306 25.8492 29.7948C25.8492 29.9283 25.8492 30.0736 25.8492 30.222C25.8225 30.7975 25.7898 31.4502 26.1043 31.9664C26.4312 32.4399 26.9011 32.7965 27.4452 32.9839C27.6054 33.0551 27.7419 33.1234 27.8991 33.2035L28.0119 33.2806C28.4183 33.5773 28.9286 33.9273 29.335 33.6633L29.6584 33.8561C30.3615 34.2715 31.026 34.6631 31.6609 35.0962C31.7706 35.1836 31.8701 35.2831 31.9575 35.3929C32.0991 35.5727 32.2683 35.7289 32.4589 35.8557C32.8095 36.0468 33.2223 36.0885 33.604 35.9714C33.7417 35.9375 33.8836 35.9235 34.0253 35.9298C34.3754 35.9862 34.8055 36.4015 35.1497 36.7338C35.2476 36.8317 35.3455 36.9237 35.4463 37.0067C36.1346 37.6268 36.3779 38.137 36.2117 38.6058C36.0797 38.8736 35.9009 39.1158 35.6837 39.3207C35.6257 39.1545 35.5771 38.9852 35.5383 38.8134C35.4912 38.5483 35.4032 38.292 35.2772 38.054C35.0045 37.6788 34.5994 37.4211 34.144 37.3331C33.7937 37.2396 33.4206 37.2909 33.1086 37.4755C32.8542 37.6703 32.6431 37.9157 32.4886 38.1964C32.4045 38.3439 32.3051 38.4822 32.1919 38.6087C31.987 38.8108 31.7976 39.0279 31.6253 39.2584L31.5956 39.297C31.6104 39.211 31.6282 39.122 31.646 39.03C31.7528 38.4693 31.8745 37.8433 31.4829 37.3182C31.3606 37.1573 31.1743 37.0577 30.9726 37.0453C30.4772 37.0067 29.9639 37.4666 29.3498 38.0718C29.2846 38.1341 29.2074 38.2112 29.1422 38.2705C29.16 38.1608 29.1748 38.0451 29.1837 37.9294C29.2741 37.2347 29.1444 36.5292 28.8129 35.912L28.7239 35.7607C28.4513 35.2141 28.0778 34.7239 27.6232 34.316C27.3674 34.1316 27.093 33.9745 26.8044 33.8472C26.4693 33.7143 26.166 33.5121 25.9144 33.2539C25.7939 33.1114 25.5972 33.0593 25.422 33.1234C24.8302 33.3699 24.2974 33.739 23.8585 34.2062C23.4709 34.5895 23.218 35.0881 23.1376 35.6272C23.1198 35.7073 23.099 35.7904 23.0783 35.8824C22.9685 36.3303 22.7816 37.4606 23.2889 38.3002C23.5886 38.7576 24.082 39.0519 24.6269 39.0982C24.8559 39.1251 25.0759 39.2032 25.2707 39.3267C25.9619 39.8636 26.0687 40.5727 26.1607 41.4656C25.9666 41.5136 25.7671 41.5355 25.5673 41.5309C25.4228 41.347 25.2985 41.1481 25.1965 40.9376C25.0923 40.7283 24.9681 40.5296 24.8257 40.3442C24.7306 40.2264 24.5814 40.1658 24.4311 40.184C23.9759 40.2225 23.5709 40.488 23.3542 40.8901C22.9032 41.7 23.191 42.9668 23.4966 43.5957C23.7278 44.0162 24.0288 44.3944 24.3866 44.7141C24.796 45.1206 25.2202 45.5448 25.2766 45.9572C25.297 46.1465 25.4372 46.3011 25.6237 46.3399C26.582 46.5246 27.5091 46.8453 28.3768 47.2922C28.8696 47.5076 29.3896 47.6544 29.9224 47.7283C30.2657 47.7838 30.6047 47.8631 30.937 47.9656C31.4591 48.1436 31.5303 48.3305 31.7202 48.8823L31.8062 49.1256C31.8964 49.3421 32.0285 49.5387 32.1949 49.7041C32.2783 49.7837 32.3476 49.877 32.3996 49.98C32.4169 50.1238 32.4169 50.2693 32.3996 50.4131C32.3856 50.5422 32.3787 50.6719 32.3788 50.8018C32.3774 50.8185 32.3774 50.8354 32.3788 50.8522C30.3868 51.3883 28.3385 51.687 26.2764 51.7422C26.2104 51.4294 26.0952 51.129 25.9352 50.8522C25.5317 50.1639 24.8227 49.621 24.1374 49.0959C23.8407 48.8645 23.5262 48.6272 23.2474 48.3839C22.4909 47.7134 21.3813 47.7194 20.0879 48.3839C20.1132 48.2441 20.152 48.107 20.2036 47.9745C20.2632 47.8129 20.3118 47.6473 20.3489 47.4791C20.791 45.4024 20.7643 44.8951 19.4322 43.0765C19.1949 42.7532 18.5274 41.8454 17.7175 41.8454C17.6099 41.8453 17.5029 41.8613 17.4001 41.8928C16.2727 42.231 15.9701 44.3374 15.8871 45.5003C15.547 45.627 15.231 45.8105 14.9526 46.0432C14.6737 45.8949 14.3889 45.7228 14.0922 45.5418C12.5792 44.6281 10.6924 43.4889 8.75223 45.3431C8.71365 45.3777 8.67793 45.4154 8.64543 45.4558C7.33714 44.3043 6.16104 43.0108 5.13883 41.5991L5.46219 41.3826L5.49779 41.3588C5.68635 41.2233 5.91561 41.1563 6.1475 41.169C6.38707 41.1644 6.62519 41.1306 6.85653 41.0681C7.08086 40.9762 7.2831 40.8376 7.44986 40.6617C7.527 40.5934 7.63083 40.5044 7.6694 40.4777C7.95485 40.2844 8.27866 40.1548 8.61873 40.098C8.6954 40.1071 8.77095 40.124 8.8442 40.1484C9.09329 40.2458 9.36751 40.2583 9.62443 40.184C9.86306 40.0783 10.0638 39.9024 10.2 39.6797C10.2468 39.6164 10.2973 39.556 10.3513 39.4987C10.4959 39.3985 10.6536 39.3187 10.82 39.2614C10.9179 39.2228 11.0158 39.1813 11.1167 39.1398C11.5828 38.9265 12.0649 38.75 12.5585 38.6117C12.7513 38.5494 12.9501 38.4901 13.1518 38.4218C13.8846 38.1786 15.6141 37.4606 15.8455 36.0752C15.9939 35.1852 15.4688 34.3427 15.006 33.5921C14.7598 33.2301 14.5604 32.8383 14.4126 32.4262C14.3088 32.0613 14.4393 31.7172 14.5906 31.3167C14.7746 30.8301 14.9822 30.2813 14.7686 29.6346C14.7123 29.4684 14.6559 29.3231 14.6055 29.1896C14.421 28.857 14.3823 28.4629 14.4987 28.1008C14.5855 27.8257 14.7324 27.5733 14.9288 27.3621C15 27.2751 15.0742 27.1762 15.1513 27.0654C15.7803 26.2259 16.2579 24.6921 15.9049 23.5351C15.7163 22.8654 15.2087 22.3323 14.5491 22.1111C14.0842 21.9807 13.6017 21.9236 13.1192 21.942C12.8615 21.9457 12.6039 21.9328 12.3478 21.9034C12.2529 21.8886 12.1402 21.8589 12.0185 21.8322C11.7424 21.7488 11.4555 21.7068 11.1671 21.7076C10.8722 21.7416 10.5812 21.8032 10.2979 21.8916C10.1027 21.9493 9.90466 21.9969 9.70453 22.034C9.43964 22.0763 9.17796 22.1368 8.92133 22.2149C8.54554 22.3482 8.148 22.4096 7.7495 22.3959L7.47656 22.3633C7.03453 22.301 6.9485 22.3277 6.39966 22.5531C5.97839 22.7282 5.62239 22.6065 5.03499 22.3781C4.89259 22.3217 4.73833 22.2683 4.59593 22.2149C4.48102 22.177 4.36417 22.1453 4.24586 22.12C3.85723 22.028 3.85723 22.0132 3.85973 21.8856C3.86316 21.7581 4.13313 21.4792 4.32893 21.2923C4.47163 21.1681 4.60362 21.0322 4.72349 20.8859C5.46813 19.9157 5.94279 19.3639 7.03156 19.2987H7.15023C7.87706 19.2571 8.09066 19.2186 8.65433 18.6045C8.7463 18.5095 8.83233 18.4027 8.92133 18.293C9.2002 17.9548 9.3871 17.753 9.58587 17.6996C10.0991 18.4561 10.7933 18.4354 11.3659 18.4176C11.6904 18.3865 12.0178 18.4188 12.33 18.5125C12.565 18.6109 12.7856 18.7406 12.9857 18.8982C13.3309 19.18 13.7373 19.3772 14.1723 19.4737C15.3086 19.6517 17.2013 19.3877 17.4357 17.9221C17.4662 17.7156 17.486 17.5077 17.495 17.2991C17.5029 17.0709 17.5297 16.8436 17.5751 16.6198L17.6137 16.4625C17.7531 15.8692 17.9311 15.1157 17.7264 14.466C17.622 14.1821 17.465 13.9204 17.2636 13.6946C17.0833 13.5266 16.9643 13.3032 16.9254 13.0598C16.9531 12.8914 17.0136 12.7301 17.1034 12.5851C17.237 12.3525 17.3293 12.0986 17.3763 11.8345C17.4164 11.4886 17.4164 11.1392 17.3763 10.7932C17.2993 10.3735 17.333 9.94101 17.4742 9.53834C17.5706 9.36211 17.6926 9.20115 17.8362 9.0607C18.0915 8.80673 18.2933 8.50409 18.4295 8.1707C18.6177 7.63502 18.7548 7.08273 18.8389 6.52123C18.9872 5.71727 19.1356 4.8866 19.545 4.36446C19.7942 4.0411 20.3756 2.26702 20.4053 1.10112C21.4819 0.864716 22.5716 0.692345 23.6686 0.584923C23.7132 0.881588 23.7666 1.17826 23.8288 1.42449C24.3213 3.37953 27.6381 5.76176 29.8512 5.22776C30.2416 5.13309 30.6213 4.99889 30.9845 4.82726C31.4888 4.6018 31.6253 4.5306 32.5776 5.09723C33.051 5.39145 33.4557 5.784 33.7642 6.2483C33.9215 6.453 34.0817 6.6666 34.2775 6.88317C35.1141 7.8236 36.1376 8.8471 37.7099 9.06664C37.8887 9.09288 38.0653 9.00694 38.1549 8.85007C38.4842 8.2864 39.7717 8.76403 40.9109 9.1853C41.881 9.54427 42.8007 9.88544 43.489 9.76084C43.9785 9.70502 44.4413 9.50816 44.821 9.1942C49.1167 13.9409 50.7929 19.6754 50.4577 28.0563C50.3231 31.3659 49.524 34.6145 48.1081 37.609ZM48.4611 21.3368V21.233C48.4344 20.3162 47.8381 17.2991 46.8443 16.5871C46.6903 16.4708 46.5033 16.4064 46.3103 16.4032C46.2266 16.4023 46.1434 16.4153 46.064 16.4418C44.9248 16.7918 45.0346 17.8391 45.0761 18.2218C45.0761 18.287 45.0761 18.3404 45.0761 18.382C45.0728 18.4362 45.0799 18.4906 45.0969 18.5422C45.1948 18.8388 46.0729 21.5741 46.7464 22.2802C47.1202 22.6688 47.5592 23.0426 48.0013 22.8587C48.4997 22.6629 48.4819 22.0488 48.4611 21.3368Z" fill="#4565DB"/>
</svg>
