<svg width="24" height="24" viewBox="0 0 24 24" fill="none" xmlns="http://www.w3.org/2000/svg">
<g clip-path="url(#clip0_3857_21141)">
<path d="M23.5371 15.6058V18.2534C23.5371 19.1614 21.1333 19.9069 18.1847 19.9069C15.236 19.9069 12.8561 19.1805 12.8561 18.2725L12.8513 17.9762L12.8179 15.8734H12.8226C13.2432 16.6524 15.4415 17.2498 18.0891 17.2498C21.0377 17.2498 23.4893 16.5138 23.4893 15.6058H23.5371Z" fill="#ED664C"/>
<path d="M23.5368 13.0012V15.6058H23.489C23.489 16.5138 21.0421 17.2497 18.0887 17.2497C15.4412 17.2497 13.2429 16.6524 12.8223 15.8734L12.8128 15.3142L12.7793 13.1111C13.0421 13.9427 15.3217 14.5974 18.0935 14.5974C20.9991 14.5974 23.4412 13.8853 23.5081 12.9917L23.5368 13.0012Z" fill="#ED664C"/>
<path d="M12.7744 13.1159C12.7553 13.0633 12.7505 13.0107 12.7505 12.9534C12.7505 12.896 12.76 12.8387 12.7792 12.7861C13.0516 11.9641 15.2929 11.319 18.0265 11.3094C18.0456 11.3094 18.0695 11.3094 18.0886 11.3094C21.0372 11.3094 23.508 12.0454 23.508 12.9534C23.508 12.9677 23.508 12.982 23.5032 12.9916C23.4315 13.8853 20.9942 14.5973 18.0886 14.5973C15.3168 14.6021 13.0372 13.9522 12.7744 13.1159Z" fill="#FDC75B"/>
<path d="M18.0261 11.2473V11.3142C15.2925 11.3238 13.0464 11.969 12.7788 12.791L12.5494 12.6763C12.0094 12.6763 11.4837 12.6524 10.9914 12.6046L10.8672 12.6285C10.6282 11.4672 10.007 10.4493 9.13721 9.70373L9.18022 9.65594C10.0978 9.88534 11.2734 10.0287 12.5494 10.0287C15.498 10.0287 17.9687 9.28796 17.9687 8.37996H18.0261V11.2473Z" fill="#ED664C"/>
<path d="M18.0261 5.73717V8.37994H17.9687C17.9687 9.28794 15.498 10.0287 12.5494 10.0287C11.2734 10.0287 10.0977 9.89009 9.18018 9.65592L9.13717 9.70371C8.60193 9.24493 7.9711 8.89129 7.28293 8.67624L7.29727 8.62845L7.22559 5.8423C7.40719 6.70252 9.72499 7.38113 12.5541 7.38113C15.5028 7.38113 17.9687 6.64517 17.9735 5.73717H18.0261Z" fill="#ED664C"/>
<path d="M17.9693 5.72758C17.9645 6.64037 15.4986 7.37633 12.5499 7.37633C9.72077 7.37633 7.40775 6.69772 7.22137 5.8375C7.21181 5.79927 7.20703 5.76582 7.20703 5.72758C7.20703 4.81958 9.59652 4.08362 12.5452 4.08362C15.4986 4.08362 17.9693 4.82436 17.9693 5.72758Z" fill="#FDC75B"/>
<path d="M12.8219 15.8782L12.8554 17.9809L12.5925 17.9857C11.3357 17.9857 10.227 17.8567 9.32374 17.6321L9.25684 17.5652C9.94023 16.9439 10.4564 16.1458 10.7383 15.2426H10.8673C11.3978 15.2999 11.9665 15.3238 12.5543 15.3238L12.8124 15.319L12.8219 15.8782Z" fill="#ED664C"/>
<path d="M12.774 13.1159L12.8075 15.319L12.5494 15.3238C11.9616 15.3238 11.3929 15.2951 10.8624 15.2425H10.7334C10.8863 14.7503 10.9676 14.2294 10.9676 13.6846C10.9676 13.3214 10.9293 12.9677 10.8624 12.6284L10.9867 12.6045C11.4789 12.6523 12.0046 12.6762 12.5446 12.6762L12.774 12.7909C12.7549 12.8483 12.7453 12.9008 12.7453 12.9582C12.7501 13.0108 12.7549 13.0633 12.774 13.1159Z" fill="#ED664C"/>
<path d="M10.8623 12.6284C10.9293 12.9677 10.9675 13.3214 10.9675 13.6846C10.9675 14.2294 10.8862 14.7503 10.7333 15.2425C10.4514 16.1458 9.93523 16.9439 9.25184 17.5651C8.31994 18.411 7.08218 18.9319 5.72495 18.9319C2.8289 18.9319 0.482422 16.5807 0.482422 13.6894C0.482422 10.7981 2.8289 8.44684 5.72495 8.44684C6.26498 8.44684 6.79067 8.52808 7.27812 8.68101C7.96629 8.89606 8.59712 9.24971 9.13236 9.70849C10.0021 10.4444 10.6234 11.4624 10.8623 12.6284Z" fill="#FDC75B"/>
<path d="M22.0454 11.3334C21.0753 11.0418 19.8471 10.865 18.509 10.8363V5.73718C18.509 5.62726 18.4707 5.53168 18.4086 5.45044C18.2509 4.89608 17.6105 4.44685 16.5018 4.11233C15.4265 3.78736 14.0215 3.61053 12.5448 3.61053C11.0729 3.61053 9.6822 3.78736 8.63082 4.11233C7.76583 4.37995 6.72879 4.87696 6.72879 5.7324C6.72879 5.79452 6.73357 5.84709 6.74313 5.8901L6.7957 8.06454C6.44205 7.99763 6.08363 7.96418 5.72043 7.96418C2.56631 7.96418 0 10.5305 0 13.6846C0 16.8387 2.56631 19.405 5.72043 19.405C7.03943 19.405 8.30585 18.951 9.32855 18.1243C10.227 18.3345 11.2784 18.4492 12.3919 18.4588C12.6356 19.7826 15.503 20.3895 18.1792 20.3895C19.6511 20.3895 21.037 20.2079 22.098 19.8782C22.9677 19.6105 24 19.1087 24 18.2533V13.0012C24 12.9343 23.9904 12.8722 23.9665 12.8148C23.8853 12.1936 23.2449 11.6966 22.0454 11.3334ZM7.76583 8.33694L7.73238 6.98927C8.01434 7.13742 8.35842 7.27123 8.76464 7.38592C9.80167 7.687 11.1446 7.84948 12.5544 7.84948C14.0311 7.84948 15.4361 7.67266 16.5066 7.34769C16.9223 7.22344 17.2712 7.08007 17.5579 6.92236V8.14578C17.5102 8.21268 17.4958 8.28915 17.4958 8.37517C17.4958 8.4373 17.2712 8.76705 16.2294 9.08246C15.2593 9.37875 13.9164 9.54602 12.5496 9.54602C11.3692 9.54602 10.2127 9.42176 9.2951 9.1876C9.28076 9.18282 9.27121 9.18282 9.25687 9.17804C8.80287 8.82917 8.30585 8.54243 7.76583 8.33694ZM12.5496 10.5066C14.0263 10.5066 15.4313 10.3298 16.5066 10.0048C16.9223 9.88055 17.2664 9.73718 17.5532 9.57947V10.8459C15.4982 10.908 13.3763 11.3381 12.5926 12.2031C12.5783 12.2031 12.5639 12.2031 12.5496 12.2031C12.0908 12.2031 11.6464 12.184 11.2354 12.1553C11.0585 11.5197 10.767 10.9128 10.3799 10.3776C11.0681 10.4588 11.8041 10.5066 12.5496 10.5066ZM11.417 13.1159C11.6989 13.135 11.9904 13.1446 12.2867 13.1494C12.2867 13.1589 12.2915 13.1733 12.2915 13.1828L12.3202 14.8411C11.9809 14.8363 11.6511 14.822 11.3309 14.7981C11.4026 14.4301 11.4409 14.0574 11.4409 13.6798C11.4456 13.4934 11.4361 13.3071 11.417 13.1159ZM11.0681 15.7396C11.4743 15.773 11.9044 15.7969 12.3441 15.8017V15.8877L12.368 17.5078C11.5794 17.4982 10.8244 17.4313 10.1458 17.3166C10.5376 16.8387 10.8483 16.3083 11.0681 15.7396ZM13.2951 15.7252L13.2855 15.3142L13.2664 14.2199C13.5627 14.3776 13.9307 14.5114 14.356 14.6356C15.3835 14.9224 16.7073 15.0848 18.0836 15.0848C19.5364 15.0848 20.9223 14.9128 21.9881 14.5974C22.4086 14.4731 22.7575 14.3345 23.0442 14.1768V15.405C23.0442 15.4672 23.0012 15.5388 23.0012 15.6105C23.0012 15.6774 22.7814 16.0024 21.7491 16.3178C20.7694 16.6141 19.4695 16.7766 18.0836 16.7766C15.4648 16.7718 13.687 16.184 13.2951 15.7252ZM23.0299 12.9534V12.9582C23.0251 13.0299 22.7861 13.3596 21.7252 13.675C20.7455 13.9666 19.4552 14.1243 18.0884 14.1243C16.7981 14.1243 15.5651 13.9761 14.6189 13.7133C13.7061 13.4552 13.3381 13.1637 13.2473 13.0156C13.2425 12.9869 13.2378 12.963 13.233 12.9343C13.2808 12.8005 13.6296 12.4899 14.6093 12.2127C15.5412 11.9498 16.7551 11.8065 18.0311 11.8065H18.0932C19.46 11.8065 20.7981 11.9642 21.773 12.2605C22.7766 12.5615 23.0155 12.8722 23.0299 12.9534ZM8.91756 5.02511C9.88291 4.72881 11.1732 4.56155 12.5496 4.56155C13.9164 4.56155 15.2545 4.72881 16.2294 5.02511C17.2664 5.34052 17.491 5.66549 17.491 5.7324C17.491 5.7993 17.2664 6.12905 16.2246 6.43969C15.2545 6.7312 13.9164 6.90325 12.5496 6.90325C11.2306 6.90325 9.97849 6.75032 9.02748 6.47314C8 6.17684 7.71326 5.84709 7.68937 5.74196C7.68937 5.7324 7.68937 5.72762 7.68459 5.72762C7.68937 5.66071 7.9092 5.33574 8.91756 5.02511ZM8.9319 17.2067C8.05257 18.0048 6.91039 18.4492 5.72521 18.4492C3.09677 18.4492 0.960573 16.313 0.960573 13.6846C0.960573 11.0562 3.09677 8.91997 5.72521 8.91997C6.20311 8.91997 6.681 8.99166 7.13978 9.13025C7.76583 9.32619 8.32975 9.6416 8.82676 10.0669C9.62963 10.7551 10.1888 11.6966 10.399 12.7193C10.4612 13.0394 10.4946 13.3644 10.4946 13.6798C10.4946 14.1625 10.4229 14.6404 10.2796 15.0944C10.0263 15.9068 9.56272 16.6332 8.9319 17.2067ZM21.8208 18.9654C20.8507 19.2664 19.5603 19.4337 18.184 19.4337C16.8029 19.4337 15.5125 19.2712 14.5567 18.9797C13.5436 18.6691 13.3381 18.3489 13.3381 18.2772C13.3381 18.2724 13.3381 18.2724 13.3381 18.2676L13.319 16.8865C14.4564 17.4648 16.3536 17.7276 18.0932 17.7276C19.5699 17.7276 20.9654 17.5508 22.0358 17.2258C22.3751 17.1207 22.7192 16.9869 23.0538 16.8053V18.2533C23.049 18.3202 22.8339 18.65 21.8208 18.9654Z" fill="black"/>
<path d="M7.48866 15.9546C6.59021 16.3034 5.57229 16.074 4.8889 15.3954C4.75986 15.2664 4.64517 15.1517 4.54959 14.9605H7.00598C7.26882 14.9605 7.48388 14.7455 7.48388 14.4826C7.48388 14.2198 7.26882 14.0048 7.00598 14.0048H4.2055C4.18161 13.8614 4.17683 13.6702 4.19117 13.4791H7.25927C7.52211 13.4791 7.73716 13.264 7.73716 13.0012C7.73716 12.7383 7.52211 12.5233 7.25927 12.5233H4.47313C4.58304 12.3321 4.72641 12.1266 4.8889 11.9594C5.56751 11.2807 6.59021 11.0609 7.48866 11.4098C7.73716 11.5054 8.00956 11.3811 8.10514 11.1374C8.20072 10.8889 8.07647 10.6165 7.83274 10.5209C6.58065 10.0382 5.1613 10.3393 4.21028 11.2903C3.85664 11.6439 3.58902 12.0502 3.42175 12.5281H2.74792C2.48507 12.5281 2.27002 12.7431 2.27002 13.0059C2.27002 13.2688 2.48507 13.4838 2.74792 13.4838H3.22581C3.21626 13.675 3.21626 13.8662 3.23537 14.0095H2.74792C2.48507 14.0095 2.27002 14.2246 2.27002 14.4874C2.27002 14.7503 2.48507 14.9653 2.74792 14.9653H3.4791C3.64636 15.3954 3.89965 15.7634 4.21506 16.0788C4.865 16.7288 5.72999 17.0776 6.6141 17.0776C7.0251 17.0776 7.43609 17.0059 7.83274 16.853C8.08125 16.7574 8.20072 16.4803 8.10514 16.2365C8.01434 15.9832 7.73716 15.8638 7.48866 15.9546Z" fill="black"/>
</g>
<defs>
<clipPath id="clip0_3857_21141">
<rect width="24" height="24" fill="white"/>
</clipPath>
</defs>
</svg>
