<svg width="16" height="16" viewBox="0 0 16 16" fill="none" xmlns="http://www.w3.org/2000/svg">
    <path d="M2 12C2 12.3667 2.3 12.6667 2.66667 12.6667H6V11.3333H2.66667C2.3 11.3333 2 11.6333 2 12ZM2 4C2 4.36667 2.3 4.66667 2.66667 4.66667H8.66667V3.33333H2.66667C2.3 3.33333 2 3.63333 2 4ZM8.66667 13.3333V12.6667H13.3333C13.7 12.6667 14 12.3667 14 12C14 11.6333 13.7 11.3333 13.3333 11.3333H8.66667V10.6667C8.66667 10.3 8.36667 10 8 10C7.63333 10 7.33333 10.3 7.33333 10.6667V13.3333C7.33333 13.7 7.63333 14 8 14C8.36667 14 8.66667 13.7 8.66667 13.3333ZM4.66667 6.66667V7.33333H2.66667C2.3 7.33333 2 7.63333 2 8C2 8.36667 2.3 8.66667 2.66667 8.66667H4.66667V9.33333C4.66667 9.7 4.96667 10 5.33333 10C5.7 10 6 9.7 6 9.33333V6.66667C6 6.3 5.7 6 5.33333 6C4.96667 6 4.66667 6.3 4.66667 6.66667ZM14 8C14 7.63333 13.7 7.33333 13.3333 7.33333H7.33333V8.66667H13.3333C13.7 8.66667 14 8.36667 14 8ZM10.6667 6C11.0333 6 11.3333 5.7 11.3333 5.33333V4.66667H13.3333C13.7 4.66667 14 4.36667 14 4C14 3.63333 13.7 3.33333 13.3333 3.33333H11.3333V2.66667C11.3333 2.3 11.0333 2 10.6667 2C10.3 2 10 2.3 10 2.66667V5.33333C10 5.7 10.3 6 10.6667 6Z" fill="white"/>
</svg>
