<svg width="14" height="15" viewBox="0 0 14 15" fill="none" xmlns="http://www.w3.org/2000/svg">
<path d="M9.75 12.375C7.8675 12.375 6.24 11.31 5.43 9.75H9C9.4125 9.75 9.75 9.4125 9.75 9C9.75 8.5875 9.4125 8.25 9 8.25H4.935C4.8975 8.0025 4.875 7.755 4.875 7.5C4.875 7.245 4.8975 6.9975 4.935 6.75H9C9.4125 6.75 9.75 6.4125 9.75 6C9.75 5.5875 9.4125 5.25 9 5.25H5.43C6.24 3.69 7.875 2.625 9.75 2.625C10.6875 2.625 11.565 2.895 12.315 3.3525C12.69 3.585 13.1775 3.5475 13.4925 3.2325C13.9275 2.7975 13.83 2.085 13.305 1.7625C12.27 1.125 11.0475 0.75 9.75 0.75C6.81 0.75 4.32 2.6325 3.39 5.25H1.5C1.0875 5.25 0.75 5.5875 0.75 6C0.75 6.4125 1.0875 6.75 1.5 6.75H3.045C3.015 6.9975 3 7.245 3 7.5C3 7.755 3.015 8.0025 3.045 8.25H1.5C1.0875 8.25 0.75 8.5875 0.75 9C0.75 9.4125 1.0875 9.75 1.5 9.75H3.39C4.32 12.3675 6.81 14.25 9.75 14.25C11.055 14.25 12.27 13.8825 13.305 13.2375C13.8225 12.915 13.92 12.195 13.485 11.76C13.17 11.445 12.6825 11.4075 12.3075 11.6475C11.565 12.1125 10.695 12.375 9.75 12.375Z" fill="#37B4B4"/>
</svg>
