<svg width="50" height="38" viewBox="0 0 50 38" fill="none" xmlns="http://www.w3.org/2000/svg">
<path fill-rule="evenodd" clip-rule="evenodd" d="M23.6336 37.5744C22.7151 37.5744 21.8562 37.2218 21.2136 36.5823C20.9566 36.3253 20.745 36.0291 20.5836 35.703C19.9551 36.2751 19.1448 36.5886 18.2843 36.5886C17.3705 36.5886 16.5116 36.2344 15.8675 35.5902C15.3032 35.026 14.9631 34.2815 14.8941 33.4868C14.0368 33.4492 13.239 33.0997 12.6325 32.4916C12.0447 31.9038 11.6968 31.1358 11.6419 30.3114C10.8363 30.2456 10.0871 29.9008 9.51037 29.3256C8.59975 28.415 8.29255 27.0623 8.69065 25.8492C7.85683 25.1361 7.74398 25.0389 7.28475 24.5813C5.83497 23.1393 4.95413 21.5783 4.34757 20.3792C4.14225 19.9733 3.95574 19.583 3.7755 19.2069L3.76766 19.1896C3.63914 18.9201 3.51846 18.6661 3.39934 18.4295C3.24417 18.5031 3.07177 18.5423 2.89622 18.5423C2.61097 18.5423 2.33669 18.4389 2.12196 18.2524L0.404167 16.7556C0.1675 16.5487 0.0248723 16.2619 0.00292965 15.9484C-0.019013 15.6349 0.0828636 15.3309 0.289751 15.0926C0.51388 14.8356 0.838318 14.6883 1.17843 14.6883C1.46368 14.6883 1.73797 14.7917 1.95269 14.9782L2.78181 15.6992L11.3222 5.90023L7.2487 2.35022C6.7597 1.92234 6.70798 1.17786 7.13429 0.687286C7.35999 0.430243 7.68286 0.282914 8.02297 0.282914C8.30665 0.282914 8.5825 0.386358 8.79723 0.57287L13.7594 4.89714C13.8989 5.01939 14.007 5.16985 14.076 5.33756C14.9318 5.29524 16.0038 5.08992 17.2687 4.72317L17.2843 4.71846C17.4191 4.68398 17.5304 4.65107 17.6417 4.61659C18.5053 4.35641 19.3955 4.22475 20.292 4.22475C21.9879 4.22475 23.6493 4.71063 25.0128 5.5993C26.3749 4.71063 28.0362 4.22475 29.7336 4.22475C30.6302 4.22475 31.5204 4.35641 32.384 4.61502C33.7711 5.03663 34.9811 5.2827 35.9152 5.33599C35.981 5.15732 36.0907 4.99588 36.2396 4.86579L41.2018 0.539956C41.4165 0.353444 41.6908 0.25 41.9761 0.25C42.3162 0.25 42.6406 0.397329 42.8648 0.654372C43.0716 0.891039 43.1735 1.1951 43.1531 1.51013C43.1328 1.82517 42.9886 2.11042 42.7519 2.31731L38.6784 5.86888L47.2188 15.6678L48.0479 14.9453C48.2611 14.7588 48.5369 14.6553 48.8206 14.6553C49.1607 14.6553 49.4852 14.8027 49.7093 15.0582C50.1372 15.5487 50.087 16.2948 49.5964 16.7211L47.8787 18.2179C47.6639 18.4044 47.3896 18.5078 47.1044 18.5078C47.084 18.5078 47.0605 18.5079 47.0401 18.5063L47.0229 18.5047C46.9304 18.4984 46.8395 18.4796 46.7517 18.4499C46.0668 19.058 45.6562 19.8824 45.1531 20.8965C44.4634 22.282 43.5309 24.1612 41.404 26.1016C41.7331 27.2818 41.4087 28.556 40.5279 29.4353C39.8837 30.0795 39.0248 30.4352 38.111 30.4352C37.7694 30.4352 37.423 30.3788 37.086 30.2691C36.9183 30.7315 36.6534 31.1499 36.3039 31.4995C35.6958 32.1076 34.898 32.4571 34.0407 32.4947C33.9717 33.2894 33.6316 34.0323 33.0674 34.5965C32.4232 35.2407 31.5643 35.5965 30.6505 35.5965C29.7368 35.5965 28.8779 35.2407 28.2337 34.5965L28.0002 34.3645C27.8372 34.6953 27.6209 34.9962 27.3591 35.2579L26.0473 36.576C25.8764 36.7453 25.704 36.8832 25.5207 36.9977C24.9831 37.3676 24.3122 37.5729 23.6305 37.5729L23.6336 37.5744ZM22.8753 33.4132C22.8158 33.4774 22.7985 33.5025 22.7938 33.5119L22.786 33.5245L22.7782 33.537C22.4725 33.9821 22.5133 34.5495 22.8769 34.9147C23.065 35.1028 23.3424 35.2109 23.6355 35.2109C23.8534 35.2109 24.0555 35.1513 24.217 35.0369L24.228 35.0291L24.2405 35.0213C24.3095 34.9789 24.3424 34.9507 24.3816 34.9115L25.6934 33.5918C26.0539 33.2345 26.1072 32.6562 25.8188 32.2424C25.7796 32.1859 25.7389 32.1358 25.6918 32.0903C25.6354 32.0339 25.5915 31.9963 25.5524 31.9697C25.5398 31.9618 25.5241 31.9508 25.5085 31.9399C25.3408 31.838 25.148 31.7831 24.9474 31.7831C24.6605 31.7831 24.3925 31.8929 24.1935 32.0935L23.5258 32.7596L23.5148 32.7706L22.8738 33.4132H22.8753ZM21.0952 29.3052C20.81 29.3052 20.5435 29.4149 20.3445 29.614L17.5311 32.4273C17.1205 32.8395 17.1221 33.5119 17.5343 33.9241C17.7208 34.1091 17.9935 34.2157 18.285 34.2157C18.5765 34.2157 18.8493 34.1091 19.0358 33.9226L21.8507 31.1076C22.2598 30.6954 22.2582 30.0246 21.846 29.6124C21.6469 29.4134 21.3805 29.3036 21.0952 29.3036V29.3052ZM27.291 30.3553C27.3302 30.3788 27.3866 30.4164 27.443 30.4729L29.9022 32.932C30.1028 33.1326 30.3692 33.2423 30.6529 33.2423C30.9366 33.2423 31.2031 33.1326 31.4037 32.932C31.6027 32.733 31.7109 32.4665 31.7109 32.1813C31.7109 31.896 31.6012 31.6296 31.4037 31.4321L27.2471 27.2739C26.7879 26.8147 26.7879 26.0671 27.2471 25.6079C27.4697 25.3853 27.7659 25.2631 28.0809 25.2631C28.396 25.2631 28.6922 25.3853 28.9148 25.6079L33.1403 29.835C33.3393 30.034 33.6058 30.1437 33.891 30.1437C34.1763 30.1437 34.4412 30.034 34.6418 29.835C34.9976 29.4792 35.0509 28.9259 34.7735 28.5059L30.5009 24.1957C30.4319 24.1267 30.3943 24.0578 30.3724 24.0217L30.3645 24.0123C30.3332 23.9716 30.283 23.9042 30.2439 23.8086C30.2094 23.7224 30.2 23.6471 30.1937 23.608L30.1906 23.5938C30.178 23.5453 30.1577 23.4653 30.1577 23.365C30.1577 23.2647 30.1796 23.1832 30.1921 23.1346L30.1953 23.1221C30.2 23.0829 30.2109 23.0092 30.2454 22.9246C30.2846 22.8274 30.3379 22.7585 30.3692 22.7161C30.3708 22.713 30.3739 22.7114 30.3755 22.7083C30.3881 22.6864 30.4069 22.6534 30.4351 22.6158L30.4586 22.5704L30.5213 22.5187L30.5385 22.5014L30.5526 22.492C30.6106 22.4434 30.6639 22.4136 30.6968 22.3948L30.7047 22.3901L30.7094 22.387C30.7438 22.3604 30.8081 22.3133 30.8959 22.2773C30.9899 22.2397 31.0714 22.2287 31.1216 22.2224L31.1325 22.2209L31.1372 22.2193C31.1764 22.2099 31.2501 22.1911 31.341 22.1911C31.4366 22.1911 31.5134 22.2115 31.5542 22.2224L31.562 22.224L31.5698 22.2256C31.6168 22.2318 31.6952 22.2428 31.7861 22.2789C31.877 22.3149 31.9413 22.3651 31.9789 22.3933L31.9852 22.398L31.9914 22.4011C32.0306 22.423 32.1027 22.4638 32.1748 22.5359L36.311 26.6721C36.3784 26.7395 36.4286 26.8053 36.4677 26.8586C36.4787 26.8727 36.4881 26.8852 36.4991 26.8993L37.3705 27.7786C37.5523 27.9604 37.825 28.067 38.1166 28.067C38.4081 28.067 38.6824 27.9604 38.8673 27.7755C39.2811 27.3617 39.2811 26.6893 38.8673 26.2756L38.5397 25.948C38.5303 25.9401 38.5209 25.9307 38.5115 25.9229L26.5512 13.9626C26.465 13.8748 26.3569 13.8294 26.244 13.8294C26.1688 13.8294 26.0591 13.8497 25.9588 13.9469C25.1892 14.6836 24.0513 15.7697 22.5749 17.1772L21.8759 17.8449C21.2725 18.4232 20.4919 18.7304 19.6174 18.7304H19.5938C18.7365 18.71 17.9403 18.359 17.3526 17.7414L17.0485 17.4233L17.0438 17.417C16.9278 17.2885 16.8385 17.1835 16.7585 17.0612C15.826 15.8058 15.989 14.0269 17.1441 12.9109L23.0874 7.22776C22.2348 6.80929 21.2772 6.58986 20.2835 6.58986C19.6236 6.58986 18.9653 6.68703 18.3274 6.87982C18.1958 6.919 18.0485 6.96288 17.8964 7.00207C16.2742 7.47227 14.8871 7.7105 13.7743 7.7105C13.475 7.7105 13.1913 7.69326 12.928 7.65878L5.11169 16.6255C5.37344 17.0847 5.61951 17.5925 5.90006 18.1803L5.92984 18.2445C6.09598 18.5909 6.26682 18.9498 6.45333 19.3182C6.97995 20.3604 7.74011 21.7115 8.95166 22.9168C9.31841 23.2819 9.37484 23.3352 10.0848 23.9434C10.6977 23.4261 11.4672 23.1456 12.2822 23.1456C13.1976 23.1456 14.0565 23.4998 14.6991 24.144C14.9624 24.4073 15.1787 24.7082 15.3401 25.0389C15.9028 24.6518 16.5705 24.4433 17.2726 24.4433C18.1879 24.4433 19.0453 24.7976 19.6894 25.4417C20.1173 25.868 20.4183 26.4072 20.5687 26.9981C20.7474 26.9683 20.9229 26.9526 21.0969 26.9526C22.0122 26.9526 22.8696 27.3069 23.5137 27.951C23.9401 28.3773 24.241 28.9134 24.3914 29.5011C24.5874 29.4682 24.7864 29.451 24.987 29.451C25.6218 29.451 26.2268 29.6171 26.7456 29.9337H26.7503L26.7989 29.9666C26.8098 29.9729 26.8208 29.9807 26.8318 29.987C26.8553 30.0027 26.8757 30.0168 26.896 30.0324C27.0277 30.1234 27.1578 30.2299 27.291 30.3569V30.3553ZM14.2071 29.44C14.0645 29.6265 13.9893 29.8459 13.9893 30.0748C13.9893 30.36 14.099 30.6265 14.298 30.8255C14.483 31.0104 14.7557 31.117 15.0472 31.117C15.3387 31.117 15.6114 31.0104 15.798 30.8239L15.8669 30.755L18.0204 28.6015C18.2195 28.4024 18.3292 28.136 18.3292 27.8523C18.3292 27.5686 18.2195 27.3006 18.0204 27.1015C17.8214 26.9025 17.5549 26.7928 17.2712 26.7928C16.986 26.7928 16.7195 26.9025 16.5205 27.1015L14.9265 28.6955C14.9156 28.708 14.9061 28.7221 14.8967 28.7347C14.8419 28.8068 14.7792 28.8883 14.6961 28.9713L14.3419 29.324C14.2918 29.3742 14.2447 29.4102 14.2087 29.4368L14.2071 29.4384V29.44ZM12.2798 25.4966C11.9946 25.4966 11.7297 25.6063 11.5307 25.8053L11.1764 26.1596C10.7642 26.5733 10.7642 27.2457 11.178 27.6595C11.3614 27.8429 11.631 27.9479 11.9178 27.9479C12.1498 27.9479 12.3723 27.8805 12.5494 27.7567C12.5698 27.73 12.598 27.6955 12.6341 27.6595L13.192 27.1015C13.2892 26.9385 13.3409 26.7504 13.3409 26.5545C13.3409 26.2693 13.2312 26.0028 13.0322 25.8038C12.8331 25.6047 12.5667 25.495 12.2814 25.495L12.2798 25.4966ZM26.2401 11.4737C26.9908 11.4737 27.693 11.7652 28.218 12.2949L40.0608 24.1377C41.683 22.5876 42.4024 21.1394 43.0434 19.8511C43.5716 18.79 44.1139 17.6975 45.0763 16.7995L37.1111 7.66191C36.8525 7.69483 36.5766 7.7105 36.2851 7.7105C35.0767 7.7105 33.536 7.42995 31.7054 6.87511C31.0627 6.68233 30.3998 6.58359 29.7336 6.58359C28.3983 6.58359 27.1005 6.99109 26.0802 7.73087C25.7793 7.9456 25.4956 8.17913 25.2338 8.4299L18.7733 14.6068C18.4724 14.8983 18.4316 15.3685 18.6824 15.7008L18.6918 15.7133L18.7012 15.7274C18.7247 15.7635 18.7341 15.7744 18.7576 15.7979L18.7702 15.8105L19.0538 16.1067C19.2106 16.2713 19.4143 16.3606 19.6432 16.3653H19.6604C19.6729 16.3653 19.6839 16.3669 19.6965 16.3669C19.8877 16.3669 20.0867 16.2822 20.2403 16.1349L20.944 15.4641C22.3876 14.088 23.5552 12.9736 24.3232 12.2401C24.8373 11.7464 25.5191 11.4721 26.2416 11.4721L26.2401 11.4737Z" fill="#191970"/>
</svg>
