<svg width="70" height="66" viewBox="0 0 70 66" fill="none" xmlns="http://www.w3.org/2000/svg">
<path d="M61.8267 3.15829C56.9366 0.298937 50.9777 -0.062765 45.7777 2.18412C40.3906 4.42875 36.1168 8.97635 33.5984 14.9875C32.946 12.1368 31.5254 9.51913 29.4907 7.41858C26.3482 4.13246 21.9757 2.26044 17.7827 2.39063C12.0096 2.57918 7.28687 4.90461 4.11746 9.1245C-0.151815 14.8079 -1.13945 23.2791 1.33413 32.9804C5.32956 48.6254 20.3416 58.3177 32.9699 65.0067C33.3043 65.1844 33.6775 65.2769 34.0563 65.276C34.5008 65.275 34.9373 65.1573 35.3222 64.9348C43.0841 60.5892 51.0346 55.7453 56.6282 49.7657C64.7582 41.079 69.4944 31.0186 69.9658 21.4385C70.3653 13.3579 67.2453 6.35463 61.8267 3.15829Z" fill="#FC6E47"/>
<path d="M20.7383 26.7755C20.0151 26.776 19.4205 26.2052 19.3915 25.4826V25.0875C19.3643 24.3437 19.9451 23.7186 20.6889 23.6914C21.4327 23.6641 22.0578 24.2449 22.0851 24.9887V25.3838C22.1103 26.1261 21.5299 26.7487 20.7877 26.7755H20.7383Z" fill="#C44538"/>
<path d="M34.7371 32.2884C31.0245 32.2884 27.3298 31.2245 25.0807 29.752C24.6654 29.4805 24.5489 28.9238 24.8204 28.5085C25.0918 28.0932 25.6486 27.9766 26.0639 28.2481C29.6149 30.5735 37.5833 31.7901 41.9917 28.4007C42.3847 28.0982 42.9485 28.1716 43.251 28.5646C43.5534 28.9576 43.4801 29.5213 43.0871 29.8238C40.7976 31.5836 37.7584 32.2884 34.7371 32.2884Z" fill="#C44538"/>
<path d="M47.0664 25.8253C46.3415 25.8257 45.7462 25.2523 45.7197 24.5279V24.1373C45.702 23.6561 45.9424 23.2021 46.3503 22.9463C46.7581 22.6904 47.2715 22.6716 47.6971 22.8969C48.1226 23.1222 48.3956 23.5574 48.4132 24.0385V24.4291C48.4411 25.1697 47.8653 25.7937 47.1248 25.8253H47.0664Z" fill="#C44538"/>
</svg>
