<svg width="55" height="55" viewBox="0 0 55 55" fill="none" xmlns="http://www.w3.org/2000/svg">
<path d="M47.5914 3.9833C52.0582 8.18541 58.4957 20.6167 45.358 35.6742C32.2203 50.7318 12.7765 42.8528 7.12726 37.0749C-3.25153 26.3946 3.31732 14.8388 12.3823 11.1619C19.4767 8.88576 20.5148 13.3113 27.6221 11.8623C38.1193 9.72203 38.1322 -3.1953 47.5914 3.9833Z" fill="#C3E9E9"/>
<path d="M10.2256 44.1211H27.1747V53.1663H12.2256C11.121 53.1663 10.2256 52.2709 10.2256 51.1663V44.1211Z" fill="#37B4B4"/>
<path d="M9.16602 42.5323C9.16602 41.6548 9.87743 40.9434 10.755 40.9434H27.1745V44.1213H10.755C9.87743 44.1213 9.16602 43.4099 9.16602 42.5323V42.5323Z" fill="#69C7C7"/>
<path d="M9.16602 42.5323C9.16602 41.6548 9.87743 40.9434 10.755 40.9434H27.1745V44.1213H10.755C9.87743 44.1213 9.16602 43.4099 9.16602 42.5323V42.5323Z" fill="#556380" fill-opacity="0.15"/>
<path d="M16.9162 38.7248C17.3962 38.5758 17.8959 38.5 18.3985 38.5L34.0245 38.5L27.1742 40.9435L9.63184 40.9859L16.9162 38.7248Z" fill="#69C7C7"/>
<path d="M16.9162 38.7248C17.3962 38.5758 17.8959 38.5 18.3985 38.5L34.0245 38.5L27.1742 40.9435L9.63184 40.9859L16.9162 38.7248Z" fill="black" fill-opacity="0.2"/>
<path d="M18.8551 39.2653C18.893 39.2545 18.9322 39.249 18.9715 39.249L24.3613 39.249C24.8527 39.249 24.9502 39.9452 24.4777 40.0802V40.0802C24.4399 40.091 24.4007 40.0965 24.3613 40.0965H18.9715C18.4802 40.0965 18.3827 39.4003 18.8551 39.2653V39.2653Z" fill="white"/>
<path d="M27.1748 44.1215L33.5307 41.791V49.4393C33.5307 50.2784 33.007 51.0282 32.2192 51.3171L27.1748 53.1667V44.1215Z" fill="#37B4B4"/>
<path d="M27.1748 40.9437L32.5819 38.9353C33.5549 38.5739 34.5901 39.2937 34.5901 40.3317V40.3317C34.5901 40.9543 34.2028 41.5112 33.6192 41.728L27.1748 44.1216V40.9437Z" fill="#37B4B4"/>
<mask id="mask0_6193_43943" style="mask-type:alpha" maskUnits="userSpaceOnUse" x="18" y="46" width="5" height="5">
<path fill-rule="evenodd" clip-rule="evenodd" d="M22.2226 46.8066V50.4999H18.8105V46.8066H22.2226V46.8066Z" fill="white"/>
</mask>
<g mask="url(#mask0_6193_43943)">
<path fill-rule="evenodd" clip-rule="evenodd" d="M19.6547 48.3069C19.6908 48.0064 19.7812 47.7706 19.9328 47.606C20.0901 47.4344 20.2975 47.3469 20.5404 47.3475C20.7936 47.3469 21.0065 47.4324 21.1645 47.6023C21.3179 47.7667 21.4041 48.0062 21.4314 48.3138C21.4352 48.3652 21.3814 48.4101 21.3265 48.4101H19.7596C19.7025 48.4098 19.6458 48.3635 19.6547 48.3069M22.1041 49.6012C22.1476 49.3856 22.0165 49.3387 21.9458 49.3289C21.9323 49.3275 21.9184 49.3266 21.9036 49.3265C21.823 49.3265 21.7591 49.3528 21.7185 49.3902C21.6695 49.4355 21.5273 49.57 21.4541 49.6344C21.3797 49.7001 21.2984 49.7615 21.2105 49.8187C21.1204 49.8772 21.0268 49.9206 20.9299 49.9484C20.8328 49.9762 20.7265 49.9897 20.6116 49.9897C20.4377 49.9899 20.2763 49.9461 20.1313 49.859C19.985 49.7715 19.8682 49.6407 19.7821 49.4713C19.7019 49.3144 19.6587 49.1354 19.6506 48.9371C19.6483 48.8709 19.6983 48.8313 19.7564 48.8313H21.5136C21.7504 48.8315 21.9302 48.7967 22.0518 48.7331C22.1601 48.6767 22.2217 48.5518 22.2226 48.3251C22.2226 48.0813 22.1609 47.8423 22.0357 47.6052C21.9116 47.3707 21.7258 47.1796 21.4743 47.03C21.2249 46.8818 20.9251 46.8067 20.571 46.8066C20.2985 46.8066 20.0524 46.8508 19.831 46.9379C19.6092 47.0253 19.4246 47.1501 19.2743 47.3124C19.1237 47.4754 19.0087 47.6706 18.9297 47.9001C18.8505 48.1298 18.8105 48.3794 18.8105 48.6499C18.8109 49.2258 18.9716 49.6729 19.2904 50.0034C19.6089 50.3329 20.0537 50.4995 20.6387 50.4999C20.8881 50.5 21.1078 50.4676 21.2979 50.4044C21.6459 50.2808 22.0375 49.931 22.1041 49.6012" fill="white"/>
</g>
<mask id="mask1_6193_43943" style="mask-type:alpha" maskUnits="userSpaceOnUse" x="16" y="45" width="6" height="7">
<path fill-rule="evenodd" clip-rule="evenodd" d="M16.3525 51.4469V45.8604H21.8936V51.4469H16.3525V51.4469Z" fill="white"/>
</mask>
<g mask="url(#mask1_6193_43943)">
<path fill-rule="evenodd" clip-rule="evenodd" d="M21.8936 48.6536C21.8936 50.1965 20.6532 51.4469 19.1231 51.4469C17.5929 51.4469 16.3525 50.1965 16.3525 48.6536C16.3525 47.1108 17.5929 45.8604 19.1231 45.8604C20.6532 45.8604 21.8936 47.1108 21.8936 48.6536" fill="white"/>
</g>
<path fill-rule="evenodd" clip-rule="evenodd" d="M16.7046 49.553C16.5722 49.193 16.5173 48.798 16.5582 48.3909C16.7019 46.9652 17.9691 45.9233 19.3831 46.0681C20.5388 46.1865 21.4081 47.0559 21.6199 48.0426C21.8049 48.8957 20.5086 48.9495 19.3731 48.7137C18.4286 48.3783 17.1949 48.4053 16.7046 49.553" fill="white"/>
<path fill-rule="evenodd" clip-rule="evenodd" d="M21.7005 48.6537C21.7005 50.0891 20.5464 51.2527 19.1227 51.2527C17.699 51.2527 16.5449 50.0891 16.5449 48.6537C16.5449 47.2183 17.699 46.0547 19.1227 46.0547C20.5464 46.0547 21.7005 47.2183 21.7005 48.6537" fill="white"/>
<path fill-rule="evenodd" clip-rule="evenodd" d="M19.6547 48.3069C19.6908 48.0064 19.7812 47.7706 19.9328 47.606C20.0901 47.4344 20.2975 47.3469 20.5404 47.3475C20.7936 47.3469 21.0065 47.4324 21.1645 47.6023C21.3179 47.7667 21.4041 48.0063 21.4314 48.3138C21.4352 48.3652 21.3814 48.4101 21.3265 48.4101H19.7596C19.7025 48.4098 19.6458 48.3635 19.6547 48.3069M21.8094 49.3402C21.7724 49.3515 21.7416 49.3689 21.7185 49.3902C21.6695 49.4355 21.5273 49.57 21.4541 49.6344C21.3797 49.7001 21.2984 49.7615 21.2105 49.8187C21.1204 49.8772 21.0268 49.9206 20.9299 49.9484C20.8328 49.9762 20.7265 49.9897 20.6116 49.9897C20.4377 49.9899 20.2763 49.9461 20.1313 49.859C19.985 49.7715 19.8682 49.6407 19.7821 49.4713C19.7019 49.3144 19.6587 49.1354 19.6506 48.9371C19.6483 48.8709 19.6983 48.8313 19.7564 48.8313H21.5136C21.6615 48.8314 21.7872 48.8179 21.8904 48.7922C21.8926 48.7463 21.8938 48.7001 21.8938 48.6536C21.8938 48.0123 21.6793 47.4217 21.319 46.9502C21.1031 46.855 20.8545 46.8067 20.571 46.8066C20.2985 46.8066 20.0524 46.8508 19.831 46.9379C19.6092 47.0253 19.4246 47.1501 19.2743 47.3124C19.1237 47.4754 19.0087 47.6706 18.9297 47.9001C18.8505 48.1298 18.8105 48.3794 18.8105 48.6499C18.8109 49.2258 18.9716 49.6729 19.2904 50.0034C19.6089 50.3329 20.0537 50.4995 20.6387 50.4999C20.8791 50.5 21.0915 50.4696 21.2768 50.4109C21.5253 50.1017 21.7097 49.7379 21.8094 49.3402" fill="#69C7C7"/>
<path d="M43.3742 3.31592C44.2135 2.62644 45.3644 2.45026 46.2576 3.06841C47.7195 4.08012 49.9325 6.09478 51.5168 9.71603C51.8835 12.8327 39.4168 17.2327 39.4168 17.2327L34.4668 10.6327L43.3742 3.31592Z" fill="url(#paint0_linear_6193_43943)"/>
<path d="M27.683 22.7325C27.683 22.7325 24.933 23.6492 24.1997 26.3992C23.4664 29.1492 24.0164 31.3492 23.4664 31.8992C22.9164 32.4492 21.4497 32.6325 21.4497 31.1658C21.4497 29.6992 19.6164 25.4825 20.533 23.4658C21.4497 21.4492 25.1164 16.8658 26.2164 17.5992C27.3164 18.3325 27.683 22.7325 27.683 22.7325Z" fill="url(#paint1_linear_6193_43943)"/>
<path d="M27.683 22.7325C27.683 22.7325 24.933 23.6492 24.1997 26.3992C23.4664 29.1492 24.0164 31.3492 23.4664 31.8992C22.9164 32.4492 21.4497 32.6325 21.4497 31.1658C21.4497 29.6992 19.6164 25.4825 20.533 23.4658C21.4497 21.4492 25.1164 16.8658 26.2164 17.5992C27.3164 18.3325 27.683 22.7325 27.683 22.7325Z" fill="black" fill-opacity="0.15"/>
<path d="M25.8504 18.8828C25.8504 18.8828 28.0504 20.1661 27.3171 20.8995C26.5837 21.6328 23.6504 21.9995 22.0004 28.5995C22.0004 30.2495 20.9004 27.4995 20.9004 27.4995L21.4504 21.9995L25.8504 18.8828Z" fill="url(#paint2_linear_6193_43943)"/>
<path d="M25.8504 18.8828C25.8504 18.8828 28.0504 20.1661 27.3171 20.8995C26.5837 21.6328 23.6504 21.9995 22.0004 28.5995C22.0004 30.2495 20.9004 27.4995 20.9004 27.4995L21.4504 21.9995L25.8504 18.8828Z" fill="black" fill-opacity="0.2"/>
<path d="M34.4667 10.6328L39.4167 17.2328L37.0333 19.0661C37.0333 19.0661 33.3667 24.3828 30.4333 25.4828C28.9667 26.5828 27.1333 30.9828 26.5833 31.7161C26.2675 32.1373 25.7366 32.2804 25.1167 31.7161C24.6571 31.2979 24.5667 29.5161 24.9333 28.4161C25.3 27.1328 26.2623 26.0628 26.7667 25.1161C27.8031 23.171 28.1865 21.766 26.5833 20.5328C24.2 18.6995 22.1833 23.8328 22.1833 23.8328C22.1833 23.8328 21.45 27.1328 22.1833 28.9661C22.9167 30.7995 21.8167 32.0828 21.8167 32.0828C21.8167 32.0828 19.25 26.0328 19.25 24.7495C19.25 23.4661 20.35 21.4495 20.35 19.9828C20.35 18.5161 20.7167 16.8661 23.2833 15.9495C25.85 15.0328 30.9833 13.5661 31.9 13.0161C32.8167 12.4661 34.4667 10.6328 34.4667 10.6328Z" fill="url(#paint3_linear_6193_43943)"/>
<path d="M37.7667 15.0322L39.4167 17.2322C39.4167 17.2322 36.6667 19.2489 36.1167 20.3489C35.5667 21.2656 32.6334 24.7489 30.8 25.2989C29.5167 25.6656 26.95 30.9822 26.95 30.9822C26.95 30.9822 26.0334 26.2156 30.0667 23.2822C34.1 20.3489 34.8334 19.7989 35.5667 18.8822C36.3 17.9656 37.7667 15.0322 37.7667 15.0322Z" fill="url(#paint4_linear_6193_43943)" fill-opacity="0.5"/>
<ellipse cx="21.7676" cy="31.9457" rx="4.9014" ry="5.26403" fill="#F7BE40"/>
<ellipse cx="21.7676" cy="31.9457" rx="4.9014" ry="5.26403" fill="#556380" fill-opacity="0.2"/>
<ellipse cx="22.7943" cy="31.5364" rx="4.23573" ry="5.13698" fill="#F7BE40"/>
<g filter="url(#filter0_i_6193_43943)">
<path d="M23.8976 31.7411L22.8523 32.2285C23.0053 32.5295 23.1941 32.7213 23.4188 32.8039C23.6435 32.8866 23.917 32.8527 24.2395 32.7023C24.4579 32.6005 24.6405 32.4761 24.7872 32.3291L25.2517 33.0319C25.0219 33.2125 24.7697 33.3668 24.4951 33.4949C23.948 33.75 23.4461 33.8049 22.9895 33.6594C22.5329 33.5139 22.1741 33.183 21.913 32.6665L21.3857 32.9124L21.1645 32.4381L21.6918 32.1922L21.5114 31.8053L20.9841 32.0512L20.7629 31.5769L21.2965 31.328C21.0874 30.7873 21.08 30.295 21.2744 29.851C21.4688 29.4071 21.8386 29.058 22.3836 28.8039C22.602 28.702 22.8625 28.6198 23.1651 28.5572L23.4064 29.3679C23.1798 29.3925 22.9718 29.4489 22.7825 29.5372C22.1938 29.8117 22.0115 30.2627 22.2357 30.8901L23.2748 30.4055L23.496 30.8798L22.4507 31.3673L22.6311 31.7542L23.6764 31.2668L23.8976 31.7411Z" fill="#566581"/>
</g>
<path d="M34.4667 10.6328L39.4167 17.2328L37.0333 19.0661C37.0333 19.0661 33.3667 24.3828 30.4333 25.4828C28.9667 26.5828 27.1333 30.9828 26.5833 31.7161C26.2675 32.1373 25.7366 32.2804 25.1167 31.7161C24.6571 31.2979 24.5667 29.5161 24.9333 28.4161C25.3 27.1328 26.2623 26.0628 26.7667 25.1161C27.8031 23.171 28.1865 21.766 26.5833 20.5328C24.2 18.6995 22.1833 23.8328 22.1833 23.8328C22.1833 23.8328 21.85 25.6583 21.8227 26.4317C20.9 26.3995 20.7167 26.5828 19.793 26.9385C19.431 25.8727 19.25 25.143 19.25 24.7495C19.25 23.4661 20.35 21.4495 20.35 19.9828C20.35 18.5161 20.7167 16.8661 23.2833 15.9495C25.85 15.0328 30.9833 13.5661 31.9 13.0161C32.8167 12.4661 34.4667 10.6328 34.4667 10.6328Z" fill="url(#paint5_linear_6193_43943)"/>
<mask id="mask2_6193_43943" style="mask-type:alpha" maskUnits="userSpaceOnUse" x="19" y="10" width="21" height="23">
<path d="M34.4667 10.6328L39.4167 17.2328L37.0333 19.0661C37.0333 19.0661 33.3667 24.3828 30.4333 25.4828C28.9667 26.5828 27.1333 30.9828 26.5833 31.7161C26.2675 32.1373 25.7366 32.2804 25.1167 31.7161C24.6571 31.2979 24.5667 29.5161 24.9333 28.4161C25.3 27.1328 26.2623 26.0628 26.7667 25.1161C27.8031 23.171 28.1865 21.766 26.5833 20.5328C24.2 18.6995 22.1833 23.8328 22.1833 23.8328C22.1833 23.8328 21.85 25.6583 21.8227 26.4317C20.9 26.3995 20.7167 26.5828 19.793 26.9385C19.431 25.8727 19.25 25.143 19.25 24.7495C19.25 23.4661 20.35 21.4495 20.35 19.9828C20.35 18.5161 20.7167 16.8661 23.2833 15.9495C25.85 15.0328 30.9833 13.5661 31.9 13.0161C32.8167 12.4661 34.4667 10.6328 34.4667 10.6328Z" fill="white"/>
</mask>
<g mask="url(#mask2_6193_43943)">
</g>
<defs>
<filter id="filter0_i_6193_43943" x="20.7627" y="28.5576" width="4.48926" height="6.18066" filterUnits="userSpaceOnUse" color-interpolation-filters="sRGB">
<feFlood flood-opacity="0" result="BackgroundImageFix"/>
<feBlend mode="normal" in="SourceGraphic" in2="BackgroundImageFix" result="shape"/>
<feColorMatrix in="SourceAlpha" type="matrix" values="0 0 0 0 0 0 0 0 0 0 0 0 0 0 0 0 0 0 127 0" result="hardAlpha"/>
<feOffset dy="1"/>
<feGaussianBlur stdDeviation="1.5"/>
<feComposite in2="hardAlpha" operator="arithmetic" k2="-1" k3="1"/>
<feColorMatrix type="matrix" values="0 0 0 0 0 0 0 0 0 0 0 0 0 0 0 0 0 0 0.15 0"/>
<feBlend mode="normal" in2="shape" result="effect1_innerShadow_6193_43943"/>
</filter>
<linearGradient id="paint0_linear_6193_43943" x1="41.683" y1="19.9125" x2="52.466" y2="10.0732" gradientUnits="userSpaceOnUse">
<stop stop-color="#55637F"/>
<stop offset="1" stop-color="#6D7EA0"/>
</linearGradient>
<linearGradient id="paint1_linear_6193_43943" x1="21.6259" y1="19.7484" x2="14.8647" y2="24.3045" gradientUnits="userSpaceOnUse">
<stop stop-color="#F8A58D"/>
<stop offset="1" stop-color="#FF7162"/>
</linearGradient>
<linearGradient id="paint2_linear_6193_43943" x1="22.103" y1="20.4404" x2="17.0612" y2="24.7706" gradientUnits="userSpaceOnUse">
<stop stop-color="#F8A58D"/>
<stop offset="1" stop-color="#FF7162"/>
</linearGradient>
<linearGradient id="paint3_linear_6193_43943" x1="22.9246" y1="13.8662" x2="12.6217" y2="26.8911" gradientUnits="userSpaceOnUse">
<stop stop-color="#F8A58D"/>
<stop offset="1" stop-color="#FF7162"/>
</linearGradient>
<linearGradient id="paint4_linear_6193_43943" x1="29.0357" y1="14.4354" x2="20.4767" y2="25.2075" gradientUnits="userSpaceOnUse">
<stop stop-color="#FDC7B6"/>
<stop offset="1" stop-color="#FC8674"/>
</linearGradient>
<linearGradient id="paint5_linear_6193_43943" x1="22.9246" y1="13.8662" x2="12.6217" y2="26.8911" gradientUnits="userSpaceOnUse">
<stop stop-color="#F8A58D"/>
<stop offset="1" stop-color="#FF7162"/>
</linearGradient>
</defs>
</svg>
