<svg width="60" height="60" viewBox="0 0 60 60" fill="none" xmlns="http://www.w3.org/2000/svg">
<path d="M36.0835 45.043C9.52238 46.6927 9.8883 47.8932 4.24638 42.7998C-1.39554 37.7064 2.9147 23.5672 5.22626 19.859C7.53783 16.1507 14.1823 11.5017 17.8425 13.7507C21.5026 15.9998 18.947 19.859 26.0001 19.859C33.0532 19.859 44.3621 -0.920172 53.6101 9.15234C62.8581 19.2248 62.6446 43.3934 36.0835 45.043Z" fill="#BDE6E6"/>
<mask id="mask0_6193_43107" style="mask-type:alpha" maskUnits="userSpaceOnUse" x="1" y="6" width="59" height="41">
<path d="M36.0835 45.043C9.52238 46.6927 9.8883 47.8932 4.24638 42.7998C-1.39554 37.7064 2.9147 23.5672 5.22626 19.859C7.53783 16.1507 14.1823 11.5017 17.8425 13.7507C21.5026 15.9998 18.947 19.859 26.0001 19.859C33.0532 19.859 44.3621 -0.920172 53.6101 9.15234C62.8581 19.2248 62.6446 43.3934 36.0835 45.043Z" fill="white"/>
</mask>
<g mask="url(#mask0_6193_43107)">
<path fill-rule="evenodd" clip-rule="evenodd" d="M8.48759 24.3232L49.0813 20.7717C49.9757 20.6934 50.7642 21.3557 50.8425 22.2509L51.9865 35.3264C52.0648 36.2216 51.4033 37.0108 50.5089 37.089L9.91518 40.6405C9.02079 40.7187 8.23225 40.0565 8.15393 39.1612L7.00998 26.0858C6.93166 25.1906 7.59321 24.4014 8.48759 24.3232Z" fill="white"/>
<rect x="28.1514" y="38.9365" width="4.2266" height="22.1288" transform="rotate(-5 28.1514 38.9365)" fill="#576581"/>
<rect x="28.1514" y="38.9365" width="4.2266" height="1.84407" transform="rotate(-5 28.1514 38.9365)" fill="#010102"/>
<path fill-rule="evenodd" clip-rule="evenodd" d="M9.34774 25.4459L48.43 22.0267C49.0859 21.9693 49.6641 22.4549 49.7216 23.1114L50.7426 34.7821C50.8 35.4386 50.3149 36.0173 49.659 36.0747L10.5768 39.4939C9.9209 39.5513 9.34264 39.0656 9.2852 38.4092L8.26415 26.7385C8.20672 26.082 8.69185 25.5033 9.34774 25.4459Z" fill="#37B4B4"/>
<rect x="10.1279" y="26.9023" width="37.931" height="11.0644" transform="rotate(-5 10.1279 26.9023)" fill="white"/>
<path fill-rule="evenodd" clip-rule="evenodd" d="M42.3766 30.313C42.5273 30.4079 42.6114 30.5555 42.6289 30.7559C42.645 30.9397 42.5869 31.089 42.4545 31.2039C42.3222 31.3188 42.1301 31.3873 41.8782 31.4093C41.2 31.4686 40.8361 31.2143 40.7864 30.6463L39.7233 30.7393C39.7524 31.0716 39.8633 31.3564 40.0561 31.5937C40.2488 31.8309 40.514 32.0078 40.8517 32.1243C41.1893 32.2408 41.5559 32.2818 41.9515 32.2472C42.5213 32.1973 42.9635 32.031 43.278 31.7482C43.5926 31.4653 43.7304 31.1012 43.6914 30.6558C43.6563 30.2551 43.4893 29.9325 43.1903 29.6879C42.8913 29.4433 42.4325 29.2567 41.8138 29.128C41.4779 29.0576 41.2208 28.9732 41.0425 28.8748C40.8642 28.7764 40.7678 28.6436 40.7532 28.4762C40.7375 28.2971 40.7967 28.1465 40.9307 28.0243C41.0648 27.9022 41.2613 27.8297 41.5203 27.8071C41.7887 27.7836 42.0028 27.8308 42.1626 27.9486C42.3224 28.0664 42.4126 28.2432 42.4332 28.4789L43.4928 28.3862C43.4658 28.0774 43.3622 27.8086 43.182 27.5798C43.0019 27.3509 42.7623 27.1825 42.4634 27.0745C42.1645 26.9664 41.8314 26.9285 41.464 26.9606C41.0991 26.9926 40.7754 27.0826 40.4929 27.2308C40.2105 27.379 40.0005 27.569 39.863 27.8007C39.7255 28.0324 39.6689 28.2873 39.6933 28.5654C39.7401 29.1004 40.0693 29.5003 40.6808 29.765C40.9052 29.8617 41.2063 29.9535 41.584 30.0404C41.9618 30.1273 42.2259 30.2182 42.3766 30.313ZM18.5571 29.036L17.7303 33.009L16.2331 29.2393L15.057 29.3422L17.2909 34.3334L18.3964 34.2367L19.7368 28.9328L18.5571 29.036ZM21.8177 33.9374L22.8773 33.8447L22.427 28.6974L21.3674 28.7901L21.8177 33.9374ZM25.9239 32.7196L28.1738 32.5228L28.2483 33.3748L24.9388 33.6643L24.4885 28.517L25.5481 28.4243L25.9239 32.7196ZM33.1703 32.0857L30.9205 32.2825L30.5447 27.9872L29.4851 28.0799L29.9354 33.2272L33.2449 32.9376L33.1703 32.0857ZM37.8308 30.2886L35.7964 30.4666L35.917 31.8453L38.3046 31.6365L38.3792 32.4884L34.932 32.79L34.4816 27.6428L37.9218 27.3418L37.9969 28.2008L35.6164 28.4091L35.7237 29.6358L37.7581 29.4578L37.8308 30.2886Z" fill="#010102"/>
</g>
<path fill-rule="evenodd" clip-rule="evenodd" d="M29.1279 46.7291L33.3417 46.4365L33.6029 48.9873C33.6029 48.9873 33.6127 49.0344 33.5862 49.0845C33.5597 49.1347 33.4647 49.1451 33.4647 49.1451L29.4279 49.5138C29.4279 49.5138 29.3757 49.4988 29.3492 49.4775C29.3227 49.4561 29.2994 49.3875 29.2994 49.3875L29.1279 46.7291Z" fill="#7A87A1"/>
</svg>
