<svg width="55" height="48" viewBox="0 0 55 48" fill="none" xmlns="http://www.w3.org/2000/svg">
<path d="M19.5471 0.124735C25.5419 -0.517104 29.1882 1.06915 33.0184 10.7851C36.8486 20.501 45.747 25.2356 52.6806 31.9238C59.6142 38.6121 51.3024 53.0873 23.6886 45.8497C-3.92519 38.6121 -0.536739 28.1753 1.01388 26.2591C2.5645 24.3429 8.81203 20.1636 8.81203 13.3768C8.81203 6.58988 13.5523 0.766574 19.5471 0.124735Z" fill="#C3E9E9"/>
<path fill-rule="evenodd" clip-rule="evenodd" d="M19.6808 36.1445V34.1357H14.3564V36.1445L17.0186 38.4401L19.6808 36.1445Z" fill="#E6AF78"/>
<path fill-rule="evenodd" clip-rule="evenodd" d="M24.0894 37.3572L20.4151 36.4427C20.3596 36.4289 20.3085 36.4055 20.2609 36.3771L17.2849 38.2133L14.4248 36.2881C14.3507 36.3619 14.2589 36.4166 14.1545 36.4426L10.4802 37.3571C9.94365 37.4908 9.56445 37.9972 9.56445 38.5802V41.0403C9.56445 41.3872 9.83032 41.6685 10.1584 41.6685H24.4113C24.7392 41.6685 25.0052 41.3873 25.0052 41.0403V38.5802C25.0051 37.9973 24.626 37.4908 24.0894 37.3572Z" fill="#EFF2FA"/>
<path fill-rule="evenodd" clip-rule="evenodd" d="M14.3564 34.1357V36.0395C17.7101 37.0924 19.6808 34.4572 19.6808 34.4572V34.1357H14.3564Z" fill="#D29B6E"/>
<path fill-rule="evenodd" clip-rule="evenodd" d="M13.292 27.1417L13.5597 33.036C13.5848 33.5866 13.8545 34.0972 14.295 34.428L15.5651 35.3814C15.8842 35.6209 16.2722 35.7503 16.671 35.7503H17.8997C18.2984 35.7503 18.6865 35.6208 19.0055 35.3814L20.2756 34.428C20.7162 34.0972 20.9859 33.5866 21.0109 33.036L21.2786 27.1416H13.292V27.1417Z" fill="#F0C087"/>
<path fill-rule="evenodd" clip-rule="evenodd" d="M16.2744 28.3714C17.4673 28.3714 19.2568 28.064 19.6813 27.1416H13.292L13.5519 33.0359C13.5762 33.5866 13.8381 34.0972 14.2658 34.4279L15.499 35.3814C15.8087 35.6209 16.1854 35.7503 16.5726 35.7503H17.1691C16.5726 35.7503 15.3796 34.5205 15.3796 32.9832C15.3796 32.2314 15.3796 30.2161 15.3796 29.2937C15.3797 28.9862 15.6779 28.3714 16.2744 28.3714Z" fill="#E6AF78"/>
<path fill-rule="evenodd" clip-rule="evenodd" d="M22.7887 39.6806L24.7026 37.9629C24.8629 38.1658 24.957 38.4211 24.957 38.6944V41.0056C24.957 41.3316 24.6926 41.5959 24.3663 41.5959H22.2988V40.7783C22.2988 40.3595 22.4769 39.9604 22.7887 39.6806Z" fill="#E4EAF6"/>
<path fill-rule="evenodd" clip-rule="evenodd" d="M11.7679 39.6806L9.85406 37.9629C9.6937 38.1658 9.59961 38.4211 9.59961 38.6944V41.0056C9.59961 41.3316 9.86406 41.5959 10.1903 41.5959H12.2578V40.7783C12.2579 40.3595 12.0798 39.9604 11.7679 39.6806Z" fill="#E4EAF6"/>
<path fill-rule="evenodd" clip-rule="evenodd" d="M18.0836 41.6687H16.4863L16.686 38.9785H17.884L18.0836 41.6687Z" fill="#5B5D6E"/>
<path fill-rule="evenodd" clip-rule="evenodd" d="M18.0836 38.4404H16.4863V38.6477C16.4863 39.1276 16.8327 39.5165 17.2601 39.5165H17.3097C17.7371 39.5165 18.0835 39.1276 18.0835 38.6477V38.4404H18.0836V38.4404Z" fill="#515262"/>
<path fill-rule="evenodd" clip-rule="evenodd" d="M14.2083 35.8683L17.0123 38.25C17.0123 38.25 16.227 38.6242 15.2579 39.3782C15.058 39.5338 14.7556 39.4707 14.6484 39.2481L13.3311 36.5128L13.7478 35.9228C13.8516 35.776 14.0692 35.7502 14.2083 35.8683Z" fill="#E4EAF6"/>
<path fill-rule="evenodd" clip-rule="evenodd" d="M19.8167 35.8683L17.0127 38.25C17.0127 38.25 17.798 38.6242 18.7671 39.3782C18.967 39.5338 19.2693 39.4707 19.3766 39.2481L20.6939 36.5128L20.2772 35.9228C20.1734 35.776 19.9557 35.7502 19.8167 35.8683Z" fill="#E4EAF6"/>
<path fill-rule="evenodd" clip-rule="evenodd" d="M19.1484 25.1874L19.4008 27.3001C20.5529 27.5731 20.7189 29.7147 20.7428 30.3265C20.7472 30.4375 20.7771 30.5447 20.8279 30.6381L21.2675 31.4458C21.2675 31.4458 21.117 30.1103 21.806 29.2135C21.8059 29.2134 22.0424 23.9118 19.1484 25.1874Z" fill="#785550"/>
<path fill-rule="evenodd" clip-rule="evenodd" d="M21.2626 31.6002L20.9725 32.8154C20.9382 32.9594 20.8146 33.0604 20.6729 33.0604C20.5171 33.0604 20.3858 32.9389 20.3664 32.7771L20.218 31.5342C20.1784 31.2018 20.4259 30.9082 20.7457 30.9082H20.7468C21.0926 30.9083 21.3465 31.2487 21.2626 31.6002Z" fill="#F0C087"/>
<path fill-rule="evenodd" clip-rule="evenodd" d="M13.4188 24.7248L13.8541 25.0418C11.886 26.5913 12.2538 29.249 12.2538 29.249C12.8424 29.8766 12.8424 31.4457 12.8424 31.4457L13.4311 30.818C13.4311 30.818 13.2039 29.005 14.3141 28.3075C15.3442 27.6603 16.2455 27.9937 17.1652 27.9937C19.63 27.9937 20.3198 27.0032 20.2003 25.797C20.1384 25.1728 19.2434 23.8728 16.9628 23.914C16.0424 23.9307 14.314 24.2278 13.4188 24.7248Z" fill="#694B4B"/>
<path fill-rule="evenodd" clip-rule="evenodd" d="M13.3133 27.6886C13.3133 27.6886 12.9803 26.3636 13.9597 24.9893C11.8639 26.5515 12.2556 29.231 12.2556 29.231C12.8824 29.8638 12.8824 31.4458 12.8824 31.4458L13.5093 30.8129C13.5093 30.8129 13.2673 28.985 14.4495 28.2818C15.5465 27.6292 16.5063 27.9654 17.4857 27.9654C17.9125 27.9654 18.2846 27.9365 18.6158 27.887C16.5943 27.9556 15.4027 26.4098 13.3133 27.6886Z" fill="#5A4146"/>
<path fill-rule="evenodd" clip-rule="evenodd" d="M13.3081 31.6002L13.5982 32.8154C13.6326 32.9594 13.7561 33.0604 13.8979 33.0604C14.0537 33.0604 14.185 32.9389 14.2043 32.7771L14.3527 31.5342C14.3923 31.2018 14.1449 30.9082 13.8251 30.9082H13.824C13.4781 30.9083 13.2242 31.2487 13.3081 31.6002Z" fill="#E6AF78"/>
<path fill-rule="evenodd" clip-rule="evenodd" d="M20.6859 41.1299H19.2069C18.8802 41.1299 18.6152 41.3707 18.6152 41.6679H21.2774C21.2774 41.3707 21.0126 41.1299 20.6859 41.1299Z" fill="#E4EAF6"/>
<path fill-rule="evenodd" clip-rule="evenodd" d="M36.2814 24.5117C30.3012 24.5117 30.9643 31.8702 30.9915 37.2027C30.9926 37.4041 31.0968 37.5857 31.2673 37.6896C31.93 38.0939 33.75 39.0389 36.2814 39.0389C38.8129 39.0389 40.6328 38.0939 41.2955 37.6896C41.466 37.5857 41.5703 37.4041 41.5713 37.2027C41.5986 31.8703 42.2616 24.5117 36.2814 24.5117Z" fill="#694B4B"/>
<path fill-rule="evenodd" clip-rule="evenodd" d="M35.9581 24.5117C30.326 24.8276 30.9646 31.9815 30.9916 37.2008C30.9926 37.4023 31.0982 37.5842 31.2708 37.6882C31.9419 38.0929 33.7849 39.0389 36.3483 39.0389L37.8787 28.3234" fill="#5A4146"/>
<path fill-rule="evenodd" clip-rule="evenodd" d="M35.6948 24.5117C32.26 24.5117 32.0215 28.6691 32.0215 28.6691C34.0012 28.3346 35.2177 29.1708 37.2213 28.3346L35.6948 39.0389C38.2519 39.0389 40.0901 38.0939 40.7595 37.6896C40.9317 37.5857 41.0371 37.4041 41.0381 37.2027C41.0656 31.8703 41.7354 24.5117 35.6948 24.5117Z" fill="#694B4B"/>
<path fill-rule="evenodd" clip-rule="evenodd" d="M41.5724 36.9885C41.5954 32.5322 42.0754 26.6252 38.4858 25.0498C38.4232 25.3758 38.3098 26.2859 38.6045 26.8766C39.3464 28.3639 40.0883 28.3639 40.8301 29.4793C41.572 33.5691 39.4126 37.91 38.6954 38.5009C39.9661 38.1979 40.877 37.7187 41.3016 37.4621C41.469 37.361 41.5714 37.1844 41.5724 36.9885Z" fill="#785550"/>
<path fill-rule="evenodd" clip-rule="evenodd" d="M42.4798 38.3487L38.9865 36.9156C38.6947 36.7959 38.5046 36.5152 38.5046 36.2039V35.2725H34.5896V36.2039C34.5896 36.5152 34.3996 36.7959 34.1078 36.9156L30.6144 38.3487C30.1767 38.5283 29.8916 38.9492 29.8916 39.4161V40.958C29.8916 41.3838 30.2422 41.729 30.6746 41.729H42.4195C42.852 41.729 43.2026 41.3838 43.2026 40.958V39.4161C43.2026 38.9492 42.9175 38.5283 42.4798 38.3487Z" fill="#E6AF78"/>
<path fill-rule="evenodd" clip-rule="evenodd" d="M42.4798 38.6763L39.1021 37.4248L36.5471 38.4054L33.9921 37.4248L30.6144 38.6763C30.1767 38.8384 29.8916 39.2186 29.8916 39.6403V41.0329C29.8916 41.4174 30.2422 41.7292 30.6746 41.7292H42.4195C42.852 41.7292 43.2026 41.4174 43.2026 41.0329V39.6403C43.2025 39.2186 42.9174 38.8384 42.4798 38.6763Z" fill="#B4E1FA"/>
<path fill-rule="evenodd" clip-rule="evenodd" d="M37.8789 34.7344H34.083V35.6915C34.083 36.0113 33.8988 36.2998 33.6159 36.4228L33.0869 36.6528C37.1351 37.73 37.8789 34.7344 37.8789 34.7344Z" fill="#D29B6E"/>
<path fill-rule="evenodd" clip-rule="evenodd" d="M31.8331 39.6141L30.2745 38.2881C30.0656 38.5165 29.9404 38.8254 29.9404 39.1575V40.8188C29.9404 41.2776 30.2882 41.6495 30.7171 41.6495H32.2704V40.5871C32.2703 40.2085 32.1094 39.8505 31.8331 39.6141Z" fill="#A0D2F0"/>
<path fill-rule="evenodd" clip-rule="evenodd" d="M43.1433 40.8185V39.1572C43.1433 38.8276 43.0202 38.5208 42.8143 38.293L41.2506 39.6137C40.9743 39.8502 40.8135 40.2082 40.8135 40.5866V41.6491H42.3667C42.7956 41.6491 43.1433 41.2772 43.1433 40.8185Z" fill="#A0D2F0"/>
<path fill-rule="evenodd" clip-rule="evenodd" d="M36.5999 40.8191H36.4834C36.3011 40.8191 36.1533 40.661 36.1533 40.466V37.6855H36.93V40.466C36.9299 40.661 36.7822 40.8191 36.5999 40.8191Z" fill="#A0D2F0"/>
<path fill-rule="evenodd" clip-rule="evenodd" d="M36.5421 37.6842L34.3196 35.9015C34.1769 35.787 33.9737 35.8242 33.8747 35.9829L33.4355 36.6874L34.7981 38.7277C34.9017 38.8828 35.1058 38.9131 35.2449 38.7941L36.5421 37.6842Z" fill="#A0D2F0"/>
<path fill-rule="evenodd" clip-rule="evenodd" d="M36.542 37.6842L38.7645 35.9015C38.9072 35.787 39.1104 35.8242 39.2093 35.9829L39.6485 36.6874L38.286 38.7277C38.1824 38.8828 37.9782 38.9131 37.8391 38.7941L36.542 37.6842Z" fill="#A0D2F0"/>
<path fill-rule="evenodd" clip-rule="evenodd" d="M38.1378 27.7402C36.2529 29.6112 32.5537 28.1145 32.5537 31.108L32.7878 33.313C32.8329 33.8063 33.121 34.2455 33.5572 34.486L35.7036 35.6696C36.0452 35.858 36.4605 35.858 36.802 35.6696L38.9485 34.486C39.3847 34.2455 39.6727 33.8063 39.7179 33.313L39.9881 30.6942C40.0073 30.5081 40.0114 30.3208 40.0051 30.134C39.8641 29.1815 38.5147 28.4886 38.1378 27.7402Z" fill="#F0C087"/>
<path fill-rule="evenodd" clip-rule="evenodd" d="M32.5537 31.1101L32.7906 33.3165C32.8363 33.8101 33.1279 34.2495 33.5694 34.4902L35.7422 35.6745C35.9821 35.8053 36.2572 35.8391 36.5191 35.7884C36.5191 35.7884 35.4237 35.4626 34.7718 33.731C34.572 33.2005 34.2948 30.3924 34.5333 30.0492C35.0047 29.3708 37.6337 29.3003 38.4105 28.0419C38.3722 27.9951 38.3368 27.9483 38.3044 27.9015C38.3019 27.8977 38.2987 27.8939 38.296 27.8901C38.2623 27.8402 38.2317 27.7903 38.2061 27.7402C36.2982 29.6124 32.5537 28.1147 32.5537 31.1101Z" fill="#E6AF78"/>
<path fill-rule="evenodd" clip-rule="evenodd" d="M38.8721 41.1914H37.9492C37.6159 41.1914 37.3457 41.3962 37.3457 41.6487V41.7294H39.4755V41.6487C39.4755 41.3962 39.2053 41.1914 38.8721 41.1914Z" fill="#A0D2F0"/>
<path fill-rule="evenodd" clip-rule="evenodd" d="M31.0871 5.97754H45.4349C46.7501 5.97754 47.8262 7.12348 47.8262 8.52399V17.4367C47.8262 18.8372 46.7501 19.9831 45.4349 19.9831H37.6631V22.3977C37.6631 22.6814 37.3411 22.8233 37.1529 22.6228L34.674 19.9832H31.087C29.7718 19.9832 28.6957 18.8372 28.6957 17.4367V8.52399C28.6958 7.12348 29.7718 5.97754 31.0871 5.97754Z" fill="#C7CFE2"/>
<path fill-rule="evenodd" clip-rule="evenodd" d="M44.8726 14.347H36.4328C36.1218 14.347 35.8701 14.0793 35.8701 13.7492C35.8701 13.4191 36.1218 13.1514 36.4328 13.1514H44.8727C45.1836 13.1514 45.4353 13.4191 45.4353 13.7492C45.4353 14.0794 45.1836 14.347 44.8726 14.347Z" fill="#959CB3"/>
<path fill-rule="evenodd" clip-rule="evenodd" d="M44.8369 16.7386H31.6848C31.3543 16.7386 31.0869 16.4709 31.0869 16.1408C31.0869 15.8107 31.3543 15.543 31.6848 15.543H44.8369C45.1673 15.543 45.4347 15.8107 45.4347 16.1408C45.4347 16.4709 45.1673 16.7386 44.8369 16.7386Z" fill="#959CB3"/>
<path fill-rule="evenodd" clip-rule="evenodd" d="M44.8727 9.56382H36.4328C36.1218 9.56382 35.8701 9.29612 35.8701 8.96599C35.8701 8.63586 36.1218 8.36816 36.4328 8.36816H44.8727C45.1836 8.36816 45.4353 8.63586 45.4353 8.96599C45.4353 9.29612 45.1836 9.56382 44.8727 9.56382Z" fill="#959CB3"/>
<path fill-rule="evenodd" clip-rule="evenodd" d="M44.8369 11.9564H31.6848C31.3543 11.9564 31.0869 11.6887 31.0869 11.3586C31.0869 11.0284 31.3543 10.7607 31.6848 10.7607H44.8369C45.1673 10.7607 45.4347 11.0284 45.4347 11.3586C45.4347 11.6887 45.1673 11.9564 44.8369 11.9564Z" fill="#959CB3"/>
<path fill-rule="evenodd" clip-rule="evenodd" d="M23.9129 5.97754H9.56511C8.24987 5.97754 7.17383 7.12348 7.17383 8.52399V17.4367C7.17383 18.8372 8.24994 19.9831 9.56511 19.9831H17.3369V22.3977C17.3369 22.6814 17.6589 22.8233 17.8471 22.6228L20.326 19.9832H23.913C25.2282 19.9832 26.3043 18.8372 26.3043 17.4367V8.52399C26.3042 7.12348 25.2282 5.97754 23.9129 5.97754Z" fill="#E4EAF6"/>
<path fill-rule="evenodd" clip-rule="evenodd" d="M18.5669 14.347H10.1271C9.81616 14.347 9.56445 14.0793 9.56445 13.7492C9.56445 13.4191 9.81609 13.1514 10.1271 13.1514H18.567C18.878 13.1514 19.1297 13.4191 19.1297 13.7492C19.1296 14.0794 18.878 14.347 18.5669 14.347Z" fill="#C7CFE2"/>
<path fill-rule="evenodd" clip-rule="evenodd" d="M23.3144 16.7386H10.1623C9.83189 16.7386 9.56445 16.4709 9.56445 16.1408C9.56445 15.8107 9.83182 15.543 10.1623 15.543H23.3144C23.6448 15.543 23.9123 15.8107 23.9123 16.1408C23.9122 16.4709 23.6448 16.7386 23.3144 16.7386Z" fill="#C7CFE2"/>
<path fill-rule="evenodd" clip-rule="evenodd" d="M18.567 9.56382H10.1271C9.81616 9.56382 9.56445 9.29612 9.56445 8.96599C9.56445 8.63586 9.81609 8.36816 10.1271 8.36816H18.567C18.878 8.36816 19.1297 8.63586 19.1297 8.96599C19.1297 9.29612 18.878 9.56382 18.567 9.56382Z" fill="#C7CFE2"/>
<path fill-rule="evenodd" clip-rule="evenodd" d="M23.3144 11.9564H10.1623C9.83189 11.9564 9.56445 11.6887 9.56445 11.3586C9.56445 11.0284 9.83182 10.7607 10.1623 10.7607H23.3144C23.6448 10.7607 23.9123 11.0284 23.9123 11.3586C23.9122 11.6887 23.6448 11.9564 23.3144 11.9564Z" fill="#C7CFE2"/>
</svg>
