<svg width="60" height="60" viewBox="0 0 60 60" fill="none" xmlns="http://www.w3.org/2000/svg">
<path d="M36.0835 45.043C9.52238 46.6927 9.8883 47.8932 4.24638 42.7998C-1.39554 37.7064 2.9147 23.5672 5.22626 19.859C7.53783 16.1507 14.1823 11.5017 17.8425 13.7507C21.5026 15.9998 18.947 19.859 26.0001 19.859C33.0532 19.859 44.3621 -0.920172 53.6101 9.15234C62.8582 19.2248 62.6446 43.3934 36.0835 45.043Z" fill="#C3E9E9"/>
<mask id="mask0_6193_43235" style="mask-type:alpha" maskUnits="userSpaceOnUse" x="1" y="6" width="59" height="41">
<path d="M36.0835 45.043C9.52238 46.6927 9.8883 47.8932 4.24638 42.7998C-1.39554 37.7064 2.9147 23.5672 5.22626 19.859C7.53783 16.1507 14.1823 11.5017 17.8425 13.7507C21.5026 15.9998 18.947 19.859 26.0001 19.859C33.0532 19.859 44.3621 -0.920172 53.6101 9.15234C62.8582 19.2248 62.6446 43.3934 36.0835 45.043Z" fill="white"/>
</mask>
<g mask="url(#mask0_6193_43235)">
<path fill-rule="evenodd" clip-rule="evenodd" d="M24.4654 24.1698V47.0986L15.0154 47.6938V49.245L24.4606 51.2762H24.4654V54.061L12.749 51.5402V21.7686L24.4654 24.1698Z" fill="#FFFFFE"/>
<path fill-rule="evenodd" clip-rule="evenodd" d="M36.1774 21.7686V23.3006L24.4658 25.7014V24.1698L36.1774 21.7686Z" fill="#F5F8F6"/>
<path fill-rule="evenodd" clip-rule="evenodd" d="M36.1774 24.2948V48.7552L35.9754 48.7988L24.4658 51.2764V26.6812L24.6578 26.6428L31.3806 25.2644L33.445 24.8372L36.1486 24.2852L36.1774 24.2948Z" fill="#B2A8A4"/>
<path fill-rule="evenodd" clip-rule="evenodd" d="M44.4792 50.5796L36.3688 48.9184L36.1768 48.88V37.6484L44.4792 50.5796Z" fill="#D2C7BF"/>
<path fill-rule="evenodd" clip-rule="evenodd" d="M45.6224 26.3164V47.9968L36.1768 32.9956V24.2852L45.6224 26.3164Z" fill="#D2C7BF"/>
<path fill-rule="evenodd" clip-rule="evenodd" d="M47.8932 24.1698V54.061L36.1768 51.5402V48.8802L36.3688 48.9186L44.4792 50.5798L36.1768 37.6486V32.9954L45.6224 47.9966V26.3162L36.1768 24.285V21.7686L47.8932 24.1698Z" fill="#FFFFFE"/>
<path fill-rule="evenodd" clip-rule="evenodd" d="M15.0151 24.7457L24.2679 26.6425L24.4651 26.6809V25.7013L14.0547 23.5693V50.0225L24.4651 52.2605V51.2761H24.4603L15.0151 49.2449V24.7457Z" fill="#FFFFFE"/>
<path fill-rule="evenodd" clip-rule="evenodd" d="M36.1774 23.3008V24.2948L36.1486 24.2852L24.6578 26.6428L24.4658 26.6812V25.7016L36.1774 23.3008Z" fill="#F5F8F6"/>
<path fill-rule="evenodd" clip-rule="evenodd" d="M46.5824 25.5384V51.9916L36.1768 49.8596V48.8804L36.3688 48.9188L44.4792 50.58L45.6224 50.8156V26.3164L36.1768 24.2852V23.3008L46.5824 25.5384Z" fill="#FFFFFE"/>
<path fill-rule="evenodd" clip-rule="evenodd" d="M45.6224 47.9963V50.8151L44.4792 50.5795L36.1768 37.6483V32.9951L45.6224 47.9963Z" fill="#FFFFFE"/>
<path fill-rule="evenodd" clip-rule="evenodd" d="M36.1768 32.9953V37.6485L31.6348 25.2113L33.4444 24.8369L36.1768 32.9953Z" fill="#F5F8F6"/>
<path fill-rule="evenodd" clip-rule="evenodd" d="M36.1774 37.6484L24.4658 47.0984V44.5772L35.469 35.708L36.1774 37.6484Z" fill="#F5F8F6"/>
<path fill-rule="evenodd" clip-rule="evenodd" d="M24.4652 44.5771V47.0983L15.0152 47.6935L14.9092 47.6987V45.2159L15.0152 45.2111L24.4652 44.5771Z" fill="#FFFFFE"/>
<path fill-rule="evenodd" clip-rule="evenodd" d="M35.4666 35.7081L24.4658 44.5769V26.6805L31.635 25.2109L35.4666 35.7081Z" fill="#D0D955"/>
<path fill-rule="evenodd" clip-rule="evenodd" d="M24.4656 26.6813V44.5777L15.0156 45.2117V24.7461L24.4656 26.6813Z" fill="#E2E78C"/>
</g>
<path fill-rule="evenodd" clip-rule="evenodd" d="M28.0004 23.1998C24.9071 23.1998 22.4004 20.692 22.4004 17.6005C22.4004 14.5076 24.9071 11.9998 28.0004 11.9998C31.0936 11.9998 33.6004 14.5076 33.6004 17.6005C33.6004 20.692 31.0936 23.1998 28.0004 23.1998ZM38.0004 18.5117C38.0004 13.1484 33.6127 8.7998 28.1997 8.7998C22.7881 8.7998 18.4004 13.1484 18.4004 18.5117C18.4004 20.6475 19.1037 22.614 20.2814 24.2165H20.2687L20.4537 24.4447C20.5512 24.5706 20.65 24.6966 20.7545 24.8184L28.194 33.9998L35.5488 24.9233C35.7423 24.705 35.9259 24.4783 36.0996 24.2431L36.1207 24.2165H36.1193C37.2971 22.614 38.0004 20.6475 38.0004 18.5117Z" fill="#37B4B4"/>
<path fill-rule="evenodd" clip-rule="evenodd" d="M28.4 13.1996C25.754 13.1996 23.6 15.3533 23.6 18.0003C23.6 20.6459 25.754 22.7996 28.4 22.7996C31.0474 22.7996 33.2 20.6459 33.2 18.0003C33.2 15.3533 31.0474 13.1996 28.4 13.1996ZM28.2 23.9996C24.781 23.9996 22 21.2175 22 17.8003C22 14.3817 24.781 11.5996 28.2 11.5996C31.619 11.5996 34.4 14.3817 34.4 17.8003C34.4 21.2175 31.619 23.9996 28.2 23.9996Z" fill="#37B4B4"/>
</svg>
