<svg width="23" height="24" viewBox="0 0 23 24" fill="none" xmlns="http://www.w3.org/2000/svg">
<g clip-path="url(#clip0_3858_21786)">
<path d="M16.6487 4.08292V1.0307H6.22656V4.08292C6.22656 7.05526 7.53964 9.60507 9.41071 10.6937C9.83069 10.938 10.0984 11.4286 10.0984 11.9691V12.031C10.0984 12.5715 9.83069 13.0621 9.41071 13.3064C7.53964 14.395 6.22656 16.9448 6.22656 19.9171V22.9694H16.6487V19.9171C16.6487 16.9448 15.3356 14.395 13.4646 13.3064C13.0446 13.0621 12.7768 12.5715 12.7768 12.031V11.9691C12.7768 11.4286 13.0446 10.938 13.4646 10.6937C15.3356 9.60507 16.6487 7.05526 16.6487 4.08292Z" fill="#EAF6FF"/>
<path d="M13.464 10.6937C15.3351 9.60507 16.6482 7.05526 16.6482 4.08292V1.0307H15.4705V4.08292C15.4705 7.05526 14.1574 9.60507 12.2864 10.6937C11.8664 10.938 11.5986 11.4286 11.5986 11.9691V12.0309C11.5986 12.5715 11.8664 13.0621 12.2864 13.3064C14.1574 14.3949 15.4705 16.9448 15.4705 19.9171V22.9693H16.6482V19.9171C16.6482 16.9448 15.3351 14.3949 13.464 13.3064C13.044 13.0621 12.7763 12.5714 12.7763 12.0309V11.9691C12.7763 11.4286 13.044 10.938 13.464 10.6937Z" fill="#D8ECFE"/>
<path d="M11.378 9.58505C12.3091 9.56354 13.1976 9.03324 13.8859 8.08571C14.4292 7.33777 14.7992 6.40571 14.9688 5.383H7.78711C7.9567 6.40571 8.32674 7.33777 8.87003 8.08571C9.55831 9.03324 10.4469 9.56354 11.378 9.58505Z" fill="#FCCD7F"/>
<path d="M16.0599 3.11716V1.30249H6.22656V3.65252H15.471L16.0599 3.11716Z" fill="#D8ECFE"/>
<path d="M15.4707 1.30249H16.6483V3.65257H15.4707V1.30249Z" fill="#C4E2FF"/>
<path d="M17.5096 1.92183V1.13133C17.5096 0.700687 17.2054 0.351562 16.8303 0.351562H5.80915C5.43399 0.351562 5.12988 0.700687 5.12988 1.13133V1.92183C5.12988 2.35247 5.43399 2.70159 5.80915 2.70159H16.8303C17.2054 2.70164 17.5096 2.35252 17.5096 1.92183Z" fill="#AA6A51"/>
<path d="M17.0653 0.351562H15.8877C16.2628 0.351562 16.567 0.700687 16.567 1.13133V1.92183C16.567 2.35247 16.2628 2.70159 15.8877 2.70159H17.0653C17.4405 2.70159 17.7446 2.35247 17.7446 1.92183V1.13133C17.7446 0.700687 17.4405 0.351562 17.0653 0.351562Z" fill="#935B44"/>
<path d="M14.004 17.6123C13.3012 16.9105 12.3896 16.5239 11.4371 16.5239C10.4847 16.5239 9.57307 16.9105 8.87029 17.6123C8.10378 18.3778 7.68164 19.4091 7.68164 20.516V21.2983V21.9609H15.1926V21.2983V20.516C15.1926 19.4091 14.7705 18.3778 14.004 17.6123Z" fill="#FCCD7F"/>
<path d="M17.5092 22.8687V22.0782C17.5092 21.6475 17.2051 21.2985 16.8299 21.2985H5.69098C5.31583 21.2985 5.01172 21.6476 5.01172 22.0782V22.8687C5.01172 23.2994 5.31583 23.6485 5.69098 23.6485H16.8299C17.2051 23.6485 17.5092 23.2994 17.5092 22.8687Z" fill="#AA6A51"/>
<path d="M17.6273 22.8687V22.0782C17.6273 21.6475 17.3232 21.2985 16.948 21.2985H5.80915C5.43399 21.2985 5.12988 21.6476 5.12988 22.0782V22.8687C5.12988 23.2994 5.43399 23.6485 5.80915 23.6485H16.9481C17.3232 23.6485 17.6273 23.2994 17.6273 22.8687Z" fill="#AA6A51"/>
<path d="M17.5092 22.8687V22.0782C17.5092 21.6475 17.2051 21.2985 16.8299 21.2985H5.69098C5.31583 21.2985 5.01172 21.6476 5.01172 22.0782V22.8687C5.01172 23.2994 5.31583 23.6485 5.69098 23.6485H16.8299C17.2051 23.6485 17.5092 23.2994 17.5092 22.8687Z" fill="#AA6A51"/>
<path d="M17.5092 22.8687V22.0782C17.5092 21.6475 17.2051 21.2985 16.8299 21.2985H5.69098C5.31583 21.2985 5.01172 21.6476 5.01172 22.0782V22.8687C5.01172 23.2994 5.31583 23.6485 5.69098 23.6485H16.8299C17.2051 23.6485 17.5092 23.2994 17.5092 22.8687Z" fill="#AA6A51"/>
<path d="M17.0653 21.2983H15.8877C16.2628 21.2983 16.567 21.6475 16.567 22.0781V22.8686C16.567 23.2992 16.2628 23.6484 15.8877 23.6484H17.0653C17.4405 23.6484 17.7446 23.2992 17.7446 22.8686V22.0781C17.7446 21.6475 17.4405 21.2983 17.0653 21.2983Z" fill="#935B44"/>
<path d="M14.2448 8.3086C14.816 7.52232 15.213 6.53298 15.393 5.44764C15.4291 5.22985 15.2798 5.03143 15.0867 5.03143H7.78726C7.59399 5.03143 7.44493 5.23037 7.48099 5.44764C7.66097 6.53298 8.05801 7.52227 8.62922 8.30855C9.39228 9.35911 10.3894 9.93764 11.437 9.93764C12.4846 9.93764 13.4817 9.35911 14.2448 8.3086ZM11.437 9.23452C10.5797 9.23452 9.75368 8.7474 9.11122 7.86287C8.67949 7.26863 8.35971 6.5394 8.17554 5.73456H14.6985C14.5143 6.5394 14.1946 7.26863 13.7629 7.86291C13.1203 8.7474 12.2943 9.23452 11.437 9.23452Z" fill="black"/>
<path d="M11.7482 12.222C11.7482 12.0245 11.6087 11.8643 11.4366 11.8643C11.2645 11.8643 11.125 12.0245 11.125 12.222V12.4128C11.125 12.6103 11.2645 12.7705 11.4366 12.7705C11.6087 12.7705 11.7482 12.6104 11.7482 12.4128V12.222Z" fill="black"/>
<path d="M11.7482 10.7802C11.7482 10.5827 11.6087 10.4225 11.4366 10.4225C11.2645 10.4225 11.125 10.5827 11.125 10.7802V10.971C11.125 11.1685 11.2645 11.3286 11.4366 11.3286C11.6087 11.3286 11.7482 11.1685 11.7482 10.971V10.7802Z" fill="black"/>
<path d="M11.4366 14.7482C11.2645 14.7482 11.125 14.9083 11.125 15.1059V15.2967C11.125 15.4942 11.2645 15.6544 11.4366 15.6544C11.6087 15.6544 11.7482 15.4942 11.7482 15.2967V15.1059C11.7482 14.9083 11.6087 14.7482 11.4366 14.7482Z" fill="black"/>
<path d="M11.7482 13.6639C11.7482 13.4663 11.6087 13.3062 11.4366 13.3062C11.2645 13.3062 11.125 13.4663 11.125 13.6639V13.8547C11.125 14.0522 11.2645 14.2124 11.4366 14.2124C11.6087 14.2124 11.7482 14.0522 11.7482 13.8547V13.6639Z" fill="black"/>
<path d="M16.209 5.63208C16.1771 5.82286 16.2883 6.0067 16.4574 6.0427C16.6267 6.0787 16.7895 5.95312 16.8214 5.76239C16.9862 4.77567 16.9593 4.11698 16.9593 3.05325H17.059C17.6086 3.05325 18.0558 2.54873 18.0558 1.92863V1.12472C18.0558 0.504516 17.6087 0 17.0591 0H5.81413C5.26453 0 4.81738 0.504516 4.81738 1.12462V1.92853C4.81738 2.54864 5.26453 3.05316 5.81413 3.05316H5.91393V4.08286C5.91393 7.10353 7.23004 9.82106 9.26687 11.0061C9.96197 11.4105 9.96288 12.5889 9.26687 12.9939C7.23004 14.1789 5.91393 16.8964 5.91393 19.9171V20.9468H5.81413C5.26453 20.9468 4.81738 21.4513 4.81738 22.0714V22.8753C4.81738 23.4954 5.26453 24 5.81413 24H6.36743C6.53956 24 6.67902 23.8425 6.67902 23.6484C6.67902 23.4542 6.53956 23.2968 6.36743 23.2968H5.81413C5.60815 23.2968 5.44056 23.1077 5.44056 22.8753V22.0714C5.44056 21.839 5.60815 21.6499 5.81413 21.6499H17.0591C17.2651 21.6499 17.4327 21.839 17.4327 22.0714V22.8753C17.4327 23.1077 17.2651 23.2968 17.0591 23.2968H7.82152C7.64939 23.2968 7.50993 23.4542 7.50993 23.6484C7.50993 23.8425 7.64939 24 7.82152 24H17.0591C17.6087 24 18.0558 23.4954 18.0558 22.8753V22.0714C18.0558 21.4513 17.6087 20.9468 17.0591 20.9468H16.9593V19.9171C16.9593 16.8964 15.6432 14.1789 13.6064 12.9939C12.9203 12.5948 12.9014 11.4162 13.6064 11.0061C14.8215 10.2991 15.812 9.01894 16.3955 7.40142C16.4603 7.22156 16.3837 7.01648 16.2243 6.94327C16.065 6.87009 15.8831 6.95658 15.8183 7.13639C15.2909 8.59866 14.4039 9.75098 13.3208 10.3811C12.1756 11.0475 12.175 12.9522 13.3208 13.6188C15.1526 14.6845 16.3362 17.1568 16.3362 19.9171V20.9468H15.5037V20.5161C15.5037 18.0846 13.6307 16.1723 11.4367 16.1723C9.24415 16.1723 7.36959 18.0829 7.36959 20.5161V20.9468H6.53715V19.9171C6.53715 17.1568 7.72073 14.6845 9.55254 13.6188C10.6977 12.9525 10.6984 11.0478 9.55254 10.3811C7.72073 9.31542 6.53715 6.84319 6.53715 4.08286V3.0532H16.3361C16.3361 4.11914 16.3614 4.71998 16.209 5.63208ZM7.99272 20.5161C7.99272 18.461 9.60135 16.8755 11.4366 16.8755C13.2744 16.8755 14.8805 18.4638 14.8805 20.5161V20.9468H7.99272V20.5161ZM5.81413 2.35008C5.60815 2.35008 5.44056 2.16098 5.44056 1.92858V1.12467C5.44056 0.892266 5.60815 0.703172 5.81413 0.703172H17.0591C17.2651 0.703172 17.4327 0.892266 17.4327 1.12467V1.92858C17.4327 2.16098 17.2651 2.35008 17.0591 2.35008C16.7728 2.35008 6.1133 2.35008 5.81413 2.35008Z" fill="black"/>
</g>
<defs>
<clipPath id="clip0_3858_21786">
<rect width="21.2711" height="24" fill="white" transform="translate(0.800781)"/>
</clipPath>
</defs>
</svg>
