<svg width="25" height="24" viewBox="0 0 25 24" fill="none" xmlns="http://www.w3.org/2000/svg">
<path d="M1.10744 2.93798V22.9775H14.4032V1.10311L1.10744 2.93723V2.93798ZM0.472062 1.99279L14.8744 0.0056388C15.2092 -0.0401204 15.509 0.198427 15.509 0.51049V23.4883C15.509 23.7704 15.2612 23.9992 14.9557 23.9992H0.553312C0.247813 23.9992 0 23.7704 0 23.4883V2.49764C0 2.24484 0.200687 2.02954 0.47125 1.99279H0.472062Z" fill="currentColor"/>
<path d="M6.6037 22.9583H8.80473V18.936H6.6037V22.9583ZM6.05038 17.9143H9.35805C9.66355 17.9143 9.91136 18.1431 9.91136 18.4252V23.4684C9.91136 23.7505 9.66355 23.9793 9.35805 23.9793H6.05038C5.74488 23.9793 5.49707 23.7505 5.49707 23.4684V18.4252C5.49707 18.1431 5.74488 17.9143 6.05038 17.9143Z" fill="currentColor"/>
<path d="M6.6037 14.7959H8.80473V12.7435H6.6037V14.7959ZM6.05038 11.7218H9.35805C9.66355 11.7218 9.91136 11.9506 9.91136 12.2327V15.306C9.91136 15.5881 9.66355 15.8169 9.35805 15.8169H6.05038C5.74488 15.8169 5.49707 15.5881 5.49707 15.306V12.2327C5.49707 11.9506 5.74488 11.7218 6.05038 11.7218Z" fill="currentColor"/>
<path d="M6.6037 8.66653H8.80473V6.61411H6.6037V8.66653ZM6.05038 5.59241H9.35805C9.66355 5.59241 9.91136 5.8212 9.91136 6.10326V9.17663C9.91136 9.45869 9.66355 9.68748 9.35805 9.68748H6.05038C5.74488 9.68748 5.49707 9.45869 5.49707 9.17663V6.10326C5.49707 5.8212 5.74488 5.59241 6.05038 5.59241Z" fill="currentColor"/>
<path d="M15.5099 9.20248V22.9782H23.2547V10.6915L15.5099 9.20248ZM15.0696 8.07425L23.9209 9.77634C24.1777 9.82585 24.3613 10.0344 24.3613 10.2767V23.4891C24.3613 23.7711 24.1135 23.9999 23.808 23.9999H14.9566C14.6511 23.9999 14.4033 23.7711 14.4033 23.4891V8.5746C14.4033 8.25054 14.7259 8.00824 15.0696 8.07425Z" fill="currentColor"/>
<path d="M19.8849 23.4688C19.8849 23.7508 19.6371 23.9796 19.3316 23.9796C19.0261 23.9796 18.7783 23.7508 18.7783 23.4688V20.4412C18.7783 20.1591 19.0261 19.9303 19.3316 19.9303C19.6371 19.9303 19.8849 20.1591 19.8849 20.4412V23.4688Z" fill="currentColor"/>
<path d="M19.8849 17.3272C19.8849 17.6093 19.6371 17.8381 19.3316 17.8381C19.0261 17.8381 18.7783 17.6093 18.7783 17.3272V16.2237C18.7783 15.9417 19.0261 15.7129 19.3316 15.7129C19.6371 15.7129 19.8849 15.9417 19.8849 16.2237V17.3272Z" fill="currentColor"/>
<path d="M19.8849 14.2629C19.8849 14.5449 19.6371 14.7737 19.3316 14.7737C19.0261 14.7737 18.7783 14.5449 18.7783 14.2629V13.1594C18.7783 12.8774 19.0261 12.6486 19.3316 12.6486C19.6371 12.6486 19.8849 12.8774 19.8849 13.1594V14.2629Z" fill="currentColor"/>
</svg>
