<svg width="24" height="24" viewBox="0 0 24 24" fill="none" xmlns="http://www.w3.org/2000/svg">
<path d="M6.32322 16.228V21.0894H4.28369V16.2272" fill="#C97523"/>
<path d="M5.19339 16.228V21.0894H4.28369V16.2272" fill="#A85613"/>
<path d="M5.30399 17.2948C8.03671 17.2948 10.252 13.8122 10.252 9.51608C10.252 5.22002 8.03671 1.73737 5.30399 1.73737C2.57127 1.73737 0.355957 5.22002 0.355957 9.51608C0.355957 13.8122 2.57127 17.2948 5.30399 17.2948Z" fill="#8CC928"/>
<path d="M5.30399 17.2949C2.57099 17.2949 0.355957 13.812 0.355957 9.51618C0.355957 5.22033 2.57099 1.73752 5.30399 1.73752C4.094 1.73752 3.11361 5.22037 3.11361 9.51623C3.11361 13.8121 4.094 17.2949 5.30399 17.2949Z" fill="#82B20B"/>
<path d="M21.6744 12.3584V22.2624H8.68115V12.3584L15.2145 6.02075L21.6744 12.3584Z" fill="#E9EAEF"/>
<path d="M18.4951 8.86166V7.03223H21.7435V11.9552" fill="#9EB1B7"/>
<path d="M23.6444 20.1871H15.8003V22.2625H23.6444V20.1871Z" fill="#85C10D"/>
<path d="M9.24121 20.1871H0.355957V22.2625H9.24121V20.1871Z" fill="#85C10D"/>
<path d="M21.6744 12.7472V14.5984L15.1778 8.39551L8.68115 14.5984V12.7472L14.6619 7.05123L15.1778 6.57193L15.6934 7.05123L21.6744 12.7472Z" fill="#D2D4D8"/>
<path d="M15.1777 7.36534L7.78083 14.4274L6.74658 13.5591L14.6619 6.02078L15.1777 5.54172L15.6934 6.02078L23.6088 13.5591L22.5746 14.4274L15.1777 7.36534Z" fill="#EA4756"/>
<path d="M14.5559 14.8421H10.271V22.2623H14.5559V14.8421Z" fill="#C97523"/>
<path d="M20.6795 14.8421H15.7998V19.1271H20.6795V14.8421Z" fill="#A0D9F2"/>
<path d="M20.6795 14.8421H15.7998V16.1442H20.6795V14.8421Z" fill="#C97523"/>
<path d="M15.1778 12.7229C15.8361 12.7229 16.3697 12.1893 16.3697 11.531C16.3697 10.8727 15.8361 10.3391 15.1778 10.3391C14.5195 10.3391 13.9858 10.8727 13.9858 11.531C13.9858 12.1893 14.5195 12.7229 15.1778 12.7229Z" fill="#413740"/>
<path d="M15.8006 19.4828H20.6802C20.8767 19.4828 21.0359 19.3235 21.0359 19.1271V14.842C21.0359 14.6456 20.8767 14.4863 20.6802 14.4863H15.8006C15.6041 14.4863 15.4448 14.6456 15.4448 14.842V19.1271C15.4448 19.3236 15.6041 19.4828 15.8006 19.4828ZM16.1563 18.7713V16.4999H20.3245V18.7713H16.1563ZM20.3245 15.1978V15.7884H16.1563V15.1978H20.3245Z" fill="black"/>
<path d="M23.6443 19.8314H22.0304V16.7881C22.0304 16.5916 21.8711 16.4324 21.6747 16.4324C21.4782 16.4324 21.3189 16.5916 21.3189 16.7881V19.8314H15.8C15.6036 19.8314 15.4443 19.9906 15.4443 20.1871V21.9067H14.9117V14.842C14.9117 14.6456 14.7524 14.4863 14.556 14.4863H10.2709C10.0745 14.4863 9.91519 14.6456 9.91519 14.842V21.9067H9.59681V20.1871C9.59681 19.9906 9.43753 19.8314 9.24108 19.8314H9.03703V13.7199L15.1778 7.85719L21.3189 13.7202V15.1279C21.3189 15.3244 21.4782 15.4837 21.6746 15.4837C21.8711 15.4837 22.0304 15.3244 22.0304 15.1279V14.3995L22.3291 14.6847C22.4603 14.8099 22.6646 14.8164 22.8034 14.6999L23.8299 13.8382C23.8776 13.7982 23.9172 13.7484 23.9398 13.6905C23.9943 13.5508 23.9567 13.399 23.8544 13.3015L22.0995 11.6303V7.03229C22.0995 6.83584 21.9402 6.67655 21.7438 6.67655H18.4955C18.299 6.67655 18.1397 6.83584 18.1397 7.03229V7.85916L15.9358 5.7602L15.42 5.28113C15.2836 5.15434 15.0725 5.15434 14.9358 5.28113L14.4169 5.76329L10.6062 9.3924C10.5795 6.68776 9.67823 4.17798 8.22019 2.70934C8.07567 2.56379 7.83717 2.57316 7.70194 2.72748C7.57833 2.86843 7.58611 3.0803 7.71825 3.21334C9.06844 4.57168 9.89611 6.94712 9.89611 9.51629C9.89611 9.70585 9.89039 9.89527 9.88148 10.0826L6.50147 13.3016C6.39919 13.399 6.36155 13.5508 6.41606 13.6906C6.43866 13.7485 6.47831 13.7982 6.52589 13.8382L7.55236 14.6999C7.61869 14.7556 7.69992 14.7832 7.78102 14.7832C7.8697 14.7832 7.95816 14.7502 8.02669 14.6848L8.3257 14.3994V15.0893C7.48402 16.2832 6.41428 16.9394 5.30381 16.9394C4.10822 16.9394 2.9723 16.1887 2.10525 14.8257C1.20652 13.4128 0.711516 11.5272 0.711516 9.51634C0.711516 7.50545 1.20652 5.6199 2.1053 4.20699C2.97225 2.84401 4.10822 2.09335 5.30386 2.09335C5.71913 2.09335 6.12877 2.18391 6.52547 2.36288C6.69141 2.43774 6.88711 2.37104 6.97706 2.21274V2.2127C7.08061 2.0304 7.00486 1.79832 6.81375 1.7123C6.32634 1.49284 5.82 1.38184 5.30386 1.38184C3.85631 1.38184 2.50716 2.24949 1.50502 3.82505C0.534469 5.3506 0 7.3718 0 9.51624C0 11.6607 0.534469 13.6818 1.50492 15.2075C2.18039 16.2694 3.01364 17.0092 3.92827 17.379V19.8313H2.84588V19.302C2.84588 19.1072 2.69573 18.9374 2.50106 18.9315C2.29964 18.9255 2.13441 19.087 2.13441 19.2871V19.8314H1.7032V19.3021C1.7032 19.1072 1.55306 18.9374 1.35839 18.9316C1.15697 18.9255 0.991734 19.087 0.991734 19.2871V19.8314H0.355734C0.159281 19.8314 0 19.9907 0 20.1871V22.2625C0 22.4589 0.159281 22.6182 0.355734 22.6182H9.24113C9.24145 22.6182 9.24173 22.6182 9.24202 22.6182H10.2709H14.556H15.7991C15.7994 22.6182 15.7997 22.6182 15.8 22.6182H23.6442C23.8407 22.6182 24 22.4589 24 22.2625V20.1871C24 19.9906 23.8407 19.8314 23.6443 19.8314ZM18.8512 7.38798H21.388V10.9527L18.8512 8.53674V7.38798ZM7.76578 13.9501L7.28016 13.5424L14.9043 6.28149L15.1779 6.02729L15.4484 6.27845L23.0758 13.5424L22.5901 13.9501L15.4236 7.10804C15.3548 7.04241 15.2664 7.0096 15.1779 7.0096C15.0895 7.0096 15.001 7.04241 14.9323 7.10804L7.76578 13.9501ZM8.32561 16.2141V19.8314H7.85817V19.2871C7.85817 19.0906 7.69894 18.9314 7.50244 18.9314C7.30594 18.9314 7.1467 19.0906 7.1467 19.2871V19.8314H6.67927V17.3778C7.26802 17.1389 7.82414 16.7463 8.32561 16.2141ZM4.63973 17.5888C4.85813 17.6298 5.07975 17.6506 5.30377 17.6506C5.5275 17.6506 5.74913 17.6293 5.9678 17.588V19.8313H4.63973V17.5888ZM0.711469 20.5428H4.27987C4.28123 20.5428 4.28264 20.543 4.284 20.543H6.32353C6.32489 20.543 6.3263 20.5428 6.32766 20.5428H8.88544V21.9067H8.68139V21.9067H0.711469V20.5428ZM10.6267 21.9067V15.1978H14.2003V21.9067H10.6267ZM23.2885 21.9067H21.6747V21.9067H16.1558V20.5428H23.2885V21.9067Z" fill="black"/>
<path d="M13.7116 18.1727H13.0896C12.8931 18.1727 12.7339 18.332 12.7339 18.5284C12.7339 18.7249 12.8931 18.8842 13.0896 18.8842H13.7116C13.9081 18.8842 14.0673 18.7249 14.0673 18.5284C14.0673 18.332 13.9081 18.1727 13.7116 18.1727Z" fill="black"/>
<path d="M16.7256 11.5311C16.7256 10.6776 16.0312 9.98322 15.1777 9.98322C14.3243 9.98322 13.6299 10.6776 13.6299 11.5311C13.6299 12.3846 14.3243 13.0789 15.1777 13.0789C16.0312 13.0789 16.7256 12.3846 16.7256 11.5311ZM15.1777 12.3675C14.7165 12.3675 14.3413 11.9922 14.3413 11.5311C14.3413 11.0699 14.7165 10.6947 15.1777 10.6947C15.6389 10.6947 16.0141 11.0699 16.0141 11.5311C16.0142 11.9923 15.6389 12.3675 15.1777 12.3675Z" fill="black"/>
</svg>
