<svg width="22" height="24" viewBox="0 0 22 24" fill="none" xmlns="http://www.w3.org/2000/svg">
<g clip-path="url(#clip0_3858_21755)">
<path d="M11.1006 15.756H21.0122V23.5313H11.1006V15.756Z" fill="#F9F6F5"/>
<path d="M10.127 3H18.7684V12H10.127V3Z" fill="#F9F6F5"/>
<path d="M11.1001 9.36133V23.5312H1.79395V9.36133L6.44701 5.13654L11.1001 9.36133Z" fill="#F5D996"/>
<path d="M13.1064 18H15.1006V21H13.1064V18Z" fill="#ABE0F6"/>
<path d="M17.0117 18H19.0059V21H17.0117V18Z" fill="#ABE0F6"/>
<path d="M15.2783 5.73193H17.1063V8.54444H15.2783V5.73193Z" fill="#ABE0F6"/>
<path d="M11.7891 5.73193H13.6171V8.54444H11.7891V5.73193Z" fill="#ABE0F6"/>
<path d="M3.45605 11.9925H5.45022V14.9925H3.45605V11.9925Z" fill="#ABE0F6"/>
<path d="M7.36133 11.9925H9.3555V14.9925H7.36133V11.9925Z" fill="#ABE0F6"/>
<path d="M11.1006 12.006H18.7688L21.0122 15.756H11.1406L11.1006 12.006Z" fill="#E67E95"/>
<path d="M13.8043 3H9.40918L10.2907 0.46875H13.8043H18.6041L19.4856 3H13.8043Z" fill="#E67E95"/>
<path d="M4.78516 17.3438H8.10877V23.5312H4.78516V17.3438Z" fill="#C5A09D"/>
<path d="M6.44751 10.0921C6.95193 10.0921 7.36084 9.6307 7.36084 9.06157C7.36084 8.49244 6.95193 8.03107 6.44751 8.03107C5.94309 8.03107 5.53418 8.49244 5.53418 9.06157C5.53418 9.6307 5.94309 10.0921 6.44751 10.0921Z" fill="white"/>
<path d="M6.96509 3.2044C6.66194 2.93154 6.23182 2.93154 5.92867 3.2044L0.571289 8.02718L1.75379 9.36138L6.4469 5.13659L11.14 9.36138L12.3225 8.02718L6.96509 3.2044Z" fill="#E67E95"/>
<path d="M6.44792 7.56232C5.71519 7.56232 5.11914 8.23488 5.11914 9.06157C5.11914 9.88825 5.71523 10.5608 6.44792 10.5608C7.18061 10.5608 7.77666 9.88825 7.77666 9.06157C7.77666 8.23488 7.18061 7.56232 6.44792 7.56232ZM6.44792 9.62332C6.17339 9.62332 5.95004 9.37132 5.95004 9.06157C5.95004 8.75182 6.17339 8.49982 6.44792 8.49982C6.72241 8.49982 6.94575 8.75182 6.94575 9.06157C6.94575 9.37132 6.72241 9.62332 6.44792 9.62332Z" fill="black"/>
<path d="M21.4265 15.7559C21.4265 15.6641 21.4035 15.5726 21.3562 15.4936L19.1839 11.8626V3.46875H19.486C19.6234 3.46875 19.7519 3.39211 19.8293 3.26395C19.9067 3.13584 19.9229 2.97286 19.8727 2.82853L18.9912 0.297281C18.9287 0.117984 18.7753 0 18.6045 0H10.2911C10.1203 0 9.96684 0.117984 9.90436 0.297328L9.02285 2.82858C8.97262 2.97291 8.98887 3.13589 9.06623 3.264C9.14362 3.39211 9.27212 3.4688 9.40955 3.4688H9.71163V5.07689L7.22461 2.83805C6.76699 2.42611 6.12769 2.42602 5.66999 2.83805L0.312611 7.66078C0.220132 7.74398 0.163506 7.86773 0.1569 8.00095C0.150294 8.13417 0.19429 8.2643 0.277921 8.35866L1.37879 9.60075V14.337C1.37879 14.5958 1.56482 14.8057 1.79424 14.8057C2.02365 14.8057 2.20969 14.5958 2.20969 14.337V9.55102L6.4473 5.73628L10.6849 9.55102V23.0625H8.52456V17.3438C8.52456 17.0849 8.33852 16.875 8.10911 16.875H4.78549C4.55608 16.875 4.37004 17.0849 4.37004 17.3438V23.0625H2.20969V18.5557C2.20969 18.2968 2.02365 18.0869 1.79424 18.0869C1.56482 18.0869 1.37879 18.2968 1.37879 18.5557V23.5312C1.37879 23.7901 1.56482 24 1.79424 24H21.0119C21.2413 24 21.4274 23.7901 21.4274 23.5312V15.7559H21.4265ZM12.7377 8.001C12.7311 7.86778 12.6745 7.74403 12.582 7.66083L12.2043 7.32089V6.20072H13.2014V8.07572H12.7355C12.7378 8.05097 12.7389 8.02608 12.7377 8.001ZM11.5158 12.4747H18.5477L20.2303 15.2872H11.5158V12.4747ZM10.5742 0.9375H18.3214L18.8764 2.53125H10.0192L10.5742 0.9375ZM10.5425 3.46875H18.353V11.5312H11.5158V9.60075L12.0366 9.01317H13.6169C13.8463 9.01317 14.0323 8.80331 14.0323 8.54442V5.73192C14.0323 5.47303 13.8463 5.26317 13.6169 5.26317H11.7889C11.5595 5.26317 11.3734 5.47303 11.3734 5.73192V6.57286L10.5425 5.82487V3.46875ZM6.4473 4.66781C6.35565 4.66781 6.264 4.70194 6.18822 4.77014L1.78535 8.73366L1.19412 8.06658L6.18818 3.57089C6.34074 3.4335 6.55382 3.43359 6.70646 3.57089L11.7005 8.06662L11.1093 8.7337L6.70642 4.77019C6.6306 4.70194 6.53895 4.66781 6.4473 4.66781ZM5.20094 23.0625V17.8125H7.69365V23.0625H5.20094ZM11.5158 23.0625V16.2247H20.5965V23.0625H11.5158Z" fill="black"/>
<path d="M3.04004 11.9925V14.9925C3.04004 15.2514 3.22608 15.4612 3.45549 15.4612H5.44965C5.67907 15.4612 5.86511 15.2514 5.86511 14.9925V11.9925C5.86511 11.7336 5.67907 11.5237 5.44965 11.5237H3.45549C3.22604 11.5237 3.04004 11.7336 3.04004 11.9925ZM3.87094 12.4612H5.0342V14.5237H3.87094V12.4612Z" fill="black"/>
<path d="M6.94531 11.9925V14.9925C6.94531 15.2514 7.13135 15.4612 7.36076 15.4612H9.35493C9.58435 15.4612 9.77039 15.2514 9.77039 14.9925V11.9925C9.77039 11.7336 9.58435 11.5237 9.35493 11.5237H7.36076C7.13131 11.5237 6.94531 11.7336 6.94531 11.9925ZM7.77622 12.4612H8.93948V14.5237H7.77622V12.4612Z" fill="black"/>
<path d="M15.1001 17.5312H13.1059C12.8765 17.5312 12.6904 17.7411 12.6904 18V21C12.6904 21.2589 12.8765 21.4688 13.1059 21.4688H15.1001C15.3295 21.4688 15.5155 21.2589 15.5155 21V18C15.5155 17.7411 15.3295 17.5312 15.1001 17.5312ZM14.6846 20.5312H13.5213V18.4688H14.6846V20.5312Z" fill="black"/>
<path d="M19.0053 17.5312H17.0112C16.7817 17.5312 16.5957 17.7411 16.5957 18V21C16.5957 21.2589 16.7817 21.4688 17.0112 21.4688H19.0053C19.2347 21.4688 19.4208 21.2589 19.4208 21V18C19.4208 17.7411 19.2347 17.5312 19.0053 17.5312ZM18.5899 20.5312H17.4266V18.4688H18.5899V20.5312Z" fill="black"/>
<path d="M15.2787 9.01319H17.1067C17.3361 9.01319 17.5222 8.80333 17.5222 8.54444V5.73193C17.5222 5.47304 17.3361 5.26318 17.1067 5.26318H15.2787C15.0493 5.26318 14.8633 5.47304 14.8633 5.73193V8.54444C14.8633 8.80333 15.0493 9.01319 15.2787 9.01319ZM15.6942 6.20069H16.6913V8.07569H15.6942V6.20069Z" fill="black"/>
<path d="M1.79436 16.9152C2.02381 16.9152 2.20981 16.7053 2.20981 16.4464C2.20981 16.1875 2.02381 15.9777 1.79436 15.9777C1.56491 15.9777 1.37891 16.1875 1.37891 16.4464C1.37891 16.7053 1.56491 16.9152 1.79436 16.9152Z" fill="black"/>
</g>
<defs>
<clipPath id="clip0_3858_21755">
<rect width="21.2711" height="24" fill="white" transform="translate(0.15625)"/>
</clipPath>
</defs>
</svg>
