<svg width="22" height="30" viewBox="0 0 22 30" fill="none" xmlns="http://www.w3.org/2000/svg">
<path fill-rule="evenodd" clip-rule="evenodd" d="M11.2822 0C5.47735 0 0.75 4.72735 0.75 10.5322C0.75 13.7407 2.21286 16.739 4.77079 18.7654C4.83606 18.8493 4.90962 18.9208 4.99146 18.9726C5.00389 18.9819 6.23468 19.8149 6.23468 21.4042C6.23468 21.4435 6.2409 21.4725 6.25126 21.4943L6.24194 21.5233L7.94515 29.3131C8.03218 29.7182 8.38546 30 8.80297 30H13.7665C14.1778 30 14.527 29.7182 14.6213 29.3131L16.3141 21.5823C16.3172 21.5533 16.3172 21.5243 16.3172 21.4984L16.3297 21.4042C16.3297 19.8108 17.5563 18.9861 17.5895 18.9633C17.6703 18.9022 17.7283 18.8338 17.7314 18.8172C20.3276 16.7939 21.8143 13.7728 21.8143 10.5353C21.8143 4.72425 17.0911 0 11.2822 0ZM13.0952 28.0761L13.06 28.2512H9.5085L9.47328 28.0792L13.0962 28.0761H13.0952ZM13.5185 26.1424L13.4792 26.3206H9.0885L9.05017 26.1424H13.5175H13.5185ZM14.3677 22.2803L13.9046 24.3917H8.65928L8.20239 22.2844L14.3667 22.2813L14.3677 22.2803ZM12.1635 11.7525C12.1635 11.1693 12.6328 10.6968 13.212 10.6968C13.6979 10.6968 14.0895 10.3021 14.0895 9.81933C14.0895 9.33344 13.6947 8.94182 13.212 8.94182C12.5095 8.94182 11.8299 9.22983 11.3015 9.73541C10.7835 9.22673 10.0935 8.94182 9.359 8.94182C8.87622 8.94182 8.4815 9.33654 8.4815 9.82244C8.4815 10.3052 8.87622 10.6999 9.36522 10.6999C9.6408 10.6999 9.89981 10.8098 10.0967 11.0108C10.2976 11.2055 10.4075 11.4676 10.4075 11.7556V20.5359H7.91169C7.63611 19.0762 6.73995 18.1365 6.19915 17.6869C6.15356 17.6319 6.10176 17.577 6.02717 17.518C3.7904 15.8282 2.50781 13.2827 2.50781 10.5311C2.50781 5.69079 6.44468 1.75392 11.285 1.75392C16.1284 1.75392 20.0683 5.69079 20.0683 10.5311C20.0621 13.2796 18.7764 15.8241 16.5365 17.5242C16.4651 17.5822 16.4101 17.634 16.3977 17.663C15.9605 18.0163 14.9504 18.9871 14.6593 20.5349H12.1635V11.7515V11.7525Z" fill="#191970"/>
</svg>
