<svg width="40" height="39" viewBox="0 0 40 39" fill="none" xmlns="http://www.w3.org/2000/svg">
<path fill-rule="evenodd" clip-rule="evenodd" d="M2.86693 38.7765C1.28599 38.7765 0 37.4905 0 35.9082V10.2176C0 8.63671 1.28599 7.35071 2.86693 7.35071H11.4286C11.7375 7.35071 11.9877 7.1005 11.9877 6.79158V5.07926C11.9877 2.55479 14.0425 0.5 16.567 0.5H23.4191C25.9477 0.5 28.0025 2.55479 28.0025 5.07926V6.79158C28.0025 7.1005 28.2541 7.35071 28.5616 7.35071H37.1233C38.707 7.35071 39.9986 8.63671 40 10.2176V35.9193C39.9972 37.4947 38.707 38.7765 37.1233 38.7765H2.86693ZM2.86626 21.6493C2.55734 21.6493 2.30713 21.9009 2.30713 22.2084V35.9182C2.30713 36.2271 2.55734 36.4774 2.86626 36.4774H37.1212C37.4301 36.4774 37.6803 36.2258 37.6803 35.9182L37.6831 22.2098C37.6831 22.0616 37.623 21.9191 37.5196 21.8142C37.4148 21.7108 37.2722 21.6507 37.124 21.6507H25.1335C24.8246 21.6507 24.5744 21.9023 24.5744 22.2098C24.5744 24.7343 22.521 26.7849 19.9965 26.7849C18.779 26.7849 17.6314 26.3082 16.762 25.4444C15.8953 24.5749 15.4173 23.4259 15.4173 22.2084C15.4173 21.8995 15.1671 21.6493 14.8581 21.6493H2.86626ZM19.9972 16.512C18.7448 16.512 17.7271 17.531 17.7271 18.7821L17.7285 22.2095C17.7285 22.8008 17.9634 23.3683 18.3925 23.8058C18.8356 24.242 19.4031 24.4782 19.9972 24.4782C21.2497 24.4782 22.2701 23.4592 22.2701 22.2081V18.7821C22.2701 18.1894 22.0282 17.6191 21.5921 17.1788C21.1644 16.7538 20.5843 16.512 19.9972 16.512ZM19.9951 14.2042C21.2112 14.2042 22.3588 14.6823 23.2283 15.5489C24.0949 16.4226 24.573 17.5716 24.573 18.7821C24.573 19.091 24.8246 19.3412 25.1321 19.3412L37.1226 19.344C37.2708 19.344 37.4134 19.2853 37.5182 19.1804C37.6216 19.0756 37.6817 18.933 37.6817 18.7849V10.2176C37.6817 9.90871 37.4301 9.6585 37.1226 9.6585L2.86626 9.6571C2.71809 9.6571 2.57551 9.71581 2.47067 9.82065C2.36584 9.92549 2.30713 10.0681 2.30713 10.2162V18.7835C2.30713 19.0924 2.55734 19.3426 2.86626 19.3426H14.8568C15.1657 19.3426 15.4159 19.0924 15.4159 18.7835C15.4159 16.259 17.4693 14.2042 19.9951 14.2042ZM14.2896 6.79013C14.2896 7.09905 14.5398 7.34925 14.8487 7.34925H25.1366C25.4455 7.34925 25.6958 7.09905 25.6958 6.79013V5.0778C25.6958 3.82535 24.6753 2.80774 23.4201 2.80774H16.5624C15.31 2.80774 14.2909 3.82675 14.2909 5.0778H14.2896V6.79013Z" fill="#191970"/>
</svg>
