<svg width="28" height="28" viewBox="0 0 28 28" fill="none" xmlns="http://www.w3.org/2000/svg">
<path d="M16.1833 9.49155C16.1833 7.07013 14.2133 5.1001 11.7918 5.1001C9.37042 5.1001 7.40039 7.07013 7.40039 9.49155C7.40039 11.9132 9.37042 13.8832 11.7918 13.8832C14.2133 13.8832 16.1833 11.9132 16.1833 9.49155ZM11.7918 12.2422C10.2751 12.2422 9.04123 11.0083 9.04123 9.49155C9.04123 7.97482 10.2751 6.74094 11.7918 6.74094C13.3084 6.74094 14.5425 7.97482 14.5425 9.49155C14.5425 11.0083 13.3086 12.2422 11.7918 12.2422Z" fill="currentColor"/>
<path d="M19.6574 15.2317L20.2434 14.1722L20.2472 14.1649C21 12.7716 21.3978 11.1947 21.3978 9.6049C21.3978 4.30877 17.089 0 11.7929 0C6.49654 0 2.18799 4.30877 2.18799 9.6049C2.18799 11.1951 2.58682 12.7734 3.34134 14.1694L10.5943 27.2873C10.835 27.7233 11.2943 27.9942 11.7929 27.9942C12.2915 27.9942 12.7508 27.7233 12.9913 27.2877L14.137 25.2158C15.2888 26.8955 17.2217 27.9999 19.4077 27.9999C22.9295 27.9999 25.7946 25.1348 25.7946 21.6133C25.7946 18.175 23.0638 15.3633 19.6574 15.2317V15.2317ZM13.2722 23.3883L11.7929 26.0639L4.78308 13.3862C4.15887 12.2297 3.82882 10.9223 3.82882 9.6049C3.82882 5.21346 7.40145 1.64084 11.7929 1.64084C16.1841 1.64084 19.7567 5.21346 19.7567 9.6049C19.7567 10.9221 19.4278 12.228 18.8053 13.3817L17.6491 15.4727C14.9799 16.2383 13.021 18.7012 13.021 21.6131C13.021 22.2289 13.1088 22.8245 13.2722 23.3883V23.3883ZM19.4077 26.3591C16.791 26.3591 14.6618 24.2301 14.6618 21.6133C14.6618 18.9962 16.791 16.8672 19.4077 16.8672C22.0248 16.8672 24.1537 18.9962 24.1537 21.6133C24.1537 24.2301 22.0248 26.3591 19.4077 26.3591Z" fill="currentColor"/>
<path d="M20.9126 19.6431L18.7125 21.843L17.9025 21.0331C17.5822 20.7127 17.0627 20.7127 16.7423 21.0331C16.4218 21.3536 16.4218 21.8729 16.7423 22.1933L18.1323 23.5836C18.2925 23.7438 18.5025 23.8239 18.7125 23.8239C18.8802 23.8239 19.0477 23.7718 19.19 23.6694C19.2259 23.6438 19.2605 23.6156 19.2925 23.5836C19.2927 23.5834 19.2927 23.5834 19.2927 23.5834L22.0728 20.8033C22.3932 20.4828 22.3932 19.9635 22.0728 19.6431C21.7524 19.3224 21.2328 19.3224 20.9126 19.6431V19.6431Z" fill="currentColor"/>
</svg>
