<svg width="18" height="24" viewBox="0 0 18 24" fill="none" xmlns="http://www.w3.org/2000/svg">
<path d="M6.72465 10.0736C6.21296 10.6784 5.93115 11.4478 5.93115 12.2401C5.93115 12.8923 6.46178 13.423 7.11409 13.423H10.9015C11.5538 13.423 12.0845 12.8923 12.0845 12.2401C12.0845 11.5878 11.5538 11.0571 10.9015 11.0571H8.99167L9.64529 10.2847C9.77096 10.1361 9.75245 9.91386 9.6039 9.78819C9.45526 9.66252 9.23303 9.68108 9.1074 9.82958L7.9929 11.1467C7.98048 11.1614 7.96839 11.1763 7.95643 11.1913C7.87286 11.2973 7.8572 11.4418 7.91612 11.5632C7.97504 11.6847 8.09814 11.7618 8.23309 11.7618H10.9015C11.1653 11.7618 11.3799 11.9764 11.3799 12.2401C11.3799 12.5039 11.1653 12.7185 10.9015 12.7185H7.11409C6.85032 12.7185 6.63573 12.5039 6.63573 12.2401C6.63573 11.6143 6.85834 11.0065 7.26254 10.5287L9.92743 7.37919C10.2307 7.02079 10.2044 6.58996 10.0786 6.30618C9.92101 5.9511 9.59842 5.7314 9.21554 5.71846C9.20148 5.71799 9.1869 5.71771 9.17228 5.71771C8.48256 5.71771 7.92142 6.27885 7.92142 6.96857C7.92142 7.23233 7.70682 7.44693 7.44306 7.44693C7.17929 7.44693 6.9647 7.23233 6.9647 6.96857C6.9647 5.75127 7.95503 4.76099 9.17223 4.76099C9.1975 4.76099 9.22267 4.76141 9.24756 4.76225C9.99451 4.78747 10.6481 5.23049 10.9532 5.91843C11.2636 6.61841 11.1504 7.41496 10.6578 7.99719L10.0177 8.75371C9.892 8.90225 9.91051 9.12454 10.0591 9.25021C10.2076 9.37583 10.4299 9.35732 10.5556 9.20882L11.1957 8.4523C11.8642 7.66213 12.0181 6.58175 11.5973 5.63282C11.1818 4.69593 10.2906 4.09255 9.27118 4.0581C9.23837 4.05702 9.20537 4.05646 9.17228 4.05646C7.56653 4.05646 6.26017 5.36286 6.26017 6.96861C6.26017 7.62088 6.79079 8.15155 7.4431 8.15155C8.09537 8.15155 8.62604 7.62088 8.62604 6.96861C8.62604 6.66739 8.8711 6.42233 9.17232 6.42233C9.17898 6.42233 9.18554 6.42247 9.19187 6.42266C9.30479 6.42646 9.38645 6.48341 9.43454 6.59179C9.46487 6.66022 9.49937 6.79438 9.38964 6.92408L6.72465 10.0736Z" fill="black"/>
<path d="M15.9593 8.73917C15.9593 4.90147 12.8371 1.77931 8.99941 1.77931C5.16171 1.77931 2.03955 4.90147 2.03955 8.73917C2.03955 8.93375 2.19724 9.09148 2.39186 9.09148C2.58644 9.09148 2.74418 8.93375 2.74418 8.73917C2.74418 5.28997 5.5503 2.48389 8.99941 2.48389C12.4485 2.48389 15.2546 5.28997 15.2546 8.73917C15.2546 12.1884 12.4485 14.9945 8.99941 14.9945C7.56175 14.9945 6.15794 14.4948 5.04649 13.5874C3.95022 12.6924 3.18278 11.4425 2.8855 10.0679C2.84439 9.87786 2.65722 9.75711 2.46672 9.79808C2.27655 9.83919 2.15571 10.0267 2.19686 10.2169C2.52771 11.7468 3.38149 13.1376 4.60089 14.1331C5.83778 15.1429 7.39985 15.699 8.99941 15.699C12.8371 15.699 15.9593 12.5769 15.9593 8.73917Z" fill="black"/>
<path d="M15.6358 18.6938C15.5719 18.51 15.3713 18.4129 15.1873 18.4769C15.0035 18.5408 14.9064 18.7417 14.9704 18.9254L15.855 21.4671L13.4397 21.2142C13.3356 21.2035 13.2317 21.2393 13.1567 21.3127L11.4204 23.0107L9.49035 17.4656C11.1329 17.3742 12.6557 16.8271 13.9344 15.9491L14.5068 17.5935C14.6836 18.0373 15.3034 17.7896 15.1722 17.3618L14.526 15.5053C16.4861 13.9012 17.7394 11.4643 17.7394 8.73984C17.7394 3.92067 13.8187 0 8.99956 0C4.18044 0 0.259766 3.92067 0.259766 8.7398C0.259766 11.4642 1.51306 13.9012 3.47314 15.5053L1.29627 21.7594C1.21648 21.9661 1.39944 22.2587 1.66569 22.2256L4.4682 21.9322L6.4828 23.9023C6.63739 24.0654 6.97653 24.0207 7.06184 23.7662L8.99956 18.199L10.9373 23.7662C11.0116 23.9879 11.3175 24.0894 11.5163 23.9023L13.5309 21.9322L16.3334 22.2256C16.5661 22.2551 16.7864 22.0128 16.7028 21.7595L15.6358 18.6938ZM0.964344 8.7398C0.964344 4.30917 4.56894 0.704578 8.99956 0.704578C13.4302 0.704578 17.0348 4.30917 17.0348 8.7398C17.0348 13.1704 13.4302 16.775 8.99956 16.775C4.56889 16.775 0.964344 13.1705 0.964344 8.7398ZM6.57875 23.0107L4.84245 21.3127C4.7675 21.2394 4.66414 21.2033 4.55942 21.2142L2.14409 21.4671L4.06475 15.9491C5.3435 16.8271 6.86628 17.3742 8.50883 17.4656L6.57875 23.0107Z" fill="black"/>
</svg>
