<svg width="18" height="24" viewBox="0 0 18 24" fill="none" xmlns="http://www.w3.org/2000/svg">
<path d="M10.2071 8.90143C10.4017 8.90143 10.5594 8.74374 10.5594 8.54912V5.24026C10.5594 4.58794 10.0287 4.05732 9.37645 4.05732H8.72924C8.31341 4.05732 7.92341 4.2796 7.71144 4.6374L6.68731 6.36615C6.35497 6.92734 6.54106 7.65437 7.10225 7.9868C7.44678 8.1908 7.85371 8.19952 8.19355 8.04596V12.241C8.19355 12.8933 8.72423 13.424 9.37649 13.424C10.0288 13.424 10.5594 12.8933 10.5594 12.241V9.95827C10.5594 9.76369 10.4017 9.60601 10.2071 9.60601C10.0125 9.60601 9.85481 9.76369 9.85481 9.95827V12.241C9.85481 12.5048 9.64021 12.7194 9.37645 12.7194C9.11268 12.7194 8.89809 12.5048 8.89809 12.241V7.17962C8.89809 7.0209 8.79196 6.88177 8.63887 6.83987C8.48582 6.79791 8.32354 6.86349 8.24268 7.00009L8.11668 7.2129C7.98229 7.43982 7.68824 7.51491 7.46132 7.38066C7.23439 7.24623 7.15916 6.95213 7.2935 6.72521L8.31763 4.99651C8.40337 4.8518 8.56105 4.7619 8.72924 4.7619H9.37645C9.64021 4.7619 9.85481 4.97649 9.85481 5.24026V8.54912C9.85476 8.74369 10.0125 8.90143 10.2071 8.90143Z" fill="black"/>
<path d="M15.9593 8.73917C15.9593 4.90152 12.8371 1.77931 8.99941 1.77931C5.16171 1.77931 2.03955 4.90147 2.03955 8.73917C2.03955 8.93375 2.19729 9.09148 2.39186 9.09148C2.58644 9.09148 2.74413 8.9338 2.74413 8.73917C2.74413 5.29002 5.55021 2.48389 8.99941 2.48389C12.4486 2.48389 15.2547 5.29002 15.2547 8.73917C15.2547 12.1884 12.4486 14.9945 8.99941 14.9945C7.56175 14.9945 6.15789 14.4948 5.04644 13.5875C3.95018 12.6925 3.18274 11.4426 2.88546 10.068C2.8443 9.87786 2.65694 9.75664 2.46668 9.79817C2.2765 9.83928 2.15571 10.0268 2.19682 10.2169C2.52771 11.7469 3.38149 13.1377 4.60089 14.1332C5.83778 15.143 7.39985 15.6991 8.99941 15.6991C12.8371 15.699 15.9593 12.5769 15.9593 8.73917Z" fill="black"/>
<path d="M15.6358 18.6937C15.5718 18.51 15.3712 18.4129 15.1873 18.4769C15.0035 18.5408 14.9064 18.7416 14.9704 18.9254L15.855 21.4671L13.4397 21.2142C13.3354 21.2033 13.2317 21.2393 13.1567 21.3127L11.4204 23.0106L9.49035 17.4655C11.1329 17.3742 12.6557 16.8271 13.9344 15.949L14.5068 17.5934C14.6836 18.0372 15.3034 17.7894 15.1722 17.3617L14.526 15.5053C16.4861 13.9012 17.7394 11.4642 17.7394 8.73975C17.7394 3.92067 13.8187 0 8.99956 0C4.18039 0 0.259766 3.92067 0.259766 8.7398C0.259766 11.4643 1.51306 13.9012 3.47314 15.5053L1.29631 21.7594C1.21667 21.9662 1.3992 22.2586 1.66573 22.2256L4.4682 21.9322L6.48284 23.9023C6.63744 24.0653 6.97653 24.0207 7.06184 23.7662L8.99956 18.199L10.9373 23.7663C11.0117 23.9879 11.3175 24.0894 11.5163 23.9023L13.5309 21.9322L16.3334 22.2256C16.5662 22.2553 16.7863 22.0127 16.7028 21.7595L15.6358 18.6937ZM0.964344 8.7398C0.964344 4.30917 4.56894 0.704578 8.99956 0.704578C13.4302 0.704578 17.0348 4.30912 17.0348 8.7398C17.0348 13.1704 13.4302 16.7751 8.99956 16.7751C4.56894 16.7751 0.964344 13.1704 0.964344 8.7398ZM6.5788 23.0107L4.84245 21.3127C4.76745 21.2394 4.66381 21.2034 4.55947 21.2142L2.14414 21.4671L4.06475 15.9491C5.3435 16.8271 6.86628 17.3742 8.50883 17.4656L6.5788 23.0107Z" fill="black"/>
</svg>
