<svg width="24" height="24" viewBox="0 0 24 24" fill="none" xmlns="http://www.w3.org/2000/svg">
<g clip-path="url(#clip0_3857_20981)">
<path d="M17.9153 14.6628C21.1835 11.3945 21.1835 6.09559 17.9153 2.82733C14.647 -0.440937 9.3481 -0.440937 6.07983 2.82733C2.81156 6.0956 2.81156 11.3945 6.07983 14.6628C9.3481 17.931 14.647 17.931 17.9153 14.6628Z" fill="#FF9838"/>
<path d="M12.0001 16.2712C7.51882 16.2712 3.86018 12.7496 3.64043 8.32288C3.63349 8.46261 3.62988 8.60328 3.62988 8.74475C3.62988 13.3675 7.37735 17.1149 12.0001 17.1149C16.6228 17.1149 20.3703 13.3675 20.3703 8.74475C20.3703 8.60328 20.3666 8.46261 20.3597 8.32288C20.14 12.7496 16.4813 16.2712 12.0001 16.2712Z" fill="#FF8709"/>
<path d="M12 17.116L14.2657 23.6257L16.3943 21.5441L19.3553 21.8542L17.1022 15.3809C15.6898 16.4687 13.9206 17.116 12 17.116Z" fill="#0083FD"/>
<path d="M11.9999 17.1151C10.0793 17.1151 8.31011 16.4678 6.89762 15.3801L4.64453 21.8533L7.60553 21.5432L9.73413 23.6248L11.9999 17.1151Z" fill="#0083FD"/>
<path d="M16.6595 13.4069C19.2342 10.8323 19.2342 6.65785 16.6595 4.08316C14.0848 1.50847 9.91041 1.50847 7.33572 4.08316C4.76103 6.65786 4.76103 10.8323 7.33572 13.4069C9.91041 15.9816 14.0848 15.9816 16.6595 13.4069Z" fill="#CE7430"/>
<path d="M11.9997 14.4949C8.49975 14.4949 5.63718 11.768 5.41959 8.32288C5.41078 8.46242 5.40576 8.603 5.40576 8.74475C5.40576 12.3865 8.35795 15.3387 11.9997 15.3387C15.6414 15.3387 18.5936 12.3865 18.5936 8.74475C18.5936 8.603 18.5886 8.46242 18.5797 8.32288C18.3622 11.768 15.4997 14.4949 11.9997 14.4949Z" fill="#BC672E"/>
<path d="M17.4616 16.4135L17.1022 15.3809C15.6898 16.4687 13.9206 17.116 12 17.116L12.3605 18.1516C14.2585 18.0802 16.0128 17.4473 17.4616 16.4135Z" fill="#0072FC"/>
<path d="M11.6392 18.1516L11.9997 17.116C10.0791 17.116 8.30996 16.4686 6.89748 15.3809L6.53809 16.4135C7.98694 17.4473 9.74123 18.0802 11.6392 18.1516Z" fill="#0072FC"/>
<path d="M12.0081 13.0669C10.588 13.0669 9.43262 11.9115 9.43262 10.4914C9.43262 10.0336 9.80377 9.66246 10.2616 9.66246C10.7193 9.66246 11.0905 10.0336 11.0905 10.4914C11.0905 10.9974 11.5021 11.409 12.0081 11.409C12.5141 11.409 12.9258 10.9974 12.9258 10.4914C12.9258 9.98543 12.5141 9.57373 12.0081 9.57373C11.5503 9.57373 11.1792 9.20262 11.1792 8.74479C11.1792 8.28696 11.5503 7.91585 12.0081 7.91585C12.5141 7.91585 12.9258 7.5042 12.9258 6.99823C12.9258 6.49221 12.5141 6.0806 12.0081 6.0806C11.5021 6.0806 11.0905 6.49221 11.0905 6.99823C11.0905 7.45606 10.7193 7.82717 10.2616 7.82717C9.80377 7.82717 9.43262 7.45606 9.43262 6.99823C9.43262 5.5781 10.588 4.42273 12.0081 4.42273C13.4283 4.42273 14.5836 5.5781 14.5836 6.99823C14.5836 7.67164 14.3239 8.28537 13.8993 8.74479C14.3239 9.20417 14.5836 9.818 14.5836 10.4914C14.5836 11.9115 13.4283 13.0669 12.0081 13.0669Z" fill="#FFAA5C"/>
<path d="M12.0076 8.73081C11.7041 8.73081 11.4394 8.56717 11.295 8.32375C11.2216 8.44745 11.1787 8.59136 11.1787 8.74562C11.1787 9.20345 11.5498 9.57456 12.0076 9.57456C12.3615 9.57456 12.6686 9.77621 12.8217 10.0704C12.8875 9.94389 12.9253 9.80064 12.9253 9.64848C12.9253 9.14251 12.5136 8.73081 12.0076 8.73081Z" fill="#EA9957"/>
<path d="M12.0081 12.2244C10.7737 12.2244 9.73974 11.3512 9.49037 10.1902C9.45357 10.284 9.43262 10.3858 9.43262 10.4926C9.43262 11.9127 10.588 13.0681 12.0081 13.0681C13.4283 13.0681 14.5837 11.9127 14.5837 10.4926C14.5837 10.349 14.5712 10.2084 14.5485 10.0711C14.3464 11.291 13.2844 12.2244 12.0081 12.2244Z" fill="#EA9957"/>
<path d="M12.0079 11.0572C11.6951 11.0572 11.4406 10.8028 11.4406 10.49C11.4406 9.83769 10.91 9.30702 10.2577 9.30702C9.60538 9.30702 9.07471 9.83764 9.07471 10.49C9.07471 12.1073 10.3905 13.4231 12.0079 13.4231C13.6252 13.4231 14.941 12.1073 14.941 10.49C14.941 9.85499 14.7367 9.24407 14.3605 8.73974C14.7367 8.2355 14.941 7.62463 14.941 6.98957C14.941 6.44858 14.7919 5.9195 14.5096 5.45952C14.4078 5.29363 14.1908 5.24174 14.025 5.3435C13.8592 5.44532 13.8073 5.66221 13.909 5.82805C14.1232 6.17704 14.2364 6.57871 14.2364 6.98957C14.2364 7.55089 14.0261 8.08747 13.6443 8.50063C13.5195 8.63563 13.5195 8.84389 13.6443 8.97889C14.0262 9.392 14.2364 9.92868 14.2364 10.49C14.2364 11.7188 13.2367 12.7185 12.0079 12.7185C10.779 12.7185 9.77928 11.7188 9.77928 10.49C9.77928 10.2262 9.99388 10.0116 10.2577 10.0116C10.5215 10.0116 10.7361 10.2262 10.7361 10.49C10.7361 11.1913 11.3066 11.7618 12.0079 11.7618C12.7091 11.7618 13.2797 11.1912 13.2797 10.49C13.2797 9.78871 12.7091 9.21814 12.0079 9.21814C11.7441 9.21814 11.5295 9.00355 11.5295 8.73974C11.5295 8.47597 11.7441 8.26138 12.0079 8.26138C12.7092 8.26138 13.2797 7.69082 13.2797 6.98957C13.2797 6.28832 12.7091 5.71775 12.0079 5.71775C11.3066 5.71775 10.7361 6.28832 10.7361 6.98957C10.7361 7.25333 10.5215 7.46793 10.2577 7.46793C9.99388 7.46793 9.77928 7.25333 9.77928 6.98957C9.77928 5.76074 10.779 4.76104 12.0079 4.76104C12.3621 4.76104 12.7009 4.84204 13.0147 5.00179C13.1881 5.0901 13.4002 5.0211 13.4885 4.84766C13.5767 4.67427 13.5077 4.46216 13.3343 4.37389C12.9206 4.16324 12.4743 4.05646 12.0079 4.05646C10.3905 4.05646 9.07471 5.37229 9.07471 6.98961C9.07471 7.64193 9.60538 8.17255 10.2577 8.17255C10.91 8.17255 11.4406 7.64193 11.4406 6.98961C11.4406 6.67682 11.6951 6.42238 12.0079 6.42238C12.3207 6.42238 12.5751 6.67682 12.5751 6.98961C12.5751 7.30241 12.3207 7.55685 12.0079 7.55685C11.3556 7.55685 10.8249 8.08747 10.8249 8.73979C10.8249 9.3921 11.3556 9.92277 12.0079 9.92277C12.3207 9.92277 12.5751 10.1772 12.5751 10.49C12.5751 10.8028 12.3207 11.0572 12.0079 11.0572Z" fill="black"/>
<path d="M18.9593 8.73922C18.9593 4.90152 15.8371 1.77931 11.9994 1.77931C8.16171 1.77931 5.03955 4.90147 5.03955 8.73922C5.03955 8.9338 5.19724 9.09153 5.39186 9.09153C5.58644 9.09153 5.74418 8.93384 5.74418 8.73922C5.74418 5.29002 8.5503 2.48389 11.9995 2.48389C15.4486 2.48389 18.2547 5.29002 18.2547 8.73922C18.2547 12.1884 15.4486 14.9945 11.9995 14.9945C10.5618 14.9945 9.15794 14.4948 8.04653 13.5875C6.95027 12.6925 6.18283 11.4426 5.8856 10.068C5.84444 9.87791 5.65732 9.75716 5.46677 9.79812C5.2766 9.83928 5.15575 10.0268 5.19686 10.2169C5.52775 11.7469 6.38153 13.1377 7.60094 14.1332C8.83783 15.143 10.3999 15.6991 11.9995 15.6991C15.8371 15.699 18.9593 12.5769 18.9593 8.73922Z" fill="black"/>
<path d="M18.6358 18.6937C18.5719 18.51 18.3713 18.4128 18.1873 18.4769C18.0035 18.5408 17.9064 18.7416 17.9704 18.9254L18.855 21.4671L16.4397 21.2142C16.3358 21.2033 16.2317 21.2393 16.1567 21.3127L14.4204 23.0106L12.4903 17.4655C14.1329 17.3742 15.6557 16.8271 16.9344 15.949L17.5068 17.5934C17.5573 17.7388 17.6937 17.83 17.8395 17.83C17.8779 17.83 17.917 17.8237 17.9553 17.8103C18.139 17.7464 18.2361 17.5455 18.1722 17.3617L17.526 15.5052C19.4861 13.9012 20.7394 11.4642 20.7394 8.73975C20.7394 3.92067 16.8187 0 11.9996 0C7.18044 0 3.25977 3.92067 3.25977 8.73984C3.25977 11.4643 4.51306 13.9012 6.47314 15.5053L4.29627 21.7595C4.21648 21.9663 4.39939 22.2588 4.66569 22.2257L7.4682 21.9322L9.4828 23.9023C9.63739 24.0654 9.97653 24.0207 10.0618 23.7663L11.9996 18.199L13.9373 23.7663C14.0117 23.9879 14.3175 24.0894 14.5163 23.9023L16.5309 21.9322L19.3334 22.2257C19.5662 22.2553 19.7864 22.0128 19.7029 21.7595L18.6358 18.6937ZM3.96434 8.73984C3.96434 4.30922 7.56889 0.704578 11.9996 0.704578C16.4302 0.704578 20.0348 4.30917 20.0348 8.73984C20.0348 13.1705 16.4302 16.775 11.9996 16.775C7.56889 16.775 3.96434 13.1705 3.96434 8.73984ZM9.57875 23.0107L7.84245 21.3127C7.7675 21.2394 7.66414 21.2033 7.55942 21.2142L5.14409 21.4672L7.06475 15.9491C8.3435 16.8271 9.86628 17.3742 11.5088 17.4656L9.57875 23.0107Z" fill="black"/>
</g>
<defs>
<clipPath id="clip0_3857_20981">
<rect width="24" height="24" fill="white"/>
</clipPath>
</defs>
</svg>
