<svg width="24" height="24" viewBox="0 0 24 24" fill="none" xmlns="http://www.w3.org/2000/svg">
<g clip-path="url(#clip0_3857_20956)">
<path d="M12 17.116L14.2657 23.6257L16.3943 21.5441L19.3553 21.8542L17.1022 15.3809C15.6898 16.4687 13.9206 17.116 12 17.116Z" fill="#98DB7C"/>
<path d="M11.9999 17.1151C10.0793 17.1151 8.31011 16.4678 6.89762 15.3801L4.64453 21.8533L7.60553 21.5432L9.73413 23.6248L11.9999 17.1151Z" fill="#98DB7C"/>
<path d="M17.4616 16.4135L17.1022 15.3809C15.6898 16.4687 13.9206 17.116 12 17.116L12.3605 18.1516C14.2585 18.0802 16.0128 17.4473 17.4616 16.4135Z" fill="#82D361"/>
<path d="M11.6392 18.1516L11.9997 17.116C10.0791 17.116 8.30996 16.4686 6.89748 15.3809L6.53809 16.4135C7.98694 17.4473 9.74123 18.0802 11.6392 18.1516Z" fill="#82D361"/>
<path d="M17.9153 14.6628C21.1835 11.3945 21.1835 6.09559 17.9153 2.82733C14.647 -0.440937 9.3481 -0.440937 6.07983 2.82733C2.81156 6.0956 2.81156 11.3945 6.07983 14.6628C9.3481 17.931 14.647 17.931 17.9153 14.6628Z" fill="#E0E0E0"/>
<path d="M12.0001 16.2712C7.51882 16.2712 3.86018 12.7496 3.64043 8.32288C3.63349 8.46266 3.62988 8.60328 3.62988 8.74475C3.62988 13.3675 7.37735 17.1149 12.0001 17.1149C16.6228 17.1149 20.3703 13.3675 20.3703 8.74475C20.3703 8.60328 20.3666 8.46266 20.3597 8.32288C20.14 12.7496 16.4813 16.2712 12.0001 16.2712Z" fill="#CECECE"/>
<path d="M16.6595 13.4069C19.2342 10.8323 19.2342 6.65785 16.6595 4.08316C14.0848 1.50847 9.91041 1.50847 7.33572 4.08316C4.76103 6.65786 4.76103 10.8323 7.33572 13.4069C9.91041 15.9816 14.0848 15.9816 16.6595 13.4069Z" fill="#9E9E9E"/>
<path d="M11.9997 14.4949C8.49975 14.4949 5.63718 11.768 5.41959 8.32288C5.41078 8.46242 5.40576 8.603 5.40576 8.74475C5.40576 12.3865 8.35795 15.3387 11.9997 15.3387C15.6414 15.3387 18.5936 12.3865 18.5936 8.74475C18.5936 8.603 18.5886 8.46242 18.5797 8.32288C18.3622 11.768 15.4997 14.4949 11.9997 14.4949Z" fill="#898989"/>
<path d="M13.8976 13.0678H10.118C9.66022 13.0678 9.28906 12.6967 9.28906 12.2389C9.28906 11.5313 9.54078 10.8441 9.99781 10.3039L12.6572 7.16094C12.906 6.86684 12.795 6.54997 12.755 6.45983C12.7064 6.35023 12.5553 6.09402 12.2033 6.08216C12.1931 6.08178 12.1826 6.08159 12.1719 6.08159C11.6775 6.08159 11.2752 6.48387 11.2752 6.97831C11.2752 7.43614 10.9041 7.80725 10.4463 7.80725C9.98848 7.80725 9.61733 7.43614 9.61733 6.97831C9.61733 5.56972 10.7633 4.42372 12.1719 4.42372C12.201 4.42372 12.23 4.42424 12.2589 4.42517C13.1403 4.45494 13.911 4.97703 14.2705 5.78778C14.6354 6.61058 14.5021 7.54709 13.9227 8.23184L11.2634 11.3749C11.2536 11.3864 11.244 11.3981 11.2347 11.41H13.8976C14.3553 11.41 14.7265 11.7811 14.7265 12.2389C14.7265 12.6967 14.3554 13.0678 13.8976 13.0678Z" fill="#E0E0E0"/>
<path d="M13.8976 12.2232H10.118C9.76175 12.2232 9.45889 11.9981 9.34166 11.6826C9.3072 11.8648 9.28906 12.0506 9.28906 12.238C9.28906 12.6958 9.66022 13.0669 10.118 13.0669H13.8976C14.3553 13.0669 14.7265 12.6958 14.7265 12.238C14.7265 12.0837 14.6836 11.9398 14.6102 11.8161C14.4658 12.0596 14.2011 12.2232 13.8976 12.2232Z" fill="#CECECE"/>
<path d="M9.72465 10.0736C9.21296 10.6784 8.93115 11.4478 8.93115 12.2401C8.93115 12.8923 9.46178 13.423 10.1141 13.423H13.9015C14.5538 13.423 15.0845 12.8923 15.0845 12.2401C15.0845 11.5878 14.5538 11.0571 13.9015 11.0571H11.9917L12.6453 10.2847C12.771 10.1361 12.7524 9.91386 12.6039 9.78819C12.4553 9.66252 12.233 9.68108 12.1074 9.82958L10.9929 11.1467C10.9805 11.1614 10.9684 11.1763 10.9564 11.1913C10.8729 11.2973 10.8572 11.4418 10.9161 11.5632C10.975 11.6847 11.0981 11.7618 11.2331 11.7618H13.9015C14.1653 11.7618 14.3799 11.9764 14.3799 12.2401C14.3799 12.5039 14.1653 12.7185 13.9015 12.7185H10.1141C9.85032 12.7185 9.63573 12.5039 9.63573 12.2401C9.63573 11.6143 9.85834 11.0065 10.2625 10.5287L12.9274 7.37919C13.2307 7.02079 13.2044 6.58996 13.0786 6.30618C12.921 5.9511 12.5984 5.7314 12.2155 5.71846C12.2015 5.71799 12.1869 5.71771 12.1723 5.71771C11.4826 5.71771 10.9214 6.27885 10.9214 6.96857C10.9214 7.23233 10.7068 7.44693 10.4431 7.44693C10.1793 7.44693 9.9647 7.23233 9.9647 6.96857C9.9647 5.75127 10.955 4.76099 12.1722 4.76099C12.1975 4.76099 12.2227 4.76141 12.2476 4.76225C12.9945 4.78747 13.6481 5.23049 13.9532 5.91843C14.2636 6.61841 14.1504 7.41496 13.6578 7.99719L13.0177 8.75371C12.892 8.90225 12.9105 9.12454 13.0591 9.25021C13.2076 9.37583 13.4299 9.35732 13.5556 9.20882L14.1957 8.4523C14.8642 7.66213 15.0181 6.58175 14.5973 5.63282C14.1818 4.69593 13.2906 4.09255 12.2712 4.0581C12.2384 4.05702 12.2054 4.05646 12.1723 4.05646C10.5665 4.05646 9.26017 5.36286 9.26017 6.96861C9.26017 7.62088 9.79079 8.15155 10.4431 8.15155C11.0954 8.15155 11.626 7.62088 11.626 6.96861C11.626 6.66739 11.8711 6.42233 12.1723 6.42233C12.179 6.42233 12.1855 6.42247 12.1919 6.42266C12.3048 6.42646 12.3864 6.48341 12.4345 6.59179C12.4649 6.66022 12.4994 6.79438 12.3896 6.92408L9.72465 10.0736Z" fill="black"/>
<path d="M18.9593 8.73917C18.9593 4.90147 15.8371 1.77931 11.9994 1.77931C8.16171 1.77931 5.03955 4.90147 5.03955 8.73917C5.03955 8.93375 5.19724 9.09148 5.39186 9.09148C5.58644 9.09148 5.74418 8.93375 5.74418 8.73917C5.74418 5.28997 8.5503 2.48389 11.9994 2.48389C15.4485 2.48389 18.2546 5.28997 18.2546 8.73917C18.2546 12.1884 15.4485 14.9945 11.9994 14.9945C10.5618 14.9945 9.15794 14.4948 8.04649 13.5874C6.95022 12.6924 6.18278 11.4425 5.8855 10.0679C5.84439 9.87786 5.65722 9.75711 5.46672 9.79808C5.27655 9.83919 5.15571 10.0267 5.19686 10.2169C5.52771 11.7468 6.38149 13.1376 7.60089 14.1331C8.83778 15.1429 10.3998 15.699 11.9994 15.699C15.8371 15.699 18.9593 12.5769 18.9593 8.73917Z" fill="black"/>
<path d="M18.6358 18.6938C18.5719 18.51 18.3713 18.4129 18.1873 18.4769C18.0035 18.5408 17.9064 18.7417 17.9704 18.9254L18.855 21.4671L16.4397 21.2142C16.3356 21.2035 16.2317 21.2393 16.1567 21.3127L14.4204 23.0107L12.4903 17.4656C14.1329 17.3742 15.6557 16.8271 16.9344 15.9491L17.5068 17.5935C17.6836 18.0373 18.3034 17.7896 18.1722 17.3618L17.526 15.5053C19.4861 13.9012 20.7394 11.4643 20.7394 8.73984C20.7394 3.92067 16.8187 0 11.9996 0C7.18044 0 3.25977 3.92067 3.25977 8.7398C3.25977 11.4642 4.51306 13.9012 6.47314 15.5053L4.29627 21.7594C4.21648 21.9661 4.39944 22.2587 4.66569 22.2256L7.4682 21.9322L9.4828 23.9023C9.63739 24.0654 9.97653 24.0207 10.0618 23.7662L11.9996 18.199L13.9373 23.7662C14.0116 23.9879 14.3175 24.0894 14.5163 23.9023L16.5309 21.9322L19.3334 22.2256C19.5661 22.2551 19.7864 22.0128 19.7028 21.7595L18.6358 18.6938ZM3.96434 8.7398C3.96434 4.30917 7.56894 0.704578 11.9996 0.704578C16.4302 0.704578 20.0348 4.30917 20.0348 8.7398C20.0348 13.1704 16.4302 16.775 11.9996 16.775C7.56889 16.775 3.96434 13.1705 3.96434 8.7398ZM9.57875 23.0107L7.84245 21.3127C7.7675 21.2394 7.66414 21.2033 7.55942 21.2142L5.14409 21.4671L7.06475 15.9491C8.3435 16.8271 9.86628 17.3742 11.5088 17.4656L9.57875 23.0107Z" fill="black"/>
</g>
<defs>
<clipPath id="clip0_3857_20956">
<rect width="24" height="24" fill="white"/>
</clipPath>
</defs>
</svg>
