<svg width="18" height="24" viewBox="0 0 18 24" fill="none" xmlns="http://www.w3.org/2000/svg">
<path d="M9.00786 11.0572C8.69507 11.0572 8.44063 10.8028 8.44063 10.49C8.44063 9.83769 7.91 9.30702 7.25769 9.30702C6.60538 9.30702 6.07471 9.83764 6.07471 10.49C6.07471 12.1073 7.39054 13.4231 9.00786 13.4231C10.6252 13.4231 11.941 12.1073 11.941 10.49C11.941 9.85499 11.7367 9.24407 11.3605 8.73974C11.7367 8.2355 11.941 7.62463 11.941 6.98957C11.941 6.44858 11.7919 5.9195 11.5096 5.45952C11.4078 5.29363 11.1908 5.24174 11.025 5.3435C10.8592 5.44532 10.8073 5.66221 10.909 5.82805C11.1232 6.17704 11.2364 6.57871 11.2364 6.98957C11.2364 7.55089 11.0261 8.08747 10.6443 8.50063C10.5195 8.63563 10.5195 8.84389 10.6443 8.97889C11.0262 9.392 11.2364 9.92868 11.2364 10.49C11.2364 11.7188 10.2367 12.7185 9.00786 12.7185C7.77904 12.7185 6.77928 11.7188 6.77928 10.49C6.77928 10.2262 6.99388 10.0116 7.25769 10.0116C7.52146 10.0116 7.73605 10.2262 7.73605 10.49C7.73605 11.1913 8.30661 11.7618 9.00786 11.7618C9.70911 11.7618 10.2797 11.1912 10.2797 10.49C10.2797 9.78871 9.70911 9.21814 9.00786 9.21814C8.7441 9.21814 8.5295 9.00355 8.5295 8.73974C8.5295 8.47597 8.7441 8.26138 9.00786 8.26138C9.70916 8.26138 10.2797 7.69082 10.2797 6.98957C10.2797 6.28832 9.70911 5.71775 9.00786 5.71775C8.30661 5.71775 7.73605 6.28832 7.73605 6.98957C7.73605 7.25333 7.52146 7.46793 7.25769 7.46793C6.99388 7.46793 6.77928 7.25333 6.77928 6.98957C6.77928 5.76074 7.77899 4.76104 9.00786 4.76104C9.36214 4.76104 9.70086 4.84204 10.0147 5.00179C10.1881 5.0901 10.4002 5.0211 10.4885 4.84766C10.5767 4.67427 10.5077 4.46216 10.3343 4.37389C9.92057 4.16324 9.47427 4.05646 9.00786 4.05646C7.39054 4.05646 6.07471 5.37229 6.07471 6.98961C6.07471 7.64193 6.60538 8.17255 7.25769 8.17255C7.90996 8.17255 8.44063 7.64193 8.44063 6.98961C8.44063 6.67682 8.69507 6.42238 9.00786 6.42238C9.32066 6.42238 9.5751 6.67682 9.5751 6.98961C9.5751 7.30241 9.32066 7.55685 9.00786 7.55685C8.35555 7.55685 7.82493 8.08747 7.82493 8.73979C7.82493 9.3921 8.35555 9.92277 9.00786 9.92277C9.32066 9.92277 9.5751 10.1772 9.5751 10.49C9.5751 10.8028 9.32066 11.0572 9.00786 11.0572V11.0572Z" fill="black"/>
<path d="M15.9593 8.73922C15.9593 4.90152 12.8371 1.77931 8.99941 1.77931C5.16171 1.77931 2.03955 4.90147 2.03955 8.73922C2.03955 8.9338 2.19724 9.09153 2.39186 9.09153C2.58644 9.09153 2.74418 8.93384 2.74418 8.73922C2.74418 5.29002 5.5503 2.48389 8.99946 2.48389C12.4486 2.48389 15.2547 5.29002 15.2547 8.73922C15.2547 12.1884 12.4486 14.9945 8.99946 14.9945C7.5618 14.9945 6.15794 14.4948 5.04653 13.5875C3.95027 12.6925 3.18283 11.4426 2.8856 10.068C2.84444 9.87791 2.65732 9.75716 2.46677 9.79812C2.2766 9.83928 2.15575 10.0268 2.19686 10.2169C2.52775 11.7469 3.38153 13.1377 4.60094 14.1332C5.83783 15.143 7.39989 15.6991 8.99946 15.6991C12.8371 15.699 15.9593 12.5769 15.9593 8.73922V8.73922Z" fill="black"/>
<path d="M15.6358 18.6937C15.5719 18.51 15.3713 18.4128 15.1873 18.4769C15.0035 18.5408 14.9064 18.7416 14.9704 18.9254L15.855 21.4671L13.4397 21.2142C13.3358 21.2033 13.2317 21.2393 13.1567 21.3127L11.4204 23.0106L9.49034 17.4655C11.1329 17.3742 12.6557 16.8271 13.9344 15.949L14.5068 17.5934C14.5573 17.7388 14.6937 17.83 14.8395 17.83C14.8779 17.83 14.917 17.8237 14.9553 17.8103C15.139 17.7464 15.2361 17.5455 15.1722 17.3618L14.526 15.5052C16.4861 13.9012 17.7394 11.4642 17.7394 8.73975C17.7394 3.92067 13.8187 0 8.99956 0C4.18044 0 0.259766 3.92067 0.259766 8.73984C0.259766 11.4643 1.51306 13.9012 3.47314 15.5053L1.29627 21.7595C1.21648 21.9663 1.39939 22.2588 1.66569 22.2257L4.4682 21.9322L6.4828 23.9023C6.63739 24.0654 6.97653 24.0207 7.06184 23.7663L8.99956 18.199L10.9373 23.7663C11.0117 23.9879 11.3175 24.0894 11.5163 23.9023L13.5309 21.9322L16.3334 22.2257C16.5662 22.2553 16.7864 22.0128 16.7029 21.7595L15.6358 18.6937ZM0.964344 8.73984C0.964344 4.30922 4.56889 0.704578 8.99956 0.704578C13.4302 0.704578 17.0348 4.30917 17.0348 8.73984C17.0348 13.1705 13.4302 16.775 8.99956 16.775C4.56889 16.775 0.964344 13.1705 0.964344 8.73984ZM6.57875 23.0107L4.84245 21.3127C4.7675 21.2394 4.66414 21.2033 4.55942 21.2142L2.14409 21.4672L4.06475 15.9491C5.3435 16.8271 6.86628 17.3742 8.50883 17.4656L6.57875 23.0107Z" fill="black"/>
</svg>
