<svg width="24" height="24" viewBox="0 0 24 24" fill="none" xmlns="http://www.w3.org/2000/svg">
<g clip-path="url(#clip0_3857_20930)">
<path d="M12 17.116L14.2657 23.6257L16.3943 21.5441L19.3553 21.8542L17.1022 15.3809C15.6898 16.4687 13.9206 17.116 12 17.116Z" fill="#FF4755"/>
<path d="M11.9999 17.1151C10.0793 17.1151 8.31011 16.4678 6.89762 15.3801L4.64453 21.8533L7.60553 21.5432L9.73413 23.6248L11.9999 17.1151Z" fill="#FF4755"/>
<path d="M17.4616 16.4135L17.1022 15.3809C15.6898 16.4687 13.9206 17.116 12 17.116L12.3605 18.1516C14.2585 18.0802 16.0128 17.4473 17.4616 16.4135Z" fill="#FC2B3A"/>
<path d="M11.6392 18.1516L11.9997 17.116C10.0791 17.116 8.30996 16.4686 6.89748 15.3809L6.53809 16.4135C7.98694 17.4473 9.74123 18.0802 11.6392 18.1516Z" fill="#FC2B3A"/>
<path d="M17.9153 14.6628C21.1835 11.3945 21.1835 6.09559 17.9153 2.82733C14.647 -0.440938 9.3481 -0.440937 6.07983 2.82733C2.81156 6.09559 2.81156 11.3945 6.07983 14.6628C9.3481 17.931 14.647 17.931 17.9153 14.6628Z" fill="#FFE27A"/>
<path d="M12.0001 16.2712C7.51882 16.2712 3.86018 12.7496 3.64043 8.32288C3.63349 8.46266 3.62988 8.60328 3.62988 8.74475C3.62988 13.3675 7.37735 17.1149 12.0001 17.1149C16.6228 17.1149 20.3703 13.3675 20.3703 8.74475C20.3703 8.60328 20.3666 8.46266 20.3597 8.32288C20.14 12.7496 16.4813 16.2712 12.0001 16.2712Z" fill="#F9CF58"/>
<path d="M16.6595 13.4069C19.2342 10.8323 19.2342 6.65785 16.6595 4.08316C14.0848 1.50847 9.91041 1.50847 7.33572 4.08316C4.76103 6.65785 4.76103 10.8323 7.33572 13.4069C9.91041 15.9816 14.0848 15.9816 16.6595 13.4069Z" fill="#FFBA57"/>
<path d="M11.9997 14.4949C8.49975 14.4949 5.63718 11.768 5.41959 8.32288C5.41078 8.46242 5.40576 8.603 5.40576 8.74475C5.40576 12.3865 8.35795 15.3387 11.9997 15.3387C15.6414 15.3387 18.5936 12.3865 18.5936 8.74475C18.5936 8.603 18.5886 8.46242 18.5797 8.32288C18.3622 11.768 15.4997 14.4949 11.9997 14.4949Z" fill="#FFAC3E"/>
<path d="M12.3759 13.0678C11.9181 13.0678 11.5469 12.6967 11.5469 12.2389V7.18798L11.4212 7.40033C11.1879 7.79422 10.6794 7.92429 10.2855 7.691C9.89159 7.45765 9.76147 6.94925 9.99476 6.55531L11.0168 4.83017C11.166 4.57822 11.4371 4.42372 11.73 4.42372H12.3759C12.8336 4.42372 13.2048 4.79483 13.2048 5.25266V12.2389C13.2048 12.6967 12.8336 13.0678 12.3759 13.0678Z" fill="#FFE27A"/>
<path d="M11.4329 6.53546C11.2129 6.9069 10.7451 7.06792 10.355 6.88309C10.1971 6.80827 10.0754 6.69202 9.99444 6.55477C9.76423 6.94417 9.88887 7.44507 10.2721 7.68179C10.6674 7.92587 11.1955 7.78013 11.4322 7.38048L11.5469 7.18688V6.56673C11.5469 6.50438 11.4647 6.48188 11.4329 6.53546Z" fill="#F9CF58"/>
<path d="M12.3758 12.2235C11.918 12.2235 11.5469 11.8524 11.5469 11.3946V12.2383C11.5469 12.6961 11.918 13.0673 12.3758 13.0673C12.8336 13.0673 13.2048 12.6961 13.2048 12.2383V11.3946C13.2048 11.8524 12.8336 12.2235 12.3758 12.2235Z" fill="#F9CF58"/>
<path d="M13.2071 8.90143C13.4017 8.90143 13.5594 8.74374 13.5594 8.54912V5.24026C13.5594 4.58794 13.0287 4.05732 12.3764 4.05732H11.7292C11.3134 4.05732 10.9234 4.2796 10.7114 4.6374L9.68731 6.36615C9.35497 6.92734 9.54106 7.65437 10.1023 7.9868C10.4468 8.1908 10.8537 8.19952 11.1936 8.04596V12.241C11.1936 12.8933 11.7242 13.424 12.3765 13.424C13.0288 13.424 13.5594 12.8933 13.5594 12.241V9.95827C13.5594 9.76369 13.4017 9.60601 13.2071 9.60601C13.0125 9.60601 12.8548 9.76369 12.8548 9.95827V12.241C12.8548 12.5048 12.6402 12.7194 12.3764 12.7194C12.1127 12.7194 11.8981 12.5048 11.8981 12.241V7.17962C11.8981 7.0209 11.792 6.88177 11.6389 6.83987C11.4858 6.79791 11.3235 6.86349 11.2427 7.00009L11.1167 7.2129C10.9823 7.43982 10.6882 7.51491 10.4613 7.38066C10.2344 7.24623 10.1592 6.95213 10.2935 6.72521L11.3176 4.99651C11.4034 4.8518 11.5611 4.7619 11.7292 4.7619H12.3764C12.6402 4.7619 12.8548 4.97649 12.8548 5.24026V8.54912C12.8548 8.74369 13.0125 8.90143 13.2071 8.90143Z" fill="black"/>
<path d="M18.9593 8.73917C18.9593 4.90152 15.8371 1.77931 11.9994 1.77931C8.16171 1.77931 5.03955 4.90147 5.03955 8.73917C5.03955 8.93375 5.19729 9.09148 5.39186 9.09148C5.58644 9.09148 5.74413 8.9338 5.74413 8.73917C5.74413 5.29002 8.55021 2.48389 11.9994 2.48389C15.4486 2.48389 18.2547 5.29002 18.2547 8.73917C18.2547 12.1884 15.4486 14.9945 11.9994 14.9945C10.5618 14.9945 9.15789 14.4948 8.04644 13.5875C6.95018 12.6925 6.18274 11.4426 5.88546 10.068C5.8443 9.87786 5.65694 9.75664 5.46668 9.79817C5.2765 9.83928 5.15571 10.0268 5.19682 10.2169C5.52771 11.7469 6.38149 13.1377 7.60089 14.1332C8.83778 15.143 10.3998 15.6991 11.9994 15.6991C15.8371 15.699 18.9593 12.5769 18.9593 8.73917Z" fill="black"/>
<path d="M18.6358 18.6937C18.5718 18.51 18.3712 18.4129 18.1873 18.4769C18.0035 18.5408 17.9064 18.7416 17.9704 18.9254L18.855 21.4671L16.4397 21.2142C16.3354 21.2033 16.2317 21.2393 16.1567 21.3127L14.4204 23.0106L12.4903 17.4655C14.1329 17.3742 15.6557 16.8271 16.9344 15.949L17.5068 17.5934C17.6836 18.0372 18.3034 17.7894 18.1722 17.3617L17.526 15.5053C19.4861 13.9012 20.7394 11.4642 20.7394 8.73975C20.7394 3.92067 16.8187 0 11.9996 0C7.18039 0 3.25977 3.92067 3.25977 8.7398C3.25977 11.4643 4.51306 13.9012 6.47314 15.5053L4.29631 21.7594C4.21667 21.9662 4.3992 22.2586 4.66573 22.2256L7.4682 21.9322L9.48284 23.9023C9.63744 24.0653 9.97653 24.0207 10.0618 23.7662L11.9996 18.199L13.9373 23.7663C14.0117 23.9879 14.3175 24.0894 14.5163 23.9023L16.5309 21.9322L19.3334 22.2256C19.5662 22.2553 19.7863 22.0127 19.7028 21.7595L18.6358 18.6937ZM3.96434 8.7398C3.96434 4.30917 7.56894 0.704578 11.9996 0.704578C16.4302 0.704578 20.0348 4.30912 20.0348 8.7398C20.0348 13.1704 16.4302 16.7751 11.9996 16.7751C7.56894 16.7751 3.96434 13.1704 3.96434 8.7398ZM9.5788 23.0107L7.84245 21.3127C7.76745 21.2394 7.66381 21.2034 7.55947 21.2142L5.14414 21.4671L7.06475 15.9491C8.3435 16.8271 9.86628 17.3742 11.5088 17.4656L9.5788 23.0107Z" fill="black"/>
</g>
<defs>
<clipPath id="clip0_3857_20930">
<rect width="24" height="24" fill="white"/>
</clipPath>
</defs>
</svg>
