<svg width="70" height="22" viewBox="0 0 70 22" fill="none" xmlns="http://www.w3.org/2000/svg">
<path d="M55.5867 20.277C55.3956 19.9215 55.2328 19.5514 55.0997 19.1703C54.5696 17.406 54.2695 15.5808 54.2069 13.7397C54.0631 10.9912 54.0151 8.94364 54.0483 6.85183C54.1024 5.14697 54.2862 3.44869 54.598 1.77172C54.6284 1.58449 54.5759 1.39329 54.4541 1.24785C54.3315 1.102 54.1503 1.0182 53.9598 1.01912C53.7642 1.01912 34.5801 1.07446 30.8761 0.878925C27.5558 0.70553 24.217 0.683394 20.9889 0.661195H20.4466C20.1963 0.657704 19.9676 0.802459 19.8637 1.03018C18.3511 4.05906 17.8567 7.30192 17.3808 10.4267C17.082 12.3894 17.3144 14.0754 17.6243 15.92C17.6759 16.2078 17.7128 16.5361 17.7571 16.8829C17.9047 18.0782 18.0707 19.4322 18.6646 20.2992L18.9303 20.7825C19.0503 20.9994 19.284 21.1285 19.5316 21.1145C27.0614 20.7124 36.5207 20.9042 45.6663 21.0887C48.9313 21.1551 52.0155 21.2141 55.0075 21.251C55.2341 21.253 55.4449 21.1354 55.5623 20.9416C55.6797 20.7477 55.6861 20.5064 55.5793 20.3065L55.5867 20.277Z" fill="#FCD400"/>
<path d="M8.74894 1.71258C8.628 1.49423 8.39317 1.36393 8.1439 1.37686C6.59072 1.45802 4.4362 2.38771 3.34786 3.19935C1.41656 4.59277 0.206256 6.77401 0.0459798 9.15012C-0.227025 12.4299 0.732181 15.8461 2.48458 17.8494C3.55518 19.1224 5.10657 19.8935 6.76781 19.9781H6.80101C7.01281 19.9806 7.21221 19.8784 7.33393 19.7051C7.45564 19.5317 7.48401 19.3095 7.40974 19.1111C7.3469 18.9209 7.29395 18.7276 7.2511 18.5319V18.4655C6.85635 16.8201 6.88217 14.9791 6.91538 13.2009V12.1642C6.9412 10.1352 6.96703 8.21674 7.44663 6.29832C7.50197 6.08066 7.55731 5.83348 7.61633 5.56047C7.84876 4.52748 8.16603 3.1145 8.70098 2.38771C8.84227 2.18945 8.86078 1.92882 8.74894 1.71258Z" fill="#FC6E47"/>
<path d="M53.3001 5.85553C53.1673 5.85553 49.9798 5.77806 48.5889 5.68214C46.689 5.54564 43.1805 5.4903 39.7864 5.43496C37.2961 5.39438 34.9424 5.35748 33.5146 5.29108C30.1537 5.13244 26.8149 5.13244 23.3101 5.29108C21.7459 5.36117 19.2704 5.33904 19.1671 5.33535C18.8105 5.33535 18.5215 5.04629 18.5215 4.68973C18.5215 4.33316 18.8105 4.04411 19.1671 4.04411C19.1929 4.04411 21.7127 4.06993 23.2253 3.99984C26.7707 3.8412 30.1463 3.8412 33.5552 3.99984C34.9719 4.06624 37.3146 4.10314 39.7937 4.14372C43.2063 4.19906 46.7369 4.2544 48.6701 4.3909C50.0167 4.48682 53.2854 4.56429 53.3186 4.56429C53.6751 4.56429 53.9642 4.85335 53.9642 5.20991C53.9642 5.56648 53.6751 5.85553 53.3186 5.85553H53.3001Z" fill="#E2B420"/>
<path d="M26.6484 15.9419C25.9475 15.9419 25.2465 15.9419 24.5493 15.8939C23.2875 15.8275 20.8342 15.7316 18.5727 15.8054C18.2176 15.8117 17.9226 15.5331 17.9086 15.1782C17.9026 15.0073 17.9651 14.8411 18.0821 14.7165C18.1992 14.5918 18.3611 14.519 18.5321 14.5142C20.8379 14.4367 23.3281 14.5363 24.6157 14.6027C26.8292 14.7171 29.0907 14.6027 31.2895 14.5068C32.887 14.433 34.5398 14.3555 36.1667 14.3592C41.7818 14.3777 47.4374 14.0678 53.2185 13.7136C53.4549 13.6884 53.686 13.7952 53.82 13.9916C53.954 14.1879 53.9693 14.442 53.8598 14.653C53.7503 14.864 53.5336 14.9978 53.2959 15.0011C47.4964 15.3701 41.8224 15.6726 36.163 15.6505C34.5656 15.6505 32.9312 15.7242 31.3486 15.798C29.7659 15.8718 28.2274 15.9419 26.6484 15.9419Z" fill="#E2B420"/>
<path d="M21.0203 1.57982C21.1212 1.38035 21.1118 1.14287 20.9953 0.952046C20.8789 0.761224 20.672 0.644218 20.4485 0.642747C19.3048 0.642747 18.1574 0.642747 17.0101 0.609544C16.1136 0.609544 15.2097 0.609544 14.3354 0.639058C13.461 0.668572 12.6051 0.67595 11.7529 0.664883C11.5795 0.664883 11.3839 0.664883 11.1589 0.639058C10.2993 0.587408 9.22942 0.52838 8.4805 0.915752C7.20033 1.57613 6.72073 3.72328 6.37025 5.29121C6.31122 5.54577 6.25957 5.78557 6.20792 5.98848C5.68774 8.05815 5.6656 10.0467 5.63609 12.1569V13.1862C5.60657 15.0308 5.57706 16.9677 6.00501 18.7718L6.02346 18.8529C6.1452 19.362 6.31122 20.0556 6.80558 20.4836C7.70945 21.2657 9.28107 21.3874 10.6793 21.3874C11.0187 21.3874 11.3471 21.3874 11.6533 21.3874C11.9595 21.3874 12.2694 21.3874 12.5166 21.3874C14.2468 21.4169 15.586 21.3874 16.8514 21.2878C17.6852 21.2177 18.5706 21.1624 19.5593 21.1071C19.7811 21.0951 19.9811 20.9701 20.089 20.7761C20.1969 20.582 20.1975 20.3461 20.0906 20.1515L19.8065 19.6387C19.7952 19.6165 19.7816 19.5955 19.7659 19.576C19.3454 18.9783 19.1904 17.7314 19.065 16.7168C19.0207 16.3479 18.9801 16.0048 18.9285 15.6986C18.626 13.9019 18.4157 12.3783 18.685 10.6111C19.1203 7.5601 19.5962 4.42423 21.0203 1.57982Z" fill="#EBE8E5"/>
<path d="M9.03694 18.5394C8.68181 18.5333 8.39828 18.2415 8.40239 17.8864V17.5175C8.40634 17.2868 8.53305 17.0758 8.73478 16.9639C8.93652 16.852 9.18262 16.8562 9.3804 16.9749C9.57818 17.0937 9.69758 17.3089 9.69363 17.5396V17.9085C9.68556 18.2637 9.39212 18.5456 9.03694 18.5394Z" fill="#CCC9C6"/>
<path d="M8.55553 14.1269H8.45593C8.28661 14.1006 8.13471 14.0081 8.03368 13.8697C7.93265 13.7313 7.89078 13.5584 7.91729 13.3891C7.95251 13.212 7.93454 13.0284 7.86564 12.8615C7.72404 12.5335 7.87517 12.1528 8.20321 12.0112C8.53125 11.8695 8.91198 12.0207 9.05358 12.3487C9.20894 12.7386 9.25238 13.164 9.17902 13.5772C9.13107 13.8869 8.86878 14.1182 8.55553 14.1269Z" fill="#CCC9C6"/>
<path d="M8.6319 9.46768C8.30678 9.46677 8.03245 9.22555 7.98997 8.90322C7.93158 8.48245 7.99429 8.05375 8.17074 7.66732C8.32254 7.34438 8.70739 7.20563 9.03034 7.35742C9.35328 7.50922 9.49203 7.89407 9.34023 8.21702C9.26865 8.38174 9.24438 8.56315 9.27014 8.7409C9.29745 8.91313 9.25352 9.08906 9.14844 9.22824C9.04337 9.36741 8.88619 9.45785 8.71306 9.47875L8.6319 9.46768Z" fill="#CCC9C6"/>
<path d="M9.2506 4.815C8.95662 4.81567 8.69976 4.61657 8.62711 4.33171C8.55424 4.09291 8.58928 3.8342 8.72303 3.62337C8.84857 3.43719 9.04683 3.3126 9.26904 3.28027C9.61961 3.34128 9.88605 3.62926 9.91966 3.9835C9.95328 4.33775 9.74576 4.6707 9.41292 4.79656C9.35989 4.80997 9.30529 4.81618 9.2506 4.815Z" fill="#CCC9C6"/>
<path d="M16.4586 7.18381C16.2874 7.18186 16.1239 7.11197 16.0042 6.9895C15.8845 6.86704 15.8184 6.70204 15.8204 6.53081V6.40168C15.8192 6.22916 15.8888 6.06369 16.0128 5.9438C16.1369 5.82391 16.3047 5.76007 16.477 5.76713C16.8328 5.77519 17.1157 6.06804 17.1116 6.42382V6.54556C17.1096 6.7168 17.0398 6.88024 16.9173 6.99994C16.7948 7.11963 16.6298 7.18577 16.4586 7.18381Z" fill="#CCC9C6"/>
<path d="M16.0494 12.3407C15.9967 12.348 15.9434 12.348 15.8907 12.3407C15.4558 11.9708 15.2733 11.3831 15.4222 10.8318C15.6327 10.5442 16.035 10.4785 16.3261 10.6843C16.6793 10.9684 16.8178 11.4427 16.6729 11.8722C16.5935 12.1505 16.3387 12.3419 16.0494 12.3407Z" fill="#CCC9C6"/>
<path d="M16.0855 16.8754C15.9143 16.8735 15.7509 16.8036 15.6312 16.6811C15.5115 16.5586 15.4453 16.3936 15.4473 16.2224V15.5915C15.4524 15.235 15.7456 14.9501 16.1022 14.9551C16.4587 14.9602 16.7436 15.2534 16.7385 15.61V16.2409C16.7366 16.4118 16.6666 16.5748 16.544 16.6939C16.4214 16.813 16.2564 16.8784 16.0855 16.8754Z" fill="#CCC9C6"/>
<path d="M16.5856 20.1594C16.2284 20.1533 15.9432 19.8599 15.9473 19.5027V19.2518C15.9534 18.8953 16.2474 18.6112 16.604 18.6173C16.9606 18.6234 17.2447 18.9174 17.2385 19.274V19.5212C17.2366 19.6924 17.1667 19.8558 17.0442 19.9755C16.9218 20.0952 16.7568 20.1614 16.5856 20.1594Z" fill="#CCC9C6"/>
<path d="M17.2968 3.54275C17.1253 3.54082 16.9616 3.4703 16.8424 3.34692C16.7232 3.22355 16.6583 3.05758 16.6623 2.88606V2.76063C16.6684 2.40406 16.9624 2.11996 17.319 2.12607C17.6755 2.13219 17.9596 2.42619 17.9535 2.78276V2.9082C17.9506 3.07943 17.8798 3.2425 17.7566 3.3615C17.6335 3.48051 17.4681 3.54571 17.2968 3.54275Z" fill="#CCC9C6"/>
<path d="M69.9713 10.9953C69.7057 9.62663 68.2005 8.72645 66.8687 7.93694C66.5993 7.77462 66.3374 7.61967 66.0976 7.46472C62.3376 4.97421 58.3604 2.82819 54.2145 1.05279C54.0324 0.974237 53.8243 0.98376 53.6501 1.07862C53.4761 1.17359 53.3562 1.34399 53.3254 1.53977C53.0022 3.29001 52.8122 5.06225 52.7573 6.84124C52.7204 8.95149 52.7573 11.0396 52.9196 13.8213C52.985 15.773 53.305 17.7077 53.8714 19.5765C54.0411 20.0967 54.3363 20.8198 54.9782 21.1039C55.162 21.1839 55.3606 21.2242 55.5611 21.222C56.1452 21.162 56.7099 20.9784 57.2176 20.6833C57.5607 20.5173 57.9185 20.3513 58.3244 20.2037C63.5631 18.2669 67.1786 15.9426 69.3442 13.1056C69.8539 12.5289 70.0834 11.7568 69.9713 10.9953Z" fill="#F7EADC"/>
<path d="M69.9724 10.9941C69.7067 9.62543 68.2015 8.72526 66.8697 7.93575C66.6004 7.77343 66.3385 7.61848 66.0987 7.46353C65.5305 7.0946 64.9919 6.7515 64.4237 6.4084C64.2305 6.28584 63.9865 6.27545 63.7835 6.38113C63.5805 6.48682 63.4492 6.69258 63.4387 6.92121C63.3944 7.72547 63.3022 8.52972 63.21 9.38194C62.9628 11.5955 62.7045 13.8939 63.3096 16.137C63.386 16.4249 63.4821 16.7071 63.5973 16.9818C63.6707 17.1565 63.816 17.291 63.9958 17.3507C64.0592 17.3698 64.1251 17.3798 64.1913 17.3802C64.309 17.3723 64.4225 17.3328 64.5196 17.2659C66.3683 16.1812 68.0026 14.767 69.3415 13.0933C69.8494 12.52 70.0801 11.7525 69.9724 10.9941Z" fill="#3B3B3B"/>
</svg>
