<svg width="33" height="40" viewBox="0 0 33 40" fill="none" xmlns="http://www.w3.org/2000/svg">
<path fill-rule="evenodd" clip-rule="evenodd" d="M8.3798 19.2339C10.5026 21.3626 13.333 22.5322 16.3389 22.5322C22.5435 22.5322 27.5903 17.4795 27.5903 11.2632C27.5903 8.25146 26.4207 5.41521 24.2862 3.28655C22.1634 1.16959 19.3447 0 16.3506 0H16.3389C10.1342 0 5.0874 5.05848 5.0874 11.269C5.0874 14.2749 6.25699 17.1053 8.3798 19.2339ZM16.34 2.57311H16.3517C18.6616 2.57311 20.8312 3.47369 22.4628 5.11112C24.1061 6.7544 25.0125 8.94153 25.0125 11.269C25.0125 16.0643 21.1236 19.9649 16.3341 19.9649C11.5505 19.9649 7.65576 16.0643 7.65576 11.269C7.65576 6.47369 11.5505 2.57311 16.34 2.57311ZM32.9985 40H0.226562L1.71194 26.5789L8.65931 23.7953L9.61253 26.1871L4.09791 28.3918L3.09791 37.4269H30.1271L29.1271 28.3918L23.6125 26.1871L24.5657 23.7953L31.5131 26.5789L32.9985 40ZM11.2959 27.6608L16.5474 33.8187L21.9275 27.6725L19.9918 25.9766L16.5708 29.883L13.2491 25.9941L11.2959 27.6608Z" fill="#191970"/>
</svg>
