<svg width="15" height="13" viewBox="0 0 15 13" fill="none" xmlns="http://www.w3.org/2000/svg">
<path d="M12.69 1.0075C12.54 0.565 12.12 0.25 11.625 0.25H3.375C2.88 0.25 2.4675 0.565 2.31 1.0075L0.75 5.5V11.5C0.75 11.9125 1.0875 12.25 1.5 12.25H2.25C2.6625 12.25 3 11.9125 3 11.5V10.75H12V11.5C12 11.9125 12.3375 12.25 12.75 12.25H13.5C13.9125 12.25 14.25 11.9125 14.25 11.5V5.5L12.69 1.0075ZM3.375 8.5C2.7525 8.5 2.25 7.9975 2.25 7.375C2.25 6.7525 2.7525 6.25 3.375 6.25C3.9975 6.25 4.5 6.7525 4.5 7.375C4.5 7.9975 3.9975 8.5 3.375 8.5ZM11.625 8.5C11.0025 8.5 10.5 7.9975 10.5 7.375C10.5 6.7525 11.0025 6.25 11.625 6.25C12.2475 6.25 12.75 6.7525 12.75 7.375C12.75 7.9975 12.2475 8.5 11.625 8.5ZM2.25 4.75L3.375 1.375H11.625L12.75 4.75H2.25Z" fill="#37B4B4"/>
</svg>
