<svg width="24" height="24" viewBox="0 0 24 24" fill="none" xmlns="http://www.w3.org/2000/svg">
<g clip-path="url(#clip0_3857_20892)">
<path d="M19.5927 16.3555C21.7674 16.3555 23.5302 14.5926 23.5302 12.418C23.5302 10.2434 21.7674 8.48052 19.5927 8.48052C19.0425 8.48052 18.5189 8.59372 18.0433 8.79753C17.7833 5.14036 14.7344 2.25409 11.0109 2.25409C7.11697 2.25409 3.96023 5.41083 3.96023 9.30481C3.96023 9.70025 3.99332 10.0879 4.0559 10.4656C3.85846 10.4243 3.65395 10.4024 3.44432 10.4024C1.80042 10.4024 0.467773 11.735 0.467773 13.3789C0.467773 15.0228 1.80042 16.3555 3.44432 16.3555H19.5927Z" fill="#AAE6FF"/>
<path d="M18.0448 8.79741C18.5204 8.5936 19.044 8.4804 19.5942 8.4804C20.2691 8.4804 20.9042 8.65046 21.4594 8.94966C21.7059 8.47308 21.8459 7.93257 21.8459 7.35906C21.8459 5.44333 20.2929 3.89032 18.3772 3.89032C17.5837 3.89032 16.853 4.15732 16.2686 4.60554C17.2788 5.73494 17.9306 7.19181 18.0448 8.79741Z" fill="#E6AA46"/>
<path d="M22.0542 8.76445C22.2249 8.31727 22.3142 7.83881 22.3142 7.35924C22.3142 5.18809 20.5479 3.42175 18.3767 3.42175C17.6464 3.42175 16.9483 3.61877 16.3341 3.99363C16.2729 3.93227 16.2107 3.87156 16.1471 3.81208C14.7499 2.50516 12.9262 1.7854 11.0119 1.7854C6.86566 1.7854 3.49246 5.15861 3.49246 9.30487C3.49246 9.51435 3.50127 9.72473 3.51885 9.93449C3.49433 9.93398 3.46981 9.9337 3.4453 9.9337C1.54556 9.9337 0 11.4793 0 13.379C0 15.2787 1.54556 16.8243 3.4453 16.8243H10.3951C10.6539 16.8243 10.8638 16.6144 10.8638 16.3555C10.8638 16.0967 10.6539 15.8868 10.3951 15.8868H3.4453C2.06249 15.8868 0.937496 14.7618 0.937496 13.379C0.937496 11.9962 2.06249 10.8712 3.4453 10.8712C3.61677 10.8712 3.7887 10.8889 3.95647 10.9236C5.1146 11.1632 5.9531 12.1922 5.9531 13.3789C5.9531 13.6378 6.16296 13.8477 6.42185 13.8477C6.68074 13.8477 6.8906 13.6378 6.8906 13.3789C6.8906 11.864 5.89531 10.5365 4.47725 10.0918C4.44598 9.83034 4.43 9.56676 4.43 9.30482C4.43 5.67549 7.38264 2.72285 11.012 2.72285C14.4496 2.72285 17.3333 5.40578 17.5768 8.83083C17.5875 8.98214 17.6708 9.11887 17.8003 9.19786C17.9299 9.27679 18.0896 9.28818 18.229 9.22847C18.6612 9.04326 19.1204 8.94933 19.5938 8.94933C21.5064 8.94933 23.0625 10.5054 23.0625 12.4181C23.0625 14.3307 21.5064 15.8868 19.5938 15.8868H14.6718C14.4129 15.8868 14.2031 16.0967 14.2031 16.3555C14.2031 16.6144 14.4129 16.8243 14.6718 16.8243H19.5938C22.0234 16.8243 24 14.8477 24 12.4181C24 10.8989 23.2273 9.55696 22.0542 8.76445ZM18.4449 8.16323C18.2527 6.90118 17.7433 5.71688 16.9656 4.71128C17.3971 4.47986 17.8771 4.35925 18.3768 4.35925C20.031 4.35925 21.3767 5.70503 21.3767 7.35924C21.3767 7.69158 21.3224 8.01361 21.2173 8.32186C20.7146 8.12194 20.1669 8.01188 19.5938 8.01188C19.2018 8.01183 18.8174 8.06259 18.4449 8.16323Z" fill="black"/>
<path d="M12.5776 15.8869C12.4544 15.8869 12.3334 15.9366 12.2462 16.0243C12.159 16.1115 12.1089 16.2324 12.1089 16.3557C12.1089 16.479 12.159 16.5994 12.2462 16.6871C12.3334 16.7743 12.4544 16.8244 12.5776 16.8244C12.7014 16.8244 12.8219 16.7743 12.9095 16.6871C12.9967 16.5999 13.0464 16.479 13.0464 16.3557C13.0464 16.2319 12.9967 16.1115 12.9095 16.0243C12.8219 15.9366 12.7009 15.8869 12.5776 15.8869Z" fill="black"/>
<path d="M22.065 4.13942C22.1849 4.13942 22.3049 4.09367 22.3964 4.00212L23.838 2.56049C24.0211 2.37744 24.0211 2.08063 23.838 1.89754C23.655 1.71449 23.3582 1.71449 23.1751 1.89754L21.7335 3.33917C21.5504 3.52222 21.5504 3.81903 21.7335 4.00212C21.825 4.09367 21.945 4.13942 22.065 4.13942Z" fill="black"/>
<path d="M18.3765 2.69777C18.6354 2.69777 18.8452 2.48792 18.8452 2.22903V1.21484C18.8452 0.955952 18.6354 0.746094 18.3765 0.746094C18.1176 0.746094 17.9077 0.955952 17.9077 1.21484V2.22903C17.9077 2.48792 18.1176 2.69777 18.3765 2.69777Z" fill="black"/>
<path d="M23.5308 6.89026H23.3032C23.0443 6.89026 22.8345 7.10012 22.8345 7.35901C22.8345 7.6179 23.0443 7.82776 23.3032 7.82776H23.5308C23.7897 7.82776 23.9996 7.6179 23.9996 7.35901C23.9996 7.10012 23.7897 6.89026 23.5308 6.89026Z" fill="black"/>
<path d="M3.93123 17.3891C3.74818 17.2061 3.45137 17.2061 3.26833 17.3891L1.83457 18.8228C1.65152 19.0059 1.65147 19.3027 1.83457 19.4857C1.92611 19.5773 2.04607 19.623 2.16602 19.623C2.28597 19.623 2.40597 19.5772 2.49747 19.4857L3.93123 18.052C4.11427 17.8689 4.11427 17.5722 3.93123 17.3891Z" fill="black"/>
<path d="M10.0086 17.3891C9.82557 17.2061 9.52876 17.2061 9.34571 17.3891L7.92099 18.8138C7.73795 18.9968 7.7379 19.2936 7.92099 19.4767C8.01254 19.5682 8.13249 19.614 8.25245 19.614C8.3724 19.614 8.4924 19.5682 8.5839 19.4767L10.0086 18.052C10.1917 17.8689 10.1917 17.5722 10.0086 17.3891Z" fill="black"/>
<path d="M16.0878 17.3891C15.9047 17.2061 15.6079 17.2061 15.4249 17.3891L14.0157 18.7982C13.8327 18.9813 13.8326 19.2781 14.0157 19.4611C14.1073 19.5527 14.2272 19.5984 14.3472 19.5984C14.4671 19.5984 14.5871 19.5526 14.6786 19.4611L16.0878 18.052C16.2708 17.8689 16.2708 17.5722 16.0878 17.3891Z" fill="black"/>
<path d="M5.04231 20.3422L2.93074 22.4537C2.7477 22.6368 2.7477 22.9336 2.93074 23.1167C3.02229 23.2082 3.14224 23.254 3.26219 23.254C3.38215 23.254 3.50215 23.2082 3.59365 23.1167L5.70517 21.0052C5.88821 20.8221 5.88821 20.5253 5.70517 20.3422C5.52217 20.1592 5.22536 20.1592 5.04231 20.3422Z" fill="black"/>
<path d="M11.1194 20.3421L9.00789 22.4536C8.82484 22.6366 8.82484 22.9334 9.00789 23.1165C9.09944 23.2081 9.21939 23.2538 9.33934 23.2538C9.45929 23.2538 9.57929 23.2081 9.67079 23.1165L11.7823 21.005C11.9654 20.822 11.9654 20.5251 11.7823 20.3421C11.5993 20.1591 11.3025 20.1591 11.1194 20.3421Z" fill="black"/>
<path d="M17.1966 20.342L15.085 22.4535C14.902 22.6365 14.902 22.9333 15.085 23.1164C15.1766 23.2079 15.2965 23.2537 15.4165 23.2537C15.5364 23.2537 15.6564 23.2079 15.7479 23.1164L17.8595 21.0049C18.0426 20.8218 18.0426 20.525 17.8595 20.342C17.6765 20.159 17.3797 20.159 17.1966 20.342Z" fill="black"/>
<path d="M21.5032 17.3889L20.11 18.7822C19.9269 18.9652 19.9269 19.262 20.11 19.4451C20.2015 19.5366 20.3215 19.5824 20.4414 19.5824C20.5614 19.5824 20.6814 19.5366 20.7729 19.4451L22.1661 18.0518C22.3492 17.8688 22.3492 17.572 22.1661 17.3889C21.983 17.2059 21.6863 17.2059 21.5032 17.3889Z" fill="black"/>
<path d="M11.491 4.38613C11.4925 4.12724 11.284 3.91607 11.0251 3.91443H11.0112C10.7523 3.91443 10.5425 4.12429 10.5425 4.38318C10.5425 4.64207 10.7523 4.85192 11.0112 4.85192H11.0192C11.0202 4.85192 11.0212 4.85192 11.0222 4.85192C11.2797 4.85197 11.4893 4.64399 11.491 4.38613Z" fill="black"/>
<path d="M15.2883 8.83075C15.3058 9.07768 15.5116 9.26631 15.7553 9.26631C15.7665 9.26631 15.7778 9.26593 15.789 9.26509C16.0473 9.24671 16.2417 9.02251 16.2234 8.76428C16.085 6.81761 14.8852 5.1244 13.0922 4.34534C12.8549 4.24217 12.5787 4.35106 12.4755 4.58848C12.3723 4.8259 12.4812 5.10204 12.7186 5.20521C14.1901 5.84454 15.1747 7.23377 15.2883 8.83075Z" fill="black"/>
</g>
<defs>
<clipPath id="clip0_3857_20892">
<rect width="24" height="24" fill="white"/>
</clipPath>
</defs>
</svg>
