<svg width="49" height="48" viewBox="0 0 49 48" fill="none" xmlns="http://www.w3.org/2000/svg">
<path d="M27.4995 43.9979C28.0302 43.9979 28.5392 44.2088 28.9144 44.584C29.2897 44.9593 29.5005 45.4682 29.5005 45.9989C29.5005 46.5296 29.2897 47.0386 28.9144 47.4138C28.5392 47.7891 28.0302 47.9999 27.4995 47.9999C26.9688 47.9999 26.4599 47.7891 26.0846 47.4138C25.7093 47.0386 25.4985 46.5296 25.4985 45.9989C25.4985 45.4682 25.7093 44.9593 26.0846 44.584C26.4599 44.2088 26.9688 43.9979 27.4995 43.9979ZM20.5005 41.9999C20.7696 41.9895 21.038 42.0335 21.2897 42.1293C21.5414 42.2251 21.7712 42.3707 21.9652 42.5574C22.1593 42.7441 22.3137 42.968 22.4192 43.2158C22.5246 43.4636 22.579 43.7301 22.579 43.9994C22.579 44.2687 22.5246 44.5353 22.4192 44.783C22.3137 45.0308 22.1593 45.2548 21.9652 45.4415C21.7712 45.6282 21.5414 45.7738 21.2897 45.8696C21.038 45.9654 20.7696 46.0094 20.5005 45.9989C19.9836 45.9789 19.4946 45.7595 19.1359 45.3867C18.7773 45.0139 18.577 44.5167 18.577 43.9994C18.577 43.4821 18.7773 42.985 19.1359 42.6122C19.4946 42.2394 19.9836 42.02 20.5005 41.9999ZM34.4985 41.9999C34.7676 41.9895 35.036 42.0335 35.2877 42.1293C35.5394 42.2251 35.7692 42.3707 35.9632 42.5574C36.1573 42.7441 36.3117 42.968 36.4172 43.2158C36.5226 43.4636 36.577 43.7301 36.577 43.9994C36.577 44.2687 36.5226 44.5353 36.4172 44.783C36.3117 45.0308 36.1573 45.2548 35.9632 45.4415C35.7692 45.6282 35.5394 45.7738 35.2877 45.8696C35.036 45.9654 34.7676 46.0094 34.4985 45.9989C33.9816 45.9789 33.4926 45.7595 33.1339 45.3867C32.7753 45.0139 32.575 44.5167 32.575 43.9994C32.575 43.4821 32.7753 42.985 33.1339 42.6122C33.4926 42.2394 33.9816 42.02 34.4985 41.9999ZM27.4995 11.9999C34.8945 11.9999 39.0885 16.7189 39.6975 22.4219H39.8835C44.6415 22.4219 48.4995 26.1329 48.4995 30.7109C48.4995 35.2889 44.6415 38.9999 39.8835 38.9999H15.1155C10.3575 38.9999 6.49952 35.2889 6.49952 30.7109C6.49952 26.1329 10.3575 22.4219 15.1155 22.4219H15.3015C15.9165 16.6799 20.1045 11.9999 27.4995 11.9999ZM27.4995 14.9999C22.5495 14.9999 18.2385 18.8099 18.2385 24.0749C18.2385 24.9089 17.4765 25.5629 16.6035 25.5629H14.9535C11.9415 25.5599 9.49952 27.8999 9.49952 30.7799C9.49952 33.6599 11.9415 35.9999 14.9535 35.9999H40.0455C43.0575 35.9999 45.4995 33.6599 45.4995 30.7799C45.4995 27.8999 43.0575 25.5599 40.0455 25.5599H38.3955C37.5255 25.5629 36.7605 24.9089 36.7605 24.0749C36.7605 18.7439 32.4495 14.9999 27.4995 14.9999ZM5.90852 20.0999C6.0241 20.4322 6.01922 20.7945 5.89474 21.1235C5.77026 21.4526 5.53409 21.7274 5.22752 21.8999L4.97852 22.0079L2.57552 22.8359C2.22089 22.96 1.83262 22.9465 1.48747 22.7981C1.14233 22.6497 0.865453 22.3771 0.711605 22.0343C0.557758 21.6916 0.538141 21.3036 0.656634 20.947C0.775128 20.5905 1.0231 20.2914 1.35152 20.1089L1.59752 20.0009L4.00352 19.1729C4.37947 19.0439 4.79126 19.0694 5.14844 19.2438C5.50563 19.4181 5.779 19.7272 5.90852 20.1029V20.0999ZM21.2595 7.49993C22.2585 7.98593 23.1375 8.61893 23.8815 9.35993C22.6635 9.60893 21.5235 9.98993 20.4735 10.4849C19.1186 9.66939 17.5229 9.34855 15.9581 9.577C14.3932 9.80545 12.9559 10.5691 11.8907 11.7379C10.8254 12.9068 10.1981 14.4086 10.1155 15.9879C10.0329 17.5672 10.5001 19.1263 11.4375 20.3999C10.4475 20.6939 9.51752 21.1229 8.66252 21.6599C7.50186 19.853 6.96424 17.7159 7.13168 15.5748C7.29912 13.4337 8.16243 11.4062 9.58988 9.80167C11.0173 8.1971 12.9305 7.10359 15.0376 6.688C17.1446 6.27241 19.3297 6.55756 21.2595 7.49993ZM3.25052 8.00993L3.49952 8.10593L5.78552 9.21893C6.12252 9.38275 6.386 9.66678 6.52411 10.0151C6.66222 10.3634 6.66496 10.7508 6.53178 11.1011C6.39861 11.4513 6.13916 11.7391 5.80451 11.9076C5.46986 12.0762 5.08423 12.1134 4.72352 12.0119L4.47152 11.9159L2.18552 10.8029C1.84852 10.6391 1.58503 10.3551 1.44692 10.0068C1.30881 9.65842 1.30608 9.27101 1.43925 8.92077C1.57243 8.57052 1.83187 8.2828 2.16653 8.11424C2.50118 7.94567 2.88681 7.90846 3.24752 8.00993H3.25052ZM24.4695 0.884932C24.7854 1.03904 25.0371 1.29917 25.1807 1.61991C25.3244 1.94066 25.3509 2.30166 25.2555 2.63993L25.1595 2.89193L24.0465 5.17793C23.8827 5.51493 23.5987 5.77842 23.2503 5.91653C22.902 6.05464 22.5146 6.05737 22.1644 5.9242C21.8141 5.79102 21.5264 5.53158 21.3578 5.19692C21.1893 4.86227 21.152 4.47664 21.2535 4.11593L21.3495 3.86093L22.4655 1.57493C22.64 1.21793 22.9491 0.94477 23.3248 0.815404C23.7005 0.686039 24.1122 0.711045 24.4695 0.884932ZM13.0995 0.788932L13.2105 1.03493L14.0385 3.44093C14.1602 3.7951 14.1451 4.18198 13.996 4.52553C13.8469 4.86908 13.5747 5.14444 13.2329 5.29748C12.8911 5.45052 12.5044 5.47017 12.1489 5.35256C11.7933 5.23496 11.4946 4.9886 11.3115 4.66193L11.2035 4.41593L10.3755 2.01293C10.2557 1.6596 10.2719 1.2743 10.4209 0.93225C10.5699 0.590199 10.841 0.315946 11.1813 0.16303C11.5216 0.010114 11.9067 -0.0104897 12.2614 0.105241C12.6161 0.220972 12.9149 0.46473 13.0995 0.788932Z" fill="#191970"/>
</svg>
