<svg width="24" height="24" viewBox="0 0 24 24" fill="none" xmlns="http://www.w3.org/2000/svg">
    <g clip-path="url(#clip0_4801_30011)">
        <path d="M19.5927 16.3553C21.7674 16.3553 23.5302 14.5924 23.5302 12.4178C23.5302 10.2432 21.7674 8.48034 19.5927 8.48034C19.0425 8.48034 18.5189 8.59354 18.0433 8.79735C17.7833 5.14018 14.7344 2.25391 11.0109 2.25391C7.11697 2.25391 3.96023 5.41064 3.96023 9.30463C3.96023 9.70006 3.99332 10.0877 4.0559 10.4654C3.85846 10.4241 3.65395 10.4022 3.44432 10.4022C1.80042 10.4022 0.467773 11.7349 0.467773 13.3788C0.467773 15.0227 1.80042 16.3553 3.44432 16.3553H19.5927Z" fill="white"/>
        <path d="M18.0448 8.79723C18.5204 8.59342 19.044 8.48021 19.5942 8.48021C20.2691 8.48021 20.9042 8.65027 21.4594 8.94948C21.7059 8.4729 21.8459 7.93239 21.8459 7.35887C21.8459 5.44315 20.2929 3.89014 18.3772 3.89014C17.5837 3.89014 16.853 4.15714 16.2686 4.60535C17.2788 5.73475 17.9306 7.19162 18.0448 8.79723Z" fill="white"/>
        <path d="M22.0542 8.7647C22.2249 8.31751 22.3142 7.83906 22.3142 7.35948C22.3142 5.18833 20.5479 3.422 18.3767 3.422C17.6464 3.422 16.9483 3.61901 16.3341 3.99387C16.2729 3.93251 16.2107 3.87181 16.1471 3.81232C14.7499 2.50541 12.9262 1.78564 11.0119 1.78564C6.86566 1.78564 3.49246 5.15885 3.49246 9.30512C3.49246 9.5146 3.50127 9.72497 3.51885 9.93474C3.49433 9.93422 3.46981 9.93394 3.4453 9.93394C1.54556 9.93394 0 11.4795 0 13.3792C0 15.279 1.54556 16.8245 3.4453 16.8245H10.3951C10.6539 16.8245 10.8638 16.6147 10.8638 16.3558C10.8638 16.0969 10.6539 15.887 10.3951 15.887H3.4453C2.06249 15.887 0.937496 14.762 0.937496 13.3792C0.937496 11.9964 2.06249 10.8714 3.4453 10.8714C3.61677 10.8714 3.7887 10.8892 3.95647 10.9238C5.1146 11.1634 5.9531 12.1924 5.9531 13.3792C5.9531 13.6381 6.16296 13.8479 6.42185 13.8479C6.68074 13.8479 6.8906 13.6381 6.8906 13.3792C6.8906 11.8642 5.89531 10.5367 4.47725 10.092C4.44598 9.83058 4.43 9.567 4.43 9.30507C4.43 5.67574 7.38264 2.72309 11.012 2.72309C14.4496 2.72309 17.3333 5.40602 17.5768 8.83107C17.5875 8.98238 17.6708 9.11912 17.8003 9.1981C17.9299 9.27704 18.0896 9.28843 18.229 9.22871C18.6612 9.04351 19.1204 8.94957 19.5938 8.94957C21.5064 8.94957 23.0625 10.5056 23.0625 12.4183C23.0625 14.331 21.5064 15.887 19.5938 15.887H14.6718C14.4129 15.887 14.2031 16.0969 14.2031 16.3558C14.2031 16.6147 14.4129 16.8245 14.6718 16.8245H19.5938C22.0234 16.8245 24 14.8479 24 12.4183C24 10.8992 23.2273 9.55721 22.0542 8.7647ZM18.4449 8.16348C18.2527 6.90142 17.7433 5.71713 16.9656 4.71152C17.3971 4.4801 17.8771 4.35949 18.3768 4.35949C20.031 4.35949 21.3767 5.70527 21.3767 7.35948C21.3767 7.69182 21.3224 8.01385 21.2173 8.3221C20.7146 8.12218 20.1669 8.01212 19.5938 8.01212C19.2018 8.01207 18.8174 8.06284 18.4449 8.16348Z" fill="black"/>
        <path d="M12.5776 15.8867C12.4544 15.8867 12.3334 15.9364 12.2462 16.0241C12.159 16.1113 12.1089 16.2322 12.1089 16.3555C12.1089 16.4787 12.159 16.5992 12.2462 16.6869C12.3334 16.7741 12.4544 16.8242 12.5776 16.8242C12.7014 16.8242 12.8219 16.7741 12.9095 16.6869C12.9967 16.5997 13.0464 16.4787 13.0464 16.3555C13.0464 16.2317 12.9967 16.1113 12.9095 16.0241C12.8219 15.9364 12.7009 15.8867 12.5776 15.8867Z" fill="black"/>
        <path d="M22.065 4.13942C22.1849 4.13942 22.3049 4.09367 22.3964 4.00212L23.838 2.56049C24.0211 2.37744 24.0211 2.08063 23.838 1.89754C23.655 1.71449 23.3582 1.71449 23.1751 1.89754L21.7335 3.33917C21.5504 3.52222 21.5504 3.81903 21.7335 4.00212C21.825 4.09367 21.945 4.13942 22.065 4.13942Z" fill="black"/>
        <path d="M18.3765 2.69777C18.6354 2.69777 18.8452 2.48792 18.8452 2.22903V1.21484C18.8452 0.955952 18.6354 0.746094 18.3765 0.746094C18.1176 0.746094 17.9077 0.955952 17.9077 1.21484V2.22903C17.9077 2.48792 18.1176 2.69777 18.3765 2.69777Z" fill="black"/>
        <path d="M23.5308 6.89014H23.3032C23.0443 6.89014 22.8345 7.1 22.8345 7.35889C22.8345 7.61777 23.0443 7.82763 23.3032 7.82763H23.5308C23.7897 7.82763 23.9996 7.61777 23.9996 7.35889C23.9996 7.1 23.7897 6.89014 23.5308 6.89014Z" fill="black"/>
        <path d="M3.93123 17.3892C3.74818 17.2062 3.45137 17.2062 3.26833 17.3892L1.83457 18.823C1.65152 19.006 1.65147 19.3028 1.83457 19.4859C1.92611 19.5774 2.04607 19.6232 2.16602 19.6232C2.28597 19.6232 2.40597 19.5774 2.49747 19.4859L3.93123 18.0521C4.11427 17.869 4.11427 17.5723 3.93123 17.3892Z" fill="black"/>
        <path d="M10.0086 17.3892C9.82557 17.2062 9.52876 17.2062 9.34571 17.3892L7.92099 18.8139C7.73795 18.997 7.7379 19.2938 7.92099 19.4768C8.01254 19.5684 8.13249 19.6141 8.25245 19.6141C8.3724 19.6141 8.4924 19.5683 8.5839 19.4768L10.0086 18.0521C10.1917 17.869 10.1917 17.5723 10.0086 17.3892Z" fill="black"/>
        <path d="M16.0878 17.3892C15.9047 17.2062 15.6079 17.2062 15.4249 17.3892L14.0157 18.7983C13.8327 18.9814 13.8326 19.2782 14.0157 19.4613C14.1073 19.5528 14.2272 19.5985 14.3472 19.5985C14.4671 19.5985 14.5871 19.5528 14.6786 19.4613L16.0878 18.0521C16.2708 17.869 16.2708 17.5723 16.0878 17.3892Z" fill="black"/>
        <path d="M5.04231 20.3423L2.93074 22.4539C2.7477 22.6369 2.7477 22.9338 2.93074 23.1168C3.02229 23.2084 3.14224 23.2541 3.26219 23.2541C3.38215 23.2541 3.50215 23.2084 3.59365 23.1168L5.70517 21.0053C5.88821 20.8223 5.88821 20.5255 5.70517 20.3424C5.52217 20.1593 5.22536 20.1593 5.04231 20.3423Z" fill="black"/>
        <path d="M11.1194 20.3418L9.00789 22.4534C8.82484 22.6364 8.82484 22.9332 9.00789 23.1163C9.09944 23.2079 9.21939 23.2536 9.33934 23.2536C9.45929 23.2536 9.57929 23.2079 9.67079 23.1163L11.7823 21.0048C11.9654 20.8217 11.9654 20.5249 11.7823 20.3418C11.5993 20.1588 11.3025 20.1588 11.1194 20.3418Z" fill="black"/>
        <path d="M17.1966 20.3418L15.085 22.4533C14.902 22.6364 14.902 22.9332 15.085 23.1162C15.1766 23.2078 15.2965 23.2535 15.4165 23.2535C15.5364 23.2535 15.6564 23.2077 15.7479 23.1162L17.8595 21.0047C18.0426 20.8217 18.0426 20.5249 17.8595 20.3418C17.6765 20.1588 17.3797 20.1589 17.1966 20.3418Z" fill="black"/>
        <path d="M21.5032 17.3887L20.11 18.782C19.9269 18.965 19.9269 19.2618 20.11 19.4449C20.2015 19.5364 20.3215 19.5822 20.4414 19.5822C20.5614 19.5822 20.6814 19.5364 20.7729 19.4449L22.1661 18.0516C22.3492 17.8686 22.3492 17.5718 22.1661 17.3887C21.983 17.2057 21.6863 17.2057 21.5032 17.3887Z" fill="black"/>
        <path d="M11.491 4.38625C11.4925 4.12736 11.284 3.91619 11.0251 3.91455H11.0112C10.7523 3.91455 10.5425 4.12441 10.5425 4.3833C10.5425 4.64219 10.7523 4.85205 11.0112 4.85205H11.0192C11.0202 4.85205 11.0212 4.85205 11.0222 4.85205C11.2797 4.85209 11.4893 4.64411 11.491 4.38625Z" fill="black"/>
        <path d="M15.2883 8.8305C15.3058 9.07744 15.5116 9.26606 15.7553 9.26606C15.7665 9.26606 15.7778 9.26569 15.789 9.26484C16.0473 9.24647 16.2417 9.02226 16.2234 8.76403C16.085 6.81737 14.8852 5.12416 13.0922 4.3451C12.8549 4.24192 12.5787 4.35082 12.4755 4.58824C12.3723 4.82566 12.4812 5.1018 12.7186 5.20497C14.1901 5.84429 15.1747 7.23352 15.2883 8.8305Z" fill="black"/>
    </g>
    <defs>
        <clipPath id="clip0_4801_30011">
            <rect width="24" height="24" fill="white"/>
        </clipPath>
    </defs>
</svg>
