<svg width="24" height="24" viewBox="0 0 24 24" fill="none" xmlns="http://www.w3.org/2000/svg">
<path d="M18.7266 1.75781H17.3203V3.16406H18.7266C19.1149 3.16406 19.4297 2.84925 19.4297 2.46094C19.4297 2.07262 19.1149 1.75781 18.7266 1.75781Z" fill="#BDF7F7"/>
<path d="M17.3203 1.75781H15.9141C15.9141 0.981141 15.2845 0.351562 14.5078 0.351562H1.05469C0.666375 0.351562 0.351562 0.666375 0.351562 1.05469C0.351562 1.443 0.666375 1.75781 1.05469 1.75781H2.46094C2.46094 2.53448 3.09052 3.16406 3.86719 3.16406H17.3203C17.7086 3.16406 18.0234 2.84925 18.0234 2.46094C18.0234 2.07262 17.7086 1.75781 17.3203 1.75781Z" fill="white"/>
<path d="M22.9453 5.97656H21.5391V7.38281H22.9453C23.3336 7.38281 23.6484 7.068 23.6484 6.67969C23.6484 6.29137 23.3336 5.97656 22.9453 5.97656Z" fill="#7CF0EE"/>
<path d="M22.2422 6.67969C22.2422 6.29137 21.9274 5.97656 21.5391 5.97656C21.5391 5.19989 20.9095 4.57031 20.1328 4.57031H10.3125C9.53587 4.57031 8.90625 5.19994 8.90625 5.97656H3.86719C3.09052 5.97656 2.46094 6.60614 2.46094 7.38281H1.05469C0.666375 7.38281 0.351562 7.69762 0.351562 8.08594C0.351562 8.47425 0.666375 8.78906 1.05469 8.78906H13.6875C14.4641 8.78906 15.0938 8.15944 15.0938 7.38281H21.5391C21.9274 7.38281 22.2422 7.068 22.2422 6.67969Z" fill="#BDF7F7"/>
<path d="M22.9453 22.2422H21.5391V20.8359H22.9453C23.3336 20.8359 23.6484 21.1507 23.6484 21.5391C23.6484 21.9274 23.3336 22.2422 22.9453 22.2422Z" fill="#7CF0EE"/>
<path d="M22.2422 21.5391C22.2422 21.9274 21.9274 22.2422 21.5391 22.2422C21.5391 23.0189 20.9095 23.6484 20.1328 23.6484H10.3125C9.53587 23.6484 8.90625 23.0188 8.90625 22.2422H3.86719C3.09052 22.2422 2.46094 21.6126 2.46094 20.8359H1.05469C0.666375 20.8359 0.351562 20.5211 0.351562 20.1328C0.351562 19.7445 0.666375 19.4297 1.05469 19.4297H13.6875C14.4641 19.4297 15.0938 20.0593 15.0938 20.8359H21.5391C21.9274 20.8359 22.2422 21.1507 22.2422 21.5391Z" fill="#BDF7F7"/>
<path d="M1.05469 2.10938H2.14467C2.30803 2.9107 3.01833 3.51562 3.86719 3.51562H18.7266C19.3081 3.51562 19.7812 3.04252 19.7812 2.46094C19.7812 1.87936 19.3081 1.40625 18.7266 1.40625H16.2303C16.067 0.604922 15.3567 0 14.5078 0H1.05469C0.473109 0 0 0.473109 0 1.05469C0 1.63627 0.473109 2.10938 1.05469 2.10938ZM1.05469 0.703125H14.5078C15.0894 0.703125 15.5625 1.17623 15.5625 1.75781C15.5625 1.95197 15.7199 2.10938 15.9141 2.10938H18.7266C18.9204 2.10938 19.0781 2.26706 19.0781 2.46094C19.0781 2.65481 18.9204 2.8125 18.7266 2.8125H3.86719C3.28561 2.8125 2.8125 2.33939 2.8125 1.75781C2.8125 1.56366 2.65509 1.40625 2.46094 1.40625H1.05469C0.860812 1.40625 0.703125 1.24856 0.703125 1.05469C0.703125 0.860812 0.860812 0.703125 1.05469 0.703125Z" fill="black"/>
<path d="M1.05469 9.14062H13.6875C14.5364 9.14062 15.2467 8.5357 15.41 7.73438H22.9453C23.5269 7.73438 24 7.26127 24 6.67969C24 6.09811 23.5269 5.625 22.9453 5.625H21.8553C21.692 4.82367 20.9817 4.21875 20.1328 4.21875H10.3125C9.46364 4.21875 8.75334 4.82367 8.58998 5.625H3.86719C3.01833 5.625 2.30803 6.22992 2.14467 7.03125H1.05469C0.473109 7.03125 0 7.50436 0 8.08594C0 8.66752 0.473109 9.14062 1.05469 9.14062V9.14062ZM1.05469 7.73438H2.46094C2.65509 7.73438 2.8125 7.57697 2.8125 7.38281C2.8125 6.80123 3.28561 6.32812 3.86719 6.32812H8.90625C9.10041 6.32812 9.25781 6.17072 9.25781 5.97656C9.25781 5.39498 9.73092 4.92188 10.3125 4.92188H20.1328C20.7144 4.92188 21.1875 5.39498 21.1875 5.97656C21.1875 6.17072 21.3449 6.32812 21.5391 6.32812H22.9453C23.1392 6.32812 23.2969 6.48581 23.2969 6.67969C23.2969 6.87356 23.1392 7.03125 22.9453 7.03125H15.0938C14.8996 7.03125 14.7422 7.18866 14.7422 7.38281C14.7422 7.96439 14.2691 8.4375 13.6875 8.4375H1.05469C0.860812 8.4375 0.703125 8.27981 0.703125 8.08594C0.703125 7.89206 0.860812 7.73438 1.05469 7.73438Z" fill="black"/>
<path d="M22.9453 20.4844H15.41C15.2467 19.683 14.5364 19.0781 13.6875 19.0781H1.05469C0.473109 19.0781 0 19.5512 0 20.1328C0 20.7144 0.473109 21.1875 1.05469 21.1875H2.14467C2.30803 21.9888 3.01828 22.5938 3.86719 22.5938H8.58998C8.75334 23.3951 9.46359 24 10.3125 24H20.1328C20.9817 24 21.692 23.3951 21.8553 22.5938H22.9453C23.5269 22.5938 24 22.1206 24 21.5391C24 20.9575 23.5269 20.4844 22.9453 20.4844ZM22.9453 21.8906H21.5391C21.3449 21.8906 21.1875 22.048 21.1875 22.2422C21.1875 22.8238 20.7144 23.2969 20.1328 23.2969H10.3125C9.73092 23.2969 9.25781 22.8238 9.25781 22.2422C9.25781 22.048 9.10041 21.8906 8.90625 21.8906H3.86719C3.28561 21.8906 2.8125 21.4175 2.8125 20.8359C2.8125 20.6418 2.65509 20.4844 2.46094 20.4844H1.05469C0.860812 20.4844 0.703125 20.3267 0.703125 20.1328C0.703125 19.9389 0.860812 19.7812 1.05469 19.7812H13.6875C14.2691 19.7812 14.7422 20.2544 14.7422 20.8359C14.7422 21.0301 14.8996 21.1875 15.0938 21.1875H22.9453C23.1392 21.1875 23.2969 21.3452 23.2969 21.5391C23.2969 21.7329 23.1392 21.8906 22.9453 21.8906Z" fill="black"/>
<path d="M0.351562 13.0547H12C12.8853 13.0547 13.6055 12.3345 13.6055 11.4492C13.6055 10.5639 12.8853 9.84375 12 9.84375C11.1892 9.84375 10.5041 10.4503 10.4066 11.2546C10.3832 11.4473 10.5206 11.6225 10.7133 11.6459C10.9062 11.6692 11.0813 11.532 11.1046 11.3392C11.1594 10.8875 11.5443 10.5469 12 10.5469C12.4975 10.5469 12.9023 10.9517 12.9023 11.4492C12.9023 11.9468 12.4975 12.3516 12 12.3516H0.351562C0.157406 12.3516 0 12.509 0 12.7031C0 12.8973 0.157406 13.0547 0.351562 13.0547Z" fill="black"/>
<path d="M0.351562 17.2734H17.0742C17.5718 17.2734 17.9766 17.6782 17.9766 18.1758C17.9766 18.6733 17.5718 19.0781 17.0742 19.0781C16.6185 19.0781 16.2336 18.7375 16.1789 18.2858C16.1555 18.0931 15.9804 17.9556 15.7875 17.9791C15.5948 18.0025 15.4575 18.1777 15.4808 18.3705C15.5783 19.1747 16.2634 19.7812 17.0742 19.7812C17.9595 19.7812 18.6797 19.0611 18.6797 18.1758C18.6797 17.2905 17.9595 16.5703 17.0742 16.5703H0.351562C0.157406 16.5703 0 16.7277 0 16.9219C0 17.116 0.157406 17.2734 0.351562 17.2734Z" fill="black"/>
<path d="M0.351562 15.8672H11.2969C11.491 15.8672 11.6484 15.7098 11.6484 15.5156C11.6484 15.3215 11.491 15.1641 11.2969 15.1641H0.351562C0.157406 15.1641 0 15.3215 0 15.5156C0 15.7098 0.157406 15.8672 0.351562 15.8672Z" fill="black"/>
<path d="M21.6914 15.1641H12.7031C12.509 15.1641 12.3516 15.3215 12.3516 15.5156C12.3516 15.7098 12.509 15.8672 12.7031 15.8672H21.6914C22.5767 15.8672 23.2969 16.5874 23.2969 17.4727C23.2969 18.3579 22.5767 19.0781 21.6914 19.0781C20.8061 19.0781 20.0859 18.3579 20.0859 17.4727C20.0859 17.3201 20.1078 17.1681 20.151 17.0209C20.2058 16.8345 20.0991 16.6392 19.9127 16.5845C19.7265 16.5298 19.5311 16.6365 19.4764 16.8228C19.4143 17.0344 19.3828 17.253 19.3828 17.4726C19.3828 18.7456 20.4184 19.7812 21.6914 19.7812C22.9643 19.7812 24 18.7456 24 17.4727C24 16.1997 22.9644 15.1641 21.6914 15.1641V15.1641Z" fill="black"/>
<path d="M21.6914 9.84375C20.4184 9.84375 19.3828 10.8794 19.3828 12.1523C19.3828 12.372 19.4143 12.5906 19.4764 12.8021C19.5311 12.9884 19.7264 13.0951 19.9128 13.0404C20.0991 12.9857 20.2058 12.7904 20.1511 12.6041C20.1079 12.4568 20.086 12.3049 20.086 12.1523C20.086 11.267 20.8062 10.5468 21.6915 10.5468C22.5767 10.5468 23.2969 11.2671 23.2969 12.1523C23.2969 13.0376 22.5767 13.7578 21.6914 13.7578H0.351562C0.157406 13.7578 0 13.9152 0 14.1094C0 14.3035 0.157406 14.4609 0.351562 14.4609H21.6914C22.9644 14.4609 24 13.4253 24 12.1523C24 10.8794 22.9644 9.84375 21.6914 9.84375Z" fill="black"/>
<path d="M0.351562 11.6484H7.93359C8.73483 11.6484 9.38672 10.9965 9.38672 10.1953C9.38672 10.0012 9.22931 9.84375 9.03516 9.84375C8.841 9.84375 8.68359 10.0012 8.68359 10.1953C8.68359 10.6088 8.34712 10.9453 7.93359 10.9453H0.351562C0.157406 10.9453 0 11.1027 0 11.2969C0 11.491 0.157406 11.6484 0.351562 11.6484Z" fill="black"/>
</svg>
