<svg width="24" height="24" viewBox="0 0 24 24" fill="none" xmlns="http://www.w3.org/2000/svg">
<path fill-rule="evenodd" clip-rule="evenodd" d="M21.5058 7.12488C21.5058 8.40729 21.1647 9.61185 20.5681 10.6524C20.7937 10.5469 21.0233 10.4456 21.2554 10.3515C21.7952 10.1309 22.3403 10.12 22.8294 10.3144C23.2787 10.4952 23.6376 10.8369 23.8383 11.2781C24.1493 11.9589 24.0336 12.8656 23.2759 13.4361C23.4288 13.569 23.559 13.7272 23.6547 13.908C23.8888 14.3492 23.9151 14.8826 23.7171 15.3744C23.6639 15.5127 23.5933 15.6429 23.5083 15.7668C23.6014 15.8598 23.681 15.9648 23.7425 16.0832C24.1349 16.8011 23.9232 17.922 22.7598 18.5892C22.5192 18.7275 22.0473 18.9906 21.3928 19.3522C20.6125 19.7844 19.5422 20.3802 18.2793 21.0898C17.2052 21.6919 15.3582 22.0446 12.637 22.1639C10.6201 22.2516 8.70166 22.1838 7.80846 22.1495C7.1928 22.4775 5.90722 23.2145 5.3223 23.7993C5.18668 23.9232 5.00316 24 4.81332 24L4.81241 23.9991C4.77534 23.9991 4.74189 23.9964 4.70482 23.991C4.34364 23.9378 4.16013 23.6526 3.98223 23.3763L3.98159 23.3752C3.86045 23.1864 3.70223 22.9233 3.50153 22.576C3.17426 22.0112 2.73851 21.2255 2.20511 20.2428C1.54275 19.0214 0.891077 17.7927 0.585342 17.2163C0.473775 17.006 0.408275 16.8825 0.405134 16.8778L0.0380859 16.1691L0.792069 15.8896L0.818967 15.8795C0.997608 15.8115 2.02706 15.42 2.82348 15.0163C3.11189 14.8726 3.34604 14.756 3.55215 14.6575C4.17686 14.3528 4.51859 14.1856 5.34309 13.6458C5.90967 13.2732 6.43074 12.7395 6.98294 12.1739L7.01017 12.146C7.71896 11.4173 8.45396 10.6625 9.35259 10.1824C10.2675 9.69692 10.988 9.71952 11.4319 9.82348C12.0168 9.9618 12.4996 10.3207 12.7934 10.8324C13.0167 11.2193 13.1044 11.6632 13.042 12.0782C12.9715 12.561 12.7085 12.9624 12.3016 13.2137C12.0277 13.3837 11.2086 14.0301 10.6436 14.4938C10.8099 14.5282 11.3216 14.5562 12.647 14.1377C13.7197 13.7988 14.9213 13.3022 15.9999 12.8563L16.1394 12.7987L16.168 12.7868C16.5444 12.6302 16.9014 12.4818 17.2188 12.3548C17.2549 12.3404 17.2915 12.3253 17.3287 12.3096C19.129 11.28 20.345 9.34418 20.345 7.12758C20.345 3.83862 17.6663 1.16352 14.3755 1.16352C11.0848 1.16352 8.40603 3.83862 8.40603 7.12758C8.40603 8.07955 8.60042 8.86246 8.9991 9.66165C8.79935 9.73075 8.60805 9.84321 8.41513 9.9566C8.2623 10.0464 8.10845 10.1369 7.94859 10.2068C7.49655 9.27201 7.24522 8.22692 7.24522 7.12488C7.24522 3.19494 10.4438 0 14.3755 0C18.3072 0 21.5058 3.19494 21.5058 7.12488ZM4.95127 22.2533C4.35822 21.2533 3.16848 19.0692 2.03028 16.9167L2.03118 16.914C2.45247 16.7421 2.98586 16.5125 3.44964 16.2756C3.70878 16.1436 3.92586 16.0385 4.11949 15.9447L4.15842 15.9258L4.16994 15.9201C4.79367 15.615 5.21172 15.4106 6.10487 14.8238C6.81093 14.3609 7.41846 13.7362 8.0088 13.1286L8.02464 13.1124C8.68233 12.4377 9.3027 11.8012 10.0032 11.4281C10.8457 10.9815 11.3565 11.1912 11.5545 11.5357C11.6395 11.6822 11.6901 11.9253 11.5491 12.013C11.0654 12.3119 9.74991 13.3907 9.54684 13.5573L9.53485 13.5671L9.36489 13.7081L9.30522 13.9197C9.05661 14.793 9.35041 15.2848 9.64153 15.5415C9.98688 15.8463 10.4868 15.9683 11.1703 15.9086C11.6395 15.8688 12.2045 15.7441 12.9025 15.5325C14.1033 15.1678 15.4967 14.5888 16.6241 14.1202L16.6714 14.1005C17.0557 13.9396 17.4173 13.7904 17.7338 13.6629C18.2907 13.4396 18.8982 13.1115 19.5392 12.7643C20.2569 12.3747 21.0028 11.9705 21.7794 11.6541C22.198 11.4851 22.4547 11.6568 22.5451 11.8575C22.6129 12.004 22.6247 12.211 22.2964 12.3774C21.9902 12.5339 20.1234 13.5499 18.8323 14.2526L18.5139 14.426C18.1749 14.6041 17.892 14.7541 17.666 14.8753C17.4118 15.011 17.2428 15.1013 17.138 15.1583L17.088 15.1856C17.0586 15.2016 17.0364 15.2137 17.0196 15.2233C16.5504 15.4811 16.5729 15.9438 16.7031 16.1898C16.8613 16.4863 17.2547 16.6897 17.6723 16.4781C17.679 16.4743 17.6875 16.4703 17.6973 16.4657C17.7111 16.4591 17.7276 16.4511 17.7455 16.4411L17.8088 16.4086C17.8533 16.3858 17.9044 16.3596 17.9544 16.3335C18.1035 16.254 18.2537 16.1753 18.2537 16.1753L18.2645 16.1699C18.4529 16.0658 18.6658 15.9497 18.8941 15.8253L19.1793 15.6699C19.4952 15.5016 19.8782 15.2985 20.339 15.0541L20.34 15.0535L21.0525 14.6755C21.8526 14.2515 22.3047 14.3817 22.4032 14.5652C22.4855 14.7234 22.3923 15.057 21.9204 15.3111C21.8946 15.3252 21.8583 15.3444 21.8134 15.3681C21.7611 15.3959 21.6969 15.4298 21.6239 15.4692C21.5109 15.5118 21.3951 15.5624 21.2795 15.6221C20.2913 16.1364 19.503 16.5623 18.8078 16.9383C18.5022 17.1047 18.2147 17.2602 17.9318 17.4129C17.9214 17.4201 17.912 17.4249 17.9043 17.4288L17.9004 17.4307C17.8971 17.4326 17.8943 17.4341 17.892 17.4356C17.5502 17.6192 17.5131 17.9445 17.5104 18.0403L17.4996 18.4472L17.8467 18.6624C18.0728 18.8034 18.3215 18.8034 18.5844 18.6678C18.6098 18.6534 18.6495 18.6307 18.7002 18.6054C18.7749 18.5653 18.8712 18.5151 18.9858 18.4552L19.1151 18.3876C19.3506 18.264 19.6404 18.1113 19.9529 17.9468L20.3981 17.7121C21.011 17.3904 21.7343 17.0088 22.1916 16.7657C22.386 16.706 22.4818 16.7376 22.4963 16.7486C22.4991 16.7512 22.5126 16.782 22.5018 16.8442C22.49 16.9093 22.4221 17.1417 22.0524 17.3534C21.8563 17.4651 21.4897 17.669 20.9872 17.9486L20.9859 17.9493L20.7018 18.1073C19.9188 18.5421 18.8484 19.1388 17.5827 19.8475C16.9888 20.1812 15.6363 20.6079 12.5707 20.7408C10.5963 20.8262 8.70165 20.7556 7.83881 20.7234L7.77103 20.7208L7.48806 20.71L7.32442 20.7951C7.25662 20.8295 5.94574 21.5047 4.95127 22.2533ZM14.7503 10.3767C14.0361 10.3767 13.462 10.1615 13.0498 9.73209L13.0489 9.7339C12.6565 9.33251 12.4395 8.77288 12.4052 8.07225H11.6675V7.27848H12.4025V6.99914H11.6675V6.20265H12.4079C12.4558 5.51919 12.6764 4.97043 13.0634 4.57806C13.4846 4.15949 14.0524 3.94794 14.7503 3.94794C15.0522 3.94794 15.3941 3.99044 15.7728 4.07812L15.8967 4.10614L15.7755 5.06355L15.6146 5.01291C15.3317 4.9225 15.0441 4.87731 14.7612 4.87731C14.3516 4.87731 14.047 4.99845 13.8264 5.24706C13.632 5.46946 13.5163 5.79222 13.4792 6.20446H15.0468V7.00094H13.4702V7.28029H15.0468V8.07133H13.4729C13.5009 8.50618 13.6139 8.83166 13.8173 9.06852C14.0379 9.32256 14.3543 9.45003 14.7585 9.45003C15.0668 9.45003 15.3461 9.40482 15.6119 9.31713L15.7755 9.26379L15.8967 10.2185L15.7755 10.2492C15.4365 10.3342 15.0921 10.3767 14.7503 10.3767Z" fill="#657078"/>
</svg>
