<svg width="132" height="104" viewBox="0 0 132 104" fill="none" xmlns="http://www.w3.org/2000/svg">
<g clip-path="url(#clip0)">
<path d="M70.0045 22.0317C74.7541 22.0317 78.6045 18.1814 78.6045 13.4318C78.6045 8.68215 74.7541 4.83182 70.0045 4.83182C65.2549 4.83182 61.4045 8.68215 61.4045 13.4318C61.4045 18.1814 65.2549 22.0317 70.0045 22.0317Z" fill="#00A4E8"/>
<path d="M44.1101 54.8209C44.1101 71.4309 34.2357 77.2305 22.0551 77.2305C9.87438 77.2305 0 71.4309 0 54.8209C0 38.2109 22.0551 17.0803 22.0551 17.0803C22.0551 17.0803 44.1101 38.2109 44.1101 54.8209Z" fill="#F2F2F2"/>
<path d="M21.2516 74.6896L21.4774 60.7886L30.8778 43.591L21.5128 58.6078L21.6143 52.3574L28.0931 39.915L21.6412 50.7033L21.8239 39.4615L28.7614 29.5559L21.8525 37.6938L21.9666 17.0803L21.2496 44.3687L21.3084 43.2431L14.255 32.4465L21.1954 45.4041L20.5382 57.9592L20.5186 57.626L12.3872 46.2642L20.494 58.8032L20.4118 60.3734L20.3971 60.397L20.4038 60.5259L18.7364 92.3793H20.9642L21.2314 75.9264L29.3184 63.4181L21.2516 74.6896Z" fill="#3F3D56"/>
<path d="M109.468 46.1067C109.468 66.3988 97.4043 73.484 82.5235 73.484C67.6426 73.484 55.5793 66.3988 55.5793 46.1067C55.5793 25.8147 82.5235 0 82.5235 0C82.5235 0 109.468 25.8147 109.468 46.1067Z" fill="#F2F2F2"/>
<path d="M81.542 70.38L81.8179 53.3974L93.3021 32.3874L81.8611 50.7333L81.9853 43.0972L89.9002 27.8968L82.0181 41.0765L82.2411 27.3426L90.7167 15.2411L82.2762 25.1829L82.4157 0L81.5396 33.3377L81.6116 31.9624L72.9946 18.7726L81.4735 34.6024L80.6704 49.9407L80.6467 49.5337L70.7126 35.6534L80.6166 50.9719L80.516 52.8901L80.4982 52.919L80.5064 53.0765L78.4693 91.9911H81.1909L81.5175 71.8909L91.397 56.6098L81.542 70.38Z" fill="#3F3D56"/>
<path d="M53.7452 93.5188C76.6027 93.5188 95.1324 92.857 95.1324 92.0407C95.1324 91.2243 76.6027 90.5626 53.7452 90.5626C30.8876 90.5626 12.3579 91.2243 12.3579 92.0407C12.3579 92.857 30.8876 93.5188 53.7452 93.5188Z" fill="#3F3D56"/>
<path d="M111.929 104C122.467 104 131.01 103.188 131.01 102.186C131.01 101.184 122.467 100.372 111.929 100.372C101.391 100.372 92.8481 101.184 92.8481 102.186C92.8481 103.188 101.391 104 111.929 104Z" fill="#3F3D56"/>
<path d="M56.1639 46.6222H51.3264V92.0407H56.1639V46.6222Z" fill="#2F2E41"/>
<path d="M75.9169 56.969H46.2202V48.6378H75.9169L84.5169 52.8034L75.9169 56.969Z" fill="#3F3D56"/>
<path opacity="0.1" d="M75.9169 56.2972H46.2202V56.969H75.9169L84.5169 52.8034L83.8234 52.4675L75.9169 56.2972Z" fill="black"/>
<path d="M31.7079 67.9877H61.4046V59.6565H31.7079L23.1079 63.8221L31.7079 67.9877Z" fill="#3F3D56"/>
<path opacity="0.1" d="M23.8014 63.4862L23.1079 63.8221L31.7079 67.9877H61.4046V67.3159H31.7079L23.8014 63.4862Z" fill="black"/>
<path d="M67.9887 50.2503H62.8826V55.3565H67.9887V50.2503Z" fill="#00A4E8"/>
<path d="M42.3234 66.3752C43.7334 66.3752 44.8765 65.2322 44.8765 63.8221C44.8765 62.4121 43.7334 61.269 42.3234 61.269C40.9133 61.269 39.7703 62.4121 39.7703 63.8221C39.7703 65.2322 40.9133 66.3752 42.3234 66.3752Z" fill="#00A4E8"/>
<path d="M53.7452 54.0128C54.5615 54.0128 55.2233 53.351 55.2233 52.5347C55.2233 51.7183 54.5615 51.0565 53.7452 51.0565C52.9289 51.0565 52.2671 51.7183 52.2671 52.5347C52.2671 53.351 52.9289 54.0128 53.7452 54.0128Z" fill="#00B9B6"/>
<path d="M53.7452 65.0315C54.5615 65.0315 55.2233 64.3697 55.2233 63.5534C55.2233 62.737 54.5615 62.0753 53.7452 62.0753C52.9289 62.0753 52.2671 62.737 52.2671 63.5534C52.2671 64.3697 52.9289 65.0315 53.7452 65.0315Z" fill="#00B9B6"/>
<path d="M43.8015 86.9796C43.8015 89.9988 42.0067 91.053 39.7926 91.053C39.7413 91.053 39.6901 91.0524 39.639 91.0513C39.5364 91.0491 39.4348 91.0442 39.3344 91.0374C37.3362 90.896 35.7837 89.7875 35.7837 86.9796C35.7837 84.0738 39.4971 80.407 39.776 80.1357L39.7765 80.1352C39.7872 80.1247 39.7926 80.1196 39.7926 80.1196C39.7926 80.1196 43.8015 83.9604 43.8015 86.9796Z" fill="#00B9B6"/>
<path d="M39.6467 90.5911L41.113 88.5424L39.6431 90.8161L39.6392 91.0513C39.5366 91.0491 39.435 91.0442 39.3346 91.0374L39.4926 88.0167L39.4914 87.9933L39.4941 87.9889L39.509 87.7036L38.0354 85.4242L39.5136 87.4896L39.517 87.5502L39.6365 85.2679L38.3749 82.9126L39.6519 84.8673L39.7762 80.1357L39.7767 80.1196V80.1352L39.7559 83.8664L41.0119 82.3872L39.7508 84.1878L39.7176 86.2312L40.8902 84.2702L39.7127 86.5319L39.6941 87.6679L41.3966 84.9384L39.6878 88.0644L39.6467 90.5911Z" fill="#3F3D56"/>
<path d="M105.754 98.8822C105.754 98.8822 103.851 100.484 102.85 100.384C101.848 100.284 99.9455 100.284 100.747 101.386C101.548 102.487 104.852 103.088 106.254 103.188C107.656 103.288 110.76 103.388 110.56 102.788C110.36 102.187 110.16 99.3829 109.358 99.1826C108.557 98.9823 105.754 98.8822 105.754 98.8822Z" fill="#575A89"/>
<path d="M116.673 97.3091C116.673 97.3091 115.271 99.3637 114.28 99.5364C113.289 99.7091 111.456 100.22 112.524 101.066C113.591 101.912 116.936 101.602 118.313 101.322C119.69 101.042 122.707 100.304 122.353 99.779C121.998 99.2541 121.052 96.6073 120.226 96.6297C119.401 96.6521 116.673 97.3091 116.673 97.3091Z" fill="#575A89"/>
<path d="M104.639 67.9256C104.639 67.9256 103.35 76.7518 103.651 78.354C103.951 79.9562 104.151 82.4597 104.151 82.4597C104.151 82.4597 103.951 84.5626 104.151 85.5639C104.352 86.5653 105.553 96.0784 105.553 96.2787C105.553 96.4789 105.353 97.0798 105.553 97.5805C105.754 98.0811 106.154 97.6806 105.553 98.4817C104.952 99.2828 105.353 99.4831 105.453 99.4831C105.553 99.4831 109.459 99.8836 109.659 99.4831C109.859 99.0825 109.559 98.9824 109.659 98.4817C109.759 97.981 109.859 97.8809 110.059 97.7807C110.26 97.6806 110.66 97.8809 110.36 97.3802C110.059 96.8795 109.358 96.2787 109.559 95.9782C109.759 95.6778 109.459 93.4748 109.459 93.4748C109.459 93.4748 109.258 88.5681 109.158 85.5639C109.058 82.5598 110.059 79.4555 110.059 79.4555C110.184 81.9135 111.097 84.266 112.663 86.1648C115.267 89.269 116.568 95.077 116.568 95.077C116.568 95.077 117.169 95.9782 116.869 96.7794C116.568 97.5805 115.667 97.0798 116.568 97.5805C117.47 98.0811 120.574 97.3802 120.874 97.0798C121.175 96.7794 120.474 96.3788 120.674 95.5777C120.874 94.7766 121.675 94.9769 120.974 94.5763C120.273 94.1758 120.073 94.2759 120.073 93.8754C120.073 93.4748 118.271 84.7628 115.467 82.2594L115.267 73.1469C115.267 73.1469 117.77 66.7381 115.166 66.1372C112.563 65.5364 104.639 67.9256 104.639 67.9256Z" fill="#2F2E41"/>
<path d="M106.454 44.2072C106.454 44.2072 108.157 48.413 107.756 49.0138C107.356 49.6146 112.663 47.011 112.663 47.011C112.663 47.011 110.961 42.8052 110.961 42.3046C110.961 41.8039 106.454 44.2072 106.454 44.2072Z" fill="#A0616A"/>
<path d="M107.706 45.2586C109.752 45.2586 111.411 43.5998 111.411 41.5535C111.411 39.5072 109.752 37.8484 107.706 37.8484C105.66 37.8484 104.001 39.5072 104.001 41.5535C104.001 43.5998 105.66 45.2586 107.706 45.2586Z" fill="#A0616A"/>
<path d="M112.663 45.3087C112.663 45.3087 110.059 45.0083 108.758 46.6105C107.456 48.2127 107.256 48.6132 107.256 48.6132C107.256 48.6132 104.151 53.6201 104.752 56.1235C104.899 56.3496 105.032 56.5836 105.153 56.8245C105.353 57.225 105.353 62.8327 105.153 63.734C104.952 64.6352 104.752 64.9356 104.952 66.2374C105.153 67.5392 103.35 69.6421 105.453 70.0426C107.556 70.4432 109.158 70.1428 109.859 69.2415C110.56 68.3403 109.959 67.7395 112.162 67.7395C114.365 67.7395 115.767 66.2374 115.767 66.2374C115.767 66.2374 114.666 65.0358 115.066 64.8355C115.467 64.6352 115.066 64.1345 114.866 63.6338C114.666 63.1332 114.666 62.7326 114.966 62.7326C115.267 62.7326 115.066 62.5323 114.866 62.0316C114.666 61.531 118.371 52.9191 116.168 50.4157C113.965 47.9122 112.863 46.5103 112.863 46.5103C112.863 46.5103 113.264 45.0083 112.663 45.3087Z" fill="#00A4E8"/>
<path d="M106.955 54.8217V59.2278L103.751 69.8423C103.751 69.8423 101.648 75.3499 103.751 75.3499C105.854 75.3499 105.741 70.0931 105.741 70.0931L110.26 62.1317C110.26 62.1317 112.062 55.8231 111.862 55.3224C111.662 54.8217 106.955 54.8217 106.955 54.8217Z" fill="#A0616A"/>
<path d="M108.657 48.3128C108.657 48.3128 105.653 49.5144 106.454 52.7188C107.256 55.9232 106.454 55.8231 106.454 55.8231C106.454 55.8231 110.56 55.4225 111.862 56.3238L112.162 55.1221C112.162 55.1221 113.364 48.2126 108.657 48.3128Z" fill="#00A4E8"/>
<path d="M106.441 38.772C106.21 38.854 105.962 38.8772 105.719 38.8395C105.477 38.8018 105.248 38.7043 105.052 38.5559C104.675 38.2449 104.515 37.6711 104.737 37.2353C104.928 36.859 105.339 36.6526 105.732 36.4986C106.599 36.1593 107.513 35.953 108.442 35.8866C108.885 35.8551 109.35 35.8601 109.746 36.0625C109.941 36.1626 110.111 36.3071 110.305 36.4108C110.661 36.6015 111.076 36.6439 111.461 36.7667C111.854 36.8952 112.216 37.1067 112.521 37.3871C112.826 37.6674 113.067 38.01 113.228 38.3916C113.333 38.6508 113.406 38.9216 113.446 39.1982C113.561 39.9556 113.481 40.7298 113.212 41.4473C112.786 42.5839 111.89 43.5774 111.84 44.7904C111.292 44.3929 111.089 43.6753 110.649 43.1601C110.323 42.7792 109.877 42.5204 109.384 42.4259C109.247 42.4176 109.116 42.3698 109.007 42.2884C108.93 42.197 108.882 42.0853 108.869 41.9669L108.494 40.1966C108.418 39.8364 108.321 39.4436 108.025 39.2246C107.841 39.1067 107.631 39.033 107.414 39.0094C106.897 38.919 106.373 38.8713 105.848 38.8666" fill="#2F2E41"/>
</g>
<defs>
<clipPath id="clip0">
<rect width="131.01" height="104" fill="white"/>
</clipPath>
</defs>
</svg>
