<svg width="24" height="24" viewBox="0 0 24 24" fill="none" xmlns="http://www.w3.org/2000/svg">
<g clip-path="url(#clip0_3841:20694)">
<path d="M19.9688 23.2492H4.03125C2.84231 23.2492 1.875 22.282 1.875 21.093V9.74829C1.875 9.3341 2.21077 8.99829 2.625 8.99829C3.03923 8.99829 3.375 9.3341 3.375 9.74829V21.093C3.375 21.4549 3.66938 21.7492 4.03125 21.7492H19.9688C20.3306 21.7492 20.625 21.4549 20.625 21.093V9.74829C20.625 9.3341 20.9608 8.99829 21.375 8.99829C21.7892 8.99829 22.125 9.3341 22.125 9.74829V21.093C22.125 22.2819 21.1577 23.2492 19.9688 23.2492Z"/>
<path d="M23.2502 12.3727C23.0583 12.3727 22.8664 12.2995 22.7199 12.153L13.3923 2.8255C12.6247 2.05788 11.3758 2.05788 10.6081 2.8255L1.28058 12.1531C0.987701 12.446 0.512811 12.446 0.219936 12.1531C-0.0729863 11.8602 -0.0729863 11.3853 0.219936 11.0924L9.5475 1.76482C10.8999 0.412379 13.1006 0.412379 14.453 1.76482L23.7805 11.0924C24.0735 11.3853 24.0735 11.8601 23.7805 12.153C23.6341 12.2995 23.4422 12.3727 23.2502 12.3727Z"/>
<path d="M15 23.248H9C8.58577 23.248 8.25 22.9122 8.25 22.498V15.8418C8.25 14.5495 9.30141 13.498 10.5938 13.498H13.4062C14.6986 13.498 15.75 14.5495 15.75 15.8418V22.498C15.75 22.9122 15.4142 23.248 15 23.248ZM9.75 21.748H14.25V15.8418C14.25 15.3766 13.8715 14.998 13.4062 14.998H10.5938C10.1285 14.998 9.75 15.3766 9.75 15.8418V21.748Z"/>
</g>
<defs>
<clipPath id="clip0_3841:20694">
<rect width="24" height="24" fill="white"/>
</clipPath>
</defs>
</svg>
