<svg width="24" height="22" viewBox="0 0 24 22" fill="none" xmlns="http://www.w3.org/2000/svg">
<path d="M19.3552 21.6142H4.64371C3.54622 21.6142 2.65332 20.7213 2.65332 19.6238V9.15178C2.65332 8.76945 2.96326 8.45947 3.34563 8.45947C3.728 8.45947 4.03794 8.76945 4.03794 9.15178V19.6238C4.03794 19.9578 4.30967 20.2296 4.64371 20.2296H19.3552C19.6893 20.2296 19.961 19.9578 19.961 19.6238V9.15178C19.961 8.76945 20.271 8.45947 20.6533 8.45947C21.0357 8.45947 21.3456 8.76945 21.3456 9.15178V19.6238C21.3456 20.7213 20.4528 21.6142 19.3552 21.6142Z" fill="#191970"/>
<path d="M22.3844 11.5744C22.2072 11.5744 22.03 11.5068 21.8949 11.3716L13.2848 2.76159C12.5762 2.05301 11.4233 2.05301 10.7148 2.76159L2.1047 11.3716C1.83435 11.642 1.39599 11.642 1.12564 11.3716C0.855254 11.1013 0.855254 10.6629 1.12564 10.3926L9.7357 1.78249C10.9841 0.534091 13.0155 0.534091 14.2638 1.78249L22.8739 10.3925C23.1443 10.6629 23.1443 11.1012 22.8739 11.3716C22.7388 11.5068 22.5616 11.5744 22.3844 11.5744Z" fill="#191970"/>
<path d="M14.7689 21.6133H9.23039C8.84802 21.6133 8.53809 21.3033 8.53809 20.921V14.7767C8.53809 13.5838 9.50861 12.6133 10.7015 12.6133H13.2977C14.4906 12.6133 15.4612 13.5838 15.4612 14.7767V20.921C15.4612 21.3033 15.1512 21.6133 14.7689 21.6133ZM9.9227 20.2287H14.0765V14.7767C14.0765 14.3473 13.7271 13.9979 13.2977 13.9979H10.7015C10.2721 13.9979 9.9227 14.3473 9.9227 14.7767V20.2287Z" fill="#191970"/>
</svg>
