<svg width="50" height="48" viewBox="0 0 50 48" fill="none" xmlns="http://www.w3.org/2000/svg">
<path d="M47.6018 24.0862C47.6018 37.2425 37.0262 47.9075 23.9796 47.9075C10.9346 47.9075 0.35791 37.2425 0.35791 24.0862C0.35791 10.9299 10.9346 0.265453 23.9796 0.265453C37.0262 0.265453 47.6018 10.9299 47.6018 24.0862Z" fill="#23333C"/>
<path d="M8.26184 11.7949L8.25962 11.7983C8.26073 11.7972 8.26128 11.7961 8.26184 11.7949ZM18.2446 42.4173C18.2452 42.4173 18.2452 42.4173 18.2457 42.4173C18.2452 42.4173 18.2452 42.4173 18.2446 42.4173ZM27.2791 44.5305C27.4968 44.5305 27.6663 44.6661 27.7413 44.7266C27.7557 44.7378 27.7707 44.7507 27.7852 44.7602C28.0902 44.9221 28.4591 44.9131 28.7574 44.7255C29.0468 44.544 29.2063 44.2381 29.1952 43.8879C29.1529 42.5557 29.3529 41.1215 31.1557 40.5798C31.3024 40.5361 31.4868 40.3563 31.6652 40.1826C31.7574 40.093 31.8496 40.0039 31.9429 39.9232C32.6991 39.2717 33.4307 39.2386 34.2446 39.8185C34.6624 40.1165 35.2018 40.2891 35.7729 40.4717C35.8968 40.5115 36.0202 40.5507 36.1418 40.5916C36.4246 40.6857 36.7196 40.7546 37.0324 40.828C37.3757 40.9081 37.7307 40.991 38.0807 41.1131C38.4624 41.2459 38.8335 41.4067 39.1924 41.5619C39.7407 41.8 40.2585 42.0235 40.7918 42.1473C41.4624 42.3014 41.8307 41.9159 42.423 41.2201C42.5385 41.0846 42.6546 40.9484 42.7746 40.8179C43.3102 40.2369 43.9279 39.7434 44.5257 39.2661C44.8563 39.0022 45.1974 38.7294 45.5141 38.4493C45.4607 38.4341 45.4068 38.4157 45.3529 38.3927C45.2441 38.3462 45.1346 38.3003 45.0246 38.2543C44.4641 38.0218 43.8835 37.7809 43.3824 37.3944C43.1963 37.251 43.0835 37.0089 43.0474 36.6756C43.0091 36.3215 43.0541 35.8011 43.3068 35.4986C43.5324 35.2291 43.6435 35.0061 43.6202 34.8706C43.6063 34.7871 43.5118 34.6056 43.0407 34.3283C42.6396 34.0924 42.3474 33.4437 42.4396 32.9933C42.5413 32.4963 43.1374 32.1753 43.4891 32.0902C44.0702 31.9496 44.1474 31.8033 44.1479 31.8017C44.1479 31.8011 44.1635 31.6767 43.9313 31.3591C43.5068 30.7787 43.0263 30.1204 43.1657 29.4123C43.2202 29.1339 43.3596 28.8868 43.5891 28.665C43.5868 28.6616 43.5852 28.6588 43.5829 28.6554C43.4024 28.372 43.2463 28.1271 43.1157 27.8515C43.0263 27.6627 42.9646 27.4285 42.9102 27.2218C42.9018 27.191 42.8924 27.1552 42.8824 27.1193C42.4518 27.1238 42.4446 27.2101 42.4235 27.4571C42.3841 27.926 42.2135 28.2498 41.9168 28.419C41.4924 28.6605 41.0141 28.4846 40.6013 28.2801C40.3518 28.1568 40.2424 27.8571 40.3524 27.6C40.4546 27.3619 40.5491 27.1148 40.6402 26.875C40.8529 26.3154 41.0735 25.7367 41.4129 25.2235C41.7368 24.735 42.1418 24.321 42.5335 23.921C42.7724 23.6767 42.9974 23.4465 43.2041 23.2022C43.4596 22.8997 43.7091 22.5776 43.7963 22.2711C43.9491 21.7367 44.2035 20.8454 45.4513 21.0342C45.5879 20.9888 45.8557 20.754 45.8996 20.6364C45.9791 20.3966 45.9918 20.0997 46.0052 19.7854C46.0218 19.3837 46.0396 18.968 46.1946 18.5636C46.3224 18.2308 46.3974 17.8638 46.4768 17.475C46.6702 16.526 46.8896 15.451 47.9674 14.712C48.0052 14.6857 48.0274 14.6633 48.0385 14.6487C48.0163 14.6229 47.9541 14.5748 47.8313 14.5496C47.6113 14.5053 47.3835 14.4745 47.1418 14.4414C46.5779 14.3641 45.9946 14.2846 45.4607 14.0224C45.3029 13.9445 45.0752 13.9025 44.8335 13.8582C44.2179 13.7445 43.2146 13.5591 43.0152 12.354C42.9324 12.3266 42.8218 12.2952 42.7007 12.2689C42.4691 12.2185 42.1941 12.1972 41.9029 12.1742C41.2002 12.1187 40.4729 12.0616 40.0496 11.5658C39.8591 11.3423 39.5585 11.1501 39.2402 10.9468C38.6763 10.5854 37.9657 10.1305 37.7802 9.32323C37.6435 9.39662 37.4979 9.4532 37.3368 9.48009C36.9107 9.55348 36.4091 9.24536 36.2024 9.07337C35.9774 8.88401 35.8613 8.67729 35.8574 8.45824C35.8491 7.96637 35.6996 7.81847 34.9668 7.58149C34.5596 7.44984 34.1718 7.08905 33.8157 6.50866C33.5841 6.13331 33.4118 5.72603 33.2452 5.33163C33.2357 5.30922 33.2263 5.28681 33.2163 5.2644C32.8718 5.35012 32.5691 5.33555 32.2996 5.22183C31.7379 4.98597 31.5274 4.4123 31.3585 3.95124C31.3318 3.87953 31.3063 3.8095 31.2807 3.7434C31.1791 3.74171 31.0785 3.73891 30.9791 3.73611C30.5124 3.72211 30.0724 3.70978 29.6646 3.77253C29.5752 3.79157 29.3785 3.95236 29.3424 4.03751C29.2352 4.54228 29.1835 5.07729 29.1285 5.64368C29.0991 5.94284 29.0691 6.25264 29.0291 6.55964C29.0035 6.75572 28.9257 7.12435 28.6879 7.39942C27.7379 8.49634 26.4402 8.65824 25.2952 8.8011C25.1835 8.81511 25.0718 8.82911 24.9613 8.84367C24.4485 8.91202 24.4057 8.98877 24.4135 9.35012C24.4252 9.89241 24.1929 10.3798 23.7768 10.6868C23.3085 11.0325 22.6618 11.112 22.0468 10.8991C21.8868 10.8442 21.7279 10.7826 21.5696 10.721C21.2802 10.6089 21.0063 10.5025 20.7341 10.4409L20.6363 10.419C19.9307 10.2622 18.8791 10.028 18.8046 8.72827C18.7735 8.70698 18.7363 8.68457 18.7035 8.66945C18.4702 8.5658 18.2229 8.47225 17.9285 8.36469L18.5007 13.2543C18.5218 13.4347 18.4491 13.6129 18.3085 13.7266C18.1679 13.8398 17.9796 13.8722 17.8096 13.8117C17.6663 13.7602 17.5424 13.7115 17.4313 13.6672C17.2535 13.5972 17.1246 13.5456 17.0152 13.5277C16.7879 13.4896 16.5596 13.437 16.3391 13.386C15.8168 13.2655 15.3235 13.1512 14.9368 13.2459C14.4752 13.358 13.8863 13.4465 13.4246 13.1322C13.1107 12.9182 12.9224 12.572 12.8491 12.0739C12.8096 11.8056 12.7113 11.6661 12.6385 11.6274C12.5941 11.6045 12.5335 11.6112 12.4591 11.6487C11.4852 12.1378 10.5124 12.051 9.65462 11.9742C9.20462 11.9333 8.78017 11.8947 8.36795 11.9328C8.32017 11.9367 8.26795 11.9389 8.21406 11.9412C8.19906 11.9417 8.18128 11.9423 8.1635 11.9434C8.0885 12.0566 7.98462 12.2179 7.9435 12.3171C8.07017 12.5792 8.27628 12.8381 8.4935 13.1103C8.60573 13.2515 8.71906 13.3938 8.82739 13.5423C8.93017 13.6834 8.95684 13.8672 8.89739 14.0325C8.8385 14.1972 8.70184 14.3215 8.53295 14.3636L8.18573 14.4504L8.62573 15.0627C10.0313 14.9877 11.0424 15.8162 12.0224 16.6179C12.0846 16.6689 12.1479 16.7204 12.2113 16.772L12.9429 16.7003C13.0996 16.6851 13.2546 16.7423 13.3652 16.8554C13.4757 16.9686 13.5291 17.126 13.5113 17.2835L13.4946 17.4252L13.8241 17.4459C13.9785 17.456 14.1202 17.5344 14.2113 17.6605C14.3029 17.7865 14.3341 17.9468 14.2963 18.0986C14.1368 18.7412 14.2335 18.8795 14.2341 18.8806C14.2535 18.8947 14.3741 18.9299 14.6457 18.8857C14.7918 18.8616 14.9418 18.9025 15.0568 18.9966C15.1724 19.0907 15.2418 19.2302 15.2496 19.3798C15.2546 19.4896 15.2568 19.5888 15.2596 19.6806C15.2641 19.847 15.2674 19.9781 15.2857 20.0919C15.3046 20.2101 15.3441 20.3412 15.3857 20.4801C15.4074 20.5529 15.4296 20.6263 15.4502 20.7008C15.4896 20.8459 15.4657 21.0017 15.3841 21.1283C15.3146 21.2358 15.2085 21.3131 15.0874 21.3473C15.3335 21.6823 15.5102 22.0459 15.6752 22.3865C16.1157 23.2935 16.3907 23.7675 17.3691 23.7792C17.5213 23.7809 17.6657 23.8498 17.7635 23.968C17.8613 24.0868 17.9024 24.2426 17.8763 24.3944C17.8307 24.6599 17.7841 24.9187 17.7379 25.1725C17.6252 25.7989 17.5179 26.3905 17.4502 26.9792C17.4341 27.1182 17.4924 27.3159 17.5368 27.3664C18.2046 28.0235 18.7913 28.8157 18.5541 30.1389C18.5141 30.3608 18.3385 30.5322 18.1168 30.5652C17.8963 30.5977 17.6785 30.4851 17.5768 30.284L17.1152 29.3714L16.4985 31.7535L16.9552 32.0229C17.1129 32.1154 17.2107 32.2846 17.2135 32.4689C17.2163 32.6526 17.1235 32.8246 16.9691 32.9221C16.8285 33.0112 16.6863 33.0812 16.5607 33.1428C16.4707 33.1877 16.3385 33.2526 16.2846 33.2935C16.0052 33.9759 15.7474 34.6863 15.4979 35.3736C15.2752 35.9888 15.0446 36.6246 14.7968 37.2459C14.6385 37.6426 14.4174 37.9933 14.1829 38.3652C14.1779 38.3725 14.1735 38.3804 14.1685 38.3876L14.6957 38.6179C14.9102 38.7109 15.0363 38.9372 15.0052 39.1708L14.9252 39.7731C15.5279 39.9496 16.0285 40.279 16.5168 40.5994C17.0952 40.9798 17.6418 41.3384 18.2907 41.3669C18.6174 41.3815 18.7852 41.6398 18.8752 41.7787C18.8896 41.8017 18.9035 41.8246 18.9191 41.8437C19.0591 42.0039 19.5218 42.1714 20.1313 42.1776C20.7129 42.1742 21.2591 42.0341 21.4596 41.8134C21.6491 41.605 21.9674 41.5848 22.1813 41.768C22.3929 41.9496 22.6818 42.0857 22.9879 42.2302C23.6507 42.5423 24.5235 42.954 24.7207 44.0644C25.1691 44.0896 25.5629 44.2594 25.9002 44.4045C26.4046 44.6218 26.7074 44.7372 27.0557 44.5798C27.1341 44.5445 27.2091 44.5305 27.2791 44.5305ZM28.2468 45.926C27.9191 45.926 27.5891 45.8448 27.2824 45.6806C27.2568 45.6672 27.2335 45.6526 27.2113 45.6381C26.5441 45.8252 25.9663 45.5759 25.4907 45.3708C25.0857 45.1972 24.7357 45.0459 24.3746 45.1445C24.2157 45.1882 24.0452 45.1524 23.9157 45.0493C23.7863 44.9456 23.7129 44.7871 23.7179 44.6201C23.7441 43.786 23.3341 43.5535 22.5468 43.1826C22.3163 43.0739 22.0807 42.9624 21.8568 42.8235C21.4291 43.0829 20.8318 43.2297 20.1674 43.2297C20.1518 43.2297 20.1363 43.2291 20.1207 43.2291C19.2485 43.2201 18.5063 42.9613 18.1352 42.5372C18.0957 42.4913 18.0618 42.4437 18.0329 42.4C17.2002 42.3031 16.5374 41.8678 15.9479 41.4801C15.4024 41.1221 14.8874 40.7837 14.2813 40.7092C14.1424 40.693 14.0168 40.6207 13.9313 40.5092C13.8463 40.3983 13.8085 40.2571 13.8274 40.1176L13.9196 39.4246L13.2013 39.1109C13.0641 39.051 12.9591 38.935 12.9129 38.7916C12.8663 38.6487 12.8829 38.4919 12.9591 38.3624C13.0752 38.163 13.1913 37.9781 13.3029 37.8011C13.5196 37.4571 13.7068 37.1596 13.8296 36.8532C14.0713 36.2476 14.2991 35.6201 14.5191 35.0129C14.7768 34.3019 15.0435 33.5675 15.3374 32.8521C15.4046 32.6885 15.5141 32.5658 15.6418 32.4666L15.6313 32.4605C15.4296 32.3417 15.3307 32.1019 15.3902 31.8739L16.3335 28.228C16.3746 28.0706 16.4835 27.9445 16.6252 27.8806C16.4379 27.5619 16.3807 27.1552 16.4146 26.8582C16.4863 26.2353 16.5963 25.6274 16.7124 24.9837C16.7252 24.9131 16.7385 24.8414 16.7513 24.7686C15.5529 24.5255 15.1068 23.6067 14.7391 22.8487C14.4641 22.2823 14.2041 21.7473 13.6707 21.4515C13.4746 21.3423 13.3696 21.1199 13.4096 20.8975C13.4491 20.675 13.6257 20.5031 13.8474 20.4706L14.2846 20.4067C14.2735 20.3585 14.2641 20.3092 14.2563 20.2588C14.2396 20.154 14.2307 20.0532 14.2252 19.9484C13.9068 19.9159 13.6524 19.7966 13.4657 19.5916C13.1835 19.2812 13.1341 18.8666 13.1729 18.4577L12.8807 18.4392C12.7385 18.4297 12.6057 18.3619 12.5141 18.2515C12.4229 18.1412 12.3802 17.9972 12.3963 17.8543L12.4018 17.8095L12.1018 17.8392C11.9668 17.8526 11.8324 17.8123 11.7268 17.7277C11.6052 17.6302 11.4846 17.5322 11.3652 17.4341C10.4063 16.6498 9.57684 15.9714 8.45239 16.135C8.26128 16.1624 8.06962 16.0812 7.95628 15.9232L6.88851 14.4358C6.78684 14.2947 6.76184 14.1115 6.82128 13.9473C6.88073 13.7832 7.01739 13.6599 7.18517 13.6173L7.49906 13.5395C7.28517 13.2633 7.08128 12.972 6.94295 12.6358C6.75239 12.1753 7.07739 11.6874 7.3385 11.2958L7.39295 11.214C7.59073 10.9131 7.94128 10.8997 8.1735 10.8907C8.20962 10.8891 8.24462 10.8879 8.27628 10.8851C8.78017 10.8403 9.27128 10.884 9.74684 10.9266C10.5374 10.9977 11.2841 11.0644 11.9941 10.7081C12.3729 10.5176 12.7735 10.5131 13.1207 10.6958C13.5263 10.9087 13.7957 11.3434 13.8802 11.9199C13.9063 12.0969 13.9541 12.2241 14.0079 12.261C14.0407 12.2835 14.1868 12.3468 14.6929 12.2235C15.3179 12.0722 15.9552 12.219 16.5713 12.3613C16.7863 12.4112 16.9891 12.4577 17.1852 12.4907C17.2474 12.5008 17.3074 12.5143 17.3663 12.5305L16.7941 7.64088C16.7729 7.45936 16.8468 7.27897 16.9891 7.16637C17.1318 7.0532 17.3224 7.02238 17.4929 7.08681C17.7107 7.16804 17.9046 7.23863 18.0813 7.3025C18.4863 7.44984 18.8057 7.56636 19.1235 7.70754C19.2441 7.76076 19.8463 8.05432 19.8429 8.56805C19.8391 9.11034 20.0324 9.20838 20.8613 9.3927L20.9613 9.4151C21.3091 9.49354 21.6318 9.61902 21.9441 9.74003C22.0902 9.79662 22.2368 9.85376 22.3846 9.90474C22.6774 10.0056 22.9679 9.98093 23.1613 9.83807C23.3052 9.73219 23.3757 9.57589 23.3713 9.37309C23.3413 7.99829 24.4191 7.85544 24.8252 7.80166C24.9391 7.78653 25.0529 7.77197 25.1668 7.75796C26.2202 7.62687 27.2146 7.5025 27.9029 6.70754C27.9279 6.67841 27.9757 6.57533 27.9957 6.42351C28.0329 6.13331 28.0624 5.83191 28.0907 5.5406C28.1463 4.96973 28.2041 4.37925 28.3285 3.79774C28.4407 3.27449 29.0435 2.80446 29.5079 2.73331C30.0079 2.65656 30.5163 2.67057 31.0079 2.68513C31.2063 2.69073 31.4079 2.69633 31.6135 2.69633C31.7991 2.69633 31.9707 2.79606 32.0641 2.95796C32.1785 3.15684 32.2585 3.37532 32.3357 3.58653C32.4352 3.85656 32.5579 4.19157 32.7002 4.25152C32.8035 4.29465 33.0213 4.24816 33.2835 4.12827C33.5452 4.00838 33.8535 4.12435 33.9735 4.38765C34.0546 4.56693 34.1302 4.74451 34.2041 4.91931C34.3624 5.29354 34.5118 5.64648 34.7013 5.9546C34.9485 6.35684 35.1652 6.54171 35.2857 6.58037C35.8574 6.76524 36.7985 7.07056 36.8924 8.28457C36.9763 8.34731 37.1146 8.41959 37.1907 8.43751C37.3241 8.39942 37.5102 8.2504 37.6913 8.10642C37.8141 8.00838 37.9407 7.90754 38.0835 7.81006C38.2685 7.68401 38.5124 7.69073 38.6902 7.82687C38.8685 7.96356 38.9402 8.19886 38.8696 8.4123C38.5929 9.2448 38.9546 9.51874 39.7991 10.0588C40.1674 10.2947 40.5485 10.5384 40.8402 10.8801C40.9824 11.047 41.5613 11.093 41.9841 11.126C42.2963 11.1507 42.6191 11.1764 42.9185 11.2409C43.6824 11.405 44.0035 11.6308 44.0263 12.0196C44.0607 12.6162 44.3091 12.6924 45.0213 12.8241C45.3213 12.8795 45.6313 12.9367 45.9174 13.0779C46.3007 13.2655 46.7774 13.3311 47.2818 13.3994C47.5285 13.433 47.7841 13.4683 48.0357 13.5193C48.5796 13.6285 48.9757 13.9848 49.0691 14.4493C49.1546 14.8773 48.9624 15.3008 48.5535 15.5815C47.8257 16.0801 47.6735 16.8252 47.4979 17.6868C47.4135 18.1008 47.3257 18.5288 47.1668 18.9428C47.0735 19.186 47.0607 19.4986 47.0468 19.8302C47.0307 20.2033 47.0146 20.5893 46.8874 20.9708C46.7174 21.4829 45.9502 22.1826 45.3246 22.0778C44.9546 22.0162 44.9546 22.0162 44.7979 22.563C44.6557 23.0605 44.3291 23.4919 43.9974 23.8846C43.7663 24.158 43.5168 24.4123 43.2757 24.6588C42.9024 25.0414 42.5485 25.4022 42.2802 25.8078C42.1863 25.949 42.1029 26.1003 42.0252 26.2588C42.4196 26.0459 42.8996 26.0633 43.1763 26.0728L43.2263 26.0745C43.6902 26.0902 43.8107 26.5479 43.9174 26.9512C43.9579 27.1059 44.0091 27.298 44.0568 27.3989C44.1591 27.6145 44.2918 27.8229 44.4602 28.0874C44.5441 28.219 44.6341 28.3602 44.7291 28.5165C44.8013 28.6358 44.8241 28.7792 44.7913 28.9154C44.7585 29.051 44.6735 29.1686 44.5552 29.2409C44.4029 29.3339 44.2157 29.4745 44.1879 29.6162C44.1385 29.87 44.5035 30.3703 44.7707 30.7361C44.9152 30.9339 45.3546 31.535 45.1268 32.1624C44.9091 32.7641 44.2268 32.9927 43.7329 33.1126C43.6479 33.1327 43.5413 33.1927 43.4779 33.242C43.5002 33.312 43.5468 33.4 43.5824 33.4313C43.9791 33.6638 44.5396 34.0599 44.6479 34.6919C44.7268 35.1529 44.5529 35.6336 44.1174 36.1596C44.0779 36.251 44.0657 36.4885 44.0902 36.6145C44.4696 36.8874 44.9329 37.0795 45.4213 37.2829C45.5352 37.3299 45.6485 37.377 45.7607 37.4252C45.8329 37.456 45.9652 37.4661 46.0929 37.4762C46.1824 37.4834 46.2724 37.4907 46.3596 37.5036C46.5229 37.5271 46.6657 37.6274 46.7446 37.7742C46.8229 37.9204 46.8279 38.0963 46.7574 38.247C46.7257 38.3154 46.7002 38.3899 46.6741 38.4644C46.5918 38.6958 46.4896 38.9826 46.2546 39.1927C45.9024 39.5075 45.5318 39.8039 45.1729 40.0902C44.5802 40.5641 44.0202 41.0112 43.5385 41.5333C43.4274 41.6538 43.3202 41.7798 43.2141 41.9053C42.6179 42.605 41.8763 43.4745 40.5591 43.1714C39.9335 43.0274 39.3479 42.7736 38.7813 42.5283C38.4241 42.3736 38.0863 42.2269 37.7407 42.1064C37.4418 42.0028 37.1285 41.9299 36.7968 41.8521C36.4752 41.777 36.1424 41.6991 35.8135 41.5893C35.6963 41.5501 35.5768 41.512 35.4579 41.4739C34.8357 41.275 34.1929 41.0689 33.6429 40.6773C33.1924 40.3557 32.9835 40.4101 32.6207 40.7221C32.5424 40.7893 32.4657 40.8644 32.3891 40.9389C32.1329 41.1882 31.8429 41.4706 31.4535 41.5871C30.4996 41.8739 30.1924 42.4459 30.2374 43.8538C30.2602 44.5781 29.9129 45.2381 29.3091 45.6179C28.9818 45.8235 28.6157 45.926 28.2468 45.926Z" fill="#37B4B4"/>
<path d="M27.2789 44.5305C27.4967 44.5305 27.6661 44.6661 27.7417 44.7266C27.7556 44.7378 27.7706 44.7507 27.785 44.7602C28.09 44.9221 28.4589 44.9132 28.7572 44.7255C29.0467 44.5434 29.2061 44.2381 29.195 43.8879C29.1528 42.5557 29.3528 41.1216 31.1556 40.5798C31.3022 40.5361 31.4867 40.3563 31.665 40.1826C31.7572 40.093 31.8495 40.0039 31.9434 39.9232C32.6989 39.2717 33.4306 39.2386 34.2445 39.8185C34.6628 40.1165 35.2017 40.2891 35.7728 40.4717C35.8967 40.5115 36.02 40.5507 36.1417 40.5916C36.4245 40.6857 36.7195 40.7546 37.0322 40.828C37.3756 40.9081 37.7306 40.991 38.0806 41.1126C38.4622 41.2459 38.8334 41.4067 39.1922 41.5619C39.7406 41.7994 40.2584 42.0235 40.7917 42.1473C41.4622 42.3014 41.8306 41.916 42.4228 41.2202C42.5384 41.0846 42.6545 40.9484 42.7745 40.8179C43.31 40.237 43.9278 39.7434 44.5256 39.2661C44.8561 39.0022 45.1972 38.7294 45.5139 38.4493C45.4606 38.4342 45.4067 38.4151 45.3528 38.3921C45.2439 38.3456 45.1345 38.3003 45.0245 38.2543C44.4639 38.0218 43.8834 37.7809 43.3822 37.3944C43.1961 37.251 43.0834 37.009 43.0472 36.6756C43.0089 36.3216 43.0539 35.8005 43.3067 35.498C43.5322 35.2291 43.6434 35.0062 43.62 34.8706C43.6061 34.7871 43.5117 34.6056 43.0406 34.3283C42.6395 34.0924 42.3478 33.4437 42.4395 32.9933C42.5411 32.4963 43.1372 32.1753 43.4889 32.0902C44.07 31.9496 44.1472 31.8033 44.1478 31.8017C44.1478 31.8011 44.1634 31.6767 43.9311 31.3591C43.5067 30.7787 43.0261 30.1204 43.1656 29.4123C43.22 29.1339 43.3595 28.8868 43.5889 28.665C43.5867 28.6616 43.585 28.6583 43.5828 28.6555C43.4022 28.372 43.2461 28.1272 43.1156 27.8515C43.0261 27.6627 42.9645 27.4286 42.91 27.2218C42.9017 27.191 42.8922 27.1552 42.8822 27.1193C42.4522 27.1238 42.4445 27.2101 42.4234 27.4571C42.3839 27.926 42.2134 28.2493 41.9167 28.419C41.4922 28.6605 41.0139 28.484 40.6011 28.2801C40.3517 28.1563 40.2422 27.8571 40.3522 27.6C40.4545 27.3619 40.5489 27.1148 40.64 26.8751C40.8528 26.3154 41.0734 25.7367 41.4128 25.2235C41.7367 24.735 42.1417 24.321 42.5334 23.9204C42.7722 23.6767 42.9972 23.4465 43.2039 23.2022C43.4595 22.8997 43.7089 22.577 43.7961 22.2711C43.9489 21.7367 44.2034 20.8454 45.4511 21.0342C45.5878 20.9888 45.8556 20.754 45.8995 20.6364C45.9789 20.3961 45.9917 20.0997 46.005 19.7854C46.0217 19.3837 46.0395 18.9681 46.1945 18.563C46.3223 18.2308 46.3972 17.8639 46.4767 17.4751C46.67 16.526 46.8895 15.451 47.9672 14.712C48.005 14.6857 48.0272 14.6633 48.0384 14.6487C48.0161 14.623 47.9539 14.5748 47.8311 14.5496C47.6111 14.5053 47.3834 14.4745 47.1417 14.4414C46.5778 14.3641 45.9945 14.2846 45.4606 14.0224C45.3028 13.9445 45.075 13.9025 44.8334 13.8583C44.2178 13.7445 43.2145 13.5591 43.015 12.354C42.9322 12.3266 42.8222 12.2947 42.7006 12.2689C42.4689 12.2185 42.1939 12.1972 41.9028 12.1742C41.2 12.1188 40.4728 12.0611 40.0495 11.5658C39.8595 11.3423 39.5589 11.1501 39.24 10.9468C38.6761 10.5854 37.9656 10.1305 37.78 9.32323C37.6434 9.39663 37.4978 9.45321 37.3367 9.4801C36.9106 9.55349 36.4089 9.24537 36.2022 9.07281C35.9772 8.88402 35.8611 8.6773 35.8572 8.45825C35.8489 7.96581 35.6995 7.81847 34.9667 7.5815C34.5595 7.44984 34.1717 7.08906 33.8156 6.50867C33.5839 6.13276 33.4117 5.72548 33.245 5.33164C33.2356 5.30923 33.2261 5.28682 33.2167 5.26442C32.8717 5.34957 32.5689 5.33556 32.2995 5.22184C31.7378 4.98598 31.5272 4.41231 31.3584 3.95125C31.3317 3.87954 31.3061 3.80951 31.2806 3.7434C31.1789 3.74116 31.0784 3.73892 30.9789 3.73612C30.5122 3.72211 30.0722 3.70979 29.6645 3.77254C29.575 3.79158 29.3784 3.95237 29.3422 4.03752C29.235 4.54229 29.1834 5.0773 29.1284 5.64312C29.0989 5.94284 29.0689 6.25265 29.0289 6.55965C29.0034 6.75573 28.9256 7.12436 28.6878 7.39943C27.7378 8.49635 26.44 8.65825 25.295 8.80111C25.1834 8.81511 25.0717 8.82912 24.9611 8.84369C24.4484 8.91147 24.4056 8.98878 24.4134 9.35013C24.425 9.89242 24.1928 10.3798 23.7767 10.6868C23.3089 11.0325 22.6617 11.112 22.0467 10.8991C21.8867 10.8442 21.7278 10.7826 21.5695 10.721C21.28 10.609 21.0061 10.5025 20.7339 10.4409L20.6361 10.419C19.9306 10.2622 18.8789 10.028 18.8045 8.72828C18.7734 8.70699 18.7367 8.68458 18.7034 8.66945C18.47 8.56581 18.2228 8.47226 17.9284 8.36469L18.5006 13.2543C18.5217 13.4347 18.4489 13.6129 18.3089 13.7266C18.1678 13.8398 17.9795 13.8717 17.8095 13.8118C17.6661 13.7602 17.5422 13.7115 17.4311 13.6672C17.2534 13.5972 17.1245 13.5456 17.015 13.5277C16.7878 13.4896 16.5595 13.437 16.3389 13.386C15.8167 13.2655 15.3234 13.1512 14.9367 13.2459C14.475 13.358 13.8861 13.4465 13.4245 13.1322C13.1106 12.9182 12.9222 12.572 12.8489 12.0739C12.8095 11.8056 12.7111 11.6655 12.6384 11.6274C12.5939 11.6045 12.5334 11.6112 12.4589 11.6487C11.485 12.1378 10.5122 12.0504 9.65447 11.9742C9.20447 11.9333 8.78003 11.8947 8.3678 11.9322C8.32003 11.9367 8.2678 11.9389 8.21391 11.9412C8.19891 11.9417 8.18169 11.9423 8.16336 11.9434C8.08836 12.0566 7.98503 12.2179 7.94336 12.3171C8.07003 12.5793 8.27614 12.8381 8.49336 13.1104C8.60558 13.2515 8.71891 13.3938 8.82725 13.5423C8.93003 13.6835 8.95669 13.8672 8.89725 14.0325C8.83836 14.1972 8.70169 14.3216 8.5328 14.3636L8.18558 14.4504L8.62558 15.0627C10.0311 14.9877 11.0422 15.8162 12.0222 16.6179C12.0845 16.6689 12.1478 16.7204 12.2111 16.772L12.9428 16.7003C13.0995 16.6846 13.2545 16.7417 13.365 16.8554C13.4756 16.9686 13.5289 17.126 13.5111 17.2835L13.4945 17.4252L13.8239 17.4459C13.9784 17.456 14.12 17.5344 14.2117 17.6605C14.3028 17.7865 14.3339 17.9468 14.2961 18.0986C14.1367 18.7412 14.2334 18.8795 14.2345 18.8807C14.2534 18.8947 14.3739 18.93 14.6456 18.8857C14.7917 18.8616 14.9417 18.9019 15.0567 18.9966C15.1722 19.0907 15.2417 19.2302 15.2495 19.3793C15.2545 19.4896 15.2567 19.5888 15.2595 19.6807C15.2639 19.847 15.2672 19.9781 15.2856 20.0919C15.3045 20.2101 15.3439 20.3412 15.3856 20.4801C15.4072 20.5529 15.4295 20.6263 15.45 20.7008C15.4895 20.8459 15.4656 21.0017 15.3839 21.1283C15.3145 21.2358 15.2084 21.3132 15.0872 21.3473C15.3334 21.6823 15.51 22.0459 15.675 22.3865C16.1156 23.2935 16.3906 23.7669 17.3689 23.7787C17.5217 23.7804 17.6656 23.8498 17.7634 23.9681C17.8611 24.0868 17.9022 24.2426 17.8761 24.3944C17.8306 24.6599 17.7839 24.9188 17.7378 25.1725C17.625 25.7989 17.5178 26.3905 17.45 26.9793C17.4339 27.1176 17.4922 27.316 17.5367 27.3664C18.2045 28.0235 18.7911 28.8157 18.5539 30.1389C18.5139 30.3608 18.3384 30.5322 18.1167 30.5653C17.8961 30.5972 17.6784 30.4851 17.5767 30.284L17.115 29.3714L16.4984 31.7535L16.955 32.023C17.1128 32.1154 17.2106 32.2846 17.2134 32.4689C17.2161 32.6526 17.1234 32.8246 16.9689 32.9221C16.8284 33.0112 16.6861 33.0812 16.5611 33.1428C16.4706 33.1871 16.3384 33.2526 16.2845 33.293C16.005 33.9759 15.7472 34.6863 15.4978 35.3737C15.275 35.9888 15.0445 36.6246 14.7967 37.2459C14.6384 37.6426 14.4172 37.9933 14.1828 38.3653C14.1778 38.3725 14.1734 38.3798 14.1684 38.3877L14.6956 38.6179C14.91 38.7109 15.0361 38.9372 15.005 39.1709L14.925 39.7731C15.5278 39.9496 16.0289 40.279 16.5167 40.5994C17.095 40.9798 17.6417 41.3384 18.2906 41.3669C18.6172 41.3809 18.785 41.6398 18.875 41.7787C18.8895 41.8011 18.9034 41.8246 18.9189 41.8437C19.0589 42.0039 19.5217 42.1714 20.1311 42.1776C20.7128 42.1737 21.2589 42.0336 21.4595 41.8129C21.6489 41.605 21.9672 41.5849 22.1811 41.7681C22.3928 41.9496 22.6817 42.0857 22.9878 42.2302C23.6506 42.5423 24.5239 42.9541 24.7211 44.0644C25.1689 44.0896 25.5628 44.2594 25.9 44.4039C26.4045 44.6218 26.7072 44.7372 27.0556 44.5798C27.1339 44.544 27.2089 44.5305 27.2789 44.5305Z" fill="white"/>
<path d="M25.3118 18.9369C27.9074 18.9369 30.0118 21.0591 30.0118 23.6764C30.0118 26.2938 30.2301 26.514 25.3118 31.4736C20.3935 26.514 20.6118 26.2938 20.6118 23.6764C20.6118 21.0591 22.7162 18.9369 25.3118 18.9369Z" fill="#23333C"/>
<path d="M25.3121 24.8828C24.5937 24.8828 24.0093 24.2934 24.0093 23.569C24.0093 22.8447 24.5937 22.2553 25.3121 22.2553C26.0304 22.2553 26.6148 22.8447 26.6148 23.569C26.6148 24.2934 26.0304 24.8828 25.3121 24.8828ZM25.3121 17.7136C22.0515 17.7136 19.3993 20.3887 19.3993 23.6766L19.3982 23.9909C19.3882 26.8211 19.6993 27.5438 24.4548 32.3388C24.6915 32.5774 25.0015 32.6968 25.3121 32.6968C25.6226 32.6968 25.9332 32.5774 26.1698 32.3388C30.9248 27.5438 31.2365 26.8211 31.2259 23.9909L31.2254 23.6766C31.2254 20.3887 28.5726 17.7136 25.3121 17.7136ZM25.3121 26.1057C26.7015 26.1057 27.8276 24.9702 27.8276 23.569C27.8276 22.1679 26.7015 21.0324 25.3121 21.0324C23.9232 21.0324 22.7965 22.1679 22.7965 23.569C22.7965 24.9702 23.9232 26.1057 25.3121 26.1057ZM25.3121 18.9371C27.9076 18.9371 30.0121 21.0587 30.0121 23.6766C30.0121 26.294 30.2304 26.5141 25.3121 31.4738C20.3937 26.5141 20.6121 26.294 20.6121 23.6766C20.6121 21.0587 22.7165 18.9371 25.3121 18.9371Z" fill="#37B4B4"/>
</svg>
