<svg width="143" height="46" viewBox="0 0 143 46" fill="none" xmlns="http://www.w3.org/2000/svg">
<g clip-path="url(#clip0)">
<path d="M55.2061 7.24302H57.684L61.0612 12.0592C61.5008 12.6846 61.8205 13.1884 62.1203 13.7123H62.1602C62.4208 13.2078 62.7597 12.6443 63.1794 11.9786L66.2376 7.24302H68.7355V20.5234H65.997V13.3899C65.997 12.866 65.997 12.2614 66.017 11.7972H65.997C65.8372 12.1398 65.3176 12.9063 65.0978 13.2481L62.7405 16.9156H61.5008L58.843 13.1279C58.5632 12.7451 58.2435 12.3219 57.9637 11.8173H57.9238C57.9445 12.2808 57.9445 12.8854 57.9445 13.3085V20.5234H55.2061V7.24302Z" fill="#21313B"/>
<path d="M77.8863 15.7291C77.8863 14.117 77.2277 12.928 75.8081 12.928C74.3893 12.928 73.7098 14.117 73.7098 15.7291C73.7098 17.3412 74.3893 18.551 75.8081 18.551C77.2277 18.551 77.8863 17.3412 77.8863 15.7291ZM70.9521 15.7291C70.9521 12.8474 72.9105 10.7517 75.8081 10.7517C78.6857 10.7517 80.6448 12.8474 80.6448 15.7291C80.6448 18.6115 78.6857 20.7266 75.8081 20.7266C72.9305 20.7266 70.9521 18.6115 70.9521 15.7291Z" fill="#21313B"/>
<path d="M88.7979 15.6082C88.7979 14.0767 87.8787 12.9885 86.4591 12.9885C85.8396 12.9885 85.4807 13.1094 85.1802 13.2102V18.3495C85.5199 18.4696 85.8796 18.4906 86.1801 18.4906C87.798 18.4906 88.7979 17.3016 88.7979 15.6082ZM82.4824 20.0213V6.25799H85.1802V10.9935C85.6797 10.8525 86.24 10.7517 86.8987 10.7517C89.4773 10.7517 91.5556 12.425 91.5556 15.4477C91.5556 18.7727 89.0377 20.7266 85.7397 20.7266C84.5215 20.7266 83.3817 20.5049 82.4824 20.0213Z" fill="#21313B"/>
<path d="M93.3139 10.9911H96.0117V20.5234H93.3139V10.9911ZM93.0342 8.04907C93.0342 7.18257 93.7336 6.47728 94.6728 6.47728C95.592 6.47728 96.2915 7.14304 96.2915 8.04907C96.2915 8.9365 95.592 9.66194 94.6728 9.66194C93.7336 9.66194 93.0342 8.95588 93.0342 8.04907Z" fill="#21313B"/>
<path d="M97.1396 10.9932H99.8574L102.036 17.0998H102.076L104.234 10.9932H106.952L103.035 20.5859H101.057L97.1396 10.9932Z" fill="#21313B"/>
<path d="M108.13 10.9911H110.828V20.5234H108.13V10.9911ZM107.851 8.04907C107.851 7.18257 108.55 6.47728 109.49 6.47728C110.408 6.47728 111.108 7.14304 111.108 8.04907C111.108 8.9365 110.408 9.66194 109.49 9.66194C108.55 9.66194 107.851 8.95588 107.851 8.04907Z" fill="#21313B"/>
<path d="M113.087 6.25846H115.785V17.5238C115.785 18.1484 116.045 18.3298 116.484 18.3298C116.584 18.3298 116.864 18.2895 117.084 18.2089L117.603 20.3248C116.984 20.5867 116.244 20.6875 115.665 20.6875C113.967 20.6875 113.087 19.8411 113.087 18.2291V6.25846Z" fill="#21313B"/>
<path d="M119.081 6.25846H121.779V17.5238C121.779 18.1484 122.039 18.3298 122.478 18.3298C122.578 18.3298 122.858 18.2895 123.078 18.2089L123.597 20.3248C122.978 20.5867 122.238 20.6875 121.659 20.6875C119.961 20.6875 119.081 19.8411 119.081 18.2291V6.25846Z" fill="#21313B"/>
<path d="M130.592 14.7013C130.572 13.7542 130.092 12.8079 128.913 12.8079C127.833 12.8079 127.254 13.7147 127.254 14.7013H130.592ZM124.576 15.8298C124.576 12.9482 126.116 10.7517 128.953 10.7517C131.711 10.7517 133.31 12.7064 133.31 15.9112V16.5351H127.294C127.335 17.8651 128.354 18.6115 129.793 18.6115C130.771 18.6115 131.51 18.3689 132.21 17.9666L132.99 19.8198C131.93 20.4654 130.752 20.7266 129.552 20.7266C125.956 20.7266 124.576 18.3293 124.576 15.8298" fill="#21313B"/>
<path d="M53.667 39.293H104.975V27.4293H53.667V39.293Z" fill="#37B4B4"/>
<path d="M59.3405 32.8182C59.6725 32.8182 59.9208 32.7624 60.1052 32.6601C60.4741 32.4826 60.6494 32.1206 60.6494 31.6285C60.6494 31.1906 60.4826 30.8286 60.1421 30.624C59.9484 30.5124 59.6902 30.4473 59.3305 30.4473H58.9716V32.8182H59.3405ZM58.0039 29.6482H59.3582C59.9392 29.6482 60.3635 29.7319 60.7139 29.918C61.3127 30.2334 61.6624 30.8193 61.6624 31.6285C61.6624 32.3439 61.3588 33.0507 60.5472 33.394C60.2251 33.5336 59.8193 33.6173 59.2759 33.6173H58.9716V35.7734H58.0039V29.6482Z" fill="white"/>
<path d="M65.6201 33.5614C65.6201 32.688 65.215 32.0555 64.4864 32.0555C63.7586 32.0555 63.3435 32.688 63.3435 33.5614C63.3435 34.445 63.7586 35.0766 64.4864 35.0766C65.215 35.0766 65.6201 34.445 65.6201 33.5614ZM64.0714 29.4715H64.883L65.8046 30.8379H65.0298L64.478 30.0381L63.9338 30.8379H63.1591L64.0714 29.4715ZM62.3574 33.5614C62.3574 32.2508 63.2052 31.2657 64.4864 31.2657C65.7592 31.2657 66.607 32.2508 66.607 33.5614C66.607 34.872 65.7592 35.8672 64.4864 35.8672C63.2144 35.8672 62.3574 34.872 62.3574 33.5614Z" fill="white"/>
<path d="M67.541 29.1938H68.4995V34.5757C68.4995 34.9013 68.6101 34.9935 68.8223 34.9935C68.8868 34.9935 69.016 34.9664 69.0982 34.9385L69.2919 35.691C69.0621 35.7941 68.7754 35.8398 68.5456 35.8398C67.8731 35.8398 67.541 35.4864 67.541 34.8455V29.1938Z" fill="white"/>
<path d="M72.4634 33.1251C72.4457 32.567 72.1783 32.0183 71.5603 32.0183C70.9793 32.0183 70.6388 32.5298 70.6288 33.1251H72.4634ZM69.6611 33.5614C69.6611 32.233 70.3898 31.2665 71.5695 31.2665C72.7585 31.2665 73.4403 32.1586 73.4403 33.5808V33.8133H70.6388C70.6565 34.5651 71.1453 35.0952 71.9377 35.0952C72.3719 35.0952 72.7216 34.9751 73.0352 34.7976L73.3211 35.458C72.8969 35.737 72.3527 35.8672 71.837 35.8672C70.316 35.8672 69.6611 34.7798 69.6611 33.5614" fill="white"/>
<path d="M78.6802 33.1251C78.6625 32.567 78.395 32.0183 77.7771 32.0183C77.1961 32.0183 76.8556 32.5298 76.8456 33.1251H78.6802ZM75.8779 33.5614C75.8779 32.233 76.6065 31.2665 77.7863 31.2665C78.9753 31.2665 79.6571 32.1586 79.6571 33.5808V33.8133H76.8556C76.8732 34.5651 77.3621 35.0952 78.1545 35.0952C78.5887 35.0952 78.9384 34.9751 79.252 34.7976L79.5379 35.458C79.1137 35.737 78.5695 35.8672 78.0538 35.8672C76.5328 35.8672 75.8779 34.7798 75.8779 33.5614" fill="white"/>
<path d="M80.5635 31.3766H81.3651L81.4666 31.8974C81.9093 31.5347 82.4066 31.265 82.9507 31.265C83.4664 31.265 83.8815 31.5068 84.0944 31.9718C84.6193 31.5161 85.1719 31.265 85.6792 31.265C86.4263 31.265 87.0711 31.7021 87.0711 32.8453V35.7734H86.1127V33.115C86.1127 32.557 86.002 32.1106 85.421 32.1106C85.0336 32.1106 84.6378 32.3338 84.2873 32.6221C84.2965 32.6779 84.2965 32.7523 84.2965 32.8267V35.7734H83.3381V33.1243C83.3381 32.5663 83.2274 32.1106 82.6563 32.1106C82.2598 32.1106 81.8632 32.3338 81.5219 32.6221V35.7734H80.5635V31.3766Z" fill="white"/>
<path d="M89.7481 35.057C90.6143 35.057 91.0663 34.4617 91.0663 33.5518C91.0663 32.5381 90.5129 32.073 89.6928 32.073C89.4799 32.073 89.2962 32.1017 89.1117 32.1575V34.9175C89.3147 35.0105 89.4991 35.057 89.7481 35.057ZM88.1533 31.5437C88.6229 31.3763 89.1671 31.2647 89.7297 31.2647C91.2323 31.2647 92.0524 32.1381 92.0524 33.5603C92.0524 34.9368 91.1401 35.8661 89.8119 35.8661C89.5637 35.8661 89.3239 35.8188 89.1117 35.7452V37.9766H88.1533V31.5437Z" fill="white"/>
<path d="M92.9863 29.1938H93.9448V34.5757C93.9448 34.9013 94.0554 34.9935 94.2676 34.9935C94.3321 34.9935 94.4613 34.9664 94.5435 34.9385L94.7372 35.691C94.5074 35.7941 94.2207 35.8398 93.9909 35.8398C93.3184 35.8398 92.9863 35.4864 92.9863 34.8455V29.1938Z" fill="white"/>
<path d="M98.4822 33.5614C98.4822 32.6879 98.0771 32.0555 97.3477 32.0555C96.6199 32.0555 96.2048 32.6879 96.2048 33.5614C96.2048 34.445 96.6199 35.0766 97.3477 35.0766C98.0771 35.0766 98.4822 34.445 98.4822 33.5614ZM95.2188 33.5614C95.2188 32.2508 96.0665 31.2657 97.3477 31.2657C98.6205 31.2657 99.4683 32.2508 99.4683 33.5614C99.4683 34.872 98.6205 35.8672 97.3477 35.8672C96.0765 35.8672 95.2188 34.872 95.2188 33.5614Z" fill="white"/>
<path d="M100.411 31.3766H101.369V35.7734H100.411V31.3766ZM100.291 29.973C100.291 29.6374 100.539 29.3778 100.89 29.3778C101.241 29.3778 101.489 29.6289 101.489 29.973C101.489 30.3078 101.232 30.5682 100.89 30.5682C100.539 30.5682 100.291 30.3078 100.291 29.973Z" fill="white"/>
<path d="M45.4309 23.0928C45.4309 35.7443 35.2612 46 22.7152 46C10.1708 46 0 35.7443 0 23.0928C0 10.4414 10.1708 0.186189 22.7152 0.186189C35.2612 0.186189 45.4309 10.4414 45.4309 23.0928Z" fill="#23333C"/>
<path d="M7.60036 11.2724L7.59822 11.2756C7.59929 11.2746 7.59983 11.2735 7.60036 11.2724ZM17.2001 40.7197C17.2006 40.7197 17.2006 40.7197 17.2011 40.7197C17.2006 40.7197 17.2006 40.7197 17.2001 40.7197ZM25.8878 42.7518C26.0972 42.7518 26.2602 42.8822 26.3323 42.9403C26.3462 42.9511 26.3606 42.9635 26.3745 42.9727C26.6678 43.1284 27.0225 43.1197 27.3094 42.9393C27.5878 42.7647 27.7411 42.4706 27.7304 42.1339C27.6898 40.8528 27.8821 39.4736 29.6157 38.9527C29.7568 38.9107 29.9341 38.7377 30.1056 38.5707C30.1943 38.4845 30.283 38.3989 30.3727 38.3213C31.0998 37.6948 31.8034 37.663 32.5861 38.2206C32.9878 38.5072 33.5066 38.6731 34.0558 38.8487C34.1749 38.887 34.2935 38.9247 34.4105 38.964C34.6824 39.0545 34.9661 39.1208 35.2669 39.1913C35.597 39.2684 35.9384 39.3481 36.275 39.4656C36.642 39.5932 36.9989 39.7478 37.344 39.8971C37.8713 40.126 38.3692 40.341 38.8821 40.46C39.5269 40.6082 39.8811 40.2375 40.4506 39.5685C40.5617 39.4381 40.6733 39.3072 40.7887 39.1816C41.3037 38.623 41.8978 38.1484 42.4727 37.6894C42.7905 37.4356 43.1186 37.1733 43.4231 36.9039C43.3718 36.8894 43.32 36.8716 43.2681 36.8495C43.1634 36.8048 43.0582 36.7606 42.9524 36.7164C42.4134 36.4929 41.8551 36.2612 41.3732 35.8895C41.1942 35.7516 41.0858 35.5188 41.0511 35.1983C41.0142 34.8578 41.0575 34.3574 41.3005 34.0664C41.5174 33.8073 41.6243 33.5929 41.6019 33.4625C41.5885 33.3823 41.4977 33.2077 41.0446 32.941C40.6589 32.7142 40.3779 32.0904 40.4666 31.6573C40.5644 31.1794 41.1376 30.8707 41.4758 30.7888C42.0346 30.6536 42.1088 30.513 42.1094 30.5114C42.1094 30.5109 42.1243 30.3913 41.901 30.0858C41.4929 29.5277 41.0308 28.8947 41.1648 28.2137C41.2172 27.946 41.3513 27.7084 41.5719 27.4951C41.5698 27.4918 41.5682 27.4891 41.5661 27.4859C41.3924 27.2133 41.2423 26.9779 41.1168 26.7128C41.0308 26.5313 40.9715 26.3061 40.9191 26.1073C40.9111 26.0777 40.902 26.0432 40.8924 26.0087C40.4784 26.013 40.4714 26.096 40.4511 26.3336C40.4132 26.7845 40.2492 27.0959 39.9639 27.2586C39.5557 27.4908 39.0957 27.3216 38.6988 27.125C38.4589 27.0064 38.3537 26.7182 38.4595 26.4709C38.5578 26.242 38.6486 26.0044 38.7362 25.7738C38.9408 25.2356 39.1529 24.6791 39.4793 24.1857C39.7908 23.7159 40.1803 23.3178 40.5569 22.9331C40.7866 22.6982 41.003 22.4768 41.2017 22.2419C41.4475 21.951 41.6873 21.6413 41.7712 21.3466C41.9181 20.8326 42.1628 19.9755 43.3627 20.1571C43.4941 20.1134 43.7516 19.8877 43.7938 19.7746C43.8702 19.544 43.8825 19.2585 43.8953 18.9563C43.9114 18.57 43.9285 18.1703 44.0775 17.7813C44.2004 17.4613 44.2725 17.1084 44.3489 16.7345C44.5348 15.8219 44.7458 14.7881 45.7823 14.0775C45.8186 14.0522 45.84 14.0307 45.8506 14.0167C45.8293 13.9919 45.7694 13.9456 45.6514 13.9213C45.4398 13.8788 45.2208 13.8491 44.9884 13.8173C44.4461 13.743 43.8852 13.6665 43.3718 13.4144C43.2201 13.3395 43.001 13.2991 42.7686 13.2565C42.1767 13.1472 41.2119 12.9689 41.0201 11.8101C40.9405 11.7837 40.8342 11.7535 40.7177 11.7282C40.4949 11.6797 40.2305 11.6592 39.9505 11.6371C39.2747 11.5838 38.5754 11.5288 38.1683 11.0521C37.9851 10.8371 37.696 10.6523 37.3899 10.4568C36.8477 10.1093 36.1644 9.67185 35.986 8.89554C35.8545 8.96612 35.7146 9.02053 35.5596 9.04639C35.1499 9.11696 34.6675 8.82066 34.4687 8.65527C34.2524 8.47318 34.1407 8.27439 34.137 8.06375C34.129 7.59075 33.9852 7.44852 33.2806 7.22064C32.889 7.09404 32.5161 6.7471 32.1736 6.18898C31.9509 5.82804 31.7853 5.43638 31.625 5.05712C31.6159 5.03557 31.6068 5.01402 31.5972 4.99247C31.266 5.0749 30.9748 5.06089 30.7157 4.95153C30.1756 4.72473 29.9731 4.17307 29.8107 3.7297C29.7851 3.66074 29.7605 3.5934 29.7359 3.52983C29.6382 3.52822 29.5415 3.52552 29.4458 3.52283C28.9971 3.50936 28.574 3.4975 28.1818 3.55784C28.0958 3.57616 27.9067 3.73078 27.872 3.81266C27.7689 4.29806 27.7192 4.81254 27.6663 5.35719C27.638 5.64487 27.6091 5.94279 27.5707 6.23801C27.5461 6.42656 27.4713 6.78104 27.2426 7.04556C26.3291 8.10038 25.0811 8.25608 23.9801 8.39345C23.8727 8.40692 23.7653 8.42038 23.659 8.43439C23.1659 8.50012 23.1247 8.57392 23.1322 8.9214C23.1434 9.44289 22.9201 9.91158 22.52 10.2068C22.0696 10.5392 21.4478 10.6157 20.8564 10.411C20.7025 10.3582 20.5497 10.2989 20.3975 10.2397C20.1191 10.1319 19.8558 10.0296 19.594 9.9703L19.4999 9.94929C18.8215 9.79845 17.8102 9.57326 17.7386 8.32341C17.7087 8.30294 17.6729 8.2814 17.6413 8.26685C17.417 8.16719 17.1792 8.07722 16.8961 7.97378L17.4463 12.6758C17.4666 12.8493 17.3967 13.0206 17.2615 13.1299C17.1263 13.2388 16.9452 13.27 16.7818 13.2118C16.6439 13.1623 16.5248 13.1154 16.4179 13.0728C16.247 13.0055 16.123 12.9559 16.0178 12.9387C15.7993 12.902 15.5797 12.8514 15.3676 12.8024C14.8654 12.6866 14.391 12.5767 14.0192 12.6677C13.5753 12.7754 13.009 12.8606 12.565 12.5583C12.2632 12.3525 12.0821 12.0196 12.0116 11.5407C11.9736 11.2826 11.8791 11.1485 11.8091 11.1113C11.7663 11.0892 11.7081 11.0957 11.6365 11.1318C10.7 11.6021 9.76455 11.5186 8.93969 11.4448C8.50696 11.4055 8.0988 11.3683 7.7024 11.4049C7.65646 11.4087 7.60624 11.4109 7.55442 11.413C7.53999 11.4135 7.5229 11.4141 7.5058 11.4152C7.43368 11.524 7.33378 11.6791 7.29424 11.7745C7.41605 12.0266 7.61425 12.2755 7.82314 12.5373C7.93105 12.6731 8.04004 12.8099 8.14421 12.9527C8.24305 13.0884 8.26869 13.2651 8.21153 13.4241C8.1549 13.5825 8.02348 13.7021 7.86107 13.7425L7.52717 13.826L7.95029 14.4148C9.3019 14.3426 10.2742 15.1394 11.2166 15.9103C11.2764 15.9593 11.3373 16.0089 11.3982 16.0584L12.1018 15.9895C12.2525 15.9749 12.4015 16.0299 12.5079 16.1387C12.6142 16.2475 12.6655 16.3989 12.6484 16.5503L12.6323 16.6866L12.9491 16.7065C13.0977 16.7162 13.2339 16.7917 13.3215 16.9129C13.4096 17.0341 13.4396 17.1882 13.4032 17.3341C13.2499 17.9521 13.3429 18.0851 13.3434 18.0862C13.3621 18.0997 13.478 18.1336 13.7393 18.0911C13.8798 18.0679 14.024 18.1072 14.1346 18.1977C14.2457 18.2882 14.3125 18.4224 14.32 18.5662C14.3248 18.6718 14.3269 18.7672 14.3296 18.8555C14.3339 19.0155 14.3371 19.1416 14.3547 19.2509C14.3729 19.3646 14.4108 19.4907 14.4509 19.6243C14.4717 19.6943 14.4931 19.7649 14.5128 19.8365C14.5508 19.9761 14.5278 20.1258 14.4493 20.2476C14.3825 20.351 14.2805 20.4254 14.164 20.4582C14.4007 20.7804 14.5705 21.13 14.7292 21.4576C15.1529 22.3298 15.4173 22.7855 16.3581 22.7968C16.5045 22.7984 16.6434 22.8647 16.7374 22.9784C16.8314 23.0926 16.871 23.2424 16.8459 23.3884C16.8021 23.6437 16.7572 23.8926 16.7128 24.1366C16.6044 24.7389 16.5013 25.3078 16.4361 25.874C16.4206 26.0076 16.4767 26.1978 16.5194 26.2463C17.1616 26.8782 17.7257 27.64 17.4976 28.9124C17.4592 29.1258 17.2903 29.2906 17.0772 29.3224C16.8651 29.3537 16.6557 29.2454 16.5579 29.052L16.114 28.1744L15.521 30.4651L15.9601 30.7242C16.1118 30.8131 16.2058 30.9758 16.2085 31.153C16.2112 31.3297 16.122 31.4951 15.9735 31.5888C15.8383 31.6745 15.7015 31.7418 15.5808 31.8011C15.4942 31.8442 15.3671 31.9067 15.3153 31.946C15.0466 32.6022 14.7987 33.2853 14.5588 33.9463C14.3446 34.5378 14.1229 35.1493 13.8846 35.7467C13.7323 36.1281 13.5197 36.4654 13.2943 36.8231C13.2894 36.8301 13.2852 36.8376 13.2804 36.8447L13.7874 37.0661C13.9936 37.1555 14.1148 37.3731 14.0849 37.5978L14.008 38.1769C14.5876 38.3466 15.069 38.6634 15.5386 38.9715C16.0947 39.3373 16.6204 39.6821 17.2444 39.7096C17.5585 39.7236 17.7199 39.972 17.8064 40.1056C17.8203 40.1276 17.8337 40.1497 17.8486 40.1681C17.9833 40.3221 18.4283 40.4832 19.0143 40.4891C19.5737 40.4859 20.0988 40.3512 20.2917 40.139C20.4739 39.9386 20.78 39.9192 20.9857 40.0953C21.1892 40.2699 21.467 40.4008 21.7614 40.5398C22.3987 40.8398 23.238 41.2358 23.4277 42.3036C23.8588 42.3278 24.2376 42.491 24.5618 42.6306C25.0469 42.8396 25.3381 42.9506 25.6731 42.7992C25.7484 42.7653 25.8205 42.7518 25.8878 42.7518V42.7518ZM26.8185 44.0938C26.5033 44.0938 26.1859 44.0156 25.891 43.8578C25.8664 43.8449 25.844 43.8309 25.8226 43.8168C25.181 43.9968 24.6254 43.757 24.1681 43.5599C23.7786 43.3929 23.4421 43.2474 23.0948 43.3422C22.942 43.3842 22.778 43.3498 22.6535 43.2506C22.5291 43.151 22.4586 42.9985 22.4634 42.838C22.4885 42.0358 22.0942 41.8122 21.3372 41.4556C21.1155 41.3511 20.889 41.2439 20.6737 41.1103C20.2623 41.3597 19.688 41.5009 19.0491 41.5009C19.0341 41.5009 19.0191 41.5003 19.0042 41.5003C18.1654 41.4917 17.4517 41.2428 17.0948 40.835C17.0569 40.7908 17.0243 40.745 16.9965 40.703C16.1957 40.6098 15.5583 40.1912 14.9915 39.8184C14.4669 39.4742 13.9717 39.1488 13.3888 39.0771C13.2553 39.0615 13.1345 38.992 13.0522 38.8848C12.9705 38.7781 12.9342 38.6424 12.9523 38.5082L13.041 37.8418L12.3503 37.5401C12.2183 37.4825 12.1173 37.371 12.073 37.2331C12.0281 37.0957 12.0441 36.9449 12.1173 36.8204C12.229 36.6286 12.3406 36.4508 12.448 36.2806C12.6564 35.9498 12.8364 35.6638 12.9545 35.3691C13.1869 34.7867 13.4059 34.1833 13.6175 33.5994C13.8654 32.9157 14.1218 32.2095 14.4044 31.5215C14.469 31.3642 14.5743 31.2462 14.6972 31.1509L14.687 31.1449C14.4931 31.0307 14.398 30.8001 14.4552 30.5809L15.3623 27.0749C15.4018 26.9235 15.5065 26.8023 15.6428 26.7408C15.4627 26.4343 15.4077 26.0432 15.4403 25.7577C15.5092 25.1586 15.615 24.5741 15.7266 23.9551C15.7389 23.8872 15.7517 23.8183 15.764 23.7482C14.6117 23.5144 14.1827 22.6309 13.829 21.902C13.5646 21.3574 13.3146 20.8429 12.8017 20.5584C12.6131 20.4534 12.5121 20.2395 12.5506 20.0256C12.5885 19.8117 12.7584 19.6464 12.9716 19.6151L13.392 19.5537C13.3813 19.5074 13.3723 19.46 13.3648 19.4115C13.3487 19.3107 13.3402 19.2138 13.3349 19.113C13.0287 19.0818 12.7841 18.967 12.6046 18.7699C12.3332 18.4714 12.2856 18.0727 12.323 17.6795L12.042 17.6617C11.9052 17.6525 11.7776 17.5873 11.6894 17.4812C11.6018 17.3751 11.5607 17.2366 11.5761 17.0993L11.5815 17.0562L11.293 17.0847C11.1632 17.0976 11.0339 17.0589 10.9324 16.9775C10.8154 16.8838 10.6995 16.7895 10.5846 16.6952C9.66251 15.941 8.8649 15.2886 7.7836 15.4459C7.59983 15.4723 7.41551 15.3942 7.30653 15.2423L6.27973 13.812C6.18196 13.6762 6.15792 13.5 6.21508 13.3422C6.27225 13.1843 6.40367 13.0658 6.56501 13.0249L6.86685 12.95C6.66117 12.6844 6.46511 12.4043 6.33208 12.081C6.14884 11.6382 6.46137 11.169 6.71246 10.7924L6.76481 10.7137C6.955 10.4244 7.29211 10.4115 7.51542 10.4029C7.55014 10.4013 7.5838 10.4002 7.61425 10.3975C8.0988 10.3544 8.57107 10.3964 9.02838 10.4374C9.78859 10.5058 10.5066 10.5699 11.1894 10.2273C11.5537 10.0441 11.9389 10.0398 12.2728 10.2154C12.6628 10.4201 12.9219 10.8382 13.0031 11.3925C13.0282 11.5628 13.0741 11.6851 13.126 11.7206C13.1575 11.7422 13.298 11.803 13.7847 11.6845C14.3857 11.5391 14.9985 11.6802 15.5909 11.8171C15.7977 11.865 15.9927 11.9097 16.1813 11.9415C16.2411 11.9512 16.2988 11.9641 16.3554 11.9797L15.8052 7.27775C15.7849 7.1032 15.8559 6.92973 15.9927 6.82145C16.13 6.71263 16.3132 6.68299 16.4772 6.74495C16.6867 6.82306 16.8731 6.89094 17.043 6.95236C17.4325 7.09404 17.7396 7.2061 18.0452 7.34186C18.1612 7.39303 18.7403 7.67533 18.7371 8.16934C18.7333 8.69083 18.9192 8.7851 19.7163 8.96235L19.8125 8.98389C20.1469 9.05932 20.4573 9.17999 20.7575 9.29635C20.898 9.35076 21.0391 9.40572 21.1812 9.45474C21.4627 9.55171 21.7421 9.52801 21.9281 9.39063C22.0664 9.28881 22.1343 9.13851 22.13 8.94349C22.1011 7.62145 23.1376 7.48408 23.5281 7.43236C23.6376 7.41782 23.7471 7.40381 23.8566 7.39034C24.8696 7.26428 25.8258 7.14468 26.4878 6.38023C26.5118 6.35222 26.5577 6.25309 26.577 6.1071C26.6128 5.82804 26.6411 5.5382 26.6683 5.25806C26.7218 4.7091 26.7773 4.14129 26.897 3.58209C27.0049 3.07892 27.5846 2.62693 28.0312 2.55851C28.512 2.4847 29.0008 2.49817 29.4736 2.51218C29.6643 2.51757 29.8583 2.52295 30.0559 2.52295C30.2344 2.52295 30.3994 2.61885 30.4892 2.77454C30.5992 2.96579 30.6762 3.17589 30.7504 3.37898C30.8461 3.63865 30.9641 3.96081 31.1009 4.01845C31.2003 4.05994 31.4097 4.01522 31.6618 3.89993C31.9135 3.78465 32.21 3.89617 32.3254 4.14937C32.4034 4.32176 32.476 4.49253 32.5471 4.66062C32.6993 5.02049 32.843 5.35988 33.0252 5.65618C33.263 6.04299 33.4713 6.22077 33.5872 6.25794C34.137 6.43572 35.042 6.72932 35.1322 7.89674C35.2129 7.95708 35.3459 8.02658 35.4191 8.04382C35.5473 8.00718 35.7263 7.86388 35.9005 7.72543C36.0185 7.63115 36.1404 7.53418 36.2777 7.44044C36.4556 7.31923 36.6901 7.32569 36.861 7.4566C37.0325 7.58805 37.1014 7.81432 37.0336 8.01957C36.7675 8.82012 37.1153 9.08356 37.9274 9.60289C38.2816 9.82969 38.6481 10.064 38.9285 10.3927C39.0653 10.5532 39.622 10.5974 40.0285 10.6292C40.3288 10.6529 40.6392 10.6776 40.9271 10.7396C41.6617 10.8974 41.9705 11.1146 41.9924 11.4884C42.0255 12.0622 42.2643 12.1354 42.9492 12.262C43.2377 12.3154 43.5358 12.3703 43.8109 12.5061C44.1795 12.6866 44.6379 12.7496 45.123 12.8153C45.3602 12.8476 45.606 12.8816 45.848 12.9306C46.371 13.0357 46.7519 13.3783 46.8416 13.8249C46.9239 14.2365 46.7391 14.6437 46.3459 14.9137C45.646 15.3931 45.4996 16.1096 45.3308 16.9382C45.2496 17.3363 45.1652 17.7479 45.0124 18.146C44.9227 18.3798 44.9104 18.6804 44.897 18.9993C44.8815 19.3581 44.866 19.7293 44.7437 20.0962C44.5802 20.5886 43.8424 21.2615 43.2409 21.1607C42.8851 21.1015 42.8851 21.1015 42.7344 21.6273C42.5977 22.1056 42.2835 22.5205 41.9646 22.8981C41.7424 23.161 41.5025 23.4056 41.2706 23.6426C40.9116 24.0106 40.5713 24.3575 40.3133 24.7476C40.223 24.8833 40.1429 25.0288 40.0681 25.1812C40.4474 24.9765 40.9089 24.9932 41.175 25.0024L41.2231 25.004C41.6692 25.0191 41.7851 25.4592 41.8877 25.8471C41.9267 25.9958 41.9758 26.1806 42.0218 26.2775C42.1201 26.4849 42.2477 26.6854 42.4096 26.9396C42.4903 27.0662 42.5768 27.202 42.6682 27.3523C42.7376 27.467 42.7595 27.605 42.728 27.7359C42.6965 27.8662 42.6148 27.9794 42.501 28.0489C42.3546 28.1383 42.1746 28.2735 42.1478 28.4098C42.1003 28.6539 42.4513 29.1349 42.7083 29.4867C42.8472 29.6769 43.2697 30.255 43.0507 30.8583C42.8413 31.4369 42.1852 31.6567 41.7103 31.772C41.6286 31.7914 41.526 31.849 41.4651 31.8965C41.4865 31.9638 41.5313 32.0484 41.5655 32.0785C41.947 32.3021 42.486 32.683 42.5902 33.2907C42.6661 33.734 42.4988 34.1963 42.08 34.7021C42.0421 34.79 42.0303 35.0184 42.0538 35.1396C42.4187 35.4019 42.8643 35.5867 43.3338 35.7823C43.4434 35.8275 43.5524 35.8728 43.6603 35.9191C43.7297 35.9488 43.8569 35.9584 43.9797 35.9681C44.0658 35.9751 44.1523 35.9822 44.2362 35.9945C44.3932 36.0172 44.5305 36.1136 44.6064 36.2547C44.6817 36.3954 44.6865 36.5645 44.6187 36.7094C44.5882 36.7752 44.5637 36.8468 44.5386 36.9185C44.4595 37.141 44.3612 37.4168 44.1352 37.6188C43.7965 37.9216 43.4402 38.2066 43.095 38.4818C42.525 38.9376 41.9865 39.3675 41.5233 39.8696C41.4165 39.9854 41.3134 40.1066 41.2113 40.2273C40.6381 40.9002 39.9249 41.7363 38.6582 41.4448C38.0567 41.3064 37.4936 41.0623 36.9487 40.8264C36.6051 40.6777 36.2803 40.5365 35.948 40.4207C35.6606 40.3211 35.3593 40.251 35.0404 40.1761C34.731 40.1039 34.411 40.0291 34.0948 39.9235C33.982 39.8858 33.8672 39.8491 33.7528 39.8125C33.1545 39.6212 32.5364 39.423 32.0075 39.0464C31.5742 38.7372 31.3734 38.7895 31.0245 39.0895C30.9492 39.1542 30.8754 39.2264 30.8017 39.298C30.5554 39.5377 30.2766 39.8093 29.9021 39.9213C28.9848 40.1971 28.6894 40.7472 28.7326 42.101C28.7545 42.7976 28.4206 43.4322 27.8399 43.7975C27.5252 43.9952 27.1732 44.0938 26.8185 44.0938" fill="#37B4B4"/>
<path d="M25.8875 42.7513C26.0969 42.7513 26.2599 42.8817 26.3325 42.9399C26.3459 42.9506 26.3603 42.963 26.3742 42.9722C26.6675 43.1279 27.0222 43.1192 27.3091 42.9388C27.5875 42.7637 27.7408 42.4701 27.7301 42.1334C27.6895 40.8523 27.8818 39.4732 29.6154 38.9522C29.7565 38.9102 29.9338 38.7373 30.1053 38.5702C30.194 38.484 30.2827 38.3984 30.373 38.3208C31.0995 37.6943 31.8031 37.6625 32.5858 38.2201C32.9881 38.5067 33.5063 38.6726 34.0555 38.8482C34.1746 38.8865 34.2932 38.9242 34.4102 38.9635C34.6821 39.054 34.9658 39.1203 35.2666 39.1909C35.5967 39.2679 35.9381 39.3476 36.2747 39.4645C36.6417 39.5927 36.9986 39.7474 37.3437 39.8966C37.871 40.125 38.3689 40.3405 38.8818 40.4596C39.5266 40.6077 39.8808 40.2371 40.4503 39.568C40.5614 39.4376 40.6731 39.3067 40.7885 39.1812C41.3035 38.6225 41.8975 38.1479 42.4724 37.6889C42.7902 37.4351 43.1183 37.1728 43.4228 36.9034C43.3715 36.8889 43.3197 36.8706 43.2678 36.8485C43.1631 36.8038 43.0579 36.7601 42.9521 36.716C42.4131 36.4924 41.8548 36.2607 41.3729 35.889C41.1939 35.7511 41.0855 35.5184 41.0508 35.1978C41.0139 34.8573 41.0572 34.3563 41.3002 34.0654C41.5171 33.8068 41.624 33.5924 41.6016 33.462C41.5882 33.3818 41.4974 33.2072 41.0444 32.9406C40.6586 32.7138 40.3782 32.0899 40.4663 31.6568C40.5641 31.1789 41.1373 30.8702 41.4755 30.7883C42.0343 30.6531 42.1085 30.5125 42.1091 30.5109C42.1091 30.5104 42.124 30.3908 41.9007 30.0853C41.4926 29.5272 41.0305 28.8942 41.1646 28.2132C41.2169 27.9455 41.351 27.7079 41.5716 27.4946C41.5695 27.4913 41.5679 27.4881 41.5658 27.4854C41.3921 27.2128 41.242 26.9774 41.1165 26.7123C41.0305 26.5308 40.9712 26.3056 40.9188 26.1068C40.9108 26.0772 40.9017 26.0427 40.8921 26.0082C40.4786 26.0125 40.4711 26.0955 40.4508 26.3331C40.4129 26.784 40.2489 27.0948 39.9636 27.2581C39.5554 27.4903 39.0955 27.3206 38.6985 27.1245C38.4586 27.0054 38.3534 26.7177 38.4592 26.4705C38.5575 26.2415 38.6483 26.0039 38.7359 25.7733C38.9405 25.2352 39.1526 24.6787 39.479 24.1852C39.7905 23.7154 40.18 23.3173 40.5566 22.9321C40.7863 22.6978 41.0027 22.4763 41.2014 22.2415C41.4472 21.9505 41.687 21.6402 41.7709 21.3461C41.9178 20.8321 42.1625 19.975 43.3624 20.1566C43.4938 20.1129 43.7513 19.8872 43.7935 19.7741C43.8699 19.543 43.8822 19.258 43.895 18.9558C43.9111 18.5695 43.9282 18.1698 44.0772 17.7803C44.2001 17.4608 44.2722 17.1079 44.3486 16.7341C44.5345 15.8215 44.7455 14.7876 45.782 14.0771C45.8183 14.0517 45.8397 14.0302 45.8503 14.0162C45.829 13.9914 45.7691 13.9451 45.6511 13.9208C45.4395 13.8783 45.2205 13.8486 44.9881 13.8169C44.4458 13.7425 43.8849 13.666 43.3715 13.4139C43.2198 13.339 43.0007 13.2986 42.7683 13.256C42.1764 13.1467 41.2116 12.9684 41.0198 11.8096C40.9402 11.7832 40.8344 11.7525 40.7174 11.7277C40.4946 11.6792 40.2302 11.6587 39.9502 11.6366C39.2744 11.5833 38.5751 11.5278 38.168 11.0516C37.9853 10.8366 37.6963 10.6518 37.3896 10.4563C36.8474 10.1088 36.1641 9.67136 35.9857 8.89505C35.8542 8.96563 35.7143 9.02004 35.5593 9.0459C35.1496 9.11647 34.6672 8.82017 34.4684 8.65424C34.2521 8.47269 34.1404 8.2739 34.1367 8.06326C34.1287 7.58972 33.9849 7.44803 33.2803 7.22015C32.8887 7.09355 32.5158 6.74661 32.1733 6.18849C31.9506 5.82701 31.785 5.43535 31.6247 5.05663C31.6156 5.03508 31.6065 5.01353 31.5974 4.99199C31.2657 5.07387 30.9745 5.0604 30.7154 4.95104C30.1753 4.72424 29.9728 4.17258 29.8104 3.72921C29.7848 3.66025 29.7602 3.59291 29.7356 3.52934C29.6379 3.52719 29.5412 3.52503 29.4455 3.52234C28.9968 3.50887 28.5737 3.49702 28.1815 3.55736C28.0955 3.57567 27.9064 3.73029 27.8717 3.81217C27.7686 4.29757 27.7189 4.81205 27.666 5.35616C27.6377 5.64438 27.6088 5.9423 27.5704 6.23752C27.5458 6.42607 27.471 6.78055 27.2423 7.04507C26.3288 8.0999 25.0808 8.25559 23.9798 8.39296C23.8724 8.40643 23.765 8.4199 23.6587 8.43391C23.1656 8.49909 23.1244 8.57343 23.1319 8.92091C23.1431 9.4424 22.9198 9.91109 22.5197 10.2063C22.0699 10.5387 21.4475 10.6152 20.8561 10.4105C20.7022 10.3577 20.5494 10.2984 20.3972 10.2392C20.1188 10.1314 19.8555 10.0291 19.5937 9.96981L19.4997 9.9488C18.8212 9.79796 17.8099 9.57277 17.7383 8.32293C17.7084 8.30246 17.6731 8.28091 17.641 8.26636C17.4167 8.1667 17.1789 8.07673 16.8958 7.97329L17.446 12.6753C17.4663 12.8488 17.3964 13.0201 17.2617 13.1294C17.126 13.2383 16.9449 13.269 16.7815 13.2113C16.6436 13.1618 16.5245 13.1149 16.4176 13.0723C16.2467 13.005 16.1227 12.9554 16.0175 12.9382C15.799 12.9016 15.5794 12.8509 15.3673 12.8019C14.8651 12.6861 14.3907 12.5762 14.0189 12.6672C13.575 12.775 13.0087 12.8601 12.5647 12.5579C12.2629 12.3521 12.0818 12.0191 12.0113 11.5402C11.9733 11.2821 11.8788 11.1475 11.8088 11.1108C11.766 11.0887 11.7078 11.0952 11.6362 11.1313C10.6997 11.6016 9.76426 11.5176 8.93939 11.4443C8.50666 11.405 8.09851 11.3678 7.7021 11.4039C7.65616 11.4082 7.60594 11.4104 7.55412 11.4125C7.53969 11.4131 7.52313 11.4136 7.5055 11.4147C7.43338 11.5235 7.33401 11.6787 7.29395 11.774C7.41575 12.0261 7.61395 12.275 7.82284 12.5368C7.93076 12.6726 8.03974 12.8094 8.14392 12.9522C8.24275 13.088 8.26839 13.2647 8.21123 13.4236C8.1546 13.582 8.02318 13.7016 7.86077 13.742L7.52687 13.8255L7.94999 14.4143C9.30161 14.3421 10.2739 15.1389 11.2163 15.9098C11.2761 15.9588 11.337 16.0084 11.398 16.058L12.1015 15.989C12.2522 15.9739 12.4012 16.0289 12.5076 16.1382C12.6139 16.247 12.6652 16.3984 12.6481 16.5498L12.632 16.6861L12.9488 16.706C13.0974 16.7157 13.2336 16.7912 13.3217 16.9124C13.4094 17.0336 13.4393 17.1877 13.4029 17.3337C13.2496 17.9516 13.3426 18.0846 13.3436 18.0857C13.3618 18.0992 13.4777 18.1331 13.739 18.0906C13.8795 18.0674 14.0237 18.1062 14.1343 18.1972C14.2454 18.2877 14.3122 18.4219 14.3197 18.5652C14.3245 18.6713 14.3266 18.7667 14.3293 18.855C14.3336 19.015 14.3368 19.1411 14.3544 19.2504C14.3726 19.3641 14.4105 19.4902 14.4506 19.6238C14.4714 19.6938 14.4928 19.7644 14.5126 19.836C14.5505 19.9756 14.5275 20.1253 14.449 20.2471C14.3822 20.3505 14.2802 20.4249 14.1637 20.4577C14.4004 20.7799 14.5703 21.1295 14.7289 21.4571C15.1526 22.3293 15.417 22.7845 16.3578 22.7958C16.5047 22.7974 16.6431 22.8642 16.7371 22.9779C16.8311 23.0921 16.8707 23.2419 16.8456 23.3879C16.8018 23.6432 16.7569 23.8921 16.7125 24.1362C16.6041 24.7385 16.501 25.3073 16.4358 25.8735C16.4203 26.0066 16.4764 26.1973 16.5191 26.2458C17.1613 26.8777 17.7255 27.6395 17.4973 28.912C17.4589 29.1253 17.29 29.2901 17.0769 29.3219C16.8648 29.3526 16.6554 29.2449 16.5576 29.0515L16.1137 28.1739L15.5207 30.4646L15.9598 30.7237C16.1115 30.8126 16.2055 30.9753 16.2082 31.1525C16.2109 31.3292 16.1217 31.4946 15.9732 31.5884C15.838 31.674 15.7012 31.7414 15.581 31.8006C15.4939 31.8432 15.3668 31.9062 15.315 31.945C15.0463 32.6017 14.7984 33.2848 14.5585 33.9458C14.3443 34.5373 14.1226 35.1488 13.8843 35.7462C13.732 36.1277 13.5194 36.4649 13.294 36.8226C13.2892 36.8296 13.2849 36.8366 13.2801 36.8442L13.7871 37.0656C13.9933 37.155 14.1145 37.3727 14.0846 37.5973L14.0077 38.1764C14.5873 38.3461 15.0692 38.6629 15.5383 38.9711C16.0944 39.3369 16.6201 39.6816 17.2441 39.7091C17.5582 39.7226 17.7196 39.9715 17.8061 40.1051C17.82 40.1266 17.8334 40.1493 17.8483 40.1676C17.983 40.3216 18.428 40.4827 19.014 40.4886C19.5734 40.4849 20.0985 40.3502 20.2914 40.1379C20.4736 39.9381 20.7797 39.9187 20.9854 40.0948C21.1889 40.2694 21.4667 40.4003 21.7611 40.5393C22.3984 40.8394 23.2382 41.2353 23.4279 42.3031C23.8585 42.3273 24.2373 42.4906 24.5615 42.6295C25.0466 42.8391 25.3378 42.9501 25.6728 42.7987C25.7481 42.7642 25.8202 42.7513 25.8875 42.7513Z" fill="white"/>
<path d="M23.9966 18.1397C26.4926 18.1397 28.5163 20.1804 28.5163 22.6973C28.5163 25.2143 28.7262 25.426 23.9966 30.1953C19.267 25.426 19.477 25.2143 19.477 22.6973C19.477 20.1804 21.5007 18.1397 23.9966 18.1397Z" fill="#23333C"/>
<path d="M23.9967 23.8569C23.306 23.8569 22.7439 23.2902 22.7439 22.5936C22.7439 21.8971 23.306 21.3303 23.9967 21.3303C24.6875 21.3303 25.2495 21.8971 25.2495 22.5936C25.2495 23.2902 24.6875 23.8569 23.9967 23.8569ZM23.9967 16.9629C20.8613 16.9629 18.3109 19.5353 18.3109 22.6971L18.3098 22.9993C18.3002 25.7209 18.5993 26.4159 23.1724 31.0268C23.4 31.2563 23.6981 31.3711 23.9967 31.3711C24.2954 31.3711 24.594 31.2563 24.8216 31.0268C29.3941 26.4159 29.6938 25.7209 29.6837 22.9993L29.6831 22.6971C29.6831 19.5353 27.1322 16.9629 23.9967 16.9629ZM23.9967 25.033C25.3329 25.033 26.4158 23.941 26.4158 22.5936C26.4158 21.2463 25.3329 20.1543 23.9967 20.1543C22.6611 20.1543 21.5777 21.2463 21.5777 22.5936C21.5777 23.941 22.6611 25.033 23.9967 25.033ZM23.9967 18.1394C26.4927 18.1394 28.5164 20.1796 28.5164 22.6971C28.5164 25.214 28.7263 25.4257 23.9967 30.1951C19.2671 25.4257 19.4771 25.214 19.4771 22.6971C19.4771 20.1796 21.5008 18.1394 23.9967 18.1394Z" fill="#37B4B4"/>
</g>
<defs>
<clipPath id="clip0">
<rect width="142.381" height="46" fill="white"/>
</clipPath>
</defs>
</svg>
