<svg width="112" height="46" viewBox="0 0 112 46" fill="none" xmlns="http://www.w3.org/2000/svg">
<path d="M45.5682 23.0824C45.5682 35.6905 35.4446 45.9111 22.9555 45.9111C10.4679 45.9111 0.343262 35.6905 0.343262 23.0824C0.343262 10.4743 10.4679 0.254197 22.9555 0.254197C35.4446 0.254197 45.5682 10.4743 45.5682 23.0824Z" fill="#23333C"/>
<path d="M54.2664 14.0876H55.9809L58.3177 17.4238C58.6219 17.8571 58.8431 18.2061 59.0506 18.569H59.0782C59.2585 18.2195 59.493 17.8292 59.7834 17.368L61.8995 14.0876H63.6279V23.2871H61.733V18.3457C61.733 17.9827 61.733 17.564 61.7468 17.2424H61.733C61.6224 17.4797 61.2629 18.0106 61.1108 18.2474L59.4797 20.7879H58.6219L56.7829 18.1642C56.5893 17.899 56.3681 17.6058 56.1745 17.2563H56.1469C56.1612 17.5774 56.1612 17.9961 56.1612 18.2893V23.2871H54.2664V14.0876Z" fill="#21313B"/>
<path d="M69.9601 19.9645C69.9601 18.8477 69.5044 18.0242 68.5221 18.0242C67.5404 18.0242 67.0703 18.8477 67.0703 19.9645C67.0703 21.0812 67.5404 21.9192 68.5221 21.9192C69.5044 21.9192 69.9601 21.0812 69.9601 19.9645ZM65.1621 19.9645C65.1621 17.9683 66.5172 16.5166 68.5221 16.5166C70.5132 16.5166 71.8688 17.9683 71.8688 19.9645C71.8688 21.9611 70.5132 23.4263 68.5221 23.4263C66.531 23.4263 65.1621 21.9611 65.1621 19.9645Z" fill="#21313B"/>
<path d="M77.5098 19.8807C77.5098 18.8198 76.8738 18.066 75.8915 18.066C75.4629 18.066 75.2145 18.1498 75.0066 18.2196V21.7797C75.2416 21.8629 75.4905 21.8774 75.6984 21.8774C76.8179 21.8774 77.5098 21.0538 77.5098 19.8807ZM73.1399 22.9377V13.4038H75.0066V16.6841C75.3522 16.5864 75.7399 16.5166 76.1957 16.5166C77.9799 16.5166 79.4179 17.6757 79.4179 19.7696C79.4179 22.0728 77.6757 23.4263 75.3937 23.4263C74.5508 23.4263 73.7621 23.2727 73.1399 22.9377Z" fill="#21313B"/>
<path d="M80.6347 16.684H82.5014V23.2871H80.6347V16.684ZM80.4412 14.646C80.4412 14.0458 80.9251 13.5572 81.575 13.5572C82.211 13.5572 82.695 14.0184 82.695 14.646C82.695 15.2607 82.211 15.7633 81.575 15.7633C80.9251 15.7633 80.4412 15.2742 80.4412 14.646Z" fill="#21313B"/>
<path d="M83.282 16.6841H85.1625L86.6696 20.9142H86.6978L88.1906 16.6841H90.0717L87.3615 23.3291H85.9926L83.282 16.6841Z" fill="#21313B"/>
<path d="M90.8867 16.684H92.7534V23.2871H90.8867V16.684ZM90.6931 14.646C90.6931 14.0458 91.1771 13.5572 91.8275 13.5572C92.463 13.5572 92.947 14.0184 92.947 14.646C92.947 15.2607 92.463 15.7633 91.8275 15.7633C91.1771 15.7633 90.6931 15.2742 90.6931 14.646Z" fill="#21313B"/>
<path d="M94.3162 13.4038H96.1828V21.2074C96.1828 21.6401 96.3631 21.7657 96.6668 21.7657C96.7359 21.7657 96.9295 21.7378 97.0816 21.682L97.4411 23.1477C97.0125 23.3291 96.5008 23.3989 96.0999 23.3989C94.9251 23.3989 94.3162 22.8127 94.3162 21.6959V13.4038Z" fill="#21313B"/>
<path d="M98.4641 13.4038H100.331V21.2074C100.331 21.6401 100.511 21.7657 100.815 21.7657C100.884 21.7657 101.077 21.7378 101.23 21.682L101.589 23.1477C101.16 23.3291 100.649 23.3989 100.248 23.3989C99.073 23.3989 98.4641 22.8127 98.4641 21.6959V13.4038Z" fill="#21313B"/>
<path d="M106.429 19.2526C106.415 18.5965 106.083 17.941 105.267 17.941C104.52 17.941 104.119 18.5691 104.119 19.2526H106.429ZM102.266 20.0343C102.266 18.0381 103.332 16.5166 105.295 16.5166C107.203 16.5166 108.309 17.8706 108.309 20.0906V20.5228H104.147C104.175 21.4441 104.88 21.9611 105.876 21.9611C106.553 21.9611 107.064 21.7931 107.548 21.5144L108.088 22.7981C107.355 23.2453 106.539 23.4263 105.709 23.4263C103.221 23.4263 102.266 21.7657 102.266 20.0343" fill="#21313B"/>
<path d="M53.2017 36.2881H88.7034V28.07H53.2017V36.2881Z" fill="#37B4B4"/>
<path d="M57.1275 31.8035C57.3572 31.8035 57.529 31.7648 57.6566 31.6939C57.9119 31.571 58.0331 31.3203 58.0331 30.9793C58.0331 30.676 57.9177 30.4253 57.6821 30.2835C57.5481 30.2062 57.3694 30.1611 57.1205 30.1611H56.8722V31.8035H57.1275ZM56.2026 29.6076H57.1397C57.5417 29.6076 57.8353 29.6656 58.0778 29.7944C58.4921 30.013 58.7341 30.4188 58.7341 30.9793C58.7341 31.4749 58.524 31.9645 57.9624 32.2024C57.7396 32.299 57.4588 32.357 57.0828 32.357H56.8722V33.8506H56.2026V29.6076Z" fill="white"/>
<path d="M61.4724 32.3183C61.4724 31.7132 61.1921 31.2751 60.688 31.2751C60.1843 31.2751 59.8972 31.7132 59.8972 32.3183C59.8972 32.9304 60.1843 33.3679 60.688 33.3679C61.1921 33.3679 61.4724 32.9304 61.4724 32.3183ZM60.4008 29.4852H60.9624L61.6 30.4317H61.064L60.6821 29.8776L60.3056 30.4317H59.7695L60.4008 29.4852ZM59.2148 32.3183C59.2148 31.4104 59.8014 30.7281 60.688 30.7281C61.5687 30.7281 62.1553 31.4104 62.1553 32.3183C62.1553 33.2262 61.5687 33.9155 60.688 33.9155C59.8078 33.9155 59.2148 33.2262 59.2148 32.3183Z" fill="white"/>
<path d="M62.8013 29.2922H63.4644V33.0203C63.4644 33.2458 63.541 33.3097 63.6878 33.3097C63.7325 33.3097 63.8218 33.2909 63.8787 33.2716L64.0128 33.7929C63.8537 33.8643 63.6554 33.896 63.4964 33.896C63.031 33.896 62.8013 33.6512 62.8013 33.2072V29.2922Z" fill="white"/>
<path d="M66.2078 32.016C66.1956 31.6295 66.0105 31.2494 65.5829 31.2494C65.1809 31.2494 64.9453 31.6037 64.9384 32.016H66.2078ZM64.2688 32.3183C64.2688 31.3981 64.773 30.7286 65.5893 30.7286C66.412 30.7286 66.8837 31.3465 66.8837 32.3317V32.4928H64.9453C64.9575 33.0136 65.2957 33.3808 65.844 33.3808C66.1445 33.3808 66.3865 33.2976 66.6035 33.1746L66.8013 33.6321C66.5077 33.8253 66.1312 33.9155 65.7744 33.9155C64.7219 33.9155 64.2688 33.1623 64.2688 32.3183" fill="white"/>
<path d="M70.5091 32.016C70.4968 31.6295 70.3118 31.2494 69.8842 31.2494C69.4821 31.2494 69.2465 31.6037 69.2396 32.016H70.5091ZM68.5701 32.3183C68.5701 31.3981 69.0742 30.7286 69.8906 30.7286C70.7133 30.7286 71.185 31.3465 71.185 32.3317V32.4928H69.2465C69.2588 33.0136 69.597 33.3808 70.1453 33.3808C70.4458 33.3808 70.6878 33.2976 70.9047 33.1746L71.1026 33.6321C70.809 33.8253 70.4325 33.9155 70.0756 33.9155C69.0232 33.9155 68.5701 33.1623 68.5701 32.3183" fill="white"/>
<path d="M71.812 30.8053H72.3667L72.4369 31.1661C72.7432 30.9149 73.0873 30.728 73.4638 30.728C73.8207 30.728 74.1079 30.8955 74.2552 31.2177C74.6184 30.902 75.0008 30.728 75.3518 30.728C75.8687 30.728 76.3149 31.0308 76.3149 31.8227V33.8511H75.6517V32.0096C75.6517 31.623 75.5751 31.3138 75.1731 31.3138C74.905 31.3138 74.6312 31.4684 74.3887 31.6681C74.395 31.7068 74.395 31.7583 74.395 31.8099V33.8511H73.7319V32.016C73.7319 31.6295 73.6553 31.3138 73.2601 31.3138C72.9857 31.3138 72.7113 31.4684 72.4752 31.6681V33.8511H71.812V30.8053Z" fill="white"/>
<path d="M78.168 33.355C78.7673 33.355 79.08 32.9427 79.08 32.3124C79.08 31.6101 78.6971 31.288 78.1297 31.288C77.9824 31.288 77.8553 31.3079 77.7276 31.3465V33.2584C77.868 33.3228 77.9957 33.355 78.168 33.355ZM77.0645 30.9213C77.3894 30.8054 77.7659 30.728 78.1552 30.728C79.1949 30.728 79.7623 31.3331 79.7623 32.3183C79.7623 33.2718 79.1311 33.9155 78.2121 33.9155C78.0403 33.9155 77.8744 33.8828 77.7276 33.8318V35.3774H77.0645V30.9213Z" fill="white"/>
<path d="M80.4084 29.2922H81.0716V33.0203C81.0716 33.2458 81.1482 33.3097 81.295 33.3097C81.3397 33.3097 81.429 33.2909 81.4859 33.2716L81.6199 33.7929C81.4609 33.8643 81.2626 33.896 81.1035 33.896C80.6382 33.896 80.4084 33.6512 80.4084 33.2072V29.2922Z" fill="white"/>
<path d="M84.2105 32.3183C84.2105 31.7132 83.9302 31.2751 83.4255 31.2751C82.9219 31.2751 82.6347 31.7132 82.6347 32.3183C82.6347 32.9304 82.9219 33.3679 83.4255 33.3679C83.9302 33.3679 84.2105 32.9304 84.2105 32.3183ZM81.9524 32.3183C81.9524 31.4104 82.539 30.7281 83.4255 30.7281C84.3062 30.7281 84.8928 31.4104 84.8928 32.3183C84.8928 33.2262 84.3062 33.9155 83.4255 33.9155C82.5459 33.9155 81.9524 33.2262 81.9524 32.3183Z" fill="white"/>
<path d="M85.5457 30.8053H86.2096V33.8511H85.5457V30.8053ZM85.4626 29.8331C85.4626 29.6006 85.6346 29.4207 85.8774 29.4207C86.1207 29.4207 86.2927 29.5947 86.2927 29.8331C86.2927 30.065 86.1143 30.2454 85.8774 30.2454C85.6346 30.2454 85.4626 30.065 85.4626 29.8331Z" fill="white"/>
<path d="M7.90864 11.3032L7.90651 11.3065C7.90757 11.3054 7.9081 11.3043 7.90864 11.3032ZM17.4648 40.6497C17.4653 40.6497 17.4653 40.6497 17.4659 40.6497C17.4653 40.6497 17.4653 40.6497 17.4648 40.6497ZM26.1132 42.6748C26.3216 42.6748 26.4838 42.8048 26.5556 42.8627C26.5695 42.8735 26.5838 42.8858 26.5976 42.895C26.8896 43.0501 27.2427 43.0415 27.5283 42.8617C27.8054 42.6877 27.958 42.3946 27.9474 42.059C27.907 40.7823 28.0984 39.4079 29.8242 38.8887C29.9645 38.8469 30.1411 38.6745 30.3118 38.5081C30.4001 38.4222 30.4884 38.3368 30.5777 38.2595C31.3015 37.6351 32.0019 37.6035 32.781 38.1591C33.181 38.4447 33.6974 38.6101 34.2441 38.7851C34.3626 38.8232 34.4807 38.8608 34.5972 38.9C34.8679 38.9902 35.1503 39.0563 35.4497 39.1266C35.7783 39.2034 36.1182 39.2828 36.4532 39.3999C36.8186 39.5271 37.1738 39.6812 37.5174 39.8299C38.0423 40.0581 38.5379 40.2723 39.0485 40.3909C39.6904 40.5386 40.043 40.1692 40.6099 39.5024C40.7205 39.3725 40.8316 39.242 40.9465 39.1169C41.4592 38.5602 42.0506 38.0872 42.6228 37.6298C42.9392 37.3769 43.2657 37.1154 43.5689 36.847C43.5178 36.8325 43.4662 36.8148 43.4147 36.7928C43.3104 36.7482 43.2056 36.7042 43.1003 36.6602C42.5637 36.4373 42.008 36.2065 41.5283 35.836C41.3502 35.6986 41.2422 35.4667 41.2076 35.1472C41.1709 34.8079 41.214 34.3091 41.456 34.0192C41.6719 33.761 41.7783 33.5473 41.7559 33.4174C41.7426 33.3374 41.6522 33.1634 41.2012 32.8977C40.8173 32.6717 40.5375 32.05 40.6258 31.6183C40.7231 31.1421 41.2938 30.8345 41.6304 30.7528C42.1867 30.6181 42.2606 30.478 42.2611 30.4764C42.2611 30.4758 42.276 30.3566 42.0537 30.0522C41.6474 29.496 41.1874 28.8652 41.3209 28.1866C41.373 27.9197 41.5065 27.683 41.7261 27.4704C41.724 27.4671 41.7224 27.4644 41.7203 27.4612C41.5475 27.1896 41.398 26.9549 41.273 26.6908C41.1874 26.5099 41.1284 26.2855 41.0763 26.0873C41.0683 26.0578 41.0592 26.0235 41.0497 25.9891C40.6375 25.9934 40.6306 26.0761 40.6104 26.3128C40.5726 26.7622 40.4094 27.0725 40.1254 27.2347C39.7191 27.4661 39.2612 27.2975 38.866 27.1015C38.6273 26.9834 38.5225 26.6962 38.6278 26.4497C38.7257 26.2216 38.8161 25.9848 38.9033 25.755C39.107 25.2187 39.3181 24.6641 39.643 24.1723C39.9531 23.7041 40.3408 23.3074 40.7157 22.924C40.9444 22.69 41.1598 22.4693 41.3576 22.2352C41.6022 21.9453 41.841 21.6366 41.9245 21.3429C42.0708 20.8307 42.3143 19.9766 43.5088 20.1575C43.6396 20.114 43.8959 19.8891 43.938 19.7763C44.014 19.5465 44.0262 19.262 44.039 18.9608C44.055 18.5758 44.072 18.1775 44.2203 17.7898C44.3427 17.4709 44.4145 17.1193 44.4905 16.7467C44.6756 15.8372 44.8856 14.8069 45.9174 14.0988C45.9535 14.0736 45.9748 14.0521 45.9854 14.0381C45.9642 14.0134 45.9046 13.9672 45.7871 13.9431C45.5765 13.9007 45.3584 13.8711 45.1271 13.8395C44.5873 13.7654 44.0289 13.6891 43.5178 13.4379C43.3668 13.3633 43.1487 13.323 42.9174 13.2806C42.3282 13.1716 41.3677 12.9939 41.1768 11.8391C41.0975 11.8127 40.9917 11.7827 40.8758 11.7574C40.654 11.7091 40.3908 11.6887 40.1121 11.6667C39.4393 11.6136 38.7432 11.5588 38.338 11.0837C38.1555 10.8694 37.8678 10.6853 37.5631 10.4904C37.0233 10.1441 36.3431 9.70817 36.1655 8.93452C36.0347 9.00485 35.8953 9.05908 35.7411 9.08485C35.3332 9.15518 34.853 8.8599 34.6551 8.69507C34.4398 8.51361 34.3286 8.3155 34.3249 8.10558C34.3169 7.6342 34.1739 7.49246 33.4724 7.26536C33.0826 7.13919 32.7114 6.79344 32.3705 6.23723C32.1487 5.87752 31.9838 5.48721 31.8243 5.10924C31.8153 5.08777 31.8062 5.06629 31.7966 5.04481C31.4669 5.12696 31.1771 5.113 30.9192 5.00401C30.3815 4.77799 30.1799 4.22822 30.0183 3.78636C29.9927 3.71764 29.9683 3.65053 29.9438 3.58718C29.8465 3.58557 29.7502 3.58289 29.655 3.5802C29.2083 3.56678 28.7871 3.55497 28.3968 3.6151C28.3111 3.63335 28.1229 3.78744 28.0883 3.86905C27.9857 4.35278 27.9362 4.8655 27.8836 5.40828C27.8554 5.69498 27.8267 5.99188 27.7884 6.28609C27.7639 6.47399 27.6894 6.82726 27.4618 7.09087C26.5524 8.14209 25.3101 8.29724 24.214 8.43415C24.1072 8.44757 24.0003 8.46099 23.8944 8.47495C23.4036 8.54045 23.3626 8.614 23.3701 8.96029C23.3812 9.47999 23.1589 9.94708 22.7606 10.2413C22.3123 10.5725 21.6933 10.6488 21.1045 10.4448C20.9514 10.3922 20.7993 10.3331 20.6477 10.274C20.3706 10.1667 20.1084 10.0647 19.8479 10.0056L19.7543 9.98466C19.0789 9.83433 18.0721 9.60992 18.0009 8.36435C17.9711 8.34395 17.9355 8.32248 17.9041 8.30798C17.6807 8.20866 17.4441 8.119 17.1622 8.01592L17.71 12.7018C17.7302 12.8747 17.6605 13.0454 17.526 13.1544C17.3914 13.2629 17.2111 13.294 17.0484 13.236C16.9112 13.1866 16.7926 13.1399 16.6862 13.0975C16.516 13.0304 16.3927 12.981 16.2879 12.9638C16.0704 12.9273 15.8518 12.8768 15.6407 12.828C15.1408 12.7126 14.6685 12.603 14.2984 12.6938C13.8564 12.8011 13.2927 12.886 12.8508 12.5848C12.5503 12.3797 12.37 12.0479 12.2998 11.5706C12.2621 11.3134 12.1679 11.1798 12.0983 11.1427C12.0557 11.1207 11.9978 11.1271 11.9265 11.1631C10.9942 11.6318 10.063 11.5486 9.24189 11.475C8.81112 11.4359 8.40482 11.3988 8.01021 11.4353C7.96448 11.4391 7.91449 11.4412 7.8629 11.4434C7.84854 11.4439 7.83152 11.4444 7.81451 11.4455C7.74271 11.554 7.64326 11.7086 7.60391 11.8036C7.72516 12.0549 7.92246 12.3029 8.1304 12.5638C8.23783 12.6991 8.34632 12.8355 8.45002 12.9778C8.54841 13.1131 8.57394 13.2892 8.51703 13.4475C8.46066 13.6054 8.32983 13.7246 8.16816 13.7648L7.83578 13.8481L8.25697 14.4349C9.60246 14.3629 10.5704 15.157 11.5085 15.9253C11.568 15.9741 11.6287 16.0235 11.6893 16.0729L12.3897 16.0042C12.5397 15.9897 12.688 16.0444 12.7939 16.1529C12.8997 16.2613 12.9508 16.4122 12.9337 16.5631L12.9178 16.6989L13.2332 16.7188C13.381 16.7284 13.5166 16.8036 13.6038 16.9244C13.6916 17.0452 13.7214 17.1987 13.6852 17.3442C13.5326 17.96 13.6251 18.0926 13.6256 18.0937C13.6442 18.1071 13.7597 18.141 14.0197 18.0986C14.1596 18.0755 14.3032 18.1147 14.4133 18.2049C14.5239 18.295 14.5903 18.4287 14.5978 18.5721C14.6026 18.6773 14.6047 18.7723 14.6074 18.8604C14.6116 19.0198 14.6148 19.1455 14.6324 19.2545C14.6504 19.3677 14.6882 19.4934 14.7281 19.6265C14.7488 19.6963 14.7701 19.7666 14.7898 19.838C14.8275 19.9771 14.8047 20.1264 14.7265 20.2477C14.66 20.3508 14.5584 20.4249 14.4425 20.4576C14.6781 20.7787 14.8472 21.1271 15.0052 21.4535C15.4269 22.3227 15.6901 22.7769 16.6267 22.7882C16.7724 22.7898 16.9106 22.8559 17.0042 22.9691C17.0978 23.083 17.1372 23.2322 17.1122 23.3777C17.0686 23.6322 17.0239 23.8802 16.9798 24.1234C16.8718 24.7237 16.7692 25.2906 16.7043 25.8549C16.6889 25.988 16.7447 26.1775 16.7873 26.2259C17.4265 26.8556 17.9881 27.6148 17.761 28.8829C17.7227 29.0955 17.5547 29.2598 17.3425 29.2915C17.1314 29.3226 16.9229 29.2147 16.8256 29.0219L16.3836 28.1474L15.7933 30.4302L16.2305 30.6884C16.3815 30.777 16.4751 30.9391 16.4778 31.1158C16.4804 31.2919 16.3916 31.4567 16.2438 31.5501C16.1092 31.6355 15.9731 31.7026 15.8529 31.7616C15.7667 31.8046 15.6401 31.8669 15.5886 31.9061C15.3211 32.56 15.0743 33.2408 14.8355 33.8995C14.6223 34.489 14.4016 35.0984 14.1644 35.6938C14.0128 36.0739 13.8011 36.41 13.5767 36.7665C13.5719 36.7734 13.5677 36.781 13.5629 36.7879L14.0676 37.0086C14.2729 37.0977 14.3936 37.3146 14.3638 37.5385L14.2872 38.1156C14.8642 38.2848 15.3434 38.6004 15.8109 38.9075C16.3645 39.2721 16.8878 39.6157 17.5089 39.6431C17.8216 39.657 17.9823 39.9045 18.0684 40.0377C18.0822 40.0597 18.0955 40.0817 18.1104 40.1C18.2444 40.2535 18.6874 40.414 19.2708 40.4199C19.8276 40.4167 20.3504 40.2825 20.5424 40.071C20.7238 39.8712 21.0285 39.8519 21.2332 40.0275C21.4359 40.2014 21.7124 40.3319 22.0054 40.4704C22.6399 40.7694 23.4754 41.1641 23.6642 42.2282C24.0933 42.2523 24.4704 42.415 24.7932 42.554C25.2761 42.7623 25.5659 42.8729 25.8994 42.7221C25.9743 42.6883 26.0461 42.6748 26.1132 42.6748V42.6748ZM27.0396 44.0122C26.7258 44.0122 26.4099 43.9344 26.1163 43.7771C26.0919 43.7642 26.0695 43.7502 26.0483 43.7363C25.4096 43.9156 24.8565 43.6767 24.4012 43.4802C24.0136 43.3137 23.6785 43.1688 23.3328 43.2633C23.1807 43.3051 23.0175 43.2708 22.8936 43.172C22.7696 43.0727 22.6994 42.9207 22.7042 42.7607C22.7292 41.9613 22.3367 41.7385 21.5832 41.3831C21.3625 41.2789 21.137 41.1721 20.9227 41.039C20.5132 41.2875 19.9415 41.4282 19.3054 41.4282C19.2905 41.4282 19.2756 41.4277 19.2607 41.4277C18.4258 41.4191 17.7153 41.171 17.36 40.7646C17.3223 40.7206 17.2898 40.675 17.2622 40.6331C16.465 40.5402 15.8305 40.123 15.2663 39.7515C14.744 39.4084 14.251 39.0842 13.6708 39.0128C13.5379 38.9972 13.4177 38.9279 13.3358 38.8211C13.2544 38.7148 13.2183 38.5795 13.2363 38.4458L13.3246 37.7817L12.637 37.481C12.5056 37.4236 12.4051 37.3125 12.361 37.175C12.3163 37.0381 12.3323 36.8878 12.4051 36.7638C12.5163 36.5726 12.6274 36.3955 12.7343 36.2258C12.9417 35.8962 13.1209 35.6111 13.2385 35.3174C13.4698 34.737 13.6879 34.1357 13.8985 33.5538C14.1452 32.8725 14.4005 32.1686 14.6818 31.483C14.7462 31.3262 14.8509 31.2087 14.9733 31.1136L14.9631 31.1077C14.7701 30.9939 14.6754 30.7641 14.7323 30.5456L15.6354 27.0516C15.6747 26.9007 15.7789 26.7799 15.9146 26.7187C15.7353 26.4132 15.6806 26.0235 15.713 25.7389C15.7816 25.1419 15.8869 24.5594 15.9981 23.9425C16.0103 23.8749 16.0231 23.8061 16.0353 23.7363C14.8882 23.5033 14.4611 22.6228 14.1091 21.8964C13.8458 21.3537 13.5969 20.8409 13.0864 20.5575C12.8986 20.4528 12.7981 20.2396 12.8364 20.0265C12.8742 19.8133 13.0433 19.6485 13.2555 19.6174L13.674 19.5562C13.6634 19.51 13.6544 19.4628 13.6469 19.4144C13.631 19.314 13.6224 19.2174 13.6171 19.117C13.3124 19.0859 13.0688 18.9715 12.8901 18.775C12.62 18.4776 12.5726 18.0803 12.6099 17.6884L12.3301 17.6707C12.194 17.6615 12.0669 17.5966 11.9791 17.4908C11.8919 17.385 11.851 17.2471 11.8664 17.1102L11.8717 17.0672L11.5845 17.0957C11.4553 17.1085 11.3266 17.0699 11.2256 16.9888C11.1091 16.8954 10.9937 16.8014 10.8793 16.7075C9.96144 15.9559 9.16744 15.3057 8.09105 15.4625C7.9081 15.4888 7.72463 15.4109 7.61614 15.2595L6.59399 13.8341C6.49667 13.6988 6.47274 13.5232 6.52964 13.3659C6.58655 13.2086 6.71737 13.0905 6.87798 13.0497L7.17846 12.9751C6.97371 12.7104 6.77853 12.4312 6.64611 12.1091C6.4637 11.6678 6.77481 11.2002 7.02476 10.8249L7.07688 10.7465C7.26621 10.4582 7.60178 10.4453 7.82408 10.4367C7.85865 10.4351 7.89215 10.434 7.92246 10.4313C8.40482 10.3884 8.87494 10.4303 9.33018 10.4711C10.0869 10.5393 10.8017 10.6031 11.4814 10.2617C11.8441 10.0792 12.2275 10.0749 12.5599 10.2499C12.9481 10.4539 13.206 10.8705 13.2869 11.423C13.3119 11.5926 13.3576 11.7145 13.4092 11.7499C13.4406 11.7714 13.5804 11.8321 14.0649 11.714C14.6632 11.569 15.2732 11.7097 15.863 11.846C16.0688 11.8938 16.2629 11.9384 16.4506 11.97C16.5102 11.9797 16.5676 11.9926 16.624 12.0082L16.0762 7.32227C16.056 7.14832 16.1268 6.97544 16.2629 6.86753C16.3996 6.75908 16.582 6.72955 16.7453 6.79129C16.9537 6.86914 17.1393 6.93678 17.3084 6.99799C17.6961 7.13919 18.0019 7.25086 18.3061 7.38615C18.4215 7.43716 18.998 7.71849 18.9948 8.21081C18.9911 8.73051 19.1762 8.82446 19.9696 9.0011L20.0654 9.02257C20.3983 9.09773 20.7073 9.21799 21.0061 9.33396C21.146 9.38818 21.2864 9.44295 21.4279 9.49181C21.7081 9.58844 21.9863 9.56482 22.1714 9.42791C22.3091 9.32644 22.3766 9.17665 22.3724 8.9823C22.3437 7.6648 23.3754 7.52789 23.7641 7.47635C23.8732 7.46185 23.9822 7.4479 24.0912 7.43448C25.0995 7.30885 26.0515 7.18966 26.7104 6.42782C26.7343 6.3999 26.78 6.30112 26.7992 6.15562C26.8348 5.87752 26.863 5.58868 26.8901 5.3095C26.9433 4.76242 26.9986 4.19654 27.1177 3.63926C27.2252 3.13781 27.8022 2.68737 28.2468 2.61918C28.7254 2.54563 29.212 2.55905 29.6827 2.57301C29.8725 2.57838 30.0656 2.58375 30.2624 2.58375C30.44 2.58375 30.6043 2.67932 30.6937 2.83447C30.8032 3.02507 30.8798 3.23445 30.9537 3.43685C31.0489 3.69563 31.1664 4.01669 31.3026 4.07413C31.4015 4.11547 31.61 4.07091 31.861 3.95602C32.1115 3.84113 32.4066 3.95226 32.5215 4.2046C32.5992 4.3764 32.6715 4.54659 32.7422 4.7141C32.8938 5.07273 33.0368 5.41097 33.2182 5.70625C33.4548 6.09173 33.6623 6.2689 33.7777 6.30595C34.3249 6.48312 35.2258 6.77572 35.3157 7.93914C35.396 7.99927 35.5284 8.06853 35.6012 8.08571C35.7289 8.0492 35.907 7.90639 36.0804 7.76841C36.1979 7.67446 36.3192 7.57782 36.4559 7.4844C36.633 7.3636 36.8664 7.37005 37.0366 7.50051C37.2073 7.63151 37.2759 7.857 37.2084 8.06155C36.9435 8.85936 37.2898 9.12189 38.0981 9.63944C38.4507 9.86547 38.8155 10.099 39.0947 10.4265C39.2309 10.5865 39.785 10.6305 40.1897 10.6622C40.4886 10.6858 40.7976 10.7105 41.0842 10.7723C41.8155 10.9296 42.1229 11.1459 42.1447 11.5185C42.1777 12.0903 42.4154 12.1633 43.0972 12.2895C43.3843 12.3426 43.6811 12.3974 43.955 12.5327C44.3219 12.7126 44.7782 12.7754 45.2611 12.8409C45.4972 12.8731 45.7419 12.9069 45.9828 12.9558C46.5034 13.0605 46.8826 13.4019 46.972 13.847C47.0539 14.2572 46.8698 14.663 46.4784 14.932C45.7818 15.4098 45.636 16.1239 45.468 16.9496C45.3871 17.3464 45.3031 17.7566 45.151 18.1533C45.0617 18.3863 45.0494 18.6859 45.0362 19.0037C45.0207 19.3613 45.0053 19.7312 44.8835 20.0968C44.7208 20.5875 43.9864 21.2581 43.3875 21.1577C43.0333 21.0986 43.0333 21.0986 42.8834 21.6226C42.7472 22.0994 42.4345 22.5128 42.117 22.8891C41.8958 23.1511 41.657 23.3949 41.4262 23.6311C41.0688 23.9978 40.7301 24.3436 40.4732 24.7323C40.3833 24.8676 40.3035 25.0125 40.2291 25.1644C40.6067 24.9604 41.0662 24.9771 41.331 24.9862L41.3789 24.9878C41.8229 25.0028 41.9383 25.4415 42.0404 25.828C42.0793 25.9762 42.1282 26.1604 42.1739 26.257C42.2718 26.4637 42.3989 26.6634 42.56 26.9168C42.6403 27.043 42.7265 27.1783 42.8174 27.3281C42.8866 27.4424 42.9084 27.5799 42.877 27.7103C42.8456 27.8403 42.7642 27.953 42.651 28.0223C42.5053 28.1114 42.326 28.2461 42.2994 28.382C42.2521 28.6252 42.6015 29.1046 42.8573 29.4552C42.9956 29.6447 43.4162 30.2208 43.1982 30.8221C42.9897 31.3987 42.3367 31.6178 41.8639 31.7327C41.7825 31.752 41.6804 31.8094 41.6198 31.8567C41.6411 31.9238 41.6857 32.0081 41.7198 32.0381C42.0995 32.2609 42.6361 32.6405 42.7398 33.2461C42.8153 33.688 42.6488 34.1486 42.2319 34.6528C42.1941 34.7403 42.1824 34.9679 42.2058 35.0887C42.5691 35.3502 43.0126 35.5343 43.4801 35.7292C43.5891 35.7743 43.6976 35.8194 43.805 35.8656C43.8741 35.8951 44.0007 35.9048 44.123 35.9144C44.2087 35.9214 44.2948 35.9284 44.3783 35.9407C44.5347 35.9633 44.6713 36.0594 44.7468 36.2C44.8218 36.3402 44.8266 36.5088 44.7591 36.6532C44.7288 36.7187 44.7043 36.7901 44.6793 36.8615C44.6006 37.0832 44.5027 37.3581 44.2778 37.5594C43.9406 37.8612 43.5859 38.1452 43.2423 38.4195C42.6749 38.8737 42.1388 39.3021 41.6777 39.8025C41.5714 39.9179 41.4687 40.0387 41.3672 40.159C40.7965 40.8296 40.0866 41.6628 38.8256 41.3724C38.2268 41.2344 37.6663 40.9912 37.1238 40.756C36.7819 40.6078 36.4585 40.4672 36.1277 40.3517C35.8416 40.2524 35.5417 40.1826 35.2242 40.108C34.9163 40.0361 34.5977 39.9614 34.2829 39.8562C34.1707 39.8186 34.0563 39.7821 33.9425 39.7456C33.3469 39.555 32.7316 39.3574 32.2051 38.9822C31.7738 38.674 31.5738 38.7261 31.2265 39.0251C31.1516 39.0895 31.0782 39.1615 31.0048 39.2329C30.7596 39.4718 30.482 39.7424 30.1092 39.8541C29.1961 40.1289 28.902 40.6771 28.9451 42.0263C28.9669 42.7205 28.6345 43.3529 28.0564 43.7169C27.7432 43.914 27.3927 44.0122 27.0396 44.0122" fill="#37B4B4"/>
<path d="M26.1133 42.6748C26.3217 42.6748 26.4839 42.8047 26.5563 42.8627C26.5696 42.8734 26.5839 42.8858 26.5977 42.8949C26.8897 43.0501 27.2428 43.0415 27.5284 42.8616C27.8055 42.6871 27.9581 42.3945 27.9475 42.059C27.9071 40.7823 28.0985 39.4079 29.8243 38.8887C29.9647 38.8468 30.1412 38.6745 30.3119 38.5081C30.4002 38.4222 30.4885 38.3368 30.5784 38.2595C31.3016 37.6351 32.002 37.6034 32.7811 38.1591C33.1816 38.4447 33.6975 38.6101 34.2442 38.7851C34.3628 38.8232 34.4808 38.8608 34.5973 38.9C34.868 38.9902 35.1504 39.0562 35.4498 39.1265C35.7784 39.2033 36.1183 39.2828 36.4533 39.3993C36.8187 39.5271 37.1739 39.6811 37.5175 39.8299C38.0424 40.0575 38.538 40.2723 39.0486 40.3909C39.6905 40.5385 40.0431 40.1692 40.61 39.5024C40.7206 39.3724 40.8317 39.242 40.9466 39.1169C41.4593 38.5601 42.0507 38.0871 42.6229 37.6297C42.9393 37.3768 43.2658 37.1154 43.569 36.8469C43.5179 36.8325 43.4663 36.8142 43.4148 36.7922C43.3105 36.7476 43.2058 36.7041 43.1005 36.6601C42.5639 36.4373 42.0081 36.2064 41.5284 35.836C41.3503 35.6986 41.2423 35.4666 41.2077 35.1472C41.171 34.8079 41.2141 34.3086 41.4561 34.0187C41.672 33.761 41.7784 33.5473 41.756 33.4173C41.7427 33.3374 41.6523 33.1634 41.2013 32.8976C40.8174 32.6716 40.5382 32.0499 40.6259 31.6183C40.7232 31.142 41.2939 30.8344 41.6305 30.7528C42.1868 30.618 42.2607 30.4779 42.2612 30.4763C42.2612 30.4758 42.2761 30.3566 42.0538 30.0522C41.6475 29.496 41.1875 28.8651 41.321 28.1865C41.3731 27.9197 41.5066 27.6829 41.7262 27.4703C41.7241 27.4671 41.7225 27.4639 41.7204 27.4612C41.5476 27.1895 41.3981 26.9549 41.2731 26.6908C41.1875 26.5098 41.1285 26.2854 41.0764 26.0873C41.0684 26.0578 41.0593 26.0234 41.0498 25.9891C40.6382 25.9934 40.6307 26.076 40.6105 26.3128C40.5727 26.7622 40.4095 27.0719 40.1255 27.2346C39.7192 27.466 39.2613 27.2969 38.8662 27.1015C38.6274 26.9828 38.5226 26.6961 38.6279 26.4497C38.7258 26.2215 38.8162 25.9848 38.9034 25.755C39.1071 25.2186 39.3182 24.664 39.6431 24.1722C39.9532 23.7041 40.3409 23.3073 40.7158 22.9235C40.9445 22.6899 41.1599 22.4693 41.3577 22.2352C41.6023 21.9453 41.8411 21.636 41.9246 21.3429C42.0709 20.8307 42.3144 19.9765 43.5089 20.1574C43.6397 20.114 43.896 19.889 43.9381 19.7763C44.0141 19.5459 44.0263 19.2619 44.0391 18.9607C44.0551 18.5758 44.0721 18.1774 44.2205 17.7893C44.3428 17.4709 44.4146 17.1192 44.4906 16.7466C44.6757 15.8372 44.8858 14.8069 45.9175 14.0987C45.9536 14.0735 45.9749 14.052 45.9855 14.0381C45.9643 14.0134 45.9047 13.9672 45.7872 13.943C45.5766 13.9006 45.3585 13.8711 45.1272 13.8394C44.5874 13.7653 44.029 13.6891 43.5179 13.4378C43.3669 13.3632 43.1488 13.3229 42.9175 13.2805C42.3283 13.1715 41.3678 12.9938 41.1769 11.839C41.0976 11.8127 40.9923 11.7821 40.8759 11.7574C40.6541 11.7091 40.3909 11.6887 40.1122 11.6667C39.4394 11.6135 38.7433 11.5582 38.3381 11.0836C38.1562 10.8694 37.8685 10.6853 37.5632 10.4904C37.0234 10.1441 36.3432 9.70813 36.1656 8.93448C36.0348 9.00481 35.8954 9.05904 35.7412 9.08481C35.3333 9.15514 34.8531 8.85985 34.6552 8.69449C34.4399 8.51357 34.3287 8.31546 34.325 8.10554C34.317 7.63362 34.174 7.49242 33.4725 7.26532C33.0827 7.13915 32.7115 6.7934 32.3706 6.23719C32.1488 5.87694 31.9839 5.48663 31.8244 5.1092C31.8154 5.08772 31.8063 5.06625 31.7973 5.04478C31.467 5.12638 31.1772 5.11296 30.9193 5.00397C30.3816 4.77794 30.18 4.22818 30.0184 3.78633C29.9928 3.7176 29.9684 3.65049 29.9439 3.58714C29.8466 3.58499 29.7503 3.58285 29.6551 3.58016C29.2084 3.56674 28.7872 3.55493 28.3969 3.61506C28.3112 3.63331 28.123 3.7874 28.0884 3.869C27.9858 4.35274 27.9363 4.86546 27.8837 5.40771C27.8555 5.69494 27.8268 5.99183 27.7885 6.28604C27.764 6.47395 27.6895 6.82722 27.4619 7.09083C26.5525 8.14204 25.3102 8.2972 24.2141 8.43411C24.1073 8.44753 24.0004 8.46095 23.8945 8.47491C23.4037 8.53987 23.3627 8.61396 23.3702 8.96025C23.3813 9.47995 23.159 9.94704 22.7607 10.2413C22.3129 10.5725 21.6933 10.6487 21.1046 10.4447C20.9515 10.3921 20.7994 10.3331 20.6478 10.274C20.3707 10.1666 20.1085 10.0646 19.848 10.0056L19.7544 9.98462C19.079 9.83429 18.0722 9.60988 18.001 8.36431C17.9712 8.34391 17.9361 8.32244 17.9042 8.30794C17.6808 8.20862 17.4442 8.11896 17.1623 8.01588L17.7101 12.7018C17.7303 12.8747 17.6606 13.0454 17.5266 13.1544C17.3915 13.2628 17.2112 13.2934 17.0485 13.236C16.9113 13.1866 16.7927 13.1399 16.6863 13.0975C16.5161 13.0303 16.3928 12.981 16.288 12.9638C16.0705 12.9273 15.8519 12.8768 15.6408 12.8279C15.1409 12.7125 14.6686 12.603 14.2985 12.6937C13.8565 12.8011 13.2928 12.8859 12.8509 12.5847C12.5504 12.3796 12.3701 12.0479 12.2999 11.5706C12.2622 11.3134 12.168 11.1792 12.0984 11.1427C12.0558 11.1207 11.9979 11.1271 11.9266 11.1631C10.9943 11.6318 10.0631 11.548 9.24199 11.475C8.81122 11.4358 8.40492 11.3988 8.01031 11.4347C7.96457 11.439 7.91458 11.4412 7.863 11.4433C7.84864 11.4439 7.83215 11.4444 7.8146 11.4455C7.74281 11.5539 7.64389 11.7085 7.604 11.8036C7.72526 12.0548 7.92256 12.3029 8.1305 12.5638C8.23793 12.6991 8.34642 12.8355 8.45012 12.9777C8.54851 13.113 8.57403 13.2891 8.51713 13.4475C8.46076 13.6053 8.32993 13.7245 8.16826 13.7648L7.83588 13.848L8.25707 14.4348C9.60256 14.3629 10.5705 15.1569 11.5086 15.9252C11.5681 15.9741 11.6288 16.0235 11.6894 16.0729L12.3898 16.0041C12.5398 15.9891 12.6881 16.0439 12.794 16.1529C12.8998 16.2613 12.9509 16.4122 12.9338 16.563L12.9179 16.6989L13.2333 16.7187C13.3811 16.7284 13.5167 16.8036 13.6045 16.9243C13.6917 17.0451 13.7215 17.1987 13.6853 17.3442C13.5327 17.96 13.6252 18.0926 13.6263 18.0937C13.6443 18.1071 13.7597 18.1409 14.0198 18.0985C14.1597 18.0754 14.3033 18.1141 14.4133 18.2048C14.524 18.295 14.5904 18.4287 14.5979 18.5715C14.6027 18.6773 14.6048 18.7723 14.6075 18.8603C14.6117 19.0198 14.6149 19.1454 14.6325 19.2544C14.6505 19.3677 14.6883 19.4933 14.7282 19.6265C14.7489 19.6963 14.7702 19.7666 14.7899 19.838C14.8276 19.9771 14.8048 20.1263 14.7266 20.2476C14.6601 20.3507 14.5585 20.4248 14.4426 20.4576C14.6782 20.7786 14.8473 21.1271 15.0053 21.4535C15.427 22.3227 15.6902 22.7764 16.6268 22.7876C16.773 22.7892 16.9107 22.8558 17.0043 22.9691C17.0979 23.0829 17.1373 23.2322 17.1123 23.3777C17.0687 23.6321 17.024 23.8802 16.9799 24.1234C16.8719 24.7236 16.7693 25.2906 16.7044 25.8548C16.689 25.9874 16.7448 26.1775 16.7874 26.2258C17.4266 26.8556 17.9882 27.6147 17.7611 28.8828C17.7228 29.0955 17.5548 29.2597 17.3426 29.2914C17.1314 29.322 16.923 29.2146 16.8257 29.0219L16.3837 28.1473L15.7934 30.4301L16.2306 30.6884C16.3816 30.777 16.4752 30.9391 16.4779 31.1157C16.4805 31.2918 16.3917 31.4567 16.2439 31.5501C16.1093 31.6354 15.9732 31.7025 15.8535 31.7616C15.7668 31.804 15.6402 31.8668 15.5887 31.9055C15.3212 32.5599 15.0744 33.2407 14.8356 33.8995C14.6224 34.489 14.4016 35.0983 14.1645 35.6937C14.0129 36.0738 13.8012 36.4099 13.5768 36.7664C13.572 36.7734 13.5678 36.7804 13.563 36.7879L14.0677 37.0085C14.273 37.0977 14.3937 37.3146 14.3639 37.5385L14.2873 38.1156C14.8643 38.2847 15.344 38.6004 15.811 38.9075C16.3646 39.272 16.8879 39.6156 17.509 39.643C17.8217 39.6564 17.9824 39.9045 18.0685 40.0376C18.0823 40.0591 18.0956 40.0817 18.1105 40.0999C18.2445 40.2535 18.6875 40.414 19.2709 40.4199C19.8277 40.4161 20.3505 40.2819 20.5425 40.0704C20.7239 39.8712 21.0286 39.8519 21.2333 40.0274C21.436 40.2014 21.7125 40.3318 22.0055 40.4704C22.64 40.7694 23.476 41.164 23.6648 42.2281C24.0934 42.2523 24.4705 42.4149 24.7933 42.5535C25.2762 42.7623 25.566 42.8729 25.8995 42.722C25.9745 42.6877 26.0462 42.6748 26.1133 42.6748Z" fill="white"/>
<path d="M24.2303 18.1478C26.7149 18.1478 28.7294 20.1815 28.7294 22.6898C28.7294 25.1981 28.9384 25.4091 24.2303 30.1621C19.5221 25.4091 19.7311 25.1981 19.7311 22.6898C19.7311 20.1815 21.7456 18.1478 24.2303 18.1478Z" fill="#23333C"/>
<path d="M24.2302 23.8456C23.5426 23.8456 22.9831 23.2808 22.9831 22.5866C22.9831 21.8924 23.5426 21.3276 24.2302 21.3276C24.9179 21.3276 25.4773 21.8924 25.4773 22.5866C25.4773 23.2808 24.9179 23.8456 24.2302 23.8456ZM24.2302 16.9751C21.109 16.9751 18.5701 19.5387 18.5701 22.6897L18.5691 22.9908C18.5595 25.7032 18.8573 26.3957 23.4096 30.9909C23.6362 31.2196 23.9329 31.334 24.2302 31.334C24.5275 31.334 24.8248 31.2196 25.0513 30.9909C29.6031 26.3957 29.9015 25.7032 29.8914 22.9908L29.8908 22.6897C29.8908 19.5387 27.3514 16.9751 24.2302 16.9751ZM24.2302 25.0176C25.5603 25.0176 26.6383 23.9293 26.6383 22.5866C26.6383 21.2438 25.5603 20.1556 24.2302 20.1556C22.9007 20.1556 21.8222 21.2438 21.8222 22.5866C21.8222 23.9293 22.9007 25.0176 24.2302 25.0176ZM24.2302 18.1476C26.7149 18.1476 28.7294 20.1808 28.7294 22.6897C28.7294 25.198 28.9384 25.409 24.2302 30.162C19.5221 25.409 19.7311 25.198 19.7311 22.6897C19.7311 20.1808 21.7456 18.1476 24.2302 18.1476Z" fill="#37B4B4"/>
</svg>
