<svg id="a" xmlns="http://www.w3.org/2000/svg" viewBox="0 0 278 95.1"><defs><style>.b{fill:#21313b}.d{fill:#37b4b4}.e{fill:#23333c}</style></defs><path class="e" d="M91.7 47.7a42.5 42.5 0 1 1-85 0 42.5 42.5 0 0 1 85 0"/><path class="b" d="M108 35h3.3l4.4 6.2 1.4 2.1 1.3-2.2 4-6.1h3.3v17H122V41l-1.2 1.8-3 4.7h-1.6l-3.5-4.9c-.4-.5-.8-1-1.1-1.7v11.3H108V34.9ZM128.6 46c0-3.8 2.5-6.5 6.3-6.5s6.3 2.7 6.3 6.4-2.6 6.5-6.3 6.5-6.3-2.8-6.3-6.5Zm9 0c0-2.2-.9-3.7-2.7-3.7s-2.7 1.5-2.7 3.6.8 3.6 2.7 3.6 2.7-1.5 2.7-3.6ZM143.6 51.4V33.7h3.5v6l2.2-.2c3.4 0 6 2.1 6 6 0 4.3-3.2 6.8-7.5 6.8-1.6 0-3-.2-4.2-.9Zm8.2-5.7c0-2-1.2-3.3-3-3.3-.9 0-1.3.1-1.7.3v6.6c.4.2.9.2 1.3.2 2 0 3.4-1.6 3.4-3.8ZM157.3 36c0-1.1.9-2 2.1-2s2.1.8 2.1 2-.9 2-2 2-2.2-.8-2.2-2Zm.3 3.8h3.6v12.3h-3.5V39.8ZM162.7 39.8h3.5l2.9 7.9 2.8-7.9h3.6l-5.1 12.4h-2.6l-5.1-12.4ZM176.6 36c0-1.1 1-2 2.1-2s2.2.8 2.2 2-1 2-2.2 2-2-.8-2-2Zm.4 3.8h3.5v12.3H177V39.8ZM183.4 33.7h3.5v14.5c0 .8.4 1 1 1h.7l.7 2.6c-.8.4-1.8.5-2.5.5-2.2 0-3.4-1-3.4-3.2V33.7ZM191.2 33.7h3.5v14.5c0 .8.4 1 1 1h.7l.7 2.6c-.8.4-1.8.5-2.5.5-2.2 0-3.4-1-3.4-3.2V33.7ZM198.4 46c0-3.7 2-6.5 5.7-6.5s5.6 2.5 5.6 6.7v.8H202c0 1.7 1.4 2.6 3.3 2.6a6 6 0 0 0 3.1-.8l1 2.4c-1.4.8-2.9 1.2-4.5 1.2-4.6 0-6.4-3.1-6.4-6.3Zm7.8-1.4c0-1.2-.6-2.5-2.2-2.5-1.4 0-2.1 1.2-2.1 2.5h4.3Z"/><path class="d" d="M56.9 86.7c-.6 0-1.2-.1-1.8-.4v-.1c-1.3.3-2.3-.1-3.2-.5-.7-.3-1.4-.6-2-.4a1 1 0 0 1-.8-.2 1 1 0 0 1-.4-.7c0-1.5-.7-2-2.1-2.6l-1.2-.6a6 6 0 0 1-3 .7h-.2c-1.5 0-2.9-.5-3.5-1.3l-.2-.2c-1.5-.2-2.7-1-3.8-1.6-1-.7-1.9-1.3-3-1.4a1 1 0 0 1-.6-.4 1 1 0 0 1-.2-.7l.2-1.2-1.3-.6a1 1 0 0 1-.5-.6v-.7l.7-1 1-1.7 1.2-3.3a92 92 0 0 1 2-4.6 1 1 0 0 1-.5-1l1.7-6.5c.1-.3.3-.5.6-.6a3 3 0 0 1-.4-1.9l.5-3.3v-.4c-2-.4-2.9-2-3.5-3.4-.5-1-1-2-2-2.5a1 1 0 0 1 .4-1.8h.8v-.3l-.2-.6a2 2 0 0 1-1.3-.6c-.5-.6-.6-1.3-.6-2h-.5a1 1 0 0 1-.6-.4 1 1 0 0 1-.3-.7v-.1h-.5a1 1 0 0 1-.7-.1l-.6-.6c-1.7-1.4-3.2-2.6-5.2-2.3a1 1 0 0 1-1-.4l-1.9-2.6A1 1 0 0 1 19 29l.6-.1c-.4-.5-.8-1-1-1.6-.4-.8.2-1.7.7-2.4v-.2c.4-.5 1-.5 1.5-.5H23.6c1.4.2 2.8.3 4-.4.7-.3 1.5-.3 2 0 .8.4 1.3 1.2 1.5 2.2 0 .3 0 .5.2.6 0 0 .3.2 1.2 0 1.1-.3 2.3 0 3.4.2a18.4 18.4 0 0 0 1.4.3l-1-8.7a1 1 0 0 1 1.3-1l1 .4 2 .7c.1 0 1.2.6 1.2 1.5 0 1 .3 1.2 1.8 1.5h.2l1.8.6.8.3c.5.2 1 .1 1.4-.1.2-.2.4-.5.3-.8 0-2.5 2-2.8 2.7-2.8l.6-.1c1.9-.3 3.7-.5 5-1.9v-.5l.2-1.6c.1-1 .2-2 .5-3.1.2-1 1.3-1.8 2.1-1.9h3.7c.4 0 .7.1.9.4l.5 1.1c.2.5.4 1.1.6 1.2.2 0 .6 0 1.1-.2.5-.2 1 0 1.2.5l.5.9c.2.7.5 1.3.9 1.9.4.7.8 1 1 1 1 .4 2.7 1 2.9 3.1l.5.3c.3 0 .6-.3 1-.6l.6-.5a1 1 0 0 1 1.5 1c-.5 1.5.1 2 1.6 3a8 8 0 0 1 1.9 1.4c.3.3 1.3.4 2 .5.6 0 1.2 0 1.7.2 1.4.3 2 .7 2 1.4 0 1 .5 1.2 1.8 1.4.6.1 1.1.2 1.6.5.7.3 1.6.4 2.5.5l1.3.3c1 .2 1.7.8 2 1.6 0 .8-.3 1.5-1 2-1.3 1-1.6 2.3-2 3.8 0 .7-.2 1.5-.5 2.2-.2.5-.2 1-.2 1.6 0 .7-.1 1.4-.3 2-.3 1-1.7 2.2-2.8 2q-.7 0-1 .9c-.3.9-.8 1.7-1.4 2.4L84 48.7a14.6 14.6 0 0 0-2.3 2.9 4 4 0 0 1 2-.3h.2c.8 0 1 .8 1.2 1.5a4.8 4.8 0 0 0 1 2l.5.8a1 1 0 0 1-.3 1.3c-.3.2-.7.5-.7.7 0 .5.6 1.4 1 2 .3.3 1.1 1.4.7 2.5-.4 1.1-1.6 1.5-2.5 1.7-.2 0-.4.2-.5.3l.2.3c.7.4 1.7 1.1 2 2.3 0 .8-.2 1.6-1 2.6 0 .2-.1.6 0 .8.6.5 1.4.8 2.3 1.2l.6.2.6.1h.5c.3.1.6.3.7.6.1.2.2.5 0 .8l-.1.4c-.2.4-.4 1-.8 1.3l-2 1.6c-1 .8-2 1.6-2.9 2.6l-.5.6c-1.1 1.3-2.5 2.8-4.8 2.3-1.2-.3-2.2-.7-3.2-1.2a23.5 23.5 0 0 0-5.4-1.6l-.6-.2c-1.1-.4-2.3-.8-3.3-1.5-.8-.5-1.2-.4-1.8.1l-.4.4c-.5.5-1 1-1.7 1.2-1.7.5-2.3 1.5-2.2 4a3.5 3.5 0 0 1-3.6 3.7ZM55 84.2c.4 0 .7.3.9.4.6.3 1.3.3 1.8 0 .5-.4.8-1 .8-1.5 0-2.4.3-5 3.5-6a3 3 0 0 0 1-.6l.4-.5c1.4-1.2 2.7-1.2 4.2-.2.7.5 1.7.8 2.7 1.2l.7.2 1.6.4a17.1 17.1 0 0 1 3.9 1.3c1 .4 1.9.8 2.9 1 1.2.3 1.8-.4 2.9-1.6l.6-.7c1-1 2.1-2 3.2-2.8l1.8-1.4-.3-.1-.6-.3c-1-.4-2-.8-3-1.5-.3-.3-.5-.7-.6-1.3 0-.6 0-1.6.5-2.1.4-.5.6-.9.5-1.1 0-.2-.2-.5-1-1a2.5 2.5 0 0 1-1-2.4c.1-.9 1.2-1.4 1.8-1.6 1-.2 1.2-.5 1.2-.5l-.4-.8c-.7-1-1.6-2.2-1.4-3.5.1-.5.4-1 .8-1.3l-.9-1.5-.3-1V53c-.8 0-.9.2-.9.6 0 .9-.4 1.4-1 1.8-.7.4-1.5 0-2.3-.3-.4-.2-.6-.8-.4-1.2l.5-1.3c.4-1 .8-2 1.4-3l2-2.3 1.2-1.3c.5-.5 1-1 1-1.6.4-1 .8-2.6 3-2.2.3-.1.8-.5.9-.7l.2-1.6c0-.7 0-1.4.3-2.1l.5-2c.4-1.7.7-3.6 2.7-5h.1l-.4-.2-1.2-.2c-1-.1-2-.3-3-.7-.3-.2-.7-.2-1.2-.3-1-.2-2.9-.6-3.2-2.7l-.6-.2-1.4-.1c-1.3-.1-2.6-.2-3.4-1.1-.3-.4-.8-.8-1.4-1.1-1-.7-2.3-1.5-2.7-3l-.8.4c-.7 0-1.6-.5-2-.8-.4-.3-.6-.7-.6-1 0-1-.3-1.2-1.6-1.6-.7-.3-1.4-1-2-2-.5-.6-.8-1.4-1.1-2V14c-.7.2-1.2.2-1.7 0-1-.5-1.4-1.5-1.7-2.3l-.1-.4h-3l-.5.5a26.9 26.9 0 0 0-.6 4.5c0 .4-.2 1-.6 1.5-1.7 2-4 2.3-6.1 2.5l-.6.1c-1 .1-1 .3-1 1 0 .9-.4 1.8-1.2 2.3-.8.6-2 .8-3 .4l-1-.3-1.4-.5h-.2c-1.3-.3-3.2-.8-3.3-3l-.2-.2-1.4-.5 1 8.7c0 .3 0 .6-.3.8a1 1 0 0 1-1 .2l-.6-.3-.7-.2-1.3-.3c-.9-.2-1.8-.4-2.5-.2-.8.2-1.9.3-2.7-.2-.6-.4-.9-1-1-2-.1-.4-.3-.6-.4-.7h-.3a9 9 0 0 1-5 .6H20.7l-.5.6 1 1.5.6.7c.2.3.2.6.1.9a1 1 0 0 1-.6.6l-.6.1.8 1.1c2.5-.1 4.3 1.4 6 2.8.2 0 .3.2.4.3l1.3-.1c.3 0 .6 0 .8.2.2.2.3.5.2.8v.2h.6c.3.1.5.2.7.5.2.2.2.5.2.7-.3 1.2-.2 1.4-.2 1.4s.3.1.8 0a1 1 0 0 1 1 1 8.8 8.8 0 0 0 .1 1.2l.2.7.1.4v.7a1 1 0 0 1-.6.4c.4.6.8 1.3 1 1.9.8 1.6 1.3 2.4 3.1 2.5.3 0 .5 0 .7.3.2.2.3.5.2.8l-.2 1.4-.6 3.2.2.7c1.2 1.1 2.3 2.6 1.8 5 0 .3-.4.6-.8.7a1 1 0 0 1-1-.5l-.8-1.7-1 4.3.8.5c.2.1.4.4.4.8 0 .3-.1.6-.4.8l-.7.4-.5.2a112.7 112.7 0 0 0-2.7 7c-.3.8-.7 1.4-1.1 2v.1l.9.4c.4.2.6.6.6 1l-.2 1.1c1.1.3 2 1 2.9 1.5 1 .7 2 1.3 3.2 1.4.6 0 .9.4 1 .7l.1.1c.3.3 1 .6 2.2.6 1 0 2-.3 2.4-.6a1 1 0 0 1 1.3-.1l1.4.8c1.2.6 2.8 1.3 3.1 3.3.9 0 1.6.3 2.2.6.9.4 1.4.6 2 .3l.4-.1ZM39 80.4Zm-18-54.6Z"/><path d="M55.1 84.2c.4 0 .7.2.9.4.6.3 1.3.3 1.8 0 .5-.4.8-1 .8-1.5 0-2.4.3-5 3.5-6a3 3 0 0 0 1-.7l.4-.4c1.4-1.2 2.7-1.2 4.2-.2.7.5 1.7.8 2.7 1.2l.7.2 1.6.4a17.1 17.1 0 0 1 3.9 1.3c1 .4 1.9.8 2.9 1 1.2.3 1.8-.4 2.9-1.6l.6-.7c1-1 2.1-2 3.2-2.8l1.8-1.4-.3-.1-.6-.3c-1-.4-2-.8-3-1.5-.3-.3-.5-.7-.6-1.3 0-.6 0-1.6.5-2.1.4-.5.6-.9.5-1.1 0-.2-.2-.5-1-1a2.5 2.5 0 0 1-1-2.4c.1-.9 1.2-1.4 1.8-1.6 1-.2 1.2-.5 1.2-.5l-.4-.8c-.7-1-1.6-2.2-1.4-3.5.1-.5.4-1 .8-1.3l-.9-1.5-.3-1V53c-.8 0-.9.2-.9.6 0 .9-.4 1.4-1 1.8-.7.4-1.5 0-2.3-.3-.4-.2-.6-.8-.4-1.2l.5-1.3c.4-1 .8-2 1.4-3l2-2.3 1.2-1.3c.5-.5 1-1 1-1.6.4-1 .8-2.6 3-2.2.3-.1.8-.5.9-.7l.2-1.6c0-.7 0-1.4.3-2.1l.5-2c.4-1.7.7-3.6 2.7-5h.1l-.4-.2-1.2-.2c-1-.1-2-.3-3-.7-.3-.2-.7-.2-1.2-.3-1-.2-2.9-.6-3.2-2.7l-.6-.2-1.4-.1c-1.3-.1-2.6-.2-3.4-1.1-.3-.4-.8-.8-1.4-1.1-1-.7-2.3-1.5-2.7-3l-.8.4c-.7 0-1.6-.5-2-.8-.4-.3-.6-.7-.6-1 0-1-.3-1.2-1.6-1.6-.7-.3-1.4-1-2-2-.5-.6-.8-1.4-1.1-2V14c-.7.2-1.2.2-1.7 0-1-.5-1.4-1.5-1.7-2.3l-.1-.4h-3l-.5.5a26.9 26.9 0 0 0-.6 4.5c0 .4-.2 1-.6 1.5-1.7 2-4 2.3-6.1 2.5l-.6.1c-1 .1-1 .3-1 1 0 .9-.4 1.8-1.2 2.3-.8.6-2 .8-3 .4l-1-.3-1.4-.5h-.2c-1.3-.3-3.2-.8-3.3-3l-.2-.2-1.4-.5 1 8.7c0 .3 0 .6-.3.8a1 1 0 0 1-1 .2l-.6-.3-.7-.2-1.3-.3c-.9-.2-1.8-.4-2.5-.2-.8.2-1.9.3-2.7-.2-.6-.4-.9-1-1-2-.1-.4-.3-.6-.4-.7h-.3a9 9 0 0 1-5 .6H20.7l-.5.6 1 1.5.6.7c.2.3.2.6.1.9a1 1 0 0 1-.6.6l-.6.1.8 1.1c2.5-.1 4.3 1.4 6 2.8.2 0 .3.2.4.3l1.3-.1c.3 0 .6 0 .8.2.2.2.3.5.2.8v.2h.6c.3.1.5.2.7.5.2.2.2.5.2.7-.3 1.2-.2 1.4-.2 1.4s.3.1.8 0a1 1 0 0 1 1 1 8.8 8.8 0 0 0 .1 1.2l.2.7.1.4v.7a1 1 0 0 1-.6.4c.4.6.8 1.3 1 1.9.8 1.6 1.3 2.4 3.1 2.5.3 0 .5 0 .7.3.2.2.3.5.2.8l-.2 1.4-.6 3.2.2.7c1.2 1.1 2.3 2.6 1.8 5 0 .3-.4.6-.8.7a1 1 0 0 1-1-.5l-.8-1.7-1 4.3.8.5c.2.1.4.4.4.8 0 .3-.1.6-.4.8l-.7.4-.5.2a112.7 112.7 0 0 0-2.7 7c-.3.8-.7 1.4-1.1 2v.1l.9.4c.4.2.6.6.6 1l-.2 1.1c1.1.3 2 1 2.9 1.5 1 .7 2 1.3 3.2 1.3.6 0 .9.5 1 .8l.1.1c.3.3 1 .6 2.2.6 1 0 2-.3 2.4-.7a1 1 0 0 1 1.3 0l1.4.8c1.2.5 2.8 1.3 3.1 3.3.9 0 1.6.3 2.2.6.9.4 1.4.6 2 .3l.4-.1Z" style="fill:#fff"/><path class="e" d="M51.6 38.5c4.7 0 8.5 3.8 8.5 8.5s.4 5-8.5 13.9c-8.8-8.8-8.5-9.2-8.5-14s3.8-8.4 8.5-8.4"/><path class="d" d="M51.6 38.5c4.7 0 8.5 3.8 8.5 8.5s.4 5-8.5 13.9c-8.8-8.8-8.5-9.2-8.5-14s3.8-8.4 8.5-8.4m0 12.8a4.5 4.5 0 1 0 0-9 4.5 4.5 0 0 0 0 9m0-15C45.7 36.3 41 41.1 41 47v.5c0 5 .5 6.4 9 15a2.2 2.2 0 0 0 3.1 0c8.6-8.6 9.2-10 9.1-15V47c0-5.9-4.7-10.7-10.6-10.7Zm0 12.8a2.3 2.3 0 1 1 0-4.6 2.3 2.3 0 0 1 0 4.6ZM108.1 57.4H275v15.3H108.1z"/><path class="b" d="M114 61h1.7c.8 0 1.3.2 1.8.4.8.4 1.2 1.2 1.2 2.2 0 1-.4 1.8-1.4 2.3-.5.2-1 .3-1.7.3h-.4V69h-1.3v-8Zm1.7 4.1c.4 0 .7 0 1-.2.5-.2.7-.7.7-1.3 0-.6-.2-1-.7-1.3l-1-.2h-.5v3h.5ZM119.4 66.1c0-1.7 1.1-3 2.8-3s2.8 1.3 2.8 3-1.1 3-2.8 3-2.8-1.3-2.8-3Zm2.3-5.3h1l1.2 1.8h-1l-.7-1-.7 1h-1l1.2-1.8Zm2 5.3c0-1.1-.5-2-1.5-2s-1.5.9-1.5 2 .6 2 1.5 2 1.5-.9 1.5-2ZM126.1 60.5h1.3v7c0 .3.1.4.4.4h.4l.2 1-1 .1c-.8 0-1.3-.4-1.3-1.2v-7.3ZM129 66.1c0-1.7 1-3 2.4-3s2.5 1.2 2.5 3v.3h-3.7c0 1 .7 1.7 1.7 1.7.6 0 1-.2 1.4-.4l.4.8c-.5.4-1.2.6-2 .6-1.9 0-2.7-1.4-2.7-3Zm3.6-.6c0-.7-.3-1.4-1.2-1.4-.7 0-1.2.7-1.2 1.4h2.4ZM137.3 66.1c0-1.7 1-3 2.5-3s2.4 1.2 2.4 3v.3h-3.7c0 1 .7 1.7 1.7 1.7.6 0 1-.2 1.5-.4l.3.8c-.5.4-1.2.6-1.9.6-2 0-2.8-1.4-2.8-3Zm3.6-.6c0-.7-.3-1.4-1.1-1.4s-1.3.7-1.3 1.4h2.4ZM143.3 63.3h1l.2.7c.5-.5 1.2-.9 1.9-.9s1.2.3 1.5 1c.7-.6 1.4-1 2-1 1 0 1.8.6 1.8 2V69h-1.2v-3.5c0-.7-.1-1.3-.9-1.3-.5 0-1 .3-1.5.7v4H147v-3.4c0-.7-.2-1.3-1-1.3-.4 0-1 .3-1.4.7v4h-1.2v-5.6ZM153.1 63.5c.6-.2 1.3-.4 2-.4 2 0 3 1.2 3 3s-1.1 3-2.8 3c-.4 0-.7 0-1-.2v2.9h-1.2v-8.3Zm2 4.5c1.2 0 1.8-.7 1.8-2 0-1.2-.7-1.8-1.8-1.8h-.8V68l.9.1ZM159.3 60.5h1.3v7c0 .3.1.4.4.4h.4l.2 1-1 .1c-.8 0-1.3-.4-1.3-1.2v-7.3ZM162.2 66.1c0-1.7 1-3 2.8-3s2.7 1.3 2.7 3-1 3-2.7 3-2.8-1.3-2.8-3Zm4.2 0c0-1.1-.5-2-1.4-2s-1.5.9-1.5 2 .5 2 1.5 2 1.4-.9 1.4-2ZM168.7 61.5c0-.5.3-.8.8-.8s.8.3.8.8-.4.7-.8.7-.8-.3-.8-.7Zm.2 1.8h1.2V69H169v-5.7ZM173.9 66.1c0-1.7 1-3 2.4-3s2.5 1.2 2.5 3v.3H175c0 1 .7 1.7 1.7 1.7.6 0 1-.2 1.4-.4l.4.8c-.5.4-1.2.6-2 .6-1.9 0-2.7-1.4-2.7-3Zm3.6-.6c0-.7-.4-1.4-1.2-1.4-.7 0-1.2.7-1.2 1.4h2.4ZM180.4 67.6v-3.3h-1v-1h1V62l1.2-.4v1.7h1.7l-.3 1h-1.4v3c0 .6.2.8.6.8l.9-.3.4.8a3 3 0 0 1-1.6.5c-1 0-1.5-.6-1.5-1.5ZM188.9 61h1l3 8h-1.3l-.7-2h-3l-.7 2h-1.3l3-8Zm1.6 4.9-.7-1.8-.4-1.3-.4 1.3-.7 1.8h2.2ZM193.4 66.2c0-1.8 1.2-3 3-3a3 3 0 0 1 1.4.3v1c-.4-.2-.8-.3-1.4-.3-1 0-1.7.8-1.7 2s.6 1.9 1.7 1.9c.5 0 1-.2 1.3-.4l.4.8c-.5.3-1.2.6-1.9.6-1.8 0-2.8-1.3-2.8-3ZM199.4 67.6v-3.3h-1v-1h1V62l1.2-.4v1.7h1.7l-.3 1h-1.4v3c0 .6.2.8.6.8l.9-.3.4.8a3 3 0 0 1-1.6.5c-1 0-1.5-.6-1.5-1.5ZM203.2 61.5c0-.5.3-.8.8-.8s.8.3.8.8-.4.7-.8.7-.8-.3-.8-.7Zm.2 1.8h1.2V69h-1.2v-5.7ZM205.8 66.1c0-1.7 1-3 2.7-3s2.8 1.3 2.8 3-1 3-2.8 3-2.7-1.3-2.7-3Zm4.2 0c0-1.1-.5-2-1.4-2s-1.5.9-1.5 2 .5 2 1.5 2 1.4-.9 1.4-2ZM212.4 63.3h1l.2.7c.6-.5 1.2-.9 2-.9s1.7.5 1.7 2V69h-1.2v-3.4c0-.8-.2-1.4-1-1.4-.5 0-1 .3-1.4.7v4h-1.3v-5.6ZM221.5 61h1.3v7h2.8v1h-4v-8ZM226.2 66.1c0-1.7 1.1-3 2.8-3s2.8 1.3 2.8 3-1.1 3-2.8 3-2.8-1.3-2.8-3Zm4.3 0c0-1.1-.5-2-1.5-2s-1.5.9-1.5 2 .6 2 1.5 2 1.5-.9 1.5-2ZM232.3 70.1c0-.6.4-1 1-1.4a.8.8 0 0 1-.3-.7c0-.3.2-.7.7-1a2 2 0 0 1-1-1.8c0-1 .8-2 2.3-2 .5 0 .8 0 1 .2h.2c.3-.3.7-.5 1.3-.5h.4l-.3 1-.4-.1a1 1 0 0 0-.4.1c.3.4.5.9.5 1.4 0 1.2-1 2-2.3 2h-.7l-.2.4c0 1.1 3.7.1 3.7 2.3 0 1-1 1.8-2.9 1.8-1.6 0-2.6-.7-2.6-1.7Zm4.3 0c0-.9-1.7-.7-2.6-1-.2.1-.5.4-.5.8 0 .6.6 1 1.6 1s1.5-.4 1.5-.8Zm-.5-4.9c0-.6-.4-1.1-1.1-1.1-.6 0-1 .4-1 1.1 0 .7.3 1.2 1 1.2.6 0 1-.4 1-1.2ZM238.4 66.1c0-1.7 1-3 2.5-3s2.5 1.2 2.5 3v.3h-3.7c0 1 .7 1.7 1.7 1.7.6 0 1-.2 1.4-.4l.4.8c-.6.4-1.3.6-2 .6-2 0-2.8-1.4-2.8-3Zm3.7-.6c0-.7-.4-1.4-1.2-1.4-.7 0-1.2.7-1.2 1.4h2.4ZM244.5 63.3h1l.1.7c.6-.5 1.3-.9 2-.9s1.2.3 1.5 1c.6-.6 1.4-1 2-1 1 0 1.8.6 1.8 2V69h-1.2v-3.5c0-.7-.2-1.3-1-1.3-.4 0-1 .3-1.4.7v4H248v-3.4c0-.7 0-1.3-.8-1.3-.6 0-1 .3-1.5.7v4h-1.3v-5.6ZM254 66.1c0-1.7 1-3 2.5-3s2.4 1.2 2.4 3v.3h-3.6c0 1 .6 1.7 1.7 1.7.5 0 1-.2 1.4-.4l.4.8c-.6.4-1.3.6-2 .6-2 0-2.8-1.4-2.8-3Zm3.6-.6c0-.7-.3-1.4-1.1-1.4s-1.2.7-1.2 1.4h2.3ZM260 63.3h1l.2.7c.6-.5 1.3-.9 2-.9.9 0 1.7.5 1.7 2V69h-1.2v-3.4c0-.8-.2-1.4-1-1.4-.5 0-1 .3-1.4.7v4H260v-5.6ZM266.8 67.6v-3.3h-1v-1h1V62l1.2-.4v1.7h1.7l-.3 1H268v3c0 .6.2.8.6.8l.9-.3.4.8a3 3 0 0 1-1.6.5c-1 0-1.5-.6-1.5-1.5Z"/></svg>