<svg width="171" height="40" viewBox="0 0 171 40" fill="none" xmlns="http://www.w3.org/2000/svg">
<path d="M38.4196 19.21C38.4196 29.8198 29.8193 38.4205 19.2096 38.4205C8.60113 38.4205 0 29.8198 0 19.21C0 8.60023 8.60113 -3.8147e-06 19.2096 -3.8147e-06C29.8193 -3.8147e-06 38.4196 8.60023 38.4196 19.21Z" fill="#23333C"/>
<path d="M45.8093 11.641H47.2659L49.251 14.4484C49.5095 14.813 49.6974 15.1066 49.8736 15.412H49.8971C50.0503 15.1179 50.2495 14.7895 50.4962 14.4014L52.2938 11.641H53.7621V19.3824H52.1524V15.2241C52.1524 14.9187 52.1524 14.5663 52.1642 14.2957H52.1524C52.0585 14.4954 51.753 14.9422 51.6238 15.1414L50.2382 17.2793H49.5095L47.9472 15.0714C47.7827 14.8482 47.5948 14.6015 47.4303 14.3074H47.4068C47.419 14.5776 47.419 14.93 47.419 15.1767V19.3824H45.8093V11.641Z" fill="#21313B"/>
<path d="M59.1412 16.5864C59.1412 15.6467 58.754 14.9537 57.9196 14.9537C57.0856 14.9537 56.6862 15.6467 56.6862 16.5864C56.6862 17.5262 57.0856 18.2314 57.9196 18.2314C58.754 18.2314 59.1412 17.5262 59.1412 16.5864ZM55.0652 16.5864C55.0652 14.9067 56.2163 13.6851 57.9196 13.6851C59.6111 13.6851 60.7627 14.9067 60.7627 16.5864C60.7627 18.2666 59.6111 19.4996 57.9196 19.4996C56.2281 19.4996 55.0652 18.2666 55.0652 16.5864Z" fill="#21313B"/>
<path d="M65.5554 16.5158C65.5554 15.6231 65.015 14.9888 64.1806 14.9888C63.8164 14.9888 63.6054 15.0593 63.4288 15.118V18.1138C63.6285 18.1838 63.8399 18.196 64.0166 18.196C64.9676 18.196 65.5554 17.503 65.5554 16.5158ZM61.843 19.0883V11.0655H63.4288V13.8259C63.7225 13.7437 64.0518 13.6849 64.439 13.6849C65.9547 13.6849 67.1764 14.6604 67.1764 16.4223C67.1764 18.3605 65.6963 19.4995 63.7577 19.4995C63.0416 19.4995 62.3716 19.3702 61.843 19.0883Z" fill="#21313B"/>
<path d="M68.2094 13.8257H69.7952V19.3822H68.2094V13.8257ZM68.0449 12.1107C68.0449 11.6056 68.4561 11.1944 69.0081 11.1944C69.5485 11.1944 69.9596 11.5825 69.9596 12.1107C69.9596 12.628 69.5485 13.0508 69.0081 13.0508C68.4561 13.0508 68.0449 12.6393 68.0449 12.1107Z" fill="#21313B"/>
<path d="M71.2754 11.9463C71.2754 11.6996 71.2519 11.4412 71.2049 11.1832L72.6498 10.9244C72.7085 11.171 72.7324 11.4177 72.7324 11.6761C72.7324 12.5101 72.4148 13.3911 71.6748 14.2256L70.7468 13.791C71.1345 13.0979 71.2754 12.5219 71.2754 11.9463Z" fill="#21313B"/>
<path d="M73.1895 13.8259H74.787L76.0673 17.3855H76.0913L77.3595 13.8259H78.9574L76.6551 19.4176H75.4922L73.1895 13.8259Z" fill="#21313B"/>
<path d="M79.65 13.8257H81.2358V19.3822H79.65V13.8257ZM79.4856 12.1107C79.4856 11.6056 79.8967 11.1944 80.4493 11.1944C80.9891 11.1944 81.4003 11.5825 81.4003 12.1107C81.4003 12.628 80.9891 13.0508 80.4493 13.0508C79.8967 13.0508 79.4856 12.6393 79.4856 12.1107Z" fill="#21313B"/>
<path d="M82.5637 11.0652H84.1495V17.632C84.1495 17.9961 84.3027 18.1018 84.5606 18.1018C84.6194 18.1018 84.7838 18.0783 84.913 18.0314L85.2184 19.2647C84.8543 19.4174 84.4197 19.4762 84.079 19.4762C83.081 19.4762 82.5637 18.9828 82.5637 18.0431V11.0652Z" fill="#21313B"/>
<path d="M86.0867 11.0652H87.6724V17.632C87.6724 17.9961 87.8256 18.1018 88.0836 18.1018C88.1423 18.1018 88.3068 18.0783 88.436 18.0314L88.7414 19.2647C88.3772 19.4174 87.9426 19.4762 87.602 19.4762C86.604 19.4762 86.0867 18.9828 86.0867 18.0431V11.0652Z" fill="#21313B"/>
<path d="M92.8538 15.9873C92.842 15.4352 92.5601 14.8836 91.8666 14.8836C91.2323 14.8836 90.8917 15.4122 90.8917 15.9873H92.8538ZM89.3176 16.6451C89.3176 14.9654 90.2226 13.685 91.8901 13.685C93.5116 13.685 94.4513 14.8244 94.4513 16.6925V17.0562H90.9151C90.9391 17.8315 91.5382 18.2666 92.3839 18.2666C92.959 18.2666 93.3937 18.1252 93.8048 17.8907L94.2633 18.9709C93.6403 19.3472 92.9477 19.4995 92.2425 19.4995C90.1286 19.4995 89.3176 18.1021 89.3176 16.6451Z" fill="#21313B"/>
<path d="M45.0039 23.4091H46.1374L47.5687 27.117C47.7675 27.6343 47.9166 28.0711 48.0557 28.4791H48.0756C48.2048 28.091 48.3539 27.6541 48.5726 27.0971L49.9944 23.4091H51.1175L48.4732 29.9998H47.6482L45.0039 23.4091Z" fill="#37B4B4"/>
<path d="M54.8647 27.5943C54.8647 26.66 54.4273 25.9837 53.6421 25.9837C52.8569 25.9837 52.4092 26.66 52.4092 27.5943C52.4092 28.5385 52.8569 29.2144 53.6421 29.2144C54.4273 29.2144 54.8647 28.5385 54.8647 27.5943ZM51.3457 27.5943C51.3457 26.1924 52.2601 25.1384 53.6421 25.1384C55.0138 25.1384 55.9282 26.1924 55.9282 27.5943C55.9282 28.9958 55.0138 30.0593 53.6421 30.0593C52.2701 30.0593 51.3457 28.9958 51.3457 27.5943Z" fill="#37B4B4"/>
<path d="M57.0711 28.8469V26.0729H56.2461V25.2583H57.0711V24.1745L58.1047 23.8564V25.2583H59.5166L59.2582 26.0729H58.1047V28.6178C58.1047 29.0452 58.2642 29.2142 58.5719 29.2142C58.8606 29.2142 59.1186 29.1049 59.3074 28.9756L59.6359 29.6917C59.3074 29.9203 58.791 30.0595 58.3234 30.0595C57.5382 30.0595 57.0711 29.6118 57.0711 28.8469Z" fill="#37B4B4"/>
<path d="M60.1316 25.2582H60.9963L61.116 25.8049C61.5728 25.3377 61.9704 25.1385 62.4181 25.1385C62.6264 25.1385 62.8654 25.1986 63.0343 25.3074L62.6666 26.1925C62.4877 26.0931 62.3187 26.0633 62.1696 26.0633C61.8515 26.0633 61.5728 26.2124 61.1653 26.5901V29.9599H60.1316V25.2582Z" fill="#37B4B4"/>
<path d="M66.1646 27.1271C66.1447 26.5308 65.856 25.9439 65.1905 25.9439C64.5639 25.9439 64.1966 26.491 64.1862 27.1271H66.1646ZM63.1426 27.5943C63.1426 26.173 63.9278 25.1388 65.2 25.1388C66.4826 25.1388 67.2182 26.093 67.2182 27.6142V27.8626H64.1966C64.2165 28.6677 64.7433 29.2343 65.598 29.2343C66.0652 29.2343 66.4429 29.1051 66.7808 28.9162L67.0889 29.6219C66.6317 29.9205 66.0453 30.0592 65.4887 30.0592C63.8483 30.0592 63.1426 28.8963 63.1426 27.5943Z" fill="#37B4B4"/>
<path d="M72.6946 27.1271C72.6747 26.5308 72.386 25.9439 71.7206 25.9439C71.0939 25.9439 70.7266 26.491 70.7162 27.1271H72.6946ZM69.6726 27.5943C69.6726 26.173 70.4578 25.1388 71.73 25.1388C73.0127 25.1388 73.7482 26.093 73.7482 27.6142V27.8626H70.7266C70.7465 28.6677 71.2733 29.2343 72.1281 29.2343C72.5952 29.2343 72.9729 29.1051 73.3109 28.9162L73.619 29.6219C73.1618 29.9205 72.5753 30.0592 72.0187 30.0592C70.3783 30.0592 69.6726 28.8963 69.6726 27.5943Z" fill="#37B4B4"/>
<path d="M74.4734 25.2582H75.3381L75.4474 25.8143C75.925 25.4272 76.4613 25.1385 77.0481 25.1385C77.6047 25.1385 78.052 25.3973 78.2811 25.8943C78.8476 25.4073 79.444 25.1385 79.9906 25.1385C80.7957 25.1385 81.4915 25.6061 81.4915 26.8291V29.9599H80.4578V27.1168C80.4578 26.5205 80.3385 26.0434 79.7123 26.0434C79.2949 26.0434 78.8675 26.2819 78.4898 26.5901C78.4993 26.6497 78.4993 26.7292 78.4993 26.8092V29.9599H77.4656V27.1272C77.4656 26.5304 77.3463 26.0434 76.7301 26.0434C76.3027 26.0434 75.8753 26.2819 75.5071 26.5901V29.9599H74.4734V25.2582Z" fill="#37B4B4"/>
<path d="M84.145 29.1946C85.0788 29.1946 85.5663 28.5585 85.5663 27.5844C85.5663 26.5006 84.97 26.0041 84.0849 26.0041C83.8563 26.0041 83.6575 26.0334 83.4587 26.0931V29.0455C83.6779 29.1449 83.8762 29.1946 84.145 29.1946ZM82.425 25.4371C82.932 25.2582 83.5184 25.1384 84.1247 25.1384C85.7452 25.1384 86.6298 26.0732 86.6298 27.5943C86.6298 29.0654 85.6458 30.0593 84.2141 30.0593C83.9462 30.0593 83.6873 30.0101 83.4587 29.9301V32.316H82.425V25.4371Z" fill="#37B4B4"/>
<path d="M87.405 22.9221H88.4392V28.6774C88.4392 29.0257 88.5584 29.1247 88.787 29.1247C88.8566 29.1247 88.9958 29.0953 89.0852 29.0655L89.294 29.8706C89.0455 29.9799 88.7369 30.0296 88.4884 30.0296C87.7628 30.0296 87.405 29.6519 87.405 28.9661V22.9221Z" fill="#37B4B4"/>
<path d="M93.1003 27.5943C93.1003 26.66 92.6629 25.9837 91.8777 25.9837C91.0925 25.9837 90.6448 26.66 90.6448 27.5943C90.6448 28.5385 91.0925 29.2144 91.8777 29.2144C92.6629 29.2144 93.1003 28.5385 93.1003 27.5943ZM89.5813 27.5943C89.5813 26.1924 90.4957 25.1384 91.8777 25.1384C93.2494 25.1384 94.1638 26.1924 94.1638 27.5943C94.1638 28.9958 93.2494 30.0593 91.8777 30.0593C90.5061 30.0593 89.5813 28.9958 89.5813 27.5943Z" fill="#37B4B4"/>
<path d="M94.9488 25.2581H95.9825V29.9599H94.9488V25.2581ZM94.8196 23.7573C94.8196 23.399 95.0875 23.1212 95.4652 23.1212C95.8433 23.1212 96.1117 23.3891 96.1117 23.7573C96.1117 24.1151 95.8334 24.3934 95.4652 24.3934C95.0875 24.3934 94.8196 24.1151 94.8196 23.7573Z" fill="#37B4B4"/>
<path d="M101.936 29.0953V26.0832C101.737 26.0335 101.578 26.0037 101.309 26.0037C100.444 26.0037 99.7788 26.6 99.7788 27.6342C99.7788 28.6082 100.395 29.1947 101.319 29.1947C101.508 29.1947 101.767 29.1644 101.936 29.0953ZM98.7148 27.6541C98.7148 26.1627 99.7987 25.1385 101.249 25.1385C101.459 25.1385 101.727 25.1584 101.936 25.2081V22.922H102.969V29.7215C102.552 29.9401 101.906 30.0594 101.319 30.0594C99.8479 30.0594 98.7148 29.2245 98.7148 27.6541Z" fill="#37B4B4"/>
<path d="M105.852 27.7531C105.514 27.7631 105.276 27.8128 105.097 27.9126C104.878 28.0314 104.769 28.2402 104.769 28.5085C104.769 28.9558 105.067 29.2341 105.534 29.2341C106.012 29.2341 106.369 28.9558 106.558 28.7868V27.7233L105.852 27.7531ZM106.627 29.483C106.279 29.811 105.843 30.0591 105.256 30.0591C104.371 30.0591 103.725 29.4731 103.725 28.5686C103.725 27.942 104.033 27.5345 104.51 27.2959C104.838 27.127 105.236 27.0669 105.713 27.0475L106.558 27.0176V26.8188C106.558 26.2022 106.17 25.9437 105.614 25.9437C105.117 25.9437 104.689 26.1032 104.361 26.2921L104.003 25.6058C104.56 25.2877 105.156 25.1386 105.773 25.1386C106.935 25.1386 107.592 25.6754 107.592 26.8188V28.6283C107.592 29.3041 107.612 29.7116 107.681 29.9601H106.797L106.627 29.483Z" fill="#37B4B4"/>
<path d="M108.525 25.2582H109.401L109.51 25.8143C110.006 25.4073 110.544 25.1385 111.13 25.1385C111.875 25.1385 112.601 25.5365 112.601 26.8291V29.9599H111.567V27.1566C111.567 26.5404 111.428 26.0434 110.802 26.0434C110.364 26.0434 109.937 26.2919 109.559 26.6099V29.9599H108.525V25.2582Z" fill="#37B4B4"/>
<path d="M113.495 28.8566C113.823 29.0653 114.25 29.2343 114.747 29.2343C115.244 29.2343 115.632 29.0653 115.632 28.6478C115.632 27.7732 113.425 28.0813 113.425 26.5204C113.425 25.7252 114.061 25.1388 115.145 25.1388C115.642 25.1388 116.089 25.2283 116.447 25.3674V26.252C116.079 26.093 115.671 25.9638 115.184 25.9638C114.767 25.9638 114.439 26.093 114.439 26.4607C114.439 27.316 116.656 26.9979 116.656 28.628C116.656 29.6318 115.791 30.0592 114.797 30.0592C114.101 30.0592 113.534 29.841 113.177 29.6219L113.495 28.8566Z" fill="#37B4B4"/>
<path d="M119.349 22.9221H120.383V28.6774C120.383 29.0257 120.502 29.1247 120.731 29.1247C120.8 29.1247 120.94 29.0953 121.029 29.0655L121.238 29.8706C120.989 29.9799 120.681 30.0296 120.432 30.0296C119.707 30.0296 119.349 29.6519 119.349 28.9661V22.9221Z" fill="#37B4B4"/>
<path d="M123.643 27.7531C123.305 27.7631 123.067 27.8128 122.888 27.9126C122.669 28.0314 122.56 28.2402 122.56 28.5085C122.56 28.9558 122.858 29.2341 123.325 29.2341C123.803 29.2341 124.16 28.9558 124.349 28.7868V27.7233L123.643 27.7531ZM124.418 29.483C124.07 29.811 123.634 30.0591 123.047 30.0591C122.162 30.0591 121.516 29.4731 121.516 28.5686C121.516 27.942 121.824 27.5345 122.301 27.2959C122.629 27.127 123.027 27.0669 123.504 27.0475L124.349 27.0176V26.8188C124.349 26.2022 123.961 25.9437 123.405 25.9437C122.908 25.9437 122.48 26.1032 122.152 26.2921L121.794 25.6058C122.351 25.2877 122.947 25.1386 123.564 25.1386C124.726 25.1386 125.383 25.6754 125.383 26.8188V28.6283C125.383 29.3041 125.403 29.7116 125.472 29.9601H124.588L124.418 29.483Z" fill="#37B4B4"/>
<path d="M131.455 27.5246C131.455 26.6301 130.978 26.0039 130.153 26.0039C129.745 26.0039 129.507 26.1227 129.357 26.1824V29.0955C129.556 29.1646 129.765 29.1944 129.944 29.1944C130.858 29.1944 131.455 28.5285 131.455 27.5246ZM128.323 29.7411V22.9218H129.357V25.3077C129.636 25.2083 129.924 25.1387 130.312 25.1387C131.534 25.1387 132.518 25.9537 132.518 27.465C132.518 29.105 131.345 30.0591 129.785 30.0591C129.188 30.0591 128.681 29.9403 128.323 29.7411Z" fill="#37B4B4"/>
<path d="M136.524 27.5943C136.524 26.66 136.087 25.9837 135.302 25.9837C134.516 25.9837 134.069 26.66 134.069 27.5943C134.069 28.5385 134.516 29.2144 135.302 29.2144C136.087 29.2144 136.524 28.5385 136.524 27.5943ZM133.005 27.5943C133.005 26.1924 133.92 25.1384 135.302 25.1384C136.673 25.1384 137.588 26.1924 137.588 27.5943C137.588 28.9958 136.673 30.0593 135.302 30.0593C133.929 30.0593 133.005 28.9958 133.005 27.5943Z" fill="#37B4B4"/>
<path d="M138.312 25.2582H139.188L139.297 25.8143C139.793 25.4073 140.331 25.1385 140.917 25.1385C141.663 25.1385 142.388 25.5365 142.388 26.8291V29.9599H141.354V27.1566C141.354 26.5404 141.215 26.0434 140.589 26.0434C140.151 26.0434 139.724 26.2919 139.346 26.6099V29.9599H138.312V25.2582Z" fill="#37B4B4"/>
<path d="M143.322 25.2582H144.197L144.306 25.8143C144.803 25.4073 145.34 25.1385 145.927 25.1385C146.672 25.1385 147.398 25.5365 147.398 26.8291V29.9599H146.364V27.1566C146.364 26.5404 146.225 26.0434 145.598 26.0434C145.161 26.0434 144.734 26.2919 144.356 26.6099V29.9599H143.322V25.2582Z" fill="#37B4B4"/>
<path d="M151.125 27.1271C151.105 26.5308 150.816 25.9439 150.151 25.9439C149.524 25.9439 149.157 26.491 149.146 27.1271H151.125ZM148.103 27.5943C148.103 26.173 148.888 25.1388 150.16 25.1388C151.443 25.1388 152.178 26.093 152.178 27.6142V27.8626H149.157C149.177 28.6677 149.703 29.2343 150.558 29.2343C151.025 29.2343 151.403 29.1051 151.741 28.9162L152.049 29.6219C151.592 29.9205 151.006 30.0592 150.449 30.0592C148.808 30.0592 148.103 28.8963 148.103 27.5943Z" fill="#37B4B4"/>
<path d="M154.344 25.2582H155.399L156.631 28.648H156.651L157.854 25.2582H158.908L157.029 29.9902H156.233L154.344 25.2582Z" fill="#37B4B4"/>
<path d="M159.394 25.2581H160.427V29.9599H159.394V25.2581ZM159.264 23.7573C159.264 23.399 159.533 23.1212 159.91 23.1212C160.289 23.1212 160.557 23.3891 160.557 23.7573C160.557 24.1151 160.278 24.3934 159.91 24.3934C159.533 24.3934 159.264 24.1151 159.264 23.7573Z" fill="#37B4B4"/>
<path d="M161.48 22.9221H162.514V28.6774C162.514 29.0257 162.633 29.1247 162.862 29.1247C162.931 29.1247 163.07 29.0953 163.16 29.0655L163.369 29.8706C163.12 29.9799 162.812 30.0296 162.563 30.0296C161.838 30.0296 161.48 29.6519 161.48 28.9661V22.9221Z" fill="#37B4B4"/>
<path d="M163.936 22.9221H164.969V28.6774C164.969 29.0257 165.089 29.1247 165.318 29.1247C165.387 29.1247 165.526 29.0953 165.616 29.0655L165.824 29.8706C165.576 29.9799 165.267 30.0296 165.019 30.0296C164.293 30.0296 163.936 29.6519 163.936 28.9661V22.9221Z" fill="#37B4B4"/>
<path d="M169.134 27.1271C169.114 26.5308 168.825 25.9439 168.16 25.9439C167.533 25.9439 167.166 26.491 167.156 27.1271H169.134ZM166.112 27.5943C166.112 26.173 166.897 25.1388 168.17 25.1388C169.452 25.1388 170.188 26.093 170.188 27.6142V27.8626H167.166C167.186 28.6677 167.712 29.2343 168.567 29.2343C169.034 29.2343 169.412 29.1051 169.75 28.9162L170.058 29.6219C169.601 29.9205 169.014 30.0592 168.458 30.0592C166.818 30.0592 166.112 28.8963 166.112 27.5943Z" fill="#37B4B4"/>
<path d="M44.905 40H75.0646V33.0845H44.905V40Z" fill="#37B4B4"/>
<path d="M48.24 36.2262C48.4352 36.2262 48.5811 36.1936 48.6895 36.134C48.9064 36.0305 49.0094 35.8196 49.0094 35.5327C49.0094 35.2774 48.9114 35.0664 48.7112 34.9472C48.5974 34.8821 48.4456 34.8442 48.2341 34.8442H48.0231V36.2262H48.24ZM47.4543 34.3784H48.2504C48.5919 34.3784 48.8413 34.4272 49.0473 34.5356C49.3993 34.7195 49.6049 35.061 49.6049 35.5327C49.6049 35.9497 49.4264 36.3617 48.9493 36.5618C48.76 36.6432 48.5215 36.692 48.2021 36.692H48.0231V37.9488H47.4543V34.3784Z" fill="white"/>
<path d="M51.9308 36.6594C51.9308 36.1502 51.6927 35.7816 51.2644 35.7816C50.8365 35.7816 50.5926 36.1502 50.5926 36.6594C50.5926 37.1744 50.8365 37.5427 51.2644 37.5427C51.6927 37.5427 51.9308 37.1744 51.9308 36.6594ZM51.0204 34.2753H51.4975L52.0392 35.0718H51.5838L51.2594 34.6056L50.9396 35.0718H50.4842L51.0204 34.2753ZM50.0129 36.6594C50.0129 35.8954 50.5113 35.3212 51.2644 35.3212C52.0126 35.3212 52.5109 35.8954 52.5109 36.6594C52.5109 37.4234 52.0126 38.0035 51.2644 38.0035C50.5167 38.0035 50.0129 37.4234 50.0129 36.6594Z" fill="white"/>
<path d="M53.0605 34.1128H53.6239V37.25C53.6239 37.4398 53.689 37.4935 53.8137 37.4935C53.8516 37.4935 53.9275 37.4777 53.9759 37.4614L54.0897 37.9001C53.9546 37.9602 53.7861 37.9869 53.651 37.9869C53.2557 37.9869 53.0605 37.7809 53.0605 37.4072V34.1128Z" fill="white"/>
<path d="M55.9539 36.4049C55.9435 36.0796 55.7862 35.7597 55.423 35.7597C55.0815 35.7597 54.8813 36.0579 54.8754 36.4049H55.9539ZM54.3066 36.6592C54.3066 35.8848 54.7349 35.3215 55.4284 35.3215C56.1273 35.3215 56.5281 35.8415 56.5281 36.6705V36.806H54.8813C54.8917 37.2443 55.179 37.5533 55.6448 37.5533C55.9001 37.5533 56.1057 37.4833 56.29 37.3798L56.4581 37.7647C56.2087 37.9274 55.8888 38.0033 55.5857 38.0033C54.6916 38.0033 54.3066 37.3694 54.3066 36.6592Z" fill="white"/>
<path d="M59.6074 36.4049C59.597 36.0796 59.4398 35.7597 59.0766 35.7597C58.735 35.7597 58.5349 36.0579 58.529 36.4049H59.6074ZM57.9602 36.6592C57.9602 35.8848 58.3885 35.3215 59.082 35.3215C59.7809 35.3215 60.1816 35.8415 60.1816 36.6705V36.806H58.5349C58.5453 37.2443 58.8326 37.5533 59.2984 37.5533C59.5537 37.5533 59.7592 37.4833 59.9436 37.3798L60.1116 37.7647C59.8622 37.9274 59.5424 38.0033 59.2392 38.0033C58.3451 38.0033 57.9602 37.3694 57.9602 36.6592Z" fill="white"/>
<path d="M60.7148 35.3861H61.1861L61.2457 35.6897C61.5059 35.4783 61.7982 35.3211 62.1181 35.3211C62.4212 35.3211 62.6652 35.462 62.7904 35.7331C63.0989 35.4675 63.4238 35.3211 63.7219 35.3211C64.1611 35.3211 64.5401 35.5759 64.5401 36.2423V37.9491H63.9768V36.3995C63.9768 36.0742 63.9117 35.814 63.5701 35.814C63.3424 35.814 63.1098 35.9441 62.9038 36.1122C62.9092 36.1447 62.9092 36.1881 62.9092 36.2314V37.9491H62.3458V36.4049C62.3458 36.0796 62.2807 35.814 61.9451 35.814C61.7119 35.814 61.4788 35.9441 61.2782 36.1122V37.9491H60.7148V35.3861Z" fill="white"/>
<path d="M66.1145 37.5317C66.6236 37.5317 66.8893 37.1847 66.8893 36.6543C66.8893 36.0634 66.564 35.7923 66.0819 35.7923C65.9568 35.7923 65.8488 35.809 65.7404 35.8415V37.4503C65.8597 37.5046 65.9681 37.5317 66.1145 37.5317ZM65.177 35.4837C65.453 35.3861 65.7729 35.3211 66.1036 35.3211C66.9869 35.3211 67.4689 35.8302 67.4689 36.6593C67.4689 37.4616 66.9326 38.0033 66.152 38.0033C66.006 38.0033 65.8651 37.9758 65.7404 37.9329V39.2336H65.177V35.4837Z" fill="white"/>
<path d="M68.0176 34.1128H68.581V37.25C68.581 37.4398 68.646 37.4935 68.7707 37.4935C68.8087 37.4935 68.8846 37.4777 68.9329 37.4614L69.0468 37.9001C68.9117 37.9602 68.7431 37.9869 68.6081 37.9869C68.2128 37.9869 68.0176 37.7809 68.0176 37.4072V34.1128Z" fill="white"/>
<path d="M71.2476 36.6594C71.2476 36.1502 71.0095 35.7816 70.5808 35.7816C70.153 35.7816 69.909 36.1502 69.909 36.6594C69.909 37.1744 70.153 37.5427 70.5808 37.5427C71.0095 37.5427 71.2476 37.1744 71.2476 36.6594ZM69.3293 36.6594C69.3293 35.8954 69.8277 35.3212 70.5808 35.3212C71.329 35.3212 71.8273 35.8954 71.8273 36.6594C71.8273 37.4234 71.329 38.0035 70.5808 38.0035C69.8335 38.0035 69.3293 37.4234 69.3293 36.6594Z" fill="white"/>
<path d="M72.381 35.3863H72.9444V37.9493H72.381V35.3863ZM72.3105 34.5681C72.3105 34.3725 72.4565 34.2211 72.6625 34.2211C72.869 34.2211 73.0149 34.3675 73.0149 34.5681C73.0149 34.7633 72.8635 34.9151 72.6625 34.9151C72.4565 34.9151 72.3105 34.7633 72.3105 34.5681Z" fill="white"/>
<path d="M6.42703 9.29778L6.42522 9.30049C6.42612 9.29959 6.42657 9.29869 6.42703 9.29778ZM14.5452 33.9929C14.5457 33.9929 14.5457 33.9929 14.5461 33.9929C14.5457 33.9929 14.5457 33.9929 14.5452 33.9929ZM21.8922 35.6971C22.0693 35.6971 22.2071 35.8064 22.2681 35.8552C22.2798 35.8643 22.292 35.8746 22.3037 35.8823C22.5518 36.0129 22.8518 36.0057 23.0944 35.8543C23.3298 35.7079 23.4594 35.4613 23.4504 35.1789C23.416 34.1045 23.5787 32.948 25.0447 32.5111C25.164 32.4758 25.314 32.3308 25.459 32.1908C25.534 32.1185 25.609 32.0466 25.6849 31.9816C26.2998 31.4562 26.8948 31.4295 27.5567 31.8971C27.8964 32.1375 28.3351 32.2766 28.7996 32.4239C28.9003 32.456 29.0006 32.4876 29.0995 32.5206C29.3295 32.5965 29.5694 32.652 29.8238 32.7112C30.103 32.7758 30.3916 32.8427 30.6763 32.9412C30.9867 33.0483 31.2884 33.1779 31.5803 33.3031C32.0262 33.4951 32.4473 33.6753 32.881 33.7752C33.4263 33.8994 33.7258 33.5886 34.2075 33.0275C34.3014 32.9181 34.3958 32.8084 34.4934 32.7031C34.929 32.2346 35.4313 31.8366 35.9175 31.4516C36.1863 31.2389 36.4637 31.0188 36.7212 30.7929C36.6778 30.7807 36.634 30.7658 36.5902 30.7473C36.5016 30.7098 36.4126 30.6728 36.3232 30.6357C35.8673 30.4482 35.3952 30.254 34.9877 29.9422C34.8363 29.8266 34.7446 29.6314 34.7153 29.3626C34.6841 29.077 34.7207 28.6573 34.9262 28.4134C35.1097 28.1961 35.2 28.0162 35.1811 27.9069C35.1698 27.8396 35.093 27.6932 34.7098 27.4696C34.3836 27.2794 34.146 26.7562 34.221 26.393C34.3037 25.9922 34.7885 25.7334 35.0744 25.6647C35.547 25.5513 35.6098 25.4334 35.6103 25.432C35.6103 25.4316 35.6229 25.3313 35.4341 25.0751C35.0889 24.6071 34.6981 24.0762 34.8115 23.5051C34.8558 23.2806 34.9692 23.0814 35.1558 22.9025C35.1539 22.8998 35.1526 22.8975 35.1508 22.8948C35.004 22.6662 34.877 22.4687 34.7708 22.2465C34.6981 22.0942 34.6479 21.9054 34.6037 21.7387C34.5969 21.7138 34.5892 21.6849 34.5811 21.656C34.2309 21.6596 34.2251 21.7292 34.2079 21.9284C34.1758 22.3066 34.0371 22.5677 33.7959 22.7041C33.4507 22.8989 33.0617 22.757 32.726 22.5921C32.5232 22.4927 32.4342 22.251 32.5236 22.0436C32.6068 21.8516 32.6836 21.6524 32.7577 21.459C32.9307 21.0077 33.1101 20.541 33.3861 20.1271C33.6495 19.7332 33.9788 19.3993 34.2974 19.0767C34.4916 18.8797 34.6746 18.6941 34.8427 18.4971C35.0505 18.2531 35.2533 17.9933 35.3243 17.7462C35.4485 17.3152 35.6554 16.5964 36.6701 16.7487C36.7813 16.7121 36.999 16.5228 37.0347 16.4279C37.0993 16.2345 37.1097 15.9951 37.1206 15.7416C37.1341 15.4177 37.1486 15.0825 37.2746 14.7563C37.3785 14.4879 37.4395 14.192 37.5041 13.8785C37.6614 13.1131 37.8398 12.2461 38.7163 11.6502C38.747 11.629 38.7651 11.6109 38.7741 11.5992C38.756 11.5784 38.7054 11.5396 38.6056 11.5192C38.4267 11.4835 38.2415 11.4587 38.0449 11.432C37.5864 11.3697 37.112 11.3055 36.6778 11.0941C36.5495 11.0313 36.3643 10.9974 36.1678 10.9617C35.6672 10.87 34.8512 10.7205 34.6891 9.74867C34.6217 9.72653 34.5318 9.70123 34.4333 9.67999C34.2449 9.63933 34.0213 9.62216 33.7846 9.60364C33.2131 9.55891 32.6217 9.51283 32.2774 9.113C32.1224 8.93274 31.878 8.77777 31.6192 8.61378C31.1606 8.32237 30.5828 7.95552 30.4319 7.30449C30.3207 7.36368 30.2024 7.40931 30.0713 7.431C29.7248 7.49018 29.3168 7.2417 29.1488 7.103C28.9658 6.95029 28.8714 6.78358 28.8682 6.60694C28.8614 6.21027 28.7399 6.09099 28.144 5.89989C27.8128 5.79372 27.4975 5.50277 27.2079 5.03471C27.0195 4.73201 26.8795 4.40357 26.7439 4.08551C26.7362 4.06744 26.7286 4.04936 26.7204 4.03129C26.4403 4.10041 26.1941 4.08867 25.975 3.99696C25.5182 3.80676 25.347 3.34412 25.2096 2.9723C25.188 2.91447 25.1672 2.858 25.1464 2.80469C25.0637 2.80333 24.9819 2.80107 24.9011 2.79882C24.5216 2.78752 24.1638 2.77758 23.8321 2.82818C23.7594 2.84354 23.5995 2.97321 23.5701 3.04188C23.4829 3.44894 23.4409 3.8804 23.3962 4.33715C23.3722 4.57841 23.3478 4.82825 23.3153 5.07583C23.2945 5.23395 23.2313 5.53123 23.0379 5.75306C22.2653 6.63766 21.21 6.76822 20.2788 6.88343C20.188 6.89472 20.0972 6.90602 20.0073 6.91776C19.5903 6.97288 19.5555 7.03478 19.5618 7.32618C19.5713 7.76351 19.3825 8.15657 19.0441 8.40415C18.6632 8.6829 18.1374 8.74705 17.6372 8.57537C17.5071 8.5311 17.3779 8.4814 17.2491 8.43171C17.0138 8.34135 16.791 8.25551 16.5697 8.20581L16.4901 8.18819C15.9164 8.06169 15.0611 7.87284 15.0006 6.8247C14.9753 6.80753 14.945 6.78946 14.9184 6.77726C14.7286 6.69368 14.5276 6.61823 14.2881 6.53149L14.7535 10.4747C14.7706 10.6202 14.7115 10.7638 14.5972 10.8555C14.4829 10.9468 14.3297 10.973 14.1915 10.9242C14.0749 10.8827 13.9741 10.8433 13.8838 10.8077C13.7392 10.7512 13.6344 10.7096 13.5454 10.6952C13.3606 10.6644 13.1749 10.622 12.9956 10.5809C12.5709 10.4837 12.1697 10.3916 11.8553 10.4679C11.4798 10.5583 11.0009 10.6297 10.6255 10.3762C10.3702 10.2036 10.2171 9.92441 10.1574 9.52277C10.1254 9.30637 10.0454 9.19387 9.98621 9.1627C9.95007 9.14417 9.90082 9.1496 9.84028 9.17986C9.0483 9.57428 8.25722 9.50425 7.55966 9.44235C7.19371 9.40937 6.84854 9.3782 6.51332 9.40892C6.47446 9.41208 6.432 9.41389 6.38817 9.4157C6.37597 9.41615 6.36152 9.4166 6.34706 9.41751C6.28607 9.50877 6.20158 9.63888 6.16815 9.71885C6.27116 9.93028 6.43877 10.139 6.61542 10.3586C6.70668 10.4724 6.79885 10.5872 6.88695 10.7069C6.97053 10.8208 6.99221 10.9689 6.94387 11.1022C6.89598 11.235 6.78484 11.3353 6.6475 11.3692L6.36513 11.4393L6.72295 11.9331C7.86597 11.8725 8.68822 12.5407 9.48518 13.1872C9.53578 13.2283 9.58728 13.2699 9.63879 13.3115L10.2338 13.2536C10.3612 13.2414 10.4872 13.2875 10.5771 13.3788C10.6671 13.47 10.7104 13.597 10.696 13.7239L10.6824 13.8382L10.9503 13.855C11.0759 13.8631 11.1911 13.9263 11.2652 14.028C11.3398 14.1297 11.3651 14.2589 11.3343 14.3813C11.2047 14.8995 11.2833 15.0111 11.2837 15.012C11.2996 15.0233 11.3976 15.0518 11.6185 15.0161C11.7373 14.9966 11.8593 15.0296 11.9528 15.1055C12.0468 15.1814 12.1033 15.2939 12.1096 15.4145C12.1137 15.5031 12.1155 15.5831 12.1177 15.6571C12.1214 15.7913 12.1241 15.897 12.139 15.9888C12.1543 16.0841 12.1864 16.1898 12.2203 16.3018C12.2379 16.3606 12.256 16.4198 12.2727 16.4799C12.3048 16.5969 12.2854 16.7225 12.2189 16.8246C12.1625 16.9113 12.0762 16.9737 11.9777 17.0012C12.1778 17.2714 12.3215 17.5646 12.4557 17.8393C12.8139 18.5707 13.0376 18.9529 13.8332 18.9624C13.957 18.9638 14.0744 19.0194 14.154 19.1147C14.2335 19.2105 14.2669 19.3361 14.2457 19.4585C14.2086 19.6726 14.1707 19.8814 14.1332 20.086C14.0415 20.5911 13.9543 21.0682 13.8991 21.543C13.886 21.6551 13.9335 21.8146 13.9696 21.8552C14.5127 22.3852 14.9898 23.024 14.7968 24.0911C14.7643 24.27 14.6216 24.4083 14.4413 24.4349C14.2619 24.4611 14.0848 24.3703 14.0022 24.2081L13.6267 23.4722L13.1252 25.3932L13.4966 25.6105C13.6249 25.685 13.7044 25.8215 13.7067 25.9701C13.7089 26.1183 13.6335 26.257 13.5079 26.3356C13.3936 26.4074 13.2779 26.4639 13.1758 26.5136C13.1026 26.5497 12.9951 26.6022 12.9513 26.6351C12.724 27.1854 12.5144 27.7583 12.3116 28.3126C12.1304 28.8087 11.9429 29.3215 11.7414 29.8225C11.6126 30.1424 11.4328 30.4252 11.2422 30.7252C11.2381 30.731 11.2345 30.7374 11.2304 30.7432L11.6592 30.9289C11.8336 31.0039 11.9361 31.1864 11.9108 31.3748L11.8458 31.8605C12.336 32.0028 12.743 32.2685 13.1401 32.5269C13.6104 32.8337 14.055 33.1228 14.5827 33.1458C14.8483 33.1576 14.9848 33.3659 15.058 33.4779C15.0697 33.4964 15.081 33.515 15.0937 33.5303C15.2075 33.6595 15.5839 33.7946 16.0795 33.7996C16.5525 33.7969 16.9966 33.6839 17.1597 33.5059C17.3138 33.3379 17.5726 33.3216 17.7466 33.4693C17.9187 33.6157 18.1536 33.7255 18.4026 33.8421C18.9415 34.0937 19.6513 34.4258 19.8117 35.3212C20.1763 35.3415 20.4966 35.4784 20.7708 35.5954C21.1811 35.7707 21.4273 35.8638 21.7106 35.7368C21.7743 35.7084 21.8352 35.6971 21.8922 35.6971ZM22.6792 36.8225C22.4126 36.8225 22.1443 36.757 21.8949 36.6246C21.8741 36.6138 21.8551 36.602 21.8371 36.5903C21.2945 36.7412 20.8246 36.5401 20.4379 36.3748C20.1085 36.2347 19.8239 36.1127 19.5302 36.1923C19.401 36.2275 19.2623 36.1986 19.157 36.1154C19.0518 36.0319 18.9921 35.904 18.9962 35.7694C19.0174 35.0967 18.684 34.9092 18.0438 34.6101C17.8564 34.5224 17.6648 34.4325 17.4827 34.3205C17.1348 34.5297 16.6492 34.648 16.1088 34.648C16.0962 34.648 16.0835 34.6476 16.0709 34.6476C15.3616 34.6404 14.758 34.4316 14.4562 34.0896C14.4241 34.0526 14.3966 34.0142 14.3731 33.9789C13.6958 33.9008 13.1569 33.5497 12.6775 33.2371C12.2339 32.9484 11.815 32.6755 11.3221 32.6154C11.2092 32.6023 11.1071 32.5441 11.0375 32.4542C10.9684 32.3647 10.9377 32.2509 10.953 32.1384L11.028 31.5795L10.4439 31.3265C10.3323 31.2782 10.2469 31.1846 10.2094 31.069C10.1714 30.9538 10.185 30.8273 10.2469 30.7229C10.3413 30.5621 10.4357 30.413 10.5265 30.2702C10.7027 29.9928 10.855 29.7529 10.9548 29.5058C11.1514 29.0174 11.3366 28.5114 11.5155 28.0217C11.7251 27.4484 11.942 26.8561 12.181 26.2791C12.2357 26.1472 12.3247 26.0483 12.4286 25.9683L12.42 25.9633C12.256 25.8675 12.1756 25.6742 12.2239 25.4903L12.991 22.5501C13.0245 22.4231 13.113 22.3215 13.2282 22.27C13.076 22.0129 13.0295 21.6849 13.057 21.4454C13.1153 20.9431 13.2047 20.4529 13.2992 19.9338C13.3096 19.8768 13.3204 19.819 13.3308 19.7603C12.3563 19.5642 11.9935 18.8233 11.6944 18.212C11.4708 17.7552 11.2593 17.3238 10.8256 17.0852C10.6662 16.9971 10.5808 16.8178 10.6133 16.6384C10.6454 16.4591 10.789 16.3204 10.9693 16.2942L11.3249 16.2427C11.3158 16.2038 11.3081 16.1641 11.3018 16.1234C11.2883 16.0389 11.281 15.9576 11.2765 15.8731C11.0176 15.8469 10.8107 15.7507 10.6589 15.5853C10.4294 15.335 10.3892 15.0007 10.4208 14.6709L10.1832 14.656C10.0675 14.6483 9.95955 14.5936 9.88501 14.5046C9.81092 14.4156 9.77613 14.2995 9.78923 14.1843L9.79375 14.1482L9.54978 14.1721C9.44 14.183 9.33067 14.1504 9.24483 14.0822C9.14588 14.0036 9.04785 13.9245 8.95071 13.8455C8.17093 13.213 7.49641 12.6659 6.58199 12.7978C6.42657 12.8199 6.27071 12.7544 6.17854 12.627L5.31021 11.4275C5.22753 11.3137 5.2072 11.1659 5.25554 11.0336C5.30388 10.9012 5.41502 10.8018 5.55146 10.7674L5.80672 10.7046C5.63278 10.4819 5.46698 10.247 5.35448 9.97592C5.19952 9.60455 5.46382 9.21104 5.67616 8.89524L5.72043 8.82928C5.88127 8.58667 6.16635 8.57583 6.35519 8.5686C6.38456 8.56724 6.41302 8.56634 6.43877 8.56408C6.84854 8.52794 7.24793 8.56318 7.63466 8.59751C8.27755 8.65489 8.88475 8.70865 9.46214 8.42131C9.77026 8.26771 10.096 8.26409 10.3784 8.41137C10.7082 8.58305 10.9273 8.93364 10.996 9.39853C11.0172 9.5413 11.056 9.64385 11.0999 9.67367C11.1265 9.69174 11.2453 9.74279 11.6569 9.6434C12.1652 9.52142 12.6834 9.63979 13.1844 9.75454C13.3593 9.79475 13.5242 9.83225 13.6836 9.8589C13.7342 9.86703 13.783 9.87788 13.8309 9.89098L13.3656 5.94778C13.3484 5.8014 13.4085 5.65592 13.5242 5.56511C13.6403 5.47385 13.7952 5.449 13.9339 5.50096C14.111 5.56647 14.2687 5.62339 14.4124 5.6749C14.7417 5.79372 15.0015 5.88769 15.2599 6.00154C15.358 6.04446 15.8477 6.2812 15.845 6.69549C15.8418 7.13282 15.9991 7.21188 16.6731 7.36052L16.7544 7.37859C17.0373 7.44184 17.2997 7.54304 17.5537 7.64062C17.6725 7.68625 17.7917 7.73234 17.9119 7.77345C18.15 7.85477 18.3863 7.83489 18.5435 7.71969C18.6605 7.6343 18.7179 7.50825 18.7143 7.3447C18.6899 6.23602 19.5664 6.12081 19.8966 6.07744C19.9892 6.06524 20.0819 6.0535 20.1745 6.0422C21.0311 5.93648 21.8398 5.83619 22.3995 5.1951C22.4199 5.17161 22.4587 5.08848 22.475 4.96604C22.5052 4.73201 22.5292 4.48896 22.5522 4.25402C22.5974 3.79366 22.6444 3.31747 22.7456 2.84851C22.8369 2.42654 23.327 2.04749 23.7047 1.99012C24.1113 1.92822 24.5247 1.93952 24.9246 1.95126C25.0859 1.95578 25.2499 1.9603 25.417 1.9603C25.5679 1.9603 25.7075 2.04072 25.7834 2.17128C25.8765 2.33167 25.9415 2.50786 26.0043 2.67819C26.0852 2.89595 26.1851 3.16612 26.3007 3.21446C26.3847 3.24925 26.5618 3.21175 26.7751 3.11507C26.9879 3.01838 27.2386 3.11191 27.3362 3.32425C27.4022 3.46882 27.4636 3.61203 27.5237 3.75299C27.6525 4.05479 27.774 4.33941 27.9281 4.58789C28.1291 4.91228 28.3053 5.06137 28.4033 5.09254C28.8682 5.24163 29.6336 5.48786 29.7099 6.46688C29.7781 6.51748 29.8906 6.57576 29.9525 6.59022C30.0609 6.5595 30.2123 6.43932 30.3596 6.32321C30.4594 6.24415 30.5624 6.16283 30.6785 6.08422C30.829 5.98256 31.0273 5.98798 31.1719 6.09777C31.3169 6.208 31.3752 6.39776 31.3178 6.56989C31.0928 7.24125 31.3869 7.46217 32.0737 7.89769C32.3732 8.08789 32.6831 8.28442 32.9203 8.56001C33.036 8.69464 33.5067 8.73169 33.8505 8.75835C34.1044 8.77823 34.3669 8.79901 34.6104 8.85097C35.2317 8.98334 35.4928 9.16541 35.5113 9.47895C35.5393 9.9601 35.7413 10.0215 36.3205 10.1277C36.5644 10.1724 36.8165 10.2185 37.0492 10.3324C37.3609 10.4837 37.7486 10.5366 38.1588 10.5917C38.3594 10.6188 38.5672 10.6473 38.7719 10.6884C39.2142 10.7765 39.5363 11.0638 39.6122 11.4384C39.6818 11.7835 39.5254 12.1251 39.1929 12.3514C38.6011 12.7535 38.4773 13.3544 38.3345 14.0492C38.2659 14.3831 38.1945 14.7283 38.0653 15.0621C37.9894 15.2582 37.979 15.5103 37.9677 15.7778C37.9546 16.0787 37.9415 16.3899 37.838 16.6976C37.6998 17.1105 37.0758 17.6748 36.5671 17.5903C36.2662 17.5406 36.2662 17.5406 36.1388 17.9816C36.0232 18.3828 35.7575 18.7307 35.4878 19.0474C35.2999 19.2678 35.097 19.4729 34.9009 19.6717C34.5973 19.9803 34.3096 20.2713 34.0913 20.5983C34.015 20.7122 33.9472 20.8342 33.884 20.962C34.2047 20.7904 34.5951 20.8044 34.8201 20.812L34.8607 20.8134C35.238 20.826 35.336 21.1952 35.4228 21.5204C35.4557 21.6451 35.4973 21.8001 35.5362 21.8814C35.6193 22.0554 35.7273 22.2234 35.8642 22.4367C35.9324 22.5428 36.0056 22.6567 36.0828 22.7827C36.1416 22.879 36.1601 22.9946 36.1334 23.1044C36.1068 23.2137 36.0376 23.3086 35.9414 23.3669C35.8176 23.4419 35.6654 23.5553 35.6428 23.6696C35.6026 23.8743 35.8994 24.2777 36.1167 24.5727C36.2342 24.7322 36.5915 25.217 36.4063 25.723C36.2292 26.2082 35.6744 26.3925 35.2728 26.4892C35.2036 26.5055 35.1169 26.5538 35.0654 26.5936C35.0835 26.65 35.1214 26.721 35.1503 26.7463C35.4729 26.9338 35.9288 27.2532 36.0169 27.7628C36.081 28.1346 35.9396 28.5223 35.5854 28.9465C35.5533 29.0201 35.5434 29.2117 35.5633 29.3133C35.8718 29.5334 36.2486 29.6883 36.6457 29.8523C36.7384 29.8903 36.8305 29.9282 36.9218 29.9671C36.9805 29.9919 37.088 30 37.192 30.0082C37.2647 30.0141 37.3379 30.0199 37.4088 30.0303C37.5416 30.0493 37.6577 30.1302 37.7219 30.2485C37.7856 30.3664 37.7897 30.5083 37.7323 30.6298C37.7065 30.685 37.6858 30.745 37.6645 30.8051C37.5977 30.9917 37.5145 31.223 37.3234 31.3925C37.037 31.6464 36.7357 31.8854 36.4438 32.1162C35.9617 32.4984 35.5063 32.859 35.1146 33.28C35.0243 33.3772 34.9371 33.4788 34.8508 33.58C34.366 34.1443 33.7629 34.8455 32.6917 34.6011C32.183 34.4849 31.7068 34.2803 31.246 34.0824C30.9555 33.9577 30.6808 33.8393 30.3998 33.7422C30.1567 33.6586 29.9019 33.5999 29.6322 33.5371C29.3706 33.4766 29.1 33.4138 28.8325 33.3252C28.7372 33.2936 28.6401 33.2629 28.5434 33.2321C28.0374 33.0718 27.5147 32.9055 27.0674 32.5897C26.701 32.3304 26.5311 32.3742 26.2361 32.6258C26.1724 32.6801 26.1101 32.7406 26.0477 32.8007C25.8394 33.0017 25.6036 33.2294 25.2869 33.3234C24.5112 33.5547 24.2613 34.016 24.2979 35.1513C24.3165 35.7355 24.0341 36.2677 23.543 36.574C23.2769 36.7398 22.9792 36.8225 22.6792 36.8225Z" fill="#37B4B4"/>
<path d="M21.892 35.6972C22.0691 35.6972 22.2069 35.8065 22.2683 35.8553C22.2796 35.8643 22.2918 35.8747 22.3036 35.8824C22.5516 36.013 22.8516 36.0057 23.0942 35.8544C23.3296 35.7075 23.4592 35.4613 23.4502 35.179C23.4159 34.1046 23.5785 32.948 25.0446 32.5112C25.1638 32.4759 25.3138 32.3309 25.4589 32.1908C25.5338 32.1185 25.6088 32.0467 25.6852 31.9817C26.2996 31.4562 26.8946 31.4296 27.5565 31.8972C27.8967 32.1375 28.3349 32.2767 28.7994 32.424C28.9001 32.456 29.0004 32.4877 29.0994 32.5206C29.3293 32.5965 29.5692 32.6521 29.8236 32.7113C30.1028 32.7759 30.3915 32.8428 30.6761 32.9408C30.9865 33.0483 31.2883 33.178 31.5801 33.3031C32.026 33.4947 32.4471 33.6754 32.8808 33.7753C33.4261 33.8995 33.7257 33.5887 34.2073 33.0275C34.3012 32.9182 34.3957 32.8084 34.4932 32.7032C34.9288 32.2347 35.4312 31.8366 35.9173 31.4517C36.1861 31.2389 36.4635 31.0189 36.721 30.793C36.6776 30.7808 36.6338 30.7654 36.59 30.7469C36.5014 30.7094 36.4124 30.6728 36.323 30.6358C35.8671 30.4483 35.395 30.254 34.9875 29.9423C34.8362 29.8266 34.7444 29.6315 34.7151 29.3626C34.6839 29.0771 34.7205 28.657 34.9261 28.413C35.1095 28.1961 35.1998 28.0163 35.1809 27.907C35.1696 27.8397 35.0928 27.6933 34.7097 27.4697C34.3835 27.2795 34.1463 26.7563 34.2208 26.393C34.3035 25.9923 34.7883 25.7334 35.0742 25.6648C35.5468 25.5514 35.6096 25.4334 35.6101 25.4321C35.6101 25.4316 35.6227 25.3313 35.4339 25.0752C35.0887 24.6071 34.6979 24.0763 34.8113 23.5052C34.8556 23.2807 34.969 23.0814 35.1556 22.9025C35.1538 22.8998 35.1524 22.8971 35.1506 22.8949C35.0038 22.6662 34.8768 22.4688 34.7706 22.2465C34.6979 22.0943 34.6478 21.9054 34.6035 21.7387C34.5967 21.7139 34.589 21.685 34.5809 21.656C34.2312 21.6597 34.2249 21.7292 34.2077 21.9285C34.1756 22.3066 34.0369 22.5673 33.7957 22.7042C33.4505 22.8989 33.0615 22.7566 32.7259 22.5922C32.523 22.4923 32.434 22.2511 32.5235 22.0437C32.6066 21.8517 32.6834 21.6524 32.7575 21.4591C32.9305 21.0077 33.1099 20.541 33.3859 20.1272C33.6493 19.7332 33.9787 19.3994 34.2972 19.0763C34.4914 18.8798 34.6744 18.6941 34.8425 18.4972C35.0503 18.2532 35.2532 17.993 35.3241 17.7463C35.4483 17.3153 35.6552 16.5965 36.67 16.7487C36.7811 16.7121 36.9989 16.5228 37.0346 16.428C37.0992 16.2341 37.1096 15.9952 37.1204 15.7417C37.1339 15.4178 37.1484 15.0825 37.2745 14.7559C37.3784 14.488 37.4394 14.1921 37.504 13.8785C37.6612 13.1132 37.8396 12.2462 38.7161 11.6503C38.7468 11.6291 38.7649 11.611 38.7739 11.5993C38.7559 11.5785 38.7053 11.5396 38.6054 11.5193C38.4265 11.4836 38.2413 11.4587 38.0448 11.4321C37.5862 11.3697 37.1118 11.3056 36.6776 11.0942C36.5493 11.0314 36.3641 10.9975 36.1676 10.9618C35.667 10.8701 34.8511 10.7205 34.6889 9.74873C34.6216 9.72659 34.5321 9.70084 34.4332 9.68006C34.2448 9.6394 34.0211 9.62223 33.7844 9.60371C33.2129 9.55898 32.6215 9.51245 32.2772 9.11307C32.1227 8.93281 31.8783 8.77784 31.619 8.61384C31.1604 8.32244 30.5826 7.95559 30.4317 7.30456C30.3205 7.36374 30.2022 7.40938 30.0711 7.43106C29.7246 7.49025 29.3167 7.24176 29.1486 7.10261C28.9656 6.95036 28.8712 6.78365 28.868 6.607C28.8613 6.20988 28.7397 6.09106 28.1438 5.89995C27.8127 5.79378 27.4973 5.50283 27.2077 5.03478C27.0193 4.73163 26.8793 4.40318 26.7437 4.08558C26.7361 4.0675 26.7284 4.04943 26.7207 4.03136C26.4401 4.10003 26.1939 4.08874 25.9748 3.99702C25.518 3.80682 25.3468 3.34419 25.2095 2.97237C25.1878 2.91454 25.167 2.85807 25.1462 2.80476C25.0635 2.80295 24.9818 2.80114 24.9009 2.79888C24.5214 2.78759 24.1636 2.77765 23.832 2.82825C23.7592 2.84361 23.5993 2.97327 23.5699 3.04195C23.4827 3.44901 23.4407 3.88046 23.396 4.33677C23.372 4.57847 23.3476 4.82831 23.3151 5.07589C23.2943 5.23402 23.2311 5.5313 23.0377 5.75312C22.2652 6.63772 21.2098 6.76829 20.2787 6.8835C20.1878 6.89479 20.097 6.90609 20.0071 6.91783C19.5901 6.9725 19.5553 7.03485 19.5617 7.32625C19.5712 7.76358 19.3823 8.15663 19.0439 8.40421C18.6635 8.68297 18.1372 8.74712 17.6371 8.57544C17.5069 8.53116 17.3777 8.48147 17.249 8.43177C17.0136 8.34142 16.7909 8.25558 16.5695 8.20588L16.49 8.18826C15.9162 8.06176 15.061 7.87291 15.0004 6.82476C14.9751 6.8076 14.9453 6.78952 14.9182 6.77732C14.7284 6.69374 14.5274 6.6183 14.2879 6.53155L14.7533 10.4748C14.7705 10.6202 14.7113 10.7639 14.5974 10.8556C14.4827 10.9469 14.3295 10.9726 14.1913 10.9243C14.0747 10.8827 13.974 10.8434 13.8836 10.8077C13.739 10.7513 13.6342 10.7097 13.5452 10.6952C13.3604 10.6645 13.1747 10.622 12.9954 10.5809C12.5707 10.4838 12.1695 10.3916 11.8551 10.468C11.4796 10.5583 11.0007 10.6297 10.6253 10.3763C10.37 10.2037 10.2169 9.92448 10.1573 9.52284C10.1252 9.30643 10.0452 9.19349 9.98603 9.16277C9.94988 9.14424 9.90064 9.14966 9.8401 9.17993C9.04812 9.57434 8.25703 9.50386 7.55947 9.44242C7.19353 9.40944 6.84836 9.37827 6.51313 9.40854C6.47428 9.41215 6.43181 9.41396 6.38799 9.41577C6.37579 9.41622 6.36179 9.41667 6.34688 9.41757C6.28589 9.50883 6.20185 9.63895 6.16797 9.71892C6.27098 9.93035 6.43859 10.1391 6.61524 10.3586C6.7065 10.4725 6.79866 10.5873 6.88676 10.707C6.97034 10.8208 6.99203 10.969 6.94369 11.1023C6.8958 11.2351 6.78466 11.3354 6.64732 11.3693L6.36495 11.4393L6.72276 11.9331C7.86579 11.8726 8.68804 12.5408 9.48499 13.1873C9.53559 13.2284 9.5871 13.27 9.6386 13.3115L10.2336 13.2537C10.361 13.2411 10.4871 13.2871 10.577 13.3788C10.6669 13.4701 10.7102 13.5971 10.6958 13.724L10.6822 13.8383L10.9501 13.855C11.0757 13.8632 11.1909 13.9264 11.2655 14.0281C11.3396 14.1297 11.3649 14.2589 11.3342 14.3814C11.2045 14.8996 11.2831 15.0112 11.284 15.0121C11.2994 15.0234 11.3974 15.0518 11.6183 15.0161C11.7372 14.9967 11.8591 15.0292 11.9527 15.1056C12.0466 15.1815 12.1031 15.294 12.1094 15.4142C12.1135 15.5032 12.1153 15.5831 12.1176 15.6572C12.1212 15.7914 12.1239 15.8971 12.1388 15.9888C12.1542 16.0842 12.1862 16.1899 12.2201 16.3019C12.2377 16.3606 12.2558 16.4198 12.2725 16.4799C12.3046 16.5969 12.2852 16.7225 12.2188 16.8246C12.1623 16.9114 12.076 16.9737 11.9775 17.0013C12.1776 17.2715 12.3213 17.5647 12.4555 17.8393C12.8138 18.5708 13.0374 18.9526 13.833 18.962C13.9572 18.9634 14.0743 19.0194 14.1538 19.1147C14.2333 19.2105 14.2667 19.3361 14.2455 19.4586C14.2084 19.6727 14.1705 19.8814 14.133 20.0861C14.0413 20.5912 13.9541 21.0683 13.899 21.5431C13.8859 21.6547 13.9333 21.8146 13.9694 21.8553C14.5125 22.3852 14.9896 23.0241 14.7967 24.0912C14.7641 24.2701 14.6214 24.4083 14.4411 24.435C14.2617 24.4607 14.0846 24.3704 14.002 24.2082L13.6265 23.4722L13.125 25.3932L13.4964 25.6105C13.6247 25.6851 13.7042 25.8215 13.7065 25.9702C13.7088 26.1184 13.6333 26.2571 13.5077 26.3357C13.3934 26.4075 13.2778 26.464 13.1761 26.5137C13.1025 26.5494 12.9949 26.6022 12.9511 26.6347C12.7239 27.1855 12.5142 27.7583 12.3114 28.3127C12.1302 28.8088 11.9427 29.3215 11.7412 29.8226C11.6125 30.1424 11.4327 30.4252 11.242 30.7252C11.2379 30.7311 11.2343 30.737 11.2302 30.7433L11.659 30.929C11.8334 31.004 11.9359 31.1865 11.9106 31.3749L11.8456 31.8606C12.3358 32.0029 12.7433 32.2685 13.14 32.527C13.6103 32.8337 14.0548 33.1229 14.5825 33.1459C14.8482 33.1572 14.9846 33.3659 15.0578 33.478C15.0695 33.496 15.0808 33.515 15.0935 33.5304C15.2073 33.6596 15.5837 33.7947 16.0793 33.7997C16.5523 33.7965 16.9964 33.6835 17.1595 33.5055C17.3136 33.3379 17.5724 33.3217 17.7464 33.4694C17.9185 33.6158 18.1534 33.7256 18.4024 33.8421C18.9414 34.0938 19.6516 34.4258 19.812 35.3213C20.1761 35.3416 20.4964 35.4785 20.7706 35.5951C21.1809 35.7708 21.4271 35.8639 21.7104 35.7369C21.7741 35.708 21.8351 35.6972 21.892 35.6972Z" fill="white"/>
<path d="M20.2928 15.0574C22.4035 15.0574 24.1149 16.7688 24.1149 18.8796C24.1149 20.9903 24.2925 21.1679 20.2928 25.1675C16.2931 21.1679 16.4707 20.9903 16.4707 18.8796C16.4707 16.7688 18.182 15.0574 20.2928 15.0574Z" fill="#23333C"/>
<path d="M20.2931 19.8524C19.7089 19.8524 19.2337 19.3771 19.2337 18.793C19.2337 18.2088 19.7089 17.7335 20.2931 17.7335C20.8773 17.7335 21.3525 18.2088 21.3525 18.793C21.3525 19.3771 20.8773 19.8524 20.2931 19.8524ZM20.2931 14.0709C17.6416 14.0709 15.4847 16.2282 15.4847 18.8797L15.4838 19.1332C15.4757 21.4156 15.7287 21.9984 19.596 25.8653C19.7885 26.0577 20.0406 26.154 20.2931 26.154C20.5457 26.154 20.7982 26.0577 20.9907 25.8653C24.8575 21.9984 25.111 21.4156 25.1024 19.1332L25.1019 18.8797C25.1019 16.2282 22.9446 14.0709 20.2931 14.0709ZM20.2931 20.8387C21.423 20.8387 22.3388 19.9229 22.3388 18.793C22.3388 17.6631 21.423 16.7473 20.2931 16.7473C19.1636 16.7473 18.2474 17.6631 18.2474 18.793C18.2474 19.9229 19.1636 20.8387 20.2931 20.8387ZM20.2931 15.0576C22.4039 15.0576 24.1152 16.7685 24.1152 18.8797C24.1152 20.9905 24.2928 21.168 20.2931 25.1677C16.2934 21.168 16.471 20.9905 16.471 18.8797C16.471 16.7685 18.1823 15.0576 20.2931 15.0576Z" fill="#37B4B4"/>
</svg>
