<?xml version="1.0" encoding="UTF-8"?>
<svg id="a" xmlns="http://www.w3.org/2000/svg" viewBox="0 0 278 95.11">
    <defs>
        <style>.b{fill:#21313b;}.c{fill:#fff;}.d{fill:#37b4b4;}.e{fill:#23333c;}</style>
    </defs>
    <path class="e"
          d="M91.72,47.71c0,23.48-19.04,42.52-42.52,42.52S6.68,71.2,6.68,47.71,25.72,5.19,49.2,5.19s42.52,19.04,42.52,42.52"/>
    <g>
        <path class="b"
              d="M108.07,34.96h3.22l4.39,6.21c.57,.81,.99,1.46,1.38,2.13h.05c.34-.65,.78-1.38,1.33-2.24l3.98-6.11h3.25v17.13h-3.56v-9.2c0-.68,0-1.46,.03-2.05h-.03c-.21,.44-.88,1.43-1.17,1.87l-3.07,4.73h-1.61l-3.46-4.89c-.36-.49-.78-1.04-1.14-1.69h-.05c.03,.6,.03,1.38,.03,1.92v9.31h-3.56v-17.13Z"/>
        <path class="b"
              d="M128.56,45.91c0-3.72,2.55-6.42,6.32-6.42s6.29,2.7,6.29,6.42-2.55,6.45-6.29,6.45-6.32-2.73-6.32-6.45Zm9.02,0c0-2.08-.86-3.61-2.7-3.61s-2.73,1.53-2.73,3.61,.88,3.64,2.73,3.64,2.7-1.56,2.7-3.64Z"/>
        <path class="b"
              d="M143.56,51.44v-17.76h3.51v6.11c.65-.18,1.38-.31,2.24-.31,3.35,0,6.06,2.16,6.06,6.06,0,4.29-3.28,6.81-7.57,6.81-1.59,0-3.07-.29-4.24-.91Zm8.22-5.69c0-1.98-1.2-3.38-3.04-3.38-.81,0-1.27,.16-1.66,.29v6.63c.44,.16,.91,.18,1.3,.18,2.11,0,3.41-1.53,3.41-3.72Z"/>
        <path class="b"
              d="M157.29,36c0-1.12,.91-2.03,2.13-2.03s2.11,.86,2.11,2.03-.91,2.08-2.11,2.08-2.13-.91-2.13-2.08Zm.36,3.8h3.51v12.3h-3.51v-12.3Z"/>
        <path class="b" d="M162.68,39.8h3.54l2.83,7.88h.05l2.81-7.88h3.54l-5.1,12.38h-2.57l-5.1-12.38Z"/>
        <path class="b"
              d="M176.61,36c0-1.12,.91-2.03,2.13-2.03s2.11,.86,2.11,2.03-.91,2.08-2.11,2.08-2.13-.91-2.13-2.08Zm.36,3.8h3.51v12.3h-3.51v-12.3Z"/>
        <path class="b"
              d="M183.43,33.69h3.51v14.54c0,.81,.34,1.04,.91,1.04,.13,0,.49-.05,.78-.16l.68,2.73c-.81,.34-1.77,.47-2.52,.47-2.21,0-3.35-1.09-3.35-3.17v-15.45Z"/>
        <path class="b"
              d="M191.23,33.69h3.51v14.54c0,.81,.34,1.04,.91,1.04,.13,0,.49-.05,.78-.16l.68,2.73c-.81,.34-1.77,.47-2.52,.47-2.21,0-3.35-1.09-3.35-3.17v-15.45Z"/>
        <path class="b"
              d="M198.38,46.04c0-3.72,2-6.55,5.69-6.55s5.67,2.52,5.67,6.66v.81h-7.83c.05,1.72,1.38,2.68,3.25,2.68,1.27,0,2.24-.31,3.15-.83l1.01,2.39c-1.38,.83-2.91,1.17-4.47,1.17-4.68,0-6.47-3.09-6.47-6.32Zm7.83-1.46c-.03-1.22-.65-2.44-2.18-2.44-1.4,0-2.16,1.17-2.16,2.44h4.34Z"/>
    </g>
    <g>
        <path class="d"
              d="M56.88,86.7c-.59,0-1.18-.15-1.74-.44-.05-.02-.09-.05-.13-.08-1.2,.33-2.24-.11-3.1-.48-.73-.31-1.36-.58-2.01-.4-.29,.08-.59,.01-.83-.17-.23-.18-.36-.47-.36-.77,.05-1.49-.69-1.9-2.11-2.57-.42-.19-.84-.39-1.24-.64-.77,.46-1.84,.72-3.04,.72h-.08c-1.57-.02-2.91-.48-3.57-1.24-.07-.08-.13-.17-.18-.24-1.5-.17-2.69-.95-3.75-1.64-.98-.64-1.91-1.24-3-1.38-.25-.03-.48-.16-.63-.36-.15-.2-.22-.45-.19-.7l.17-1.24-1.29-.56c-.25-.11-.44-.31-.52-.57-.08-.26-.05-.53,.08-.77,.21-.36,.42-.69,.62-1,.39-.61,.73-1.14,.95-1.69,.44-1.08,.84-2.2,1.24-3.29,.46-1.27,.94-2.58,1.47-3.86,.12-.29,.32-.51,.55-.69h-.02c-.36-.22-.54-.65-.43-1.06l1.7-6.51c.07-.28,.27-.51,.52-.62-.34-.57-.44-1.29-.38-1.82,.13-1.11,.33-2.2,.54-3.35l.07-.38c-2.16-.43-2.96-2.07-3.62-3.43-.49-1.01-.96-1.97-1.92-2.49-.35-.19-.54-.59-.47-.99,.07-.4,.39-.7,.79-.76l.79-.11c-.02-.09-.04-.17-.05-.26-.03-.19-.05-.37-.06-.55-.57-.06-1.03-.27-1.37-.64-.51-.55-.6-1.29-.53-2.02l-.53-.03c-.26-.02-.49-.14-.66-.33-.16-.2-.24-.45-.21-.71v-.08l-.53,.05c-.24,.02-.48-.05-.67-.2-.22-.17-.44-.35-.65-.52-1.73-1.4-3.22-2.61-5.24-2.32-.34,.05-.69-.1-.89-.38l-1.92-2.65c-.18-.25-.23-.58-.12-.87,.11-.29,.35-.51,.66-.59l.57-.14c-.39-.49-.75-1.01-1-1.61-.34-.82,.24-1.69,.71-2.39l.1-.15c.36-.54,.99-.56,1.41-.58,.06,0,.13,0,.18,0,.91-.08,1.79,0,2.65,.07,1.42,.13,2.77,.25,4.05-.39,.68-.34,1.4-.35,2.03-.02,.73,.38,1.22,1.16,1.37,2.19,.05,.32,.13,.54,.23,.61,.06,.04,.32,.15,1.23-.07,1.13-.27,2.27,0,3.38,.25,.39,.09,.75,.17,1.11,.23,.11,.02,.22,.04,.33,.07l-1.03-8.73c-.04-.32,.09-.65,.35-.85,.26-.2,.6-.26,.91-.14,.39,.15,.74,.27,1.06,.39,.73,.26,1.3,.47,1.88,.72,.22,.1,1.3,.62,1.29,1.54,0,.97,.34,1.14,1.83,1.47l.18,.04c.63,.14,1.21,.36,1.77,.58,.26,.1,.53,.2,.79,.29,.53,.18,1.05,.14,1.4-.12,.26-.19,.39-.47,.38-.83-.05-2.45,1.89-2.71,2.62-2.8,.2-.03,.41-.05,.62-.08,1.9-.23,3.69-.46,4.92-1.87,.05-.05,.13-.24,.17-.51,.07-.52,.12-1.06,.17-1.58,.1-1.02,.2-2.07,.43-3.11,.2-.93,1.29-1.77,2.12-1.9,.9-.14,1.81-.11,2.7-.09,.36,0,.72,.02,1.09,.02,.33,0,.64,.18,.81,.47,.21,.35,.35,.74,.49,1.12,.18,.48,.4,1.08,.66,1.19,.19,.08,.58,0,1.05-.22,.47-.21,1.03,0,1.24,.46,.15,.32,.28,.64,.42,.95,.28,.67,.55,1.3,.9,1.85,.44,.72,.84,1.05,1.05,1.12,1.03,.33,2.72,.87,2.89,3.04,.15,.11,.4,.24,.54,.27,.24-.07,.58-.33,.9-.59,.22-.17,.45-.36,.71-.53,.33-.23,.77-.21,1.09,.03,.32,.24,.45,.66,.32,1.04-.5,1.49,.15,1.97,1.67,2.94,.66,.42,1.35,.86,1.87,1.47,.26,.3,1.3,.38,2.06,.44,.56,.04,1.14,.09,1.68,.2,1.38,.29,1.95,.7,1.99,1.39,.06,1.07,.51,1.2,1.79,1.44,.54,.1,1.1,.2,1.61,.45,.69,.34,1.55,.45,2.46,.58,.44,.06,.9,.12,1.36,.21,.98,.2,1.69,.83,1.86,1.66,.16,.76-.19,1.52-.93,2.02-1.31,.89-1.58,2.22-1.9,3.76-.15,.74-.31,1.5-.6,2.24-.17,.43-.19,.99-.22,1.58-.03,.67-.06,1.36-.29,2.04-.31,.91-1.69,2.16-2.81,1.98q-.67-.11-.95,.87c-.26,.89-.84,1.66-1.44,2.36-.42,.49-.86,.94-1.3,1.38-.67,.68-1.31,1.33-1.79,2.05-.17,.25-.32,.52-.46,.81,.71-.38,1.57-.35,2.07-.33h.09c.84,.03,1.05,.85,1.24,1.57,.07,.28,.16,.62,.25,.8,.18,.39,.42,.76,.73,1.23,.15,.24,.31,.49,.48,.77,.13,.21,.17,.47,.11,.71s-.21,.45-.43,.58c-.27,.17-.61,.42-.66,.67-.09,.45,.57,1.35,1.05,2,.26,.35,1.05,1.43,.64,2.55-.39,1.07-1.62,1.48-2.51,1.7-.15,.04-.34,.14-.46,.23,.04,.13,.12,.28,.19,.34,.71,.41,1.72,1.12,1.92,2.25,.14,.82-.17,1.68-.95,2.62-.07,.16-.09,.59-.05,.81,.68,.49,1.52,.83,2.4,1.19,.2,.08,.41,.17,.61,.25,.13,.06,.37,.07,.6,.09,.16,.01,.32,.03,.48,.05,.29,.04,.55,.22,.69,.48,.14,.26,.15,.57,.02,.84-.06,.12-.1,.26-.15,.39-.15,.41-.33,.92-.75,1.3-.63,.56-1.3,1.09-1.95,1.6-1.07,.85-2.08,1.64-2.94,2.58-.2,.21-.39,.44-.58,.66-1.07,1.25-2.41,2.8-4.78,2.26-1.13-.26-2.18-.71-3.2-1.15-.64-.28-1.25-.54-1.87-.75-.54-.19-1.1-.32-1.7-.45-.58-.13-1.18-.27-1.77-.47-.21-.07-.43-.14-.64-.21-1.12-.36-2.28-.72-3.27-1.42-.81-.57-1.19-.48-1.84,.08-.14,.12-.28,.25-.42,.39-.46,.44-.98,.95-1.68,1.16-1.72,.51-2.27,1.53-2.19,4.05,.04,1.29-.58,2.47-1.67,3.15-.59,.37-1.25,.55-1.91,.55Zm-1.74-2.49c.39,0,.7,.24,.83,.35,.03,.02,.05,.04,.08,.06,.55,.29,1.21,.27,1.75-.06,.52-.32,.81-.87,.79-1.5-.08-2.38,.28-4.94,3.53-5.9,.26-.08,.6-.4,.92-.71,.17-.16,.33-.32,.5-.46,1.36-1.16,2.68-1.22,4.14-.19,.75,.53,1.72,.84,2.75,1.17,.22,.07,.44,.14,.66,.21,.51,.17,1.04,.29,1.6,.42,.62,.14,1.26,.29,1.89,.51,.69,.24,1.36,.52,2,.8,.99,.42,1.92,.82,2.88,1.04,1.21,.28,1.87-.41,2.94-1.65,.21-.24,.42-.48,.63-.72,.96-1.04,2.08-1.92,3.15-2.77,.59-.47,1.21-.96,1.78-1.46-.1-.03-.19-.06-.29-.1-.2-.08-.39-.16-.59-.25-1.01-.42-2.05-.85-2.96-1.54-.33-.26-.54-.69-.6-1.28-.07-.63,.01-1.56,.47-2.1,.41-.48,.61-.88,.56-1.12-.03-.15-.2-.47-1.04-.97-.72-.42-1.25-1.58-1.08-2.38,.18-.89,1.26-1.46,1.89-1.61,1.05-.25,1.18-.51,1.19-.52,0,0,.03-.22-.39-.79-.76-1.04-1.63-2.21-1.38-3.48,.1-.5,.35-.94,.76-1.33v-.02c-.34-.51-.62-.94-.85-1.43-.16-.34-.27-.76-.37-1.12-.01-.06-.03-.12-.05-.18-.77,0-.79,.16-.83,.6-.07,.84-.38,1.41-.91,1.72-.76,.43-1.63,.12-2.37-.25-.45-.22-.65-.76-.45-1.21,.18-.43,.35-.87,.52-1.29,.38-1,.78-2.03,1.39-2.95,.58-.87,1.31-1.61,2.02-2.33,.43-.44,.83-.85,1.21-1.28,.46-.54,.91-1.12,1.07-1.66,.28-.95,.73-2.55,2.98-2.21,.25-.08,.73-.5,.81-.71,.14-.43,.17-.96,.19-1.52,.03-.72,.06-1.46,.34-2.18,.23-.59,.36-1.25,.51-1.94,.35-1.69,.74-3.61,2.68-4.93,.07-.05,.11-.09,.13-.11-.04-.05-.15-.13-.37-.18-.4-.08-.81-.13-1.24-.19-1.02-.14-2.07-.28-3.03-.75-.28-.14-.69-.21-1.13-.29-1.11-.2-2.91-.53-3.27-2.68-.15-.05-.35-.11-.57-.15-.42-.09-.91-.13-1.44-.17-1.27-.1-2.57-.2-3.34-1.09-.34-.4-.88-.74-1.46-1.11-1.02-.64-2.29-1.46-2.63-2.9-.25,.13-.51,.23-.8,.28-.77,.13-1.67-.42-2.04-.73-.41-.34-.61-.71-.62-1.1-.01-.88-.28-1.14-1.6-1.57-.73-.24-1.43-.88-2.07-1.91-.42-.67-.73-1.4-1.03-2.1l-.05-.12c-.62,.15-1.16,.13-1.65-.08-1.01-.42-1.39-1.45-1.69-2.27-.05-.13-.09-.25-.14-.37-.18,0-.36,0-.54-.01-.84-.02-1.63-.05-2.37,.07-.16,.03-.51,.32-.58,.47-.19,.9-.29,1.86-.39,2.87-.05,.53-.11,1.09-.18,1.64-.05,.35-.19,1.01-.61,1.5-1.71,1.96-4.05,2.25-6.11,2.5-.2,.02-.4,.05-.6,.08-.92,.12-1,.26-.99,.9,.02,.97-.4,1.84-1.15,2.39-.84,.62-2.01,.76-3.11,.38-.29-.1-.57-.21-.86-.32-.52-.2-1.01-.39-1.5-.5l-.18-.04c-1.27-.28-3.16-.7-3.3-3.02-.06-.04-.12-.08-.18-.1-.42-.19-.87-.35-1.39-.54l1.03,8.73c.04,.32-.09,.64-.35,.84-.25,.2-.59,.26-.9,.15-.26-.09-.48-.18-.68-.26-.32-.13-.55-.22-.75-.25-.41-.07-.82-.16-1.22-.25-.94-.21-1.83-.42-2.52-.25-.83,.2-1.89,.36-2.72-.2-.57-.38-.9-1-1.04-1.89-.07-.48-.25-.73-.38-.8-.08-.04-.19-.03-.32,.04-1.75,.87-3.5,.72-5.05,.58-.81-.07-1.57-.14-2.32-.07-.09,0-.18,.01-.28,.02h-.09c-.13,.21-.32,.49-.4,.67,.23,.47,.6,.93,.99,1.42,.2,.25,.41,.51,.6,.77,.19,.25,.23,.58,.13,.87-.11,.29-.35,.52-.66,.59l-.62,.15,.79,1.09c2.53-.13,4.35,1.35,6.11,2.78,.11,.09,.23,.18,.34,.28l1.32-.13c.28-.03,.56,.07,.76,.28,.2,.2,.3,.48,.26,.76l-.03,.25,.59,.04c.28,.02,.53,.16,.7,.38,.16,.23,.22,.51,.15,.78-.29,1.15-.11,1.39-.11,1.4,.03,.02,.25,.09,.74,0,.26-.04,.53,.03,.74,.2,.21,.17,.33,.42,.35,.68,0,.2,.01,.37,.02,.54,0,.3,.01,.53,.05,.73,.03,.21,.11,.45,.18,.69,.04,.13,.08,.26,.12,.39,.07,.26,.03,.54-.12,.76-.13,.19-.32,.33-.53,.39,.44,.6,.76,1.25,1.06,1.85,.79,1.62,1.29,2.46,3.05,2.49,.27,0,.53,.13,.71,.34,.18,.21,.25,.49,.2,.76-.08,.48-.17,.94-.25,1.39-.2,1.12-.4,2.17-.52,3.22-.03,.25,.08,.6,.16,.69,1.2,1.17,2.26,2.59,1.83,4.95-.07,.4-.39,.7-.79,.76-.4,.06-.79-.14-.97-.5l-.83-1.63-1.11,4.25,.82,.48c.28,.17,.46,.47,.47,.8,0,.33-.16,.64-.44,.81-.25,.16-.51,.28-.73,.39-.16,.08-.4,.2-.5,.27-.5,1.22-.97,2.49-1.42,3.71-.4,1.1-.82,2.23-1.26,3.34-.28,.71-.68,1.33-1.1,2l-.03,.04,.95,.41c.39,.17,.61,.57,.56,.99l-.14,1.08c1.09,.32,1.99,.9,2.87,1.47,1.04,.68,2.02,1.32,3.19,1.37,.59,.03,.89,.49,1.05,.73,.03,.04,.05,.08,.08,.12,.25,.29,1.09,.59,2.18,.6,1.05,0,2.03-.26,2.39-.65,.34-.37,.91-.41,1.3-.08,.38,.32,.9,.57,1.45,.82,1.19,.56,2.76,1.29,3.12,3.27,.81,.04,1.52,.35,2.12,.61,.91,.39,1.45,.59,2.08,.31,.14-.06,.28-.09,.4-.09Zm-16.26-3.77h0ZM20.91,25.77h0Z"/>
        <path class="c"
              d="M55.14,84.21c.39,0,.7,.24,.83,.35,.03,.02,.05,.04,.08,.06,.55,.29,1.21,.27,1.75-.06,.52-.32,.81-.87,.79-1.5-.08-2.38,.28-4.94,3.53-5.9,.26-.08,.6-.4,.92-.71,.17-.16,.33-.32,.5-.46,1.36-1.16,2.68-1.22,4.14-.19,.75,.53,1.72,.84,2.75,1.17,.22,.07,.44,.14,.66,.21,.51,.17,1.04,.29,1.6,.42,.62,.14,1.26,.29,1.89,.51,.69,.24,1.36,.52,2,.8,.99,.42,1.92,.82,2.88,1.04,1.21,.28,1.87-.41,2.94-1.65,.21-.24,.42-.48,.63-.72,.96-1.04,2.08-1.92,3.15-2.77,.59-.47,1.21-.96,1.78-1.46-.1-.03-.19-.06-.29-.1-.2-.08-.39-.16-.59-.25-1.01-.42-2.05-.85-2.96-1.54-.33-.26-.54-.69-.6-1.28-.07-.63,.01-1.56,.47-2.1,.41-.48,.61-.88,.56-1.12-.03-.15-.2-.47-1.04-.97-.72-.42-1.25-1.58-1.08-2.38,.18-.89,1.26-1.46,1.89-1.61,1.05-.25,1.18-.51,1.19-.52,0,0,.03-.22-.39-.79-.76-1.04-1.63-2.21-1.38-3.48,.1-.5,.35-.94,.76-1.33v-.02c-.34-.51-.62-.94-.85-1.43-.16-.34-.27-.76-.37-1.12-.01-.06-.03-.12-.05-.18-.77,0-.79,.16-.83,.6-.07,.84-.38,1.41-.91,1.72-.76,.43-1.63,.12-2.37-.25-.45-.22-.65-.76-.45-1.21,.18-.43,.35-.87,.52-1.29,.38-1,.78-2.03,1.39-2.95,.58-.87,1.31-1.61,2.02-2.33,.43-.44,.83-.85,1.21-1.28,.46-.54,.91-1.12,1.07-1.66,.28-.95,.73-2.55,2.98-2.21,.25-.08,.73-.5,.81-.71,.14-.43,.17-.96,.19-1.52,.03-.72,.06-1.46,.34-2.18,.23-.59,.36-1.25,.51-1.94,.35-1.69,.74-3.61,2.68-4.93,.07-.05,.11-.09,.13-.11-.04-.05-.15-.13-.37-.18-.4-.08-.81-.13-1.24-.19-1.02-.14-2.07-.28-3.03-.75-.28-.14-.69-.21-1.13-.29-1.11-.2-2.91-.53-3.27-2.68-.15-.05-.35-.11-.57-.15-.42-.09-.91-.13-1.44-.17-1.27-.1-2.57-.2-3.34-1.09-.34-.4-.88-.74-1.46-1.11-1.02-.64-2.29-1.46-2.63-2.9-.25,.13-.51,.23-.8,.28-.77,.13-1.67-.42-2.04-.73-.41-.34-.61-.71-.62-1.1-.01-.88-.28-1.14-1.6-1.57-.73-.24-1.43-.88-2.07-1.91-.42-.67-.73-1.4-1.03-2.1l-.05-.12c-.62,.15-1.16,.13-1.65-.08-1.01-.42-1.39-1.45-1.69-2.27-.05-.13-.09-.25-.14-.37-.18,0-.36,0-.54-.01-.84-.02-1.63-.05-2.37,.07-.16,.03-.51,.32-.58,.47-.19,.9-.29,1.86-.39,2.87-.05,.53-.11,1.09-.18,1.64-.05,.35-.19,1.01-.61,1.5-1.71,1.96-4.05,2.25-6.11,2.5-.2,.02-.4,.05-.6,.08-.92,.12-1,.26-.99,.9,.02,.97-.4,1.84-1.15,2.39-.84,.62-2.01,.76-3.11,.38-.29-.1-.57-.21-.86-.32-.52-.2-1.01-.39-1.5-.5l-.18-.04c-1.27-.28-3.16-.7-3.3-3.02-.06-.04-.12-.08-.18-.1-.42-.19-.87-.35-1.39-.54l1.03,8.73c.04,.32-.09,.64-.35,.84-.25,.2-.59,.26-.9,.15-.26-.09-.48-.18-.68-.26-.32-.13-.55-.22-.75-.25-.41-.07-.82-.16-1.22-.25-.94-.21-1.83-.42-2.52-.25-.83,.2-1.89,.36-2.72-.2-.57-.38-.9-1-1.04-1.89-.07-.48-.25-.73-.38-.8-.08-.04-.19-.03-.32,.04-1.75,.87-3.5,.72-5.05,.58-.81-.07-1.57-.14-2.32-.07-.09,0-.18,.01-.28,.02h-.09c-.13,.21-.32,.49-.4,.67,.23,.47,.6,.93,.99,1.42,.2,.25,.41,.51,.6,.77,.19,.25,.23,.58,.13,.87-.11,.29-.35,.52-.66,.59l-.62,.15,.79,1.09c2.53-.13,4.35,1.35,6.11,2.78,.11,.09,.23,.18,.34,.28l1.32-.13c.28-.03,.56,.07,.76,.28,.2,.2,.3,.48,.26,.76l-.03,.25,.59,.04c.28,.02,.53,.16,.7,.38,.16,.23,.22,.51,.15,.78-.29,1.15-.11,1.39-.11,1.4,.03,.02,.25,.09,.74,0,.26-.04,.53,.03,.74,.2,.21,.17,.33,.42,.35,.68,0,.2,.01,.37,.02,.54,0,.3,.01,.53,.05,.73,.03,.21,.11,.45,.18,.69,.04,.13,.08,.26,.12,.39,.07,.26,.03,.54-.12,.76-.13,.19-.32,.33-.53,.39,.44,.6,.76,1.25,1.06,1.85,.79,1.62,1.29,2.46,3.05,2.49,.27,0,.53,.13,.71,.34,.18,.21,.25,.49,.2,.76-.08,.48-.17,.94-.25,1.39-.2,1.12-.4,2.17-.52,3.22-.03,.25,.08,.6,.16,.69,1.2,1.17,2.26,2.59,1.83,4.95-.07,.4-.39,.7-.79,.76-.4,.06-.79-.14-.97-.5l-.83-1.63-1.11,4.25,.82,.48c.28,.17,.46,.47,.47,.8,0,.33-.16,.64-.44,.81-.25,.16-.51,.28-.73,.39-.16,.08-.4,.2-.5,.27-.5,1.22-.97,2.49-1.42,3.71-.4,1.1-.82,2.23-1.26,3.34-.28,.71-.68,1.33-1.1,2l-.03,.04,.95,.41c.39,.17,.61,.57,.56,.99l-.14,1.08c1.09,.32,1.99,.9,2.87,1.47,1.04,.68,2.02,1.32,3.19,1.37,.59,.03,.89,.49,1.05,.73,.03,.04,.05,.08,.08,.12,.25,.29,1.09,.59,2.18,.6,1.05,0,2.03-.26,2.39-.65,.34-.37,.91-.41,1.3-.08,.38,.32,.9,.57,1.45,.82,1.19,.56,2.76,1.29,3.12,3.27,.81,.04,1.52,.35,2.12,.61,.91,.39,1.45,.59,2.08,.31,.14-.06,.28-.09,.4-.09Z"/>
        <g>
            <path class="e"
                  d="M51.6,38.52c4.67,0,8.46,3.79,8.46,8.46s.39,5.07-8.46,13.92c-8.85-8.85-8.46-9.25-8.46-13.92s3.79-8.46,8.46-8.46"/>
            <path class="d"
                  d="M51.6,38.52c4.67,0,8.46,3.79,8.46,8.46s.39,5.07-8.46,13.92c-8.85-8.85-8.46-9.25-8.46-13.92s3.79-8.46,8.46-8.46m0,12.8c2.5,0,4.53-2.03,4.53-4.53s-2.03-4.53-4.53-4.53-4.53,2.03-4.53,4.53,2.03,4.53,4.53,4.53m0-14.98c-5.87,0-10.64,4.77-10.64,10.64v.56c-.02,5.05,.54,6.34,9.1,14.9,.43,.43,.99,.64,1.54,.64s1.12-.21,1.54-.64c8.56-8.56,9.12-9.85,9.1-14.9v-.56c0-5.87-4.78-10.64-10.64-10.64h0Zm0,12.8c-1.29,0-2.34-1.05-2.34-2.34s1.05-2.34,2.34-2.34,2.34,1.05,2.34,2.34-1.05,2.34-2.34,2.34h0Z"/>
        </g>
    </g>
    <rect class="d" x="108.07" y="57.39" width="166.87" height="15.31"/>
    <g>
        <path class="b"
              d="M113.95,61.05h1.76c.76,0,1.31,.11,1.76,.35,.78,.41,1.24,1.16,1.24,2.21,0,.92-.4,1.83-1.45,2.28-.42,.18-.95,.29-1.66,.29h-.4v2.78h-1.26v-7.9Zm1.74,4.09c.43,0,.76-.07,1-.2,.48-.23,.71-.7,.71-1.33,0-.56-.22-1.03-.66-1.3-.25-.14-.59-.23-1.05-.23h-.47v3.06h.48Z"/>
        <path class="b"
              d="M119.44,66.1c0-1.69,1.1-2.96,2.77-2.96s2.76,1.27,2.76,2.96-1.1,2.97-2.76,2.97-2.77-1.28-2.77-2.97Zm2.23-5.28h1.06l1.2,1.76h-1.01l-.72-1.03-.71,1.03h-1.01l1.19-1.76Zm2.02,5.28c0-1.13-.53-1.94-1.48-1.94s-1.49,.82-1.49,1.94,.54,1.96,1.49,1.96,1.48-.82,1.48-1.96Z"/>
        <path class="b"
              d="M126.12,60.47h1.25v6.94c0,.42,.14,.54,.42,.54,.08,0,.25-.04,.36-.07l.25,.97c-.3,.13-.67,.19-.97,.19-.88,0-1.31-.46-1.31-1.28v-7.29Z"/>
        <path class="b"
              d="M128.97,66.1c0-1.71,.95-2.96,2.48-2.96s2.43,1.15,2.43,2.99v.3h-3.65c.02,.97,.66,1.65,1.69,1.65,.56,0,1.02-.16,1.43-.38l.37,.85c-.55,.36-1.26,.53-1.93,.53-1.98,0-2.83-1.4-2.83-2.97Zm3.65-.56c-.02-.72-.37-1.43-1.18-1.43-.76,0-1.2,.66-1.21,1.43h2.39Z"/>
        <path class="b"
              d="M137.28,66.1c0-1.71,.95-2.96,2.48-2.96s2.43,1.15,2.43,2.99v.3h-3.65c.02,.97,.66,1.65,1.69,1.65,.56,0,1.02-.16,1.43-.38l.37,.85c-.55,.36-1.26,.53-1.93,.53-1.98,0-2.83-1.4-2.83-2.97Zm3.65-.56c-.02-.72-.37-1.43-1.18-1.43-.76,0-1.2,.66-1.21,1.43h2.39Z"/>
        <path class="b"
              d="M143.29,63.28h1.04l.13,.67c.58-.47,1.22-.82,1.93-.82s1.21,.31,1.49,.91c.68-.59,1.4-.91,2.06-.91,.97,0,1.81,.56,1.81,2.04v3.78h-1.25v-3.43c0-.72-.14-1.3-.9-1.3-.5,0-1.02,.29-1.48,.66,.01,.07,.01,.17,.01,.26v3.8h-1.25v-3.42c0-.72-.14-1.31-.89-1.31-.52,0-1.03,.29-1.47,.66v4.07h-1.25v-5.67Z"/>
        <path class="b"
              d="M153.11,63.5c.61-.22,1.32-.36,2.05-.36,1.96,0,3.02,1.13,3.02,2.96s-1.19,2.97-2.92,2.97c-.32,0-.64-.06-.91-.16v2.88h-1.25v-8.3Zm2.07,4.53c1.13,0,1.71-.77,1.71-1.94,0-1.31-.72-1.91-1.79-1.91-.28,0-.52,.04-.76,.11v3.56c.26,.12,.5,.18,.83,.18Z"/>
        <path class="b"
              d="M159.34,60.47h1.25v6.94c0,.42,.14,.54,.42,.54,.08,0,.25-.04,.36-.07l.25,.97c-.3,.13-.67,.19-.97,.19-.88,0-1.31-.46-1.31-1.28v-7.29Z"/>
        <path class="b"
              d="M162.18,66.1c0-1.69,1.1-2.96,2.77-2.96s2.76,1.27,2.76,2.96-1.1,2.97-2.76,2.97-2.77-1.28-2.77-2.97Zm4.25,0c0-1.13-.53-1.94-1.48-1.94s-1.49,.82-1.49,1.94,.54,1.96,1.49,1.96,1.48-.82,1.48-1.96Z"/>
        <path class="b"
              d="M168.72,61.47c0-.43,.32-.77,.78-.77s.78,.32,.78,.77-.34,.77-.78,.77-.78-.34-.78-.77Zm.16,1.81h1.25v5.67h-1.25v-5.67Z"/>
        <path class="b"
              d="M173.86,66.1c0-1.71,.95-2.96,2.48-2.96s2.43,1.15,2.43,2.99v.3h-3.65c.02,.97,.66,1.65,1.69,1.65,.56,0,1.02-.16,1.43-.38l.37,.85c-.55,.36-1.26,.53-1.93,.53-1.98,0-2.83-1.4-2.83-2.97Zm3.65-.56c-.02-.72-.37-1.43-1.18-1.43-.76,0-1.2,.66-1.21,1.43h2.39Z"/>
        <path class="b"
              d="M180.37,67.61v-3.35h-1v-.98h1v-1.31l1.25-.38v1.69h1.7l-.31,.98h-1.39v3.07c0,.52,.19,.72,.56,.72,.35,0,.66-.13,.89-.29l.4,.86c-.4,.28-1.02,.44-1.58,.44-.95,0-1.51-.54-1.51-1.46Z"/>
        <path class="b"
              d="M188.9,61.02h.94l3.13,7.94h-1.34l-.77-2.03h-2.94l-.76,2.03h-1.29l3.03-7.94Zm1.56,4.88l-.64-1.8c-.23-.65-.34-1.01-.42-1.27h-.02c-.08,.28-.2,.64-.43,1.27l-.66,1.8h2.17Z"/>
        <path class="b"
              d="M193.39,66.16c0-1.73,1.24-3.02,2.94-3.02,.67,0,1.18,.18,1.5,.37v1.07c-.4-.26-.83-.42-1.38-.42-1.1,0-1.78,.84-1.78,1.97,0,1.24,.67,1.93,1.7,1.93,.55,0,.95-.17,1.34-.38l.36,.86c-.43,.3-1.13,.54-1.87,.54-1.81,0-2.82-1.28-2.82-2.92Z"/>
        <path class="b"
              d="M199.39,67.61v-3.35h-1v-.98h1v-1.31l1.25-.38v1.69h1.7l-.31,.98h-1.39v3.07c0,.52,.19,.72,.56,.72,.35,0,.66-.13,.89-.29l.4,.86c-.4,.28-1.02,.44-1.58,.44-.95,0-1.51-.54-1.51-1.46Z"/>
        <path class="b"
              d="M203.22,61.47c0-.43,.32-.77,.78-.77s.78,.32,.78,.77-.34,.77-.78,.77-.78-.34-.78-.77Zm.16,1.81h1.25v5.67h-1.25v-5.67Z"/>
        <path class="b"
              d="M205.78,66.1c0-1.69,1.1-2.96,2.77-2.96s2.76,1.27,2.76,2.96-1.1,2.97-2.76,2.97-2.77-1.28-2.77-2.97Zm4.25,0c0-1.13-.53-1.94-1.48-1.94s-1.49,.82-1.49,1.94,.54,1.96,1.49,1.96,1.48-.82,1.48-1.96Z"/>
        <path class="b"
              d="M212.4,63.28h1.05l.13,.67c.6-.49,1.25-.82,1.96-.82,.9,0,1.78,.48,1.78,2.04v3.78h-1.25v-3.38c0-.74-.17-1.34-.92-1.34-.53,0-1.04,.3-1.5,.68v4.04h-1.25v-5.67Z"/>
        <path class="b" d="M221.52,61.05h1.26v6.87h2.84v1.03h-4.1v-7.9Z"/>
        <path class="b"
              d="M226.24,66.1c0-1.69,1.1-2.96,2.77-2.96s2.76,1.27,2.76,2.96-1.1,2.97-2.76,2.97-2.77-1.28-2.77-2.97Zm4.25,0c0-1.13-.53-1.94-1.48-1.94s-1.49,.82-1.49,1.94,.54,1.96,1.49,1.96,1.48-.82,1.48-1.96Z"/>
        <path class="b"
              d="M232.34,70.14c0-.61,.4-1.12,1.03-1.4-.24-.13-.38-.41-.38-.7,0-.32,.18-.73,.66-1.09-.59-.35-.92-.98-.92-1.74,0-1.08,.79-2.07,2.23-2.07,.5,0,.88,.12,1.12,.24,.06,.04,.08,.02,.13-.01,.3-.3,.67-.49,1.31-.49,.13,0,.29,.02,.36,.04l-.25,.91c-.13-.02-.28-.05-.4-.05-.14,0-.32,.04-.46,.12,.36,.37,.54,.86,.54,1.38,0,1.26-.94,2.09-2.29,2.09-.26,0-.52-.04-.71-.11-.16,.2-.2,.35-.2,.49,0,1.05,3.73,.1,3.73,2.22,0,1.04-1.03,1.83-2.9,1.83-1.62,0-2.59-.66-2.59-1.66Zm4.28-.05c0-.89-1.73-.71-2.59-1.02-.22,.14-.56,.42-.56,.85,0,.6,.64,.97,1.61,.97s1.55-.35,1.55-.8Zm-.52-4.85c0-.62-.43-1.14-1.12-1.14-.62,0-1.07,.41-1.07,1.13,0,.65,.4,1.15,1.09,1.15,.61,0,1.09-.4,1.09-1.14Z"/>
        <path class="b"
              d="M238.45,66.1c0-1.71,.95-2.96,2.48-2.96s2.43,1.15,2.43,2.99v.3h-3.65c.02,.97,.66,1.65,1.69,1.65,.56,0,1.02-.16,1.43-.38l.37,.85c-.55,.36-1.26,.53-1.93,.53-1.98,0-2.83-1.4-2.83-2.97Zm3.65-.56c-.02-.72-.37-1.43-1.18-1.43-.76,0-1.2,.66-1.21,1.43h2.39Z"/>
        <path class="b"
              d="M244.46,63.28h1.04l.13,.67c.58-.47,1.22-.82,1.93-.82s1.21,.31,1.49,.91c.68-.59,1.4-.91,2.06-.91,.97,0,1.81,.56,1.81,2.04v3.78h-1.25v-3.43c0-.72-.14-1.3-.9-1.3-.5,0-1.02,.29-1.48,.66,.01,.07,.01,.17,.01,.26v3.8h-1.25v-3.42c0-.72-.14-1.31-.89-1.31-.52,0-1.03,.29-1.47,.66v4.07h-1.25v-5.67Z"/>
        <path class="b"
              d="M254,66.1c0-1.71,.95-2.96,2.48-2.96s2.43,1.15,2.43,2.99v.3h-3.65c.02,.97,.66,1.65,1.69,1.65,.56,0,1.02-.16,1.43-.38l.37,.85c-.55,.36-1.26,.53-1.93,.53-1.98,0-2.83-1.4-2.83-2.97Zm3.65-.56c-.02-.72-.37-1.43-1.18-1.43-.76,0-1.2,.66-1.21,1.43h2.39Z"/>
        <path class="b"
              d="M260.02,63.28h1.05l.13,.67c.6-.49,1.25-.82,1.96-.82,.9,0,1.78,.48,1.78,2.04v3.78h-1.25v-3.38c0-.74-.17-1.34-.92-1.34-.53,0-1.04,.3-1.5,.68v4.04h-1.25v-5.67Z"/>
        <path class="b"
              d="M266.78,67.61v-3.35h-1v-.98h1v-1.31l1.25-.38v1.69h1.7l-.31,.98h-1.39v3.07c0,.52,.19,.72,.56,.72,.35,0,.66-.13,.89-.29l.4,.86c-.4,.28-1.02,.44-1.58,.44-.95,0-1.51-.54-1.51-1.46Z"/>
    </g>
</svg>
