<svg width="27" height="26" viewBox="0 0 27 26" fill="none" xmlns="http://www.w3.org/2000/svg">
<path d="M16.0312 9.80625C15.7173 9.80625 15.4625 10.061 15.4625 10.375C15.4625 10.689 15.7173 10.9438 16.0312 10.9438C16.3452 10.9438 16.6 10.689 16.6 10.375C16.6 10.061 16.3452 9.80625 16.0312 9.80625Z"   stroke-width="0.2"/>
<path d="M18.8221 15.5293L25.0214 21.7286C25.0214 21.7286 25.0214 21.7286 25.0214 21.7286C25.3943 22.1013 25.6 22.5975 25.6 23.125C25.6 23.6525 25.3943 24.1487 25.0212 24.5215C25.0212 24.5215 25.0212 24.5215 25.0212 24.5216L18.8221 15.5293ZM18.8221 15.5293C19.8231 13.9933 20.35 12.2213 20.35 10.375C20.35 5.1504 16.0996 0.9 10.875 0.9C5.6504 0.9 1.4 5.1504 1.4 10.375C1.4 15.5996 5.6504 19.85 10.875 19.85C12.7213 19.85 14.4933 19.3231 16.0293 18.3222L17.7012 19.994L17.7014 19.9942L17.7019 19.9948L22.2286 24.5214L22.2993 24.4507L18.8221 15.5293ZM15.7633 17.125L15.7631 17.1251C15.763 17.1253 15.7628 17.1254 15.7626 17.1255C15.7624 17.1257 15.7622 17.1258 15.762 17.126C15.7563 17.1301 15.7506 17.1342 15.7449 17.1384C14.319 18.1683 12.6358 18.7125 10.875 18.7125C6.27779 18.7125 2.5375 14.9722 2.5375 10.375C2.5375 5.77779 6.27779 2.0375 10.875 2.0375C15.4722 2.0375 19.2125 5.77779 19.2125 10.375C19.2125 12.1434 18.6637 13.8333 17.6251 15.2632L17.6251 15.2632C17.1055 15.9791 16.4791 16.6055 15.7633 17.125ZM24.2171 23.717L24.2171 23.7171C24.0586 23.8755 23.8487 23.9625 23.625 23.9625C23.4013 23.9625 23.1914 23.8755 23.0329 23.7171L18.9467 19.6308C19.3674 19.2633 19.7632 18.8675 20.1307 18.4467L24.2171 22.5331L24.2172 22.5332C24.3755 22.6913 24.4625 22.9011 24.4625 23.125C24.4625 23.3489 24.3755 23.5587 24.2171 23.717ZM16.9538 17.6379C17.3828 17.2786 17.7786 16.8828 18.1379 16.4538L19.3247 17.6407C18.9601 18.064 18.564 18.4601 18.1407 18.8247L16.9538 17.6379Z"   stroke-width="0.2"/>
<path d="M10.875 2.775C6.68422 2.775 3.275 6.18422 3.275 10.375C3.275 14.5658 6.68422 17.975 10.875 17.975C15.0658 17.975 18.475 14.5658 18.475 10.375C18.475 6.18422 15.0658 2.775 10.875 2.775ZM10.875 16.8375C7.31167 16.8375 4.4125 13.9383 4.4125 10.375C4.4125 6.81167 7.31167 3.9125 10.875 3.9125C14.4383 3.9125 17.3375 6.81167 17.3375 10.375C17.3375 13.9383 14.4383 16.8375 10.875 16.8375Z"   stroke-width="0.2"/>
<path d="M15.1596 8.73494L15.1596 8.73495C15.2466 8.96122 15.4622 9.09983 15.6906 9.09983C15.7586 9.09983 15.8276 9.08756 15.8945 9.06186L15.8945 9.06186C16.1877 8.94919 16.3341 8.62018 16.2214 8.32693C15.8106 7.25769 15.0952 6.34348 14.1529 5.68341C13.188 5.0074 12.0543 4.65 10.875 4.65C10.5609 4.65 10.3062 4.90468 10.3062 5.21875C10.3062 5.53282 10.5609 5.7875 10.875 5.7875C12.76 5.7875 14.4823 6.97213 15.1596 8.73494Z"   stroke-width="0.2"/>
</svg>
