<svg width="36" height="36" viewBox="0 0 36 36" fill="none" xmlns="http://www.w3.org/2000/svg">
<path d="M34.6779 31.698C35.5019 32.5214 35.5019 33.8573 34.6779 34.6807C34.2658 35.0927 33.7265 35.2987 33.1865 35.2987C32.6465 35.2987 32.1072 35.0927 31.6952 34.6807L24.9051 27.8906C26.0139 27.0187 27.0159 26.0168 27.8878 24.908L34.6779 31.698Z" fill="#4DBBEB"/>
<path d="M24.8786 21.8959L27.8887 24.906C27.0168 26.0148 26.0149 27.0168 24.906 27.8887L21.896 24.8786V24.8779C23.0399 24.0475 24.0475 23.0399 24.8779 21.8959H24.8786Z" fill="#FFF5CD"/>
<path d="M27.4219 14.0625C27.4219 16.9861 26.4776 19.6938 24.878 21.896C24.0476 23.04 23.04 24.0476 21.896 24.878C19.6938 26.4776 16.9861 27.4219 14.0625 27.4219C6.69586 27.4219 0.703125 21.4291 0.703125 14.0625C0.703125 6.69586 6.69586 0.703125 14.0625 0.703125C21.4291 0.703125 27.4219 6.69586 27.4219 14.0625Z" fill="#4DBBEB"/>
<path d="M14.0625 3.51562C19.878 3.51562 24.6094 8.24695 24.6094 14.0625C24.6094 19.878 19.878 24.6094 14.0625 24.6094C8.24695 24.6094 3.51562 19.878 3.51562 14.0625C3.51562 8.24695 8.24695 3.51562 14.0625 3.51562Z" fill="#BEE7F4"/>
<path d="M35.176 31.199L25.7907 21.8137C27.3196 19.5107 28.125 16.8437 28.125 14.0625C28.125 6.30844 21.8166 0 14.0625 0C6.30844 0 0 6.30844 0 14.0625C0 21.8166 6.30844 28.125 14.0625 28.125C16.8438 28.125 19.5107 27.3196 21.8137 25.7908L24.4079 28.3849C24.4082 28.3853 24.4086 28.3856 24.409 28.3861L31.1989 35.176C31.7303 35.7074 32.4365 36 33.1875 36C33.9385 36 34.6447 35.7074 35.1758 35.1762C35.7073 34.6451 36 33.9389 36 33.1875C36 32.4361 35.7073 31.7299 35.176 31.199ZM22.9582 24.9464C23.6859 24.351 24.3511 23.6858 24.9464 22.9582L26.9412 24.953C26.3346 25.669 25.669 26.3346 24.953 26.9412L22.9582 24.9464ZM1.40625 14.0625C1.40625 7.08384 7.08384 1.40625 14.0625 1.40625C21.0412 1.40625 26.7188 7.08384 26.7188 14.0625C26.7188 16.7467 25.8855 19.3125 24.309 21.4829C23.5203 22.5695 22.5695 23.5203 21.483 24.3089C21.483 24.309 21.4829 24.309 21.4829 24.3091C19.3125 25.8855 16.7467 26.7188 14.0625 26.7188C7.08384 26.7188 1.40625 21.0412 1.40625 14.0625ZM34.1816 34.1816C33.9159 34.4474 33.5628 34.5938 33.1875 34.5938C32.8122 34.5938 32.4591 34.4474 32.1934 34.1816L25.95 27.9382C26.662 27.3272 27.3272 26.6621 27.9382 25.95L34.1818 32.1936C34.4474 32.459 34.5938 32.8119 34.5938 33.1875C34.5938 33.5631 34.4474 33.916 34.1816 34.1816Z" fill="black"/>
<path d="M25.3125 14.0625C25.3125 7.85918 20.2658 2.8125 14.0625 2.8125C7.85918 2.8125 2.8125 7.85918 2.8125 14.0625C2.8125 20.2658 7.85918 25.3125 14.0625 25.3125C20.2658 25.3125 25.3125 20.2658 25.3125 14.0625ZM14.0625 23.9062C8.63466 23.9062 4.21875 19.4903 4.21875 14.0625C4.21875 8.63466 8.63466 4.21875 14.0625 4.21875C19.4903 4.21875 23.9062 8.63466 23.9062 14.0625C23.9062 19.4903 19.4903 23.9062 14.0625 23.9062Z" fill="black"/>
<path d="M21.5379 11.9528C21.9004 11.8135 22.0814 11.4067 21.9421 11.0442C21.3366 9.46835 20.2824 8.12102 18.8933 7.14797C17.4712 6.15164 15.8007 5.625 14.0625 5.625C13.6742 5.625 13.3594 5.93986 13.3594 6.32812C13.3594 6.71639 13.6742 7.03125 14.0625 7.03125C16.9523 7.03125 19.5913 8.84658 20.6294 11.5486C20.7369 11.8282 21.0033 11.9997 21.2859 11.9997C21.3697 11.9997 21.455 11.9846 21.5379 11.9528Z" fill="black"/>
<path d="M21.7969 13.3594C21.4087 13.3594 21.0938 13.6744 21.0938 14.0625C21.0938 14.4506 21.4087 14.7656 21.7969 14.7656C22.185 14.7656 22.5 14.4506 22.5 14.0625C22.5 13.6744 22.185 13.3594 21.7969 13.3594Z" fill="black"/>
</svg>
