<svg width="44" height="44" viewBox="0 0 44 44" fill="none" xmlns="http://www.w3.org/2000/svg">
<rect x="0.5" y="0.5" width="43" height="43" rx="21.5" fill="white"/>
<path d="M24.1835 17.4915C24.1835 15.0701 22.2135 13.1001 19.7921 13.1001C17.3707 13.1001 15.4006 15.0701 15.4006 17.4915C15.4006 19.9132 17.3707 21.8832 19.7921 21.8832C22.2135 21.8832 24.1835 19.9132 24.1835 17.4915ZM19.7921 20.2422C18.2754 20.2422 17.0415 19.0083 17.0415 17.4915C17.0415 15.9748 18.2754 14.7409 19.7921 14.7409C21.3086 14.7409 22.5427 15.9748 22.5427 17.4915C22.5427 19.0083 21.3088 20.2422 19.7921 20.2422Z" fill="#37B4B4"/>
<path d="M27.6573 23.2317L28.2433 22.1722L28.2472 22.1649C29 20.7716 29.3977 19.1947 29.3977 17.6049C29.3977 12.3088 25.089 8 19.7928 8C14.4965 8 10.1879 12.3088 10.1879 17.6049C10.1879 19.1951 10.5868 20.7734 11.3413 22.1694L18.5942 35.2873C18.8349 35.7233 19.2942 35.9942 19.7928 35.9942C20.2914 35.9942 20.7507 35.7233 20.9913 35.2877L22.1369 33.2158C23.2888 34.8955 25.2216 35.9999 27.4076 35.9999C30.9294 35.9999 33.7945 33.1348 33.7945 29.6133C33.7945 26.175 31.0638 23.3633 27.6573 23.2317ZM21.2722 31.3883L19.7928 34.0639L12.783 21.3862C12.1588 20.2297 11.8288 18.9223 11.8288 17.6049C11.8288 13.2135 15.4014 9.64084 19.7928 9.64084C24.1841 9.64084 27.7567 13.2135 27.7567 17.6049C27.7567 18.9221 27.4277 20.228 26.8052 21.3817L25.6491 23.4727C22.9799 24.2383 21.0209 26.7012 21.0209 29.6131C21.0209 30.2289 21.1087 30.8245 21.2722 31.3883ZM27.4076 34.3591C24.791 34.3591 22.6618 32.2301 22.6618 29.6133C22.6618 26.9962 24.791 24.8672 27.4076 24.8672C30.0247 24.8672 32.1537 26.9962 32.1537 29.6133C32.1537 32.2301 30.0247 34.3591 27.4076 34.3591Z" fill="#37B4B4"/>
<path d="M28.9126 27.643L26.7125 29.8429L25.9024 29.0331C25.5822 28.7127 25.0627 28.7127 24.7422 29.0331C24.4218 29.3535 24.4218 29.8728 24.7422 30.1933L26.1323 31.5835C26.2925 31.7438 26.5025 31.8239 26.7125 31.8239C26.8802 31.8239 27.0476 31.7717 27.1899 31.6694C27.2258 31.6438 27.2604 31.6156 27.2924 31.5835C27.2927 31.5833 27.2927 31.5833 27.2927 31.5833L30.0728 28.8032C30.3932 28.4828 30.3932 27.9635 30.0728 27.643C29.7523 27.3224 29.2328 27.3224 28.9126 27.643Z" fill="#37B4B4"/>
<rect x="0.5" y="0.5" width="43" height="43" rx="21.5" stroke="#37B4B4"/>
</svg>
