<svg width="44" height="44" viewBox="0 0 44 44" fill="none" xmlns="http://www.w3.org/2000/svg">
<rect x="0.5" y="0.5" width="43" height="43" rx="21.5" fill="white"/>
<path d="M24.2299 21.1647C24.5245 21.2788 24.856 21.1324 24.9701 20.8376C25.0842 20.5428 24.9379 20.2115 24.6431 20.0974C23.4473 19.6356 22.1137 19.69 20.9596 20.248C19.8056 20.806 18.9347 21.8175 18.554 23.0415H17.699C17.382 23.0415 17.1251 23.2984 17.1251 23.6153C17.1251 23.9321 17.382 24.1892 17.699 24.1892H18.3476C18.3359 24.4188 18.3417 24.649 18.3646 24.8779H17.699C17.382 24.8779 17.1251 25.1348 17.1251 25.4518C17.1251 25.7685 17.382 26.0257 17.699 26.0257H18.6287C19.2983 27.8457 21.0336 29.0538 22.973 29.05C23.5419 29.0489 24.1059 28.944 24.6372 28.74C24.932 28.6259 25.0784 28.2945 24.9643 27.9998C24.8502 27.705 24.5189 27.5586 24.2241 27.6727C22.9378 28.1652 21.4822 27.8574 20.5052 26.8865C20.2539 26.6354 20.043 26.3469 19.8798 26.0313H23.3231C23.6401 26.0313 23.897 25.7744 23.897 25.4574C23.897 25.1404 23.6401 24.8835 23.3231 24.8835H19.524C19.4933 24.6553 19.4857 24.4246 19.5009 24.1948H23.7248C24.0418 24.1948 24.2987 23.9379 24.2987 23.6209C24.2987 23.304 24.0418 23.0471 23.7248 23.0471H19.7765C19.9486 22.6413 20.1981 22.2728 20.5111 21.9625C21.48 20.9775 22.9423 20.6639 24.2299 21.1647Z" fill="#37B4B4"/>
<path d="M33.0504 16.8493C33.4981 16.4005 33.4981 15.6742 33.0504 15.2252L32.1781 14.3529C31.7291 13.9052 31.0028 13.9052 30.554 14.3529L29.4865 15.426C27.843 14.0447 25.8483 13.1466 23.7247 12.8321V11.5581H24.3329C24.9758 11.5494 25.495 11.0302 25.5038 10.3875V9.1536C25.5038 8.52233 24.9642 8 24.3329 8H19.673C19.0417 8 18.5023 8.52233 18.5023 9.1536V10.3875C18.5131 11.0295 19.0309 11.5473 19.673 11.5581H20.2814V12.8321C14.6573 13.6586 10.3473 18.5136 10.3473 24.3558C10.3473 30.7775 15.5755 35.9999 21.9972 35.9999C28.4192 35.9999 33.6472 30.7775 33.6472 24.3558C33.6519 22.1336 33.0141 19.9573 31.8107 18.089L33.0504 16.8493ZM31.363 15.1678L32.2355 16.0403L31.1393 17.1363C30.8811 16.815 30.6114 16.505 30.3186 16.2066L31.363 15.1678ZM19.6501 10.4103V9.14778H24.356V10.4103H19.6501ZM21.4292 11.5581H22.577V12.7231C22.3474 12.7117 22.1867 12.7117 22.0031 12.7117C21.8195 12.7117 21.6587 12.7173 21.4292 12.7231V11.5581ZM22.0031 34.8521C16.2124 34.8521 11.5065 30.1406 11.5065 24.3558C11.5065 18.571 16.2124 13.8537 22.0031 13.8537C27.7935 13.8537 32.4994 18.5654 32.4994 24.3558C32.4994 30.1463 27.7935 34.8521 22.0031 34.8521Z" fill="#37B4B4"/>
<path d="M22.0038 15.0012H21.8946C16.856 15.0585 12.7642 19.1217 12.655 24.1488C12.614 24.2289 12.5925 24.3174 12.592 24.4071C12.5909 24.5015 12.6146 24.5945 12.6608 24.677C12.833 29.6353 16.8847 33.6297 21.8659 33.6985C21.8926 33.7032 21.9195 33.7052 21.9464 33.7041C21.9695 33.7052 21.9926 33.7032 22.0152 33.6985C27.1688 33.6985 31.3581 29.5091 31.3581 24.3555C31.3581 19.1964 27.1629 15.0012 22.0038 15.0012ZM22.5203 32.5393V31.4717C22.5203 31.1548 22.2634 30.8979 21.9464 30.8979C21.6294 30.8979 21.3725 31.1548 21.3725 31.4717V32.5334C17.3494 32.2236 14.1301 29.0099 13.8259 24.9868H14.8302C15.1471 24.9868 15.4041 24.7299 15.4041 24.4129C15.4041 24.0959 15.1471 23.839 14.8302 23.839H13.8144C14.0756 19.759 17.2965 16.4915 21.3725 16.1718V17.2393C21.3725 17.5563 21.6294 17.8132 21.9464 17.8132C22.2634 17.8132 22.5203 17.5563 22.5203 17.2393V16.1662C26.6426 16.4321 29.9272 19.7167 30.1931 23.839H29.0626C28.7456 23.839 28.4887 24.0959 28.4887 24.4129C28.4887 24.7299 28.7456 24.9868 29.0626 24.9868H30.1817C29.8716 29.0442 26.5949 32.2866 22.5203 32.5393Z" fill="#37B4B4"/>
<rect x="0.5" y="0.5" width="43" height="43" rx="21.5" stroke="#37B4B4"/>
</svg>
