<svg width="24" height="24" viewBox="0 0 24 24" fill="none" xmlns="http://www.w3.org/2000/svg">
<g clip-path="url(#clip0)">
<path d="M19.5937 16.3553C21.7683 16.3553 23.5312 14.5924 23.5312 12.4178C23.5312 10.2432 21.7683 8.48034 19.5937 8.48034C19.0435 8.48034 18.5199 8.59354 18.0443 8.79735C17.7843 5.14018 14.7353 2.25391 11.0119 2.25391C7.11794 2.25391 3.9612 5.41064 3.9612 9.30463C3.9612 9.70006 3.9943 10.0877 4.05688 10.4654C3.85944 10.4241 3.65492 10.4022 3.4453 10.4022C1.8014 10.4022 0.46875 11.7349 0.46875 13.3788C0.46875 15.0227 1.8014 16.3553 3.4453 16.3553H19.5937Z" fill="#AAE6FF"/>
<path d="M18.0438 8.79723C18.5194 8.59342 19.043 8.48021 19.5933 8.48021C20.2682 8.48021 20.9032 8.65027 21.4584 8.94948C21.7049 8.4729 21.8449 7.93239 21.8449 7.35887C21.8449 5.44315 20.2919 3.89014 18.3762 3.89014C17.5827 3.89014 16.852 4.15714 16.2676 4.60535C17.2778 5.73475 17.9296 7.19162 18.0438 8.79723Z" fill="#E6AA46"/>
<path d="M22.0542 8.7647C22.2249 8.31751 22.3142 7.83906 22.3142 7.35948C22.3142 5.18833 20.5479 3.422 18.3767 3.422C17.6464 3.422 16.9483 3.61901 16.3341 3.99387C16.2729 3.93251 16.2107 3.87181 16.1471 3.81232C14.7499 2.50541 12.9262 1.78564 11.0119 1.78564C6.86566 1.78564 3.49246 5.15885 3.49246 9.30512C3.49246 9.5146 3.50127 9.72497 3.51885 9.93474C3.49433 9.93422 3.46981 9.93394 3.4453 9.93394C1.54556 9.93394 0 11.4795 0 13.3792C0 15.279 1.54556 16.8245 3.4453 16.8245H10.3951C10.6539 16.8245 10.8638 16.6147 10.8638 16.3558C10.8638 16.0969 10.6539 15.887 10.3951 15.887H3.4453C2.06249 15.887 0.937496 14.762 0.937496 13.3792C0.937496 11.9964 2.06249 10.8714 3.4453 10.8714C3.61677 10.8714 3.7887 10.8892 3.95647 10.9238C5.1146 11.1634 5.9531 12.1924 5.9531 13.3792C5.9531 13.6381 6.16296 13.8479 6.42185 13.8479C6.68074 13.8479 6.8906 13.6381 6.8906 13.3792C6.8906 11.8642 5.89531 10.5367 4.47725 10.092C4.44598 9.83058 4.43 9.567 4.43 9.30507C4.43 5.67574 7.38264 2.72309 11.012 2.72309C14.4496 2.72309 17.3333 5.40602 17.5768 8.83107C17.5875 8.98238 17.6708 9.11912 17.8003 9.1981C17.9299 9.27704 18.0896 9.28843 18.229 9.22871C18.6612 9.04351 19.1204 8.94957 19.5938 8.94957C21.5064 8.94957 23.0625 10.5056 23.0625 12.4183C23.0625 14.331 21.5064 15.887 19.5938 15.887H14.6718C14.4129 15.887 14.2031 16.0969 14.2031 16.3558C14.2031 16.6147 14.4129 16.8245 14.6718 16.8245H19.5938C22.0234 16.8245 24 14.8479 24 12.4183C24 10.8992 23.2273 9.55721 22.0542 8.7647ZM18.4449 8.16348C18.2527 6.90142 17.7433 5.71713 16.9656 4.71152C17.3971 4.4801 17.8771 4.35949 18.3768 4.35949C20.031 4.35949 21.3767 5.70527 21.3767 7.35948C21.3767 7.69182 21.3224 8.01385 21.2173 8.3221C20.7146 8.12218 20.1669 8.01212 19.5938 8.01212C19.2018 8.01207 18.8174 8.06284 18.4449 8.16348Z" fill="black"/>
<path d="M12.5781 15.8867C12.4548 15.8867 12.3339 15.9364 12.2467 16.0241C12.1595 16.1113 12.1094 16.2322 12.1094 16.3555C12.1094 16.4787 12.1595 16.5992 12.2467 16.6869C12.3339 16.7741 12.4548 16.8242 12.5781 16.8242C12.7019 16.8242 12.8223 16.7741 12.91 16.6869C12.9972 16.5997 13.0469 16.4787 13.0469 16.3555C13.0469 16.2317 12.9972 16.1113 12.91 16.0241C12.8223 15.9364 12.7014 15.8867 12.5781 15.8867Z" fill="black"/>
<path d="M22.0645 4.13942C22.1844 4.13942 22.3044 4.09367 22.3959 4.00212L23.8376 2.56049C24.0206 2.37744 24.0206 2.08063 23.8376 1.89754C23.6545 1.71449 23.3577 1.71449 23.1746 1.89754L21.733 3.33917C21.5499 3.52222 21.5499 3.81903 21.733 4.00212C21.8245 4.09367 21.9445 4.13942 22.0645 4.13942Z" fill="black"/>
<path d="M18.377 2.69777C18.6358 2.69777 18.8457 2.48792 18.8457 2.22903V1.21484C18.8457 0.955952 18.6358 0.746094 18.377 0.746094C18.1181 0.746094 17.9082 0.955952 17.9082 1.21484V2.22903C17.9082 2.48792 18.1181 2.69777 18.377 2.69777Z" fill="black"/>
<path d="M23.5304 6.89014H23.3027C23.0438 6.89014 22.834 7.1 22.834 7.35889C22.834 7.61777 23.0438 7.82763 23.3027 7.82763H23.5304C23.7892 7.82763 23.9991 7.61777 23.9991 7.35889C23.9991 7.1 23.7892 6.89014 23.5304 6.89014Z" fill="black"/>
<path d="M3.93123 17.3892C3.74818 17.2062 3.45137 17.2062 3.26833 17.3892L1.83457 18.823C1.65152 19.006 1.65147 19.3028 1.83457 19.4859C1.92611 19.5774 2.04607 19.6232 2.16602 19.6232C2.28597 19.6232 2.40597 19.5774 2.49747 19.4859L3.93123 18.0521C4.11427 17.869 4.11427 17.5723 3.93123 17.3892Z" fill="black"/>
<path d="M10.0081 17.3892C9.82508 17.2062 9.52827 17.2062 9.34522 17.3892L7.92051 18.8139C7.73746 18.997 7.73741 19.2938 7.92051 19.4768C8.01205 19.5684 8.132 19.6141 8.25196 19.6141C8.37191 19.6141 8.49191 19.5683 8.58341 19.4768L10.0081 18.0521C10.1912 17.869 10.1912 17.5723 10.0081 17.3892Z" fill="black"/>
<path d="M16.0883 17.3892C15.9052 17.2062 15.6084 17.2062 15.4254 17.3892L14.0162 18.7983C13.8332 18.9814 13.8331 19.2782 14.0162 19.4613C14.1078 19.5528 14.2277 19.5985 14.3477 19.5985C14.4676 19.5985 14.5876 19.5528 14.6791 19.4613L16.0883 18.0521C16.2713 17.869 16.2713 17.5723 16.0883 17.3892Z" fill="black"/>
<path d="M5.04182 20.3423L2.93025 22.4539C2.74721 22.6369 2.74721 22.9338 2.93025 23.1168C3.0218 23.2084 3.14175 23.2541 3.26171 23.2541C3.38166 23.2541 3.50166 23.2084 3.59316 23.1168L5.70468 21.0053C5.88773 20.8223 5.88773 20.5255 5.70468 20.3424C5.52168 20.1593 5.22487 20.1593 5.04182 20.3423Z" fill="black"/>
<path d="M11.1199 20.3418L9.00838 22.4534C8.82533 22.6364 8.82533 22.9332 9.00838 23.1163C9.09992 23.2079 9.21988 23.2536 9.33983 23.2536C9.45978 23.2536 9.57978 23.2079 9.67128 23.1163L11.7828 21.0048C11.9659 20.8217 11.9659 20.5249 11.7828 20.3418C11.5998 20.1588 11.303 20.1588 11.1199 20.3418Z" fill="black"/>
<path d="M17.1961 20.3418L15.0846 22.4533C14.9015 22.6364 14.9015 22.9332 15.0846 23.1162C15.1761 23.2078 15.2961 23.2535 15.416 23.2535C15.536 23.2535 15.656 23.2077 15.7475 23.1162L17.859 21.0047C18.0421 20.8217 18.0421 20.5249 17.859 20.3418C17.676 20.1588 17.3792 20.1589 17.1961 20.3418Z" fill="black"/>
<path d="M21.5032 17.3887L20.11 18.782C19.9269 18.965 19.9269 19.2618 20.11 19.4449C20.2015 19.5364 20.3215 19.5822 20.4414 19.5822C20.5614 19.5822 20.6814 19.5364 20.7729 19.4449L22.1661 18.0516C22.3492 17.8686 22.3492 17.5718 22.1661 17.3887C21.983 17.2057 21.6863 17.2057 21.5032 17.3887Z" fill="black"/>
<path d="M11.4914 4.38625C11.493 4.12736 11.2845 3.91619 11.0256 3.91455H11.0117C10.7528 3.91455 10.543 4.12441 10.543 4.3833C10.543 4.64219 10.7528 4.85205 11.0117 4.85205H11.0197C11.0207 4.85205 11.0217 4.85205 11.0227 4.85205C11.2802 4.85209 11.4898 4.64411 11.4914 4.38625Z" fill="black"/>
<path d="M15.2873 8.8305C15.3049 9.07744 15.5106 9.26606 15.7543 9.26606C15.7655 9.26606 15.7768 9.26569 15.7881 9.26484C16.0463 9.24647 16.2408 9.02226 16.2224 8.76403C16.084 6.81737 14.8842 5.12416 13.0912 4.3451C12.8539 4.24192 12.5777 4.35082 12.4745 4.58824C12.3713 4.82566 12.4802 5.1018 12.7176 5.20497C14.1891 5.84429 15.1737 7.23352 15.2873 8.8305Z" fill="black"/>
</g>
<defs>
<clipPath id="clip0">
<rect width="24" height="24" fill="white"/>
</clipPath>
</defs>
</svg>
