<svg width="200" height="157" viewBox="0 0 200 157" fill="none" xmlns="http://www.w3.org/2000/svg">
  <g clip-path="url(#clip0)">
    <path opacity="0.1" d="M70.1567 153.462C89.4243 153.462 105.044 150.503 105.044 146.853C105.044 143.203 89.4243 140.244 70.1567 140.244C50.889 140.244 35.2695 143.203 35.2695 146.853C35.2695 150.503 50.889 153.462 70.1567 153.462Z" fill="#191970" />
    <path opacity="0.1" d="M116.201 22.0693C103.38 21.6255 91.1681 17.485 79.5073 12.9562C67.8466 8.42742 56.2968 3.41128 43.7822 1.01216C35.7329 -0.531114 26.5268 -0.751016 20.0426 3.55986C13.8002 7.72017 11.7834 14.8818 10.6998 21.5324C9.88355 26.5367 9.40412 31.8044 11.6388 36.4897C13.192 39.7427 15.9457 42.4766 17.8515 45.5929C24.4823 56.4334 19.795 69.8019 12.6115 80.3869C9.24365 85.3516 5.33098 90.0943 2.72979 95.374C0.128609 100.654 -1.07392 106.724 1.20237 112.124C3.45686 117.473 8.83158 121.483 14.654 124.306C26.4792 130.041 40.4083 131.682 54.0007 132.613C84.0797 134.669 114.317 133.78 144.476 132.886C155.637 132.557 166.846 132.222 177.825 130.497C183.923 129.538 190.217 128.017 194.645 124.344C200.263 119.682 201.656 111.789 197.89 105.945C191.574 96.1387 174.117 93.7039 169.697 83.1823C167.268 77.3895 169.762 70.9391 173.295 65.5683C180.87 54.0442 193.567 43.9347 194.235 30.7643C194.694 21.7186 188.591 12.6591 179.153 8.3779C169.261 3.8907 155.542 4.45532 148.248 11.8825C140.729 19.5216 127.523 22.4635 116.201 22.0693Z" fill="#191970" />
    <path d="M106.012 71.6641L99.9442 67.5731L103.005 63.0166L86.9779 61.7388L81.2189 66.1923L74.0097 62.1509L67.997 62.874L67.9257 61.2891C67.8513 59.6368 67.6853 57.99 67.4284 56.3561C67.4542 55.8609 67.472 55.2923 67.47 54.6742C67.47 52.069 67.1174 48.616 65.5682 46.3139L65.9248 43.1085L63.0324 39.6911C63.4969 38.7659 64.0265 37.8748 64.6173 37.0246C64.7163 36.8819 64.8154 36.7432 64.9223 36.6085C68.6765 36.3371 71.6383 33.2506 71.6383 29.4766C71.6383 29.3022 71.6383 29.1279 71.6185 28.9555C71.6185 28.8862 71.6046 28.8149 71.5967 28.7455C71.9632 28.9436 72.3336 29.1418 72.7041 29.3399C72.7735 29.4389 72.8527 29.538 72.9399 29.6549L72.9577 29.6767L73.0686 29.8133L73.1043 29.8549C73.1439 29.9025 73.1855 29.9481 73.2271 29.9956L73.2549 30.0273C73.3599 30.1442 73.4708 30.2631 73.5897 30.3799C73.6038 30.3915 73.6171 30.404 73.6293 30.4176L73.7779 30.5563L73.8195 30.5939C73.9463 30.7068 74.081 30.8158 74.2157 30.9188L74.2593 30.9505L74.4296 31.0674L74.4851 31.103C74.5505 31.1427 74.6179 31.1843 74.6832 31.2219L74.707 31.2358C74.7843 31.2774 74.8635 31.317 74.9428 31.3546L74.9824 31.3705C75.0497 31.3995 75.1158 31.4273 75.1805 31.4537L75.2419 31.4755C75.3112 31.4993 75.3786 31.5211 75.4499 31.5409L75.4935 31.5528C75.5807 31.5745 75.6678 31.5924 75.757 31.6062H75.7669C75.8508 31.6198 75.9355 31.6284 76.0205 31.632H76.0779C76.1538 31.636 76.2299 31.636 76.3058 31.632H76.3553C76.4503 31.6265 76.5449 31.6153 76.6386 31.5983C77.0818 31.54 77.5074 31.3874 77.8867 31.1506C77.9832 31.086 78.0688 31.0064 78.1403 30.9148C78.5365 30.3958 78.1006 29.8272 78.1006 29.8272C77.9461 29.4587 76.9437 29.1992 76.9437 29.1992C76.9437 29.1992 73.7739 27.8758 73.7739 26.8219C73.7739 25.7679 72.9815 20.3001 64.8015 19.05C64.8015 19.05 59.4803 18.7509 57.9845 21.5997L57.9528 21.9325C57.513 22.2079 57.1485 22.7606 56.7147 22.9231C56.5272 22.9633 56.3464 23.03 56.1778 23.1212V23.0835C56.1277 23.1274 56.0866 23.1805 56.0569 23.2401C55.9637 23.4255 55.9079 23.6274 55.8925 23.8344C55.8479 24.0872 55.7601 24.3305 55.633 24.5535C55.5975 24.6169 55.5578 24.6778 55.5141 24.7358L55.4804 24.7893C55.7104 24.8072 55.9414 24.7698 56.154 24.6803C56.1205 24.9515 56.054 25.2177 55.9559 25.4728C56.0818 25.4768 56.2063 25.4446 56.3145 25.38C56.4226 25.3154 56.51 25.2211 56.5661 25.1082V25.0924L56.5918 25.0567C56.6416 24.965 56.6828 24.8688 56.7147 24.7695L56.6929 24.7932C56.7325 24.6645 56.7681 24.5337 56.8117 24.4069C56.8317 24.3355 56.8646 24.2684 56.9088 24.2088C56.9617 24.1555 57.0263 24.1154 57.0976 24.0916C57.1688 24.0679 57.2446 24.0612 57.3189 24.0721L57.2377 25.7897H57.2733C57.2256 25.9147 57.1673 26.0353 57.099 26.1503C56.8177 26.6059 56.3065 26.917 56.1183 27.4162C56.0372 27.657 56.0062 27.9118 56.0272 28.1651C56.0272 28.3137 56.045 28.4642 56.0569 28.6128V28.6009C56.0847 28.9971 56.0926 29.3735 55.8786 29.6925C55.732 29.9104 55.4963 30.0749 55.415 30.3225C55.3926 30.3915 55.3825 30.4639 55.3853 30.5364C55.4012 30.7535 55.4465 30.9675 55.52 31.1724C55.5209 31.1685 55.5209 31.1644 55.52 31.1605C55.5695 31.3112 55.581 31.4718 55.5537 31.628C55.4646 32.0243 54.9832 32.3551 55.0069 32.7335C55.0056 32.7833 55.013 32.8329 55.0287 32.8801C55.1214 33.0649 55.2817 33.2069 55.4765 33.2763C55.7819 33.45 56.1327 33.5273 56.4829 33.4982C56.6141 33.4745 56.741 33.4311 56.8593 33.3694C56.7206 33.6884 56.578 34.0034 56.4333 34.3025C56.4115 34.3501 56.3878 34.3976 56.364 34.4452C56.364 34.4452 55.1397 33.627 54.4443 35.2951C54.2413 35.6417 54.0961 36.0191 54.0144 36.4124C53.9796 36.5697 53.9305 36.7236 53.8678 36.872C53.5591 37.3946 53.0971 37.8096 52.5444 38.0607C51.126 38.7105 45.3966 45.8563 45.2956 47.7066C45.246 48.4289 45.1239 49.1444 44.9311 49.8423C44.4801 51.4857 44.3642 53.203 44.5903 54.8921C44.6611 55.438 44.7784 55.9768 44.941 56.5027C45.5492 58.3511 45.9553 61.8002 45.9553 61.8002L46.613 67.7871C46.5886 68.6134 46.6244 69.4404 46.72 70.2615C46.0484 71.0282 43.3521 74.2237 44.3823 75.0934C45.1747 75.7788 46.5615 75.6659 47.3401 75.5253C46.6843 77.1478 45.6522 79.9689 45.5155 81.9064C45.3174 84.773 45.8543 88.5708 46.7041 90.0289C47.554 91.487 50.387 95.2273 50.387 95.2273C50.387 95.2273 50.2543 100.358 51.2666 102.223C52.279 104.087 52.6871 107.954 52.6871 107.954C52.6871 107.954 53.6321 111.219 53.1586 112.419C52.6851 113.62 54.0362 114.618 52.6177 115.417C51.1993 116.215 49.3846 134.209 49.3846 134.209C49.3846 134.209 48.6536 146.003 49.3846 146.603C49.4237 146.632 49.4655 146.656 49.5094 146.676V150.639C49.5094 150.639 49.0022 151.471 51.0645 151.639C52.4771 151.752 56.4809 152.008 58.8562 152.156L60.6967 152.271C60.6967 152.271 65.0551 153.139 66.9807 152.271C68.9063 151.403 72.3198 151.423 71.8126 149.131C71.7454 148.819 71.6553 148.513 71.5432 148.214C70.9865 146.791 70.0415 146.629 68.3001 146.233C68.1991 146.211 68.102 146.191 68.0129 146.175C66.1784 145.856 65.5761 146.71 64.5479 145.599C63.6544 144.638 60.8096 143.562 59.8408 143.221C59.8646 143.15 59.8943 143.081 59.9181 143.007C59.6438 142.961 59.3886 142.836 59.1831 142.649L61.8081 142.815L63.3711 142.912C63.3711 142.912 67.0758 143.651 68.7201 142.912C70.3644 142.173 73.2568 142.193 72.825 140.246C72.7681 139.98 72.6919 139.72 72.5971 139.465C72.1236 138.257 71.3193 138.124 69.8394 137.789C69.7543 137.771 69.675 137.754 69.5958 137.74C68.0366 137.468 67.5255 138.193 66.6519 137.25C65.903 136.446 63.5395 135.545 62.6897 135.238C62.6897 134.798 62.0953 134.172 61.7209 133.544C61.2811 132.811 62.0933 130.245 62.0933 130.245L62.5569 119.601C62.7335 119.522 62.9202 119.469 63.1116 119.442C63.1116 119.442 65.2076 117.441 64.7341 115.31C64.6377 114.665 64.5874 114.014 64.5836 113.362C65.273 112.722 66.2219 111.777 66.4914 111.195C66.9312 110.246 66.4914 105.648 66.4914 105.648V88.0656L69.9979 88.4202L73.1796 88.7471L74.1483 88.8462L77.33 89.1671L84.6422 89.9061L91.2314 88.658L94.0822 88.1191L99.9442 87.0097V72.6665L106.012 71.6641ZM57.7508 24.1355L57.3427 24.0919C57.4774 24.0979 57.62 24.1236 57.7508 24.1355Z" fill="url(#paint0_linear)" />
    <path d="M91.7902 80.9774C89.8091 83.8123 82.6871 82.3106 82.6871 82.3106L77.1677 77.1459L76.4248 76.4466L77.6709 73.7998C77.6709 73.7998 78.0671 73.9088 78.7467 74.1029C82.3146 75.139 93.4623 78.5941 91.7902 80.9774Z" fill="#EFB7B9" />
    <path opacity="0.1" d="M78.7427 74.1029C78.499 74.9508 77.8314 76.2207 77.1677 77.1459L76.4248 76.4466L77.6709 73.7998C77.6709 73.7998 78.0711 73.9088 78.7427 74.1029Z" fill="black" />
    <path d="M59.8135 44.2556C59.8135 44.2556 54.7261 46.5121 54.9757 52.0532C55.1553 55.6231 55.5443 59.1793 56.1406 62.7036C56.1406 62.7036 55.1005 71.0421 59.4312 73.1916C63.7619 75.341 67.7696 77.1082 67.7696 77.1082C67.7696 77.1082 74.545 77.8372 75.387 78.1384C76.2289 78.4395 78.8598 73.8354 78.3745 73.1182C77.8891 72.4011 71.6704 70.8974 70.878 69.7009C70.0855 68.5043 68.253 67.7653 68.253 67.7653C68.253 67.7653 66.3611 66.6202 66.2323 65.5861C66.1035 64.552 66.6028 63.7813 66.7296 63.3277C66.8563 62.874 67.1773 58.4938 67.1773 58.4938C67.1773 58.4938 69.3129 42.9025 59.8135 44.2556Z" fill="#DCE6F2" />
    <path opacity="0.1" d="M63.1712 62.4761C63.1712 62.4761 56.1918 63.6449 56.8673 66.0876C56.8673 66.0876 59.4012 63.4508 63.1712 62.4761Z" fill="black" />
    <path opacity="0.1" d="M63.225 63.4644C63.225 63.4644 59.3876 66.5965 60.1384 66.7569C60.8892 66.9174 63.225 63.4644 63.225 63.4644Z" fill="black" />
    <path opacity="0.1" d="M65.0694 64.5562C65.0694 64.5562 64.0412 66.662 64.6732 66.5194C65.3051 66.3768 65.0694 64.5562 65.0694 64.5562Z" fill="black" />
    <path opacity="0.1" d="M79.0006 74.327L78.5767 74.2062C78.6975 73.81 78.7312 73.489 78.6322 73.3404C78.1468 72.6233 71.9321 71.1216 71.1416 69.923C70.3512 68.7245 68.5167 67.9875 68.5167 67.9875C68.5167 67.9875 66.6247 66.8424 66.4959 65.8083C66.3672 64.7742 66.8664 64.0035 66.9932 63.5498C67.12 63.0962 67.4409 58.714 67.4409 58.714C67.4409 58.714 69.5706 43.1247 60.0712 44.4778C60.0712 44.4778 54.9838 46.7362 55.2314 52.2774C55.4111 55.8473 55.8007 59.4036 56.3983 62.9278C56.3983 62.9278 55.3582 71.2662 59.6889 73.4157C64.0196 75.5652 68.0273 77.3324 68.0273 77.3324C68.0273 77.3324 74.8007 78.0594 75.6447 78.3625C75.9636 78.4774 76.5401 77.8851 77.1047 77.0708L77.4257 77.37L82.945 82.5327C82.945 82.5327 90.0671 84.0364 92.0482 81.2014C93.7222 78.8162 82.5765 75.3612 79.0006 74.327Z" fill="black" />
    <path d="M56.885 23.4582C56.6911 23.4962 56.5053 23.5679 56.3362 23.6702C56.1381 23.8346 56.1381 24.116 56.0886 24.3616C56.0304 24.7034 55.8949 25.0273 55.6924 25.3086C55.9178 25.3251 56.1439 25.2878 56.3521 25.1996C56.3182 25.4708 56.2517 25.7369 56.154 25.9921C56.2774 25.9952 56.3991 25.9627 56.5046 25.8984C56.61 25.8341 56.6946 25.7407 56.7483 25.6295C56.8531 25.4063 56.9361 25.1734 56.996 24.9342C57.0146 24.8626 57.0469 24.7953 57.091 24.7361C57.2733 24.5201 57.6121 24.6172 57.8934 24.6449C58.1275 24.6647 58.3626 24.6214 58.5744 24.5197C58.7862 24.418 58.967 24.2615 59.0979 24.0664C59.3971 23.6128 59.4149 22.4518 58.7017 22.329C57.9568 22.2062 57.4932 23.2324 56.885 23.4582Z" fill="#965D7B" />
    <g opacity="0.1">
      <path opacity="0.1" d="M56.3169 23.9138C56.3347 23.8168 56.3466 23.7157 56.3684 23.6187C56.1802 23.7831 56.1703 24.0624 56.1208 24.3101C56.0958 24.4529 56.0567 24.593 56.0039 24.7281C56.1599 24.4794 56.2662 24.2029 56.3169 23.9138Z" fill="black" />
      <path opacity="0.1" d="M56.3804 25.5503C56.479 25.2954 56.5456 25.0292 56.5785 24.7578C56.3801 24.8413 56.1654 24.8786 55.9505 24.8668C55.8879 25.0061 55.8116 25.1388 55.7227 25.263C55.9473 25.2804 56.1728 25.2437 56.3804 25.156C56.3475 25.4274 56.2809 25.6936 56.1823 25.9485C56.3057 25.9514 56.4273 25.9187 56.5327 25.8544C56.638 25.7902 56.7227 25.697 56.7766 25.5859C56.826 25.4959 56.8658 25.4009 56.8955 25.3026C56.8373 25.3839 56.7597 25.4491 56.6696 25.4924C56.5796 25.5357 56.4801 25.5556 56.3804 25.5503Z" fill="black" />
      <path opacity="0.1" d="M58.1198 24.2031C57.8385 24.1754 57.4978 24.0783 57.3155 24.2943C57.2721 24.354 57.2399 24.4211 57.2204 24.4924C57.2026 24.5439 57.1867 24.5974 57.1729 24.6509C57.3611 24.5023 57.6661 24.5815 57.9217 24.6073C58.1557 24.6264 58.3907 24.5829 58.6023 24.4812C58.814 24.3796 58.9948 24.2234 59.1262 24.0288C59.1863 23.9326 59.231 23.8277 59.2589 23.7178C59.1233 23.8857 58.9485 24.0178 58.7499 24.1024C58.5512 24.187 58.3349 24.2216 58.1198 24.2031Z" fill="black" />
    </g>
    <path d="M62.8484 39.8203L65.8696 43.4536L65.4754 47.1207L61.8242 41.4052L62.8484 39.8203Z" fill="#DCE6F2" />
    <path opacity="0.1" d="M65.8676 43.4536L65.4972 46.9027L65.4734 47.1207L62.1788 41.9619L61.8242 41.4052L61.9272 41.2447L62.8465 39.8203L63.0505 40.066L65.8676 43.4536Z" fill="black" />
    <path d="M67.4366 34.9011C66.4143 35.1943 65.4377 36.2007 64.5878 37.423C64.0133 38.2664 63.4996 39.1495 63.0504 40.0658C62.7711 40.6245 62.5254 41.1613 62.3214 41.6289L62.1787 41.9617C61.834 42.7759 61.6419 43.3207 61.6419 43.3207C61.6419 43.3207 53.8165 37.4369 55.0547 37.0407C55.4707 36.9079 56.0175 36.0164 56.5584 34.8931L56.6257 34.7505C56.9685 34.0294 57.3052 33.2251 57.6044 32.4683C58.2165 30.9131 58.6702 29.562 58.6702 29.562C58.6702 29.562 70.5568 34.0096 67.4366 34.9011Z" fill="#EFB7B9" />
    <path d="M72.1182 29.231C72.1182 29.231 73.9249 32.4998 76.3518 32.054C78.7786 31.6083 77.7801 30.2988 77.7801 30.2988L72.1182 29.231Z" fill="#444053" />
    <path d="M68.6176 142.382C67.0168 143.113 63.3974 142.382 63.3974 142.382L61.8719 142.287C59.8908 142.16 56.5745 141.946 55.4016 141.851C53.69 141.71 54.11 141.009 54.11 141.009V136.771L62.4147 134.667C62.4147 134.667 65.6974 135.791 66.5969 136.771C67.4507 137.706 67.9499 136.987 69.4734 137.257C69.5487 137.271 69.6279 137.286 69.7111 137.306C71.1573 137.637 71.9419 137.768 72.4054 138.966C72.4986 139.218 72.5734 139.476 72.6293 139.739C73.0572 141.669 70.2163 141.655 68.6176 142.382Z" fill="#A36468" />
    <path opacity="0.1" d="M72.4054 138.966C72.1078 139.152 71.795 139.312 71.4704 139.445C70.3807 139.943 69.3446 140.549 68.2431 141.018C67.1417 141.488 65.955 141.823 64.7623 141.734C64.1383 141.688 63.5004 141.536 62.9041 141.714C62.5353 141.856 62.188 142.049 61.8719 142.286C59.8908 142.16 56.5745 141.946 55.4016 141.851C53.69 141.71 54.11 141.009 54.11 141.009V140.513C54.1714 140.513 54.2407 140.495 54.32 140.49C54.73 140.483 55.1382 140.544 55.5284 140.67C56.3882 140.904 57.2441 141.133 58.1039 141.363C58.1746 141.096 58.2989 140.847 58.4692 140.629C58.6395 140.412 58.8522 140.232 59.0944 140.099C59.5852 139.839 60.136 139.712 60.6912 139.733C62.0245 139.751 63.2864 140.383 64.6177 140.446C64.9899 140.48 65.3646 140.417 65.7054 140.264C65.8876 140.173 66.0481 140.04 66.2264 139.939C66.5117 139.801 66.8132 139.699 67.1238 139.636C67.9968 139.418 68.854 139.142 69.6893 138.808C69.9271 138.714 70.2044 138.546 70.1727 138.292C70.1311 137.956 69.6022 137.916 69.4635 137.607C69.439 137.551 69.4277 137.491 69.4305 137.43C69.4332 137.369 69.4499 137.31 69.4793 137.256C69.5546 137.27 69.6339 137.286 69.7171 137.306C71.1573 137.637 71.9419 137.767 72.4054 138.966Z" fill="black" />
    <path d="M66.9257 151.653C65.0436 152.513 60.7843 151.653 60.7843 151.653L58.9914 151.548C56.6695 151.4 52.7588 151.152 51.378 151.035C49.3632 150.869 49.8585 150.044 49.8585 150.044V145.05L59.6313 142.574C59.6313 142.574 63.4944 143.895 64.5523 145.05C65.5567 146.15 66.1372 145.304 67.938 145.621C68.0272 145.637 68.1203 145.656 68.2174 145.678C69.9191 146.074 70.8423 146.223 71.3871 147.633C71.4974 147.93 71.5855 148.234 71.6506 148.543C72.1419 150.813 68.8077 150.795 66.9257 151.653Z" fill="#A36468" />
    <path opacity="0.1" d="M71.3832 147.634C71.0331 147.852 70.6653 148.041 70.2836 148.198C69.0019 148.783 67.7815 149.496 66.4859 150.049C65.1902 150.601 63.7936 150.994 62.389 150.891C61.6559 150.837 60.9051 150.653 60.2097 150.867C59.774 151.037 59.364 151.266 58.9914 151.548C56.6695 151.4 52.7588 151.152 51.378 151.035C49.3632 150.869 49.8585 150.045 49.8585 150.045V149.462C49.9405 149.449 50.0232 149.44 50.1061 149.435C50.5888 149.426 51.0695 149.497 51.5286 149.647L54.5577 150.463C54.642 150.148 54.7897 149.854 54.9917 149.598C55.1937 149.342 55.4458 149.13 55.7325 148.975C56.3099 148.667 56.9587 148.518 57.6125 148.543C59.1816 148.565 60.6654 149.308 62.2324 149.383C62.6689 149.423 63.1082 149.35 63.5083 149.171C63.7242 149.062 63.9045 148.906 64.1224 148.789C64.4575 148.625 64.8124 148.505 65.1783 148.432C66.2 148.174 67.2034 147.849 68.1817 147.457C68.461 147.346 68.7879 147.148 68.7503 146.851C68.7007 146.455 68.0787 146.407 67.9142 146.043C67.8865 145.977 67.8739 145.906 67.8774 145.835C67.8808 145.763 67.9002 145.694 67.9341 145.631C68.0232 145.647 68.1163 145.667 68.2134 145.688C69.9152 146.069 70.8384 146.223 71.3832 147.634Z" fill="black" />
    <path d="M62.6659 117.382L62.1369 129.83C62.1369 129.83 61.3445 132.371 61.7744 133.098C62.2043 133.825 62.9294 134.551 62.6659 134.98C62.4024 135.41 59.2326 140.058 58.2084 138.275C57.1842 136.492 56.1738 128.766 56.1738 128.766L57.1188 119.223L62.6659 117.382Z" fill="#444053" />
    <path d="M64.96 86.3701L66.4299 88.3354V105.428C66.4299 105.428 66.8598 109.985 66.4299 110.926C66 111.867 63.8208 113.749 63.8208 113.749L61.9883 104.339L62.3845 94.3837L64.96 86.3701Z" fill="#444053" />
    <path opacity="0.1" d="M62.6659 117.382L62.1369 129.83C62.1369 129.83 61.3445 132.371 61.7744 133.098C62.2043 133.825 62.9294 134.551 62.6659 134.98C62.4024 135.41 59.2326 140.058 58.2084 138.275C57.1842 136.492 56.1738 128.766 56.1738 128.766L57.1188 119.223L62.6659 117.382Z" fill="black" />
    <path opacity="0.1" d="M64.96 86.3701L66.4299 88.3354V105.428C66.4299 105.428 66.8598 109.985 66.4299 110.926C66 111.867 63.8208 113.749 63.8208 113.749L61.9883 104.339L62.3845 94.3837L64.96 86.3701Z" fill="black" />
    <path d="M66.4303 79.0793V88.3251L64.78 95.5225C64.78 95.5225 64.251 112.891 64.7126 115.003C65.1742 117.115 63.1278 119.098 63.1278 119.098C63.1278 119.098 61.9391 119.23 61.9391 120.154C61.9391 121.077 59.958 123.72 59.958 123.72L60.0234 128.87C60.0234 128.87 60.8832 138.512 59.5618 140.361C58.2404 142.209 60.0234 142.475 60.0234 142.475C58.3731 147.889 50.4487 146.635 49.7335 146.041C49.0184 145.446 49.7335 133.758 49.7335 133.758C49.7335 133.758 51.5046 115.928 52.8914 115.135C54.2782 114.343 52.9588 113.352 53.4204 112.164C53.882 110.975 52.9588 107.74 52.9588 107.74C52.9588 107.74 52.5625 103.908 51.572 102.06C50.5814 100.212 50.7122 95.1263 50.7122 95.1263C50.7122 95.1263 47.9387 91.4276 47.1145 89.9754C46.2904 88.5233 45.7594 84.7592 45.9576 81.9183C46.0923 79.9986 47.1007 77.2032 47.7405 75.5946C48.0476 74.8239 48.2695 74.3247 48.2695 74.3247L48.4577 74.3742L59.2785 77.2072L66.4303 79.0793Z" fill="#444053" />
    <path opacity="0.1" d="M67.4367 34.9013C66.4145 35.1945 65.4378 36.2009 64.5879 37.4232H64.366C63.1203 37.4241 61.8964 37.0961 60.818 36.4724C59.7396 35.8487 58.845 34.9514 58.2246 33.8711C57.9653 33.4235 57.7567 32.9484 57.6025 32.4546C58.2147 30.8995 58.6684 29.5483 58.6684 29.5483C58.6684 29.5483 70.557 34.0098 67.4367 34.9013Z" fill="black" />
    <path d="M71.4481 29.9481C71.4498 31.0321 71.2027 32.102 70.7258 33.0755C70.2489 34.0489 69.555 34.8999 68.6974 35.5629C67.8398 36.2259 66.8415 36.6831 65.7793 36.8995C64.7171 37.1159 63.6195 37.0855 62.5709 36.8108C61.5223 36.5361 60.5507 36.0244 59.731 35.3151C58.9114 34.6058 58.2655 33.7177 57.8431 32.7195C57.4207 31.7212 57.233 30.6392 57.2947 29.557C57.3563 28.4748 57.6655 27.4211 58.1985 26.4772C58.4132 26.0937 58.6639 25.7315 58.9473 25.3956C59.4145 24.839 59.9636 24.3567 60.5758 23.9652C61.6098 23.3081 62.7966 22.9305 64.0203 22.8692C65.2439 22.808 66.4625 23.0652 67.557 23.6157C68.6514 24.1662 69.5844 24.9913 70.2647 26.0102C70.945 27.0292 71.3493 28.2071 71.4381 29.4291C71.4421 29.6034 71.4481 29.7758 71.4481 29.9481Z" fill="#EFB7B9" />
    <path opacity="0.1" d="M65.4971 46.9026L65.4733 47.1205L62.1787 41.9696C61.834 42.7839 61.6419 43.3287 61.6419 43.3287C61.6419 43.3287 53.8165 37.4369 55.0547 37.0406C55.4707 36.9079 56.0175 36.0164 56.5584 34.8931L56.6257 34.7505C57.2002 36.4622 60.5384 39.8835 61.9271 41.2544C62.0876 41.4129 62.2203 41.5437 62.3234 41.6388L62.5353 41.8369L62.6463 41.9478C63.1515 42.4689 65.2831 44.7669 65.4971 46.9026Z" fill="black" />
    <path d="M67.96 64.3798L67.5995 75.9831L67.5361 78.0494C67.5361 78.0494 63.2648 77.6531 59.2788 77.2173C56.0695 76.8666 53.0443 76.4883 52.5788 76.2664C51.9844 75.987 50.7106 75.7711 49.7062 75.6344C48.9296 75.5294 48.3194 75.4739 48.3194 75.4739C48.3194 75.4739 48.0916 75.5413 47.7409 75.6047C46.9762 75.7434 45.633 75.8563 44.8505 75.1768C43.85 74.3071 46.479 71.1472 47.1347 70.3884L47.2793 70.224L47.0317 67.9358L46.3878 62.0024C46.3878 62.0024 45.9916 58.585 45.3973 56.7525C45.2384 56.2315 45.1237 55.698 45.0545 55.1577C44.8337 53.4841 44.9468 51.7832 45.3874 50.1535C45.5756 49.461 45.695 48.7516 45.744 48.0357C45.843 46.2032 51.4396 39.1207 52.8264 38.4769C53.4502 38.186 53.9522 37.6854 54.2449 37.0624C54.3415 36.8665 54.414 36.6596 54.4608 36.4463C55.0551 33.8708 56.5588 34.8931 56.5588 34.8931C56.9213 36.9078 62.5338 42.241 62.5338 42.241L62.6447 42.3519C63.2014 42.9225 65.6817 45.6009 65.5054 47.8871C65.4702 48.738 65.5973 49.5878 65.8799 50.3912C67.0215 53.9859 67.6777 57.7169 67.8312 61.4854L67.96 64.3798Z" fill="#DCE6F2" />
    <path opacity="0.1" d="M60.0079 50.6011C60.0079 50.6011 58.6211 53.9689 57.581 54.5137C56.541 55.0586 60.5032 55.6628 60.0079 50.6011Z" fill="black" />
    <path opacity="0.1" d="M61.0477 56.8911C61.0477 56.8911 57.8779 57.2873 57.8779 57.8817C57.8779 58.476 61.0477 56.8911 61.0477 56.8911Z" fill="black" />
    <path opacity="0.1" d="M64.3657 60.7544C64.3657 60.7544 59.7597 70.5608 58.472 70.858C57.1842 71.1552 64.3657 60.7544 64.3657 60.7544Z" fill="black" />
    <path opacity="0.1" d="M62.4459 42.7381L58.6362 44.3943L54.0381 37.4486C54.1347 37.2527 54.2072 37.0458 54.254 36.8325C54.8484 34.2571 56.352 35.2793 56.352 35.2793C56.7146 37.2941 62.327 42.6272 62.327 42.6272L62.4459 42.7381Z" fill="black" />
    <path d="M62.6441 42.3422L58.8345 43.9983L54.2363 37.0526C54.3329 36.8567 54.4055 36.6498 54.4523 36.4365C55.0466 33.8611 56.5503 34.8833 56.5503 34.8833C56.9128 36.8981 62.5252 42.2312 62.5252 42.2312L62.6441 42.3422Z" fill="#DCE6F2" />
    <path opacity="0.1" d="M67.5361 78.0496C67.5361 78.0496 63.2649 77.6533 59.2789 77.2175L66.4307 79.0896V81.2689C66.1177 81.5522 65.8463 81.6988 65.6699 81.6235C64.8458 81.2768 58.12 80.1872 58.12 80.1872C58.12 80.1872 54.2132 78.2061 49.9975 75.8288C49.8951 75.7721 49.7959 75.7099 49.7003 75.6425C49.2087 75.3088 48.7852 74.8845 48.4522 74.3925C47.6736 73.2652 47.2933 71.817 47.1288 70.3966C47.0364 69.5825 47.002 68.7629 47.0258 67.944C47.0462 67.0154 47.131 66.0893 47.2794 65.1724C46.8717 61.6212 46.6732 58.049 46.6851 54.4745C46.7346 48.9274 51.935 46.9463 51.935 46.9463C61.4938 46.1043 58.5301 61.5569 58.5301 61.5569C58.5301 61.5569 57.9773 65.9153 57.8268 66.3611C57.6762 66.8068 57.1354 67.5497 57.2087 68.5898C57.282 69.6299 59.1085 70.874 59.1085 70.874C59.1085 70.874 60.8915 71.71 61.6265 72.9482C62.1614 73.8615 65.6363 75.0997 67.5995 75.9833L67.5361 78.0496Z" fill="black" />
    <path opacity="0.1" d="M70.7372 25.55C70.7409 25.8763 70.6732 26.1995 70.5391 26.497C70.4375 26.7397 70.3197 26.9754 70.1865 27.2023C69.978 27.6196 69.682 27.9872 69.3187 28.28C68.8611 28.6069 68.2826 28.698 67.7339 28.8307C67.1851 28.9635 66.6145 29.1754 66.3015 29.643C66.1319 29.9435 66.0184 30.2725 65.9667 30.6137C65.9142 30.9546 65.7781 31.2773 65.5705 31.5528C65.4624 31.6873 65.3127 31.782 65.1448 31.8222C64.977 31.8624 64.8006 31.8456 64.6433 31.7746C64.4777 31.6629 64.352 31.5012 64.2848 31.313C64.0589 30.8039 64.0015 30.2393 63.9103 29.6905C63.8192 29.1418 63.6904 28.5771 63.3536 28.1354C63.0169 27.6936 62.4205 27.4023 61.8916 27.5747C61.7145 27.6429 61.5531 27.7461 61.4169 27.8782C61.2807 28.0103 61.1727 28.1685 61.0992 28.3434C60.9528 28.6935 60.8522 29.0611 60.8 29.4369C60.5543 30.7814 60.2644 32.118 59.9303 33.4467C59.9201 33.5011 59.8978 33.5526 59.8649 33.5972C59.8123 33.6497 59.7412 33.6796 59.6668 33.6804C59.223 33.7399 58.7971 33.4289 58.3494 33.4625C58.3032 33.4656 58.2575 33.4729 58.2127 33.4843C57.4888 32.2262 57.1692 30.776 57.2971 29.3302C57.425 27.8844 57.9943 26.5129 58.9279 25.4014L58.9635 25.3915C59.2613 25.2858 59.532 25.1153 59.756 24.8923C60.0419 24.6061 60.3068 24.2996 60.5484 23.975L60.7069 23.7769C61.1623 23.2284 61.6809 22.7356 62.2521 22.3089C62.4081 22.1812 62.5869 22.0844 62.7791 22.0237C62.9436 21.9916 63.1122 21.9863 63.2784 22.0078C63.9625 22.0899 64.6523 22.1158 65.3407 22.0851C65.8204 22.0097 66.3038 21.9607 66.7889 21.9385C68.0429 21.9741 69.1127 22.8597 69.9051 23.8304C70.3311 24.3277 70.7115 24.9002 70.7372 25.55Z" fill="black" />
    <path d="M57.2735 26.6657C56.9982 27.1173 56.5009 27.4244 56.3147 27.9197C56.0413 28.6388 56.5029 29.5343 56.0789 30.1762C55.9383 30.3921 55.7065 30.5526 55.6272 30.8002C55.4925 31.2182 55.861 31.664 55.7659 32.0939C55.6708 32.5238 55.1042 32.8863 55.2548 33.3063C55.3438 33.4895 55.4998 33.6314 55.6906 33.7025C55.9908 33.8747 56.3363 33.9514 56.6812 33.9224C57.222 33.8333 57.6242 33.3023 58.173 33.2627C58.6187 33.231 59.0446 33.5401 59.4884 33.4826C59.5628 33.48 59.6335 33.4496 59.6865 33.3974C59.7202 33.3533 59.7426 33.3016 59.7519 33.2469C60.0847 31.9195 60.3753 30.5829 60.6236 29.2371C60.6742 28.8611 60.7741 28.4934 60.9207 28.1436C60.9948 27.969 61.1031 27.8111 61.2392 27.6791C61.3753 27.5471 61.5365 27.4436 61.7132 27.3749C62.2421 27.2045 62.8365 27.4938 63.1752 27.9355C63.514 28.3773 63.6428 28.9419 63.7339 29.4907C63.825 30.0395 63.8825 30.6041 64.1063 31.1132C64.1744 31.3021 64.3006 31.4644 64.4669 31.5768C64.7641 31.7492 65.1643 31.6125 65.3921 31.3549C65.6008 31.0793 65.737 30.7558 65.7883 30.4139C65.84 30.0733 65.9534 29.745 66.1231 29.4451C66.4361 28.9776 67.0087 28.7656 67.5554 28.6329C68.1022 28.5002 68.6787 28.407 69.1403 28.0802C69.5031 27.7877 69.799 27.4209 70.008 27.0044C70.3012 26.4933 70.5746 25.9386 70.5509 25.3502C70.5251 24.7083 70.1447 24.1358 69.7386 23.6366C68.9462 22.6658 67.8744 21.7803 66.6204 21.7466C66.1352 21.7669 65.6516 21.8158 65.1722 21.8932C64.4837 21.9241 63.7939 21.8976 63.1099 21.8139C62.9435 21.794 62.7751 21.8001 62.6106 21.8318C62.4182 21.8905 62.2396 21.9876 62.0856 22.117C61.5139 22.543 60.9945 23.0351 60.5384 23.5831C60.2443 23.973 59.9253 24.3436 59.5835 24.6925C59.3594 24.9158 59.0889 25.087 58.7911 25.1937C58.5929 25.2492 58.3948 25.2095 58.2066 25.271C57.6222 25.4552 57.5449 26.2179 57.2735 26.6657Z" fill="#965D7B" />
    <path opacity="0.1" d="M76.3518 32.052C74.7669 32.3433 73.4534 31.0615 72.7264 30.1264C72.5031 29.8424 72.2998 29.5432 72.1182 29.231L77.5582 30.2572L77.7781 30.2988C77.7781 30.2988 78.7786 31.6083 76.3518 32.052Z" fill="black" />
    <g opacity="0.1">
      <path opacity="0.1" d="M55.7655 31.5269C55.7877 31.2678 55.7483 31.0071 55.6506 30.7661C55.6506 30.7859 55.6328 30.8057 55.6268 30.8255C55.5416 31.091 55.6565 31.3664 55.7298 31.6418C55.7456 31.6048 55.7575 31.5663 55.7655 31.5269Z" fill="black" />
      <path opacity="0.1" d="M56.2377 28.2842C56.2173 28.5581 56.2226 28.8334 56.2536 29.1063C56.2739 28.8324 56.2686 28.5571 56.2377 28.2842Z" fill="black" />
      <path opacity="0.1" d="M69.9961 26.4316C69.7875 26.849 69.4916 27.2166 69.1283 27.5093C68.6707 27.8362 68.0942 27.9274 67.5435 28.0601C66.9927 28.1928 66.4241 28.4048 66.1111 28.8723C65.9418 29.173 65.8283 29.5019 65.7763 29.8431C65.7247 30.1849 65.5885 30.5083 65.3801 30.7841C65.1523 31.0416 64.7521 31.1803 64.4549 31.006C64.2886 30.8936 64.1624 30.7312 64.0944 30.5424C63.8705 30.0333 63.8111 29.4706 63.7219 28.9199C63.6328 28.3691 63.5 27.8065 63.1632 27.3647C62.8264 26.9229 62.2301 26.6317 61.7012 26.8041C61.5243 26.8725 61.363 26.9758 61.2269 27.1079C61.0907 27.2399 60.9825 27.398 60.9087 27.5727C60.7621 27.9226 60.6622 28.2903 60.6116 28.6663C60.3646 30.0121 60.074 31.3487 59.7399 32.6761C59.7306 32.7308 59.7082 32.7825 59.6745 32.8266C59.6215 32.8788 59.5508 32.9092 59.4764 32.9118C59.0326 32.9693 58.6067 32.6602 58.1609 32.6919C57.6122 32.7315 57.21 33.2625 56.6692 33.3496C56.3242 33.3806 55.9781 33.3037 55.6786 33.1297C55.5409 33.0705 55.4174 32.9827 55.3161 32.8722C55.2697 32.9386 55.239 33.0146 55.2263 33.0946C55.2136 33.1745 55.2193 33.2563 55.2428 33.3338C55.33 33.5182 55.4867 33.6607 55.6786 33.73C55.9781 33.904 56.3242 33.9808 56.6692 33.9499C57.21 33.8627 57.6122 33.3318 58.1609 33.2922C58.6067 33.2605 59.0326 33.5695 59.4764 33.5121C59.5508 33.5095 59.6215 33.4791 59.6745 33.4269C59.7082 33.3827 59.7306 33.3311 59.7399 33.2763C60.0727 31.9556 60.3633 30.619 60.6116 29.2666C60.6622 28.8906 60.7621 28.5229 60.9087 28.173C60.9825 27.9983 61.0907 27.8402 61.2269 27.7082C61.363 27.5761 61.5243 27.4728 61.7012 27.4043C62.2301 27.232 62.8245 27.5232 63.1632 27.965C63.502 28.4068 63.6308 28.9714 63.7219 29.5202C63.813 30.0689 63.8705 30.6335 64.0944 31.1427C64.1624 31.3315 64.2886 31.4939 64.4549 31.6063C64.7521 31.7786 65.1523 31.6419 65.3801 31.3844C65.5885 31.1086 65.7247 30.7851 65.7763 30.4434C65.8283 30.1022 65.9418 29.7733 66.1111 29.4726C66.4241 29.0051 66.9967 28.7951 67.5435 28.6604C68.0902 28.5256 68.6667 28.4365 69.1283 28.1096C69.4916 27.8168 69.7875 27.4493 69.9961 27.0319C70.2893 26.5227 70.5627 25.968 70.5389 25.3797C70.535 25.304 70.527 25.2286 70.5151 25.1538C70.4195 25.6072 70.2437 26.04 69.9961 26.4316Z" fill="black" />
    </g>
    <path opacity="0.1" d="M70.5465 26.4914C71.0546 27.3947 71.3557 28.3996 71.4281 29.4334C69.663 28.4428 68.0028 27.3552 67.1648 26.9768C65.7047 26.3171 60.2448 26.4161 58.1924 26.4776C58.4071 26.094 58.6578 25.7318 58.9412 25.3959C59.4102 24.8388 59.9613 24.3565 60.5756 23.9655C61.3892 23.4492 62.2994 23.1043 63.2508 22.9517C64.2022 22.7991 65.1747 22.8422 66.1089 23.0782C67.043 23.3143 67.9192 23.7384 68.684 24.3245C69.4487 24.9107 70.0858 25.6467 70.5564 26.4875L70.5465 26.4914Z" fill="black" />
    <path opacity="0.1" d="M76.847 31.2121C75.8941 31.5053 74.339 30.9387 72.7264 30.1264C72.5031 29.8424 72.2998 29.5432 72.1182 29.231L77.5583 30.2572C77.9188 30.5028 78.0099 30.8535 76.847 31.2121Z" fill="black" />
    <path d="M64.7877 19.6228C64.7877 19.6228 59.5873 19.3256 58.1253 22.1487L57.8895 24.6508L57.4933 24.6072L57.4141 26.309C57.4141 26.309 65.3622 25.9623 67.171 26.7785C68.9797 27.5947 74.6001 31.7075 76.8526 31.0141C79.1051 30.3207 76.6545 29.6768 76.6545 29.6768C76.6545 29.6768 73.5541 28.3634 73.5541 27.3332C73.5541 26.303 72.7854 20.8609 64.7877 19.6228Z" fill="#444053" />
    <path opacity="0.1" d="M54.7578 112.378C54.7578 112.378 58.0762 115.597 59.5125 115.35C59.5125 115.35 55.4512 115.003 54.7578 112.378Z" fill="black" />
    <path opacity="0.1" d="M54.0645 113.87C54.0645 113.87 54.3616 115.526 55.1541 115.363C55.9465 115.201 54.0645 113.87 54.0645 113.87Z" fill="black" />
    <path opacity="0.1" d="M59.2647 141.55C59.2647 141.55 54.5536 145.215 55.3481 145.314C56.1425 145.413 59.2647 141.55 59.2647 141.55Z" fill="black" />
    <path d="M65.5664 68.8095L80.8209 66.3271V80.7694L66.3271 80.0106L65.5664 68.8095Z" fill="#191970" />
    <path opacity="0.05" d="M65.5664 68.8095L80.8209 66.3271V80.7694L66.3271 80.0106L65.5664 68.8095Z" fill="black" />
    <path d="M80.8213 66.3271L99.1148 67.6961L98.1024 80.2642L80.8213 80.7694V66.3271Z" fill="#191970" />
    <path opacity="0.1" d="M80.8213 66.3271L99.1148 67.6961L98.1024 80.2642L80.8213 80.7694V66.3271Z" fill="black" />
    <path d="M86.4456 61.9194L80.8213 66.3274L99.1148 67.6963L102.104 63.1854L86.4456 61.9194Z" fill="#191970" />
    <path d="M60.043 63.9953L73.776 62.3232L80.8207 66.327L65.5663 68.8094L60.043 63.9953Z" fill="#191970" />
    <path d="M84.165 70.0775V89.8231L77.0191 89.0901L73.9108 88.7731L72.9638 88.6741L69.8575 88.3551L65.5664 87.9153V68.8096L80.8189 69.8477L84.165 70.0775Z" fill="#191970" />
    <path d="M99.1144 67.6963V86.9526L93.3871 88.0521L90.6016 88.587L84.165 89.8232V70.0776L99.1144 67.6963Z" fill="#191970" />
    <path opacity="0.05" d="M99.1144 67.6963V86.9526L93.3871 88.0521L90.6016 88.587L84.165 89.8232V70.0776L99.1144 67.6963Z" fill="black" />
    <path d="M60.043 72.9659L65.5663 68.8096L84.1648 70.0775L81.427 74.6895L60.043 72.9659Z" fill="#191970" />
    <path opacity="0.1" d="M60.043 72.9659L65.5663 68.8096L84.1648 70.0775L81.427 74.6895L60.043 72.9659Z" fill="white" />
    <path d="M99.1144 67.6963L84.165 70.0776L89.0306 74.436L105.044 71.7496L99.1144 67.6963Z" fill="#191970" />
    <path opacity="0.1" d="M99.1144 67.6963L84.165 70.0776L89.0306 74.436L105.044 71.7496L99.1144 67.6963Z" fill="white" />
    <path opacity="0.1" d="M93.387 88.052L90.6016 88.587V84.4722L93.2107 83.8145L93.387 88.052Z" fill="white" />
    <path opacity="0.1" d="M77.0195 86.3682V89.0902L73.9111 88.7732V86.3682H77.0195Z" fill="white" />
    <path opacity="0.1" d="M72.9638 87.2261V88.6743L69.8574 88.3553V87.2261H72.9638Z" fill="white" />
    <path opacity="0.1" d="M82.2952 84.9239C80.1656 87.6479 73.1326 85.7659 73.1326 85.7659L67.9065 80.3139L67.1973 79.5749L68.584 76.9995C68.584 76.9995 68.9803 77.1303 69.6419 77.3601C73.1445 78.5844 84.0881 82.6318 82.2952 84.9239Z" fill="black" />
    <path d="M82.097 84.5274C79.9673 87.2514 72.9344 85.3694 72.9344 85.3694L67.7083 79.9174L66.999 79.1785L68.3858 76.603C68.3858 76.603 68.782 76.7338 69.4437 76.9636C72.9463 78.1879 83.8899 82.2353 82.097 84.5274Z" fill="#EFB7B9" />
    <path opacity="0.1" d="M69.4359 76.9636C69.1466 77.7956 68.4117 79.0279 67.7004 79.9174L66.9912 79.1785L68.378 76.603C68.378 76.603 68.7762 76.7338 69.4359 76.9636Z" fill="black" />
    <path d="M52.1322 46.1536C52.1322 46.1536 46.9319 48.1347 46.8823 53.6818C46.8705 57.2563 47.069 60.8285 47.4767 64.3797C47.4767 64.3797 45.9908 72.6508 50.2007 75.0281C54.4105 77.4054 58.3232 79.3865 58.3232 79.3865C58.3232 79.3865 65.049 80.4762 65.8751 80.8228C66.7013 81.1695 69.5719 76.7121 69.1261 75.9691C68.6804 75.2262 62.5568 73.3937 61.8297 72.1555C61.1027 70.9173 59.3118 70.0833 59.3118 70.0833C59.3118 70.0833 57.4852 68.8372 57.4119 67.7971C57.3386 66.757 57.8774 66.0141 58.03 65.5684C58.1825 65.1226 58.7353 60.7642 58.7353 60.7642C58.7353 60.7642 61.6911 45.3017 52.1322 46.1536Z" fill="#DCE6F2" />
    <path opacity="0.1" d="M54.5104 64.5186C54.5104 64.5186 47.4775 65.311 48.0223 67.7874C48.0223 67.7874 50.6948 65.2892 54.5104 64.5186Z" fill="black" />
    <path opacity="0.1" d="M54.5099 65.5093C54.5099 65.5093 50.518 68.4314 51.251 68.6295C51.984 68.8276 54.5099 65.5093 54.5099 65.5093Z" fill="black" />
    <path opacity="0.1" d="M56.293 66.6978C56.293 66.6978 55.1539 68.7462 55.7978 68.6392C56.4416 68.5322 56.293 66.6978 56.293 66.6978Z" fill="black" />
    <path d="M129.519 22.2656C129.519 22.2656 121.991 21.8119 122.87 27.0935C122.87 27.0935 122.694 28.0266 123.54 28.4506C123.54 28.4506 123.554 28.0544 124.313 28.1911C124.583 28.2366 124.857 28.2499 125.131 28.2307C125.501 28.206 125.853 28.0606 126.133 27.8167C126.133 27.8167 128.251 26.943 129.075 23.48C129.075 23.48 129.685 22.7232 129.669 22.5291L128.398 23.0739C128.398 23.0739 128.831 23.9911 128.489 24.7539C128.489 24.7539 128.449 23.1076 128.203 23.1452C128.154 23.1452 127.544 23.4642 127.544 23.4642C127.544 23.4642 128.291 25.0609 127.726 26.2238C127.726 26.2238 127.94 24.2546 127.31 23.5791L126.415 24.1021C126.415 24.1021 127.288 25.7523 126.696 27.0995C126.696 27.0995 126.848 25.0332 126.226 24.2289L125.414 24.8609C125.414 24.8609 126.236 26.4893 125.735 27.6067C125.735 27.6067 125.67 25.2016 125.238 25.0193C125.238 25.0193 124.529 25.6454 124.422 25.9029C124.422 25.9029 124.982 27.0916 124.634 27.7077C124.634 27.7077 124.42 26.105 124.237 26.0971C124.237 26.0971 123.53 27.1589 123.457 27.88C123.491 27.2078 123.701 26.5562 124.065 25.9901C123.657 26.0672 123.281 26.2621 122.983 26.5507C122.983 26.5507 123.092 25.7999 124.239 25.7345C124.239 25.7345 124.834 24.9282 124.98 24.8787C124.98 24.8787 123.839 24.7836 123.148 25.0907C123.148 25.0907 123.756 24.3834 125.19 24.6944L125.983 24.0407C125.983 24.0407 124.481 23.8426 123.843 24.0625C123.843 24.0625 124.576 23.4364 126.199 23.8921L127.07 23.3711C127.07 23.3711 125.79 23.0937 125.028 23.1947C125.028 23.1947 125.832 22.7609 127.326 23.2304L127.95 22.9511C127.95 22.9511 127.011 22.7668 126.737 22.7371C126.464 22.7074 126.448 22.6321 126.448 22.6321C127.042 22.5332 127.652 22.6018 128.209 22.8302C128.209 22.8302 129.547 22.3488 129.519 22.2656Z" fill="#191970" />
    <path opacity="0.1" d="M152.392 48.6816C152.392 48.6816 144.864 48.228 145.743 53.5096C145.743 53.5096 145.567 54.4427 146.413 54.8666C146.413 54.8666 146.427 54.4704 147.188 54.6071C147.458 54.6526 147.732 54.6659 148.006 54.6467C148.372 54.6202 148.719 54.4756 148.996 54.2346C148.996 54.2346 151.116 53.359 151.94 49.896C151.94 49.896 152.548 49.1412 152.525 48.9471L151.253 49.4899C151.253 49.4899 151.687 50.4072 151.346 51.1699C151.346 51.1699 151.304 49.5236 151.061 49.5612C151.011 49.5612 150.399 49.8802 150.399 49.8802C150.399 49.8802 151.148 51.4789 150.583 52.6399C150.583 52.6399 150.797 50.6706 150.165 49.9951L149.28 50.5122C149.28 50.5122 150.153 52.1624 149.561 53.5096C149.561 53.5096 149.713 51.4433 149.091 50.639L148.281 51.2729C148.281 51.2729 149.101 52.8994 148.602 54.0167C148.602 54.0167 148.537 51.6117 148.105 51.4294C148.105 51.4294 147.396 52.0554 147.287 52.313C147.287 52.313 147.849 53.5016 147.501 54.1178C147.501 54.1178 147.287 52.5151 147.104 52.5071C147.104 52.5071 146.397 53.569 146.324 54.2901C146.359 53.6177 146.57 52.9663 146.934 52.4001C146.526 52.4775 146.149 52.6723 145.85 52.9608C145.85 52.9608 145.961 52.21 147.108 52.1446C147.108 52.1446 147.693 51.3383 147.849 51.2888C147.849 51.2888 146.708 51.1937 146.017 51.5007C146.017 51.5007 146.625 50.7935 148.057 51.1144L148.85 50.4606C148.85 50.4606 147.346 50.2625 146.71 50.4824C146.71 50.4824 147.443 49.8564 149.066 50.3121L149.937 49.791C149.937 49.791 148.656 49.5157 147.893 49.6147C147.893 49.6147 148.699 49.1809 150.193 49.6504L150.817 49.371C150.817 49.371 149.878 49.1868 149.603 49.1571C149.327 49.1274 149.313 49.0521 149.313 49.0521C149.908 48.9532 150.519 49.0218 151.076 49.2502C151.076 49.2502 152.416 48.7648 152.392 48.6816Z" fill="#191970" />
    <path opacity="0.1" d="M106.659 43.9925C106.659 43.9925 108.392 36.6446 103.035 36.6189C103.035 36.6189 102.146 36.286 101.585 37.0468C101.585 37.0468 101.968 37.128 101.708 37.8531C101.618 38.1095 101.558 38.3754 101.53 38.6455C101.491 39.0138 101.574 39.3845 101.765 39.7015C101.765 39.7015 102.267 41.9401 105.53 43.3427C105.53 43.3427 106.171 44.0718 106.366 44.0797L106.049 42.7345C106.049 42.7345 105.07 43.0059 104.377 42.5364C104.377 42.5364 106.007 42.7761 106.009 42.5364C106.009 42.4869 105.811 41.8311 105.811 41.8311C105.811 41.8311 104.109 42.2947 103.059 41.5399C103.059 41.5399 104.963 42.0867 105.738 41.5815L105.381 40.6068C105.381 40.6068 103.598 41.1873 102.378 40.3731C102.378 40.3731 104.388 40.8762 105.288 40.4008L104.802 39.4934C104.802 39.4934 103.059 40.0244 102.043 39.3409C102.043 39.3409 104.42 39.6856 104.678 39.2933C104.678 39.2933 104.182 38.487 103.947 38.3365C103.947 38.3365 102.687 38.6891 102.132 38.2394C102.132 38.2394 103.747 38.3008 103.784 38.1304C103.784 38.1304 102.859 37.2528 102.154 37.0547C102.811 37.2044 103.418 37.5225 103.915 37.9779C103.908 37.5627 103.78 37.1586 103.546 36.815C103.546 36.815 104.268 37.0527 104.141 38.2018C104.141 38.2018 104.834 38.915 104.856 39.0774C104.856 39.0774 105.143 37.97 104.959 37.235C104.959 37.235 105.553 37.9561 104.993 39.3132L105.5 40.2146C105.5 40.2146 105.959 38.7684 105.843 38.1027C105.843 38.1027 106.336 38.9308 105.609 40.4523L105.975 41.4012C105.975 41.4012 106.465 40.1848 106.496 39.4201C106.496 39.4201 106.788 40.2879 106.068 41.6806L106.239 42.3423C106.239 42.3423 106.58 41.4488 106.655 41.1833C106.73 40.9179 106.807 40.9159 106.807 40.9159C106.804 41.5186 106.634 42.1085 106.314 42.6196C106.314 42.6196 106.574 44.0024 106.659 43.9925Z" fill="#191970" />
    <path opacity="0.1" d="M90.1714 46.4964C90.1714 46.4964 84.1251 41.9735 81.9637 46.8728C81.9637 46.8728 81.304 47.5563 81.7775 48.3745C81.7775 48.3745 82.0033 48.0555 82.5699 48.5845C82.7706 48.7712 82.9927 48.9334 83.2316 49.0678C83.5552 49.248 83.9287 49.3176 84.2955 49.266C84.2955 49.266 86.546 49.6998 89.1373 47.2611C89.1373 47.2611 90.0625 46.9639 90.1496 46.7896L88.7847 46.5499C88.7847 46.5499 88.642 47.5543 87.9387 48.004C87.9387 48.004 88.8084 46.6053 88.5826 46.5043C88.537 46.4825 87.8555 46.4052 87.8555 46.4052C87.8555 46.4052 87.6019 48.1526 86.4925 48.8123C86.4925 48.8123 87.7545 47.2848 87.598 46.3735L86.5619 46.3181C86.5619 46.3181 86.3855 48.1783 85.1493 48.9787C85.1493 48.9787 86.4113 47.3364 86.338 46.322L85.3118 46.4052C85.3118 46.4052 85.1038 48.214 84.0716 48.8717C84.0716 48.8717 85.3375 46.8272 85.078 46.4389C85.078 46.4389 84.141 46.5717 83.9092 46.7262C83.9092 46.7262 83.7289 48.0218 83.0949 48.3507C83.0949 48.3507 83.7982 46.8946 83.6556 46.7935C83.6556 46.7935 82.4808 47.2908 82.0192 47.8574C82.4185 47.3149 82.9525 46.886 83.5684 46.6133C83.1852 46.454 82.7639 46.4099 82.356 46.4865C82.356 46.4865 82.8592 45.9199 83.8537 46.4964C83.8537 46.4964 84.7848 46.1457 84.9433 46.1893C84.9433 46.1893 84.0419 45.482 83.295 45.3592C83.295 45.3592 84.1944 45.1017 85.2147 46.1517L86.2429 46.0467C86.2429 46.0467 85.0998 45.0561 84.4441 44.8897C84.4441 44.8897 85.4009 44.7688 86.5044 46.0407L87.5187 46.0863C87.5187 46.0863 86.6015 45.1512 85.9101 44.8144C85.9101 44.8144 86.8194 44.8937 87.8099 46.1081L88.4855 46.217C88.4855 46.217 87.802 45.5474 87.5881 45.3731C87.3741 45.1987 87.4038 45.1254 87.4038 45.1254C87.955 45.3695 88.4275 45.7618 88.7688 46.2586C88.7688 46.2586 90.1457 46.5776 90.1714 46.4964Z" fill="#191970" />
    <path opacity="0.1" d="M110.301 4.47527C110.301 4.47527 104.255 -0.0495625 102.094 4.85168C102.094 4.85168 101.434 5.53516 101.907 6.35335C101.907 6.35335 102.133 6.0344 102.7 6.56335C102.902 6.74909 103.124 6.91065 103.363 7.04476C103.687 7.22506 104.061 7.29463 104.427 7.24287C104.427 7.24287 106.678 7.67673 109.269 5.23601C109.269 5.23601 110.194 4.94083 110.28 4.76451L108.915 4.52876C108.915 4.52876 108.774 5.53318 108.069 5.98289C108.069 5.98289 108.94 4.58423 108.714 4.4832C108.669 4.4614 107.987 4.38414 107.987 4.38414C107.987 4.38414 107.726 6.13543 106.616 6.79118C106.616 6.79118 107.876 5.26375 107.722 4.35244L106.686 4.29697C106.686 4.29697 106.507 6.15722 105.273 6.95561C105.273 6.95561 106.535 5.31328 106.462 4.29895L105.438 4.38216C105.438 4.38216 105.228 6.19288 104.196 6.85061C104.196 6.85061 105.463 4.80611 105.204 4.41782C105.204 4.41782 104.267 4.55055 104.035 4.70508C104.035 4.70508 103.855 6.00072 103.221 6.32958C103.221 6.32958 103.924 4.87347 103.782 4.77045C103.782 4.77045 102.607 5.26969 102.145 5.83629C102.544 5.29321 103.078 4.86422 103.694 4.59216C103.311 4.4317 102.888 4.3876 102.48 4.46536C102.48 4.46536 102.985 3.89877 103.98 4.47527C103.98 4.47527 104.911 4.12263 105.069 4.1682C105.069 4.1682 104.168 3.46095 103.421 3.33614C103.421 3.33614 104.318 3.08058 105.339 4.12858L106.367 4.02358C106.367 4.02358 105.226 3.03303 104.568 2.86464C104.568 2.86464 105.525 2.74577 106.63 4.01764L107.645 4.06122C107.645 4.06122 106.727 3.12614 106.034 2.79134C106.034 2.79134 106.945 2.87058 107.936 4.08499L108.609 4.19395C108.609 4.19395 107.924 3.53227 107.71 3.36189C107.496 3.19152 107.526 3.11624 107.526 3.11624C108.077 3.36003 108.55 3.75238 108.891 4.24943C108.891 4.24943 110.268 4.55055 110.301 4.47527Z" fill="#191970" />
    <path opacity="0.1" d="M133.406 10.2066C133.406 10.2066 130.989 3.05285 126.43 5.86403C126.43 5.86403 125.499 6.06214 125.426 6.99524C125.426 6.99524 125.792 6.86053 125.955 7.61335C126.015 7.88113 126.106 8.14106 126.226 8.38796C126.39 8.72023 126.657 8.99058 126.987 9.1586C126.987 9.1586 128.596 10.793 132.114 10.2522C132.114 10.2522 133.043 10.5335 133.213 10.4364L132.223 9.46369C132.223 9.46369 131.537 10.2106 130.701 10.1809C130.701 10.1809 132.213 9.52313 132.088 9.31115C132.062 9.26955 131.545 8.81984 131.545 8.81984C131.545 8.81984 130.345 10.1135 129.057 10.0283C129.057 10.0283 130.961 9.48549 131.349 8.64154L130.529 8.00957C130.529 8.00957 129.329 9.43992 127.857 9.39634C127.857 9.39634 129.838 8.7604 130.339 7.88079L129.447 7.36769C129.447 7.36769 128.259 8.74059 127.026 8.69701C127.026 8.69701 129.229 7.73221 129.235 7.26467C129.235 7.26467 128.389 6.8427 128.11 6.83874C128.11 6.83874 127.227 7.80353 126.525 7.71636C126.525 7.71636 127.928 6.91402 127.868 6.74959C127.868 6.74959 126.62 6.49402 125.917 6.70006C126.553 6.47858 127.236 6.42736 127.898 6.55148C127.672 6.2026 127.349 5.92721 126.969 5.75904C126.969 5.75904 127.706 5.57876 128.199 6.61685C128.199 6.61685 129.166 6.85656 129.269 6.98137C129.269 6.98137 128.928 5.88979 128.384 5.36282C128.384 5.36282 129.269 5.66196 129.511 7.11015L130.418 7.60542C130.418 7.60542 130.044 6.13743 129.592 5.62432C129.592 5.62432 130.45 6.06809 130.636 7.74212L131.448 8.35428C131.448 8.35428 131.222 7.0626 130.842 6.39299C130.842 6.39299 131.547 6.97543 131.674 8.53852L132.167 9.01002C132.167 9.01002 131.985 8.07098 131.91 7.80551C131.835 7.54005 131.896 7.52222 131.896 7.52222C132.211 8.03614 132.378 8.62718 132.377 9.22992C132.377 9.22992 133.336 10.2581 133.406 10.2066Z" fill="#191970" />
    <path opacity="0.1" d="M117.632 10.5594C117.632 10.5594 110.123 9.72341 110.743 15.0506C110.743 15.0506 110.52 15.9738 111.338 16.4374C111.338 16.4374 111.371 16.0411 112.13 16.2194C112.398 16.2771 112.672 16.3044 112.946 16.3007C113.317 16.294 113.675 16.1667 113.967 15.9381C113.967 15.9381 116.128 15.1714 117.136 11.754C117.136 11.754 117.782 11.0309 117.768 10.8348L116.471 11.3142C116.471 11.3142 116.867 12.2513 116.471 12.9962C116.471 12.9962 116.512 11.3499 116.273 11.3756C116.223 11.3756 115.597 11.6609 115.597 11.6609C115.597 11.6609 116.263 13.2953 115.641 14.4345C115.641 14.4345 115.954 12.4771 115.357 11.7719L114.436 12.2473C114.436 12.2473 115.229 13.9412 114.565 15.2566C114.565 15.2566 114.823 13.2002 114.242 12.3662L113.4 12.9605C113.4 12.9605 114.137 14.6266 113.58 15.7182C113.58 15.7182 113.638 13.3132 113.216 13.1091C113.216 13.1091 112.475 13.7034 112.354 13.9491C112.354 13.9491 112.855 15.1576 112.477 15.7618C112.477 15.7618 112.344 14.1512 112.17 14.1353C112.17 14.1353 111.409 15.1595 111.298 15.8826C111.367 15.2122 111.61 14.5716 112.003 14.0244C111.592 14.0812 111.207 14.2568 110.894 14.5296C110.894 14.5296 111.041 13.7866 112.19 13.7787C112.19 13.7787 112.814 13.0041 112.982 12.9625C112.982 12.9625 111.847 12.81 111.14 13.0814C111.14 13.0814 111.784 12.4038 113.198 12.7981L114.032 12.1859C114.032 12.1859 112.524 11.8808 111.887 12.0789C111.887 12.0789 112.651 11.4846 114.248 12.0294L115.145 11.552C115.145 11.552 113.88 11.2112 113.113 11.2726C113.113 11.2726 113.939 10.8764 115.407 11.4252L116.045 11.1775C116.045 11.1775 115.116 10.9457 114.842 10.9022C114.569 10.8586 114.559 10.7833 114.559 10.7833C115.158 10.7146 115.764 10.8133 116.31 11.0686C116.31 11.0686 117.646 10.6426 117.632 10.5594Z" fill="#191970" />
    <path opacity="0.1" d="M183.325 68.8373C183.325 68.8373 175.821 68.0013 176.441 73.3226C176.441 73.3226 176.217 74.2458 177.035 74.7093C177.035 74.7093 177.069 74.3131 177.827 74.4894C178.095 74.5491 178.369 74.5763 178.644 74.5706C179.014 74.565 179.373 74.4376 179.664 74.2081C179.664 74.2081 181.825 73.4414 182.824 70.026C182.824 70.026 183.47 69.3009 183.456 69.1068L182.158 69.5842C182.158 69.5842 182.554 70.5233 182.158 71.2682C182.158 71.2682 182.2 69.6199 181.96 69.6476C181.911 69.6476 181.285 69.9309 181.285 69.9309C181.285 69.9309 181.95 71.5653 181.328 72.7044C181.328 72.7044 181.641 70.7491 181.045 70.0418L180.124 70.5193C180.124 70.5193 180.916 72.2131 180.254 73.5286C180.254 73.5286 180.51 71.4722 179.929 70.6362L179.087 71.2305C179.087 71.2305 179.824 72.8966 179.268 73.9862C179.268 73.9862 179.325 71.5812 178.903 71.3791C178.903 71.3791 178.164 71.9734 178.041 72.2191C178.041 72.2191 178.545 73.4276 178.164 74.0318C178.164 74.0318 178.032 72.4212 177.857 72.4053C177.857 72.4053 177.096 73.4295 176.986 74.1526C177.054 73.4822 177.297 72.8415 177.691 72.2944C177.279 72.3502 176.894 72.5259 176.581 72.7995C176.581 72.7995 176.728 72.0547 177.877 72.0467C177.877 72.0467 178.503 71.2721 178.669 71.2325C178.669 71.2325 177.534 71.078 176.827 71.3494C176.827 71.3494 177.471 70.6738 178.887 71.0681L179.719 70.4559C179.719 70.4559 178.23 70.1746 177.582 70.3687C177.582 70.3687 178.347 69.7744 179.943 70.3172L180.841 69.8418C180.841 69.8418 179.575 69.501 178.808 69.5624C178.808 69.5624 179.634 69.1662 181.102 69.715L181.74 69.4654C181.74 69.4654 180.811 69.2336 180.538 69.192C180.264 69.1504 180.254 69.0731 180.254 69.0731C180.853 69.0031 181.46 69.1012 182.006 69.3564C182.006 69.3564 183.345 68.9225 183.325 68.8373Z" fill="#191970" />
    <path opacity="0.1" d="M194.798 75.8464C194.798 75.8464 187.293 75.0123 187.913 80.3316C187.913 80.3316 187.691 81.2548 188.508 81.7183C188.508 81.7183 188.541 81.3221 189.3 81.5004C189.568 81.5586 189.841 81.5852 190.114 81.5797C190.483 81.5721 190.84 81.4457 191.131 81.2191C191.131 81.2191 193.29 80.4524 194.289 77.035C194.289 77.035 194.936 76.3119 194.92 76.1158L193.623 76.5932C193.623 76.5932 194.019 77.5323 193.623 78.2772C193.623 78.2772 193.664 76.6309 193.425 76.6566C193.375 76.6566 192.749 76.9399 192.749 76.9399C192.749 76.9399 193.415 78.5743 192.793 79.7135C192.793 79.7135 193.106 77.7581 192.509 77.0529L191.588 77.5283C191.588 77.5283 192.381 79.2222 191.719 80.5376C191.719 80.5376 191.975 78.4812 191.394 77.6472L190.552 78.2415C190.552 78.2415 191.289 79.9076 190.734 80.9992C190.734 80.9992 190.79 78.5922 190.368 78.3901C190.368 78.3901 189.629 78.9844 189.506 79.2301C189.506 79.2301 190.009 80.4386 189.629 81.0428C189.629 81.0428 189.496 79.4322 189.322 79.4163C189.322 79.4163 188.561 80.4405 188.452 81.1636C188.521 80.4935 188.763 79.853 189.156 79.3054C188.744 79.3622 188.359 79.5378 188.046 79.8105C188.046 79.8105 188.195 79.0657 189.344 79.0597C189.344 79.0597 189.968 78.2851 190.136 78.2435C190.136 78.2435 189.001 78.0909 188.294 78.3624C188.294 78.3624 188.938 77.6848 190.354 78.0791L191.186 77.4669C191.186 77.4669 189.696 77.1856 189.049 77.3797C189.049 77.3797 189.813 76.7854 191.41 77.3302L192.307 76.8528C192.307 76.8528 191.042 76.512 190.275 76.5734C190.275 76.5734 191.101 76.1772 192.569 76.726L193.207 76.4783C193.207 76.4783 192.278 76.2465 192.006 76.203C191.735 76.1594 191.721 76.0841 191.721 76.0841C192.32 76.0154 192.926 76.1141 193.472 76.3694C193.472 76.3694 194.817 75.9315 194.798 75.8464Z" fill="#191970" />
    <path opacity="0.1" d="M169.327 16.8079C169.327 16.8079 163.28 12.285 161.119 17.1843C161.119 17.1843 160.459 17.8678 160.933 18.686C160.933 18.686 161.159 18.367 161.725 18.896C161.926 19.0827 162.148 19.2449 162.387 19.3794C162.71 19.5594 163.084 19.6289 163.451 19.5775C163.451 19.5775 165.701 20.0113 168.294 17.5726C168.294 17.5726 169.218 17.2754 169.305 17.1011L167.944 16.8554C167.944 16.8554 167.801 17.8599 167.098 18.3096C167.098 18.3096 167.968 16.9109 167.742 16.8099C167.696 16.7881 167.017 16.7108 167.017 16.7108C167.017 16.7108 166.761 18.4581 165.652 19.1179C165.652 19.1179 166.914 17.5904 166.757 16.6791L165.721 16.6236C165.721 16.6236 165.545 18.4839 164.309 19.2843C164.309 19.2843 165.572 17.6419 165.497 16.6276L164.471 16.7108C164.471 16.7108 164.273 18.5196 163.231 19.1773C163.231 19.1773 164.499 17.1328 164.237 16.7445C164.237 16.7445 163.3 16.8772 163.068 17.0318C163.068 17.0318 162.89 18.3274 162.256 18.6563C162.256 18.6563 162.957 17.2001 162.815 17.0991C162.815 17.0991 161.64 17.5964 161.178 18.163C161.578 17.6205 162.112 17.1916 162.728 16.9188C162.344 16.7596 161.923 16.7155 161.515 16.792C161.515 16.792 162.02 16.2254 163.015 16.8019C163.015 16.8019 163.944 16.4513 164.103 16.4949C164.103 16.4949 163.201 15.7876 162.454 15.6648C162.454 15.6648 163.354 15.4073 164.374 16.4572L165.402 16.3522C165.402 16.3522 164.261 15.3617 163.603 15.1953C163.603 15.1953 164.56 15.0744 165.664 16.3463L166.68 16.3919C166.68 16.3919 165.761 15.4568 165.069 15.12C165.069 15.12 165.981 15.1992 166.969 16.4137L167.645 16.5226C167.645 16.5226 166.961 15.853 166.747 15.6787C166.533 15.5043 166.565 15.4469 166.565 15.4469C167.115 15.6913 167.587 16.0836 167.928 16.5801C167.928 16.5801 169.301 16.8891 169.327 16.8079Z" fill="#191970" />
    <path opacity="0.1" d="M173.998 49.4603C173.998 49.4603 171.914 42.2035 167.227 44.8087C167.227 44.8087 166.288 44.9533 166.171 45.8923C166.171 45.8923 166.543 45.7754 166.672 46.5342C166.72 46.8068 166.8 47.0728 166.91 47.3266C167.057 47.668 167.311 47.9519 167.635 48.1349C167.635 48.1349 169.168 49.8386 172.707 49.4583C172.707 49.4583 173.622 49.7792 173.796 49.692L172.859 48.6738C172.859 48.6738 172.14 49.3909 171.308 49.3236C171.308 49.3236 172.845 48.7292 172.726 48.5173C172.703 48.4737 172.207 48.0002 172.207 48.0002C172.207 48.0002 170.951 49.2404 169.668 49.0957C169.668 49.0957 171.595 48.6401 172.019 47.8199L171.227 47.1503C171.227 47.1503 169.963 48.5252 168.495 48.4182C168.495 48.4182 170.492 47.8694 171.042 47.0156L170.175 46.4629C170.175 46.4629 168.917 47.7803 167.696 47.6812C167.696 47.6812 169.941 46.8155 169.969 46.3499C169.969 46.3499 169.141 45.8903 168.861 45.8745C168.861 45.8745 167.936 46.7977 167.233 46.6788C167.233 46.6788 168.671 45.9399 168.62 45.7734C168.62 45.7734 167.383 45.4624 166.672 45.6348C167.316 45.4438 167.999 45.424 168.653 45.5773C168.444 45.2189 168.134 44.9296 167.762 44.7453C167.762 44.7453 168.507 44.5967 168.95 45.6566C168.95 45.6566 169.903 45.9379 170.002 46.0686C170.002 46.0686 169.711 44.9612 169.19 44.4124C169.19 44.4124 170.062 44.7492 170.238 46.2073L171.122 46.7442C171.122 46.7442 170.813 45.2584 170.385 44.7354C170.385 44.7354 171.221 45.2168 171.334 46.8967L172.126 47.5445C172.126 47.5445 171.958 46.2449 171.609 45.5635C171.609 45.5635 172.289 46.1776 172.344 47.7427L172.816 48.2379C172.816 48.2379 172.677 47.291 172.617 47.0215C172.558 46.7521 172.617 46.7145 172.617 46.7145C172.911 47.2414 173.051 47.8396 173.024 48.442C173.024 48.442 173.927 49.5078 173.998 49.4603Z" fill="#191970" />
    <path opacity="0.1" d="M127.557 65.8123C127.557 65.8123 123.51 59.4371 119.751 63.2527C119.751 63.2527 118.892 63.6489 119.042 64.5899C119.042 64.5899 119.369 64.372 119.706 65.0654C119.827 65.3111 119.977 65.5413 120.154 65.7508C120.39 66.0369 120.713 66.2373 121.075 66.3214C121.075 66.3214 123.026 67.5259 126.315 66.1629C126.315 66.1629 127.284 66.2144 127.426 66.0817L126.237 65.3685C126.237 65.3685 125.748 66.26 124.93 66.4284C124.93 66.4284 126.241 65.4378 126.065 65.2556C126.031 65.2199 125.421 64.9069 125.421 64.9069C125.421 64.9069 124.563 66.4482 123.292 66.672C123.292 66.672 125.013 65.6914 125.191 64.7841L124.243 64.3661C124.243 64.3661 123.416 66.0401 121.978 66.3471C121.978 66.3471 123.741 65.2595 124.029 64.2848L123.038 63.9996C123.038 63.9996 122.202 65.6181 121.003 65.8657C121.003 65.8657 122.913 64.4037 122.808 63.948C122.808 63.948 121.885 63.74 121.62 63.8034C121.62 63.8034 120.992 64.9505 120.282 65.0337C120.282 65.0337 121.455 63.9203 121.358 63.7737C121.358 63.7737 120.084 63.8232 119.45 64.1897C120.016 63.8234 120.667 63.6116 121.34 63.5756C121.039 63.2905 120.661 63.0997 120.253 63.0268C120.253 63.0268 120.924 62.6762 121.639 63.5677C121.639 63.5677 122.63 63.5677 122.767 63.6667C122.767 63.6667 122.172 62.6762 121.52 62.3057C121.52 62.3057 122.452 62.385 123.03 63.7341L124.031 63.9996C124.031 63.9996 123.315 62.6623 122.759 62.28C122.759 62.28 123.696 62.5058 124.276 64.0887L125.211 64.4849C125.211 64.4849 124.684 63.2864 124.155 62.7257C124.155 62.7257 124.979 63.1219 125.473 64.6097L126.067 64.9525C126.067 64.9525 125.671 64.0828 125.53 63.8431C125.39 63.6033 125.445 63.5479 125.445 63.5479C125.874 63.9713 126.176 64.5056 126.319 65.0911C126.319 65.0911 127.503 65.8796 127.557 65.8123Z" fill="#191970" />
    <path d="M154.157 33.2391C154.157 33.2391 150.308 26.7431 146.431 30.4398C146.431 30.4398 145.559 30.8163 145.682 31.7553C145.682 31.7553 146.013 31.5453 146.33 32.2486C146.443 32.4986 146.586 32.7341 146.756 32.9499C146.983 33.2421 147.301 33.451 147.659 33.5442C147.659 33.5442 149.571 34.8082 152.901 33.5442C152.901 33.5442 153.868 33.6255 154.014 33.4967L152.851 32.7478C152.851 32.7478 152.336 33.6215 151.512 33.7661C151.512 33.7661 152.853 32.8092 152.685 32.629C152.649 32.5913 152.051 32.2585 152.051 32.2585C152.051 32.2585 151.146 33.774 149.872 33.9583C149.872 33.9583 151.623 33.0311 151.827 32.1317L150.892 31.6919C150.892 31.6919 150.014 33.3422 148.566 33.6057C148.566 33.6057 150.363 32.5735 150.68 31.6087L149.701 31.2917C149.701 31.2917 148.814 32.8766 147.609 33.0945C147.609 33.0945 149.563 31.6919 149.472 31.2343C149.472 31.2343 148.556 30.9965 148.283 31.052C148.283 31.052 147.619 32.1793 146.908 32.2407C146.908 32.2407 148.115 31.1669 148.023 31.0164C148.023 31.0164 146.748 31.0263 146.104 31.3729C146.681 31.0251 147.338 30.8338 148.012 30.8182C147.719 30.5237 147.346 30.3213 146.94 30.2358C146.94 30.2358 147.623 29.905 148.327 30.8182C148.327 30.8182 149.317 30.8519 149.45 30.953C149.45 30.953 148.889 29.9624 148.247 29.5543C148.247 29.5543 149.174 29.6613 149.711 31.0282L150.702 31.3254C150.702 31.3254 150.03 29.9664 149.484 29.5662C149.484 29.5662 150.415 29.8217 150.946 31.4205L151.867 31.8504C151.867 31.8504 151.377 30.636 150.876 30.0674C150.876 30.0674 151.686 30.4894 152.136 31.9911L152.717 32.3516C152.717 32.3516 152.344 31.47 152.213 31.2263C152.083 30.9827 152.138 30.9292 152.138 30.9292C152.553 31.3657 152.839 31.9088 152.964 32.4982C152.964 32.4982 154.099 33.3045 154.157 33.2391Z" fill="#191970" />
    <path d="M129.804 46.8984C129.804 46.8984 130.002 39.3504 124.758 40.4143C124.758 40.4143 123.819 40.2697 123.423 41.1295C123.423 41.1295 123.819 41.1294 123.708 41.8922C123.672 42.1641 123.668 42.4394 123.696 42.7123C123.732 43.0825 123.889 43.4306 124.142 43.7029C124.142 43.7029 125.087 45.791 128.576 46.5002C128.576 46.5002 129.35 47.0846 129.544 47.0529L128.95 45.8009C128.95 45.8009 128.049 46.2645 127.274 45.9495C127.274 45.9495 128.918 45.8524 128.873 45.6107C128.873 45.5612 128.532 44.9589 128.532 44.9589C128.532 44.9589 126.959 45.7613 125.78 45.2343C125.78 45.2343 127.761 45.3829 128.409 44.7311L127.857 43.8535C127.857 43.8535 126.236 44.7806 124.869 44.2338C124.869 44.2338 126.939 44.317 127.724 43.6692L127.064 42.8768C127.064 42.8768 125.465 43.7524 124.332 43.2889C124.332 43.2889 126.733 43.1442 126.908 42.7064C126.908 42.7064 126.258 42.019 125.996 41.914C125.996 41.914 124.835 42.5083 124.201 42.1874C124.201 42.1874 125.786 41.9219 125.796 41.7456C125.796 41.7456 124.713 41.074 123.982 41.0244C124.656 41.0365 125.315 41.225 125.893 41.5712C125.803 41.1663 125.596 40.7965 125.299 40.5074C125.299 40.5074 126.054 40.5926 126.157 41.7357C126.157 41.7357 126.983 42.2943 127.036 42.4489C127.036 42.4489 127.094 41.3058 126.763 40.6243C126.763 40.6243 127.492 41.2087 127.219 42.6509L127.898 43.4315C127.898 43.4315 128.053 41.9219 127.805 41.2939C127.805 41.2939 128.455 42.0051 128.055 43.6415L128.603 44.4953C128.603 44.4953 128.837 43.2056 128.712 42.4469C128.712 42.4469 129.172 43.2393 128.752 44.7469L129.053 45.3611C129.053 45.3611 129.206 44.4161 129.225 44.1407C129.245 43.8653 129.321 43.8475 129.321 43.8475C129.44 44.4385 129.393 45.051 129.184 45.6166C129.184 45.6166 129.717 46.9242 129.804 46.8984Z" fill="#191970" />
    <path opacity="0.1" d="M138.473 142.808C141.419 142.808 143.808 142.404 143.808 141.906C143.808 141.408 141.419 141.005 138.473 141.005C135.526 141.005 133.138 141.408 133.138 141.906C133.138 142.404 135.526 142.808 138.473 142.808Z" fill="#191970" />
    <path opacity="0.1" d="M119.025 156.493C121.971 156.493 124.36 156.09 124.36 155.592C124.36 155.094 121.971 154.69 119.025 154.69C116.078 154.69 113.689 155.094 113.689 155.592C113.689 156.09 116.078 156.493 119.025 156.493Z" fill="#191970" />
    <path opacity="0.1" d="M18.4523 149.482C21.3988 149.482 23.7874 149.078 23.7874 148.581C23.7874 148.083 21.3988 147.679 18.4523 147.679C15.5058 147.679 13.1172 148.083 13.1172 148.581C13.1172 149.078 15.5058 149.482 18.4523 149.482Z" fill="#191970" />
    <path opacity="0.1" d="M159.49 155.592C162.437 155.592 164.825 155.188 164.825 154.69C164.825 154.193 162.437 153.789 159.49 153.789C156.544 153.789 154.155 154.193 154.155 154.69C154.155 155.188 156.544 155.592 159.49 155.592Z" fill="#191970" />
    <path d="M165.045 144.601C169.445 144.601 173.011 143.997 173.011 143.253C173.011 142.509 169.445 141.906 165.045 141.906C160.646 141.906 157.079 142.509 157.079 143.253C157.079 143.997 160.646 144.601 165.045 144.601Z" fill="#191970" />
    <path d="M168.348 141.048C168.712 140.753 168.977 140.353 169.107 139.903C169.206 139.448 169.012 138.903 168.578 138.736C168.091 138.55 167.57 138.887 167.173 139.228C166.777 139.569 166.328 139.959 165.81 139.887C166.076 139.646 166.274 139.341 166.387 139C166.499 138.66 166.522 138.296 166.452 137.944C166.43 137.798 166.368 137.661 166.274 137.548C166.003 137.259 165.513 137.383 165.188 137.611C164.158 138.336 163.871 139.735 163.865 140.995C163.762 140.541 163.849 140.068 163.847 139.608C163.845 139.149 163.716 138.618 163.322 138.376C163.08 138.241 162.807 138.173 162.53 138.178C162.066 138.162 161.549 138.208 161.234 138.546C160.838 138.966 160.943 139.674 161.284 140.131C161.624 140.589 162.145 140.884 162.625 141.205C163.009 141.434 163.336 141.746 163.584 142.118C163.612 142.17 163.635 142.224 163.653 142.281H166.557C167.208 141.953 167.81 141.539 168.348 141.048Z" fill="#191970" />
    <path d="M14.8701 144.391C14.8701 144.391 17.9111 144.298 18.8323 143.644C19.7535 142.99 23.5137 142.211 23.7415 143.259C23.9693 144.307 28.3139 148.468 24.8786 148.495C21.4434 148.523 16.8968 147.961 15.9815 147.402C15.0662 146.843 14.8701 144.391 14.8701 144.391Z" fill="#A8A8A8" />
    <path opacity="0.2" d="M24.9361 148.131C21.5009 148.159 16.9542 147.596 16.039 147.037C15.3416 146.613 15.0643 145.09 14.9712 144.387H14.8701C14.8701 144.387 15.0682 146.841 15.9776 147.398C16.8869 147.955 21.4394 148.519 24.8747 148.492C25.8652 148.492 26.208 148.131 26.1901 147.608C26.0515 147.927 25.6731 148.125 24.9361 148.131Z" fill="black" />
  </g>
  <defs>
    <linearGradient id="paint0_linear" x1="44.1763" y1="85.8646" x2="106.012" y2="85.8646" gradientUnits="userSpaceOnUse">
      <stop stop-color="#808080" stop-opacity="0.25" />
      <stop offset="0.54" stop-color="#808080" stop-opacity="0.12" />
      <stop offset="1" stop-color="#808080" stop-opacity="0.1" />
    </linearGradient>
    <clipPath id="clip0">
      <rect width="200" height="156.493" fill="white" />
    </clipPath>
  </defs>
</svg>
