<svg width="24" height="24" viewBox="0 0 24 24" fill="none" xmlns="http://www.w3.org/2000/svg">
<path d="M5.12109 12.3984V15.2109L5.82422 16.6172L6.52734 15.2109V12.3984H5.12109Z" fill="#A94525"/>
<path d="M5.12109 15.2109H6.52734V18.0234H5.12109V15.2109Z" fill="#D45223"/>
<path d="M9.55978 11.6719H9.57422C9.96253 11.6719 10.2773 11.3571 10.2773 10.9688C10.2773 10.8407 10.2426 10.721 10.1827 10.6176L6.43275 4.12538C6.31116 3.91519 6.08447 3.77344 5.82422 3.77344C5.56397 3.77344 5.33728 3.91519 5.21569 4.12538L5.12109 4.28916L8.16797 13.8047H9.57422C9.96253 13.8047 10.2773 13.4899 10.2773 13.1016C10.2773 12.9735 10.2426 12.8538 10.1827 12.7504L9.55978 11.6719Z" fill="#468943"/>
<path d="M8.15353 11.672H8.16797C8.55628 11.672 8.87109 11.3572 8.87109 10.9689C8.87109 10.8408 8.83631 10.7211 8.7765 10.6177L5.12109 4.28931L1.46569 10.6177C1.40587 10.7211 1.37109 10.8408 1.37109 10.9689C1.37109 11.3572 1.68591 11.672 2.07422 11.672H2.08866L1.46569 12.7505C1.40587 12.8539 1.37109 12.9737 1.37109 13.1017C1.37109 13.49 1.68591 13.8049 2.07422 13.8049H8.16797C8.55628 13.8049 8.87109 13.49 8.87109 13.1017C8.87109 12.9737 8.83631 12.8539 8.7765 12.7505L8.15353 11.672Z" fill="#5B9B40"/>
<path d="M17.4727 12.3984V15.2109L18.1758 16.6172L18.8789 15.2109V12.3984H17.4727Z" fill="#A94525"/>
<path d="M17.4727 15.2109H18.8789V18.0234H17.4727V15.2109Z" fill="#D45223"/>
<path d="M21.9113 11.6719H21.9258C22.3141 11.6719 22.6289 11.3571 22.6289 10.9688C22.6289 10.8407 22.5941 10.721 22.5343 10.6176L18.7843 4.12538C18.6627 3.91519 18.436 3.77344 18.1758 3.77344C17.9155 3.77344 17.6888 3.91519 17.5673 4.12538L17.4727 4.28916L20.5195 13.8047H21.9258C22.3141 13.8047 22.6289 13.4899 22.6289 13.1016C22.6289 12.9735 22.5941 12.8538 22.5343 12.7504L21.9113 11.6719Z" fill="#468943"/>
<path d="M20.5051 11.672H20.5195C20.9078 11.672 21.2227 11.3572 21.2227 10.9689C21.2227 10.8408 21.1879 10.7211 21.1281 10.6177L17.4727 4.28931L13.8173 10.6177C13.7574 10.7211 13.7227 10.8408 13.7227 10.9689C13.7227 11.3572 14.0375 11.672 14.4258 11.672H14.4402L13.8173 12.7505C13.7574 12.8539 13.7227 12.9737 13.7227 13.1017C13.7227 13.49 14.0375 13.8049 14.4258 13.8049H20.5195C20.9078 13.8049 21.2227 13.49 21.2227 13.1017C21.2227 12.9737 21.1879 12.8539 21.1281 12.7505L20.5051 11.672Z" fill="#5B9B40"/>
<path d="M22.2422 16.6172L20.8359 20.1328L23.6484 18.7266V16.6172H22.2422Z" fill="#5B9B40"/>
<path d="M0.351562 16.6172V21.5391L1.28906 22.4766H22.2422V16.6172H0.351562Z" fill="#70AE3E"/>
<path d="M20.8359 21.5391L22.2422 23.6484H23.6484V18.7266H22.2422L20.8359 21.5391Z" fill="#70AE3E"/>
<path d="M5.12109 18.7266C4.73278 18.7266 4.41797 19.0414 4.41797 19.4297C4.41797 19.818 4.73278 20.1328 5.12109 20.1328C5.50941 20.1328 5.82422 20.4476 5.82422 20.8359C5.82422 21.2243 5.50941 21.5391 5.12109 21.5391H0.351562V23.6484H22.2422V18.7266H5.12109Z" fill="#9DCB3B"/>
<path d="M12 0.351562V4.57031C13.165 4.57031 14.1094 3.62592 14.1094 2.46094C14.1094 1.29595 13.165 0.351562 12 0.351562Z" fill="#FFA630"/>
<path d="M12.7031 2.46094C12.7031 1.29595 12.3883 0.351562 12 0.351562C10.835 0.351562 9.89062 1.29595 9.89062 2.46094C9.89062 3.62592 10.835 4.57031 12 4.57031C12.3883 4.57031 12.7031 3.62592 12.7031 2.46094Z" fill="#FFC938"/>
<path d="M23.6484 16.2656H19.2305V15.5271C19.9182 15.387 20.4612 14.844 20.6013 14.1562H21.9258C22.5074 14.1562 22.9805 13.6831 22.9805 13.1016C22.9805 12.9172 22.9314 12.7349 22.8388 12.5745L22.4423 11.8881C22.7633 11.7071 22.9805 11.3628 22.9805 10.9688C22.9805 10.7843 22.9315 10.6021 22.8388 10.4417L19.0886 3.94931C18.9004 3.624 18.5506 3.42188 18.1758 3.42188C17.8009 3.42188 17.4511 3.624 17.2628 3.94955L13.5129 10.4415C13.4201 10.602 13.371 10.7843 13.371 10.9688C13.371 11.3628 13.5883 11.7071 13.9093 11.8881L13.5128 12.5744C13.4201 12.7349 13.371 12.9172 13.371 13.1016C13.371 13.6831 13.8441 14.1562 14.4257 14.1562H15.7501C15.8903 14.844 16.4332 15.387 17.121 15.5271V16.2656H6.87881V15.5271C7.56656 15.387 8.10952 14.844 8.24967 14.1562H9.57413C10.1557 14.1562 10.6288 13.6831 10.6288 13.1016C10.6288 12.9172 10.5798 12.7349 10.4871 12.5745L10.0906 11.8881C10.4116 11.7071 10.6289 11.3628 10.6289 10.9688C10.6289 10.7843 10.5798 10.6021 10.4872 10.4417L6.73706 3.94931C6.54886 3.624 6.19908 3.42188 5.82422 3.42188C5.44931 3.42188 5.09958 3.624 4.91123 3.94955L1.16137 10.4415C1.06861 10.602 1.01953 10.7843 1.01953 10.9688C1.01953 11.3628 1.23675 11.7071 1.55775 11.8881L1.16133 12.5744C1.06856 12.7349 1.01948 12.9172 1.01948 13.1016C1.01948 13.6831 1.49259 14.1562 2.07417 14.1562H3.39862C3.53878 14.844 4.08173 15.387 4.76948 15.5271V16.2656H0.351562C0.157406 16.2656 0 16.423 0 16.6172V23.6484C0 23.8426 0.157406 24 0.351562 24H23.6484C23.8426 24 24 23.8426 24 23.6484V16.6172C24 16.423 23.8426 16.2656 23.6484 16.2656V16.2656ZM19.2305 14.7989V14.1562H19.8731C19.767 14.4554 19.5296 14.6928 19.2305 14.7989ZM14.0742 13.1016C14.0742 13.0397 14.0902 12.9808 14.1217 12.9262L14.7447 11.8477C14.8075 11.739 14.8075 11.6049 14.7447 11.4961C14.6819 11.3873 14.5658 11.3203 14.4402 11.3203H14.4258C14.2319 11.3203 14.0742 11.1626 14.0742 10.9688C14.0742 10.9069 14.0902 10.848 14.1217 10.7934L17.8716 4.30139C17.9346 4.19264 18.0511 4.125 18.1758 4.125C18.3005 4.125 18.4171 4.19259 18.4799 4.3012L22.23 10.7935C22.2614 10.8479 22.2773 10.9069 22.2773 10.9688C22.2773 11.1626 22.1197 11.3203 21.9258 11.3203H21.9113C21.7857 11.3203 21.6697 11.3873 21.6068 11.4961C21.544 11.6049 21.5441 11.739 21.6069 11.8477L22.2299 12.9263C22.2614 12.9807 22.2773 13.0397 22.2773 13.1016C22.2773 13.2954 22.1196 13.4531 21.9257 13.4531H14.4257C14.2319 13.4531 14.0742 13.2954 14.0742 13.1016V13.1016ZM16.4784 14.1562H17.1211V14.7989C16.8219 14.6928 16.5846 14.4554 16.4784 14.1562ZM17.8242 14.1562H18.5273V16.2656H17.8242V14.1562ZM6.87891 14.7989V14.1562H7.52156C7.41544 14.4554 7.17806 14.6928 6.87891 14.7989ZM1.72266 13.1016C1.72266 13.0397 1.73859 12.9808 1.77014 12.9262L2.39311 11.8477C2.45592 11.739 2.45597 11.6049 2.39316 11.4961C2.33034 11.3873 2.21428 11.3203 2.08866 11.3203H2.07422C1.88034 11.3203 1.72266 11.1626 1.72266 10.9688C1.72266 10.9069 1.73859 10.848 1.77014 10.7934L5.52005 4.30139C5.583 4.19264 5.69953 4.125 5.82427 4.125C5.94895 4.125 6.06553 4.19259 6.12834 4.3012L9.87839 10.7935C9.90984 10.8479 9.92578 10.9069 9.92578 10.9688C9.92578 11.1626 9.76809 11.3203 9.57422 11.3203H9.55978C9.43416 11.3203 9.31809 11.3873 9.25528 11.4961C9.19247 11.6049 9.19252 11.739 9.25533 11.8477L9.87834 12.9263C9.9098 12.9807 9.92573 13.0397 9.92573 13.1016C9.92573 13.2954 9.76805 13.4531 9.57417 13.4531H2.07417C1.88034 13.4531 1.72266 13.2954 1.72266 13.1016V13.1016ZM4.12688 14.1562H4.76953V14.7989C4.47038 14.6928 4.233 14.4554 4.12688 14.1562ZM5.47266 14.1562H6.17578V16.2656H5.47266V14.1562ZM0.703125 23.2969V21.8906H5.12109C5.70267 21.8906 6.17578 21.4175 6.17578 20.8359C6.17578 20.2544 5.70267 19.7812 5.12109 19.7812C4.92722 19.7812 4.76953 19.6236 4.76953 19.4297C4.76953 19.2358 4.92722 19.0781 5.12109 19.0781C5.31525 19.0781 5.47266 18.9208 5.47266 18.7266C5.47266 18.5324 5.31525 18.375 5.12109 18.375C4.53952 18.375 4.06641 18.8482 4.06641 19.4297C4.06641 20.0112 4.53952 20.4844 5.12109 20.4844C5.31497 20.4844 5.47266 20.6421 5.47266 20.8359C5.47266 21.0298 5.31497 21.1875 5.12109 21.1875H0.703125V16.9688H23.2969V18.375H6.52734C6.33319 18.375 6.17578 18.5324 6.17578 18.7266C6.17578 18.9208 6.33319 19.0781 6.52734 19.0781H23.2969V23.2969H0.703125Z" fill="black"/>
<path d="M7.78125 21.1875C7.58709 21.1875 7.42969 21.3449 7.42969 21.5391V22.2422C7.42969 22.4364 7.58709 22.5938 7.78125 22.5938C7.97541 22.5938 8.13281 22.4364 8.13281 22.2422V21.5391C8.13281 21.3449 7.97541 21.1875 7.78125 21.1875Z" fill="black"/>
<path d="M9.1875 20.4844C8.99334 20.4844 8.83594 20.6417 8.83594 20.8359V21.5391C8.83594 21.7333 8.99334 21.8906 9.1875 21.8906C9.38166 21.8906 9.53906 21.7333 9.53906 21.5391V20.8359C9.53906 20.6417 9.38166 20.4844 9.1875 20.4844Z" fill="black"/>
<path d="M22.2422 20.4844C22.048 20.4844 21.8906 20.6417 21.8906 20.8359V21.5391C21.8906 21.7333 22.048 21.8906 22.2422 21.8906C22.4363 21.8906 22.5938 21.7333 22.5938 21.5391V20.8359C22.5938 20.6417 22.4363 20.4844 22.2422 20.4844Z" fill="black"/>
<path d="M20.8359 21.1875C20.6418 21.1875 20.4844 21.3449 20.4844 21.5391V22.2422C20.4844 22.4364 20.6418 22.5938 20.8359 22.5938C21.0301 22.5938 21.1875 22.4364 21.1875 22.2422V21.5391C21.1875 21.3449 21.0301 21.1875 20.8359 21.1875Z" fill="black"/>
<path d="M19.4297 20.4844C19.2355 20.4844 19.0781 20.6417 19.0781 20.8359V21.5391C19.0781 21.7333 19.2355 21.8906 19.4297 21.8906C19.6238 21.8906 19.7812 21.7333 19.7812 21.5391V20.8359C19.7812 20.6417 19.6238 20.4844 19.4297 20.4844Z" fill="black"/>
<path d="M12 4.92188C13.357 4.92188 14.4609 3.81787 14.4609 2.46094C14.4609 1.104 13.357 0 12 0C10.643 0 9.53906 1.104 9.53906 2.46094C9.53906 3.81787 10.643 4.92188 12 4.92188ZM12 0.703125C12.9693 0.703125 13.7578 1.49166 13.7578 2.46094C13.7578 3.43022 12.9693 4.21875 12 4.21875C11.0307 4.21875 10.2422 3.43022 10.2422 2.46094C10.2422 1.49166 11.0307 0.703125 12 0.703125Z" fill="black"/>
</svg>
