<svg width="44" height="44" viewBox="0 0 44 44" fill="none" xmlns="http://www.w3.org/2000/svg">
<rect x="0.5" y="0.5" width="43" height="43" rx="21.5" fill="white"/>
<path d="M31.9514 17.9288C31.9514 12.4541 27.4871 8 21.9997 8C16.5123 8 12.048 12.4541 12.048 17.9288C12.048 21.0837 13.5305 23.8996 15.8369 25.7196V35.4531C15.8369 35.6351 15.9275 35.8052 16.0784 35.9068C16.2294 36.0084 16.4211 36.0283 16.5897 35.9598L21.9997 33.7622L27.4098 35.9598C27.4761 35.9868 27.546 36 27.6155 36C27.7228 36 27.8294 35.9684 27.921 35.9068C28.0719 35.8051 28.1625 35.6351 28.1625 35.4531V25.7196C30.4689 23.8996 31.9514 21.0837 31.9514 17.9288ZM27.0687 34.6407L22.2055 32.6653C22.0735 32.6117 21.9259 32.6117 21.7939 32.6653L16.9306 34.6407V26.4706C18.4162 27.3515 20.1498 27.8577 21.9997 27.8577C23.8496 27.8577 25.5832 27.3515 27.0687 26.4706V34.6407ZM21.9997 26.764C17.1154 26.764 13.1417 22.8006 13.1417 17.9288C13.1417 13.0571 17.1154 9.09375 21.9997 9.09375C26.8839 9.09375 30.8576 13.0572 30.8576 17.9288C30.8576 22.8005 26.884 26.764 21.9997 26.764Z" fill="#37B4B4"/>
<path d="M21.9985 10.5059C17.8967 10.5059 14.5597 13.8354 14.5597 17.928C14.5597 22.0206 17.8967 25.3502 21.9985 25.3502C26.1003 25.3502 29.4374 22.0206 29.4374 17.928C29.4374 13.8354 26.1004 10.5059 21.9985 10.5059ZM21.9985 24.2564C18.4998 24.2564 15.6534 21.4175 15.6534 17.928C15.6534 14.4385 18.4998 11.5996 21.9985 11.5996C25.4973 11.5996 28.3436 14.4385 28.3436 17.928C28.3436 21.4175 25.4973 24.2564 21.9985 24.2564Z" fill="#37B4B4"/>
<path d="M24.9234 16.4665L23.4911 16.237L22.829 14.9478C22.6683 14.6348 22.3498 14.4403 21.9979 14.4403C21.6461 14.4403 21.3276 14.6348 21.1669 14.9478L20.5048 16.237L19.0725 16.4665C18.7244 16.5224 18.4405 16.7653 18.3317 17.1007C18.2229 17.436 18.31 17.7994 18.5591 18.0489L19.5813 19.0731L19.3576 20.5018C19.3032 20.8497 19.4462 21.1945 19.731 21.4018C19.8944 21.5206 20.0865 21.5812 20.2801 21.5812C20.4238 21.5812 20.5682 21.5478 20.7021 21.4801L21.9979 20.825L23.2937 21.4801C23.608 21.639 23.98 21.609 24.2649 21.4018C24.5496 21.1946 24.6927 20.8498 24.6382 20.5019L24.4146 19.0731L25.4367 18.0489C25.6858 17.7994 25.7729 17.436 25.6641 17.1006C25.5554 16.7653 25.2715 16.5223 24.9234 16.4665ZM23.4443 18.497C23.3211 18.6205 23.2641 18.7955 23.2911 18.9679L23.5096 20.3636L22.2446 19.7241C22.1671 19.6849 22.0825 19.6653 21.9979 19.6653C21.9133 19.6653 21.8287 19.6848 21.7511 19.7241L20.4862 20.3636L20.7047 18.9679C20.7317 18.7955 20.6747 18.6205 20.5515 18.497L19.5535 17.4971L20.9513 17.2731C21.1232 17.2456 21.2717 17.1378 21.3512 16.9829L21.9979 15.7237L22.6446 16.9829C22.7241 17.1378 22.8726 17.2456 23.0445 17.2731L24.4423 17.4971L23.4443 18.497Z" fill="#37B4B4"/>
<rect x="0.5" y="0.5" width="43" height="43" rx="21.5" stroke="#37B4B4"/>
</svg>
