<svg width="163" height="104" viewBox="0 0 163 104" fill="none" xmlns="http://www.w3.org/2000/svg">
<path d="M125.457 78.5544C132.162 61.5666 130.133 42.5979 121.486 28.0295L30.968 40.7314L117.713 22.4099C81.1538 -23.7934 9.99617 6.85271 16.8554 65.1877L125.457 78.5544Z" fill="#F2F2F2"/>
<path d="M129.449 59.776H14.1272V96.1692H129.449V59.776Z" fill="#00B9B6"/>
<path d="M46.2898 55.3378C47.3245 56.1521 47.7028 56.415 47.9232 56.3816C58.5988 59.5322 49.24 63.2246 44.053 56.957L46.2898 55.3378Z" fill="#FFB8B8"/>
<path d="M11.0627 88.6243V96.0213L16.3178 95.7255L14.8582 88.0325L11.0627 88.6243Z" fill="#FFB8B8"/>
<path d="M40.2572 88.6243V96.0213L35.002 95.7255L36.4618 88.0325L40.2572 88.6243Z" fill="#FFB8B8"/>
<path d="M24.2002 50.4557L32.0829 50.1598C50.2673 69.4801 43.3904 65.0735 42.8852 91.583L33.2507 88.6242L35.2944 70.2797C35.2954 70.279 35.8335 69.9154 35.3862 69.9071C32.5891 70.8812 30.5482 58.8197 24.4921 60.2197C17.6006 59.8856 16.4787 70.2464 13.6899 70.2797L15.7336 88.6242L6.09913 91.583C5.02042 62.4517 -0.266373 69.0325 16.9014 50.1598L24.2002 50.4557Z" fill="#2F2E41"/>
<path d="M12.5218 93.6542C12.5218 93.6542 11.354 91.2872 9.89425 92.4707C8.43448 93.6542 4.93105 97.2048 4.93105 97.2048C4.93105 97.2048 -3.53558 101.051 1.71957 103.418C6.97472 105.785 11.354 100.164 11.354 100.164C16.3595 99.1058 19.2466 98.4285 16.5922 92.8952C15.0851 93.5561 12.9524 94.3213 12.5218 93.6542Z" fill="#2F2E41"/>
<path d="M38.7969 93.6542C38.7969 93.6542 39.9647 91.2872 41.4245 92.4707C42.8842 93.6542 46.3877 97.2048 46.3877 97.2048C46.3877 97.2048 54.8543 101.051 49.5991 103.418C44.344 105.785 39.9647 100.164 39.9647 100.164C34.9592 99.1058 32.0721 98.4285 34.7265 92.8952C36.2336 93.5561 38.3663 94.3213 38.7969 93.6542Z" fill="#2F2E41"/>
<path d="M32.083 17.0213C31.6488 24.387 21.7297 23.7385 21.5728 17.0213C22.0069 9.65566 31.926 10.3041 32.083 17.0213Z" fill="#FFB8B8"/>
<path d="M24.4924 20.8677C27.0465 28.6908 21.0165 24.4316 29.4556 30.6318L32.6671 24.1224C32.6671 24.1224 30.3315 23.2347 30.6234 19.9801L24.4924 20.8677Z" fill="#FFB8B8"/>
<path d="M40.2581 25.3059L31.5551 23.2927C31.7999 28.611 26.1997 27.5406 25.2225 24.8654L16.9019 29.7441C20.3943 42.9264 19.5092 43.4703 14.8582 51.9352C13.0832 53.5778 15.7377 54.5193 18.0487 53.6205C19.8113 52.518 20.7064 51.5382 22.5951 51.7875C31.5195 53.6708 38.9489 54.1153 40.1247 53.3794C40.5454 52.7692 40.1125 25.4119 40.2581 25.3059Z" fill="#00A4E8"/>
<path d="M37.9219 25.8977C38.2138 25.8977 39.7177 25.1811 39.7177 25.1811C44.0931 25.1063 47.0293 54.9337 47.2644 55.7816L44.3449 57.8528L39.6736 45.7217L37.9219 25.8977Z" fill="#00A4E8"/>
<path d="M17.4858 60.5157C17.6351 61.6324 17.8891 74.1724 22.3217 68.3147C22.9032 64.0411 20.9261 62.7653 20.4054 59.924L17.4858 60.5157Z" fill="#FFB8B8"/>
<path d="M18.6523 29.7442L17.7578 29.2416C15.3595 29.1617 16.1154 35.5953 15.1007 40.307C14.2718 45.7959 14.5078 51.8482 15.4803 59.9399C15.5654 62.9092 20.8131 61.0386 21.5718 60.8116C21.5718 60.8116 19.8201 48.6805 20.696 46.6093C21.5718 44.5382 18.6523 29.7442 18.6523 29.7442Z" fill="#00A4E8"/>
<path d="M31.8532 11.8584C31.0425 10.5241 29.7734 9.54086 28.2903 9.09793L27.201 9.98112L27.6245 8.95098C27.2683 8.89592 26.9079 8.8748 26.5478 8.88792L25.5677 10.165L25.9734 8.93166C21.7676 9.38932 19.2793 14.2823 21.4628 17.7067C21.7996 16.6577 22.2083 15.6735 22.5452 14.6245C22.8099 14.6611 23.0781 14.6624 23.3432 14.6284L23.753 13.6594L23.8674 14.5874C25.1375 14.4753 27.0213 14.2291 28.2254 14.0035L28.1083 13.2916L28.8088 13.8832C29.1777 13.7971 29.3968 13.7191 29.3787 13.6594C30.2742 15.1225 31.1615 16.057 32.0569 17.5201C32.3969 15.4564 32.997 13.7409 31.8532 11.8584Z" fill="#2F2E41"/>
<path d="M122.546 64.1661H97.0774V76.4099H122.546V64.1661Z" fill="white"/>
<path d="M117.731 66.7307H101.895V68.1978H117.731V66.7307Z" fill="#E6E6E6"/>
<path d="M117.731 69.5539H101.895V71.0211H117.731V69.5539Z" fill="#E6E6E6"/>
<path d="M117.731 72.3772H101.895V73.8444H117.731V72.3772Z" fill="#E6E6E6"/>
<path d="M74.8992 67.0745L74.0707 65.6204L73.2424 64.1661L72.4139 65.6204L71.5854 67.0745H72.4756V71.2854H74.009V67.0745H74.8992Z" fill="white"/>
<path d="M131.033 97.0373C134.801 97.0373 137.855 93.9421 137.855 90.124C137.855 86.306 134.801 83.2108 131.033 83.2108C127.266 83.2108 124.212 86.306 124.212 90.124C124.212 93.9421 127.266 97.0373 131.033 97.0373Z" fill="#3F3D56"/>
<path d="M132.273 93.1879C133.943 93.1879 135.297 91.8162 135.297 90.1241C135.297 88.4319 133.943 87.0602 132.273 87.0602C130.604 87.0602 129.25 88.4319 129.25 90.1241C129.25 91.8162 130.604 93.1879 132.273 93.1879Z" fill="#E6E6E6"/>
<path d="M126.731 94.9554L141.614 101.24L141.149 102.733L132.583 101.751L118.088 95.2304L126.149 96.1732L126.731 94.9554Z" fill="#3F3D56"/>
<path d="M139.887 100.957L158.397 39.4197L162.905 31.3069L162.921 31.2286C162.935 31.157 163.266 29.4613 162.452 28.2333C162.247 27.928 161.982 27.6688 161.674 27.472C161.365 27.2751 161.02 27.1447 160.66 27.0889C158.172 26.6162 152.606 26.3833 152.37 26.3736L152.326 26.3717L152.282 26.3778C152.13 26.3988 148.573 26.9258 147.769 30.0736L143.899 37.2113L143.884 37.2621L126.365 95.6318L127.329 95.929L144.833 37.6101L148.715 30.4483L148.731 30.3825C149.3 28.0137 152.018 27.4595 152.38 27.3961C152.948 27.4207 158.179 27.6566 160.474 28.0927C160.702 28.1242 160.921 28.2033 161.117 28.3249C161.313 28.4466 161.482 28.6082 161.614 28.7995C162.115 29.5524 161.99 30.6609 161.945 30.9523L157.465 39.0155L157.449 39.0687L138.923 100.659L139.887 100.957Z" fill="#3F3D56"/>
<path d="M142.594 43.1134L142.415 44.1178L155.784 46.5648L155.963 45.5604L142.594 43.1134Z" fill="#3F3D56"/>
<path d="M140.096 51.4715L139.895 52.4715L153.168 55.2169L153.369 54.2168L140.096 51.4715Z" fill="#3F3D56"/>
<path d="M135.651 66.4194L135.374 67.4006L148.333 71.1584L148.61 70.1771L135.651 66.4194Z" fill="#3F3D56"/>
<path d="M144.415 95.3918L144.782 94.4406L132.204 89.4491L131.587 82.6714L143.327 87.1153L147.13 92.6925L147.959 92.112L143.976 86.2707L130.436 81.1453L131.258 90.1705L144.415 95.3918Z" fill="#3F3D56"/>
<path d="M148.785 103.636C152.552 103.636 155.606 100.541 155.606 96.723C155.606 92.905 152.552 89.8098 148.785 89.8098C145.017 89.8098 141.963 92.905 141.963 96.723C141.963 100.541 145.017 103.636 148.785 103.636Z" fill="#3F3D56"/>
<path d="M150.568 100.101C152.238 100.101 153.591 98.7294 153.591 97.0373C153.591 95.3452 152.238 93.9735 150.568 93.9735C148.898 93.9735 147.545 95.3452 147.545 97.0373C147.545 98.7294 148.898 100.101 150.568 100.101Z" fill="#E6E6E6"/>
</svg>
