<svg width="36" height="36" viewBox="0 0 36 36" fill="none" xmlns="http://www.w3.org/2000/svg">
<g clip-path="url(#clip0_3833:20788)">
<path d="M25.66 17.6727L29.3058 14.0269L23.8733 8.59439H19.971V7.14969C19.7098 7.41061 19.442 7.67868 19.1083 8.01212H16.8495L15.9868 7.14941V8.59439H12.0844L6.65198 14.0266L10.2978 17.6724L12.4547 15.5155L10.9658 14.0266L13.7074 11.2849C13.8585 11.3476 13.8697 11.3522 14.0208 11.4149V22.268L11.9551 29.9834H15.1018L17.1494 22.268H18.8083L20.8557 29.9834H24.0027L21.937 22.268V11.4149C22.088 11.3522 22.0993 11.3478 22.2504 11.2852L24.9917 14.0266L23.5031 15.5155L25.66 17.6727Z" fill="#FFB655"/>
<path d="M20.9202 11.6134C20.9202 12.4613 20.233 13.1485 19.3852 13.1485C18.5373 13.1485 17.8501 12.4613 17.8501 11.6134C17.8501 10.7656 18.5373 10.0784 19.3852 10.0784C20.233 10.0784 20.9202 10.7656 20.9202 11.6134Z" fill="#FF7956"/>
<path d="M16.1302 11.4148C15.9791 11.3522 15.9678 11.3478 15.8168 11.2852L14.0208 13.0811V22.2679L11.9551 29.9833H14.0645L16.1302 22.2679V11.4148Z" fill="#FF7956"/>
<path d="M8.76135 14.0268L14.1938 8.59436H12.0844L6.65198 14.0268L10.2978 17.6726L11.3525 16.618L8.76135 14.0268Z" fill="#FF7956"/>
<path d="M21.0147 3.56314V6.10565C20.2704 6.85025 19.8529 7.26773 19.1083 8.01205H16.8495C16.1052 7.26773 15.6877 6.85025 14.9431 6.10565V3.56314C14.9431 1.88663 16.3024 0.527344 17.9789 0.527344C19.6557 0.527344 21.0147 1.88663 21.0147 3.56314Z" fill="#FFDAAA"/>
<path d="M21.9355 17.0831V18.7006L23.2836 20.0489L25.6602 17.6723L23.503 15.5154L21.9355 17.0831Z" fill="#FFDAAA"/>
<path d="M14.0221 17.0831V18.7006L12.6741 20.0489L10.2977 17.6723L12.4546 15.5154L14.0221 17.0831Z" fill="#FFDAAA"/>
<path d="M22.0875 34.6246C22.4976 34.9402 22.7799 35.1574 23.19 35.4727H25.4724L24.0027 29.9834H20.856L22.0875 34.6246Z" fill="#A4E276"/>
<path d="M10.4854 35.4727H12.7653C13.1765 35.1566 13.4599 34.9385 13.8708 34.6221L15.1021 29.9834H11.955L10.4854 35.4727Z" fill="#A4E276"/>
<path d="M14.0208 18.4329H21.937V20.3604H14.0208V18.4329Z" fill="#A4E276"/>
<path d="M14.0208 17.0815L12.1776 15.2383L13.1089 11.8836L13.7074 11.2852C13.8585 11.3478 13.8698 11.3524 14.0208 11.4151V17.0815ZM14.0208 22.2679V18.7023L12.6742 20.049L11.2402 18.6147L7.95142 30.4593L11.5821 31.3759L14.0208 22.2679ZM22.8489 11.8836L22.2504 11.2852C22.0993 11.3478 22.0881 11.3524 21.937 11.4148V17.0815L23.7802 15.2383L22.8489 11.8836ZM23.2837 20.049L21.9373 18.7023V22.2682L24.3757 31.3759L28.0064 30.4593L24.7179 18.6147L23.2837 20.049ZM18.8084 22.2682H17.1494L14.5347 32.1213L15.4416 32.3503C17.1071 32.7706 18.851 32.7706 20.5165 32.3503L21.4234 32.1213L18.8084 22.2682Z" fill="#A4E276"/>
<path d="M17.0525 3.56314C17.0525 2.25742 17.877 1.14423 19.0336 0.715485C18.7051 0.593811 18.3497 0.527344 17.9789 0.527344C16.3024 0.527344 14.9431 1.88635 14.9431 3.56314V6.10565L16.8495 8.01205H18.9589L17.0525 6.10565V3.56314Z" fill="#FBB984"/>
<path d="M24.0449 18.7009V17.0831L24.5577 16.5701L23.503 15.5154L21.9355 17.0831V18.7009L23.2836 20.0489L24.3383 18.9942L24.0449 18.7009Z" fill="#FBB984"/>
<path d="M12.4071 17.6725L13.5093 16.5701L12.4546 15.5154L10.2977 17.6725L12.6741 20.0489L13.7288 18.9942L12.4071 17.6725Z" fill="#FBB984"/>
<path d="M22.9653 29.9834H20.856L22.0878 34.6246C22.4976 34.9402 22.7802 35.1574 23.1903 35.4727H25.2997C24.8896 35.1574 24.6072 34.9402 24.1972 34.6246L22.9653 29.9834Z" fill="#64C37D"/>
<path d="M11.955 29.9834L10.4854 35.4727H12.5947L14.0644 29.9834H11.955Z" fill="#64C37D"/>
<path d="M14.0208 18.4329H16.1301V20.3604H14.0208V18.4329Z" fill="#64C37D"/>
<path d="M14.0208 19.2859V18.7023L13.7289 18.9942L14.0208 19.2859Z" fill="#64C37D"/>
<path d="M14.0208 11.4148C13.8698 11.3522 13.8585 11.3478 13.7075 11.2852L13.109 11.8836L12.1776 15.2383L14.0208 17.0815V11.4148Z" fill="#64C37D"/>
<path d="M22.8489 11.8836L22.2504 11.2852C22.0993 11.3478 22.0881 11.3524 21.937 11.4148V17.0815L23.7802 15.2383L22.8489 11.8836Z" fill="#64C37D"/>
<path d="M25.0094 19.6653L24.7177 18.6147L24.3384 18.9943L25.0094 19.6653Z" fill="#64C37D"/>
<path d="M10.0608 30.4594L13.0579 19.6653L12.6742 20.049L11.2402 18.6147L7.95142 30.4594L11.5824 31.3759L11.7159 30.8771L10.0608 30.4594Z" fill="#64C37D"/>
<path d="M24.0464 22.2682V19.2859L23.2837 20.0489L21.937 18.7023V22.2682L24.3757 31.3758L26.3513 30.877L24.0464 22.2682Z" fill="#64C37D"/>
<path d="M17.551 32.3503L16.644 32.1213L19.0336 23.1166L18.8083 22.2682H17.1494L14.5347 32.1213L15.4416 32.3503C16.6182 32.6472 17.8339 32.7343 19.0336 32.6118C18.5353 32.5607 18.0396 32.4737 17.551 32.3503Z" fill="#64C37D"/>
<path d="M19.514 11.6134C19.514 12.4613 18.8268 13.1485 17.9789 13.1485C17.131 13.1485 16.4438 12.4613 16.4438 11.6134C16.4438 10.7656 17.131 10.0784 17.9789 10.0784C18.8268 10.0784 19.514 10.7656 19.514 11.6134Z" fill="#FF3F62"/>
<path d="M22.4643 22.1987V19.9753L23.2836 20.7946C23.903 20.1753 29.8391 14.2394 30.0515 14.0265L24.0919 8.06699H20.4983V7.36798L21.542 6.32428V3.56314C21.542 1.59851 19.9438 0 17.9789 0C16.0142 0 14.4157 1.59851 14.4157 3.56314V6.32428L15.4594 7.36798V8.06699H11.8661L5.90625 14.0268L12.6741 20.7946L13.4934 19.9753V22.1984C13.3014 22.915 9.98987 35.284 9.79816 36H12.9446L14.3347 34.9308L15.7876 29.456L17.5551 22.7955H18.4026L20.1703 29.456L21.6238 34.9332L23.0106 36H26.1595C25.9678 35.2837 22.6563 22.915 22.4643 22.1987ZM22.4643 15.8085V12.2448L24.2463 14.0265C23.5923 14.6805 23.1386 15.1342 22.4643 15.8085ZM24.9142 17.6726L23.2836 19.303L22.4646 18.4839V17.3002L23.5031 16.2614C24.0257 16.7838 24.3918 17.1499 24.9142 17.6726ZM15.4704 3.56314C15.4704 2.17996 16.5957 1.05469 17.9789 1.05469C19.362 1.05469 20.4873 2.17996 20.4873 3.56314V5.8873L18.8899 7.48471H17.0678L15.4704 5.8873V3.56314ZM12.6741 19.303L11.0435 17.6726L12.4547 16.2614L13.4934 17.3002V18.4839L12.6741 19.303ZM11.7117 14.0268L13.4934 12.2451V15.8085C12.8982 15.2133 12.3074 14.6225 11.7117 14.0268ZM13.4072 34.3136L12.5859 34.9453H11.1725L12.3599 30.5107H14.4165L13.4072 34.3136ZM19.214 21.7408H16.7437L14.6964 29.456H12.6422L14.5481 22.3371C14.5481 22.2707 14.5481 14.007 14.5481 14.007L15.5932 15.0521H17.2164V13.9974H16.0299L14.5481 12.5156V11.0624L13.5838 10.6631L10.22 14.0268L11.709 15.5154C11.1863 16.0381 10.8202 16.4042 10.2978 16.9266L7.39764 14.0265L12.3028 9.12167H16.5141V8.42267L16.6308 8.5394H19.3266L19.4436 8.42267V9.12167H23.6549L28.5601 14.0265L25.6599 16.9266C25.1373 16.404 24.7714 16.0381 24.2487 15.5154L25.7377 14.0268L22.3742 10.6631L21.4096 11.0627V12.5156L19.9278 13.9974H18.7413V15.0521H20.3645L21.4096 14.007V22.3374L23.3155 29.456H21.2613L19.214 21.7408ZM23.3693 34.9453L22.5514 34.3161L21.5414 30.5107H23.5981L24.7854 34.9453H23.3693Z" fill="black"/>
<path d="M18.5062 15.6396H17.4515V17.9056H15.427V18.9603H20.5307V17.9056H18.5062V15.6396Z" fill="black"/>
<path d="M15.427 19.833H20.5307V20.8877H15.427V19.833Z" fill="black"/>
<path d="M24.6418 20.3123L27.3538 30.0803L25.6103 30.5203L25.8682 31.5428L28.659 30.8386L25.6581 20.0303L24.6418 20.3123Z" fill="black"/>
<path d="M10.2997 20.0303L7.29883 30.8386L10.0896 31.5431L10.3478 30.5203L8.604 30.0803L11.316 20.3123L10.2997 20.0303Z" fill="black"/>
<path d="M16.0068 31.937L15.7959 32.9703C16.5202 33.118 17.2497 33.1919 17.9789 33.1919C18.7084 33.1919 19.4376 33.118 20.1619 32.9703L19.9512 31.937C18.6425 32.204 17.3153 32.204 16.0068 31.937Z" fill="black"/>
<path d="M20.0413 11.6134C20.0413 10.4761 19.1163 9.55103 17.9789 9.55103C16.8418 9.55103 15.9165 10.4761 15.9165 11.6134C15.9165 12.7505 16.8418 13.6758 17.9789 13.6758C19.1163 13.6758 20.0413 12.7505 20.0413 11.6134ZM16.9712 11.6134C16.9712 11.0578 17.4233 10.6057 17.9789 10.6057C18.5345 10.6057 18.9866 11.0578 18.9866 11.6134C18.9866 12.1691 18.5345 12.6212 17.9789 12.6212C17.4233 12.6212 16.9712 12.1691 16.9712 11.6134Z" fill="black"/>
<path d="M18.807 6.57339L18.061 5.8277L18.7295 5.15918V3.56314C18.7295 3.14923 18.3928 2.8125 17.9789 2.8125V1.75781C18.9745 1.75781 19.7842 2.56778 19.7842 3.56314V5.59616L18.807 6.57339Z" fill="white"/>
<path d="M25.3229 29.3365L24.2625 25.5168L25.2787 25.2348L26.3391 29.0544L25.3229 29.3365ZM24.0743 24.8393L23.7922 23.823L24.8085 23.541L25.0905 24.5572L24.0743 24.8393ZM23.6041 23.1457L23.322 22.1295L24.3383 21.8474L24.6203 22.8636L23.6041 23.1457Z" fill="white"/>
<path d="M26.9571 14.5333L25.4968 13.0729L26.2427 12.3272L27.7028 13.7876L26.9571 14.5333ZM24.9996 12.5758L24.2539 11.8301L24.9996 11.0844L25.7453 11.8301L24.9996 12.5758ZM23.7568 11.3327L23.0111 10.587L23.7568 9.84131L24.5025 10.587L23.7568 11.3327Z" fill="white"/>
</g>
<defs>
<clipPath id="clip0_3833:20788">
<rect width="36" height="36" fill="white"/>
</clipPath>
</defs>
</svg>
