<svg width="200" height="154" viewBox="0 0 200 154" fill="none" xmlns="http://www.w3.org/2000/svg">
<g clip-path="url(#clip0)">
<path opacity="0.1" d="M91.6456 135.696C137.548 135.696 174.759 132.806 174.759 129.242C174.759 125.678 137.548 122.789 91.6456 122.789C45.7433 122.789 8.53223 125.678 8.53223 129.242C8.53223 132.806 45.7433 135.696 91.6456 135.696Z" fill="#191970"/>
<g opacity="0.1">
<path opacity="0.1" d="M165.258 92.4687C164.762 90.9609 162.747 90.2666 160.76 90.9198C160.474 91.0131 160.197 91.1329 159.933 91.2777C159.806 91.2425 159.675 91.2112 159.542 91.1877C159.651 90.754 159.692 90.3062 159.665 89.8599C160.351 89.4014 160.907 88.7744 161.28 88.0392C161.653 87.3039 161.831 86.485 161.797 85.6612C162.48 85.2013 163.035 84.5739 163.406 83.8388C163.778 83.1037 163.955 82.2855 163.921 81.4625C164.609 81.0086 165.165 80.3795 165.53 79.6399C166.488 77.7429 166.091 75.6113 164.642 74.878C163.193 74.1446 161.24 75.0892 160.281 76.9861C159.901 77.7182 159.724 78.5385 159.767 79.3622C159.083 79.822 158.529 80.4494 158.158 81.1845C157.786 81.9196 157.609 82.7378 157.643 83.5609C156.96 84.0207 156.406 84.6481 156.034 85.3832C155.662 86.1183 155.485 86.9365 155.519 87.7595C154.834 88.2188 154.279 88.8462 153.905 89.5816C153.532 90.3171 153.354 91.1361 153.388 91.9602C152.699 92.4141 152.144 93.0432 151.778 93.7828C151.598 94.1393 151.462 94.5162 151.372 94.9053C151.131 94.5543 150.839 94.2422 150.503 93.9803C150.465 93.6817 150.399 93.3871 150.308 93.1003C149.655 91.1115 147.902 89.899 146.397 90.3957C144.891 90.8924 144.195 92.9048 144.848 94.8936C145.115 95.7464 145.63 96.5005 146.326 97.0604C146.364 97.3591 146.43 97.6536 146.522 97.9404C146.901 99.0943 147.65 99.986 148.507 100.434C148.431 100.683 148.376 100.938 148.344 101.197C147.537 101.973 147.017 103.001 146.87 104.112C146.061 104.889 145.542 105.918 145.395 107.03C144.995 107.414 144.664 107.865 144.417 108.362C143.457 110.259 143.854 112.392 145.303 113.124C146.752 113.855 148.706 112.915 149.666 111.016C149.919 110.52 150.085 109.985 150.155 109.434C150.963 108.657 151.483 107.629 151.63 106.518C152.438 105.741 152.958 104.712 153.104 103.6C153.906 102.821 154.42 101.793 154.561 100.684C155.372 99.9072 155.894 98.8764 156.04 97.7625C156.288 97.5266 156.511 97.2643 156.703 96.9802C157.502 97.1442 158.33 97.0923 159.102 96.8297C159.388 96.7363 159.665 96.6165 159.929 96.4718C160.794 96.6999 161.707 96.6672 162.554 96.3779C164.535 95.7306 165.753 93.9784 165.258 92.4687Z" fill="#3F3D56"/>
<g opacity="0.1">
<path opacity="0.1" d="M161.752 86.5239C161.547 86.7257 161.321 86.906 161.079 87.0617C161.11 87.62 161.036 88.179 160.862 88.7103C161.016 88.4976 161.153 88.2733 161.273 88.0395C161.515 87.5643 161.677 87.0522 161.752 86.5239Z" fill="black"/>
<path opacity="0.1" d="M163.876 82.3252C163.671 82.527 163.445 82.7072 163.203 82.863C163.234 83.4212 163.161 83.9803 162.986 84.5115C163.141 84.2984 163.278 84.0735 163.397 83.8388C163.639 83.364 163.8 82.8526 163.876 82.3252Z" fill="black"/>
<path opacity="0.1" d="M159.06 80.7626C159.042 80.4747 159.053 80.1858 159.093 79.9001C158.713 80.2744 158.397 80.7085 158.158 81.185C158.04 81.42 157.941 81.6639 157.861 81.9144C158.185 81.4586 158.591 81.0678 159.06 80.7626Z" fill="black"/>
<path opacity="0.1" d="M145.58 106.172C145.75 105.934 145.944 105.712 146.156 105.511C146.19 105.245 146.247 104.984 146.327 104.729C146.157 104.957 146.007 105.2 145.879 105.454C145.761 105.685 145.661 105.925 145.58 106.172Z" fill="black"/>
<path opacity="0.1" d="M147.054 103.258C147.225 103.02 147.418 102.798 147.631 102.597C147.663 102.338 147.717 102.083 147.793 101.834C147.631 102.056 147.487 102.291 147.363 102.536C147.242 102.769 147.139 103.01 147.054 103.258Z" fill="black"/>
<path opacity="0.1" d="M159.627 90.7225C159.423 90.9242 159.198 91.1038 158.956 91.2583C158.983 91.7046 158.941 92.1524 158.833 92.5862C158.965 92.609 159.095 92.639 159.224 92.6761C159.488 92.5314 159.765 92.4116 160.051 92.3182C162.042 91.6651 164.054 92.3593 164.549 93.8671C164.672 94.2461 164.694 94.6506 164.612 95.0404C165.267 94.2699 165.539 93.3312 165.257 92.4708C164.76 90.963 162.746 90.2688 160.759 90.922C160.473 91.0153 160.196 91.1351 159.932 91.2798C159.805 91.2446 159.674 91.2133 159.541 91.1899C159.578 91.0334 159.605 90.8789 159.627 90.7225Z" fill="black"/>
<path opacity="0.1" d="M144.852 107.637C144.682 107.865 144.532 108.108 144.404 108.362C144.285 108.598 144.185 108.843 144.103 109.094C144.278 108.854 144.474 108.632 144.69 108.429C144.72 108.16 144.774 107.895 144.852 107.637Z" fill="black"/>
<path opacity="0.1" d="M156.926 84.9613C156.908 84.6734 156.919 84.3845 156.959 84.0989C156.579 84.4732 156.264 84.9072 156.024 85.3837C155.906 85.6187 155.807 85.8626 155.727 86.1132C156.051 85.6573 156.457 85.2665 156.926 84.9613Z" fill="black"/>
<path opacity="0.1" d="M153.858 102.084C153.819 102.375 153.754 102.662 153.662 102.941C153.815 102.727 153.952 102.503 154.071 102.268C154.199 102.017 154.306 101.755 154.39 101.486C154.229 101.7 154.052 101.9 153.858 102.084Z" fill="black"/>
<path opacity="0.1" d="M150.908 107.916C150.87 108.207 150.805 108.494 150.713 108.773C150.867 108.56 151.005 108.335 151.124 108.1C151.251 107.848 151.358 107.587 151.442 107.318C151.282 107.532 151.103 107.733 150.908 107.916Z" fill="black"/>
<path opacity="0.1" d="M152.383 104.998C152.345 105.289 152.279 105.576 152.188 105.855C152.343 105.645 152.483 105.424 152.606 105.194C152.734 104.943 152.841 104.681 152.925 104.412C152.761 104.622 152.58 104.818 152.383 104.998Z" fill="black"/>
<path opacity="0.1" d="M155.332 99.1688C155.294 99.4591 155.228 99.7452 155.137 100.023C155.29 99.8107 155.427 99.5864 155.545 99.3526C155.675 99.097 155.782 98.8307 155.866 98.5566C155.707 98.7762 155.528 98.9811 155.332 99.1688Z" fill="black"/>
<path opacity="0.1" d="M145.678 91.794C147.187 91.2992 148.939 92.5098 149.589 94.4986C149.68 94.7861 149.746 95.0813 149.784 95.3806C150.119 95.6425 150.412 95.9545 150.653 96.3056C150.743 95.9158 150.879 95.5383 151.059 95.1811C151.128 95.0481 151.202 94.921 151.278 94.79C151.056 94.4828 150.793 94.2078 150.496 93.9726C150.458 93.6739 150.392 93.3793 150.301 93.0925C149.647 91.1037 147.895 89.8912 146.389 90.3879C145.529 90.6695 144.934 91.4459 144.704 92.4276C144.968 92.1361 145.304 91.9178 145.678 91.794Z" fill="black"/>
<path opacity="0.1" d="M152.679 93.3588C152.661 93.0715 152.673 92.7832 152.714 92.4983C152.333 92.872 152.016 93.3061 151.777 93.7831C151.659 94.0173 151.559 94.2606 151.48 94.5106C151.805 94.0555 152.211 93.6649 152.679 93.3588Z" fill="black"/>
<path opacity="0.1" d="M154.802 89.1581C154.785 88.8708 154.796 88.5825 154.837 88.2976C154.456 88.6702 154.139 89.1038 153.9 89.5805C153.782 89.8155 153.683 90.0594 153.603 90.3099C153.927 89.8541 154.333 89.4633 154.802 89.1581Z" fill="black"/>
<path opacity="0.1" d="M149.434 110.832C149.396 111.123 149.33 111.411 149.239 111.69C149.56 111.245 149.807 110.75 149.968 110.226C149.808 110.443 149.63 110.646 149.434 110.832Z" fill="black"/>
</g>
<path opacity="0.1" d="M168.157 73.0652C168.846 72.6119 169.402 71.9827 169.766 71.2426C170.726 69.3457 170.33 67.2121 168.88 66.4788C167.431 65.7454 165.478 66.69 164.517 68.5889C164.137 69.3229 163.96 70.1453 164.005 70.9708C163.322 71.4306 162.767 72.0581 162.396 72.7932C162.024 73.5282 161.847 74.3464 161.881 75.1695C161.192 75.6223 160.636 76.2517 160.272 76.9921C160.154 77.2243 160.055 77.4656 159.977 77.7137C160.487 76.9744 161.227 76.4245 162.083 76.1492C162.18 76.4505 162.336 76.7294 162.542 76.9699C162.748 77.2103 163 77.4076 163.282 77.5502C163.565 77.6928 163.873 77.7779 164.189 77.8006C164.504 77.8233 164.822 77.7831 165.122 77.6824C165.411 78.5327 165.411 79.4546 165.122 80.3049C165.274 80.0942 165.41 79.8719 165.529 79.64C165.908 78.9077 166.085 78.0874 166.041 77.2639C166.725 76.8049 167.28 76.1776 167.652 75.4423C168.024 74.7071 168.2 73.8885 168.165 73.0652H168.157Z" fill="#3F3D56"/>
<path opacity="0.1" d="M191.499 46.1481C192.089 45.873 192.658 45.5574 193.204 45.2035L186.882 40.5844L194.313 44.4115C195.816 43.2173 197.06 41.7287 197.968 40.0369C198.876 38.3451 199.429 36.4858 199.593 34.5729L186.964 34.7019L199.621 32.586C199.49 30.6711 198.969 28.8032 198.09 27.097C197.211 25.3909 195.992 23.8824 194.509 22.6644C193.025 21.4463 191.309 20.5444 189.464 20.014C187.62 19.4835 185.686 19.3358 183.782 19.5799C181.879 19.824 180.045 20.4547 178.394 21.4333C176.743 22.4119 175.309 23.7177 174.181 25.2706C173.053 26.8234 172.254 28.5905 171.834 30.4632C171.414 32.336 171.381 34.2749 171.738 36.1608C170.82 36.5877 169.95 37.1122 169.144 37.7253L175.745 46.903L167.82 38.8693C166.148 40.5115 164.912 42.5447 164.223 44.785C163.534 47.0254 163.415 49.4021 163.876 51.7001C161.482 52.8174 159.451 54.5856 158.015 56.8026C156.578 59.0196 155.794 61.596 155.753 64.2373C155.711 66.8787 156.413 69.4785 157.779 71.7396C159.145 74.0008 161.12 75.832 163.477 77.0242C165.835 78.2163 168.48 78.7212 171.111 78.4811C173.741 78.2411 176.252 77.2659 178.354 75.6668C180.457 74.0677 182.068 71.9094 183.002 69.4384C183.936 66.9674 184.156 64.2835 183.637 61.6932C186.502 60.3599 188.835 58.1019 190.261 55.2823C191.687 52.4628 192.123 49.2455 191.499 46.1481Z" fill="#191970"/>
<path opacity="0.1" d="M165.122 42.5657C163.691 45.3839 163.254 48.6025 163.88 51.7004C161.486 52.8177 159.455 54.5859 158.018 56.8029C156.582 59.0199 155.798 61.5963 155.757 64.2376C155.715 66.879 156.417 69.4788 157.783 71.7399C159.149 74.0011 161.124 75.8323 163.481 77.0244C165.839 78.2166 168.484 78.7215 171.115 78.4814C173.745 78.2414 176.256 77.2661 178.358 75.6671C180.461 74.068 182.072 71.9097 183.006 69.4387C183.94 66.9677 184.16 64.2837 183.641 61.6935C186.405 60.4106 165.83 41.1557 165.122 42.5657Z" fill="black"/>
<path opacity="0.1" d="M180.989 22.1784C182.144 22.1784 183.08 21.2424 183.08 20.0879C183.08 18.9333 182.144 17.9973 180.989 17.9973C179.835 17.9973 178.899 18.9333 178.899 20.0879C178.899 21.2424 179.835 22.1784 180.989 22.1784Z" fill="#191970"/>
<path opacity="0.1" d="M193.2 23.52C194.355 23.52 195.291 22.584 195.291 21.4294C195.291 20.2748 194.355 19.3389 193.2 19.3389C192.046 19.3389 191.11 20.2748 191.11 21.4294C191.11 22.584 192.046 23.52 193.2 23.52Z" fill="#191970"/>
<path opacity="0.1" d="M197.909 42.3056C199.064 42.3056 200 41.3696 200 40.2151C200 39.0605 199.064 38.1245 197.909 38.1245C196.755 38.1245 195.819 39.0605 195.819 40.2151C195.819 41.3696 196.755 42.3056 197.909 42.3056Z" fill="#191970"/>
<path opacity="0.1" d="M191.553 51.6867C192.708 51.6867 193.644 50.7507 193.644 49.5962C193.644 48.4416 192.708 47.5056 191.553 47.5056C190.399 47.5056 189.463 48.4416 189.463 49.5962C189.463 50.7507 190.399 51.6867 191.553 51.6867Z" fill="#191970"/>
<path opacity="0.1" d="M182.871 71.1703C184.025 71.1703 184.961 70.2344 184.961 69.0798C184.961 67.9252 184.025 66.9893 182.871 66.9893C181.716 66.9893 180.78 67.9252 180.78 69.0798C180.78 70.2344 181.716 71.1703 182.871 71.1703Z" fill="#191970"/>
<path opacity="0.1" d="M182.871 71.1703C184.025 71.1703 184.961 70.2344 184.961 69.0798C184.961 67.9252 184.025 66.9893 182.871 66.9893C181.716 66.9893 180.78 67.9252 180.78 69.0798C180.78 70.2344 181.716 71.1703 182.871 71.1703Z" fill="black"/>
<path opacity="0.1" d="M163.565 49.1032C164.72 49.1032 165.656 48.1672 165.656 47.0127C165.656 45.8581 164.72 44.9221 163.565 44.9221C162.411 44.9221 161.475 45.8581 161.475 47.0127C161.475 48.1672 162.411 49.1032 163.565 49.1032Z" fill="#191970"/>
<path opacity="0.1" d="M163.565 49.1032C164.72 49.1032 165.656 48.1672 165.656 47.0127C165.656 45.8581 164.72 44.9221 163.565 44.9221C162.411 44.9221 161.475 45.8581 161.475 47.0127C161.475 48.1672 162.411 49.1032 163.565 49.1032Z" fill="black"/>
<path opacity="0.1" d="M161.336 81.3981C159.945 80.696 159.525 78.7072 160.337 76.8728C160.294 76.9471 160.252 77.0234 160.213 77.1036C159.253 79.0005 159.65 81.1321 161.099 81.8655C162.548 82.5988 164.502 81.6543 165.46 79.7573C165.501 79.6791 165.537 79.5989 165.572 79.5207C164.576 81.2631 162.724 82.1021 161.336 81.3981Z" fill="black"/>
<path opacity="0.1" d="M159.27 85.4816C157.882 84.7795 157.46 82.7907 158.273 80.9543C158.23 81.0306 158.187 81.1069 158.148 81.1851C157.188 83.0821 157.585 85.2156 159.034 85.947C160.483 86.6784 162.437 85.7378 163.397 83.8389C163.436 83.7606 163.473 83.6824 163.508 83.6022C162.511 85.3447 160.661 86.1836 159.27 85.4816Z" fill="black"/>
<path opacity="0.1" d="M157.205 89.5628C155.817 88.8608 155.394 86.8719 156.208 85.0376C156.165 85.1119 156.122 85.1882 156.083 85.2684C155.123 87.1653 155.522 89.2969 156.971 90.0302C158.42 90.7636 160.372 89.819 161.332 87.9221C161.371 87.8439 161.408 87.7637 161.443 87.6855C160.448 89.4279 158.596 90.2669 157.205 89.5628Z" fill="black"/>
<path opacity="0.1" d="M155.148 93.6559C153.758 92.9538 153.337 90.965 154.149 89.1306C154.106 89.2049 154.065 89.2812 154.024 89.3594C153.066 91.2564 153.463 93.3899 154.912 94.1233C156.361 94.8566 158.315 93.9121 159.273 92.0132C159.314 91.935 159.349 91.8567 159.384 91.7766C158.383 93.5092 156.531 94.3482 155.148 93.6559Z" fill="black"/>
<path opacity="0.1" d="M153.077 97.7274C151.687 97.0254 151.266 95.0365 152.078 93.2021C152.035 93.2765 151.994 93.3527 151.955 93.4329C150.994 95.3298 151.391 97.4615 152.84 98.1948C154.29 98.9282 156.243 97.9836 157.203 96.0867C157.242 96.0084 157.28 95.9283 157.315 95.85C156.321 97.5925 154.466 98.4314 153.077 97.7274Z" fill="black"/>
<path opacity="0.1" d="M151.012 101.811C149.624 101.109 149.201 99.1198 150.015 97.2854C149.972 97.3597 149.929 97.436 149.89 97.5142C148.929 99.4111 149.326 101.545 150.777 102.278C152.228 103.011 154.17 102.065 155.148 100.168C155.187 100.09 155.224 100.012 155.26 99.9313C154.252 101.674 152.41 102.513 151.012 101.811Z" fill="black"/>
<path opacity="0.1" d="M148.947 105.892C147.559 105.19 147.136 103.201 147.95 101.367C147.907 101.443 147.866 101.517 147.825 101.597C146.866 103.494 147.263 105.626 148.713 106.359C150.162 107.093 152.115 106.148 153.074 104.251C153.115 104.173 153.15 104.093 153.185 104.015C152.19 105.757 150.338 106.596 148.947 105.892Z" fill="black"/>
<path opacity="0.1" d="M146.884 109.975C145.493 109.273 145.073 107.285 145.884 105.45C145.841 105.525 145.8 105.601 145.761 105.679C144.801 107.576 145.198 109.71 146.647 110.443C148.096 111.176 150.05 110.232 151.01 108.333C151.049 108.255 151.084 108.176 151.12 108.096C150.124 109.839 148.272 110.67 146.884 109.975Z" fill="black"/>
<path opacity="0.1" d="M145.526 112.659C144.138 111.955 143.715 109.968 144.529 108.131C144.486 108.208 144.443 108.284 144.404 108.362C143.444 110.259 143.841 112.393 145.29 113.124C146.739 113.855 148.692 112.915 149.653 111.016C149.692 110.938 149.729 110.859 149.764 110.779C148.767 112.522 146.915 113.361 145.526 112.659Z" fill="black"/>
<path opacity="0.1" d="M182.838 94.4889C183.053 93.8711 183.185 93.2272 183.229 92.5744C183.372 92.5741 183.514 92.5441 183.646 92.4864C183.778 92.4287 183.896 92.3445 183.993 92.2391C184.091 92.1336 184.165 92.0092 184.213 91.8735C184.26 91.7379 184.279 91.5939 184.268 91.4507C184.257 91.3075 184.217 91.168 184.149 91.0411C184.082 90.9142 183.989 90.8025 183.877 90.7131C183.765 90.6236 183.635 90.5583 183.496 90.5212C183.357 90.4841 183.212 90.4761 183.07 90.4976C182.838 89.4391 182.373 88.4457 181.708 87.5895C181.044 86.7334 180.197 86.0359 179.23 85.5479C179.355 85.3005 179.376 85.0136 179.29 84.7503C179.203 84.487 179.015 84.2688 178.768 84.1438C178.521 84.0188 178.234 83.9972 177.97 84.0838C177.707 84.1703 177.489 84.3579 177.364 84.6053C177.319 84.6933 177.287 84.7875 177.27 84.885C176.123 84.6712 174.941 84.7345 173.823 85.0695C172.705 85.4045 171.683 86.0017 170.842 86.8112C170.207 86.7085 169.561 86.6895 168.922 86.7545L168.075 90.609L168.024 86.8934C167.052 87.1064 166.134 87.5154 165.325 88.0954C164.517 88.6753 163.835 89.4141 163.322 90.2664C162.809 91.1188 162.475 92.0668 162.34 93.0527C162.206 94.0385 162.274 95.0414 162.54 96.0001C162.806 96.9588 163.265 97.8531 163.889 98.6284C164.513 99.4036 165.288 100.044 166.167 100.509C167.046 100.975 168.011 101.256 169.003 101.336C169.995 101.416 170.993 101.292 171.935 100.974C172.036 101.156 172.189 101.303 172.375 101.396C172.567 101.493 172.784 101.529 172.996 101.499C173.209 101.468 173.407 101.373 173.563 101.226C173.72 101.079 173.827 100.887 173.871 100.677C173.914 100.466 173.892 100.248 173.807 100.051C174.14 99.8216 174.454 99.5652 174.745 99.2841C176.272 99.5323 177.838 99.2908 179.219 98.5941C180.6 97.8975 181.725 96.7815 182.433 95.4061L178.492 94.7432L182.838 94.4889Z" fill="#191970"/>
<g opacity="0.1">
<path opacity="0.1" d="M176.75 96.3605C175.295 94.4401 174.403 92.1657 173.377 89.9832C172.964 89.0874 172.503 88.2152 171.994 87.3705L171.223 86.4729C171.094 86.5824 170.965 86.6958 170.832 86.8151C170.197 86.7124 169.552 86.6933 168.912 86.7584L168.065 90.6129L168.014 86.8973C167.042 87.1103 166.124 87.5193 165.316 88.0993C164.507 88.6792 163.825 89.418 163.312 90.2703C162.799 91.1227 162.465 92.0707 162.33 93.0566C162.196 94.0424 162.264 95.0454 162.53 96.004C162.796 96.9627 163.255 97.857 163.879 98.6323C164.503 99.4076 165.278 100.047 166.157 100.513C167.037 100.979 168.002 101.26 168.993 101.34C169.985 101.42 170.983 101.296 171.925 100.978C172.026 101.16 172.18 101.307 172.365 101.4C172.557 101.497 172.774 101.533 172.986 101.503C173.199 101.472 173.397 101.377 173.554 101.23C173.71 101.083 173.817 100.891 173.861 100.681C173.905 100.47 173.882 100.252 173.797 100.055C174.131 99.8255 174.445 99.5691 174.736 99.288C176.23 99.53 177.763 99.3031 179.124 98.6387C178.216 98.0113 177.414 97.2421 176.75 96.3605Z" fill="black"/>
</g>
<path opacity="0.1" d="M150.985 88.1079C151.065 87.9484 151.104 87.771 151.096 87.5925C151.088 87.414 151.035 87.2404 150.941 87.0883C150.848 86.9363 150.716 86.8108 150.56 86.724C150.404 86.6371 150.228 86.5918 150.05 86.5923C149.753 85.0206 148.95 83.5896 147.762 82.5187C147.953 81.7721 148.026 80.9999 147.977 80.2307L144.134 79.5755L147.865 79.3409C147.798 78.9905 147.706 78.6454 147.59 78.3083C147.735 78.2084 147.853 78.074 147.934 77.9172C148.028 77.7303 148.064 77.5194 148.037 77.3118C148.01 77.1043 147.921 76.9096 147.783 76.7529C147.644 76.5963 147.461 76.4848 147.258 76.433C147.056 76.3812 146.842 76.3913 146.645 76.4622C145.657 75.0658 144.211 74.0598 142.558 73.6188C140.905 73.1779 139.15 73.33 137.597 74.0487C136.045 74.7674 134.793 76.0072 134.06 77.5528C133.327 79.0984 133.158 80.852 133.584 82.509C133.357 82.6045 133.173 82.7779 133.063 82.9979C132.967 83.1872 132.932 83.4014 132.96 83.6117C132.989 83.822 133.081 84.0185 133.225 84.1751C133.368 84.3317 133.556 84.4408 133.763 84.488C133.97 84.5351 134.186 84.5181 134.383 84.4391C134.759 85.0691 135.226 85.6393 135.77 86.1307C135.374 87.6753 135.493 89.3069 136.11 90.7773L141.263 89.4396L136.668 91.8568C137.48 93.148 138.676 94.1529 140.088 94.7311C141.5 95.3093 143.057 95.4317 144.542 95.0814C146.026 94.731 147.365 93.9253 148.369 92.777C149.374 91.6287 149.994 90.1952 150.144 88.6769C150.321 88.6616 150.491 88.6013 150.638 88.5017C150.785 88.4021 150.905 88.2665 150.985 88.1079Z" fill="#191970"/>
<path opacity="0.1" d="M150.984 88.1076C151.065 87.9482 151.103 87.7708 151.096 87.5923C151.088 87.4138 151.035 87.2402 150.941 87.0881C150.848 86.9361 150.716 86.8106 150.56 86.7238C150.404 86.6369 150.228 86.5916 150.05 86.5921C149.753 85.0204 148.949 83.5894 147.762 82.5185C147.793 82.3953 147.82 82.2741 147.844 82.1509C147.707 82.2497 147.581 82.3617 147.466 82.4853C146.772 83.246 146.416 84.2688 145.73 85.0373C144.92 85.9447 143.708 86.418 142.497 86.5451C141.287 86.6722 140.068 86.4864 138.873 86.2537C137.884 86.0582 136.881 85.8313 135.877 85.9271C135.78 85.9271 135.682 85.9487 135.592 85.9643C135.651 86.021 135.709 86.0777 135.77 86.1325C135.374 87.677 135.493 89.3087 136.11 90.779L141.263 89.4394L136.667 91.8565C137.48 93.1477 138.676 94.1527 140.088 94.7309C141.499 95.309 143.057 95.4315 144.541 95.0811C146.026 94.7308 147.365 93.9251 148.369 92.7768C149.373 91.6285 149.994 90.195 150.143 88.6767C150.321 88.6614 150.491 88.6011 150.638 88.5015C150.785 88.4019 150.904 88.2663 150.984 88.1076Z" fill="black"/>
</g>
<g opacity="0.1">
<path opacity="0.1" d="M17.5006 99.9783C17.7509 99.2175 18.7659 98.8675 19.7672 99.196C19.9112 99.2432 20.0506 99.3035 20.1837 99.3759C20.2482 99.3583 20.3147 99.3427 20.3793 99.331C20.3243 99.1125 20.3032 98.887 20.3167 98.6621C19.973 98.4297 19.6943 98.1133 19.5071 97.743C19.3199 97.3727 19.2304 96.9608 19.247 96.5462C18.9002 96.318 18.6207 96.0014 18.4373 95.629C18.2462 95.2601 18.1565 94.8471 18.1772 94.4322C17.8308 94.2028 17.5514 93.8857 17.3676 93.513C16.8865 92.5587 17.0821 91.4851 17.8155 91.1135C18.5488 90.7419 19.5305 91.2211 20.0136 92.1754C20.2043 92.545 20.2934 92.9588 20.2717 93.3742C20.6163 93.6052 20.8957 93.921 21.0831 94.2913C21.2704 94.6615 21.3594 95.0737 21.3414 95.4882C21.6859 95.7198 21.9652 96.036 22.1525 96.4065C22.3398 96.777 22.4289 97.1894 22.4111 97.6042C22.7558 97.8352 23.0352 98.151 23.2225 98.5212C23.4099 98.8915 23.4988 99.3036 23.4809 99.7182C23.8281 99.9472 24.1081 100.264 24.2924 100.637C24.3804 100.818 24.446 101.008 24.488 101.204C24.6085 101.027 24.7556 100.869 24.9241 100.737C24.9442 100.586 24.9782 100.438 25.0258 100.293C25.3563 99.2918 26.2383 98.6817 26.999 98.9242C27.7597 99.1667 28.1078 100.189 27.7812 101.191C27.6463 101.621 27.387 102.001 27.0361 102.284C27.0158 102.434 26.9818 102.582 26.9345 102.726C26.7739 103.257 26.4164 103.706 25.9351 103.981C25.9729 104.109 26.0003 104.24 26.0173 104.373C26.2192 104.566 26.3865 104.793 26.512 105.043C26.64 105.293 26.7234 105.563 26.7585 105.841C26.9611 106.035 27.1291 106.262 27.2552 106.512C27.3829 106.762 27.4662 107.032 27.5016 107.31C27.7047 107.504 27.8728 107.731 27.9983 107.983C28.4813 108.937 28.2819 110.012 27.5524 110.38C26.823 110.748 25.8374 110.275 25.3543 109.318C25.227 109.068 25.1436 108.799 25.1079 108.52C24.7005 108.13 24.4384 107.611 24.3648 107.052C23.9573 106.661 23.6952 106.143 23.6217 105.583C23.4191 105.389 23.2512 105.162 23.1249 104.912C22.9985 104.662 22.9152 104.392 22.8785 104.114C22.6766 103.921 22.5093 103.694 22.3838 103.444C22.2558 103.194 22.1724 102.924 22.1374 102.646C22.0114 102.528 21.8993 102.397 21.8029 102.255C21.4006 102.337 20.9836 102.311 20.5944 102.18C20.4498 102.132 20.3098 102.071 20.1759 101.998C19.7409 102.114 19.2815 102.098 18.8558 101.951C17.8644 101.621 17.2522 100.739 17.5006 99.9783Z" fill="#3F3D56"/>
<g opacity="0.1">
<path opacity="0.1" d="M19.2666 96.9802C19.3703 97.0824 19.4843 97.1735 19.6069 97.2521C19.5903 97.5329 19.6275 97.8143 19.7164 98.0812C19.6378 97.9745 19.5685 97.8614 19.5091 97.7429C19.3868 97.5038 19.3048 97.2461 19.2666 96.9802Z" fill="black"/>
<path opacity="0.1" d="M18.1973 94.8682C18.3015 94.9692 18.4155 95.0596 18.5375 95.138C18.5211 95.4195 18.5583 95.7016 18.6471 95.9692C18.4102 95.644 18.2558 95.2662 18.1973 94.8682Z" fill="black"/>
<path opacity="0.1" d="M20.6279 94.0801C20.6373 93.9353 20.632 93.7898 20.6123 93.646C20.8035 93.8348 20.9627 94.0534 21.0836 94.2933C21.1426 94.4118 21.1923 94.5347 21.2322 94.6609C21.0693 94.4309 20.8642 94.2339 20.6279 94.0801Z" fill="black"/>
<path opacity="0.1" d="M27.4141 106.882C27.3285 106.762 27.2316 106.65 27.1246 106.549C27.1068 106.417 27.078 106.286 27.0386 106.158C27.1234 106.273 27.1987 106.394 27.2635 106.522C27.3228 106.638 27.3731 106.758 27.4141 106.882Z" fill="black"/>
<path opacity="0.1" d="M26.665 105.413C26.5795 105.293 26.4826 105.182 26.3756 105.08C26.3596 104.948 26.3321 104.817 26.2935 104.689C26.4546 104.907 26.5788 105.15 26.6611 105.409L26.665 105.413Z" fill="black"/>
<path opacity="0.1" d="M20.3386 99.1001C20.4413 99.2015 20.5547 99.2913 20.6769 99.368C20.6623 99.5928 20.6834 99.8186 20.7395 100.037C20.6736 100.048 20.6083 100.063 20.5439 100.082C20.41 100.01 20.27 99.9494 20.1254 99.9019C19.1242 99.5733 18.1092 99.9234 17.8609 100.684C17.7986 100.873 17.7871 101.076 17.8276 101.271C17.6667 101.102 17.5523 100.894 17.4954 100.667C17.4385 100.441 17.4411 100.203 17.503 99.9781C17.7533 99.2174 18.7683 98.8674 19.7695 99.1959C19.9135 99.2431 20.053 99.3033 20.1861 99.3758C20.2506 99.3582 20.3171 99.3426 20.3816 99.3308C20.3628 99.2548 20.3485 99.1778 20.3386 99.1001Z" fill="black"/>
<path opacity="0.1" d="M27.7817 107.619C27.867 107.734 27.9423 107.856 28.0066 107.985C28.0663 108.103 28.1167 108.226 28.1572 108.352C28.0717 108.232 27.9748 108.12 27.8678 108.018C27.8504 107.883 27.8216 107.749 27.7817 107.619Z" fill="black"/>
<path opacity="0.1" d="M21.6978 96.1981C21.7071 96.0532 21.7019 95.9077 21.6821 95.7639C21.8738 95.9523 22.033 96.171 22.1534 96.4112C22.2125 96.529 22.2622 96.6513 22.3021 96.7769C22.139 96.5475 21.934 96.3511 21.6978 96.1981Z" fill="black"/>
<path opacity="0.1" d="M23.245 104.822C23.2633 104.968 23.2954 105.112 23.3408 105.252C23.1778 105.029 23.0536 104.78 22.9731 104.515C23.0544 104.625 23.1454 104.728 23.245 104.822Z" fill="black"/>
<path opacity="0.1" d="M24.7289 107.76C24.7486 107.906 24.7813 108.05 24.8266 108.19C24.7481 108.083 24.6787 107.97 24.6193 107.852C24.555 107.726 24.5014 107.595 24.459 107.46C24.5409 107.567 24.6311 107.667 24.7289 107.76Z" fill="black"/>
<path opacity="0.1" d="M23.9876 106.291C24.006 106.437 24.038 106.581 24.0835 106.721C24.0056 106.614 23.9363 106.501 23.8762 106.383C23.8116 106.257 23.758 106.126 23.7158 105.992C23.7974 106.099 23.8884 106.199 23.9876 106.291Z" fill="black"/>
<path opacity="0.1" d="M22.5018 103.352C22.5199 103.498 22.552 103.643 22.5976 103.784C22.5235 103.677 22.4581 103.563 22.4021 103.446C22.3365 103.32 22.2822 103.189 22.2397 103.054C22.3179 103.161 22.4056 103.261 22.5018 103.352Z" fill="black"/>
<path opacity="0.1" d="M27.3649 99.638C26.6042 99.3877 25.7222 99.9978 25.3937 101.007C25.3461 101.151 25.3121 101.3 25.292 101.451C25.1228 101.582 24.9751 101.739 24.8539 101.916C24.8085 101.72 24.7396 101.529 24.6486 101.349C24.6153 101.283 24.5782 101.218 24.5391 101.154C24.6501 100.999 24.7817 100.861 24.9302 100.743C24.9503 100.592 24.9843 100.444 25.0319 100.299C25.3624 99.2977 26.2444 98.6876 27.0051 98.9301C27.2232 99.0138 27.416 99.1526 27.5647 99.3328C27.7134 99.513 27.813 99.7286 27.8538 99.9587C27.7209 99.8118 27.5526 99.7014 27.3649 99.638Z" fill="black"/>
<path opacity="0.1" d="M23.8369 100.426C23.8462 100.281 23.841 100.136 23.8213 99.9919C24.0129 100.18 24.1722 100.399 24.2926 100.639C24.3516 100.758 24.4013 100.881 24.4412 101.007C24.2788 100.776 24.0736 100.579 23.8369 100.426Z" fill="black"/>
<path opacity="0.1" d="M22.7676 98.3101C22.7769 98.1652 22.7716 98.0198 22.752 97.876C22.9427 98.0651 23.1018 98.2837 23.2233 98.5233C23.2823 98.6418 23.332 98.7647 23.3719 98.8909C23.2089 98.6609 23.0039 98.4638 22.7676 98.3101Z" fill="black"/>
<path opacity="0.1" d="M25.472 109.228C25.4908 109.375 25.5235 109.52 25.5698 109.66C25.4916 109.553 25.4223 109.439 25.3625 109.32C25.2982 109.194 25.2445 109.064 25.2021 108.929C25.284 109.036 25.3743 109.136 25.472 109.228Z" fill="black"/>
</g>
<path opacity="0.1" d="M16.04 90.2023C15.6933 89.9741 15.4138 89.6575 15.2304 89.2852C14.7474 88.3289 14.9468 87.2552 15.6763 86.8856C16.4057 86.516 17.3913 86.9912 17.8744 87.9475C18.0654 88.3164 18.1545 88.7295 18.1325 89.1444C18.477 89.376 18.7563 89.6922 18.9436 90.0627C19.1309 90.4332 19.22 90.8455 19.2022 91.2603C19.5492 91.4888 19.8292 91.8053 20.0138 92.1775C20.0725 92.2948 20.1222 92.4164 20.1624 92.5412C19.9034 92.1715 19.5304 91.8968 19.1005 91.759C19.0527 91.9118 18.9748 92.0534 18.8715 92.1758C18.7683 92.2981 18.6416 92.3986 18.4991 92.4714C18.3565 92.5443 18.2009 92.5879 18.0412 92.5999C17.8816 92.6119 17.7211 92.592 17.5693 92.5412C17.4243 92.9693 17.4243 93.4332 17.5693 93.8613C17.4958 93.7548 17.4305 93.6431 17.3737 93.5269C17.1826 93.158 17.0929 92.745 17.1136 92.33C16.7695 92.098 16.4906 91.7817 16.3033 91.4113C16.1161 91.0409 16.0268 90.6288 16.0439 90.2141L16.04 90.2023Z" fill="#3F3D56"/>
<path opacity="0.1" d="M4.28254 76.6419C3.98589 76.5032 3.69905 76.3445 3.42402 76.1667L6.60775 73.8395L2.86472 75.7658C2.10792 75.164 1.48188 74.4142 1.02491 73.5621C0.567931 72.71 0.289634 71.7737 0.207049 70.8103L6.5706 70.8768L0.193359 69.809C0.24827 68.8362 0.502935 67.885 0.941489 67.0149C1.38004 66.1447 1.99309 65.3742 2.74243 64.7513C3.49177 64.1285 4.36136 63.6666 5.29701 63.3944C6.23265 63.1223 7.21432 63.0458 8.18084 63.1696C9.14735 63.2934 10.078 63.615 10.9148 64.1142C11.7517 64.6134 12.4767 65.2796 13.0448 66.0712C13.613 66.8629 14.012 67.7631 14.217 68.7157C14.422 69.6683 14.4287 70.6529 14.2366 71.6082C14.6985 71.8219 15.1364 72.0841 15.5429 72.3904L12.2184 77.0135L16.2098 72.9693C17.052 73.7966 17.6748 74.8208 18.0217 75.9493C18.3686 77.0778 18.4287 78.275 18.1967 79.4326C19.4041 79.995 20.4289 80.8858 21.1538 82.0032C21.8788 83.1206 22.2746 84.4195 22.2962 85.7513C22.3177 87.0831 21.9639 88.394 21.2754 89.5342C20.5869 90.6745 19.5915 91.5979 18.4028 92.199C17.2142 92.8001 15.8804 93.0546 14.554 92.9333C13.2275 92.812 11.962 92.3199 10.9021 91.5132C9.84219 90.7065 9.03069 89.6179 8.56038 88.3717C8.09008 87.1255 7.97997 85.7721 8.24264 84.4663C6.80154 83.7947 5.62778 82.6585 4.90967 81.24C4.19155 79.8215 3.9707 78.2029 4.28254 76.6439V76.6419Z" fill="#191970"/>
<path opacity="0.1" d="M17.5711 74.8389C18.2924 76.2584 18.5129 77.8799 18.1969 79.4404C19.4043 80.0028 20.4291 80.8936 21.1541 82.011C21.879 83.1284 22.2749 84.4273 22.2964 85.7591C22.3179 87.0909 21.9642 88.4018 21.2757 89.5421C20.5872 90.6823 19.5917 91.6057 18.4031 92.2068C17.2145 92.8079 15.8807 93.0624 14.5542 92.9411C13.2278 92.8198 11.9623 92.3277 10.9023 91.521C9.84243 90.7143 9.03093 89.6257 8.56063 88.3795C8.09033 87.1333 7.98021 85.78 8.24288 84.4741C6.84853 83.8268 17.2133 74.129 17.5711 74.8389Z" fill="black"/>
<path opacity="0.1" d="M9.57653 64.5681C10.1587 64.5681 10.6306 64.0962 10.6306 63.514C10.6306 62.9319 10.1587 62.46 9.57653 62.46C8.99439 62.46 8.52246 62.9319 8.52246 63.514C8.52246 64.0962 8.99439 64.5681 9.57653 64.5681Z" fill="#191970"/>
<path opacity="0.1" d="M3.42419 65.2449C4.00634 65.2449 4.47826 64.7729 4.47826 64.1908C4.47826 63.6086 4.00634 63.1367 3.42419 63.1367C2.84204 63.1367 2.37012 63.6086 2.37012 64.1908C2.37012 64.7729 2.84204 65.2449 3.42419 65.2449Z" fill="#191970"/>
<path opacity="0.1" d="M1.05407 74.7078C1.63622 74.7078 2.10814 74.2358 2.10814 73.6537C2.10814 73.0715 1.63622 72.5996 1.05407 72.5996C0.471924 72.5996 0 73.0715 0 73.6537C0 74.2358 0.471924 74.7078 1.05407 74.7078Z" fill="#191970"/>
<path opacity="0.1" d="M4.25524 79.4346C4.83739 79.4346 5.30932 78.9627 5.30932 78.3805C5.30932 77.7983 4.83739 77.3264 4.25524 77.3264C3.6731 77.3264 3.20117 77.7983 3.20117 78.3805C3.20117 78.9627 3.6731 79.4346 4.25524 79.4346Z" fill="#191970"/>
<path opacity="0.1" d="M8.62829 89.2497C9.21044 89.2497 9.68236 88.7778 9.68236 88.1957C9.68236 87.6135 9.21044 87.1416 8.62829 87.1416C8.04614 87.1416 7.57422 87.6135 7.57422 88.1957C7.57422 88.7778 8.04614 89.2497 8.62829 89.2497Z" fill="#191970"/>
<path opacity="0.1" d="M8.62829 89.2497C9.21044 89.2497 9.68236 88.7778 9.68236 88.1957C9.68236 87.6135 9.21044 87.1416 8.62829 87.1416C8.04614 87.1416 7.57422 87.6135 7.57422 88.1957C7.57422 88.7778 8.04614 89.2497 8.62829 89.2497Z" fill="black"/>
<path opacity="0.1" d="M18.3534 78.1323C18.9355 78.1323 19.4075 77.6604 19.4075 77.0782C19.4075 76.4961 18.9355 76.0242 18.3534 76.0242C17.7712 76.0242 17.2993 76.4961 17.2993 77.0782C17.2993 77.6604 17.7712 78.1323 18.3534 78.1323Z" fill="#191970"/>
<path opacity="0.1" d="M18.3534 78.1323C18.9355 78.1323 19.4075 77.6604 19.4075 77.0782C19.4075 76.4961 18.9355 76.0242 18.3534 76.0242C17.7712 76.0242 17.2993 76.4961 17.2993 77.0782C17.2993 77.6604 17.7712 78.1323 18.3534 78.1323Z" fill="black"/>
<path opacity="0.1" d="M19.4778 94.4011C20.1779 94.0471 20.3891 93.0459 19.9804 92.1208C20.0019 92.16 20.0234 92.1971 20.043 92.2362C20.526 93.1925 20.3265 94.2661 19.5951 94.6358C18.8637 95.0054 17.882 94.5302 17.399 93.5739C17.3794 93.5348 17.3599 93.4956 17.3423 93.4546C17.8449 94.3326 18.7777 94.755 19.4778 94.4011Z" fill="black"/>
<path opacity="0.1" d="M20.5164 96.4582C21.2165 96.1042 21.4297 95.101 21.0209 94.178C21.0424 94.2151 21.064 94.2543 21.0835 94.2934C21.5665 95.2496 21.3671 96.3233 20.6357 96.6929C19.9043 97.0625 18.9226 96.5873 18.4395 95.631C18.418 95.5919 18.4004 95.5508 18.3828 95.5117C18.8854 96.3937 19.8202 96.8122 20.5164 96.4582Z" fill="black"/>
<path opacity="0.1" d="M21.5569 98.5136C22.257 98.1597 22.4702 97.1584 22.0595 96.2334C22.083 96.2725 22.1025 96.3097 22.124 96.3507C22.6071 97.3051 22.4056 98.3806 21.6762 98.7483C20.9468 99.1159 19.9631 98.6427 19.4801 97.6864C19.4585 97.6473 19.4409 97.6082 19.4233 97.5671C19.924 98.4452 20.8568 98.8676 21.5569 98.5136Z" fill="black"/>
<path opacity="0.1" d="M22.5969 100.571C23.2971 100.217 23.5102 99.2155 23.0995 98.2905C23.1211 98.3277 23.1426 98.3668 23.1621 98.4059C23.6471 99.3622 23.4457 100.436 22.7162 100.805C21.9868 101.175 21.0012 100.7 20.5181 99.7436C20.4986 99.7044 20.481 99.6634 20.4634 99.6243C20.964 100.5 21.8968 100.925 22.5969 100.571Z" fill="black"/>
<path opacity="0.1" d="M23.6375 102.626C24.3376 102.272 24.5488 101.271 24.1401 100.348C24.1616 100.385 24.1831 100.424 24.2026 100.463C24.6857 101.42 24.4862 102.493 23.7568 102.863C23.0273 103.232 22.0417 102.755 21.5587 101.801C21.5391 101.76 21.5215 101.721 21.502 101.682C22.0045 102.558 22.9374 102.98 23.6375 102.626Z" fill="black"/>
<path opacity="0.1" d="M24.678 104.683C25.3781 104.329 25.5893 103.328 25.1806 102.403C25.2021 102.442 25.2236 102.479 25.2432 102.518C25.7262 103.475 25.5267 104.548 24.7973 104.918C24.0678 105.288 23.0822 104.812 22.5992 103.856C22.5796 103.817 22.5601 103.778 22.5425 103.737C23.0451 104.607 23.9779 105.037 24.678 104.683Z" fill="black"/>
<path opacity="0.1" d="M25.7185 106.741C26.4167 106.387 26.6298 105.383 26.2211 104.46C26.2426 104.498 26.2641 104.537 26.2837 104.576C26.7667 105.532 26.5673 106.606 25.8359 106.975C25.1045 107.345 24.1228 106.868 23.6397 105.913C23.6202 105.872 23.6006 105.833 23.583 105.794C24.0856 106.67 25.0184 107.095 25.7185 106.741Z" fill="black"/>
<path opacity="0.1" d="M26.7566 108.796C27.4567 108.442 27.6699 107.441 27.2592 106.516C27.2827 106.555 27.3022 106.592 27.3237 106.633C27.8068 107.588 27.6053 108.663 26.8759 109.031C26.1465 109.398 25.1628 108.925 24.6798 107.969C24.6582 107.93 24.6406 107.891 24.623 107.85C25.1256 108.728 26.0565 109.15 26.7566 108.796Z" fill="black"/>
<path opacity="0.1" d="M27.447 110.147C28.1472 109.793 28.3584 108.792 27.9496 107.867C27.9712 107.906 27.9927 107.943 28.0122 107.985C28.4953 108.939 28.2958 110.014 27.5663 110.382C26.8369 110.75 25.8513 110.276 25.3682 109.32C25.3487 109.281 25.3291 109.242 25.3115 109.201C25.8082 110.083 26.7411 110.501 27.447 110.147Z" fill="black"/>
<path opacity="0.1" d="M8.64603 100.995C8.53742 100.684 8.47163 100.36 8.45047 100.031C8.37816 100.031 8.30668 100.016 8.24049 99.9865C8.17429 99.9573 8.11482 99.9149 8.06577 99.8618C8.01672 99.8086 7.97916 99.7459 7.95542 99.6776C7.93168 99.6093 7.92228 99.5369 7.92781 99.4647C7.93333 99.3926 7.95366 99.3225 7.98753 99.2586C8.0214 99.1947 8.06808 99.1384 8.12465 99.0934C8.18122 99.0484 8.24647 99.0155 8.31633 98.9968C8.38619 98.9781 8.45915 98.974 8.53065 98.9847C8.64799 98.4517 8.88241 97.9515 9.21692 97.5203C9.55143 97.089 9.97766 96.7376 10.4648 96.4913C10.4017 96.3666 10.3909 96.2219 10.4345 96.0892C10.4781 95.9564 10.5727 95.8464 10.6975 95.7834C10.8222 95.7204 10.9669 95.7095 11.0996 95.7532C11.2324 95.7968 11.3424 95.8914 11.4054 96.0161C11.4283 96.0603 11.4441 96.1078 11.4523 96.1569C12.031 96.0507 12.6266 96.084 13.1899 96.2541C13.7531 96.4241 14.2676 96.726 14.6908 97.1347C15.0141 97.0818 15.3429 97.0726 15.6686 97.1074L16.0949 99.0473L16.1047 97.1758C16.5896 97.2879 17.0468 97.497 17.4487 97.7905C17.8506 98.0841 18.1889 98.4559 18.4432 98.8837C18.6975 99.3115 18.8625 99.7864 18.9284 100.28C18.9942 100.773 18.9595 101.274 18.8263 101.754C18.6931 102.234 18.4642 102.681 18.1534 103.07C17.8426 103.458 17.4563 103.78 17.0178 104.015C16.5792 104.251 16.0976 104.395 15.6019 104.439C15.1062 104.483 14.6067 104.427 14.1335 104.273C14.082 104.364 14.0052 104.438 13.9125 104.486C13.8158 104.535 13.7065 104.553 13.5993 104.537C13.4922 104.522 13.3923 104.474 13.3134 104.4C13.2344 104.326 13.1801 104.229 13.1578 104.123C13.1356 104.017 13.1464 103.907 13.1889 103.807C13.0212 103.69 12.8636 103.559 12.7176 103.416C11.9484 103.541 11.1594 103.419 10.4639 103.067C9.76829 102.716 9.20178 102.154 8.84551 101.461L10.8304 101.126L8.64603 100.995Z" fill="#191970"/>
<g opacity="0.1">
<path opacity="0.1" d="M11.712 101.938C12.4453 100.96 12.8951 99.8259 13.4114 98.7269C13.6182 98.2746 13.8506 97.8345 14.1076 97.4088L14.4987 96.957C14.5652 97.0137 14.6297 97.0705 14.6943 97.1291C15.0175 97.0762 15.3464 97.067 15.6721 97.1017L16.0984 99.0417L16.1043 97.1761C16.5892 97.2881 17.0463 97.4973 17.4482 97.7908C17.8501 98.0843 18.1884 98.4562 18.4427 98.884C18.697 99.3118 18.8621 99.7866 18.9279 100.28C18.9938 100.773 18.9591 101.275 18.8259 101.754C18.6927 102.234 18.4638 102.681 18.1529 103.07C17.8421 103.459 17.4558 103.78 17.0173 104.016C16.5788 104.251 16.0972 104.395 15.6015 104.439C15.1058 104.484 14.6063 104.427 14.133 104.273C14.0816 104.364 14.0048 104.438 13.912 104.486C13.8154 104.535 13.7061 104.553 13.5989 104.537C13.4917 104.522 13.3919 104.474 13.3129 104.4C13.2339 104.326 13.1796 104.229 13.1574 104.123C13.1351 104.017 13.146 103.907 13.1885 103.808C13.0208 103.69 12.8631 103.56 12.7172 103.416C11.9639 103.537 11.1916 103.423 10.5054 103.09C10.9669 102.773 11.3744 102.384 11.712 101.938Z" fill="black"/>
</g>
<path opacity="0.1" d="M24.6916 97.7803C24.6603 97.7187 24.6415 97.6515 24.6363 97.5826C24.631 97.5137 24.6395 97.4445 24.6611 97.3789C24.6827 97.3133 24.7171 97.2526 24.7623 97.2003C24.8075 97.148 24.8625 97.1052 24.9243 97.0743C24.9981 97.0365 25.0799 97.017 25.1629 97.0176C25.312 96.2256 25.7166 95.5043 26.3147 94.9642C26.218 94.5884 26.1817 94.1996 26.2072 93.8123L28.1413 93.4877L26.2619 93.3684C26.296 93.1918 26.343 93.0179 26.4027 92.8482C26.3289 92.7991 26.2689 92.7317 26.2287 92.6527C26.1816 92.5585 26.1639 92.4524 26.1776 92.348C26.1913 92.2436 26.236 92.1457 26.3058 92.0668C26.3756 91.988 26.4673 91.9318 26.5693 91.9056C26.6712 91.8793 26.7787 91.8841 26.8779 91.9193C27.2233 91.4279 27.6849 91.0296 28.2214 90.7597C28.8534 90.4389 29.5645 90.3073 30.2695 90.3806C30.9744 90.4538 31.6432 90.7288 32.1958 91.1726C32.7484 91.6164 33.1612 92.2101 33.3848 92.8826C33.6085 93.5551 33.6334 94.2779 33.4566 94.9642C33.5485 95.0036 33.6273 95.0684 33.6837 95.151C33.7401 95.2335 33.7719 95.3305 33.7751 95.4304C33.7784 95.5304 33.7531 95.6292 33.7023 95.7153C33.6514 95.8014 33.577 95.8712 33.4879 95.9166C33.4211 95.9504 33.3478 95.9697 33.2729 95.9731C33.1981 95.9765 33.1234 95.9638 33.0538 95.9361C32.865 96.2525 32.6297 96.5386 32.3556 96.7849C32.556 97.5647 32.4963 98.3887 32.1855 99.1316L29.5982 98.451L31.9117 99.6694C31.5643 100.224 31.0758 100.676 30.4963 100.979C29.9167 101.282 29.2669 101.426 28.6135 101.395C27.9601 101.364 27.3266 101.161 26.778 100.804C26.2294 100.448 25.7853 99.9525 25.4914 99.3682C25.2868 98.9614 25.1582 98.5207 25.112 98.0677C25.0232 98.0597 24.938 98.029 24.8644 97.9787C24.7908 97.9284 24.7313 97.8601 24.6916 97.7803Z" fill="#191970"/>
<path opacity="0.1" d="M24.6916 97.7802C24.6603 97.7186 24.6415 97.6514 24.6363 97.5825C24.631 97.5136 24.6395 97.4444 24.6611 97.3788C24.6827 97.3132 24.7171 97.2525 24.7623 97.2002C24.8075 97.1479 24.8625 97.1051 24.9243 97.0742C24.9981 97.0364 25.0799 97.0169 25.1629 97.0175C25.312 96.2255 25.7166 95.5043 26.3147 94.9641C26.2991 94.9035 26.2854 94.8409 26.2737 94.7803C26.3438 94.8303 26.4093 94.8866 26.4692 94.9485C26.8193 95.3396 26.9992 95.8461 27.3434 96.2333C27.7746 96.6782 28.3544 96.9489 28.9724 96.994C29.5845 97.0361 30.1995 96.9867 30.797 96.8473C31.2897 96.7204 31.7981 96.6644 32.3067 96.6811L32.4514 96.7007L32.3615 96.7848C32.5619 97.5646 32.5021 98.3887 32.1913 99.1315L29.5982 98.4509L31.9117 99.6693C31.5643 100.224 31.0758 100.675 30.4963 100.979C29.9167 101.282 29.2669 101.426 28.6135 101.395C27.9601 101.364 27.3266 101.16 26.778 100.804C26.2294 100.448 25.7853 99.9525 25.4914 99.3681C25.2868 98.9613 25.1582 98.5206 25.112 98.0676C25.0232 98.0596 24.938 98.029 24.8644 97.9786C24.7908 97.9283 24.7313 97.86 24.6916 97.7802Z" fill="black"/>
</g>
<path opacity="0.1" d="M67.7323 10.1517C66.9592 10.0049 66.1598 10.0921 65.4365 10.402C65.0025 10.5954 64.5328 10.6953 64.0578 10.6953C63.5827 10.6953 63.113 10.5954 62.6791 10.402C62.1662 10.1772 61.6106 10.0666 61.0508 10.0777C60.4909 10.0888 59.9402 10.2215 59.4367 10.4666C59.1491 10.6184 58.829 10.6983 58.5038 10.6993C57.1897 10.6993 56.0965 9.37533 55.8696 7.62898C56.1317 7.4369 56.3547 7.19664 56.5267 6.92105C57.2972 5.67924 58.4823 4.88135 59.8297 4.88135C61.1771 4.88135 62.3505 5.66359 63.121 6.89758C63.3512 7.26816 63.6729 7.57327 64.0551 7.78356C64.4373 7.99385 64.8672 8.10225 65.3035 8.09832H65.3387C66.3752 8.09246 67.2806 8.93141 67.7323 10.1517Z" fill="#191970"/>
<path opacity="0.1" d="M71.7257 4.67586L69.6019 6.02327L70.8907 3.67654C70.5252 3.38532 70.0731 3.22429 69.6058 3.21893H69.5726C69.4252 3.22073 69.278 3.20961 69.1326 3.18569L68.411 3.6433L68.7199 3.08204C68.2114 2.90507 67.7711 2.57342 67.4605 2.13357L66.1679 2.94123L66.9814 1.46084C66.2285 0.555392 65.2116 0 64.0949 0C62.7553 0 61.5526 0.797888 60.79 2.0397C60.5617 2.41062 60.2395 2.71455 59.8558 2.92063C59.4721 3.12671 59.0408 3.2276 58.6055 3.21306H58.541C57.0626 3.21306 55.8618 4.88902 55.8618 6.96001C55.8618 9.031 57.0626 10.705 58.541 10.705C58.8662 10.704 59.1863 10.6242 59.4738 10.4723C59.9773 10.227 60.5282 10.0944 61.0881 10.0836C61.6481 10.0728 62.2036 10.1841 62.7162 10.4097C63.1503 10.6025 63.62 10.7021 64.0949 10.7021C64.5699 10.7021 65.0396 10.6025 65.4736 10.4097C65.9823 10.1889 66.5326 10.0801 67.087 10.0909C67.6414 10.1017 68.187 10.2318 68.6867 10.4723C68.972 10.6201 69.2884 10.6979 69.6097 10.6991C71.0901 10.6991 72.2889 9.02318 72.2889 6.95414C72.2941 6.15963 72.1005 5.37644 71.7257 4.67586Z" fill="#191970"/>
<path opacity="0.1" d="M23.5357 37.2447C22.4314 37.0357 21.2899 37.1596 20.2561 37.6006C19.6357 37.8756 18.9644 38.0169 18.2858 38.0152C17.6072 38.0135 16.9365 37.8689 16.3175 37.5908C15.5851 37.2697 14.7916 37.1116 13.992 37.1274C13.1924 37.1433 12.4058 37.3328 11.6866 37.6827C11.2754 37.8994 10.8178 38.0135 10.3529 38.0152C8.47554 38.0152 6.91301 36.1241 6.58838 33.6288C6.96353 33.3554 7.28228 33.0121 7.52707 32.6177C8.62808 30.844 10.3334 29.7039 12.2479 29.7039C14.1624 29.7039 15.8462 30.8303 16.9414 32.5845C17.2705 33.1161 17.7317 33.5535 18.28 33.8541C18.8283 34.1546 19.4451 34.3081 20.0703 34.2995H20.1192C21.6016 34.2976 22.8962 35.4964 23.5357 37.2447Z" fill="#191970"/>
<path opacity="0.1" d="M29.2461 29.4123L26.211 31.3366L28.0531 27.9866C27.5311 27.5699 26.8848 27.3394 26.2168 27.3315H26.1679C25.9571 27.3346 25.7463 27.3189 25.5382 27.2846L24.5135 27.9475L24.9555 27.1457C24.2262 26.8909 23.5964 26.4117 23.1563 25.7768L21.3141 26.9502L22.4738 24.8186C21.3963 23.5259 19.9452 22.7339 18.3494 22.7339C16.4349 22.7339 14.7296 23.8721 13.6286 25.6458C13.3025 26.178 12.8411 26.6143 12.2914 26.9101C11.7417 27.2059 11.1235 27.3506 10.4996 27.3296H10.396C8.28196 27.3296 6.56885 29.7252 6.56885 32.6821C6.56885 35.6389 8.28196 38.0346 10.396 38.0346C10.8611 38.0333 11.319 37.9185 11.7297 37.7002C12.449 37.3505 13.2356 37.1614 14.0352 37.1458C14.8348 37.1303 15.6283 37.2888 16.3606 37.6102C16.9796 37.8883 17.6502 38.0329 18.3288 38.0346C19.0074 38.0362 19.6788 37.895 20.2992 37.62C21.0261 37.3045 21.8123 37.149 22.6046 37.1642C23.3969 37.1794 24.1766 37.3649 24.8909 37.708C25.2978 37.9209 25.7498 38.0329 26.209 38.0346C28.323 38.0346 30.0361 35.637 30.0361 32.6821C30.0509 31.5432 29.7792 30.4188 29.2461 29.4123Z" fill="#191970"/>
<path opacity="0.1" d="M146.274 17.7784C147.047 17.6318 147.846 17.7189 148.57 18.0287C149.003 18.2222 149.473 18.3222 149.948 18.3222C150.422 18.3222 150.892 18.2222 151.325 18.0287C151.838 17.8039 152.394 17.6933 152.954 17.7044C153.513 17.7156 154.064 17.8482 154.568 18.0933C154.855 18.2449 155.175 18.3248 155.5 18.326C156.815 18.326 157.91 17.0021 158.137 15.2557C157.874 15.0641 157.651 14.8238 157.48 14.5478C156.713 13.302 155.514 12.4983 154.171 12.4983C152.827 12.4983 151.652 13.2805 150.881 14.5145C150.652 14.8868 150.33 15.1934 149.947 15.4048C149.564 15.6162 149.132 15.7251 148.695 15.7211H148.662C147.621 15.7192 146.714 16.5581 146.274 17.7784Z" fill="#191970"/>
<path opacity="0.1" d="M142.269 12.3028L144.392 13.6463L143.102 11.2996C143.467 11.0086 143.919 10.8476 144.387 10.842H144.422C144.569 10.8437 144.716 10.8325 144.862 10.8087L145.581 11.2663L145.273 10.7051C145.785 10.5311 146.229 10.2007 146.544 9.76051L147.832 10.578L147.017 9.09756C147.772 8.19211 148.777 7.63672 149.905 7.63672C151.245 7.63672 152.448 8.43461 153.21 9.67642C153.438 10.0475 153.761 10.3515 154.144 10.5576C154.528 10.7637 154.959 10.8645 155.395 10.8498H155.465C156.946 10.8498 158.144 12.5257 158.144 14.5967C158.144 16.6677 156.946 18.3417 155.465 18.3417C155.14 18.3403 154.82 18.2604 154.532 18.109C154.029 17.8638 153.478 17.7311 152.918 17.7203C152.358 17.7095 151.802 17.8208 151.29 18.0464C150.856 18.2391 150.387 18.3387 149.912 18.3387C149.438 18.3387 148.968 18.2391 148.534 18.0464C148.025 17.8255 147.475 17.7168 146.92 17.7276C146.365 17.7384 145.819 17.8685 145.319 18.109C145.034 18.257 144.718 18.3348 144.396 18.3358C142.918 18.3358 141.717 16.6599 141.717 14.5909C141.707 13.7941 141.896 13.0074 142.269 12.3028Z" fill="#191970"/>
<path opacity="0.1" d="M120.393 151.927C132.814 151.927 142.883 150.176 142.883 148.016C142.883 145.856 132.814 144.105 120.393 144.105C107.973 144.105 97.9038 145.856 97.9038 148.016C97.9038 150.176 107.973 151.927 120.393 151.927Z" fill="#191970"/>
<path d="M108.622 129.438L73.7754 128.99L73.879 128.096L75.5628 113.353H106.166L108.417 128.096L108.589 129.215L108.622 129.438Z" fill="#D0D2D5"/>
<path opacity="0.1" d="M108.589 129.215H91.1999L73.7754 128.99L73.879 128.096H108.417L108.589 129.215Z" fill="black"/>
<path d="M114.208 128.321H67.9673V129.438H114.208V128.321Z" fill="#D0D2D5"/>
<path d="M158.324 24.803C158.327 24.0324 158.023 23.2923 157.481 22.7453C156.938 22.1982 156.2 21.8889 155.43 21.8853H26.2972C25.9153 21.887 25.5375 21.964 25.1854 22.1118C24.8332 22.2596 24.5137 22.4754 24.2449 22.7467C23.9761 23.018 23.7635 23.3395 23.619 23.693C23.4745 24.0465 23.4011 24.425 23.4029 24.8069V103.08H158.324V24.803Z" fill="#3F3D56"/>
<path d="M23.4028 102.298V111.466C23.4028 112.233 23.7078 112.97 24.2506 113.512C24.7933 114.055 25.5295 114.36 26.2971 114.36H155.43C156.197 114.36 156.934 114.055 157.476 113.512C158.019 112.97 158.324 112.233 158.324 111.466V102.298H23.4028Z" fill="#D0D2D5"/>
<path d="M153.422 27H29V97.3647H153.422V27Z" fill="white"/>
<path d="M91 71C92.1046 71 93 70.1046 93 69C93 67.8954 92.1046 67 91 67C89.8954 67 89 67.8954 89 69C89 70.1046 89.8954 71 91 71Z" fill="#161665"/>
<path d="M91 53C89.9 53 89 53.9 89 55V63C89 64.1 89.9 65 91 65C92.1 65 93 64.1 93 63V55C93 53.9 92.1 53 91 53Z" fill="#161665"/>
<path d="M91.5343 110.881C91.9912 110.881 92.4422 110.778 92.8531 110.578C93.2641 110.379 93.6243 110.088 93.9064 109.729C93.9922 109.62 94.0706 109.505 94.1411 109.385L92.4847 109.105L94.2741 109.117C94.4457 108.744 94.5392 108.339 94.5489 107.929C94.5587 107.518 94.4845 107.11 94.3308 106.729L91.9313 107.973L94.145 106.346C93.9371 105.988 93.658 105.678 93.3249 105.433C92.9918 105.188 92.6119 105.014 92.2088 104.922C91.8057 104.83 91.388 104.822 90.9817 104.899C90.5754 104.975 90.1891 105.134 89.8468 105.366C89.5046 105.598 89.2137 105.898 88.9922 106.247C88.7707 106.596 88.6234 106.987 88.5593 107.395C88.4953 107.804 88.5159 108.221 88.62 108.621C88.724 109.021 88.9092 109.396 89.1641 109.721C89.4452 110.082 89.8048 110.373 90.2154 110.574C90.6261 110.775 91.0771 110.88 91.5343 110.881Z" fill="#191970"/>
<path opacity="0.1" d="M94.5498 114.358L108.452 128.321L106.319 114.358H94.5498Z" fill="black"/>
<path opacity="0.1" d="M153.447 26.8015H28.8901V30.9122H153.447V26.8015Z" fill="#444053"/>
<path opacity="0.3" d="M109.551 27.5173H72.2497C72.187 27.5173 72.1362 27.5681 72.1362 27.6308V29.9051C72.1362 29.9678 72.187 30.0186 72.2497 30.0186H109.551C109.614 30.0186 109.664 29.9678 109.664 29.9051V27.6308C109.664 27.5681 109.614 27.5173 109.551 27.5173Z" fill="#191970"/>
<path d="M108.55 29.027H108.458L108.425 28.9976C108.539 28.8609 108.601 28.6886 108.601 28.5107C108.6 28.3647 108.555 28.2222 108.473 28.1014C108.391 27.9806 108.275 27.8868 108.14 27.8318C108.005 27.7768 107.856 27.7631 107.713 27.7924C107.57 27.8218 107.439 27.8928 107.336 27.9966C107.234 28.1004 107.164 28.2323 107.136 28.3757C107.108 28.5191 107.124 28.6675 107.18 28.8021C107.236 28.9368 107.331 29.0518 107.453 29.1326C107.575 29.2133 107.718 29.2562 107.864 29.2558C108.042 29.2551 108.214 29.1922 108.351 29.0778L108.384 29.1072V29.1991L108.957 29.7721L109.127 29.6L108.55 29.027ZM107.864 29.027C107.762 29.0274 107.662 28.9974 107.576 28.9409C107.491 28.8844 107.425 28.8039 107.385 28.7096C107.346 28.6153 107.335 28.5115 107.355 28.4112C107.375 28.3109 107.424 28.2187 107.496 28.1463C107.568 28.0739 107.66 28.0246 107.76 28.0045C107.861 27.9844 107.964 27.9945 108.059 28.0335C108.153 28.0725 108.234 28.1387 108.291 28.2237C108.348 28.3086 108.378 28.4085 108.378 28.5107C108.379 28.5785 108.366 28.6457 108.34 28.7084C108.314 28.7712 108.277 28.8282 108.229 28.8762C108.181 28.9242 108.124 28.9623 108.061 28.9882C107.999 29.0141 107.931 29.0272 107.864 29.027Z" fill="#3F3D56"/>
<path opacity="0.8" d="M31.1294 29.6098C31.5452 29.6098 31.8823 29.2727 31.8823 28.8569C31.8823 28.4411 31.5452 28.104 31.1294 28.104C30.7136 28.104 30.3765 28.4411 30.3765 28.8569C30.3765 29.2727 30.7136 29.6098 31.1294 29.6098Z" fill="#FA5959"/>
<path opacity="0.8" d="M33.2002 29.6098C33.616 29.6098 33.9531 29.2727 33.9531 28.8569C33.9531 28.4411 33.616 28.104 33.2002 28.104C32.7844 28.104 32.4473 28.4411 32.4473 28.8569C32.4473 29.2727 32.7844 29.6098 33.2002 29.6098Z" fill="#FED253"/>
<path opacity="0.8" d="M35.2734 29.6098C35.6892 29.6098 36.0263 29.2727 36.0263 28.8569C36.0263 28.4411 35.6892 28.104 35.2734 28.104C34.8576 28.104 34.5205 28.4411 34.5205 28.8569C34.5205 29.2727 34.8576 29.6098 35.2734 29.6098Z" fill="#8CCF4D"/>
<path d="M133.177 145.736C133.063 145.556 132.92 145.396 132.753 145.265C131.898 144.457 131.501 143.272 131.29 142.11C131.079 140.949 131.018 139.764 130.68 138.627C130.496 138.045 130.265 137.478 129.991 136.932C129.796 136.513 129.549 135.694 129.191 135.401C129.121 135.34 129.036 135.299 128.945 135.281C128.776 134.922 128.535 134.601 128.237 134.339C127.678 133.832 126.995 133.429 126.622 132.774C126.519 132.547 126.393 132.331 126.244 132.131C125.992 131.853 125.593 131.74 125.36 131.446C125.057 131.067 125.126 130.523 125.165 130.04C125.204 129.557 125.165 128.978 124.746 128.724C124.496 128.57 124.173 128.585 123.913 128.448C123.522 128.253 123.368 127.76 123.375 127.32C123.383 126.88 123.52 126.452 123.555 126.012C123.665 124.611 122.742 123.219 123.098 121.862C123.233 121.348 123.542 120.902 123.77 120.423C123.85 120.263 123.916 120.097 123.966 119.926C124.576 120.168 125.217 120.322 125.871 120.385C124.793 117.968 125.067 115.16 124.564 112.563L124.629 112.475C125.137 111.805 125.425 110.995 125.454 110.156C125.454 109.19 125.003 108.286 124.799 107.34C124.625 106.536 124.633 105.695 124.408 104.905C124.252 104.414 124.045 103.941 123.79 103.493C123.546 103.04 123.29 102.595 123.021 102.157C122.771 101.328 122.52 100.499 122.269 99.6696C121.917 98.5061 121.555 97.3229 120.87 96.3177C120.62 95.9501 120.544 95.203 120.158 94.9801C119.846 94.8182 119.491 94.7561 119.142 94.8021C118.598 94.4971 118.121 94.057 118.052 93.4547C118.046 93.3231 118.059 93.1913 118.091 93.0636H118.158C119.018 92.9854 119.454 92.2266 119.902 91.5617C120.626 90.4861 120.35 89.0311 119.902 87.8069C119.791 87.4206 119.59 87.066 119.316 86.7724C118.688 86.1857 117.694 86.3148 116.885 86.0312C116.613 85.9374 116.359 85.7946 116.081 85.7281C115.543 85.603 114.98 85.779 114.487 86.0273C113.994 86.2757 113.535 86.5964 113.019 86.792C112.502 86.9875 111.865 87.142 111.738 87.672C111.702 87.8505 111.717 88.0354 111.781 88.2059C111.899 88.5459 112.108 88.8474 112.385 89.0781C112.165 89.5313 112.046 90.0268 112.036 90.5305C112.027 91.0341 112.126 91.5338 112.328 91.9953C112.53 92.4567 112.83 92.8688 113.207 93.2031C113.584 93.5375 114.029 93.7861 114.511 93.9319C114.659 94.1705 114.798 94.413 114.925 94.6613C115.152 95.0994 115.344 95.6157 115.266 96.085C115.124 96.2353 114.993 96.3954 114.874 96.5641C114.313 97.3464 113.994 98.2636 113.701 99.1788C113.307 100.347 112.991 101.541 112.757 102.752C112.279 103.767 111.697 104.737 111.35 105.802C110.731 105.803 110.114 105.72 109.516 105.556L107.866 105.183C107.291 105.051 106.692 104.911 106.242 104.531C106.004 104.336 105.818 104.076 105.576 103.882C105.333 103.688 104.846 103.462 104.58 103.622C104.532 103.651 104.486 103.686 104.445 103.726C104.203 103.235 103.972 102.748 103.69 102.273C103.286 101.608 102.683 100.999 101.92 100.872C101.454 100.797 100.978 100.908 100.593 101.181C100.147 101.498 99.8671 102.159 100.202 102.605C100.285 102.704 100.376 102.797 100.473 102.883C100.7 103.144 100.902 103.424 101.078 103.722C101.708 104.607 102.651 105.219 103.716 105.435L103.647 105.63C103.508 106.037 103.213 106.528 103.287 106.95L110.629 109.463C111.1 109.654 111.6 109.765 112.107 109.79C112.305 109.788 112.502 109.762 112.694 109.712V110.087V110.103C112.713 112.682 112.303 115.244 112.227 117.822C112.213 118.293 112.227 118.799 112.524 119.167C112.856 119.57 113.447 119.65 113.961 119.558C114.085 119.537 114.206 119.51 114.325 119.476C114.499 120.125 114.624 120.786 114.7 121.453L115.185 124.946C115.248 125.303 115.273 125.666 115.262 126.029C115.205 126.849 114.773 127.582 114.46 128.339C114.147 129.096 113.961 130.001 114.372 130.709C114.501 130.928 114.679 131.114 114.794 131.341C114.941 131.692 115.008 132.071 114.99 132.451C115.02 133.505 115.048 134.56 115.076 135.616C114.991 135.602 114.903 135.619 114.829 135.665C114.423 135.981 114.468 137.489 114.438 137.957C114.407 138.739 114.438 139.537 114.395 140.327C114.344 141.391 114.173 142.447 113.885 143.473C113.814 143.807 113.66 144.117 113.437 144.375C113.208 144.574 112.935 144.715 112.641 144.787C111.667 145.093 110.648 145.231 109.628 145.198C109.215 145.184 108.785 145.145 108.401 145.302C108.018 145.458 107.709 145.888 107.848 146.28C107.967 146.608 108.329 146.765 108.656 146.888C109.402 147.151 110.122 147.482 110.807 147.877C111.07 148.057 111.348 148.215 111.638 148.349C111.915 148.448 112.202 148.519 112.494 148.56L115.962 149.158C116.672 149.279 117.526 149.354 117.978 148.767C118.222 148.45 118.258 148.02 118.246 147.617C118.226 146.835 118.07 146.039 118.172 145.257C118.249 144.794 118.371 144.341 118.535 143.902C118.881 142.876 119.228 141.85 119.576 140.825C119.924 139.797 120.276 138.758 120.411 137.679C120.46 137.288 120.456 136.842 120.157 136.597C120.081 136.535 119.993 136.49 119.898 136.464C119.887 135.522 119.763 134.577 119.816 133.635C119.83 133.4 119.853 133.165 119.873 132.929C120.054 133.101 120.216 133.292 120.356 133.5C120.69 134.024 120.814 134.716 121.324 135.064C121.758 135.361 122.402 135.346 122.707 135.776C122.805 135.941 122.878 136.12 122.926 136.306C123.103 136.767 123.368 137.189 123.708 137.548C123.824 137.977 123.986 138.393 124.191 138.788C124.479 139.397 124.766 140.003 125.051 140.608C125.345 141.261 125.671 141.899 126.029 142.519C126.302 142.909 126.523 143.334 126.684 143.782C126.96 144.748 126.51 145.808 125.798 146.52C125.087 147.232 124.148 147.641 123.223 148.022C123.125 148.055 123.036 148.108 122.961 148.178C122.881 148.273 122.838 148.395 122.842 148.519C122.842 148.971 123.213 149.358 123.639 149.497C124.075 149.614 124.532 149.63 124.975 149.545C127.474 149.242 129.966 148.632 132.176 147.418C132.506 147.261 132.799 147.035 133.034 146.755C133.148 146.614 133.221 146.444 133.246 146.265C133.271 146.086 133.247 145.903 133.177 145.736Z" fill="url(#paint0_linear)"/>
<path d="M122.615 101.881C123.032 102.521 123.423 103.177 123.788 103.848C124.044 104.293 124.252 104.763 124.408 105.251C124.635 106.033 124.629 106.868 124.799 107.666C124.995 108.605 125.453 109.5 125.453 110.462C125.423 111.296 125.134 112.1 124.627 112.762C124.122 113.419 123.543 114.016 122.902 114.542C121.426 110.716 120.601 106.67 120.462 102.571C120.442 102.004 120.438 101.42 120.646 100.89C120.773 100.557 121.383 99.6459 121.776 100.004C121.919 100.135 121.956 100.725 122.044 100.923C122.209 101.257 122.4 101.577 122.615 101.881Z" fill="#2F2E41"/>
<path opacity="0.1" d="M122.615 101.881C123.032 102.521 123.423 103.177 123.788 103.848C124.044 104.293 124.252 104.763 124.408 105.251C124.635 106.033 124.629 106.868 124.799 107.666C124.995 108.605 125.453 109.5 125.453 110.462C125.423 111.296 125.134 112.1 124.627 112.762C124.122 113.419 123.543 114.016 122.902 114.542C121.426 110.716 120.601 106.67 120.462 102.571C120.442 102.004 120.438 101.42 120.646 100.89C120.773 100.557 121.383 99.6459 121.776 100.004C121.919 100.135 121.956 100.725 122.044 100.923C122.209 101.257 122.4 101.577 122.615 101.881Z" fill="black"/>
<path d="M71.0571 75.2011C69.5102 76.746 69.3244 77.4266 68.3955 77.7336C67.4666 78.0406 64.1245 79.7713 65.1746 81.6898L67.9985 83.5554L68.0807 83.6102L68.5128 84.9087L64.2418 92.5121C64.2418 92.5121 57.2016 89.2932 56.5113 94.0551C55.8209 98.817 56.259 100.117 56.0732 102.66C55.8874 105.202 56.1338 105.937 55.5139 105.937C54.894 105.937 54.6495 104.267 54.6495 104.267C54.6495 104.267 54.6104 104.191 54.542 104.048C53.6209 102.134 47.3688 88.0788 57.3835 78.418C57.3835 78.418 62.0222 78.113 63.1388 72.7937C63.9093 69.1172 66.6042 69.434 68.3955 70.183C68.9777 70.4113 69.5202 70.73 70.003 71.1275C70.4375 71.5389 70.8239 71.9981 71.1549 72.4965C71.6653 73.3022 71.943 74.3132 71.0571 75.2011Z" fill="#D0D2D5"/>
<path opacity="0.1" d="M68.0807 83.6099L68.5129 84.9084L64.2418 92.5119C64.2418 92.5119 57.2017 89.2929 56.5113 94.0548C55.821 98.8167 56.2591 100.117 56.0733 102.659C55.8875 105.202 56.1339 105.937 55.514 105.937C54.894 105.937 54.6496 104.267 54.6496 104.267C54.6496 104.267 54.6105 104.191 54.542 104.048C54.2311 101.67 52.6549 87.7597 58.3692 88.4989C58.3692 88.4989 63.0059 90.6657 63.7471 89.8014C64.3338 89.1169 66.9386 85.1803 67.9986 83.5649L68.0807 83.6099Z" fill="black"/>
<path opacity="0.1" d="M71.1548 72.4846L68.3309 75.6938C68.3309 75.6938 65.0513 80.0822 64.3708 79.8964C64.167 79.852 63.9594 79.8277 63.7508 79.824C63.5238 79.8066 63.3064 79.7253 63.1237 79.5893C62.941 79.4534 62.8006 79.2685 62.7188 79.0561C62.6369 78.8436 62.6169 78.6123 62.6611 78.3889C62.7053 78.1656 62.8119 77.9593 62.9686 77.7941C64.0872 76.6207 66.1484 74.3933 66.2833 73.8985C66.4183 73.4038 67.7305 71.235 68.3876 70.1731C68.9698 70.4014 69.5123 70.7202 69.9951 71.1177C70.4322 71.5279 70.8212 71.9865 71.1548 72.4846Z" fill="black"/>
<path d="M151.053 118.655C150.574 119.613 148.12 123.207 147.046 124.778L146.544 125.517C146.544 125.517 146.348 126.815 143.143 125.206C139.938 123.597 64.6291 91.8198 64.6291 91.8198L64.1187 90.2866L67.8343 84.7229L150.375 116.613C150.375 116.613 151.673 117.417 151.053 118.655Z" fill="#454B69"/>
<path opacity="0.1" d="M147.046 124.778L146.544 125.517C146.544 125.517 146.348 126.815 143.143 125.206C139.938 123.597 64.6291 91.8198 64.6291 91.8198L64.1187 90.2866L147.046 124.778Z" fill="black"/>
<path d="M101.621 104.021C100.857 103.895 100.008 103.956 99.4134 104.453C99.054 104.757 98.8269 105.189 98.7798 105.657C98.7289 106.199 99.0438 106.843 99.5874 106.884C99.7183 106.885 99.849 106.877 99.9786 106.858C100.322 106.857 100.665 106.885 101.003 106.944C101.669 107.007 102.341 106.909 102.961 106.658C103.581 106.408 104.133 106.012 104.568 105.505C105.036 104.918 104.42 104.664 103.868 104.547C103.113 104.386 102.376 104.142 101.621 104.021Z" fill="#FBBEBE"/>
<path d="M114.701 121.682L115.186 125.127C115.247 125.483 115.272 125.844 115.26 126.205C115.203 127.017 114.771 127.744 114.46 128.495C114.149 129.246 113.959 130.145 114.372 130.842C114.499 131.059 114.677 131.245 114.793 131.469C114.939 131.817 115.006 132.193 114.988 132.57L115.121 137.459C116.631 137.562 118.146 137.554 119.654 137.434C119.713 137.437 119.771 137.419 119.818 137.383C119.858 137.333 119.878 137.269 119.875 137.205C119.942 136.061 119.742 134.915 119.807 133.771C119.83 133.353 119.889 132.936 119.897 132.516C119.92 130.812 119.079 129.144 119.333 127.46C119.413 127.036 119.518 126.616 119.646 126.203C120.45 123.27 120.28 120.188 120.102 117.158C120.105 117.11 120.091 117.061 120.063 117.021C120.034 116.993 119.997 116.973 119.957 116.965C119.102 116.708 118.197 116.661 117.319 116.828C116.442 116.995 115.617 117.37 114.916 117.923C114.703 118.095 114.165 118.261 114.024 118.467C113.828 118.752 114.085 119.038 114.198 119.341C114.449 120.101 114.618 120.886 114.701 121.682Z" fill="#3F3D56"/>
<path opacity="0.1" d="M114.701 121.682L115.186 125.127C115.247 125.483 115.272 125.844 115.26 126.205C115.203 127.017 114.771 127.744 114.46 128.495C114.149 129.246 113.959 130.145 114.372 130.842C114.499 131.059 114.677 131.245 114.793 131.469C114.939 131.817 115.006 132.193 114.988 132.57L115.121 137.459C116.631 137.562 118.146 137.554 119.654 137.434C119.713 137.437 119.771 137.419 119.818 137.383C119.858 137.333 119.878 137.269 119.875 137.205C119.942 136.061 119.742 134.915 119.807 133.771C119.83 133.353 119.889 132.936 119.897 132.516C119.92 130.812 119.079 129.144 119.333 127.46C119.413 127.036 119.518 126.616 119.646 126.203C120.45 123.27 120.28 120.188 120.102 117.158C120.105 117.11 120.091 117.061 120.063 117.021C120.034 116.993 119.997 116.973 119.957 116.965C119.102 116.708 118.197 116.661 117.319 116.828C116.442 116.995 115.617 117.37 114.916 117.923C114.703 118.095 114.165 118.261 114.024 118.467C113.828 118.752 114.085 119.038 114.198 119.341C114.449 120.101 114.618 120.886 114.701 121.682Z" fill="black"/>
<path d="M123.769 120.643C123.54 121.119 123.233 121.561 123.096 122.071C122.74 123.418 123.661 124.809 123.552 126.189C123.516 126.626 123.382 127.05 123.372 127.486C123.362 127.922 123.522 128.407 123.91 128.609C124.17 128.742 124.496 128.728 124.741 128.88C125.153 129.133 125.2 129.706 125.159 130.187C125.118 130.668 125.05 131.206 125.355 131.581C125.587 131.872 125.986 131.986 126.237 132.262C126.386 132.46 126.512 132.673 126.614 132.899C126.988 133.552 127.67 133.951 128.229 134.464C128.789 134.976 129.262 135.727 129.012 136.437C128.828 136.957 128.312 137.278 127.815 137.522C126.909 137.97 125.952 138.308 124.966 138.529C124.86 138.561 124.748 138.567 124.639 138.547C124.529 138.507 124.431 138.44 124.353 138.351C123.777 137.786 123.18 137.194 122.914 136.433C122.867 136.249 122.793 136.072 122.695 135.909C122.39 135.481 121.747 135.496 121.312 135.201C120.804 134.855 120.681 134.168 120.348 133.65C120.016 133.132 119.529 132.823 119.175 132.367C118.577 131.608 118.43 130.595 118.002 129.729C117.82 129.361 117.587 129.017 117.442 128.634C117.296 128.175 117.206 127.699 117.174 127.218C116.899 124.934 116.197 122.634 116.639 120.374C116.736 119.877 116.887 119.396 116.95 118.883C117.057 117.997 116.887 117.09 117.018 116.206C117.021 116.095 117.049 115.986 117.101 115.888C117.152 115.789 117.224 115.704 117.313 115.637C117.419 115.59 117.534 115.566 117.65 115.569C118.809 115.507 119.971 115.533 121.127 115.647C121.713 115.704 122.37 115.823 122.722 116.302C123.022 116.713 123.006 117.262 123.102 117.761C123.221 118.375 123.532 118.709 123.859 119.19C124.185 119.671 124.009 120.147 123.769 120.643Z" fill="#3F3D56"/>
<path d="M119.257 136.535C119.566 136.535 119.908 136.515 120.147 136.711C120.444 136.955 120.448 137.403 120.401 137.784C120.264 138.856 119.914 139.887 119.564 140.913L118.523 143.966C118.359 144.402 118.237 144.852 118.16 145.311C118.058 146.094 118.214 146.876 118.234 147.658C118.234 148.049 118.209 148.483 117.964 148.798C117.522 149.367 116.66 149.301 115.95 149.189L112.487 148.603C112.194 148.564 111.907 148.494 111.63 148.393C111.341 148.26 111.063 148.104 110.799 147.926C110.113 147.534 109.393 147.207 108.648 146.948C108.323 146.827 107.959 146.672 107.842 146.346C107.703 145.955 108.012 145.525 108.395 145.368C108.779 145.212 109.207 145.251 109.622 145.262C110.641 145.295 111.659 145.157 112.633 144.856C112.927 144.784 113.199 144.643 113.427 144.445C113.659 144.184 113.817 143.866 113.885 143.524C114.18 142.505 114.356 141.455 114.409 140.395C114.45 139.613 114.423 138.83 114.454 138.048C114.473 137.585 114.428 136.093 114.835 135.774C115.146 135.535 116.425 136.194 116.846 136.29C117.636 136.471 118.446 136.553 119.257 136.535Z" fill="#2F2E41"/>
<path d="M130.666 138.709C131.004 139.83 131.057 141.015 131.276 142.167C131.495 143.318 131.882 144.494 132.737 145.296C132.903 145.428 133.047 145.586 133.161 145.765C133.234 145.932 133.258 146.116 133.232 146.297C133.206 146.477 133.131 146.647 133.015 146.788C132.779 147.066 132.486 147.291 132.156 147.447C129.948 148.651 127.463 149.26 124.958 149.561C124.515 149.644 124.059 149.627 123.624 149.512C123.198 149.367 122.82 148.984 122.828 148.534C122.824 148.411 122.866 148.29 122.945 148.196C123.021 148.126 123.111 148.073 123.209 148.041C124.132 147.662 125.069 147.249 125.783 146.549C126.497 145.849 126.944 144.789 126.669 143.839C126.505 143.393 126.284 142.972 126.01 142.585C125.652 141.97 125.326 141.338 125.032 140.69L124.171 138.885C123.919 138.357 123.665 137.813 123.622 137.231C124.703 137.279 125.782 137.106 126.794 136.722C127.266 136.53 127.706 136.266 128.098 135.94C128.431 135.662 128.734 135.144 129.182 135.506C129.542 135.795 129.768 136.611 129.98 137.023C130.254 137.566 130.484 138.129 130.666 138.709Z" fill="#2F2E41"/>
<path d="M118.056 93.8889C118.142 94.6398 118.869 95.1346 119.564 95.4318L115.169 96.834C115.453 96.2904 115.224 95.6254 114.943 95.074C114.713 94.6373 114.452 94.2183 114.16 93.8204C114.117 93.7598 114.068 93.6835 114.1 93.6131C114.128 93.5671 114.172 93.533 114.223 93.5173C115.126 93.1144 116.057 92.6979 117.045 92.5512C117.33 92.5102 117.87 92.3967 118.083 92.6862C118.296 92.9756 118.015 93.5427 118.056 93.8889Z" fill="#FBBEBE"/>
<path opacity="0.1" d="M118.056 93.8889C118.142 94.6398 118.869 95.1346 119.564 95.4318L115.169 96.834C115.453 96.2904 115.224 95.6254 114.943 95.074C114.713 94.6373 114.452 94.2183 114.16 93.8204C114.117 93.7598 114.068 93.6835 114.1 93.6131C114.128 93.5671 114.172 93.533 114.223 93.5173C115.126 93.1144 116.057 92.6979 117.045 92.5512C117.33 92.5102 117.87 92.3967 118.083 92.6862C118.296 92.9756 118.015 93.5427 118.056 93.8889Z" fill="black"/>
<path d="M115.502 94.497C117.405 94.497 118.948 92.9543 118.948 91.0513C118.948 89.1482 117.405 87.6055 115.502 87.6055C113.599 87.6055 112.056 89.1482 112.056 91.0513C112.056 92.9543 113.599 94.497 115.502 94.497Z" fill="#FBBEBE"/>
<path d="M112.516 119.407C112.85 119.808 113.439 119.886 113.953 119.798C115.156 119.603 116.139 118.717 117.317 118.398C118.76 118.007 120.287 118.51 121.65 119.126C123.013 119.742 124.368 120.495 125.859 120.6C124.511 117.596 125.282 113.982 123.993 110.953C123.678 110.212 123.238 109.498 123.168 108.696C123.08 107.701 123.576 106.741 123.653 105.751C123.723 104.869 123.457 103.991 123.203 103.15C122.889 102.118 122.575 101.085 122.26 100.053C121.908 98.8969 121.547 97.7216 120.864 96.7281C120.612 96.3624 120.535 95.6213 120.152 95.4003C119.315 94.9172 118.046 95.5254 117.139 95.5587C116.231 95.5919 115.404 96.2373 114.874 96.9667C114.313 97.7372 113.994 98.6544 113.701 99.5618C113.234 100.913 112.885 102.302 112.658 103.714C112.629 103.925 112.604 104.136 112.584 104.349C112.388 106.358 112.674 108.378 112.69 110.396V110.41C112.709 112.969 112.299 115.514 112.222 118.072C112.214 118.539 112.226 119.049 112.516 119.407Z" fill="#2F2E41"/>
<path opacity="0.1" d="M112.696 110.398C113.371 110.228 113.981 109.792 114.505 109.314C114.959 108.908 115.362 108.449 115.706 107.946C116.138 107.269 116.486 106.542 116.74 105.781C117.464 103.744 117.924 101.623 118.109 99.4699C118.16 98.8832 118.176 98.2535 117.826 97.7881C117.629 97.536 117.353 97.3578 117.042 97.2825C116.732 97.2072 116.405 97.2393 116.114 97.3735C115.653 97.5984 115.354 98.0541 115.076 98.4902C114.526 99.3545 113.973 100.231 113.619 101.193C113.463 101.619 113.347 102.057 113.195 102.485C113.04 102.908 112.861 103.321 112.659 103.723C112.629 103.935 112.604 104.146 112.584 104.359C112.403 106.367 112.68 108.38 112.696 110.398Z" fill="black"/>
<path d="M117.815 97.4107C118.165 97.8761 118.15 98.5117 118.101 99.0905C117.916 101.244 117.456 103.365 116.732 105.401C116.48 106.169 116.132 106.902 115.697 107.584C115.353 108.086 114.95 108.546 114.497 108.953C113.832 109.559 113.022 110.101 112.121 110.108C111.613 110.085 111.113 109.975 110.642 109.786L103.299 107.287C103.225 106.868 103.52 106.379 103.659 105.976L104.05 104.817C104.161 104.496 104.29 104.15 104.582 103.976C104.873 103.802 105.335 104.04 105.577 104.234C105.82 104.427 106.004 104.682 106.242 104.879C106.694 105.255 107.29 105.395 107.865 105.525L109.514 105.894C110.112 106.058 110.729 106.14 111.348 106.139C111.808 104.734 112.682 103.499 113.177 102.106C113.329 101.68 113.445 101.24 113.603 100.813C113.955 99.8513 114.51 98.9771 115.06 98.1108C115.336 97.6766 115.635 97.221 116.098 96.9941C116.389 96.8583 116.718 96.8255 117.03 96.9012C117.342 96.9769 117.619 97.1566 117.815 97.4107Z" fill="#2F2E41"/>
<path d="M116.601 91.8295C116.575 91.6029 116.505 91.3836 116.394 91.1841C116.336 91.0843 116.248 91.0054 116.143 90.959C116.037 90.9126 115.92 90.901 115.807 90.926C115.463 91.0336 115.348 91.5655 114.988 91.5831C114.745 91.5948 114.571 91.3484 114.495 91.1177C114.419 90.8869 114.378 90.6229 114.196 90.4606C114.069 90.3659 113.924 90.2992 113.769 90.265C112.934 90.001 112.072 89.5141 111.794 88.6829C111.729 88.5142 111.713 88.3303 111.749 88.153C111.876 87.6269 112.532 87.4685 113.03 87.2788C113.529 87.0891 114.008 86.7645 114.497 86.5181C114.986 86.2717 115.553 86.0976 116.091 86.2228C116.364 86.3086 116.632 86.4085 116.895 86.522C117.704 86.8036 118.696 86.6726 119.323 87.2573C119.598 87.5473 119.799 87.8986 119.91 88.282C120.348 89.4984 120.626 90.9417 119.9 92.0094C119.452 92.6684 119.018 93.4214 118.158 93.5015C117.157 93.5856 116.76 92.6782 116.601 91.8295Z" fill="#2F2E41"/>
<g opacity="0.1">
<path opacity="0.1" d="M115.072 90.703C114.996 90.4722 114.955 90.2082 114.775 90.0459C114.648 89.9512 114.503 89.8846 114.348 89.8504C113.511 89.5864 112.651 89.0994 112.371 88.2683C112.308 88.0992 112.293 87.9155 112.328 87.7383C112.347 87.6548 112.383 87.5758 112.432 87.5056C112.113 87.6445 111.835 87.8283 111.757 88.1529C111.721 88.3302 111.737 88.5142 111.802 88.6829C112.08 89.514 112.942 90.0009 113.777 90.2649C113.932 90.2991 114.077 90.3658 114.204 90.4605C114.386 90.6228 114.425 90.8849 114.503 91.1176C114.581 91.3503 114.753 91.5947 114.996 91.583C115.238 91.5713 115.355 91.3503 115.51 91.1645C115.297 91.1371 115.142 90.9181 115.072 90.703Z" fill="black"/>
<path opacity="0.1" d="M118.733 93.081C117.728 93.173 117.331 92.2577 117.169 91.4149C117.147 91.1889 117.081 90.9695 116.973 90.7695C116.915 90.6699 116.827 90.5912 116.722 90.5448C116.616 90.4984 116.499 90.4867 116.386 90.5114C116.208 90.5979 116.058 90.7336 115.954 90.9025C116.044 90.9111 116.13 90.9403 116.207 90.9878C116.284 91.0353 116.348 91.0998 116.396 91.1763C116.507 91.3757 116.577 91.595 116.603 91.8216C116.762 92.6645 117.159 93.5817 118.168 93.4878C118.567 93.4438 118.935 93.2528 119.2 92.952C119.053 93.0208 118.895 93.0644 118.733 93.081Z" fill="black"/>
</g>
<path d="M159.012 129.459C162.5 129.459 165.327 128.915 165.327 128.245C165.327 127.574 162.5 127.03 159.012 127.03C155.525 127.03 152.698 127.574 152.698 128.245C152.698 128.915 155.525 129.459 159.012 129.459Z" fill="#191970"/>
<path d="M158.907 128.691C159.313 128.691 159.642 128.26 159.642 127.729C159.642 127.197 159.313 126.766 158.907 126.766C158.501 126.766 158.171 127.197 158.171 127.729C158.171 128.26 158.501 128.691 158.907 128.691Z" fill="#3F3D56"/>
<path d="M158.907 127.513C159.313 127.513 159.642 127.083 159.642 126.551C159.642 126.02 159.313 125.589 158.907 125.589C158.501 125.589 158.171 126.02 158.171 126.551C158.171 127.083 158.501 127.513 158.907 127.513Z" fill="#3F3D56"/>
<path d="M158.907 126.338C159.313 126.338 159.642 125.907 159.642 125.376C159.642 124.845 159.313 124.414 158.907 124.414C158.501 124.414 158.171 124.845 158.171 125.376C158.171 125.907 158.501 126.338 158.907 126.338Z" fill="#3F3D56"/>
<path d="M158.907 125.161C159.313 125.161 159.642 124.73 159.642 124.199C159.642 123.667 159.313 123.237 158.907 123.237C158.501 123.237 158.171 123.667 158.171 124.199C158.171 124.73 158.501 125.161 158.907 125.161Z" fill="#3F3D56"/>
<path d="M158.907 123.984C159.313 123.984 159.642 123.553 159.642 123.021C159.642 122.49 159.313 122.059 158.907 122.059C158.501 122.059 158.171 122.49 158.171 123.021C158.171 123.553 158.501 123.984 158.907 123.984Z" fill="#3F3D56"/>
<path d="M158.907 122.808C159.313 122.808 159.642 122.377 159.642 121.846C159.642 121.315 159.313 120.884 158.907 120.884C158.501 120.884 158.171 121.315 158.171 121.846C158.171 122.377 158.501 122.808 158.907 122.808Z" fill="#3F3D56"/>
<path d="M158.907 121.631C159.313 121.631 159.642 121.2 159.642 120.669C159.642 120.137 159.313 119.707 158.907 119.707C158.501 119.707 158.171 120.137 158.171 120.669C158.171 121.2 158.501 121.631 158.907 121.631Z" fill="#3F3D56"/>
<path d="M161.659 112.625C161.759 112.497 161.85 112.363 161.932 112.222L160 111.906L162.091 111.919C162.29 111.483 162.399 111.011 162.41 110.531C162.422 110.051 162.336 109.574 162.157 109.129L159.353 110.584L161.938 108.683C161.696 108.265 161.37 107.902 160.981 107.616C160.592 107.33 160.148 107.126 159.677 107.019C159.206 106.912 158.718 106.902 158.244 106.992C157.769 107.081 157.318 107.267 156.918 107.538C156.519 107.809 156.179 108.159 155.921 108.567C155.662 108.975 155.491 109.432 155.416 109.909C155.342 110.387 155.367 110.874 155.489 111.341C155.611 111.808 155.828 112.246 156.126 112.625C155.969 112.824 155.834 113.039 155.723 113.267L158.232 114.571L155.557 113.674C155.37 114.228 155.324 114.82 155.424 115.396C155.523 115.972 155.764 116.515 156.126 116.975C155.718 117.494 155.465 118.118 155.394 118.774C155.324 119.431 155.44 120.094 155.728 120.688C156.017 121.282 156.467 121.783 157.027 122.133C157.587 122.483 158.234 122.669 158.894 122.669C159.555 122.669 160.202 122.483 160.762 122.133C161.321 121.783 161.771 121.282 162.06 120.688C162.349 120.094 162.465 119.431 162.394 118.774C162.324 118.118 162.07 117.494 161.662 116.975C162.151 116.354 162.417 115.587 162.417 114.797C162.417 114.007 162.151 113.24 161.662 112.619L161.659 112.625Z" fill="#191970"/>
<path opacity="0.1" d="M155.367 114.796C155.367 115.587 155.634 116.355 156.126 116.975C155.718 117.494 155.464 118.118 155.394 118.774C155.324 119.431 155.44 120.094 155.728 120.688C156.017 121.282 156.467 121.783 157.027 122.133C157.587 122.484 158.234 122.669 158.894 122.669C159.555 122.669 160.202 122.484 160.761 122.133C161.321 121.783 161.771 121.282 162.06 120.688C162.349 120.094 162.465 119.431 162.394 118.774C162.324 118.118 162.07 117.494 161.662 116.975C162.13 116.374 155.367 114.401 155.367 114.796Z" fill="black"/>
<path d="M29.0252 153.674C34.0464 153.674 38.1168 152.891 38.1168 151.925C38.1168 150.96 34.0464 150.177 29.0252 150.177C24.0041 150.177 19.9336 150.96 19.9336 151.925C19.9336 152.891 24.0041 153.674 29.0252 153.674Z" fill="#191970"/>
<path d="M28.8724 152.569C29.4567 152.569 29.9304 151.948 29.9304 151.182C29.9304 150.416 29.4567 149.796 28.8724 149.796C28.2881 149.796 27.8145 150.416 27.8145 151.182C27.8145 151.948 28.2881 152.569 28.8724 152.569Z" fill="#3F3D56"/>
<path d="M28.8724 150.875C29.4567 150.875 29.9304 150.254 29.9304 149.489C29.9304 148.723 29.4567 148.102 28.8724 148.102C28.2881 148.102 27.8145 148.723 27.8145 149.489C27.8145 150.254 28.2881 150.875 28.8724 150.875Z" fill="#3F3D56"/>
<path d="M28.8724 149.182C29.4567 149.182 29.9304 148.561 29.9304 147.795C29.9304 147.029 29.4567 146.409 28.8724 146.409C28.2881 146.409 27.8145 147.029 27.8145 147.795C27.8145 148.561 28.2881 149.182 28.8724 149.182Z" fill="#3F3D56"/>
<path d="M28.8724 147.488C29.4567 147.488 29.9304 146.867 29.9304 146.101C29.9304 145.336 29.4567 144.715 28.8724 144.715C28.2881 144.715 27.8145 145.336 27.8145 146.101C27.8145 146.867 28.2881 147.488 28.8724 147.488Z" fill="#3F3D56"/>
<path d="M28.8724 145.795C29.4567 145.795 29.9304 145.174 29.9304 144.408C29.9304 143.642 29.4567 143.021 28.8724 143.021C28.2881 143.021 27.8145 143.642 27.8145 144.408C27.8145 145.174 28.2881 145.795 28.8724 145.795Z" fill="#3F3D56"/>
<path d="M28.8724 144.099C29.4567 144.099 29.9304 143.478 29.9304 142.712C29.9304 141.947 29.4567 141.326 28.8724 141.326C28.2881 141.326 27.8145 141.947 27.8145 142.712C27.8145 143.478 28.2881 144.099 28.8724 144.099Z" fill="#3F3D56"/>
<path d="M28.8724 142.405C29.4567 142.405 29.9304 141.785 29.9304 141.019C29.9304 140.253 29.4567 139.632 28.8724 139.632C28.2881 139.632 27.8145 140.253 27.8145 141.019C27.8145 141.785 28.2881 142.405 28.8724 142.405Z" fill="#3F3D56"/>
<path d="M32.8344 129.43C32.9776 129.243 33.1083 129.047 33.2255 128.843L30.4447 128.385L33.4524 128.409C33.7407 127.781 33.8978 127.1 33.9143 126.409C33.9308 125.718 33.8062 125.031 33.5482 124.39L29.5158 126.49L33.2314 123.753C32.8835 123.149 32.4148 122.623 31.8548 122.209C31.2947 121.794 30.6552 121.5 29.9762 121.343C29.2971 121.187 28.5932 121.172 27.9082 121.3C27.2232 121.428 26.5719 121.695 25.9949 122.086C25.4179 122.477 24.9277 122.982 24.5547 123.57C24.1817 124.159 23.934 124.818 23.8271 125.507C23.7202 126.195 23.7564 126.898 23.9333 127.572C24.1103 128.246 24.4242 128.877 24.8555 129.424C24.6272 129.709 24.4304 130.019 24.2689 130.347L27.8809 132.224L24.0303 130.932C23.7604 131.733 23.6953 132.589 23.8408 133.422C23.9863 134.255 24.3378 135.039 24.8634 135.701C24.275 136.449 23.9089 137.348 23.8071 138.294C23.7053 139.24 23.8718 140.196 24.2875 141.052C24.7033 141.908 25.3515 142.63 26.1582 143.135C26.9648 143.64 27.8972 143.908 28.8489 143.908C29.8005 143.908 30.733 143.64 31.5396 143.135C32.3463 142.63 32.9945 141.908 33.4103 141.052C33.826 140.196 33.9925 139.24 33.8907 138.294C33.7888 137.348 33.4228 136.449 32.8344 135.701C33.5377 134.808 33.92 133.704 33.92 132.567C33.92 131.429 33.5377 130.325 32.8344 129.432V129.43Z" fill="#191970"/>
<path opacity="0.1" d="M23.7783 132.572C23.7785 133.708 24.1608 134.81 24.8637 135.701C24.2753 136.449 23.9093 137.348 23.8074 138.294C23.7056 139.24 23.8721 140.196 24.2878 141.052C24.7036 141.908 25.3519 142.63 26.1585 143.135C26.9651 143.64 27.8976 143.908 28.8492 143.908C29.8009 143.908 30.7333 143.64 31.5399 143.135C32.3466 142.63 32.9948 141.908 33.4106 141.052C33.8263 140.196 33.9928 139.24 33.891 138.294C33.7892 137.348 33.4231 136.449 32.8347 135.701C33.5094 134.837 23.7783 131.996 23.7783 132.572Z" fill="black"/>
</g>
<defs>
<linearGradient id="paint0_linear" x1="117.705" y1="149.867" x2="115.116" y2="85.6995" gradientUnits="userSpaceOnUse">
<stop stop-color="#808080" stop-opacity="0.25"/>
<stop offset="0.54" stop-color="#808080" stop-opacity="0.12"/>
<stop offset="1" stop-color="#808080" stop-opacity="0.1"/>
</linearGradient>
<clipPath id="clip0">
<rect width="200" height="153.674" fill="white"/>
</clipPath>
</defs>
</svg>
