<svg width="24" height="24" viewBox="0 0 24 24" fill="none" xmlns="http://www.w3.org/2000/svg">
<path d="M9.77819 14.515C9.07452 15.1449 8.66667 16.0376 8.66667 17C8.66667 18.8409 10.1591 20.3333 12 20.3333C13.8409 20.3333 15.3333 18.8409 15.3333 17C15.3333 16.0376 14.9255 15.1449 14.2218 14.515L13.6667 14.0182V5.33333C13.6667 4.41286 12.9205 3.66667 12 3.66667C11.0795 3.66667 10.3333 4.41286 10.3333 5.33333V14.0182L9.77819 14.515ZM8.66667 5.33333C8.66667 3.49238 10.1591 2 12 2C13.8409 2 15.3333 3.49238 15.3333 5.33333V13.2732C16.3562 14.1887 17 15.5192 17 17C17 19.7614 14.7614 22 12 22C9.23858 22 7 19.7614 7 17C7 15.5192 7.64375 14.1887 8.66667 13.2732V5.33333Z" fill="#336E7B"/>
<path d="M11.167 8.66663H12.8337V18.6666H11.167V8.66663Z" fill="#336E7B"/>
<path d="M12 14.5C13.3807 14.5 14.5 15.6193 14.5 17C14.5 18.3807 13.3807 19.5 12 19.5C10.6193 19.5 9.5 18.3807 9.5 17C9.5 15.6193 10.6193 14.5 12 14.5Z" fill="#336E7B"/>
</svg>
