<svg width="32" height="32" viewBox="0 0 32 32" fill="none" xmlns="http://www.w3.org/2000/svg">
<g clip-path="url(#clip0)">
<path d="M31.3125 30.1254L27.2991 26.1119C26.282 25.0948 24.6331 25.0948 23.616 26.1119L19.6211 30.1068L31.3125 30.1254Z" fill="#DCA98B"/>
<path d="M8.14673 22.5234V27.4375H1.90625C1.16406 27.4375 0.5625 28.0391 0.5625 28.7813C0.5625 29.5234 1.16406 30.125 1.90625 30.125H8.59669C10.1196 30.125 11.3543 28.8904 11.3543 27.3677V22.8125L8.14673 22.5234Z" fill="#79B2FF"/>
<path d="M11.2671 1.875H8.31226C7.67261 1.875 7.1543 2.39331 7.1543 3.03296V4.65918H12.4251V3.03296C12.4251 2.39331 11.9067 1.875 11.2671 1.875Z" fill="#FFC15A"/>
<path d="M9.86035 9.17188C8.53833 9.17188 7.4668 8.1001 7.4668 6.77832V4.65918H12.2539V6.77832C12.2539 8.1001 11.1821 9.17188 9.86035 9.17188Z" fill="#F2D1A5"/>
<path d="M6.16406 16.6982V12.5674C6.16406 10.9441 7.48023 9.62793 9.10352 9.62793C10.0437 9.62793 10.9272 10.0776 11.4805 10.8381L13.5391 13.6675H17.8735C18.634 13.6675 19.2507 14.2839 19.2507 15.0447C19.2507 15.8052 18.634 16.4216 17.8735 16.4216H12.001L10.6001 14.8469L11.1851 15.594V19.2429H14.8208C16.3438 19.2429 17.5781 20.4775 17.5781 22.0003V28.7815C17.5781 29.5237 16.9766 30.1253 16.2344 30.1253C15.4924 30.1253 14.8906 29.5237 14.8906 28.7815V22.7002H9.4917C7.65381 22.7002 6.16406 21.2105 6.16406 19.3728C6.16406 19.2363 6.16406 15.594 6.16406 15.594" fill="#79B2FF"/>
<path d="M11.1851 19.3726V15.594L10.6001 14.8469L12.0007 16.4216H17.8735C18.634 16.4216 19.2505 15.8052 19.2505 15.0447C19.2505 14.2842 18.634 13.6677 17.8735 13.6677H13.5391L11.4805 10.8381C10.9272 10.0779 10.0439 9.62793 9.10352 9.62793C7.48023 9.62793 6.16406 10.9441 6.16406 12.5674V16.6982V19.3726H11.1851Z" fill="#FFCB7C"/>
<path d="M23.9297 5.5105C23.9297 6.67285 24.5378 7.69263 25.4529 8.27076C26.3679 7.69263 26.9761 6.67285 26.9761 5.5105C26.9761 4.3479 26.3679 3.32813 25.4529 2.75C24.5378 3.32813 23.9297 4.3479 23.9297 5.5105Z" fill="#CBE558"/>
<path d="M26.6543 12.1695C25.6206 13.2029 25.2547 14.6507 25.5542 15.9783C26.8819 16.2776 28.3294 15.9117 29.3631 14.8782C30.3965 13.8445 30.7625 12.397 30.4632 11.0694C29.1355 10.7698 27.6878 11.1358 26.6543 12.1695Z" fill="#CBE558"/>
<path d="M24.4011 9.87317C25.3059 10.778 25.6262 12.045 25.364 13.2074C24.2019 13.4694 22.9348 13.149 22.03 12.2443C21.1252 11.3395 20.8049 10.0724 21.0669 8.91027C22.2292 8.64807 23.4963 8.96838 24.4011 9.87317Z" fill="#CBE558"/>
<path d="M24.1312 16.5909C25.2687 17.7285 25.6715 19.3216 25.3419 20.7828C23.8807 21.1123 22.2877 20.7095 21.15 19.5721C20.0126 18.4344 19.6097 16.8413 19.9393 15.3802C21.4005 15.0508 22.9935 15.4534 24.1312 16.5909Z" fill="#CBE558"/>
<path d="M31.7544 29.6831L27.741 25.6697C27.2698 25.1983 26.6875 24.9033 26.0777 24.7849V16.6895C26.2088 16.7005 26.3394 16.7058 26.4697 16.7058C27.7088 16.7058 28.9046 16.2195 29.804 15.3201C30.9575 14.1665 31.4314 12.5261 31.0718 10.9316C31.0188 10.6963 30.835 10.5127 30.5996 10.4595C29.0054 10.1001 27.3648 10.574 26.2114 11.7275C26.1655 11.7732 26.1214 11.8201 26.0777 11.8672V8.5962C27.0374 7.86207 27.6008 6.73291 27.6008 5.51026C27.6008 4.16895 26.9226 2.93945 25.7866 2.22168C25.5825 2.09277 25.3228 2.09277 25.1187 2.22168C23.9827 2.93945 23.3045 4.16895 23.3045 5.51026C23.3045 6.73291 23.8679 7.86207 24.8277 8.5962V9.41651C23.7998 8.39869 22.3443 7.98145 20.9295 8.30054C20.6941 8.35377 20.5103 8.5376 20.4573 8.77271C20.1367 10.1946 20.5593 11.6575 21.5879 12.6863C22.3902 13.4885 23.4566 13.9221 24.5615 13.9221C24.6502 13.9221 24.7388 13.9185 24.8277 13.9131V16.4234C24.7464 16.3294 24.6616 16.2376 24.5728 16.1487C23.3313 14.9075 21.5711 14.3904 19.8543 14.7593C19.7153 13.7898 18.8799 13.0422 17.8731 13.0422H13.8567L11.9854 10.4702C11.7207 10.1062 11.3911 9.80152 11.0198 9.56495C12.1104 9.10938 12.8789 8.03199 12.8789 6.77833V5.28418H13.8425C14.1878 5.28418 14.4675 5.0044 14.4675 4.65918C14.4675 4.31397 14.1878 4.03418 13.8425 4.03418H13.0508V3.03296C13.0508 2.04981 12.251 1.25 11.2678 1.25H8.31299C7.32984 1.25 6.53003 2.04981 6.53003 3.03296V4.03418H5.73829C5.39307 4.03418 5.11329 4.31397 5.11329 4.65918C5.11329 5.0044 5.39307 5.28418 5.73829 5.28418H6.8418V6.77833C6.8418 7.75147 7.30518 8.61817 8.02247 9.17066C6.58375 9.6294 5.53858 10.9783 5.53858 12.5671V19.3723C5.53858 20.835 6.33765 22.1138 7.52173 22.7971V26.8125H1.90625C0.820801 26.8125 -0.0625 27.6958 -0.0625 28.7813C-0.0625 29.8667 0.820801 30.75 1.90625 30.75H2.71094C3.05615 30.75 3.33594 30.4702 3.33594 30.125C3.33594 29.7798 3.05615 29.5 2.71094 29.5H1.90625C1.51001 29.5 1.1875 29.1775 1.1875 28.7813C1.1875 28.385 1.51001 28.0625 1.90625 28.0625H8.14673C8.49195 28.0625 8.77174 27.7827 8.77174 27.4375V23.2581C9.00513 23.3013 9.24537 23.325 9.49122 23.325H10.7293V27.3675C10.7293 28.5435 9.77247 29.5 8.59669 29.5H7.71094C7.36573 29.5 7.08594 29.7798 7.08594 30.125C7.08594 30.4702 7.36573 30.75 7.71094 30.75H8.59669C10.4619 30.75 11.9793 29.2327 11.9793 27.3675V23.325H14.2651V28.7813C14.2651 29.8667 15.1484 30.75 16.2339 30.75C17.3196 30.75 18.2027 29.8667 18.2027 28.7813V22C18.2027 20.1348 16.6856 18.6174 14.8203 18.6174H11.8096V17.0164C11.8706 17.0359 11.9348 17.0464 12.0005 17.0464H17.8731C18.3833 17.0464 18.8494 16.8543 19.2034 16.5388C19.2412 17.832 19.7664 19.072 20.7078 20.0137C21.6858 20.9917 22.9859 21.5203 24.3328 21.5203C24.4973 21.5203 24.6624 21.512 24.8277 21.4961V24.7871C24.2212 24.9068 23.6428 25.2007 23.1741 25.6697L19.1792 29.6646C18.9351 29.9085 18.9351 30.3042 19.1792 30.5484C19.4231 30.7925 19.8191 30.7925 20.063 30.5484L24.0579 26.5537C24.8296 25.7818 26.0852 25.7818 26.8572 26.5537L30.8706 30.5669C30.9927 30.689 31.1526 30.75 31.3125 30.75C31.4724 30.75 31.6323 30.689 31.7544 30.5669C31.9986 30.3228 31.9986 29.927 31.7544 29.6831ZM24.8176 12.6609C23.9514 12.7344 23.0974 12.4277 22.4719 11.8025C21.8467 11.177 21.5396 10.3232 21.6135 9.45679C22.4798 9.38306 23.3338 9.68995 23.9592 10.3152C24.5845 10.9407 24.8914 11.7947 24.8176 12.6609ZM27.0952 12.6113C27.8465 11.8604 28.8782 11.5007 29.9197 11.6118C30.0305 12.6528 29.6712 13.6851 28.9202 14.436C28.169 15.1873 27.1372 15.5466 26.0957 15.4356C26.0845 15.3296 26.0794 15.2239 26.0777 15.1184V14.9968C26.095 14.1091 26.45 13.2566 27.0952 12.6113ZM25.4527 3.52735C26.0213 4.02466 26.3508 4.74048 26.3508 5.5105C26.3508 6.28028 26.0213 6.9961 25.4527 7.49341C24.8841 6.9961 24.5545 6.28052 24.5545 5.5105C24.5545 4.74048 24.8841 4.02466 25.4527 3.52735ZM11.6289 6.77833C11.6289 7.75342 10.8355 8.54688 9.86036 8.54688C8.88502 8.54688 8.0918 7.75342 8.0918 6.77833V5.28418H11.6289V6.77833ZM7.78004 3.03296C7.78004 2.73901 8.01905 2.5 8.31299 2.5H11.2678C11.5618 2.5 11.8008 2.73901 11.8008 3.03296V4.03418H7.78004V3.03296ZM14.8203 19.8674C15.9961 19.8674 16.9526 20.8242 16.9526 22V28.7813C16.9526 29.1775 16.6304 29.5 16.2339 29.5C15.8377 29.5 15.5151 29.1775 15.5151 28.7813V22.7C15.5151 22.355 15.2354 22.075 14.8901 22.075H9.49097C8.17017 22.075 7.06812 21.1221 6.83472 19.8674H14.8203ZM17.8731 15.7964H12.2808L11.0667 14.4314C10.8372 14.1734 10.4421 14.1504 10.1841 14.3796C9.92628 14.6091 9.90308 15.0042 10.1326 15.2622L10.5596 15.742V18.6174H6.78858V12.5671C6.78858 11.291 7.82691 10.2527 9.10303 10.2527C9.84083 10.2527 10.5405 10.6089 10.9746 11.2056L13.0332 14.0349C13.1509 14.1968 13.3386 14.2922 13.5386 14.2922H17.8731C18.2879 14.2922 18.6253 14.6297 18.6253 15.0444C18.6253 15.459 18.2876 15.7964 17.8731 15.7964ZM24.8013 20.2422C23.6196 20.3831 22.4441 19.9822 21.5918 19.1299C20.7395 18.2776 20.3382 17.1018 20.4793 15.9202C21.6607 15.7786 22.8367 16.1804 23.689 17.0327C24.4216 17.7654 24.8198 18.7373 24.8277 19.7464V19.8347C24.8257 19.9702 24.8174 20.1062 24.8013 20.2422Z" fill="black"/>
<path d="M5.21045 29.5C5.0459 29.5 4.8855 29.5669 4.76855 29.6831C4.65234 29.7993 4.58594 29.9607 4.58594 30.125C4.58594 30.2893 4.65234 30.4507 4.76855 30.5669C4.8855 30.6831 5.0459 30.75 5.21045 30.75C5.37476 30.75 5.53589 30.6831 5.65283 30.5669C5.76904 30.4507 5.83594 30.2893 5.83594 30.125C5.83594 29.9607 5.76904 29.7993 5.65283 29.6831C5.53589 29.5669 5.37476 29.5 5.21045 29.5Z" fill="black"/>
</g>
<defs>
<clipPath id="clip0">
<rect width="32" height="32" fill="white"/>
</clipPath>
</defs>
</svg>
