<svg width="32" height="32" viewBox="0 0 32 32" fill="none" xmlns="http://www.w3.org/2000/svg">
<path d="M30.5 1.5H13.5V22.5H30.5V1.5Z" fill="#548AFF"/>
<path d="M28 4H16V20H28V4Z" fill="#9CE6ED"/>
<path d="M16 11L22 16.3333V20H16V11Z" fill="#00B55B"/>
<path d="M28 15.5L24.5 13L16 17.5V20H28V15.5Z" fill="#02C26A"/>
<path d="M14 14C14.4284 14 14.8446 13.8568 15.1823 13.5931C15.52 13.3294 15.7599 12.9604 15.8638 12.5448L16 12C16.3978 12 16.7794 11.842 17.0607 11.5607C17.342 11.2794 17.5 10.8978 17.5 10.5V6C17.5 5.60218 17.342 5.22064 17.0607 4.93934C16.7794 4.65804 16.3978 4.5 16 4.5C15.6022 4.5 15.2206 4.34196 14.9393 4.06066C14.658 3.77936 14.5 3.39782 14.5 3V3C14.5 2.60218 14.342 2.22064 14.0607 1.93934C13.7794 1.65804 13.3978 1.5 13 1.5H11.618C11.2821 1.5 10.9528 1.59355 10.667 1.77018C10.3812 1.9468 10.1502 2.19951 10 2.5V2.5C9.84976 2.19951 9.6188 1.9468 9.33302 1.77018C9.04724 1.59355 8.71792 1.5 8.38197 1.5H7C6.60218 1.5 6.22064 1.65804 5.93934 1.93934C5.65804 2.22064 5.5 2.60218 5.5 3V3C5.5 3.39782 5.34196 3.77936 5.06066 4.06066C4.77936 4.34196 4.39782 4.5 4 4.5C3.60218 4.5 3.22064 4.65804 2.93934 4.93934C2.65804 5.22064 2.5 5.60218 2.5 6V10.5C2.5 10.8978 2.65804 11.2794 2.93934 11.5607C3.22064 11.842 3.60218 12 4 12L4.1362 12.5448C4.24011 12.9604 4.47999 13.3294 4.81769 13.5931C5.1554 13.8568 5.57155 14 6 14H14Z" fill="#F78E00"/>
<path d="M14 26L18.5 20.5V19C18.5 18.337 18.2366 17.7011 17.7678 17.2322C17.2989 16.7634 16.663 16.5 16 16.5H14V10.5H6V16.5H4C3.33696 16.5 2.70107 16.7634 2.23223 17.2322C1.76339 17.7011 1.5 18.337 1.5 19V20.5L6 26H14Z" fill="#FFC431"/>
<path d="M7 10.5V12.5C7 13.0253 7.10346 13.5454 7.30448 14.0307C7.5055 14.516 7.80014 14.957 8.17157 15.3284C8.54301 15.6999 8.98396 15.9945 9.46926 16.1955C9.95456 16.3965 10.4747 16.5 11 16.5H14V10.5H7Z" fill="#FFB401"/>
<path d="M16.5 26H3.5L2.5 27.5V30.5H17.5V27.5L16.5 26Z" fill="#FFC431"/>
<path d="M16.5 26H3.5L2.5 27.5H17.5L16.5 26Z" fill="#FFB401"/>
<path d="M21.5 11.5C22.6046 11.5 23.5 10.6046 23.5 9.5C23.5 8.39543 22.6046 7.5 21.5 7.5C20.3954 7.5 19.5 8.39543 19.5 9.5C19.5 10.6046 20.3954 11.5 21.5 11.5Z" fill="#FFA100"/>
<path d="M14 6.5H10.6324C10.287 6.5 9.94752 6.41056 9.64698 6.2404C9.34644 6.07024 9.09509 5.82514 8.91739 5.52899L8 4L7.25144 5.87139C7.17722 6.05695 7.04909 6.21602 6.8836 6.32807C6.7181 6.44011 6.52283 6.5 6.32297 6.5H6V11.5C6 12.5609 6.42143 13.5783 7.17157 14.3284C7.92172 15.0786 8.93913 15.5 10 15.5H10C11.0609 15.5 12.0783 15.0786 12.8284 14.3284C13.5786 13.5783 14 12.5609 14 11.5V6.5Z" fill="#FFC431"/>
<path d="M19 20.5V19C18.9991 18.2046 18.6828 17.4421 18.1203 16.8797C17.5579 16.3173 16.7954 16.0009 16 16H14.5V14.4481C14.9445 14.3547 15.3536 14.138 15.6806 13.8229C16.0076 13.5077 16.2392 13.1068 16.3489 12.6661L16.4005 12.4597C16.8518 12.3668 17.2573 12.1212 17.5486 11.7642C17.84 11.4073 17.9994 10.9608 18 10.5V6.00001C17.9994 5.46976 17.7885 4.9614 17.4135 4.58646C17.0386 4.21152 16.5302 4.00061 16 4.00001C15.7349 3.99971 15.4807 3.89425 15.2932 3.70678C15.1058 3.51931 15.0003 3.26513 15 3.00001C14.9994 2.46976 14.7885 1.9614 14.4135 1.58646C14.0386 1.21152 13.5302 1.00061 13 1.00001H11.618C11.0129 0.998085 10.4314 1.2351 10 1.65953C9.56861 1.2351 8.98713 0.998085 8.38196 1.00001H7C6.46975 1.00061 5.96139 1.21152 5.58645 1.58646C5.21151 1.9614 5.0006 2.46976 5 3.00001C4.9997 3.26513 4.89424 3.51931 4.70677 3.70678C4.5193 3.89425 4.26512 3.99971 4 4.00001C3.46975 4.00061 2.96139 4.21152 2.58645 4.58646C2.21151 4.9614 2.0006 5.46976 2 6.00001V10.5C2.0006 10.9608 2.16001 11.4073 2.45137 11.7642C2.74273 12.1212 3.14823 12.3668 3.59955 12.4597L3.65112 12.6661C3.7608 13.1068 3.99241 13.5077 4.3194 13.8229C4.64639 14.1381 5.05555 14.3547 5.5 14.4481V16H4C3.20462 16.0009 2.44208 16.3173 1.87967 16.8797C1.31725 17.4421 1.00089 18.2046 1 19V20.5C0.999991 20.6154 1.03993 20.7273 1.11304 20.8166L4.94488 25.5H3.5C3.41769 25.5 3.33665 25.5203 3.26407 25.5592C3.1915 25.598 3.12964 25.6542 3.08398 25.7227L2.08398 27.2227C2.02923 27.3048 2 27.4013 2 27.5V30.5C2 30.6326 2.05268 30.7598 2.14645 30.8536C2.24022 30.9473 2.36739 31 2.5 31H17.5C17.6326 31 17.7598 30.9473 17.8536 30.8536C17.9473 30.7598 18 30.6326 18 30.5V27.5C18 27.4013 17.9708 27.3048 17.916 27.2227L16.916 25.7227C16.8704 25.6542 16.8085 25.598 16.7359 25.5592C16.6634 25.5203 16.5823 25.5 16.5 25.5H15.0551L18.887 20.8166C18.9601 20.7273 19 20.6154 19 20.5V20.5ZM6.5 6.98869C6.76795 6.95788 7.02252 6.85497 7.2366 6.69092C7.45068 6.52687 7.61626 6.30782 7.7157 6.05711L8.0899 5.12162L8.48865 5.78624C8.71169 6.15559 9.02608 6.46129 9.40155 6.67388C9.77702 6.88647 10.2009 6.99879 10.6324 7.00001H13.5V11.5C13.5 12.4283 13.1313 13.3185 12.4749 13.9749C11.8185 14.6313 10.9283 15 10 15C9.07174 15 8.1815 14.6313 7.52513 13.9749C6.86875 13.3185 6.5 12.4283 6.5 11.5V6.98869ZM4.62128 12.4236L4.48511 11.8788C4.45805 11.7706 4.39562 11.6745 4.30772 11.6059C4.21983 11.5373 4.11151 11.5 4 11.5C3.73488 11.4997 3.4807 11.3943 3.29323 11.2068C3.10576 11.0193 3.0003 10.7651 3 10.5V6.00001C3.0003 5.73489 3.10576 5.48071 3.29323 5.29324C3.4807 5.10577 3.73488 5.00031 4 5.00001C4.53025 4.99941 5.03861 4.7885 5.41355 4.41356C5.78849 4.03862 5.9994 3.53026 6 3.00001C6.0003 2.73489 6.10576 2.48071 6.29323 2.29324C6.4807 2.10577 6.73488 2.00031 7 2.00001H8.38196C8.62524 1.99919 8.86388 2.06655 9.07082 2.19445C9.27777 2.32236 9.44473 2.50568 9.5528 2.72364C9.59433 2.80669 9.65816 2.87653 9.73715 2.92534C9.81613 2.97416 9.90715 3.00001 10 3.00001C10.0929 3.00001 10.1839 2.97416 10.2629 2.92534C10.3418 2.87653 10.4057 2.80669 10.4472 2.72364C10.5553 2.50568 10.7222 2.32236 10.9292 2.19445C11.1361 2.06655 11.3748 1.99919 11.618 2.00001H13C13.2651 2.00031 13.5193 2.10577 13.7068 2.29324C13.8942 2.48071 13.9997 2.73489 14 3.00001C14.0006 3.53026 14.2115 4.03862 14.5865 4.41356C14.9614 4.7885 15.4698 4.99941 16 5.00001C16.2651 5.00031 16.5193 5.10577 16.7068 5.29324C16.8942 5.48071 16.9997 5.73489 17 6.00001V10.5C16.9997 10.7651 16.8942 11.0193 16.7068 11.2068C16.5193 11.3943 16.2651 11.4997 16 11.5C15.8885 11.5 15.7802 11.5373 15.6923 11.6059C15.6044 11.6745 15.5419 11.7706 15.5149 11.8788L15.3788 12.4235C15.3231 12.6466 15.2141 12.8529 15.061 13.0245C14.9079 13.1961 14.7154 13.3279 14.5 13.4086V7.00001H15.5V6.00001H10.6324C10.3735 5.99928 10.1192 5.93189 9.8939 5.80434C9.66863 5.67678 9.48 5.49336 9.34619 5.27174L8.42877 3.74275C8.38086 3.66289 8.31159 3.59801 8.22878 3.5554C8.14597 3.51279 8.05291 3.49416 7.96008 3.5016C7.86725 3.50904 7.77834 3.54225 7.70337 3.5975C7.6284 3.65275 7.57035 3.72784 7.53577 3.81431L6.78723 5.68571C6.75039 5.77869 6.68638 5.85841 6.60356 5.91447C6.52074 5.97054 6.42295 6.00034 6.32294 6.00001H4.5V7.00001H5.5V13.4086C5.28465 13.3279 5.09213 13.1961 4.93905 13.0245C4.78597 12.8529 4.67691 12.6467 4.62128 12.4236V12.4236ZM17 27.6514V30H3V27.6514L3.76758 26.5H16.2324L17 27.6514ZM18 20.3215L13.7631 25.5H6.23692L2 20.3215V19C2.0006 18.4698 2.21151 17.9614 2.58645 17.5865C2.96139 17.2115 3.46975 17.0006 4 17H6C6.13261 17 6.25978 16.9473 6.35355 16.8536C6.44732 16.7598 6.5 16.6326 6.5 16.5V14.3241C6.92104 14.8473 7.45402 15.2694 8.05972 15.5594C8.66542 15.8495 9.32844 16 10 16C10.6716 16 11.3346 15.8495 11.9403 15.5594C12.546 15.2694 13.079 14.8473 13.5 14.3241V16.5C13.5 16.6326 13.5527 16.7598 13.6464 16.8536C13.7402 16.9473 13.8674 17 14 17H16C16.5302 17.0006 17.0386 17.2115 17.4135 17.5865C17.7885 17.9614 17.9994 18.4698 18 19V20.3215Z" fill="black"/>
<path d="M11.904 18.5598C12.1784 17.9225 12.3609 17.2494 12.4459 16.5608L11.4533 16.4395C11.2992 17.6806 10.7827 18.8487 9.96838 19.7979C9.69285 19.3978 9.32423 19.0706 8.89424 18.8446C8.46426 18.6185 7.98579 18.5003 7.5 18.5001H5.5V19.5001H7.5C8.03025 19.5007 8.53861 19.7116 8.91355 20.0866C9.28849 20.4615 9.4994 20.9699 9.5 21.5001V22.5001H10.5V21.5001C10.5006 20.9699 10.7115 20.4615 11.0865 20.0866C11.4614 19.7116 11.9698 19.5007 12.5 19.5001H14.5V18.5001H12.5C12.2998 18.5001 12.1002 18.5201 11.904 18.5598V18.5598Z" fill="black"/>
<path d="M30.5 1H16V2H29.2929L27.7929 3.5H18V4.5H27.5V14.5284L24.7906 12.5931C24.7151 12.5392 24.626 12.5073 24.5333 12.5011C24.4407 12.4949 24.3481 12.5146 24.2661 12.5581L20.6557 14.4695L18.3322 12.4041L17.6678 13.1515L19.7124 14.9689L18.2661 15.7346L18.7339 16.6184L24.4608 13.5865L27.5 15.7573V19.5H20V20.5H27.7929L29.2929 22H19V23H30.5C30.6326 23 30.7598 22.9473 30.8536 22.8536C30.9473 22.7598 31 22.6326 31 22.5V1.5C31 1.36739 30.9473 1.24022 30.8536 1.14645C30.7598 1.05268 30.6326 1 30.5 1V1ZM28.5 4.20713L30 2.70712V21.2929L28.5 19.7929V4.20713Z" fill="black"/>
<path d="M24 9.5C24 9.00554 23.8534 8.5222 23.5787 8.11107C23.304 7.69995 22.9135 7.37952 22.4567 7.1903C21.9999 7.00108 21.4972 6.95157 21.0123 7.04804C20.5273 7.1445 20.0819 7.3826 19.7322 7.73223C19.3826 8.08186 19.1445 8.52732 19.048 9.01227C18.9516 9.49722 19.0011 9.99989 19.1903 10.4567C19.3795 10.9135 19.7 11.304 20.1111 11.5787C20.5222 11.8534 21.0056 12 21.5 12C22.1628 11.9992 22.7983 11.7356 23.267 11.2669C23.7356 10.7983 23.9993 10.1628 24 9.5ZM20 9.5C20 9.20333 20.088 8.91332 20.2528 8.66664C20.4176 8.41997 20.6519 8.22771 20.926 8.11418C21.2001 8.00065 21.5017 7.97094 21.7926 8.02882C22.0836 8.0867 22.3509 8.22956 22.5607 8.43934C22.7705 8.64912 22.9133 8.91639 22.9712 9.20736C23.0291 9.49833 22.9994 9.79993 22.8858 10.074C22.7723 10.3481 22.58 10.5824 22.3334 10.7472C22.0867 10.912 21.7967 11 21.5 11C21.1023 10.9995 20.7211 10.8414 20.4398 10.5602C20.1586 10.2789 20.0005 9.89768 20 9.5Z" fill="black"/>
</svg>