<svg width="32" height="32" viewBox="0 0 32 32" fill="none" xmlns="http://www.w3.org/2000/svg">
<g clip-path="url(#clip0)">
<path d="M29.6683 12.1279H1.96773C0.835427 12.1279 0.405 10.6487 1.36011 10.0411L4.32471 8.15599L4.77713 7.86821L15.2104 1.23335C15.5812 0.997086 16.0543 0.997086 16.425 1.23335L21.2904 4.3274L29.0903 9.28767L30.2754 10.0411C31.231 10.6487 30.8006 12.1279 29.6683 12.1279Z" fill="#F9F3F1"/>
<path d="M7.85547 14.2695H24.13V28.5333H7.85547V14.2695Z" fill="#CDBFBA"/>
<path d="M12.0391 28.4076V21.4866C12.0391 20.4847 12.6636 19.6733 13.4333 19.6733H18.241C19.0108 19.6733 19.6352 20.4846 19.6352 21.4866V28.4076H12.0391Z" fill="#F9F3F1"/>
<path d="M15.3185 19.6738C14.5487 19.6738 13.9241 20.485 13.9241 21.4873V28.408H12.0391V21.4873C12.0391 20.485 12.6637 19.6738 13.4334 19.6738H15.3185Z" fill="#E1D3CE"/>
<path d="M29.3263 12.1104V13.9354C29.3263 14.1535 29.149 14.3307 28.931 14.3307H27.3412H23.3544H8.98872H5.00202H2.9246C2.70587 14.3307 2.5293 14.1534 2.5293 13.9354V12.1104H29.3263Z" fill="#F9F3F1"/>
<path d="M29.4373 31.4616H2.64819C2.0885 31.4616 1.63477 31.0079 1.63477 30.4482V29.2956C1.63477 28.736 2.0885 28.2822 2.64819 28.2822H29.4373C29.9969 28.2822 30.4507 28.736 30.4507 29.2956V30.4482C30.4507 31.0079 29.9969 31.4616 29.4373 31.4616Z" fill="#F9F3F1"/>
<path d="M16.0262 10.317C17.6241 10.317 18.9195 9.02157 18.9195 7.42362C18.9195 5.82567 17.6241 4.53027 16.0262 4.53027C14.4282 4.53027 13.1328 5.82567 13.1328 7.42362C13.1328 9.02157 14.4282 10.317 16.0262 10.317Z" fill="#FAF8F8"/>
<path d="M3.95703 14.3301H7.94398V26.5222H3.95703V14.3301Z" fill="#F9F3F1"/>
<path d="M24.0273 14.3301H28.0143V26.4593H24.0273V14.3301Z" fill="#F9F3F1"/>
<path d="M2.95312 27.5698V27.1714C2.95312 26.7782 3.27189 26.4595 3.66506 26.4595H7.95927C8.35244 26.4595 8.6712 26.7782 8.6712 27.1714V27.5698C8.6712 27.9629 8.35244 28.2817 7.95927 28.2817H3.66506C3.27183 28.2817 2.95312 27.9629 2.95312 27.5698Z" fill="#F9F3F1"/>
<path d="M23.0605 27.5698V27.1714C23.0605 26.7782 23.3793 26.4595 23.7725 26.4595H28.0667C28.4599 26.4595 28.7786 26.7782 28.7786 27.1714V27.5698C28.7786 27.9629 28.4599 28.2817 28.0667 28.2817H23.7725C23.3793 28.2817 23.0605 27.9629 23.0605 27.5698Z" fill="#F9F3F1"/>
<path d="M26.7458 9.43026C29.1878 9.43026 31.1674 7.43968 31.1674 4.98417C31.1674 2.52867 29.1878 0.538086 26.7458 0.538086C24.3038 0.538086 22.3242 2.52867 22.3242 4.98417C22.3242 7.43968 24.3038 9.43026 26.7458 9.43026Z" fill="#FFE177"/>
<path d="M26.7659 7.63909C28.218 7.63909 29.3951 6.45544 29.3951 4.99533C29.3951 3.53522 28.218 2.35156 26.7659 2.35156C25.3138 2.35156 24.1367 3.53522 24.1367 4.99533C24.1367 6.45544 25.3138 7.63909 26.7659 7.63909Z" fill="#FFC344"/>
<path d="M4.53276 31.4612H2.64768C2.08844 31.4612 1.63477 31.0076 1.63477 30.4477V29.2953C1.63477 28.7354 2.08844 28.2817 2.64768 28.2817H4.53276C3.97352 28.2817 3.51985 28.7354 3.51985 29.2953V30.4477C3.51985 31.0076 3.97352 31.4612 4.53276 31.4612Z" fill="#E1D3CE"/>
<path d="M5.55014 28.2822H3.66506C3.2717 28.2822 2.95312 27.9636 2.95312 27.5703V27.1719C2.95312 26.7785 3.2717 26.46 3.66506 26.46H5.55014C5.15678 26.46 4.83821 26.7785 4.83821 27.1719V27.5703C4.83821 27.9636 5.15685 28.2822 5.55014 28.2822Z" fill="#E1D3CE"/>
<path d="M3.95703 14.3301H5.84211V26.5222H3.95703V14.3301Z" fill="#E1D3CE"/>
<path d="M4.80962 14.3299H2.92454C2.70587 14.3299 2.5293 14.1527 2.5293 13.9346V12.1099H4.41438V13.9346C4.41432 14.1527 4.59095 14.3299 4.80962 14.3299Z" fill="#E1D3CE"/>
<path d="M16.9683 10.1598C16.673 10.2615 16.3557 10.3168 16.0258 10.3168C14.4279 10.3168 13.1328 9.02179 13.1328 7.42387C13.1328 5.82595 14.4279 4.53027 16.0258 4.53027C16.3557 4.53027 16.673 4.58557 16.9683 4.68736C15.8335 5.0782 15.0179 6.15584 15.0179 7.42387C15.0179 8.69191 15.8335 9.76891 16.9683 10.1598Z" fill="#F3EAE6"/>
<path d="M3.85281 12.1277H1.96773C0.835427 12.1277 0.405 10.6486 1.36011 10.041L3.4337 8.72266L3.24519 8.90739C2.29002 9.84491 2.72051 12.1277 3.85281 12.1277Z" fill="#E1D3CE"/>
<path d="M27.5898 9.34884C27.3157 9.40232 27.0321 9.4299 26.7422 9.4299C24.3002 9.4282 22.3225 7.43586 22.3242 4.98036C22.3259 2.52485 24.3075 0.535902 26.7496 0.537599C27.0366 0.537599 27.3174 0.565749 27.5892 0.619223C25.553 1.01547 24.0143 2.81698 24.0126 4.98042C24.011 7.14657 25.5502 8.9526 27.5898 9.34884Z" fill="#FFD064"/>
<path d="M24.0273 14.3301H25.9124V26.4593H24.0273V14.3301Z" fill="#E1D3CE"/>
<path d="M25.6576 28.2822H23.7725C23.3791 28.2822 23.0605 27.9636 23.0605 27.5703V27.1719C23.0605 26.7785 23.3791 26.46 23.7725 26.46H25.6576C25.2642 26.46 24.9456 26.7785 24.9456 27.1719V27.5703C24.9456 27.9636 25.2642 28.2822 25.6576 28.2822Z" fill="#E1D3CE"/>
<path d="M30.5402 9.68196L29.6241 9.09941C30.8931 8.18728 31.7219 6.69951 31.7219 5.02098C31.7219 2.25242 29.4695 0 26.7009 0C24.2463 0 22.1989 1.77091 21.7657 4.10187L16.6433 0.844014C16.1209 0.511925 15.4454 0.511925 14.923 0.844076L1.02615 9.68196C0.409411 10.0741 0.142798 10.7809 0.347015 11.4827C0.550415 12.1817 1.15081 12.634 1.87783 12.6374V13.9962C1.87783 14.4747 2.2671 14.864 2.74559 14.864H3.3086V25.88C2.78537 25.9537 2.38114 26.4026 2.38114 26.945V27.8832C1.65539 27.9801 1.09363 28.6027 1.09363 29.3545V30.5151C1.09363 31.3339 1.75976 31.9999 2.57845 31.9999H24.4529C24.7133 31.9999 24.9242 31.7889 24.9242 31.5287C24.9242 31.2684 24.7133 31.0574 24.4529 31.0574H2.57845C2.27941 31.0574 2.03617 30.8142 2.03617 30.5151V29.3545C2.03617 29.0556 2.27941 28.8123 2.57845 28.8123H29.4434C29.7424 28.8123 29.9856 29.0556 29.9856 29.3545V30.5151C29.9856 30.8142 29.7424 31.0574 29.4434 31.0574H26.5894C26.329 31.0574 26.1181 31.2684 26.1181 31.5287C26.1181 31.7889 26.329 31.9999 26.5894 31.9999H29.4434C30.2621 31.9999 30.9282 31.3339 30.9282 30.5151V29.3545C30.9282 28.5358 30.2621 27.8697 29.4434 27.8697H29.2834V26.945C29.2834 26.3891 28.8594 25.9304 28.3173 25.8741V14.864H28.8207C29.2992 14.864 29.6885 14.4747 29.6885 13.9962V12.6374C30.4155 12.634 31.0159 12.1817 31.2192 11.4827C31.4235 10.7809 31.1569 10.0741 30.5402 9.68196ZM26.7009 0.94254C28.9497 0.94254 30.7793 2.77214 30.7793 5.02098C30.7793 7.26988 28.9497 9.09941 26.7009 9.09941C24.452 9.09941 22.6225 7.26981 22.6225 5.02098C22.6225 2.77214 24.452 0.94254 26.7009 0.94254ZM7.26734 14.864V25.8682H4.25121V14.864H7.26734ZM8.21691 27.8698H3.32375V26.945C3.32375 26.871 3.3847 26.8108 3.4596 26.8108H8.08043C8.15565 26.8108 8.21691 26.871 8.21691 26.945V27.8698ZM19.1692 27.8698H12.4955V21.4829C12.4955 20.7644 12.9199 20.1574 13.4221 20.1574H18.2426C18.7449 20.1574 19.1692 20.7645 19.1692 21.4829V27.8698ZM28.341 27.8698H23.4479V26.945C23.4479 26.871 23.5088 26.8108 23.5837 26.8108H28.2052C28.28 26.8108 28.341 26.871 28.341 26.945V27.8698ZM27.3749 25.8683H24.3587V14.864H27.3749V25.8683ZM30.3143 11.2194C30.2474 11.4494 30.0456 11.6952 29.6803 11.6952H11.98C11.7197 11.6952 11.5088 11.9062 11.5088 12.1665C11.5088 12.4268 11.7197 12.6378 11.98 12.6378H28.7459V13.9215H21.3112C21.0509 13.9215 20.8399 14.1325 20.8399 14.3928C20.8399 14.653 21.0509 14.8641 21.3112 14.8641H23.4162V25.8827C22.9011 25.9634 22.5053 26.4084 22.5053 26.9451V27.8699H20.1118V21.4829C20.1118 20.2323 19.2732 19.2149 18.2426 19.2149H13.4221C12.3915 19.2149 11.553 20.2323 11.553 21.4829V27.8699H9.15945V26.9451C9.15945 26.3952 8.74392 25.941 8.20988 25.8768V14.864H19.1748C19.4351 14.864 19.646 14.653 19.646 14.3927C19.646 14.1325 19.4351 13.9214 19.1748 13.9214H2.82043V12.6377H9.84361C10.1039 12.6377 10.3149 12.4267 10.3149 12.1664C10.3149 11.9062 10.1039 11.6952 9.84361 11.6952H1.88606C1.52073 11.6952 1.31903 11.4494 1.25204 11.2193C1.18512 10.9892 1.22345 10.6735 1.53191 10.4773L15.4287 1.63952C15.6441 1.5026 15.9224 1.50266 16.1375 1.63945L21.6836 5.16669C21.7612 7.86795 23.9812 10.042 26.7008 10.042C27.41 10.042 28.0848 9.89334 28.6971 9.62698L30.0343 10.4774C30.3429 10.6735 30.3812 10.9893 30.3143 11.2194Z" fill="black"/>
<path d="M16.0109 4.06201C14.1514 4.06201 12.6387 5.57479 12.6387 7.43423C12.6387 9.29368 14.1514 10.8065 16.0109 10.8065C17.8704 10.8065 19.3832 9.29368 19.3832 7.43423C19.3832 5.57479 17.8704 4.06201 16.0109 4.06201ZM16.0109 9.86398C14.6712 9.86398 13.5812 8.77402 13.5812 7.4343C13.5812 6.09457 14.6712 5.00461 16.0109 5.00461C17.3506 5.00461 18.4406 6.09457 18.4406 7.4343C18.4406 8.77402 17.3506 9.86398 16.0109 9.86398Z" fill="black"/>
<path d="M26.7008 8.11208C28.4054 8.11208 29.7922 6.72529 29.7922 5.02061C29.7922 3.31599 28.4054 1.9292 26.7008 1.9292C24.9962 1.9292 23.6094 3.31599 23.6094 5.02061C23.6094 6.72529 24.9962 8.11208 26.7008 8.11208ZM26.7008 2.8718C27.8857 2.8718 28.8496 3.83577 28.8496 5.02067C28.8496 6.20557 27.8857 7.1696 26.7008 7.1696C25.5159 7.1696 24.5519 6.20563 24.5519 5.02067C24.5519 3.83577 25.5159 2.8718 26.7008 2.8718Z" fill="black"/>
</g>
<defs>
<clipPath id="clip0">
<rect width="32" height="32" fill="white"/>
</clipPath>
</defs>
</svg>
