<svg width="32" height="32" viewBox="0 0 32 32" fill="none" xmlns="http://www.w3.org/2000/svg">
<g clip-path="url(#clip0)">
<path d="M18.0645 31.4842H22.7096L24.7741 30.4519H26.3225V23.2261H24.7741L22.7096 21.1616H18.0645" fill="#DB9B7C"/>
<path d="M7.74219 30.4519H9.29057L11.3551 31.4842H20.1293V29.4197H22.1938V27.3552H24.2583V25.2907H22.1938V23.2261H16.0003V21.1616H11.3551L9.29057 23.2261H7.74219" fill="#EFBE9A"/>
<path d="M0.515625 23.2261H7.74143V30.4519H0.515625V23.2261Z" fill="#2D4D83"/>
<path d="M26.3223 23.2261H31.4836V30.4519H26.3223V23.2261Z" fill="#AF4A47"/>
<path d="M7.74219 4.64551H24.2583V8.77454H7.74219V4.64551Z" fill="#568E53"/>
<path d="M7.74219 4.64551L9.80671 6.71002L7.74219 8.77454" fill="#7ECB92"/>
<path d="M24.2579 4.64551L22.1934 6.71002L24.2579 8.77454" fill="#7ECB92"/>
<path d="M25.2896 20.1288V8.77393H6.70898V20.1288" fill="#568E53"/>
<path d="M6.70898 20.1288H19.4791C22.0835 18.1819 23.7412 15.256 23.7412 11.9826C23.7412 10.8641 23.5467 9.78602 23.1873 8.77393H6.70898V20.1288Z" fill="#7ECB92"/>
<path d="M13.419 12.9029C13.419 13.758 12.7257 14.4513 11.8707 14.4513C11.0156 14.4513 10.3223 13.758 10.3223 12.9029C10.3223 12.0478 11.0156 11.3545 11.8707 11.3545C12.7257 11.3545 13.419 12.0478 13.419 12.9029Z" fill="#674025"/>
<path d="M21.6769 12.9029C21.6769 13.758 20.9836 14.4513 20.1285 14.4513C19.2734 14.4513 18.5801 13.758 18.5801 12.9029C18.5801 12.0478 19.2734 11.3545 20.1285 11.3545C20.9836 11.3545 21.6769 12.0478 21.6769 12.9029Z" fill="#674025"/>
<path d="M7.22656 21.6772H8.25882V31.9998H7.22656V21.6772Z" fill="black"/>
<path d="M20.129 32.0001H11.3548C11.2749 32.0001 11.1953 31.9814 11.1242 31.9459L9.1686 30.9678H0V29.9356H9.29032C9.37021 29.9356 9.44985 29.9542 9.52092 29.9898L11.4766 30.9678H19.6129V29.9356H13.9355V28.9033H20.129C20.4146 28.9033 20.6452 29.1339 20.6452 29.4194V31.484C20.6452 31.7695 20.4146 32.0001 20.129 32.0001Z" fill="black"/>
<path d="M22.1936 29.9352H13.9355V28.9029H21.6775V27.8706H13.9355V26.8384H22.1936C22.4791 26.8384 22.7097 27.069 22.7097 27.3545V29.419C22.7097 29.7046 22.4791 29.9352 22.1936 29.9352Z" fill="black"/>
<path d="M24.2581 27.8707H13.9355V26.8384H23.742V25.8062H13.9355V24.7739H24.2581C24.5437 24.7739 24.7743 25.0045 24.7743 25.2901V27.3546C24.7743 27.6401 24.5437 27.8707 24.2581 27.8707Z" fill="black"/>
<path d="M16 23.7423H12.9032V22.71H15.4839V21.6778H11.5685L9.65524 23.5911C9.55872 23.6881 9.42767 23.7423 9.29032 23.7423H0V22.71H9.07661L10.9899 20.7967C11.0864 20.6997 11.2175 20.6455 11.3548 20.6455H16C16.2855 20.6455 16.5161 20.8761 16.5161 21.1616V23.2262C16.5161 23.5117 16.2855 23.7423 16 23.7423Z" fill="black"/>
<path d="M22.1927 25.8058H13.9346V24.7735H21.6765V23.7412H12.9023V22.709H22.1927C22.4782 22.709 22.7088 22.9396 22.7088 23.2251V25.2896C22.7088 25.5752 22.4782 25.8058 22.1927 25.8058Z" fill="black"/>
<path d="M25.8066 21.6772H26.8389V31.9998H25.8066V21.6772Z" fill="black"/>
<path d="M22.7096 31.9996H20.1289V30.9673H22.5878L24.5435 29.9892C24.6145 29.9537 24.6942 29.9351 24.7741 29.9351H31.9999V30.9673H24.8958L22.9401 31.9454C22.8691 31.9809 22.7894 31.9996 22.7096 31.9996Z" fill="black"/>
<path d="M32.0004 23.7423H24.7746C24.6373 23.7423 24.5062 23.6881 24.4097 23.5911L22.4964 21.6778H18.5811V22.71H21.1617V23.7423H18.065C17.7794 23.7423 17.5488 23.5117 17.5488 23.2262V21.1616C17.5488 20.8761 17.7794 20.6455 18.065 20.6455H22.7101C22.8475 20.6455 22.9785 20.6997 23.075 20.7967L24.9883 22.71H32.0004V23.7423Z" fill="black"/>
<path d="M25.8063 20.6449H24.774V9.29007H7.22562V20.6449H6.19336V8.77394C6.19336 8.48841 6.42395 8.25781 6.70949 8.25781H25.2901C25.5757 8.25781 25.8063 8.48841 25.8063 8.77394V20.6449Z" fill="black"/>
<path d="M24.7749 8.77456H23.7427V5.16165H8.25882V8.77456H7.22656V4.64552C7.22656 4.35999 7.45716 4.12939 7.74269 4.12939H24.2588C24.5444 4.12939 24.7749 4.35999 24.7749 4.64552V8.77456Z" fill="black"/>
<path d="M8.10679 9.13914L7.37695 8.40931L9.07655 6.70971L7.37695 5.01011L8.10679 4.28027L10.1713 6.34479C10.3732 6.54665 10.3732 6.87276 10.1713 7.07463L8.10679 9.13914Z" fill="black"/>
<path d="M23.8936 9.13914L21.8291 7.07463C21.6273 6.87276 21.6273 6.54665 21.8291 6.34479L23.8936 4.28027L24.6235 5.01011L22.9239 6.70971L24.6235 8.40931L23.8936 9.13914Z" fill="black"/>
<path d="M11.8712 14.9674C10.7325 14.9674 9.80664 14.0415 9.80664 12.9029C9.80664 11.7643 10.7325 10.8384 11.8712 10.8384C13.0098 10.8384 13.9357 11.7643 13.9357 12.9029C13.9357 14.0415 13.0098 14.9674 11.8712 14.9674ZM11.8712 11.8706C11.3019 11.8706 10.8389 12.3336 10.8389 12.9029C10.8389 13.4722 11.3019 13.9352 11.8712 13.9352C12.4405 13.9352 12.9034 13.4722 12.9034 12.9029C12.9034 12.3336 12.4405 11.8706 11.8712 11.8706Z" fill="black"/>
<path d="M20.129 14.9674C18.9904 14.9674 18.0645 14.0415 18.0645 12.9029C18.0645 11.7643 18.9904 10.8384 20.129 10.8384C21.2676 10.8384 22.1935 11.7643 22.1935 12.9029C22.1935 14.0415 21.2676 14.9674 20.129 14.9674ZM20.129 11.8706C19.5597 11.8706 19.0967 12.3336 19.0967 12.9029C19.0967 13.4722 19.5597 13.9352 20.129 13.9352C20.6983 13.9352 21.1612 13.4722 21.1612 12.9029C21.1612 12.3336 20.6983 11.8706 20.129 11.8706Z" fill="black"/>
<path d="M20.6458 12.9032H19.6135V4.64516C19.6135 2.65348 17.9923 1.03226 16.0006 1.03226C14.0089 1.03226 12.3877 2.65348 12.3877 4.64516V12.9032H11.3555V4.64516C11.3555 2.08367 13.4391 0 16.0006 0C18.5621 0 20.6458 2.08367 20.6458 4.64516V12.9032Z" fill="black"/>
</g>
<defs>
<clipPath id="clip0">
<rect width="32" height="32" fill="white"/>
</clipPath>
</defs>
</svg>
