<svg width="32" height="32" viewBox="0 0 32 32" fill="none" xmlns="http://www.w3.org/2000/svg">
<path d="M29.5 8H2.5L1.5 6H30.5L29.5 8Z" fill="#FDCD87"/>
<path d="M28.5 30.5H21.5L22 28.5H28L28.5 30.5Z" fill="#FA5D3F"/>
<path d="M23.5 8H26.5V28.5H23.5V8Z" fill="#FDCD87"/>
<path d="M27 6H23.5L25.5 1.5H27V6Z" fill="#FA5D3F"/>
<path d="M12 11H10L9 13.25L10 15H12L13 13.25L12 11Z" fill="#FA5D3F"/>
<path d="M23.5 12H20L18 8H23.5V12Z" fill="#FA5D3F"/>
<path d="M9 6H13V8H9V6Z" fill="#FA5D3F"/>
<path d="M12.5 30.5H19.5V22.5L16 18L12.5 22V26.5V30.5Z" fill="#ABBF71"/>
<path d="M8 30.5V20L3.5 16.5H2.5V30.5H8Z" fill="#ABBF71"/>
<path d="M13 30.5V27L10 24L7 27V30.5H13Z" fill="#D4D580"/>
<path d="M15 28H19.5V30.5H15V28Z" fill="#D4D580"/>
<path d="M10.5 12.5H11.5V13.5H10.5V12.5Z" fill="black"/>
<path d="M14 23H15V24H14V23Z" fill="black"/>
<path d="M17 23H18V24H17V23Z" fill="black"/>
<path d="M15.5 21H16.5V22H15.5V21Z" fill="black"/>
<path d="M4 19.5H5V20.5H4V19.5Z" fill="black"/>
<path d="M4 22.5H5V23.5H4V22.5Z" fill="black"/>
<path d="M5.5 21H6.5V22H5.5V21Z" fill="black"/>
<path d="M4 25.5H5V26.5H4V25.5Z" fill="black"/>
<path d="M4 28H5V29H4V28Z" fill="black"/>
<path d="M5.5 24H6.5V25H5.5V24Z" fill="black"/>
<path d="M28.8904 30L28.4851 28.3787C28.458 28.2706 28.3956 28.1745 28.3077 28.1059C28.2198 28.0373 28.1115 28 28 28H27V19.5H26V20.0741L24 22.2271V19.9641L26 17.8111V18.5H27V8.5H29.5C29.5928 8.5 29.6839 8.47414 29.7628 8.42533C29.8418 8.37651 29.9057 8.30667 29.9472 8.22363L30.9472 6.22363C30.9941 6.12975 31.0103 6.02349 30.9935 5.9199C30.9767 5.81631 30.9277 5.72063 30.8534 5.64644L27.5 2.29288V1.5C27.5 1.36739 27.4473 1.24021 27.3536 1.14645C27.2598 1.05268 27.1326 1 27 1H25.5C25.4033 0.999994 25.3086 1.02804 25.2275 1.08075C25.1464 1.13345 25.0823 1.20855 25.0431 1.29694L24.7181 2.02881L2.94375 4.50319C2.82166 4.51701 2.70894 4.5753 2.62709 4.66694C2.54525 4.75857 2.5 4.87713 2.5 5V5.5H1.5C1.41477 5.5 1.33096 5.52179 1.25652 5.5633C1.18208 5.6048 1.11949 5.66465 1.07468 5.73715C1.02988 5.80965 1.00435 5.8924 1.00052 5.97755C0.996694 6.06269 1.01469 6.1474 1.05281 6.22363L2.05281 8.22363C2.09434 8.30667 2.15817 8.37651 2.23715 8.42533C2.31614 8.47414 2.40715 8.5 2.5 8.5H5V7.5H2.809L2.309 6.5H8.5V7.5H6V8.5H10.5V10.5H10C9.90328 10.5 9.80863 10.528 9.72752 10.5807C9.64642 10.6335 9.58234 10.7085 9.54306 10.7969L8.54306 13.0469C8.5112 13.1186 8.49666 13.1969 8.50062 13.2752C8.50458 13.3536 8.52694 13.4299 8.56588 13.4981L9.56588 15.2481C9.60961 15.3246 9.67279 15.3882 9.74903 15.4325C9.82527 15.4767 9.91185 15.5 10 15.5H10.5V16.2929L9.14644 17.6464C9.08078 17.7121 9.03471 17.7948 9.01338 17.8851C8.99205 17.9755 8.99631 18.07 9.02569 18.1581L9.52569 19.6581C9.55887 19.7577 9.62254 19.8443 9.70766 19.9056C9.79279 19.967 9.89507 20 10 20H12C12.1326 20 12.2598 19.9473 12.3536 19.8536C12.4473 19.7598 12.5 19.6326 12.5 19.5V18H11.5V19H10.3604L10.0721 18.1351L11.3533 16.8538C11.3998 16.8074 11.4367 16.7522 11.4619 16.6915C11.487 16.6308 11.5 16.5657 11.5 16.5V15.5H12C12.0881 15.5 12.1747 15.4767 12.251 15.4325C12.3272 15.3882 12.3904 15.3246 12.4341 15.2481L13.4341 13.4981C13.4731 13.4299 13.4954 13.3536 13.4994 13.2752C13.5033 13.1969 13.4888 13.1186 13.4569 13.0469L12.4569 10.7969C12.4177 10.7085 12.3536 10.6335 12.2725 10.5807C12.1914 10.528 12.0967 10.5 12 10.5H11.5V8.5H17.691L19.5528 12.2236C19.5943 12.3067 19.6582 12.3765 19.7372 12.4253C19.8161 12.4741 19.9072 12.5 20 12.5H23V28H22C21.8885 28 21.7802 28.0373 21.6923 28.1059C21.6044 28.1745 21.542 28.2706 21.5149 28.3787L21.1096 30H20V22.5C20 22.3888 19.9629 22.2808 19.8947 22.1931L18.9667 21H19V19.5H18V19.7571L16.3947 17.6931C16.3494 17.6349 16.2919 17.5874 16.2262 17.5541C16.1604 17.5207 16.0881 17.5023 16.0144 17.5002C15.9408 17.4981 15.8675 17.5123 15.8 17.5417C15.7324 17.5712 15.6722 17.6153 15.6237 17.6707L12.1237 21.6707C12.0439 21.7619 12 21.8789 12 22V25.2929L10.3536 23.6464C10.3071 23.6 10.252 23.5632 10.1913 23.538C10.1307 23.5129 10.0657 23.5 10 23.5C9.93434 23.5 9.86932 23.5129 9.80865 23.538C9.74799 23.5632 9.69287 23.6 9.64644 23.6464L8.5 24.7929V20C8.5 19.9239 8.48261 19.8487 8.44916 19.7804C8.41571 19.712 8.36709 19.6521 8.307 19.6054L3.807 16.1054C3.71923 16.0371 3.6112 16 3.5 16V14H2.5V16C2.36739 16 2.24021 16.0527 2.14645 16.1464C2.05268 16.2402 2 16.3674 2 16.5V22.5H3V17H3.32844L7.5 20.2446V25.7929L6.64644 26.6464C6.60001 26.6929 6.56318 26.748 6.53805 26.8087C6.51293 26.8693 6.5 26.9343 6.5 27V30H3V23.5H2V30H1V31H31V30H28.8904ZM12.4404 13.2218L11.7098 14.5H10.2902L9.55975 13.2218L10.325 11.5H11.675L12.4404 13.2218ZM26 21.5434V24.0741L24 26.2271V23.6964L26 21.5434ZM26 8.5V8.57413L24 10.7271V8.5H26ZM24 12.1964L26 10.0434V12.3419L24 14.4949V12.1964ZM24 18.4949V15.9641L26 13.8111V16.3419L24 18.4949ZM29.191 7.5H13.5V6.5H29.691L29.191 7.5ZM29.2929 5.5H27.5V3.70712L29.2929 5.5ZM25.825 2H26.5V5.5H24.2694L25.825 2ZM3.5 5.44644L24.2467 3.08881L23.175 5.5H3.5V5.44644ZM9.5 7.5V6.5H12.5V7.5H9.5ZM20.309 11.5L19.809 10.5H21V9.5H19.309L18.809 8.5H23V11.5H20.309ZM24 27.6964L26 25.5434V28H24V27.6964ZM14.5 28V30H13.5V27C13.5 26.9343 13.4871 26.8693 13.4619 26.8087C13.4368 26.748 13.4 26.6929 13.3536 26.6464L13 26.2929V26H19V27.5H15C14.8674 27.5 14.7402 27.5527 14.6464 27.6464C14.5527 27.7402 14.5 27.8674 14.5 28ZM15.9773 18.7852L19 22.6716V25H13V22.1879L15.9773 18.7852ZM10.5 30V28H9.5V30H7.5V27.2071L10 24.7071L12.5 27.2071V30H10.5ZM15.5 30V28.5H19V30H15.5ZM22.1404 30L22.3904 29H27.6096L27.8596 30H22.1404Z" fill="black"/>
</svg>
