<svg width="32" height="32" viewBox="0 0 32 32" fill="none" xmlns="http://www.w3.org/2000/svg">
<g clip-path="url(#clip0)">
<path d="M28.573 19.4865H3.42773C2.73736 19.4865 2.17773 18.9269 2.17773 18.2365V18.2314C2.17773 17.5411 2.73736 16.9814 3.42773 16.9814H28.573C29.2634 16.9814 29.823 17.5411 29.823 18.2314V18.2365C29.823 18.9269 29.2634 19.4865 28.573 19.4865Z" fill="#ECF3F3"/>
<path d="M16.0232 3.13135H15.9755C9.4598 3.13135 4.17773 8.41341 4.17773 14.9292V16.9822H27.8211V14.9292C27.8211 8.41341 22.539 3.13135 16.0232 3.13135Z" fill="#C0DBFF"/>
<path d="M16.0005 3.13098C16.6923 3.13098 17.253 2.57021 17.253 1.87848C17.253 1.18674 16.6923 0.625977 16.0005 0.625977C15.3088 0.625977 14.748 1.18674 14.748 1.87848C14.748 2.57021 15.3088 3.13098 16.0005 3.13098Z" fill="#ECF3F3"/>
<path d="M5.52148 28.4464L7.72348 26.9991C7.72348 26.9991 7.62848 24.5805 9.56817 23.622L10.1666 20.6299C10.2995 19.9653 10.8832 19.4868 11.561 19.4868C12.4334 19.4868 13.1 20.2651 12.9661 21.1271L12.6695 23.0361L19.079 19.4868H21.4137C22.2487 19.4868 22.5514 20.5879 21.8333 21.014C19.4546 22.4251 15.7882 24.9487 15.7882 24.9487C15.0759 26.4123 14.02 27.7571 12.0009 28.4463L7.72355 31.3754L5.52148 28.4464Z" fill="#FFDCD5"/>
<path d="M19.9973 15.0201C20.3432 15.0201 20.6236 14.7397 20.6236 14.3938C20.6236 14.048 20.3432 13.7676 19.9973 13.7676C19.6515 13.7676 19.3711 14.048 19.3711 14.3938C19.3711 14.7397 19.6515 15.0201 19.9973 15.0201Z" fill="black"/>
<path d="M28.5698 16.3559H28.4477V14.953C28.4477 8.67406 23.7744 3.467 17.7235 2.625C17.823 2.39613 17.8785 2.14388 17.8785 1.87881C17.8785 0.842813 17.0357 0 15.9997 0C14.9638 0 14.1209 0.842813 14.1209 1.87881C14.1209 2.14388 14.1764 2.39613 14.2758 2.625C8.22503 3.467 3.55178 8.67406 3.55178 14.953V16.3559H3.42959C2.39366 16.3559 1.55078 17.1987 1.55078 18.2347C1.55078 19.2707 2.39359 20.1135 3.42959 20.1135H9.67441C9.62147 20.2386 9.58009 20.3703 9.55259 20.5076L9.01459 23.1974C7.36772 24.1005 7.11978 25.8775 7.09428 26.6636L5.17759 27.9234C4.88016 28.1188 4.80684 28.5382 5.02097 28.8231L7.22297 31.7521C7.42159 32.0163 7.80441 32.0794 8.07741 31.8925L12.2857 29.0107C14.593 28.1942 15.6684 26.5819 16.277 25.3732C16.9569 24.9081 20.0739 22.7862 22.1528 21.553C22.6648 21.2493 22.9286 20.6876 22.8477 20.1134H28.5697C29.6056 20.1134 30.4485 19.2706 30.4485 18.2346C30.4485 17.1986 29.6058 16.3559 28.5698 16.3559ZM15.3735 1.87881C15.3735 1.5335 15.6544 1.25256 15.9997 1.25256C16.345 1.25256 16.626 1.5335 16.626 1.87881C16.626 2.22413 16.345 2.50506 15.9997 2.50506C15.6544 2.50506 15.3735 2.22413 15.3735 1.87881ZM4.80428 14.953C4.80428 8.77981 9.82653 3.75756 15.9997 3.75756C21.801 3.75756 26.5854 8.19306 27.1408 13.8508H22.826C22.4801 13.8508 22.1997 14.1312 22.1997 14.4771C22.1997 14.8229 22.4801 15.1033 22.826 15.1033H27.1952V16.3558H4.80428V14.953ZM21.6022 20.2571C21.6282 20.3519 21.5985 20.4255 21.5139 20.4757C19.1445 21.8813 15.47 24.4078 15.4332 24.4332C15.3441 24.4944 15.2724 24.5778 15.2252 24.675C14.4141 26.3416 13.3573 27.322 11.7987 27.854C11.745 27.8724 7.86422 30.5205 7.86422 30.5205L6.42316 28.6036L8.06766 27.5227C8.25878 27.3971 8.36622 27.1772 8.34791 26.9492C8.34628 26.9288 8.20297 24.9045 9.81972 24.1959C10.0069 24.1139 10.1423 23.9456 10.1824 23.7451L10.7808 20.7531C10.8549 20.3824 11.1831 20.1134 11.5611 20.1134C11.7972 20.1134 12.0118 20.2122 12.1653 20.3914C12.319 20.5707 12.3836 20.798 12.3473 21.0312C12.3467 21.0354 12.3461 21.0396 12.3455 21.0438L12.049 23.2446C12.0173 23.4796 12.1211 23.7123 12.317 23.8458C12.513 23.9792 12.7675 23.9906 12.9746 23.8752L19.7218 20.1134H21.4138C21.5127 20.1134 21.5761 20.1618 21.6022 20.2571ZM13.4481 20.1134H17.1498L13.4574 22.1721L13.5861 21.2168C13.6435 20.8388 13.5933 20.4578 13.4481 20.1134ZM28.5698 18.8609H3.42959C3.08428 18.8609 2.80334 18.58 2.80334 18.2347C2.80334 17.8894 3.08428 17.6084 3.42959 17.6084H28.5698C28.9151 17.6084 29.196 17.8894 29.196 18.2347C29.196 18.58 28.9152 18.8609 28.5698 18.8609Z" fill="black"/>
<path d="M11.6904 6.39933C9.73804 7.31108 8.20142 8.99533 7.47448 11.0202C7.35767 11.3458 7.52679 11.7044 7.85229 11.8213C7.92223 11.8463 7.9936 11.8583 8.06385 11.8583C8.32067 11.8583 8.56154 11.699 8.65336 11.4435C9.26823 9.73058 10.5684 8.3057 12.2204 7.5342C12.5338 7.38783 12.6692 7.0152 12.5229 6.70177C12.3765 6.38833 12.0038 6.25295 11.6904 6.39933Z" fill="black"/>
</g>
<defs>
<clipPath id="clip0">
<rect width="32" height="32" fill="white"/>
</clipPath>
</defs>
</svg>
