<svg width="32" height="32" viewBox="0 0 32 32" fill="none" xmlns="http://www.w3.org/2000/svg">
<g clip-path="url(#clip0)">
<path d="M19.2904 31.5317H14.3672V6.91593C14.3672 6.58724 14.6336 6.3208 14.9623 6.3208H18.6953C19.024 6.3208 19.2904 6.58724 19.2904 6.91593V31.5317H19.2904Z" fill="#C3D5EF"/>
<path d="M18.6948 6.3208H17.6602C17.9888 6.3208 18.2553 6.58724 18.2553 6.91593V31.5317H19.2899V6.91593C19.2898 6.5873 19.0234 6.3208 18.6948 6.3208Z" fill="#B7C8EA"/>
<path d="M14.3594 12.9927H19.2989V17.2877H14.3594V12.9927Z" fill="#DF6B57"/>
<path d="M18.2559 12.9927H19.2905V17.2877H18.2559V12.9927Z" fill="#DD544F"/>
<path d="M14.3594 22.5591H19.2989V26.8541H14.3594V22.5591Z" fill="#DF6B57"/>
<path d="M18.2559 22.5591H19.2905V26.8541H18.2559V22.5591Z" fill="#DD544F"/>
<path d="M7.931 31.5317H3.00781V4.41593C3.00781 4.08724 3.27425 3.8208 3.60294 3.8208H7.33594C7.66463 3.8208 7.93106 4.08724 7.93106 4.41593V31.5317H7.931Z" fill="#C3D5EF"/>
<path d="M7.33608 3.8208H6.04883C6.37752 3.8208 6.64395 4.08724 6.64395 4.41593V31.5317H7.9312V4.41593C7.93114 4.0873 7.6647 3.8208 7.33608 3.8208Z" fill="#B7C8EA"/>
<path d="M7.93164 11.3247H14.368V12.9051H7.93164V11.3247Z" fill="#365E7D"/>
<path d="M13.332 11.3247H14.3667V12.9051H13.332V11.3247Z" fill="#2B4D66"/>
<path d="M15.4258 25.8857H22.9343V27.4789H15.4258V25.8857Z" fill="#365E7D"/>
<path d="M22.9353 25.8857H20.9613C20.919 26.4168 20.922 26.9479 20.9699 27.4789H22.9353V25.8857Z" fill="#2B4D66"/>
<path d="M28.3092 21.7324H23.6588C23.394 21.7324 23.1505 21.8824 23.0357 22.121C21.5274 25.2578 21.5923 28.3945 23.2306 31.5313H28.7375C30.3757 28.3945 30.4407 25.2578 28.9323 22.121C28.8176 21.8824 28.574 21.7324 28.3092 21.7324Z" fill="#DF6B57"/>
<path d="M28.9326 22.121C28.8179 21.8824 28.5743 21.7324 28.3095 21.7324H26.8535C27.1183 21.7324 27.3619 21.8824 27.4766 22.121C28.985 25.2578 28.92 28.3945 27.2818 31.5313H28.7378C30.376 28.3945 30.441 25.2578 28.9326 22.121Z" fill="#DD544F"/>
<path d="M27.9468 21.7322H24.0195V20.5374C24.0195 20.2222 24.275 19.9668 24.5902 19.9668H27.3762C27.6913 19.9668 27.9468 20.2223 27.9468 20.5374V21.7322H27.9468Z" fill="#365E7D"/>
<path d="M27.3766 19.9678H26.291C26.6062 19.9678 26.8616 20.2233 26.8616 20.5384V21.7331H27.9472V20.5384C27.9472 20.2233 27.6917 19.9678 27.3766 19.9678Z" fill="#2B4D66"/>
<path d="M3.00781 8.69775H7.94731V12.9928H3.00781V8.69775Z" fill="#DF6B57"/>
<path d="M6.64453 8.69775H7.93178V12.9928H6.64453V8.69775Z" fill="#DD544F"/>
<path d="M15.4261 24.1762H1.7207V22.4157C1.7207 18.6311 4.78877 15.563 8.57339 15.563C12.358 15.563 15.4261 18.6311 15.4261 22.4157V24.1762Z" fill="#E7ECF6"/>
<path d="M8.57327 15.563C8.3622 15.563 8.15345 15.5731 7.94727 15.5917C11.4385 15.908 14.174 18.8421 14.174 22.4157V24.1762H15.426V22.4157C15.426 18.631 12.3579 15.563 8.57327 15.563Z" fill="#D8E2F1"/>
<path d="M1.7207 24.1763H15.4261V31.5311H1.7207V24.1763Z" fill="#E7ECF6"/>
<path d="M14.1738 24.1763H15.4258V31.5311H14.1738V24.1763Z" fill="#D8E2F1"/>
<path d="M10.4243 31.5308H6.72266V28.4788C6.72266 28.2748 6.88803 28.1094 7.09209 28.1094H10.0548C10.2588 28.1094 10.4243 28.2748 10.4243 28.4788V31.5308Z" fill="#D3EFFB"/>
<path d="M10.0547 28.1094H8.99023C9.19423 28.1094 9.35967 28.2748 9.35967 28.4788V31.5308H10.4242V28.4788C10.4242 28.2748 10.2587 28.1094 10.0547 28.1094Z" fill="#B1E4F9"/>
<path d="M9.63877 20.559C9.63877 21.1468 9.1622 21.6234 8.57427 21.6234C7.98639 21.6234 7.50977 21.1469 7.50977 20.559C7.50977 19.9711 7.98633 18.812 8.57427 18.812C9.16214 18.812 9.63877 19.9711 9.63877 20.559Z" fill="#365E7D"/>
<path d="M8.57288 18.812C8.43394 18.812 8.30138 18.8773 8.17969 18.9839C8.57294 19.3284 8.851 20.11 8.851 20.559C8.851 21.0078 8.57275 21.391 8.17969 21.5475C8.30144 21.596 8.43381 21.6234 8.57288 21.6234C9.16075 21.6234 9.63737 21.1468 9.63737 20.559C9.63737 19.9711 9.16075 18.812 8.57288 18.812Z" fill="#2B4D66"/>
<path d="M31.5312 31.0625H29.4856C29.8655 30.2197 30.1398 29.3689 30.3021 28.5246C30.351 28.2704 30.1846 28.0246 29.9303 27.9758C29.6761 27.9271 29.4304 28.0933 29.3815 28.3476C29.2083 29.2481 28.8952 30.1601 28.4495 31.0624H26.4524V30.3407C26.4524 30.0818 26.2426 29.8719 25.9837 29.8719C25.7248 29.8719 25.5149 30.0818 25.5149 30.3407V31.0624H23.5179C22.8193 29.6482 22.4506 28.2211 22.4215 26.8163C22.4057 26.0548 22.4902 25.2868 22.6722 24.518H29.295C29.4571 25.2027 29.542 25.8866 29.5471 26.5653C29.549 26.823 29.7585 27.0306 30.0158 27.0306H30.0193C30.2783 27.0286 30.4865 26.8172 30.4846 26.5583C30.4794 25.8609 30.3981 25.1599 30.2434 24.4593C30.3876 24.3793 30.4853 24.2257 30.4853 24.0491C30.4853 23.7902 30.2754 23.5804 30.0165 23.5804H30.0102C29.8379 23.0241 29.6196 22.4692 29.3544 21.9176C29.1788 21.5525 28.8179 21.3067 28.416 21.2691V20.5375C28.416 19.9704 27.9593 19.5086 27.3944 19.499V2.37181C27.3944 1.064 26.3305 6.24999e-05 25.0227 6.24999e-05L7.44867 0C6.14086 0 5.07687 1.06394 5.07687 2.37175V3.35174H3.60293C3.01631 3.35174 2.53912 3.82899 2.53912 4.41555V5.80911C2.39756 5.8898 2.30187 6.0418 2.30187 6.21642C2.30187 6.39105 2.3975 6.54305 2.53912 6.62374V18.2746C1.72768 19.4532 1.25187 20.88 1.25187 22.4159V23.7077H0.945311C0.686374 23.7077 0.476562 23.9175 0.476562 24.1765C0.476562 24.4354 0.686374 24.6452 0.945311 24.6452H1.25187V27.1728C1.25187 27.4317 1.46168 27.6415 1.72062 27.6415C1.97956 27.6415 2.18937 27.4317 2.18937 27.1728V24.6452H14.9572V31.0626H10.8929V28.4793C10.8929 28.0171 10.5168 27.6411 10.0547 27.6411H7.09199C6.6298 27.6411 6.2538 28.0172 6.2538 28.4793V31.0626H2.18937V29.047C2.18937 28.7881 1.97956 28.5783 1.72062 28.5783C1.46168 28.5783 1.25187 28.7881 1.25187 29.047V31.0626H0.468749C0.209812 31.0626 0 31.2724 0 31.5313C0 31.7902 0.209812 32.0001 0.468749 32.0001H31.5312C31.7901 32.0001 31.9999 31.7902 31.9999 31.5313C31.9999 31.2724 31.7901 31.0625 31.5312 31.0625ZM7.19124 28.5786H9.95535V31.0624H7.19124V28.5786ZM24.6875 19.4981H24.5907C24.0176 19.4981 23.5513 19.9645 23.5513 20.5376V21.2692C23.1494 21.3068 22.7885 21.5526 22.6129 21.9178C22.347 22.4709 22.1292 23.0253 21.9573 23.5805H21.9508C21.6919 23.5805 21.4821 23.7903 21.4821 24.0493C21.4821 24.226 21.58 24.3798 21.7245 24.4596C21.6543 24.7786 21.5998 25.0977 21.5606 25.4169H19.7593C19.7588 23.7576 19.7592 12.61 19.7593 9.12367C19.9009 9.04298 19.9965 8.89098 19.9965 8.71642C19.9965 8.54186 19.9009 8.3898 19.7593 8.30917V6.91561C19.7593 6.32899 19.282 5.8518 18.6955 5.8518H17.2978V4.61493C17.2978 4.14887 17.6769 3.76968 18.143 3.76968H23.8422C24.3083 3.76968 24.6875 4.14887 24.6875 4.61493V19.4981ZM14.836 9.18517H18.8217V12.5235H14.836V9.18517ZM14.836 13.461H18.8217V16.8186H14.836V13.461ZM18.6953 6.78924C18.765 6.78924 18.8217 6.84592 18.8217 6.91555V8.24761H14.836V6.91555C14.836 6.84592 14.8927 6.78924 14.9623 6.78924H18.6953ZM13.8985 12.436H8.41598V11.7931H13.8985V12.436ZM7.46224 8.2293H6.40649C6.14755 8.2293 5.93774 8.43911 5.93774 8.69805C5.93774 8.95698 6.14755 9.16679 6.40649 9.16679H7.46224V12.5244H3.47656V9.16679H4.5323C4.79124 9.16679 5.00105 8.95698 5.00105 8.69805C5.00105 8.43911 4.79124 8.2293 4.5323 8.2293H3.47656V6.68517H7.46224V8.2293ZM7.46224 13.4619V15.1787C5.92505 15.4137 4.54405 16.1288 3.47656 17.1652V13.4619H7.46224ZM8.39973 13.3735H13.8904C13.8905 13.4685 13.8884 17.6652 13.8986 17.397C12.5627 15.9803 10.6696 15.0945 8.5733 15.0945C8.5153 15.0945 8.45748 15.0953 8.3998 15.0967V13.3735H8.39973ZM14.836 17.7561H18.8217V22.09H15.887C15.8314 20.827 15.4547 19.6459 14.836 18.6271V17.7561ZM16.2012 24.6451C16.4602 24.6451 16.67 24.4353 16.67 24.1764C16.67 23.9175 16.4602 23.7076 16.2012 23.7076H15.8947V23.0275H18.8218V25.4169H15.8947V24.6451H16.2012V24.6451ZM15.8947 26.3544H21.49C21.4838 26.573 21.485 26.7916 21.4934 27.0101H15.8948V26.3544H15.8947ZM21.5737 27.9476C21.7123 28.988 22.0149 30.0273 22.482 31.0625H19.7593V27.9476H21.5737ZM28.5096 22.324C28.7104 22.7417 28.8816 23.1609 29.0245 23.5805H22.9432C23.0861 23.161 23.2569 22.7419 23.4578 22.3241C23.4937 22.2494 23.5725 22.2011 23.6585 22.2011H28.3089C28.3949 22.2011 28.4736 22.2493 28.5096 22.324ZM27.4786 20.5376V21.2636H24.4888V20.5376C24.4888 20.4814 24.5345 20.4356 24.5907 20.4356H27.3767C27.4328 20.4356 27.4786 20.4813 27.4786 20.5376ZM6.01436 2.37175C6.01436 1.58093 6.6578 0.937498 7.44867 0.937498L25.0228 0.937561C25.8136 0.937561 26.457 1.581 26.457 2.37181V19.4981H25.625V4.61493C25.625 3.63187 24.8252 2.83218 23.8422 2.83218H18.143C17.16 2.83218 16.3603 3.63193 16.3603 4.61493V5.85174H14.9625C14.3759 5.85174 13.8987 6.32899 13.8987 6.91555V8.30911C13.7572 8.3898 13.6615 8.54179 13.6615 8.71642C13.6615 8.89104 13.7571 9.04304 13.8987 9.12373V10.8557H8.41617C8.4073 7.5473 8.42967 12.3965 8.39986 6.62374C8.54142 6.54305 8.63711 6.39105 8.63711 6.21642C8.63711 6.0418 8.54148 5.8898 8.39986 5.80911V4.41555C8.39986 3.82893 7.92261 3.35174 7.33605 3.35174H6.01436V2.37175ZM3.60293 4.28924H7.33592C7.40555 4.28924 7.46224 4.34593 7.46224 4.41555V5.74761H3.47656V4.41555C3.47656 4.34593 3.53331 4.28924 3.60293 4.28924ZM2.18937 23.7076V22.4158C2.18937 18.8958 5.05318 16.0319 8.57336 16.0319C12.0934 16.0319 14.9573 18.8957 14.9573 22.4158V23.7076H2.18937ZM15.8947 27.9476H18.8218V31.0625H15.8947V27.9476Z" fill="black"/>
<path d="M8.5742 18.3433C8.13027 18.3433 7.71589 18.6636 7.40739 19.2455C7.18477 19.6652 7.04102 20.1808 7.04102 20.559C7.04102 21.4045 7.72883 22.0923 8.5742 22.0923C9.41964 22.0923 10.1075 21.4045 10.1075 20.559C10.1075 20.1808 9.96364 19.6652 9.74108 19.2455C9.43258 18.6636 9.0182 18.3433 8.5742 18.3433ZM8.5742 21.1547C8.2457 21.1547 7.97852 20.8875 7.97852 20.559C7.97852 20.0499 8.38864 19.3098 8.5722 19.2806C8.75983 19.3097 9.16995 20.0498 9.16995 20.559C9.17002 20.8875 8.9027 21.1547 8.5742 21.1547Z" fill="black"/>
</g>
<defs>
<clipPath id="clip0">
<rect width="32" height="32" fill="white"/>
</clipPath>
</defs>
</svg>
