<svg width="32" height="32" viewBox="0 0 32 32" fill="none" xmlns="http://www.w3.org/2000/svg">
<g clip-path="url(#clip0)">
<path d="M29.9062 30.0625H2.09375C1.19631 30.0625 0.46875 29.3349 0.46875 28.4375V27.1875C0.46875 27.0494 0.580687 26.9375 0.71875 26.9375H31.2812C31.4193 26.9375 31.5312 27.0494 31.5312 27.1875V28.4375C31.5312 29.3349 30.8037 30.0625 29.9062 30.0625Z" fill="#A9DBF5"/>
<path d="M31.2812 26.9375H29.4062C29.5443 26.9375 29.6562 27.0494 29.6562 27.1875V28.4375C29.6562 29.3349 28.9287 30.0625 28.0312 30.0625H29.9062C30.8037 30.0625 31.5312 29.3349 31.5312 28.4375V27.1875C31.5312 27.0494 31.4193 26.9375 31.2812 26.9375Z" fill="#88C3E0"/>
<path d="M28.1876 26.9368L3.813 26.9375C3.12269 26.9375 2.563 26.3779 2.563 25.6876L2.5625 9.43825C2.5625 8.74787 3.12213 8.18825 3.81244 8.18819L28.187 8.1875C28.8773 8.1875 29.437 8.74706 29.437 9.43744L29.4375 25.6868C29.4375 26.3771 28.8779 26.9368 28.1876 26.9368Z" fill="#4380A0"/>
<path d="M29.4375 25.6869C29.4375 26.3769 28.8781 26.9369 28.1875 26.9369H26.3125C27.0031 26.9369 27.5625 26.3769 27.5625 25.6869L27.5619 9.4375C27.5619 8.74813 27.0044 8.18937 26.315 8.1875H28.1869C28.8775 8.1875 29.4369 8.74687 29.4369 9.4375L29.4375 25.6869Z" fill="#3B7191"/>
<path d="M27.5625 25.0619H25.6875L4.43813 25.0625L4.4375 10.0631L25.6869 10.0625H27.5619L27.5625 25.0619Z" fill="#F3F3F3"/>
<path d="M25.6875 10.0625H27.5625V25.0619H25.6875V10.0625Z" fill="#E4E4E4"/>
<path d="M18.125 28.4375H13.875C13.4608 28.4375 13.125 28.1017 13.125 27.6875V26.9375H18.875V27.6875C18.875 28.1017 18.5392 28.4375 18.125 28.4375Z" fill="#88C3E0"/>
<path d="M22.6593 11.1499C22.6245 11.3966 22.5413 11.7501 22.4671 12.0373C22.3977 12.3055 22.1563 12.4931 21.8792 12.4931H21.0308C20.7537 12.4931 20.5122 12.3055 20.4429 12.0373C20.3687 11.7501 20.2855 11.3966 20.2507 11.1499C20.2248 10.966 20.1143 10.8051 19.9535 10.7124L19.1695 10.2609C19.0088 10.1683 18.8144 10.1533 18.6423 10.2226C18.4103 10.3163 18.0604 10.4215 17.7733 10.5011C17.5066 10.5751 17.2238 10.4601 17.0852 10.2206L16.6615 9.48863C16.5227 9.24888 16.5646 8.94594 16.7625 8.75219C16.975 8.54425 17.2406 8.29531 17.4376 8.14181C17.584 8.02775 17.6683 7.85181 17.6683 7.66625V6.76437C17.6683 6.57881 17.584 6.40287 17.4376 6.28881C17.2406 6.13531 16.975 5.88644 16.7625 5.67844C16.5646 5.48469 16.5227 5.18175 16.6615 4.942L17.0852 4.21C17.2238 3.9705 17.5067 3.85556 17.7733 3.9295C18.0604 4.00912 18.4103 4.11438 18.6423 4.208C18.8143 4.27738 19.0088 4.26231 19.1695 4.16975L19.9535 3.71825C20.1143 3.62556 20.2248 3.46463 20.2507 3.28075C20.2855 3.034 20.3687 2.68056 20.4429 2.39337C20.5123 2.12512 20.7537 1.9375 21.0308 1.9375H21.8792C22.1563 1.9375 22.3978 2.12512 22.4671 2.39337C22.5413 2.68056 22.6245 3.034 22.6593 3.28075C22.6852 3.46463 22.7957 3.62556 22.9565 3.71825L23.7405 4.16975C23.9012 4.26231 24.0956 4.27738 24.2677 4.208C24.4997 4.11438 24.8496 4.00912 25.1367 3.9295C25.4034 3.85556 25.6862 3.9705 25.8248 4.21L26.2485 4.942C26.3873 5.18175 26.3454 5.48469 26.1475 5.67844C25.935 5.88637 25.6694 6.13531 25.4724 6.28881C25.326 6.40287 25.2417 6.57881 25.2417 6.76437V7.66625C25.2417 7.85181 25.3261 8.02775 25.4724 8.14181C25.6694 8.29531 25.935 8.54419 26.1475 8.75219C26.3454 8.94594 26.3873 9.24888 26.2485 9.48863L25.8248 10.2206C25.6862 10.4601 25.4033 10.5751 25.1367 10.5011C24.8496 10.4215 24.4997 10.3163 24.2677 10.2226C24.0957 10.1533 23.9012 10.1683 23.7405 10.2609L22.9565 10.7124C22.7957 10.8051 22.6852 10.966 22.6593 11.1499ZM23.544 7.21537C23.544 6.0645 22.6087 5.13156 21.455 5.13156C20.3013 5.13156 19.366 6.0645 19.366 7.21537C19.366 8.36625 20.3012 9.29919 21.455 9.29919C22.6087 9.29919 23.544 8.36625 23.544 7.21537Z" fill="#F78E36"/>
<path d="M15.3077 19.2749C15.2729 19.5216 15.1898 19.8751 15.1155 20.1623C15.0462 20.4305 14.8047 20.6181 14.5277 20.6181H13.6792C13.4022 20.6181 13.1607 20.4305 13.0913 20.1623C13.0171 19.8751 12.934 19.5216 12.8992 19.2749C12.8732 19.091 12.7628 18.9301 12.6019 18.8374L11.818 18.3859C11.6572 18.2933 11.4628 18.2783 11.2908 18.3476C11.0587 18.4413 10.7088 18.5465 10.4217 18.6261C10.155 18.7001 9.87222 18.5851 9.73359 18.3456L9.3099 17.6136C9.17115 17.3739 9.21303 17.0709 9.41096 16.8772C9.6234 16.6693 9.88903 16.4203 10.086 16.2668C10.2324 16.1528 10.3168 15.9768 10.3168 15.7913V14.8894C10.3168 14.7038 10.2324 14.5279 10.086 14.4138C9.88903 14.2603 9.6234 14.0114 9.41096 13.8034C9.21303 13.6097 9.17115 13.3068 9.3099 13.067L9.73359 12.335C9.87222 12.0955 10.1551 11.9806 10.4217 12.0545C10.7088 12.1341 11.0587 12.2394 11.2908 12.333C11.4628 12.4024 11.6572 12.3873 11.818 12.2948L12.6019 11.8433C12.7628 11.7506 12.8733 11.5896 12.8992 11.4058C12.934 11.159 13.0171 10.8056 13.0913 10.5184C13.1607 10.2501 13.4022 10.0625 13.6792 10.0625H14.5277C14.8047 10.0625 15.0462 10.2501 15.1155 10.5184C15.1898 10.8056 15.2729 11.159 15.3077 11.4058C15.3337 11.5896 15.4441 11.7506 15.605 11.8433L16.3889 12.2948C16.5497 12.3873 16.744 12.4024 16.9161 12.333C17.1482 12.2394 17.498 12.1341 17.7852 12.0545C18.0518 11.9806 18.3347 12.0955 18.4733 12.335L18.897 13.067C19.0357 13.3068 18.9938 13.6097 18.7959 13.8034C18.5835 14.0114 18.3178 14.2603 18.1208 14.4138C17.9745 14.5279 17.8902 14.7038 17.8902 14.8894V15.7913C17.8902 15.9768 17.9745 16.1528 18.1208 16.2668C18.3178 16.4203 18.5835 16.6692 18.7959 16.8772C18.9938 17.0709 19.0357 17.3739 18.897 17.6136L18.4733 18.3456C18.3347 18.5851 18.0518 18.7001 17.7852 18.6261C17.498 18.5465 17.1482 18.4413 16.9161 18.3476C16.7441 18.2783 16.5497 18.2933 16.3889 18.3859L15.605 18.8374C15.4441 18.9301 15.3337 19.091 15.3077 19.2749ZM16.1924 15.3404C16.1924 14.1895 15.2572 13.2566 14.1034 13.2566C12.9497 13.2566 12.0144 14.1895 12.0144 15.3404C12.0144 16.4913 12.9497 17.4242 14.1034 17.4242C15.2572 17.4242 16.1924 16.4913 16.1924 15.3404Z" fill="#FFC328"/>
<path d="M31.2812 26.4692H29.7173C29.8378 26.2344 29.9062 25.9688 29.9062 25.6873L29.9058 12.9689C29.9058 12.7099 29.6959 12.5001 29.437 12.5001C29.1781 12.5001 28.9683 12.71 28.9683 12.9689L28.9688 25.6873C28.9688 26.1181 28.6183 26.4685 28.1875 26.4685L3.81312 26.4692C3.38231 26.4692 3.03187 26.1187 3.03187 25.6879L3.03125 9.43855C3.03125 9.00774 3.38169 8.6573 3.8125 8.6573L16.2506 8.65674C16.0894 8.94124 16.0653 9.28699 16.1919 9.59424L14.5304 9.5943C14.5295 9.5943 14.5286 9.59418 14.5276 9.59418H13.6792C13.6779 9.59418 13.6766 9.5943 13.6754 9.5943L4.4375 9.5948C4.17856 9.5948 3.96875 9.80468 3.96875 10.0636L3.96919 19.9631C3.96919 20.222 4.17906 20.4318 4.43794 20.4318C4.69688 20.4318 4.90669 20.2219 4.90669 19.9631L4.90625 10.5323L12.6043 10.5319C12.5404 10.7874 12.4688 11.0999 12.4349 11.3407C12.4293 11.3804 12.4042 11.4166 12.3678 11.4376L11.5839 11.8891C11.5474 11.9102 11.5034 11.9139 11.4659 11.8987C11.1997 11.7914 10.8192 11.6788 10.5468 11.6032C10.0746 11.4722 9.573 11.6768 9.32769 12.1007L8.90406 12.8327C8.658 13.2578 8.73156 13.7949 9.08288 14.1389C9.28419 14.3359 9.5715 14.6078 9.79775 14.784C9.82913 14.8084 9.84781 14.8479 9.84781 14.8897V15.7916C9.84781 15.8334 9.82906 15.8731 9.79775 15.8974C9.5715 16.0736 9.28413 16.3456 9.08288 16.5426C8.73156 16.8865 8.658 17.4237 8.90406 17.8487L9.32769 18.5807C9.573 19.0046 10.0743 19.2094 10.5469 19.0781C10.8192 19.0026 11.1997 18.89 11.4661 18.7826C11.5032 18.7676 11.5473 18.7712 11.5839 18.7923L12.3678 19.2438C12.4042 19.2648 12.4293 19.301 12.4349 19.3406C12.4749 19.6243 12.5671 20.0081 12.6374 20.2799C12.7603 20.7552 13.1886 21.0872 13.6791 21.0872H14.5276C15.0181 21.0872 15.4464 20.7552 15.5693 20.2799C15.6396 20.008 15.7318 19.6243 15.7718 19.3406C15.7774 19.301 15.8025 19.2648 15.8389 19.2438L16.6229 18.7923C16.6594 18.7712 16.7034 18.7675 16.7408 18.7827C17.007 18.89 17.3875 19.0026 17.6599 19.0782C18.1321 19.209 18.6337 19.0046 18.879 18.5807L19.3026 17.8487C19.5487 17.4236 19.4751 16.8865 19.1238 16.5426C18.9225 16.3456 18.6352 16.0736 18.4089 15.8975C18.3776 15.873 18.3588 15.8334 18.3588 15.7916V14.8897C18.3588 14.8479 18.3775 14.8084 18.4089 14.784C18.6351 14.6078 18.9225 14.3359 19.1238 14.1389C19.4751 13.7949 19.5486 13.2577 19.3026 12.8327L18.8789 12.1007C18.6336 11.6768 18.1324 11.4721 17.6597 11.6033C17.3874 11.6788 17.0069 11.7914 16.7406 11.8988C16.7034 11.9137 16.6593 11.9101 16.6227 11.8891L15.8387 11.4375C15.8024 11.4166 15.7773 11.3804 15.7718 11.3408C15.7378 11.0999 15.6662 10.7872 15.6023 10.5318L16.7267 10.5317C16.9855 10.9037 17.4543 11.0764 17.8976 10.9532C18.17 10.8777 18.5506 10.765 18.8167 10.6577C18.8539 10.6428 18.898 10.6464 18.9346 10.6674L19.7185 11.1189C19.7549 11.1399 19.78 11.1761 19.7856 11.2157C19.8256 11.4994 19.9177 11.8832 19.9881 12.155C20.1109 12.6303 20.5393 12.9623 21.0298 12.9623H21.8783C22.3687 12.9623 22.7971 12.6303 22.9199 12.1551C22.9903 11.8831 23.0826 11.4994 23.1225 11.2157C23.1281 11.1761 23.1532 11.1399 23.1896 11.1189L23.9735 10.6674C24.0101 10.6464 24.0541 10.6427 24.0915 10.6578C24.3577 10.7651 24.7382 10.8777 25.0106 10.9533C25.4537 11.0761 25.9226 10.9037 26.1814 10.5317H27.093L27.0936 24.5936L4.90688 24.5942L4.90675 21.9862C4.90675 21.7273 4.69688 21.5175 4.438 21.5175C4.17906 21.5175 3.96925 21.7274 3.96925 21.9862L3.96937 25.0629C3.96937 25.3219 4.17925 25.5317 4.43813 25.5317L27.5625 25.531C27.6868 25.531 27.8061 25.4817 27.894 25.3937C27.9819 25.3059 28.0312 25.1867 28.0312 25.0623L28.0306 10.0629C28.0306 9.80399 27.8207 9.59418 27.5619 9.59418H26.7163C26.8429 9.28693 26.8188 8.94118 26.6576 8.65668H28.1869C28.6177 8.65668 28.9681 9.00711 28.9681 9.43793L28.9682 10.9805C28.9682 11.2394 29.1781 11.4492 29.4369 11.4492C29.6959 11.4492 29.9057 11.2394 29.9057 10.9805L29.9056 9.43793C29.9056 8.49024 29.1346 7.71918 28.1869 7.71918H25.7206C25.7138 7.70274 25.7096 7.68505 25.7096 7.66661V6.76474C25.7096 6.72293 25.7283 6.68343 25.7598 6.65899C25.986 6.48268 26.2734 6.2108 26.4746 6.01386C26.8259 5.66993 26.8995 5.13274 26.6534 4.70768L26.2298 3.97568C25.9845 3.5518 25.4831 3.34699 25.0106 3.4783C24.738 3.55393 24.3573 3.66655 24.0914 3.7738C24.0543 3.78868 24.0102 3.78511 23.9736 3.76411L23.1896 3.31249C23.1532 3.29155 23.1282 3.25543 23.1226 3.2158C23.0826 2.93186 22.9904 2.54824 22.9201 2.27655C22.7972 1.80124 22.3689 1.46924 21.8784 1.46924H21.0299C20.5394 1.46924 20.1111 1.80124 19.9883 2.27649C19.9179 2.5483 19.8257 2.93186 19.7857 3.21574C19.7801 3.25543 19.7551 3.29155 19.7186 3.31255L18.9347 3.76405C18.8981 3.78524 18.854 3.7888 18.8169 3.7738C18.5513 3.66668 18.1704 3.55393 17.8976 3.47824C17.4254 3.3473 16.9238 3.5518 16.6785 3.97568L16.2549 4.70768C16.0088 5.1328 16.0824 5.66993 16.4337 6.01386C16.6348 6.21074 16.9221 6.48249 17.1486 6.65905C17.1799 6.68343 17.1986 6.72293 17.1986 6.76474V7.66661C17.1986 7.68499 17.1944 7.70274 17.1877 7.71918L3.8125 7.7198C2.86481 7.7198 2.09375 8.49086 2.09375 9.43855L2.09437 25.6879C2.09437 25.9692 2.16275 26.2346 2.283 26.4692H0.71875C0.322437 26.4692 0 26.7916 0 27.1879V28.4379C0 29.5924 0.93925 30.5317 2.09375 30.5317H23.9916C24.2505 30.5317 24.4603 30.3219 24.4603 30.0629C24.4603 29.804 24.2505 29.5942 23.9916 29.5942H2.09375C1.45619 29.5942 0.9375 29.0755 0.9375 28.4379V27.4067H12.6562V27.6879C12.6562 28.3599 13.203 28.9067 13.875 28.9067H18.125C18.797 28.9067 19.3438 28.3599 19.3438 27.6879V27.4067H31.0625V28.4379C31.0625 29.0755 30.5438 29.5942 29.9062 29.5942H26.0147C25.7558 29.5942 25.546 29.804 25.546 30.0629C25.546 30.3219 25.7558 30.5317 26.0147 30.5317H29.9062C31.0607 30.5317 32 29.5924 32 28.4379V27.1879C32 26.7916 31.6776 26.4692 31.2812 26.4692ZM14.6617 10.6362C14.7525 10.9874 14.8171 11.2841 14.8435 11.4717C14.8898 11.7999 15.0821 12.0836 15.371 12.2499L16.155 12.7015C16.4434 12.8675 16.7846 12.8918 17.0912 12.7682C17.2674 12.6972 17.5583 12.6043 17.9102 12.5066C17.9713 12.4896 18.036 12.5157 18.0676 12.5702L18.4912 13.3022C18.5225 13.3563 18.5129 13.4249 18.4679 13.4689C18.2078 13.7236 17.9822 13.928 17.8327 14.0444C17.5712 14.2481 17.4213 14.5562 17.4213 14.8897V15.7916C17.4213 16.1251 17.5712 16.4332 17.8327 16.6369C17.9823 16.7534 18.2078 16.9579 18.4679 17.2125C18.5129 17.2566 18.5225 17.3251 18.4912 17.3792L18.0676 18.1112C18.036 18.1656 17.9711 18.1915 17.9104 18.1749C17.5583 18.0772 17.2674 17.9842 17.0914 17.9133C16.7844 17.7895 16.4432 17.8139 16.1549 17.98L15.3709 18.4315C15.082 18.5979 14.8897 18.8816 14.8434 19.2097V19.2098C14.817 19.3973 14.7524 19.694 14.6616 20.0453C14.6457 20.1067 14.5906 20.1497 14.5275 20.1497H13.6791C13.616 20.1497 13.5609 20.1067 13.5449 20.0452C13.4541 19.694 13.3896 19.3973 13.3631 19.2097C13.3168 18.8816 13.1246 18.5979 12.8356 18.4315L12.0518 17.98C11.8849 17.8839 11.7004 17.8352 11.5151 17.8352C11.38 17.8352 11.2446 17.8611 11.1153 17.9132C10.9392 17.9842 10.6482 18.0771 10.2963 18.1748C10.2351 18.1919 10.1705 18.1656 10.139 18.1112L9.71537 17.3792C9.68406 17.3251 9.69363 17.2566 9.73869 17.2125C9.99875 16.9579 10.2244 16.7534 10.3739 16.6369C10.6354 16.4332 10.7852 16.1251 10.7852 15.7916V14.8897C10.7852 14.5562 10.6353 14.2481 10.3739 14.0445C10.2243 13.928 9.99875 13.7236 9.73869 13.4689C9.69363 13.4249 9.68406 13.3563 9.71537 13.3022L10.139 12.5702C10.1706 12.5158 10.2356 12.4898 10.2962 12.5066C10.6483 12.6042 10.9392 12.6972 11.1152 12.7681C11.4219 12.8918 11.7631 12.8676 12.0517 12.7014L12.8356 12.2499C13.1245 12.0836 13.3168 11.7999 13.3631 11.4716C13.3896 11.2841 13.4541 10.9874 13.545 10.6361C13.5607 10.5753 13.6149 10.5327 13.6771 10.5319L14.5289 10.5318C14.5915 10.5325 14.6459 10.5751 14.6617 10.6362ZM17.0896 5.34393C17.0445 5.29986 17.0349 5.2313 17.0662 5.17724L17.4899 4.44524C17.5214 4.3908 17.5863 4.3648 17.6471 4.38155C17.9998 4.47936 18.2906 4.5723 18.4661 4.64311C18.7728 4.76686 19.1141 4.74255 19.4026 4.57643L20.1864 4.12493C20.4754 3.95855 20.6677 3.67493 20.714 3.34661C20.7404 3.15899 20.805 2.8623 20.8959 2.51111C20.9118 2.44968 20.9669 2.40668 21.0299 2.40668H21.8784C21.9414 2.40668 21.9966 2.44968 22.0125 2.51118C22.1033 2.8623 22.1679 3.15899 22.1943 3.34668C22.2406 3.67493 22.4329 3.95855 22.7218 4.12486L23.5059 4.57649C23.7943 4.74255 24.1356 4.76693 24.4422 4.64311C24.6179 4.57224 24.9088 4.47943 25.2611 4.38161C25.3221 4.36455 25.3869 4.39074 25.4184 4.44524L25.8421 5.17724C25.8734 5.2313 25.8638 5.29986 25.8188 5.34393C25.5588 5.59849 25.3331 5.80299 25.1838 5.91936C24.9222 6.12305 24.7722 6.43111 24.7722 6.76474V7.66661C24.7722 8.00018 24.9221 8.3083 25.1836 8.51193C25.3332 8.62843 25.5588 8.83293 25.8188 9.08749C25.8638 9.13155 25.8734 9.20011 25.8421 9.25418L25.4184 9.98618C25.3869 10.0406 25.322 10.0666 25.2612 10.0499C24.9091 9.95218 24.6182 9.85924 24.4422 9.7883C24.1356 9.66461 23.7942 9.6888 23.5058 9.85499L22.7218 10.3065C22.4329 10.4729 22.2406 10.7566 22.1943 11.0847V11.0848C22.1679 11.2723 22.1033 11.569 22.0124 11.9203C21.9966 11.9817 21.9414 12.0247 21.8784 12.0247H21.0299C20.9669 12.0247 20.9118 11.9817 20.8958 11.9202C20.805 11.569 20.7404 11.2723 20.714 11.0847C20.6677 10.7566 20.4754 10.4729 20.1865 10.3065L19.4026 9.85499C19.2357 9.75886 19.0513 9.71024 18.8659 9.71024C18.7309 9.71024 18.5954 9.73611 18.4662 9.78824C18.2903 9.85918 17.9994 9.95205 17.6472 10.0498C17.5861 10.0669 17.5214 10.0407 17.4899 9.98618L17.4069 9.84274C17.4043 9.8378 17.4013 9.83311 17.3986 9.82836L17.0662 9.25418C17.0349 9.20011 17.0445 9.13155 17.0896 9.08749C17.3494 8.83305 17.5751 8.62861 17.7248 8.51186C17.9862 8.30818 18.1361 8.00011 18.1361 7.66661V6.76474C18.1361 6.43118 17.9862 6.12305 17.7248 5.91949C17.575 5.8028 17.3494 5.59836 17.0896 5.34393ZM18.4062 27.6879C18.4062 27.843 18.2801 27.9692 18.125 27.9692H13.875C13.7199 27.9692 13.5938 27.843 13.5938 27.6879V27.4067H18.4062V27.6879Z" fill="black"/>
<path d="M21.4542 9.76827C22.8645 9.76827 24.012 8.62321 24.012 7.21565C24.012 5.80815 22.8646 4.66309 21.4542 4.66309C20.0439 4.66309 18.8965 5.80815 18.8965 7.21565C18.8965 8.62321 20.0439 9.76827 21.4542 9.76827ZM20.7238 8.65665H22.1847C21.965 8.76771 21.7169 8.83077 21.4542 8.83077C21.1915 8.83077 20.9434 8.76771 20.7238 8.65665ZM21.4542 5.60065C22.3477 5.60065 23.0745 6.32515 23.0745 7.21571C23.0745 7.39152 23.0458 7.56065 22.9934 7.71921H19.915C19.8627 7.56065 19.834 7.39152 19.834 7.21571C19.834 6.32509 20.5608 5.60065 21.4542 5.60065Z" fill="black"/>
<path d="M11.5449 15.3406C11.5449 16.7482 12.6923 17.8933 14.1027 17.8933C15.513 17.8933 16.6604 16.7482 16.6604 15.3406C16.6604 13.9331 15.513 12.7881 14.1027 12.7881C12.6923 12.7881 11.5449 13.9332 11.5449 15.3406ZM15.7229 15.3406C15.7229 16.2312 14.9961 16.9558 14.1027 16.9558C13.2092 16.9558 12.4824 16.2312 12.4824 15.3406C12.4824 14.4501 13.2092 13.7256 14.1027 13.7256C14.9961 13.7256 15.7229 14.4501 15.7229 15.3406Z" fill="black"/>
</g>
<defs>
<clipPath id="clip0">
<rect width="32" height="32" fill="white"/>
</clipPath>
</defs>
</svg>
