<svg width="32" height="32" viewBox="0 0 32 32" fill="none" xmlns="http://www.w3.org/2000/svg">
<path d="M7.85415 15.1343L5.58915 8.6093C5.49334 8.22715 5.25672 7.8953 4.92665 7.6802C4.59658 7.4651 4.19744 7.38263 3.80915 7.4493C3.61003 7.49175 3.42161 7.57419 3.25531 7.69164C3.08901 7.80909 2.9483 7.95909 2.8417 8.13254C2.7351 8.306 2.66484 8.49929 2.63518 8.70071C2.60552 8.90213 2.61708 9.10748 2.66915 9.3043L4.99915 16.4993L7.85415 15.1343Z" fill="#FFAC96"/>
<path d="M24.1445 15.1343L26.4095 8.6093C26.5053 8.22715 26.742 7.8953 27.072 7.6802C27.4021 7.4651 27.8012 7.38263 28.1895 7.4493C28.3886 7.49175 28.5771 7.57419 28.7434 7.69164C28.9097 7.80909 29.0504 7.95909 29.157 8.13254C29.2636 8.306 29.3338 8.49929 29.3635 8.70071C29.3932 8.90213 29.3816 9.10748 29.3295 9.3043L26.9995 16.4993L24.1445 15.1343Z" fill="#FFAC96"/>
<path d="M12.5221 17.8403L8.10215 15.2493C7.79629 15.0726 7.43783 15.0098 7.09013 15.072C6.74243 15.1341 6.4279 15.3172 6.20215 15.5888L4.58915 10.6093C4.49334 10.2272 4.25672 9.8953 3.92665 9.6802C3.59658 9.4651 3.19744 9.38263 2.80915 9.4493C2.61003 9.49175 2.42161 9.57419 2.25531 9.69164C2.08901 9.80909 1.9483 9.95909 1.8417 10.1325C1.7351 10.306 1.66484 10.4993 1.63518 10.7007C1.60552 10.9021 1.61708 11.1075 1.66915 11.3043L3.84415 19.4193C3.94392 19.7988 4.15455 20.14 4.44915 20.3993L7.82915 23.4043C8.04003 23.5921 8.20877 23.8224 8.32425 24.08C8.43973 24.3377 8.49933 24.6169 8.49915 24.8993V26.4993H14.4991V21.2913C14.4992 20.5936 14.3168 19.9081 13.97 19.3027C13.6231 18.6973 13.124 18.1931 12.5221 17.8403Z" fill="#FFBCAB"/>
<path d="M29.19 9.4493C28.8017 9.38263 28.4026 9.4651 28.0725 9.6802C27.7424 9.8953 27.5058 10.2272 27.41 10.6093L25.795 15.5888C25.5692 15.3172 25.2547 15.1341 24.907 15.072C24.5593 15.0098 24.2009 15.0726 23.895 15.2493L19.475 17.8403C18.8735 18.1934 18.3748 18.6977 18.0283 19.303C17.6819 19.9084 17.4997 20.5938 17.5 21.2913V26.4993H23.5V24.8993C23.4998 24.6169 23.5594 24.3377 23.6749 24.08C23.7904 23.8224 23.9591 23.5921 24.17 23.4043L27.55 20.3993C27.8446 20.14 28.0552 19.7988 28.155 19.4193L30.33 11.3043C30.3821 11.1075 30.3936 10.9021 30.364 10.7007C30.3343 10.4993 30.264 10.306 30.1575 10.1325C30.0509 9.95909 29.9101 9.80909 29.7438 9.69164C29.5775 9.57419 29.3891 9.49175 29.19 9.4493Z" fill="#FFBCAB"/>
<path d="M17 26.5V30.5H24V26.5H23.5H17.5H17Z" fill="#006DF0"/>
<path d="M15 26.5H14.5H8.5H8V30.5H15V26.5Z" fill="#006DF0"/>
<path d="M22.7182 9.27896L22.3632 9.63396L15.9982 15.999L9.63322 9.63396L9.27822 9.27896C8.8458 8.86436 8.50052 8.36759 8.26262 7.81779C8.02473 7.26799 7.899 6.67623 7.89282 6.0772C7.88664 5.47817 8.00012 4.88393 8.22662 4.32934C8.45313 3.77475 8.78808 3.27097 9.21185 2.84753C9.63562 2.4241 10.1397 2.08954 10.6944 1.86347C11.2492 1.63741 11.8435 1.52439 12.4426 1.53104C13.0416 1.53769 13.6332 1.66388 14.1829 1.90221C14.7325 2.14054 15.229 2.48622 15.6432 2.91896L15.9982 3.27396L16.3532 2.91896C16.7675 2.48622 17.264 2.14054 17.8136 1.90221C18.3632 1.66388 18.9549 1.53769 19.5539 1.53104C20.1529 1.52439 20.7472 1.63741 21.302 1.86347C21.8568 2.08954 22.3608 2.4241 22.7846 2.84753C23.2084 3.27097 23.5433 3.77475 23.7698 4.32934C23.9963 4.88393 24.1098 5.47817 24.1036 6.0772C24.0974 6.67623 23.9717 7.26799 23.7338 7.81779C23.4959 8.36759 23.1506 8.86436 22.7182 9.27896Z" fill="#D80027"/>
<path d="M22.72 2.9192C22.2443 2.43844 21.6653 2.07243 21.0269 1.84899C20.3886 1.62555 19.7077 1.55055 19.036 1.6297C19.8781 1.72302 20.6767 2.05234 21.3398 2.57972C22.0029 3.10709 22.5036 3.81106 22.7841 4.61054C23.0645 5.41001 23.1135 6.27246 22.9252 7.09853C22.737 7.92461 22.3192 8.6807 21.72 9.2797L21.365 9.6347L15.5 15.4992L16 15.9992L22.365 9.6342L22.72 9.2792C23.5627 8.43545 24.036 7.2917 24.036 6.0992C24.036 4.90669 23.5627 3.76295 22.72 2.9192Z" fill="#BD0022"/>
<path d="M17 11V9H19V7H17V5H15V7H13V9H15V11H17Z" fill="#F1F2F2"/>
<path d="M25.3962 16.8489L22.0542 18.6989C21.9586 18.7542 21.8878 18.8439 21.8561 18.9496C21.8245 19.0554 21.8343 19.1692 21.8837 19.2679C21.91 19.3207 21.947 19.3676 21.9921 19.4056C22.0373 19.4436 22.0898 19.4719 22.1463 19.4889C22.2028 19.5058 22.2622 19.511 22.3208 19.5042C22.3795 19.4973 22.4361 19.4785 22.4872 19.4489L25.3962 17.8489C25.6999 17.6729 25.9322 17.3959 26.0527 17.0661C26.1732 16.7364 26.1743 16.3748 26.0557 16.0444C25.94 16.3833 25.7058 16.669 25.3962 16.8489Z" fill="#FFAC96"/>
<path d="M6.60122 16.8489L9.94322 18.6989C10.0387 18.7542 10.1096 18.8439 10.1412 18.9496C10.1729 19.0554 10.1631 19.1692 10.1137 19.2679C10.0873 19.3207 10.0504 19.3676 10.0053 19.4056C9.96009 19.4436 9.90762 19.4719 9.85109 19.4889C9.79455 19.5058 9.73515 19.511 9.67653 19.5042C9.6179 19.4973 9.56131 19.4785 9.51022 19.4489L6.60122 17.8489C6.29751 17.6729 6.06517 17.3959 5.94466 17.0661C5.82415 16.7364 5.82311 16.3748 5.94172 16.0444C6.0574 16.3833 6.29161 16.669 6.60122 16.8489Z" fill="#FFAC96"/>
<path d="M19 6.5H17.5V5C17.5 4.86739 17.4473 4.74021 17.3536 4.64645C17.2598 4.55268 17.1326 4.5 17 4.5H15C14.8674 4.5 14.7402 4.55268 14.6464 4.64645C14.5527 4.74021 14.5 4.86739 14.5 5V6.5H13C12.8674 6.5 12.7402 6.55268 12.6464 6.64645C12.5527 6.74021 12.5 6.86739 12.5 7V9C12.5 9.13261 12.5527 9.25979 12.6464 9.35355C12.7402 9.44732 12.8674 9.5 13 9.5H14.5V11C14.5 11.1326 14.5527 11.2598 14.6464 11.3536C14.7402 11.4473 14.8674 11.5 15 11.5H17C17.1326 11.5 17.2598 11.4473 17.3536 11.3536C17.4473 11.2598 17.5 11.1326 17.5 11V9.5H19C19.1326 9.5 19.2598 9.44732 19.3536 9.35355C19.4473 9.25979 19.5 9.13261 19.5 9V7C19.5 6.86739 19.4473 6.74021 19.3536 6.64645C19.2598 6.55268 19.1326 6.5 19 6.5ZM18.5 8.5H17C16.8674 8.5 16.7402 8.55268 16.6464 8.64645C16.5527 8.74021 16.5 8.86739 16.5 9V10.5H15.5V9C15.5 8.86739 15.4473 8.74021 15.3536 8.64645C15.2598 8.55268 15.1326 8.5 15 8.5H13.5V7.5H15C15.1326 7.5 15.2598 7.44732 15.3536 7.35355C15.4473 7.25978 15.5 7.13261 15.5 7V5.5H16.5V7C16.5 7.13261 16.5527 7.25978 16.6464 7.35355C16.7402 7.44732 16.8674 7.5 17 7.5H18.5V8.5Z" fill="#231F20"/>
<path d="M29.865 9.17925C29.8751 9.09128 29.8801 9.0028 29.88 8.91425C29.8776 8.45594 29.7186 8.01221 29.4294 7.65664C29.1402 7.30107 28.7382 7.05501 28.29 6.95925C27.783 6.86275 27.2583 6.96242 26.822 7.23811C26.3857 7.51381 26.0705 7.94493 25.94 8.44425L23.74 14.7742C23.7074 14.7872 23.6757 14.8022 23.645 14.8192L19.225 17.4092C18.5486 17.8065 17.9876 18.3734 17.5974 19.0539C17.2072 19.7343 17.0013 20.5048 17 21.2893V25.9992C16.8674 25.9992 16.7402 26.0519 16.6464 26.1457C16.5527 26.2395 16.5 26.3666 16.5 26.4992V30.4992C16.5 30.6319 16.5527 30.759 16.6464 30.8528C16.7402 30.9466 16.8674 30.9992 17 30.9992H24C24.1326 30.9992 24.2598 30.9466 24.3536 30.8528C24.4473 30.759 24.5 30.6319 24.5 30.4992V26.4992C24.5 26.3666 24.4473 26.2395 24.3536 26.1457C24.2598 26.0519 24.1326 25.9992 24 25.9992V24.8992C24.0009 24.6881 24.0459 24.4794 24.132 24.2866C24.2181 24.0937 24.3434 23.9209 24.5 23.7792L27.88 20.7742C28.2497 20.4508 28.5144 20.0242 28.64 19.5492L30.81 11.4342C30.8563 11.2648 30.8799 11.0899 30.88 10.9142C30.878 10.5614 30.7832 10.2153 30.605 9.91072C30.4269 9.60615 30.1716 9.35387 29.865 9.17925ZM26.895 8.73925C26.9564 8.48067 27.113 8.25473 27.3335 8.10646C27.5541 7.95819 27.8224 7.89848 28.085 7.93925C28.3091 7.98619 28.5103 8.10861 28.655 8.28607C28.7997 8.46353 28.8791 8.68528 28.88 8.91425V8.92425C28.4334 8.93254 28.0017 9.08648 27.6506 9.36266C27.2995 9.63884 27.0482 10.0221 26.935 10.4542L25.54 14.7592C25.3288 14.6591 25.1024 14.5949 24.87 14.5692L26.895 8.73925ZM23.5 29.9992H17.5V26.9992H23.5V29.9992ZM29.845 11.1742L27.67 19.2942C27.5948 19.5764 27.4383 19.8303 27.22 20.0242L23.835 23.0292C23.5731 23.2655 23.3635 23.5539 23.2197 23.8759C23.0759 24.198 23.001 24.5465 23 24.8992V25.9992H18V21.2893C18.0025 20.6792 18.1632 20.0803 18.4664 19.5509C18.7696 19.0216 19.205 18.58 19.73 18.2692L24.145 15.6842C24.2588 15.6179 24.3847 15.5747 24.5152 15.5572C24.6458 15.5397 24.7786 15.5481 24.9059 15.582C25.0332 15.6159 25.1525 15.6747 25.2571 15.7548C25.3616 15.835 25.4493 15.9351 25.515 16.0492C25.6449 16.2803 25.6807 16.5525 25.615 16.8092C25.5803 16.936 25.5209 17.0547 25.4402 17.1585C25.3596 17.2624 25.2593 17.3492 25.145 17.4143L22.28 19.0692C22.1712 19.1384 22.0933 19.247 22.0626 19.3723C22.0319 19.4975 22.0508 19.6298 22.1154 19.7414C22.1799 19.8531 22.2851 19.9355 22.4089 19.9714C22.5328 20.0073 22.6657 19.994 22.78 19.9342L25.645 18.2793C25.874 18.1493 26.0747 17.9749 26.2353 17.7662C26.3958 17.5576 26.5131 17.3189 26.58 17.0642C26.7161 16.5527 26.6442 16.008 26.38 15.5492L26.35 15.5042L27.895 10.7392C27.9564 10.4807 28.113 10.2547 28.3335 10.1065C28.5541 9.95819 28.8224 9.89848 29.085 9.93925C29.3091 9.98619 29.5103 10.1086 29.655 10.2861C29.7997 10.4635 29.8791 10.6853 29.88 10.9142C29.8817 11.0022 29.8699 11.0899 29.845 11.1742Z" fill="#231F20"/>
<path d="M14.9991 25.9995V21.2895C14.9978 20.5051 14.7919 19.7346 14.4017 19.0541C14.0115 18.3737 13.4505 17.8068 12.7741 17.4095L8.35414 14.8145C8.32414 14.7995 8.28914 14.7895 8.25914 14.7745L6.07414 8.47948C5.94715 7.97288 5.63189 7.5337 5.19253 7.25132C4.75317 6.96894 4.22273 6.86458 3.70914 6.95948C3.26094 7.05525 2.85892 7.30131 2.56973 7.65688C2.28055 8.01245 2.12157 8.45617 2.11914 8.91448C2.11901 9.00303 2.12402 9.09152 2.13414 9.17948C1.82752 9.35411 1.57229 9.60639 1.39412 9.91095C1.21594 10.2155 1.1211 10.5616 1.11914 10.9145C1.12011 11.0898 1.14193 11.2643 1.18414 11.4345L3.35914 19.5445C3.48343 20.0214 3.74822 20.45 4.11914 20.7745L7.49414 23.7795C7.65231 23.9202 7.77903 24.0927 7.86605 24.2856C7.95306 24.4786 7.99841 24.6878 7.99914 24.8995V25.9995C7.86653 25.9995 7.73936 26.0522 7.64559 26.1459C7.55182 26.2397 7.49914 26.3669 7.49914 26.4995V30.4995C7.49914 30.6321 7.55182 30.7593 7.64559 30.853C7.73936 30.9468 7.86653 30.9995 7.99914 30.9995H14.9991C15.1318 30.9995 15.2589 30.9468 15.3527 30.853C15.4465 30.7593 15.4991 30.6321 15.4991 30.4995V26.4995C15.4991 26.3669 15.4465 26.2397 15.3527 26.1459C15.2589 26.0522 15.1318 25.9995 14.9991 25.9995ZM3.11914 8.91448C3.11976 8.68621 3.19846 8.46501 3.34217 8.28764C3.48588 8.11028 3.68595 7.98742 3.90914 7.93948C4.17897 7.90032 4.45363 7.96461 4.67804 8.11947C4.90245 8.27434 5.06002 8.50831 5.11914 8.77448L7.12914 14.5695C6.89679 14.5951 6.67034 14.6593 6.45914 14.7595L5.07414 10.4795C4.96143 10.0431 4.70966 9.6553 4.35693 9.37474C4.0042 9.09418 3.56969 8.93612 3.11914 8.92448V8.91448ZM8.15914 23.0295L4.77914 20.0245C4.55967 19.8295 4.40305 19.5736 4.32914 19.2895L2.14914 11.1745C2.12844 11.0894 2.11837 11.0021 2.11914 10.9145C2.11976 10.6862 2.19846 10.465 2.34217 10.2876C2.48588 10.1103 2.68595 9.98742 2.90914 9.93948C3.17707 9.89927 3.45029 9.962 3.67385 10.1151C3.89741 10.2681 4.05472 10.5001 4.11414 10.7645L5.64914 15.5045L5.61914 15.5495C5.35494 16.0082 5.28304 16.5529 5.41914 17.0645C5.48609 17.3191 5.60329 17.5578 5.76387 17.7665C5.92444 17.9751 6.12514 18.1496 6.35414 18.2795L9.21914 19.9345C9.33341 19.9943 9.46636 20.0076 9.59021 19.9716C9.71407 19.9357 9.81925 19.8533 9.88379 19.7417C9.94833 19.63 9.96723 19.4977 9.93655 19.3725C9.90587 19.2472 9.82797 19.1387 9.71914 19.0695L6.85414 17.4145C6.73988 17.3495 6.63955 17.2626 6.55891 17.1588C6.47826 17.055 6.41887 16.9363 6.38414 16.8095C6.31845 16.5527 6.35427 16.2805 6.48414 16.0495C6.54947 15.9356 6.6366 15.8356 6.74056 15.7554C6.84451 15.6751 6.96326 15.6161 7.09001 15.5818C7.21676 15.5474 7.34904 15.5384 7.47929 15.5551C7.60955 15.5719 7.73522 15.6141 7.84914 15.6795L12.2691 18.2695C12.7941 18.5802 13.2295 19.0218 13.5327 19.5512C13.836 20.0805 13.9967 20.6795 13.9991 21.2895V25.9995H8.99914V24.8995C8.99829 24.5463 8.92305 24.1972 8.77832 23.875C8.63359 23.5528 8.42262 23.2647 8.15914 23.0295ZM14.4991 29.9995H8.49914V26.9995H14.4991V29.9995Z" fill="#231F20"/>
<path d="M23.0727 2.56531C22.6086 2.10033 22.0573 1.73145 21.4504 1.47978C20.8435 1.2281 20.1929 1.09859 19.5359 1.09863C18.8789 1.09868 18.2283 1.22829 17.6215 1.48005C17.0146 1.7318 16.4633 2.10076 15.9992 2.56581C15.5352 2.10075 14.984 1.73179 14.3771 1.48004C13.7703 1.2283 13.1197 1.09872 12.4627 1.09872C11.8058 1.09872 11.1552 1.2283 10.5484 1.48004C9.94154 1.73179 9.39031 2.10075 8.92624 2.56581C7.99042 3.50365 7.46484 4.77443 7.46484 6.09931C7.46484 7.4242 7.99042 8.69497 8.92624 9.63281L15.6462 16.3528C15.74 16.4465 15.8672 16.4992 15.9997 16.4992C16.1323 16.4992 16.2595 16.4465 16.3532 16.3528L23.0732 9.63281C24.009 8.69482 24.5345 7.42392 24.5344 6.09896C24.5343 4.77399 24.0087 3.50317 23.0727 2.56531ZM15.9992 15.2923L9.63274 8.92581C9.07381 8.36612 8.69336 7.65327 8.5395 6.87739C8.38564 6.10151 8.46527 5.29742 8.76832 4.56679C9.07137 3.83616 9.58424 3.21177 10.2421 2.77258C10.9 2.33338 11.6733 2.09908 12.4642 2.09931C12.9897 2.09751 13.5102 2.20034 13.9955 2.40182C14.4808 2.6033 14.9211 2.89938 15.2907 3.27281L15.6457 3.62781C15.7395 3.72155 15.8667 3.7742 15.9992 3.7742C16.1318 3.7742 16.259 3.72155 16.3527 3.62781L16.7087 3.27181C17.0799 2.89994 17.5208 2.60491 18.0062 2.40362C18.4915 2.20232 19.0118 2.09871 19.5372 2.09871C20.0627 2.09871 20.583 2.20232 21.0683 2.40362C21.5537 2.60491 21.9945 2.89994 22.3657 3.27181C23.1147 4.0218 23.5354 5.03839 23.5354 6.09831C23.5354 7.15823 23.1147 8.17482 22.3657 8.92481L15.9992 15.2923Z" fill="#231F20"/>
</svg>
