<svg width="32" height="32" viewBox="0 0 32 32" fill="none" xmlns="http://www.w3.org/2000/svg">
<g clip-path="url(#clip0)">
<path d="M6.61935 24.3056L4.57917 22.1343C3.92417 21.4372 3.55955 20.5166 3.55955 19.5601V11.8717C3.55955 11.1838 3.08168 10.5883 2.41018 10.4392C1.49393 10.2359 0.625 10.9331 0.625 11.8717V21.5624C0.625 22.6952 0.977249 23.8 1.63306 24.7238L2.74762 26.2938L5.41411 30.05L6.35498 31.3754H13.4636L12.4396 26.4949C11.978 24.2945 10.6756 22.3613 8.80991 21.1068L6.6236 19.6367C5.97217 19.1987 5.09717 19.3104 4.57667 19.898C3.9978 20.5514 4.01311 21.5383 4.61223 22.1733C5.80942 23.4419 7.59066 25.3386 7.59066 25.3386" fill="#FFCDAC"/>
<path d="M25.3814 24.3051L27.4216 22.1338C28.0766 21.4367 28.4412 20.5162 28.4412 19.5596V11.8712C28.4412 11.1833 28.9191 10.5878 29.5906 10.4388C30.5068 10.2354 31.3757 10.9326 31.3757 11.8712V21.5619C31.3757 22.6947 31.0235 23.7995 30.3677 24.7233L29.2531 26.2933L26.5866 30.0495L25.6458 31.3749H18.5371L19.5611 26.4944C20.0228 24.294 21.3251 22.3608 23.1908 21.1063L25.3771 19.6362C26.0286 19.1982 26.9036 19.3099 27.4241 19.8975C28.0029 20.5509 27.9876 21.5378 27.3885 22.1728C26.1913 23.4414 24.4101 25.3381 24.4101 25.3381" fill="#FFCDAC"/>
<path d="M17.5078 13.2302C17.8062 12.9204 18.1921 12.6916 18.6337 12.5858L20.2296 12.2033L20.2303 12.2044L20.2296 12.2033V11.229H22.1784V12.2064L23.7702 12.5867C24.811 12.8353 25.5453 13.7657 25.5453 14.8358V16.0031H22.017L17.5078 13.2302Z" fill="#7D9BFF"/>
<path d="M14.4984 13.2268C14.2001 12.917 13.8141 12.6881 13.3726 12.5823L11.7767 12.1999L11.776 12.201L11.7767 12.1999V11.2256H9.82781V12.203L8.23606 12.5833C7.19525 12.8319 6.46094 13.7623 6.46094 14.8324V15.9996H9.98925L14.4984 13.2268Z" fill="#7D9BFF"/>
<path d="M14.6443 13.1919L12.4214 13.7246C10.9727 14.0718 9.95117 15.3671 9.95117 16.8568V19.1042H22.0483V16.8586C22.0483 15.3681 21.0255 14.0723 19.5758 13.726L17.3587 13.1963" fill="#78D2FA"/>
<path d="M17.3589 11.834V13.1954L16.0024 16.2804L14.6445 13.191V11.834" fill="#FFB487"/>
<path d="M19.0337 7.15918V9.03887C19.0337 10.7099 17.679 12.0645 16.008 12.0645C14.337 12.0645 12.9824 10.7099 12.9824 9.03887V7.15918" fill="#FFCDAC"/>
<path d="M16.008 4C14.337 4 12.9824 5.35463 12.9824 7.02563V7.754H14.4617C15.4451 7.754 16.378 7.31863 17.0096 6.56488L19.0337 7.754V7.02563C19.0337 5.35463 17.6791 4 16.008 4Z" fill="#BEBEBE"/>
<path d="M12.9773 8.29577V7.77284C12.9773 6.57315 12.0047 5.60059 10.8051 5.60059C9.60537 5.60059 8.63281 6.57315 8.63281 7.77284V8.29577H10.1302C11.0679 8.29577 11.988 8.04121 12.7923 7.55921" fill="#F5B955"/>
<path d="M12.9773 7.86816V9.21766C12.9773 10.4174 12.0047 11.3899 10.8051 11.3899C9.60537 11.3899 8.63281 10.4174 8.63281 9.21766V7.86816" fill="#FFCDAC"/>
<path d="M19.0312 8.2987V7.77577C19.0312 6.57608 20.0038 5.60352 21.2035 5.60352C22.4032 5.60352 23.3757 6.57608 23.3757 7.77577V8.2987H21.8784C20.9407 8.2987 20.0206 8.04414 19.2162 7.56214" fill="#F5B955"/>
<path d="M19.0312 7.87256V9.22206C19.0312 10.4217 20.0038 11.3943 21.2035 11.3943C22.4032 11.3943 23.3757 10.4217 23.3757 9.22206V7.87256" fill="#FFCDAC"/>
<path d="M5.92375 29.6876C5.724 29.4061 5.33382 29.3399 5.05232 29.5397C4.77088 29.7395 4.70463 30.1297 4.90451 30.4112L5.84544 31.7366C5.96732 31.9083 6.15994 31.9999 6.35563 31.9999C6.48076 31.9999 6.60707 31.9624 6.71688 31.8844C6.99832 31.6846 7.06457 31.2945 6.86469 31.013L5.92375 29.6876Z" fill="black"/>
<path d="M13.0513 26.3657C12.5533 23.9925 11.1708 21.9403 9.15859 20.5873L6.97228 19.1172C6.0956 18.5278 4.91723 18.6545 4.18448 19.4017V11.8708C4.18448 10.8823 3.51055 10.0424 2.54555 9.8282C1.92274 9.68983 1.28037 9.8397 0.782809 10.2389C0.285311 10.6381 0 11.2329 0 11.8708V21.5615C0 22.831 0.388499 24.0493 1.12343 25.0846L2.23799 26.6547C2.35987 26.8264 2.55249 26.9179 2.74818 26.9179C2.8733 26.9179 2.99961 26.8804 3.10943 26.8025C3.39086 26.6027 3.45711 26.2126 3.25724 25.9311L2.14268 24.361C1.55868 23.5383 1.25 22.5703 1.25 21.5614V11.8708C1.25 11.614 1.36487 11.3746 1.56512 11.2138C1.76531 11.0531 2.02387 10.9928 2.27474 11.0485C2.66318 11.1347 2.93449 11.4728 2.93449 11.8708V19.5592C2.93449 20.6476 3.33436 21.6845 4.0608 22.4913C4.09192 22.5286 4.12392 22.5655 4.15773 22.6013C4.57279 23.0412 5.06079 23.5594 5.52042 24.0479L6.16385 24.7327C6.16591 24.7349 6.16816 24.7368 6.17029 24.7389C6.72072 25.3243 7.12666 25.7566 7.13516 25.7656C7.37135 26.0172 7.76697 26.0297 8.01859 25.7934C8.27022 25.5571 8.28265 25.1616 8.04628 24.91C8.03491 24.8978 7.30328 24.1188 6.46779 23.2307L5.03473 21.7055C5.03111 21.7017 5.02779 21.6976 5.02417 21.6937C4.68817 21.2918 4.69236 20.7092 5.04454 20.3115C5.3561 19.9599 5.8851 19.8924 6.27491 20.1545L8.46109 21.6246C10.2016 22.7949 11.3973 24.5698 11.8279 26.6224L12.8519 31.5029C12.9138 31.7975 13.1736 31.9997 13.463 31.9997C13.5055 31.9997 13.5487 31.9953 13.5919 31.9862C13.9298 31.9154 14.1461 31.584 14.0753 31.2462L13.0513 26.3657Z" fill="black"/>
<path d="M4.626 27.8597C4.42537 27.5787 4.03512 27.5134 3.75418 27.7139C3.47325 27.9144 3.408 28.3048 3.60843 28.5857L3.61243 28.5913C3.73443 28.7623 3.92662 28.8534 4.12175 28.8534C4.24737 28.8534 4.37418 28.8156 4.48425 28.7371C4.76518 28.5366 4.83043 28.1463 4.63 27.8653L4.626 27.8597Z" fill="black"/>
<path d="M31.218 10.2393C30.7205 9.84009 30.0778 9.69046 29.4553 9.82859C28.4903 10.0427 27.8163 10.8826 27.8163 11.8711V19.4021C27.0836 18.6549 25.9051 18.5282 25.0285 19.1176L22.8422 20.5876C20.8299 21.9406 19.4475 23.9928 18.9495 26.366L17.9256 31.2466C17.8547 31.5844 18.0711 31.9157 18.4089 31.9866C18.4521 31.9956 18.4954 32 18.5378 32C18.8273 32 19.087 31.7978 19.1489 31.5032L20.1729 26.6227C20.6035 24.5701 21.7992 22.7952 23.5397 21.6249L25.726 20.1549C26.1156 19.8927 26.6446 19.9602 26.9563 20.3119C27.3081 20.709 27.3128 21.2907 26.978 21.6926C26.974 21.697 26.9702 21.7015 26.9662 21.7059C26.9662 21.7059 23.9659 24.8983 23.9546 24.9103C23.7183 25.1619 23.7307 25.5574 23.9823 25.7937C24.2339 26.03 24.6294 26.0176 24.8657 25.766C24.8742 25.757 27.4281 23.0415 27.8431 22.6017C27.877 22.5659 27.909 22.529 27.9401 22.4917C28.6665 21.6849 29.0664 20.648 29.0664 19.5596V11.8711C29.0664 11.4731 29.3377 11.135 29.7262 11.0488C29.977 10.9932 30.2355 11.0535 30.4358 11.2141C30.6361 11.3748 30.7509 11.6143 30.7509 11.8711V21.5618C30.7509 22.5707 30.4423 23.5387 29.8583 24.3614L25.1363 31.0131C24.9365 31.2945 25.0027 31.6847 25.2841 31.8845C25.394 31.9624 25.5203 31.9999 25.6454 31.9999C25.841 31.9999 26.0337 31.9083 26.1556 31.7367L30.8775 25.085C31.6124 24.0497 32.0009 22.8314 32.0009 21.5619V11.8711C32.0008 11.2332 31.7155 10.6385 31.218 10.2393Z" fill="black"/>
<path d="M22.0476 19.7291C22.3927 19.7291 22.6726 19.4493 22.6726 19.1041V16.8586C22.6726 16.7811 22.6694 16.7044 22.6649 16.6279H25.545C25.8902 16.6279 26.17 16.3481 26.17 16.0029V14.8357C26.17 13.4707 25.2428 12.2958 23.9151 11.9787L22.8032 11.7131V11.5137C23.5259 11.0075 23.9997 10.1692 23.9997 9.22179V7.77623C23.9997 6.2338 22.7449 4.97899 21.2025 4.97899C20.5103 4.97899 19.8766 5.23224 19.3876 5.65024C18.8433 4.31712 17.5333 3.375 16.0069 3.375C14.4785 3.375 13.1673 4.31956 12.6242 5.65524C12.1345 5.23424 11.4984 4.97887 10.8034 4.97887C9.26099 4.97887 8.00618 6.23368 8.00618 7.77611V7.87217V9.22166C8.00618 10.169 8.48005 11.0073 9.20274 11.5136V11.713L8.0908 11.9786C6.76318 12.2958 5.83594 13.4706 5.83594 14.8356V16.0028C5.83594 16.348 6.11581 16.6278 6.46094 16.6278H9.33292C9.32849 16.7036 9.32542 16.7798 9.32542 16.8566V19.104C9.32542 19.4492 9.6053 19.729 9.95042 19.729H13.7073C14.0524 19.729 14.3323 19.4492 14.3323 19.104C14.3323 18.7588 14.0524 18.479 13.7073 18.479H13.0615V17.1874C13.0615 16.8423 12.7817 16.5624 12.4365 16.5624C12.0914 16.5624 11.8115 16.8423 11.8115 17.1874V18.4791H10.5755V16.8568C10.5755 15.6513 11.3942 14.6133 12.5663 14.3324L14.2815 13.9214L15.4293 16.5328C15.529 16.7597 15.7535 16.9063 16.0013 16.9063H16.0014C16.2493 16.9063 16.4738 16.7598 16.5735 16.5328L17.7201 13.9253L19.4298 14.3338C20.6031 14.6141 21.4225 15.6523 21.4225 16.8586V18.4791H20.1864V17.1874C20.1864 16.8423 19.9066 16.5624 19.5614 16.5624C19.2163 16.5624 18.9364 16.8423 18.9364 17.1874V18.4791H18.2281C17.883 18.4791 17.6031 18.7589 17.6031 19.1041C17.6031 19.4493 17.883 19.7291 18.2281 19.7291H22.0476ZM14.0185 12.1465C13.858 12.0757 13.6906 12.0191 13.5181 11.9778L12.4016 11.7102V11.5155C12.6031 11.3747 12.7853 11.2082 12.9433 11.0206C13.2224 11.4506 13.5892 11.8183 14.0185 12.0983V12.1465ZM9.25624 9.22166V8.92398H10.1285C10.8937 8.92398 11.6487 8.77229 12.3507 8.48142V9.2216C12.3507 10.0747 11.6567 10.7688 10.8035 10.7688C9.9503 10.7688 9.25624 10.0748 9.25624 9.22166ZM13.6063 9.03904V8.37892H14.4607C15.4518 8.37892 16.3941 8.01036 17.1164 7.35298L18.4053 8.11023V9.13048C18.357 10.4119 17.3 11.4397 16.007 11.4397C14.6832 11.4397 13.6063 10.3628 13.6063 9.03904ZM17.983 12.1485V12.1062C18.4158 11.8263 18.7858 11.4577 19.0671 11.0258C19.2241 11.2113 19.4047 11.376 19.6043 11.5155V11.7102L18.4877 11.9778C18.3137 12.0195 18.1448 12.0768 17.983 12.1485ZM19.6553 9.22166V9.13041C19.656 9.09998 19.6576 9.06966 19.6576 9.03904V8.48242C20.3589 8.77267 21.1131 8.92404 21.8774 8.92404H22.7497V9.22173C22.7497 10.0748 22.0557 10.769 21.2025 10.769C20.3493 10.769 19.6553 10.0748 19.6553 9.22166ZM21.2024 6.22886C22.0213 6.22886 22.6936 6.8683 22.7463 7.67405H21.8774C21.1469 7.67405 20.428 7.49817 19.7818 7.1633C20.0196 6.61405 20.5669 6.22886 21.2024 6.22886ZM13.6063 7.02561C13.6063 5.70193 14.6832 4.62499 16.007 4.62499C17.2009 4.62499 18.194 5.50112 18.3773 6.64411L17.3251 6.02593C17.062 5.8713 16.7256 5.92936 16.5295 6.16343C16.0153 6.77705 15.2613 7.12899 14.4607 7.12899H13.6063V7.02561ZM10.8035 6.22886C11.439 6.22886 11.9864 6.61411 12.2241 7.16323C11.5779 7.49811 10.859 7.67398 10.1285 7.67398H9.25961C9.31236 6.8683 9.98467 6.22886 10.8035 6.22886ZM12.2751 13.1168C11.0455 13.4114 10.0791 14.2687 9.61917 15.3779H7.08593V14.8356C7.08593 14.0515 7.61856 13.3766 8.38124 13.1944L9.97298 12.8141C10.2543 12.747 10.4528 12.4955 10.4528 12.2063V11.9962C10.5678 12.0106 10.6847 12.0189 10.8035 12.0189C10.9214 12.0189 11.0375 12.0107 11.1516 11.9965V12.1748C11.1512 12.1841 11.151 12.1934 11.1509 12.2027C11.1508 12.4078 11.2516 12.6087 11.4367 12.7284C11.5065 12.7736 11.5819 12.803 11.6588 12.8176L12.5911 13.041L12.2751 13.1168ZM16.0015 14.7283L15.2685 13.0606V12.6146C15.507 12.6638 15.754 12.6897 16.0068 12.6897C16.2554 12.6897 16.4981 12.6645 16.7329 12.617V13.0648L16.0015 14.7283ZM19.7203 13.118L19.4064 13.043L20.3438 12.8184C20.4218 12.8039 20.4984 12.7741 20.5691 12.7284C20.7539 12.6088 20.8544 12.408 20.8544 12.2029C20.8544 12.198 20.8543 12.1931 20.8542 12.1882V11.9965C20.9684 12.0107 21.0844 12.0189 21.2023 12.0189C21.3211 12.0189 21.438 12.0106 21.553 11.9962V12.2063C21.553 12.4955 21.7515 12.747 22.0328 12.8141L23.6246 13.1944C24.3872 13.3766 24.9199 14.0515 24.9199 14.8356V15.3779H22.3781C21.9177 14.2687 20.9507 13.4119 19.7203 13.118Z" fill="black"/>
<path d="M16 18.4785C15.8349 18.4785 15.6744 18.5448 15.5581 18.661C15.4412 18.7779 15.375 18.9385 15.375 19.1035C15.375 19.2679 15.4412 19.4285 15.5581 19.5454C15.6744 19.6616 15.835 19.7285 16 19.7285C16.1644 19.7285 16.325 19.6616 16.4418 19.5454C16.5581 19.4285 16.625 19.2679 16.625 19.1035C16.625 18.9385 16.5581 18.7779 16.4418 18.661C16.3249 18.5448 16.1644 18.4785 16 18.4785Z" fill="black"/>
<path d="M16 2.18519C16.3451 2.18519 16.625 1.90538 16.625 1.56019V0.625C16.625 0.279813 16.3451 0 16 0C15.6549 0 15.375 0.279813 15.375 0.625V1.56019C15.375 1.90538 15.6549 2.18519 16 2.18519Z" fill="black"/>
<path d="M12.8136 2.92282C12.9356 3.04475 13.0955 3.10569 13.2553 3.10569C13.4153 3.10569 13.5753 3.04457 13.6974 2.92244C13.9413 2.67825 13.9411 2.2825 13.697 2.03857L13.0413 1.38357C12.7971 1.13957 12.4015 1.13975 12.1575 1.38394C11.9135 1.62813 11.9137 2.02388 12.1579 2.26782L12.8136 2.92282Z" fill="black"/>
<path d="M18.7344 3.11802C18.8945 3.11802 19.0545 3.0569 19.1765 2.93471L19.8271 2.28352C20.071 2.03934 20.0708 1.64359 19.8266 1.39965C19.5824 1.15571 19.1866 1.15584 18.9428 1.40009L18.2922 2.05127C18.0483 2.29546 18.0485 2.69121 18.2926 2.93515C18.4146 3.05709 18.5745 3.11802 18.7344 3.11802Z" fill="black"/>
</g>
<defs>
<clipPath id="clip0">
<rect width="32" height="32" fill="white"/>
</clipPath>
</defs>
</svg>
