<svg width="32" height="32" viewBox="0 0 32 32" fill="none" xmlns="http://www.w3.org/2000/svg">
<g clip-path="url(#clip0)">
<path d="M9.76953 15.4837V11.8708C9.76953 8.45041 12.5427 5.67725 15.9631 5.67725C19.3835 5.67725 22.1566 8.45041 22.1566 11.8708V15.4837H9.76953Z" fill="#D3A06C"/>
<path d="M15.9634 5.67725C15.7889 5.67725 15.6181 5.68912 15.4473 5.70305C18.6256 5.96628 21.1247 8.62434 21.1247 11.8708V15.4837H22.1569V11.8708C22.1569 8.45041 19.3838 5.67725 15.9634 5.67725Z" fill="#B27946"/>
<path d="M13.8991 27.3547H25.254L24.2852 24.4489C23.9275 23.3763 23.014 22.5836 21.9012 22.3812L18.0282 21.6772H13.8991L10.0256 22.3812C8.91332 22.5836 7.99926 23.3758 7.64158 24.4489L7.18945 26.5036V27.3547H13.8991Z" fill="#92E0C0"/>
<path d="M13.8984 20.1284V21.6768L15.963 23.7413L18.0275 21.6768V20.1284H13.8984Z" fill="#F9E0A6"/>
<path d="M20.0918 13.9351H20.6079C21.4632 13.9351 22.1563 14.6282 22.1563 15.4834C22.1563 16.3387 21.4632 17.0318 20.6079 17.0318H20.0918V13.9351Z" fill="#F9E0A6"/>
<path d="M11.834 13.9351H11.3179C10.4627 13.9351 9.76953 14.6282 9.76953 15.4834C9.76953 16.3387 10.4627 17.0318 11.3179 17.0318H11.834V13.9351Z" fill="#F9E0A6"/>
<path d="M11.3184 13.419V16.5158C11.3184 19.0815 13.3978 21.1609 15.9635 21.1609C18.5292 21.1609 20.6087 19.0815 20.6087 16.5158V13.419C18.9566 13.419 17.3715 12.7625 16.203 11.594L15.9635 11.3545L15.724 11.594C14.5555 12.7625 12.9705 13.419 11.3184 13.419Z" fill="#F9E0A6"/>
<path d="M19.5763 16.5158C19.5763 18.9065 17.7693 20.8735 15.4473 21.1305C15.6171 21.1496 15.7889 21.161 15.9634 21.161C18.5291 21.161 20.6086 19.0815 20.6086 16.5158V13.419C20.2602 13.419 19.9154 13.3834 19.5763 13.3267V16.5158Z" fill="#EABD8C"/>
<path d="M23.1885 0.516113H30.4143C30.9846 0.516113 31.4466 0.978049 31.4466 1.54837V5.6774C31.4466 6.24773 30.9846 6.70966 30.4143 6.70966H28.8659L24.7369 9.29031L25.1792 6.70966H23.1885C22.6182 6.70966 22.1562 6.24773 22.1562 5.6774V1.54837C22.1562 0.978049 22.6182 0.516113 23.1885 0.516113Z" fill="#ECECEC"/>
<path d="M23.0168 27.3547H25.2532L24.2844 24.4489C23.9267 23.3763 23.0131 22.5836 21.9004 22.3812L18.0273 21.6772L21.7409 23.7402C22.3252 24.0649 22.7164 24.6522 22.7902 25.317L23.0168 27.3547Z" fill="#48C397"/>
<path d="M11.8339 25.5408L9.98306 27.2146C9.57996 27.6177 8.92654 27.6177 8.52344 27.2146L4.82177 23.5129C4.41867 23.1098 4.41867 22.4564 4.82177 22.0533L6.49557 20.3795L3.3988 17.2827L1.4597 19.2218C0.250412 20.4311 0.250412 22.3919 1.4597 23.6012L8.43519 30.5766C9.64448 31.7859 11.6053 31.7859 12.8145 30.5766L14.9307 28.6376L11.8339 25.5408Z" fill="#FB5968"/>
<path d="M24.7741 24.2863C24.3566 23.0347 23.2913 22.1108 21.9927 21.8744L18.5434 21.2468V20.9794C19.1437 20.631 19.666 20.165 20.082 19.6132H21.1241C21.9778 19.6132 22.6725 18.9185 22.6725 18.0648V11.8713C22.6725 8.17169 19.6624 5.16162 15.9628 5.16162C12.2632 5.16162 9.25311 8.17169 9.25311 11.8713V15.4842C9.25311 16.4793 9.96072 17.3118 10.899 17.5059C11.1886 18.9892 12.1156 20.2445 13.3821 20.9794V21.2468L9.93233 21.8744C8.63427 22.1108 7.56846 23.0347 7.15143 24.2863L6.94498 24.9061L5.18704 23.1482C4.98575 22.9469 4.98575 22.6192 5.18704 22.4179L7.22575 20.3797L3.39917 16.5531L1.09517 18.8571C0.412851 19.5394 0.0371094 20.4468 0.0371094 21.4119C0.0371094 22.3771 0.412851 23.2839 1.09517 23.9663L8.07066 30.9418C8.75298 31.6241 9.66033 32.0003 10.6255 32.0003C11.5907 32.0003 12.4975 31.6241 13.1638 30.9572L15.6779 28.6538L14.8939 27.8713H25.969L24.7741 24.2863ZM15.9628 23.0125L14.4144 21.4641V21.4398C14.9037 21.5936 15.4234 21.6778 15.9628 21.6778C16.5021 21.6778 17.0219 21.5936 17.5112 21.4398V21.4641L15.9628 23.0125ZM21.1241 18.581H20.69C20.8397 18.2398 20.9532 17.8801 21.0265 17.5059C21.2474 17.4599 21.4508 17.3722 21.6402 17.2618V18.0648C21.6402 18.3498 21.4085 18.581 21.1241 18.581ZM21.1241 14.5954C21.4312 14.7745 21.6402 15.1038 21.6402 15.4842C21.6402 15.8646 21.4312 16.1939 21.1241 16.373V14.5954ZM10.2854 15.4842C10.2854 15.1038 10.4944 14.7745 10.8015 14.5954V16.373C10.4944 16.1939 10.2854 15.8646 10.2854 15.4842ZM10.8015 12.9036V13.493C10.6178 13.541 10.4454 13.6132 10.2854 13.7067V11.8713C10.2854 8.74098 12.8325 6.19388 15.9628 6.19388C19.0931 6.19388 21.6402 8.74098 21.6402 11.8713V13.7067C21.4802 13.6132 21.3078 13.5405 21.1241 13.493V12.9036H20.6079C19.0818 12.9036 17.6469 12.309 16.5672 11.2298L15.9628 10.6254L15.3584 11.2298C14.2787 12.309 12.8438 12.9036 11.3176 12.9036H10.8015ZM11.8338 16.5165V13.9162C13.3837 13.7996 14.8289 13.1601 15.9628 12.0819C17.0967 13.1601 18.5419 13.8001 20.0918 13.9162V16.5165C20.0918 17.269 19.8864 17.973 19.5334 18.581H15.9628V19.6132H18.6849C17.9571 20.2538 17.0059 20.6455 15.9628 20.6455C13.6861 20.6455 11.8338 18.7931 11.8338 16.5165ZM5.76563 20.3797L5.20511 20.9402L2.83814 18.5732L3.39866 18.0127L5.76563 20.3797ZM10.6245 30.9681C9.93543 30.9681 9.28717 30.6992 8.79943 30.2119L1.82395 23.237C1.33672 22.7498 1.06834 22.1015 1.06834 21.4125C1.06834 20.7229 1.33672 20.0747 1.82395 19.5874L2.10782 19.3036L4.47479 21.6705L4.45621 21.6891C3.85285 22.293 3.85285 23.2752 4.45621 23.879L8.15737 27.5802C8.45001 27.8723 8.83866 28.0339 9.25259 28.0339C9.66653 28.0339 10.0552 27.8728 10.3287 27.5983L10.3674 27.5637L12.7452 29.9415L12.449 30.213C11.9618 30.6992 11.3135 30.9681 10.6245 30.9681ZM13.507 29.2427L11.1344 26.87L11.8162 26.2538L14.1847 28.6223L13.507 29.2427ZM13.8616 26.839L11.8513 24.8287L9.6175 26.8494C9.42292 27.045 9.08279 27.045 8.88769 26.8494L7.76046 25.7221L8.13001 24.6125C8.42782 23.7185 9.18911 23.0584 10.1166 22.8891L13.7243 22.2336L15.9628 24.4721L18.2007 22.2341L21.8079 22.8896C22.7354 23.0589 23.4967 23.7185 23.7945 24.613L24.5372 26.839H13.8616Z" fill="black"/>
<path d="M30.4148 0H23.189C22.3353 0 21.6406 0.69471 21.6406 1.54839V5.67742C21.6406 6.5311 22.3353 7.22581 23.189 7.22581H24.5676L24.0339 10.3386L29.0146 7.22581H30.4148C31.2685 7.22581 31.9632 6.5311 31.9632 5.67742V1.54839C31.9632 0.69471 31.2685 0 30.4148 0ZM30.9309 5.67742C30.9309 5.96181 30.6992 6.19355 30.4148 6.19355H28.7183L25.4404 8.24207L25.7919 6.19355H23.189C22.9046 6.19355 22.6729 5.96181 22.6729 5.67742V1.54839C22.6729 1.264 22.9046 1.03226 23.189 1.03226H30.4148C30.6992 1.03226 30.9309 1.264 30.9309 1.54839V5.67742Z" fill="black"/>
<path d="M29.8986 2.06494H23.7051V3.0972H29.8986V2.06494Z" fill="black"/>
<path d="M27.8341 4.12939H23.7051V5.16165H27.8341V4.12939Z" fill="black"/>
<path d="M29.8994 4.12939H28.8672V5.16165H29.8994V4.12939Z" fill="black"/>
<path d="M4.87427 12.8289L4.34317 11.9437L2.94446 12.7829C4.40717 6.83043 9.75995 2.58011 15.9633 2.58011C17.3192 2.58011 18.657 2.7814 19.9396 3.17882L20.2451 2.19301C18.8634 1.76463 17.4229 1.54785 15.9633 1.54785C9.21956 1.54785 3.41053 6.21263 1.90034 12.7195L0.922271 11.089L0.0371094 11.6201L1.8513 14.6431L4.87427 12.8289Z" fill="black"/>
<path d="M26.8749 12.6373L27.76 13.1683L28.6633 11.6628C29.1386 13.0538 29.3817 14.5087 29.3817 15.9998C29.3817 19.0693 28.3185 22.07 26.3887 24.4489L27.1902 25.0992C29.2692 22.5371 30.414 19.3051 30.414 15.9998C30.414 14.421 30.1595 12.8793 29.6635 11.4032L31.1804 12.3131L31.7115 11.428L28.6885 9.61377L26.8749 12.6373Z" fill="black"/>
</g>
<defs>
<clipPath id="clip0">
<rect width="32" height="32" fill="white"/>
</clipPath>
</defs>
</svg>
