<svg width="32" height="32" viewBox="0 0 32 32" fill="none" xmlns="http://www.w3.org/2000/svg">
<path d="M28.2675 24.2762H31.4675V18.4096L26.6675 10.9429H20.8008V24.2762H22.9341" fill="#FDB62F"/>
<path d="M4.79989 24.2766H0.533203V7.20996H20.7999V24.2766H10.1332" fill="#FDB62F"/>
<path d="M3.7332 21.6094H0.533203V22.6761H3.7332V21.6094Z" fill="#F46B27"/>
<path d="M20.7992 21.6094H11.1992V22.6761H20.7992V21.6094Z" fill="#F46B27"/>
<path d="M31.4673 21.6094H29.334V22.6761H31.4673V21.6094Z" fill="#DBDBDB"/>
<path d="M20.7995 8.80957H2.13281V9.87626H20.7995V8.80957Z" fill="#F46B27"/>
<path d="M7.46747 26.9427C8.94024 26.9427 10.1342 25.7488 10.1342 24.2761C10.1342 22.8033 8.94024 21.6094 7.46747 21.6094C5.9947 21.6094 4.80078 22.8033 4.80078 24.2761C4.80078 25.7488 5.9947 26.9427 7.46747 26.9427Z" fill="#126099"/>
<path d="M25.6003 26.9427C27.0731 26.9427 28.267 25.7488 28.267 24.2761C28.267 22.8033 27.0731 21.6094 25.6003 21.6094C24.1275 21.6094 22.9336 22.8033 22.9336 24.2761C22.9336 25.7488 24.1275 26.9427 25.6003 26.9427Z" fill="#126099"/>
<path d="M8.00028 23.7412H6.93359V24.8079H8.00028V23.7412Z" fill="#DBDBDB"/>
<path d="M26.1331 23.7412H25.0664V24.8079H26.1331V23.7412Z" fill="#DBDBDB"/>
<path d="M9.5995 4.54199H2.13281V5.60868H9.5995V4.54199Z" fill="#DBDBDB"/>
<path d="M1.06669 4.54199H0V5.60868H1.06669V4.54199Z" fill="#DBDBDB"/>
<path d="M28.0376 13.0757H22.9336V17.8757H31.1256L28.0376 13.0757Z" fill="#87CED9"/>
<path d="M21.8675 10.9424H20.8008V24.2757H21.8675V10.9424Z" fill="#FFA83D"/>
<path d="M31.1256 17.8758L28.2296 13.3691C26.8062 15.0582 24.9869 16.3681 22.9336 17.1825V17.8758H31.1256V17.8758Z" fill="#6CBBC7"/>
<path d="M27.1147 10.6544C27.0166 10.5018 26.848 10.4096 26.6667 10.4091H21.3334V7.20909C21.3334 6.91472 21.0944 6.67578 20.8001 6.67578H0.533312C0.238937 6.67578 0 6.91472 0 7.20909V24.2758C0 24.5702 0.238937 24.8091 0.533312 24.8091H4.31462C4.61969 26.5499 6.27781 27.7137 8.01863 27.4091C9.34606 27.1765 10.3861 26.1371 10.6186 24.8091H22.4479C22.753 26.5499 24.4111 27.7137 26.1519 27.4091C27.4794 27.1765 28.5194 26.1371 28.7519 24.8091H31.4666C31.761 24.8091 31.9999 24.5702 31.9999 24.2758V18.4091C31.9999 18.3067 31.9701 18.207 31.9146 18.1211L27.1147 10.6544ZM27.7333 13.6091L30.1493 17.3424H23.4667V13.6091H27.7333ZM7.46669 26.4091C6.28856 26.4091 5.33337 25.4539 5.33337 24.2758C5.33337 23.0977 6.28856 22.1425 7.46669 22.1425C8.64481 22.1425 9.6 23.0977 9.6 24.2758C9.6 25.4539 8.64481 26.4091 7.46669 26.4091ZM7.46669 21.0758C5.90613 21.0774 4.57494 22.2038 4.31469 23.7425H1.06669V22.6758H3.73338V21.6091H1.06669V7.74241H20.2667V8.80909H2.13331V9.87578H20.2666V21.6091H11.2V22.6758H20.2667V23.7425H10.6187C10.3584 22.2043 9.02719 21.0773 7.46669 21.0758ZM25.6 26.4091C24.4219 26.4091 23.4667 25.4539 23.4667 24.2758C23.4667 23.0977 24.4219 22.1425 25.6 22.1425C26.7781 22.1425 27.7333 23.0977 27.7333 24.2758C27.7333 25.4539 26.7781 26.4091 25.6 26.4091ZM28.752 23.7424C28.4469 22.0016 26.7888 20.8378 25.048 21.1424C23.7206 21.375 22.6806 22.4144 22.448 23.7424H21.3333V11.4758H26.3733L27.0613 12.5425H22.9333C22.6389 12.5425 22.4 12.7814 22.4 13.0758V17.8758C22.4 18.1702 22.6389 18.4091 22.9333 18.4091H30.832L30.9333 18.5638V21.6091H29.3333V22.6758H30.9333V23.7425H28.752V23.7424Z" fill="black"/>
<path d="M8.00028 23.7422H6.93359V24.8089H8.00028V23.7422Z" fill="black"/>
<path d="M26.1331 23.7422H25.0664V24.8089H26.1331V23.7422Z" fill="black"/>
<path d="M9.5995 4.54199H2.13281V5.60868H9.5995V4.54199Z" fill="black"/>
<path d="M1.06669 4.54199H0V5.60868H1.06669V4.54199Z" fill="black"/>
</svg>
