<svg width="337" height="217" fill="none" xmlns="http://www.w3.org/2000/svg"><path d="M337 28.5c0 75.8-36 188.1-101 188.1s-125.9-11.3-125.9-87.2c0-75.8-13.2-77.1 51.8-77.1S337-47.4 337 28.5Z" fill="#DDF"/><path d="m299.2 162 3-12.8v-.5a1.6 1.6 0 0 0-.1-.6l-.1-.1-.3-.2a63.3 63.3 0 0 1-5.5-1.8 258.4 258.4 0 0 1-17.5-6.9c-5.3-2.2-10.7-4.5-15.8-7l-2-.9-.9-.4-.1-.1h-.1l-.2-.2a42.2 42.2 0 0 1-3.4-2v-1.3l.3-1.7.1-.8.3-1.5a375.8 375.8 0 0 1 5.8-25.2l-15.5-3.7a875.2 875.2 0 0 0-6 25.9l-.2 1-.2 1.6-.6 3a33 33 0 0 0-.5 6.2 19.3 19.3 0 0 0 .5 3.5l.1.4c.1 0 0 0 0 0l.1.1.1.2.9 1.2c1.2 1.4 2.8 2.6 4.6 3.7l5.5 3 .7.4.7.3 1 .5 2.1 1a413.6 413.6 0 0 0 42 16.6 1.8 1.8 0 0 0 .5-.1c.2 0 .3-.2.4-.3l.3-.5Z" fill="#D29863"/><path d="m293 163-3.5-1.2 6.4-17.2a132.5 132.5 0 0 0 6.3 2l.2.1h.1l.2.1h.1v.4l-.2.9a55.5 55.5 0 0 0-.7 4.7v.6a11.2 11.2 0 0 0 0-.2v-.2h-.1l-.3.1h-.2v1l.1.8v.2l.1.2v.5l.2.4v15.9H300l-1.1-.1h-.3l-.2-.1h-.3l-.4-.2h-.3l-.6-.1-.4-.2h-.5l-.4-.2c-.2 0-.3 0-.4-.2l-.4-.2-.4-.8-.3-1-.1-1.2c-.2-1.7-.3-3.6-.9-4.8Z" fill="#0A1B45"/><path d="M268.8 88.2a1115 1115 0 0 0-7.2 34.1l-.4 2.4v.6a3.7 3.7 0 0 0 0 .7h.1l.1.1a2.7 2.7 0 0 0 .7.2l.6.2a286.4 286.4 0 0 0 18.2 7.6 442.5 442.5 0 0 0 19.8 7.2l-2.5 7.3-3.7 1 2.3 3-5.2 15a189.8 189.8 0 0 1-10.9-4.3 464.8 464.8 0 0 1-29.6-13.6l-1.6-.8-2-1a79 79 0 0 1-7.5-4.8c-1.1-.9-2-1.9-2.9-3l-.3-.3-.2-.4-.5-1-.1-.1-.1-.2h-.1l-.2-.5-.2-.5v-.2l-.1-.3-.4-2-.1-.4v-1l-.1-.5a43 43 0 0 1 1.3-10.8l.3-1.1.1-.8.6-2.6 1.2-5c.8-3.4 7-22.6 8.8-29.2 0 0 21.9 4.8 21.8 5Z" fill="#CC2935"/><path d="m251.7 198.6 13.3.8c.4 0 .7 0 1-.2.2-.2.4-.5.4-.8v-.6l.2-.7v-.8l.1-.7.2-1.5.1-.7.1-.8a341.4 341.4 0 0 1 3-18.4l7.1-38.4a2331.7 2331.7 0 0 0 6.6-38.8l-15.7-2.2a698.9 698.9 0 0 1-6.6 38.2l-7 38.5a869 869 0 0 0-3.1 19l-.2.7v.9l-.3 1.6-.2 1.7v.8l-.2.9c0 .8.5 1.4 1.2 1.5Z" fill="#EDB98A"/><path d="m249.5 194.2.3-1.8.2-1.8 18.4 2.6-.3 2.4-.1 1.1-.1.6v.5l-.2 1.1v1l-.1.5v1.1h-6.4l-.2-1.1-3.5 1.1h-15.8v-2.4l.1-.4v-.7c.1-.5.5-1 1-1.3l2.2-.8a14 14 0 0 0 4.5-1.7Z" fill="#0A1B45"/><path d="M289 83.2v.2l-.2 1.8v2.1l-.1.9-.1.8-.1 1.6-.1.7v.8l-.2 1.5-.4 3-1.5 11.6-3.5 22.6-3.6 22.5-3.6 22.4-1.6 10.7-.3 2.6-.4 2.7-.6 5-7.8-1c-.6-1-1.2-2.1-1.7-3.3l-2.5 2.9-16-2 1-5.8.5-2.7.5-2.8a943.3 943.3 0 0 1 6.6-33.3l4.6-22.3a1511.5 1511.5 0 0 0 6.2-33l.4-2.8.4-2.6.2-1.3v-.6l.1-.6.1-1.2v-1l23.6-.1Z" fill="#FA3239"/><path d="M289 83.2c0 11-9.5 19.9-21 19.9-11.6 0-21-9-21-19.9" fill="#FA3239"/><path fill="#EDB98A" d="M286.1 74.5h-36.3V84h36.3z"/><path d="M281.7 54.4h-27.4a8 8 0 0 0-8.1 8v15.2h43.6V62.3a8 8 0 0 0-8.1-7.9Z" fill="#0A1B45"/><path d="M232.8 99.5c-.6 7 5.5 7.7 11 7.8 4.2.2 8.3.2 12.4-.2a41 41 0 0 0 21.7-7.7c4.8-3.8 8-9.1 10-14.7 2.2-6.2 3-12.8 3.1-19.2.1-3.8-3-7-6.8-6.6-3.5.2-6.4 3-6.5 6.4 0 3.6-.4 7.1-1 10.4-1.4 6.6-4.3 12.9-10.7 15.6a44 44 0 0 1-18.1 3c-6 .2-13.2-2.8-15.1 5.2Z" fill="#EDB98A"/><path d="M228 103.6c-.1 1 .6 1.9 1.6 2 4.6.9 9.1 1.4 13.8 1.7 1 0 2-.7 2-1.7s-.8-1.8-1.8-1.9c-4.5-.2-9-.8-13.4-1.6-1-.1-2 .5-2.1 1.5Z" fill="#EDB98A"/><path d="M226.5 100c-.3 1 .4 2 1.4 2.1 2.1 0 7.5 2.5 8-.5.4-2.9-5.3-2.2-7.3-3-1-.2-2 .4-2.1 1.4Z" fill="#EDB98A"/><path d="M226.8 96.8c-.7 3 5.2 2.5 7.1 3.1 1 .2 2-.5 2-1.5.5-2.8-5-2.2-7-3-1-.2-1.9.4-2 1.4Zm7.6-3.6c-.4 3 5 2 7 2.6.6.2 2.2-1.3 2.4-1.6-1.1-.1-.7-1.9-2.7-2-2 .2-6.1-1.9-6.7 1Z" fill="#EDB98A"/><path d="M229 94c-.2 1 .4 2 1.3 2.1 3.3.6 6.5 1 9.8 1.4 1 0 1.8-.7 1.9-1.7 0-1-.7-1.8-1.6-1.9a101 101 0 0 1-9.4-1.3c-.9-.2-1.8.5-2 1.4Z" fill="#EDB98A"/><path d="M292 78.1c.7-6.4 3.5-16-1.6-20.8-3.5-3.4-8.8-2.9-11.3-2.9s-3.6 7.5-3.6 9.7c0 3.7-.3 7.3-1 10.7l17.5 3.3Z" fill="#0A1B45"/><path d="M277.3 54.4c0 3.6-4.2 6.6-9.3 6.6-5.2 0-9.3-3-9.3-6.6" fill="#EDB98A"/><path d="M253.6 43.8v-3.4c0-.8.5-1.4 1.2-1.4.6 0 1-.6 1-1.3V36c0-2.8 3.5-5 5.8-5h2.3v22.2h-8.5c-2.4 0-4.4-2.5-4.4-5.7v-1.1c0-.7.5-1.3 1-1.3h.6c.6 0 1-.6 1-1.3Zm14.6 9.4h-3.9V31h3.9c5.7 0 10.3 4.5 10.3 10v2.1c0 5.6-4.6 10.1-10.3 10.1Z" fill="#000"/><path d="M272.8 45.5h-9v10.2c0 2.8 2 5 4.5 5s4.5-2.2 4.5-5V45.5Z" fill="#EDB98A"/><path d="M263.3 51.8h1c4.7 0 8.5-3.7 8.5-8.3v-4c0-3.5-2.9-6.3-6.5-6.3h-1.1a6.4 6.4 0 0 0-6.5 6.4v7.7c0 2.5 2 4.5 4.6 4.5Z" fill="#EDB98A"/><path d="M270.4 44.8c0 1.3 1.1 2.5 2.5 2.5s2.5-1.2 2.5-2.5c0-1.4-1.1-2.5-2.5-2.5a2.5 2.5 0 0 0-2.5 2.5Z" fill="#EDB98A"/><path d="M273.4 43.7c-.2 0-.4 0-.7.2-.4.2-.7.6-.7 1.2h.6c0-.3.1-.6.4-.7a1 1 0 0 1 .4 0v-.7Z" fill="#000"/><path opacity=".1" d="M268.4 52.3c1.9-.7 2.8-2.3 3.2-4.5a8.5 8.5 0 0 1-7.2 4h-.7c1.6.9 3.2 1 4.7.5Z" fill="#000"/><path d="M273 42.3h.2c1.2-1.1 1.7-3.4 1.8-5.7.2-3-5.2-5.6-8.3-5.6H263l-4.2 5.1h7.6c1.4 3.6 4 6.2 6.4 6.2Zm-6.8-.2c0-.3.3-.6.6-.6.4 0 .6.3.6.6s-.2.6-.6.6a.6.6 0 0 1-.6-.6Zm-5.2 0c0-.3.3-.6.6-.6s.6.3.6.6-.3.6-.6.6a.6.6 0 0 1-.6-.6Zm2.7-.5-.6-.1-.9 4.6h2v-.6H263l.7-4ZM266 46c0 .7-.8 1.4-1.6 1.4v.6c1 0 2.1-.9 2.2-2h-.6Z" fill="#000"/><path d="M265.7 39.5v.6a3.7 3.7 0 0 1 2.2.7l.2.2.5-.4-.8-.6c-.6-.3-1.2-.5-2-.5Zm-2.7 0a4.3 4.3 0 0 0-2.9 1v.1l.4.4h.1v-.1l.5-.3c.5-.3 1.1-.5 1.7-.5h.1v-.6Z" fill="#000"/><path fill-rule="evenodd" clip-rule="evenodd" d="M265.8 40c-1.1 0-2.3.2-2.7.7a2 2 0 0 0-.4 1h-.6a2 2 0 0 0-.4-1c-.4-.5-1.5-.8-2.6-.8h-.8c-2 0-2.8.2-3 .6-.2.4-.3 1-.2 1.3l.3.4.1.3.3.7a4 4 0 0 0 1 1.7c.6.8 3.5.9 4.3 0 .5-.5 1-1.5 1-2.4h.6c.1 1 .5 2 1 2.5.9.8 3.7.7 4.4 0a5 5 0 0 0 .9-1.8l.3-.7h5.3v-.8h-4.9c.2-.3 0-.9-.1-1.2-.2-.5-1.1-.6-3.5-.6h-.2Zm2.2 1.2c.3.5.4 1 .3 1.7v.1c-.2.5-.4 1-.8 1.4-.4.4-2.7.5-3.2 0-.7-.7-1-2.5-.6-3.1.6-.7 3.8-.7 4.3 0Zm-7 0c-.6-.6-3.7-.6-4.2 0a2 2 0 0 0-.3 1.7h.1v.1c.1.6.4 1 .7 1.4.4.4 2.8.5 3.3 0 .6-.7 1-2.5.6-3.1h-.1v-.1Z" fill="#000"/><path d="m206.2 199.3-12.7 4c-.6.1-1.4-.3-1.6-1l-1.8-6.1-2-6.2-4-12.3a926 926 0 0 0-9.7-27.2c-.8-2 .1-4.2 2-5l8-3.2c1.9-.7 4 .3 4.7 2.4 3.5 9.1 6.8 18.4 9.9 27.7l4.1 12.5 2 6.4 2 6.3c.2.7-.2 1.5-.9 1.7Z" fill="#8C6345"/><path d="M147.4 87.9c-.5.2-.7 1-.3 1.9 3.2 7.2 6.3 14.5 9.4 21.9l4.5 11 4.4 11 4.3 11.2 4.1 11.1 4 11.2 2 5.6 1 2.9 1 2.8 1.2 3.9 1.3 4 1.3 3.8 1.2 4 20.3-6.7-1.3-4-1.3-4.1-1.3-4-1.4-4-1-3-1-2.8-2-5.8-4.2-11.4-4.3-11.4-4.4-11.3-4.6-11.3c-1.5-3.7-7.5-18.6-10.6-27.8L147.4 88Z" fill="#8F1EE0"/><path d="m205.5 192.8-8.3 2.7c.4 1.3-.6 2.8-2.3 3.3-1.7.5-3.4 0-3.7-1.3l-.8.1 2 6.9 22-6.8-.6-2.3c-.6-1.8-6.7-.4-8.3-2.6Z" fill="#0A1B45"/><path d="m207.1 187.6-20.4 6.8-1-3.3-1-3.2 20.3-7 1 3.3 1.1 3.4Z" fill="#D7DBE2"/><path d="m103.5 131.6 8.5-10.4c.5-.5 1.2-.7 1.7-.3a80.9 80.9 0 0 0 14 9.3 31.7 31.7 0 0 0 7.8 2.5 10.7 10.7 0 0 0 2.3 0l.6-.3.6-.4c.4-.2.8-.7 1.3-1.4l.5-.3 1-.1a5 5 0 0 1 2.4.7l7.8 4a3.5 3.5 0 0 1 1.8 3.5c0 .5-.2 1-.5 1.4a21.6 21.6 0 0 1-8.4 7.4 18.7 18.7 0 0 1-7.2 1.8 25.8 25.8 0 0 1-10-1.3 47 47 0 0 1-12.9-6 88.5 88.5 0 0 1-11-8.2c-.7-.5-.8-1.3-.3-2Z" fill="#B18058"/><path d="M128.7 86.6c-.3 0-.3 2.2-.3 2.9l.2 2 .4 2a37 37 0 0 0 1 3.5l.2.8.3.7.5 1.4.6 1.4.6 1.3v.3l.2.3.3.6.3.6.3.5.5 1.2.5 1 2 4 .9 1.9.4.9.2.4.2.4a41 41 0 0 1 1.2 3.3l.4 1.5.1.3v.3l.2.7v.3l.1.3v.4l.1.2v1.2l.1.2v1.3l-.1.2v.2l-.2.5v.5l-.1.2-.1.3-.2.4-.1.3-.1.2-.1.3-.2.2-.3.6v.2h-.1v.1l-.1.1-.7.9h-.1v.1h-.2v.1h-.2a.5.5 0 0 0-.2 0l-.2.1a8 8 0 0 1-1.6 0l-2.4-.6a59.2 59.2 0 0 1-11.2-5.8L109.9 142c2.6 1.7 5.2 3.3 8 4.7a52.5 52.5 0 0 0 14.8 5c2 .2 4.2.3 6.4 0a22.8 22.8 0 0 0 17.2-11.2l.2-.4.1-.1.1-.2.4-.7.7-1.3.3-.7.3-.7.4-.7c0-.3.2-.5.3-.7l.5-1.5.2-.8.2-.7a116.5 116.5 0 0 0 .7-3.2l.2-.7v-.8a120.8 120.8 0 0 0 .3-3.2V121l-.2-1.5-.2-1.5-.2-.7-.1-.7-.3-1.5-.1-.3v-.4l-.3-.7-.8-2.7a63 63 0 0 0-2-5l-.2-.5-.2-.6-.6-1.2-1-2.2c-1.4-2.8-2.9-5.5-4-8l-.4-.8-.3-1-.4-.7-.1-.4-.1-.4c-.4-1-1.4-3.5-1.7-3.6h-19.3Z" fill="#8F1EE0"/><path d="m107.8 136.8 5.1-7.2h-.1c-1-.8-1-2.6.2-4 1-1.4 2.6-2 3.6-1.3v.1l.5-.6a79.8 79.8 0 0 1-3.7-3l-.6-.5-.5-.4L97 137.4l.7.5.5.5 1 .9c.8.7 2.3-.2 4-1 1.5-1 3.2-2 4.6-1.5Zm2.2 5.2 11.7-18.3 4.7 3-10 19.4a81.7 81.7 0 0 1-6.5-4Z" fill="#D7DBE2"/><path d="M148.1 106.8a20 20 0 0 1-19.7-20.2h41.4a20 20 0 0 1-19.7 20.2h-2Z" fill="#694FD9"/><path d="M226.8 51c-3 1.1-7 1.2-9.9 2.7a162 162 0 0 1-24 11.8 110.7 110.7 0 0 1-19 5.4c-2.4.5-5.4 1-7.4-1-4.2-3-2.2-10.7 2.8-11.5a87.6 87.6 0 0 0 18.9-5c10.3-3.8 19.7-10.1 29.6-15 3.7-1.9 10.8-2.8 13.4-1.6 1 .2 1.6 2 .5 2.5l-3.4 1c.8.4 1.4.8 1.8 1.3 1 1-.3 2.8-1.8 2.4-1.3-.4-2.7-1.7-5.3-1.2-3 2.6-.8 5.9 2.6 5 2-.2 2.8 2.5 1.2 3.2Z" fill="#B18058"/><path opacity=".1" d="M226.8 51c-3 1.1-7 1.2-9.9 2.7a162 162 0 0 1-24 11.8 110.7 110.7 0 0 1-19 5.4c-2.4.5-5.4 1-7.4-1-4.2-3-2.2-10.7 2.8-11.5a87.6 87.6 0 0 0 18.9-5c10.3-3.8 19.7-10.1 29.6-15 3.7-1.9 10.8-2.8 13.4-1.6 1 .2 1.6 2 .5 2.5l-3.4 1c.8.4 1.4.8 1.8 1.3 1 1-.3 2.8-1.8 2.4-1.3-.4-2.7-1.7-5.3-1.2-3 2.6-.8 5.9 2.6 5 2-.2 2.8 2.5 1.2 3.2Z" fill="#000"/><path d="m211 40.6-5 3c-4.6-.4-33.8 14.3-48.5 14.3-2.5 3.7 2.8 12.2 6.8 14.5 2.8 2 6.1 1.4 9.4 1.3 9.6-.7 19-4 27.5-8.5 4.2-2.4 9-5 12-8.7l5.4-3.1-7.6-12.8Z" fill="#2DB386"/><path d="m206.2 43.8 7.3 12.9 5.3-3-7.7-12.8-5 2.9Z" fill="#25996F"/><path d="M176.1 96c-14.4 1-55-3.6-54.5-6.1l4.7-23.9c0-4.4 4-8 9-8H163c5 0 9 3.6 9 8l4.2 23a23 23 0 0 1 0 7Z" fill="#34D1A1"/><path d="M120.9 96.6c20 7 41.7.4 56.5 0l-1-7.7c-14.5.5-35.3 6.8-54.8.1l-.7 7.6Z" fill="#2DB386"/><path d="M148.2 102.8c-9.8-.3-19.5-7.6-18.9-18 .2-4.7 2-9.1 4.6-13.3 1.7-2.8.8-6.7-1.7-8.8-10-7.2-16 14.7-16 21.8-.1 5 1 10.2 3.4 14.7a32.2 32.2 0 0 0 24.2 16.2c2.3.5 18.6 1.8 13-3.2a1.7 1.7 0 0 0-.1-3.2c1.2-.6 1.2-2.5 0-3.2.9 0 1.8-.3 2.7-.5 1.2 0 2.4-1 2-2.3-1-2.7-4.2-.4-6.2-.5-.5-2.7-3.7-1.1-5.5-1.5-.7 0-1.4.8-1.5 1.8Z" fill="#B18058"/><path d="M143.7 116.6c-2.5-.4-5-1-7.3-1.8-6.4.1-12.6-4.6-16.8-9.5-6.6-8-8.3-19.5-5.2-29.3a39.8 39.8 0 0 1 7.6-14c3.1-3.6 8.6-4 15.6-4s.6 8 0 11.3c-.9 2.7-2.5 5-3.3 7.7-3.6 10.4-1.1 17 7 23.8 1.5.5 3 .9 4.6 1.1l-2.3 14.7Z" fill="#34D1A1"/><path d="m136.6 114.5 5-14c1.3.5 2.8.9 4.3 1.1l-2.2 14.7c-2.4-.4-4.8-1-7.1-1.8Z" fill="#2DB386"/><path d="M141.3 45.8c3-1.8 2.6-9 8.8-9 6.1 0 4.9 4.6 7.9 10.2s3 12.3-4.7 12.3h-8.9c-8.4 0-8.1-10.4-3-13.5Z" fill="#000"/><path d="M144.3 49h9v10.3c0 2.7-2 5-4.5 5s-4.5-2.3-4.5-5V49Z" fill="#B18058"/><path d="M153.7 55.4h-1a8.3 8.3 0 0 1-8.4-8.4v-3.9c0-3.5 2.9-6.4 6.4-6.4h1.1c3.6 0 6.4 2.9 6.4 6.4v7.7c0 2.5-2 4.6-4.5 4.6Z" fill="#B18058"/><path d="M146.7 48.3a2.5 2.5 0 1 1-5 0 2.5 2.5 0 0 1 5 0Z" fill="#B18058"/><path d="m143.7 47.3.7.1c.4.3.7.6.7 1.2h-.6c0-.3-.1-.5-.3-.6a1 1 0 0 0-.5-.1v-.6Z" fill="#000"/><path opacity=".1" d="M148.6 55.8c-1.8-.6-2.7-2.3-3-4.5a8 8 0 0 0 7 4h.7c-1.6.9-3.2 1-4.7.5Z" fill="#000"/><path d="M157 39.6a6.4 6.4 0 0 0-5.3-2.9h-1a6.4 6.4 0 0 0-6.5 6.4v2.7h1l1.5-5.6h10.7l-.4-.6Z" fill="#000"/><circle cx="148.3" cy="33" fill="#000" r="5"/><path d="M151.8 36.7c3.4 0 6.1 2.6 6.4 5.8h-13.9c.3-3.2 3-5.8 6.4-5.8h1.1Zm-1 9a.6.6 0 1 0-1.2 0 .6.6 0 0 0 1.2 0Zm5.2 0a.6.6 0 1 0-1.2 0 .6.6 0 0 0 1.2 0Zm-2.7-.6h.6l.8 4.5h-2V49h1.3l-.7-3.9Zm-2.3 4.4c0 .8.8 1.4 1.6 1.5v.6c-1 0-2.1-1-2.1-2h.6Zm.3-6.5v.7a3.6 3.6 0 0 0-2.2.7l-.2.2-.4-.4c.1-.2.4-.4.8-.6.5-.3 1.2-.5 1.9-.5Zm2.7 0a4.2 4.2 0 0 1 2.8 1.1l-.4.5v-.1h-.1a3.6 3.6 0 0 0-2.1-.8h-.1V43Z" fill="#000"/><path d="m60.3 124.4 8.6-10.2c.4-.6 1.2-.7 1.7-.3a53.9 53.9 0 0 0 19 10.9c9.1 2 4.2-5 11-2.5 1.6 1 9.3 3.2 9.9 5.3 1 2.1-1.3 4.3-2.3 6-5 6.9-14.5 9-22.3 6.7a56.8 56.8 0 0 1-17.7-8.4 94.3 94.3 0 0 1-7.6-5.6c-.6-.5-.7-1.4-.3-2Z" fill="#DCB284"/><path d="M85.4 81.9c-1.3.5-1 2.2-.8 3.3.7 6.2 4 12.6 6.7 17.8 2.9 6.1 7.2 13.5 2.4 19.4-4 1.3-11.6-3.4-15.2-5.8l-11.7 18.1c13.7 9.5 34 15.8 45-1.2 2.7-4.3 4.5-9.3 4.9-14.4 1.3-12.8-6.6-23.7-11.1-34.7l-.6-2.8-19.6.3Z" fill="#051026"/><path d="m62 127.4 9.7-12.6 4 3L67 131a95.8 95.8 0 0 1-5-3.6Z" fill="#fff"/><path d="m64.7 129.5 5-7.1c-2.5-1.7 1.6-7.1 3.8-5.2l.5-.7a72 72 0 0 1-4.8-3.8L54 130l2.1 2c2 1.1 6.3-3.6 8.6-2.5Zm-.7-48c0 11.1 9.2 20.1 20.6 20.1 11.4 0 20.6-9 20.6-20.1" fill="#0A1B45"/><path d="M38 127.6c14.9-17 4-10.7 25.6-.4 4 1.6 8 3.5 11.8 1.7.8-.5 1.4-1.5 2.6-1.1 1.8 0 8.1 4.7 9.8 5.5.8.5 1.3 1.4 1.5 2.3.3 3.7-5.4 7-8.3 8.4-11 4.5-23-1-32.3-6.9a99 99 0 0 1-10.4-7.6c-.6-.5-.7-1.3-.2-1.9Z" fill="#FFDBB4"/><path d="m84.3 81.8-18.5-.3c-.3 0-.6.3-.7.8-1 9.3 6.4 19.6 9.7 27.7 2.4 5.4 4 12.1-.5 16.8-4.8 1.8-13.7-4-18-6.8l-11.9 18c9.3 6.1 20.5 11.9 32 10.3 14-1.8 22.3-16.8 21.7-30.2-.2-5.8-2-11.5-4.3-16.7-2.7-6.6-6.8-12-8.3-18.6v-.4c-.2-.5-.7-.5-1.2-.6Z" fill="#0A1B45"/><path d="m39.3 130.4 9.9-12.5a87 87 0 0 0 4.3 3.3l-9 13.1a60.4 60.4 0 0 1-5.2-4Z" fill="#fff"/><path d="m42.4 132.8 5.1-7.1c-2.6-1.7 1.6-7.1 3.8-5.2l.4-.6A77.2 77.2 0 0 1 47 116l-15.3 17.3 1.1 1 1 .9c2 1.2 6.3-3.5 8.6-2.4Z" fill="#0A1B45"/><path d="M75.3 81.8h-.4c.7 12.4 10.8 22 12.3 34.2 1 6.6-1.1 14-6 18.6-9.3 7.5-22.2-.3-30.7-5.8l-.3.4c8.7 5.5 21.8 13.4 31.2 5.7a22 22 0 0 0 6.2-19C86.2 103.7 76 94.2 75.3 81.8Z" fill="#fff"/><path d="M101.6 56.5h.1c2.7-.5 5.5.6 6.9 3 4.6 7.8 11 16.7 20.6 16.8 4 0 8-1.3 11.7-3 2.3-.9 4.5-2.4 6.7-3.4 4-2.3 8.7-4.7 12.8-5.5h.4c3.7-.7 8.3-.3 6.2 2.4l-3.2 1.3c1.6.5 2.7 1.6 2 3-1.4 2.1-3.8-.8-7-.2-1 .9-1.5 1.8-1.3 3 .1 1.2.7 1.8 1.5 2 1.5.6 4-.8 4.6 1.2.7 2-1.6 2.4-3.1 2.9-2.3.7-5.7 1.2-7.6 2.3h-.2l-1.4.7a66.7 66.7 0 0 1-16 6h-.3c-4.3.8-8.8.9-13-.4-8.7-2.4-15.6-9-20.7-16.1-3.4-4.8-8.5-11.5-1.4-15.5a7 7 0 0 1 1.7-.5Z" fill="#DCB284"/><path d="M100 57c3-1.4 6.8-.4 8.6 2.5 4.6 7.8 11 16.7 20.6 16.8 4 0 8-1.3 11.7-3 2.3-.9 4.5-2.4 6.7-3.4 4-2.4 8.8-4.8 13-5.5 3.7-.7 8.5-.3 6.4 2.4l-3.2 1.3c1.6.5 2.7 1.6 2 3-1.4 2.1-3.8-.8-7-.2-1 .9-1.5 1.8-1.3 3 .1 1.2.7 1.8 1.5 2 1.5.6 4-.8 4.6 1.2.7 2-1.6 2.4-3.1 2.9-2.4.7-5.8 1.2-7.7 2.3l-1.5.7a66.7 66.7 0 0 1-7.8 3.7c-6.8 2.6-14.5 4-21.6 2-8.6-2.5-15.5-9-20.6-16.2-3.4-4.8-8.5-11.5-1.4-15.5Z" fill="#DCB284"/><path d="M114.9 67c-2.3-2.7-3.8-5.5-5.9-8.6a11.9 11.9 0 0 0-12.3-5.5c-12.5 3.8 2.3 17.8 6.8 24l11.4-9.9Z" fill="#3F8FD4"/><path d="M71.1 52.3h27a8 8 0 0 1 7.9 8v22.4H63.2V60.4a8 8 0 0 1 8-8.1Z" fill="#55B0EB"/><path d="M30 113.2c0 2.2 1.4 4.3 3.2 5 1.3.6 2.5-1.2 1.7-2.3-1.4-1.6-3-3.7-2.6-6.2.2-4.3-3 1.6-2.4 3.5Z" fill="#FFDBB4"/><path d="M30 113.2c0 2.2 1.4 4.3 3.2 5 1.3.6 2.5-1.2 1.7-2.3-1.4-1.6-3-3.7-2.6-6.2.2-4.3-3 1.6-2.4 3.5Z" fill="#DCB284"/><path d="M33.2 107.4c-3.5-1.2-5-5.5-3.5-8.9a141.8 141.8 0 0 1 25-38.1c1-1.2 3-3.7 4.6-4.2a6.3 6.3 0 0 1 7.1 1.3 7 7 0 0 1 1.5 7.2c-.4 1.5-2.6 3.5-3.6 4.6L59 75.7c-7 8.6-12.9 18.1-17.4 28.3a6.7 6.7 0 0 1-8.4 3.4Z" fill="#FFDBB4"/><path d="m48.6 66 5-6a32 32 0 0 1 9-6.4c3.2-1.4 9.2-1.3 9.2-1.3 2.2 2.3.3 9.2-1.4 11.8-1.7 2.2-3.8 4-5.6 6.2l-4.6 5.4L48.6 66Z" fill="#55B0EB"/><path d="M41.9 103.4c.1-2.6-10.2-5-12-5.3a30.2 30.2 0 0 0-3.2 17.3c.7 3.4 2 4.9 2.3 5.4.5 1 2.4.8 2.6-.4 0-1.3-.4-4.2-.1-5.8.2-2.1.8-5.2 3.2-5.5 2.3-.3 2.9 1.6 3.1 3.3.2 1.7 3 2.2 3.4.5.3-3-.4-6.6.7-9.5Zm33.6-51.1c0 3.7 4 6.6 9 6.6 5.1 0 9.2-3 9.2-6.6" fill="#FFDBB4"/><path d="M84.8 25c-9.1 0-13.7 4.8-13.7 14.2 0 9.4 4.6 11.7 13.7 11.7s13.7-2.3 13.7-11.7c0-9.4-4.6-14.1-13.7-14.1Z" fill="#000"/><path d="M79.9 43.2h8.9v10.4c0 2.8-2 5.1-4.5 5.1-2.4 0-4.4-2.3-4.4-5V43.1Z" fill="#FFDBB4"/><path d="M89.2 49.7h-1a8.4 8.4 0 0 1-8.3-8.5v-4c0-3.6 2.8-6.5 6.3-6.5h1.1c3.6 0 6.4 3 6.4 6.5V45c0 2.6-2 4.7-4.5 4.7Z" fill="#FFDBB4"/><path d="M82.2 42.5c0 1.4-1 2.5-2.4 2.5a2.5 2.5 0 0 1-2.5-2.5 2.5 2.5 0 1 1 4.9 0Z" fill="#FFDBB4"/><path d="M79.3 41.4c.1 0 .4 0 .7.2.4.2.6.6.7 1.2H80c0-.3-.2-.5-.4-.6a1 1 0 0 0-.4-.2v-.6Z" fill="#000"/><path opacity=".1" d="M84.2 50.1c-1.9-.6-2.8-2.3-3.2-4.5 1.5 2.4 4 4 7 4h.8a5 5 0 0 1-4.6.5Z" fill="#000"/><path d="M76.7 34.4c-.2-2.5 5.1-4.7 8.2-4.7h6.7l3.1 5.5h-9.9c-1.3 3-3.3 4.8-5 4.8-1.9 0-3-3.7-3.1-5.6Zm9.6 5.4c0-.3-.3-.6-.6-.6s-.6.3-.6.6.3.6.6.6.6-.3.6-.6Zm5.1 0c0-.3-.2-.6-.5-.6-.4 0-.6.3-.6.6s.2.6.6.6c.3 0 .5-.3.5-.6Zm-2.6-.5.6-.1.8 4.6h-2v-.6h1.3l-.7-4Zm-2.2 4.5c0 .7.7 1.4 1.5 1.4v.6c-1 0-2-1-2.1-2h.6Z" fill="#000"/><path d="M86.8 37.2v.6a3.5 3.5 0 0 0-2.2.7l-.2.2-.4-.4c.1-.2.4-.4.8-.6a4 4 0 0 1 1.9-.5Zm2.8 0a4 4 0 0 1 2.7 1l-.4.5v-.1h-.1a3.5 3.5 0 0 0-2.1-.8h-.1v-.6Z" fill="#000"/></svg>