<svg width="66" height="51" viewBox="0 0 66 51" fill="none" xmlns="http://www.w3.org/2000/svg">
<path d="M0.841309 43H64.8413V0H0.841309V43Z" fill="#044DA1"/>
<path fill-rule="evenodd" clip-rule="evenodd" d="M33.3421 8.1858L31.9509 9.16627L32.4897 7.56706L31.0771 6.59698H32.798L33.3421 5L33.8764 6.59698H35.5774L34.1763 7.56706L34.7174 9.16627L33.3421 8.1858ZM26.1939 10.0543L24.8308 11.0385L25.3468 9.44147L23.9366 8.47066H25.668L26.1939 6.84916L26.7495 8.47066H28.4414L27.0539 9.44147L27.5928 11.0385L26.1939 10.0543ZM21.0015 11.9741L20.4718 13.557H18.7251L20.1354 14.5523L19.6194 16.1203L21.0015 15.1547L22.3798 16.1203L21.8425 14.5523L23.2246 13.557H21.5373L21.0015 11.9741ZM20.4724 23.0909L19.0789 22.0948L17.693 23.0909L18.2151 21.482L16.8413 20.5045H18.5416L19.0789 18.8853L19.6193 20.5045H21.3058L19.9275 21.482L20.4724 23.0909ZM21.5373 27.4778L21.0015 25.8838L20.4718 27.4778H18.7251L20.1354 28.436L19.6194 30.0449L21.0015 29.0607L22.379 30.0449L21.8425 28.436L23.2246 27.4778H21.5373ZM26.1933 30.9771L26.7489 32.5674H28.4773L27.0534 33.5671L27.5922 35.1456L26.1933 34.1502L24.8302 35.1456L25.3462 33.5671L23.9702 32.5674H25.6682L26.1933 30.9771ZM33.8764 34.4472L33.3421 32.8057L32.798 34.4472H31.0771L32.4897 35.3987L31.9509 37.0002L33.3421 36.0152L34.7174 37.0002L34.177 35.3987L35.5774 34.4472H33.8764ZM40.4664 30.9771L40.9611 32.5674H42.7078L41.3181 33.5671L41.8211 35.1456L40.4664 34.1502L39.0843 35.1456L39.582 33.5671L38.2007 32.5674H39.9253L40.4664 30.9771ZM46.2171 27.4778L45.6729 25.8838L45.1477 27.4778H43.4155L44.8395 28.436L44.2984 30.0449L45.6729 29.0607L47.0664 30.0449L46.5367 28.436L47.9188 27.4778H46.2171ZM48.0902 20.4783H49.8415L48.4175 21.4818L48.9434 23.0424L47.5575 22.0723L46.1837 23.0424L46.7051 21.4818L45.3306 20.4783H47.0354L47.5575 18.8843L48.0902 20.4783ZM44.2984 16.1203L45.6729 15.1205L47.0664 16.1203L46.5367 14.5263L47.9188 13.5569H46.2171L45.6729 11.9258L45.1477 13.5569H43.4155L44.8395 14.5263L44.2984 16.1203ZM39.9247 8.47111L40.4659 6.84961L41.0024 8.47111H42.7309L41.3183 9.44118L41.8518 11.0389L40.4659 10.054L39.0838 11.0389L39.6203 9.44118L38.2275 8.47111H39.9247Z" fill="#FFF100"/>
<path fill-rule="evenodd" clip-rule="evenodd" d="M9.14582 49.1913L5.35831 45.1885V50.4874H5.9922V46.7302L9.78121 50.736V45.4296H9.14582V49.1913ZM1.45839 48.4182V45.4297H0.841797V48.6594C0.841797 49.7528 1.53884 50.6231 2.6878 50.6231C3.86534 50.6231 4.55712 49.7528 4.55712 48.6594V45.4297H3.92925V48.4182C3.92925 49.2509 3.67736 50.0391 2.6878 50.0391C1.72382 50.0391 1.45839 49.2509 1.45839 48.4182Z" fill="black"/>
<mask id="mask0_5048_3634" style="mask-type:alpha" maskUnits="userSpaceOnUse" x="0" y="0" width="66" height="51">
<path fill-rule="evenodd" clip-rule="evenodd" d="M0.841309 50.7361H65.6764V0.22998H0.841309V50.7361Z" fill="white"/>
</mask>
<g mask="url(#mask0_5048_3634)">
<path fill-rule="evenodd" clip-rule="evenodd" d="M47.5267 43.9602L46.4018 44.936L46.1236 44.7702L46.9507 43.6392L47.5267 43.9602ZM21.5153 49.1913L17.7354 45.1885V50.4874H18.3707V46.7302L22.1507 50.736V45.4296H21.5153V49.1913ZM17.165 47.9547C17.165 49.4625 15.9837 50.623 14.5535 50.623C13.0775 50.623 11.8789 49.4625 11.8789 47.9547C11.8789 46.5192 13.0775 45.3286 14.5535 45.3286C15.9837 45.3286 17.165 46.5192 17.165 47.9547ZM11.2743 50.4875H10.6494V45.4297H11.2743V50.4875ZM14.5538 45.9307C15.7066 45.9307 16.545 46.8666 16.545 47.9547C16.545 49.1159 15.6441 50.0397 14.5538 50.0397C13.4289 50.0397 12.5078 49.1159 12.5078 47.9547C12.5078 46.8666 13.3537 45.9307 14.5538 45.9307ZM24.9941 45.4297H27.6966V46.0137H25.6145V47.4198H27.6455V48.0302H25.6145V49.9223H27.6966V50.4875H24.9941V45.4297ZM29.0143 48.4183V45.4297H28.3902V48.6594C28.3902 49.7528 29.0895 50.6231 30.2362 50.6231C31.4137 50.6231 32.1093 49.7528 32.1093 48.6594V45.4297H31.4776V48.4183C31.4776 49.2509 31.2227 50.0391 30.2362 50.0391C29.2722 50.0391 29.0143 49.2509 29.0143 48.4183ZM33.6113 47.8454H33.7918C34.4573 47.8454 35.1566 47.7022 35.1566 46.899C35.1566 46.1304 34.3821 45.9917 33.7467 45.9917H33.6113V47.8454ZM35.3334 50.4875H36.1012L34.5289 48.3127C35.2658 48.211 35.7026 47.6112 35.7026 46.8659C35.7026 46.41 35.4688 45.9308 35.0402 45.6746C34.6642 45.4297 34.1642 45.4297 33.7205 45.4297H32.937V50.4875H33.6115V48.3806H33.8596L35.3334 50.4875ZM40.9033 47.9547C40.9033 46.8666 40.0905 45.9307 38.9062 45.9307C37.7098 45.9307 36.8677 46.8666 36.8677 47.9547C36.8677 49.1159 37.8083 50.0397 38.9062 50.0397C39.9822 50.0397 40.9033 49.1159 40.9033 47.9547ZM38.9066 50.623C40.3398 50.623 41.5324 49.4625 41.5324 47.9547C41.5324 46.5192 40.3398 45.3286 38.9066 45.3286C37.4366 45.3286 36.2402 46.5192 36.2402 47.9547C36.2402 49.4625 37.4366 50.623 38.9066 50.623ZM42.7993 47.819H42.9647C43.6302 47.819 44.3415 47.7022 44.3415 46.899C44.3415 46.1077 43.5625 45.9917 42.9347 45.9917H42.7993V47.819ZM42.1704 50.4875H42.799V48.3806H43.1487C44.0848 48.3806 44.8977 47.9548 44.8977 46.8991C44.8977 45.9918 44.4428 45.4297 42.8629 45.4297H42.1704V50.4875ZM48.1883 45.4297H45.458V50.4875H48.1883V49.9223H46.0972V48.0302H48.1281V47.4198H46.0972V46.0144H48.1883V45.4297ZM48.96 45.4297H51.6639V46.0137H49.5878V47.4198H51.6188V48.0302H49.5878V49.9223H51.6639V50.4875H48.96V45.4297ZM56.1881 49.1913L52.3931 45.1885V50.4874H53.0292V46.7302L56.8122 50.736V45.4296H56.1881V49.1913ZM57.6553 45.1885L61.427 49.1913V45.4296H62.0707V50.736L58.2907 46.7302V50.4874H57.6553V45.1885ZM65.6771 45.4297H62.9844V50.4875H65.6771V49.9223H63.6085V48.0302H65.635V47.4198H63.6085V46.0137H65.6771V45.4297Z" fill="black"/>
</g>
</svg>
