<svg width="65" height="52" fill="none" xmlns="http://www.w3.org/2000/svg"><g clip-path="url(#a)"><path d="M36.84 6.55a9.12 9.12 0 0 0-3.41 2.28 9.93 9.93 0 0 0-2.12 3.57c-.48 1.4-.73 2.92-.73 4.56 0 3.5 1 6.22 2.94 8.23 1.96 2 4.68 3.02 8.27 3.02 1.53 0 2.87-.2 4.04-.58 2.13-.75 4.53-2.88 4.94-4.88.26-1.31-.54-1.6-.97-1.66l-.26-.01c-.5 0-.89.16-1.14.38-.3.28-1.17 1.1-1.62 1.5-.45.39-.95.76-1.49 1.11a6.39 6.39 0 0 1-3.67 1.04 5.65 5.65 0 0 1-2.94-.8 5.66 5.66 0 0 1-2.14-2.35 7.71 7.71 0 0 1-.8-3.25c-.02-.4.28-.64.64-.64h10.77c1.45 0 2.55-.21 3.3-.6.66-.34 1.04-1.1 1.04-2.48a9.2 9.2 0 0 0-4.58-7.88 10.7 10.7 0 0 0-5.54-1.36c-1.67 0-3.18.27-4.53.8ZM45 10.6c.94 1 1.47 2.46 1.64 4.33.02.31-.31.59-.65.59h-9.6c-.35 0-.7-.29-.64-.63.22-1.83.77-3.26 1.7-4.26a4.88 4.88 0 0 1 3.73-1.58c1.55 0 2.85.52 3.82 1.55Z" fill="url(#b)"/><path d="M15.52 16.99a16.98 16.98 0 1 0 33.96 0 16.98 16.98 0 0 0-33.96 0Z" fill="url(#c)"/><path d="M16.79 15.39c-.26 2.47.08 4.88.9 7.07 3-6.98 10.56-7.15 16.35-5.1 6.95 1.43 14.9 1.1 13.76-4.09A15.67 15.67 0 0 0 32.5 1.18c-8 0-14.88 6.08-15.7 14.2Z" fill="url(#d)"/><path d="M33.42 8.83a9.95 9.95 0 0 0-2.1 3.57 13.8 13.8 0 0 0-.74 4.56c0 3.5 1 6.22 2.94 8.23 1.96 2 4.68 3.02 8.27 3.02a13 13 0 0 0 3.9-.54 16.94 16.94 0 0 0 3.27-6.5c-.22.06-.41.17-.63.37-.23.2-1.1 1.02-1.55 1.41-.45.4-.95.77-1.5 1.12a6.38 6.38 0 0 1-3.84 1.04A5.52 5.52 0 0 1 36.56 22c-.51-1-.78-2.08-.83-3.29-.01-.4.3-.64.47-.64h10.95c.9 0 1.68-.09 2.3-.24l.03-.84c0-3.9-1.32-7.5-3.52-10.36a11.28 11.28 0 0 0-4.55-.87c-1.7 0-3.22.26-4.57.8a9.12 9.12 0 0 0-3.42 2.27Zm13.23 6.09c.02.31-.31.59-.65.59h-9.6c-.35 0-.7-.29-.64-.63.22-1.83.77-3.26 1.72-4.29a4.9 4.9 0 0 1 3.74-1.55c1.52 0 2.82.52 3.79 1.55.94 1 1.47 2.46 1.64 4.33Z" fill="url(#e)"/><path d="M4.7 45.6c0-.72-.1-1.25-.32-1.58-.27-.4-.74-.6-1.4-.6-.67 0-1.14.2-1.4.6-.22.33-.33.86-.33 1.59v2.18h1.72c.67 0 1.14-.2 1.41-.6.22-.33.33-.86.33-1.58Zm1.26 0c0 2.39-1 3.58-2.99 3.58H1.25V52H0v-6.39c0-2.39 1-3.59 2.97-3.59 2 0 3 1.2 3 3.59ZM11.53 45.6c0-.72-.1-1.25-.32-1.58-.27-.4-.73-.6-1.4-.6-.65 0-1.12.2-1.4.6-.2.33-.31.86-.31 1.59 0 .72.1 1.25.32 1.58.27.4.74.6 1.4.6.66 0 1.12-.2 1.39-.6.21-.32.32-.85.32-1.58Zm.8-4.94-.57.77-2-1.14-2 1.14-.57-.77 2.57-1.46 2.56 1.46Zm.46 4.95c0 2.38-.99 3.57-2.97 3.57-2 0-2.99-1.2-2.99-3.57 0-2.4 1-3.59 2.99-3.59 1.98 0 2.97 1.2 2.97 3.59ZM17 49.18c-2.13 0-3.2-.87-3.2-2.6V39.2h1.25v7.4c0 .37.12.64.34.82.3.25.84.37 1.62.37v1.39ZM21.83 44.1c-.22-.53-.73-.9-1.4-.9-.66 0-1.18.37-1.4.9-.14.32-.17.53-.18.96h3.17a2.22 2.22 0 0 0-.2-.96Zm-2.98 1.95c0 1.22.64 1.98 1.8 1.98.79 0 1.2-.22 1.7-.72l.91.85c-.72.73-1.4 1.1-2.64 1.1-1.77 0-3.18-.93-3.18-3.62 0-2.3 1.18-3.62 3-3.62 1.89 0 3 1.4 3 3.4v.63h-4.6Z" fill="#18397A"/><path d="M4.7 45.6c0-.72-.1-1.25-.32-1.58-.27-.4-.74-.6-1.4-.6-.67 0-1.14.2-1.4.6-.22.33-.33.86-.33 1.59v2.18h1.72c.67 0 1.14-.2 1.41-.6.22-.33.33-.86.33-1.58Zm1.26 0c0 2.39-1 3.58-2.99 3.58H1.25V52H0v-6.39c0-2.39 1-3.59 2.97-3.59 2 0 3 1.2 3 3.59ZM11.53 45.6c0-.72-.1-1.25-.32-1.58-.27-.4-.73-.6-1.4-.6-.65 0-1.12.2-1.4.6-.2.33-.31.86-.31 1.59 0 .72.1 1.25.32 1.58.27.4.74.6 1.4.6.66 0 1.12-.2 1.39-.6.21-.32.32-.85.32-1.58Zm.8-4.94-.57.77-2-1.14-2 1.14-.57-.77 2.57-1.46 2.56 1.46Zm.46 4.95c0 2.38-.99 3.57-2.97 3.57-2 0-2.99-1.2-2.99-3.57 0-2.4 1-3.59 2.99-3.59 1.98 0 2.97 1.2 2.97 3.59ZM17 49.18c-2.13 0-3.2-.87-3.2-2.6V39.2h1.25v7.4c0 .37.12.64.34.82.3.25.84.37 1.62.37v1.39ZM21.83 44.1c-.22-.53-.73-.9-1.4-.9-.66 0-1.18.37-1.4.9-.14.32-.17.53-.18.96h3.17a2.22 2.22 0 0 0-.2-.96Zm-2.98 1.95c0 1.22.64 1.98 1.8 1.98.79 0 1.2-.22 1.7-.72l.91.85c-.72.73-1.4 1.1-2.64 1.1-1.77 0-3.18-.93-3.18-3.62 0-2.3 1.18-3.62 3-3.62 1.89 0 3 1.4 3 3.4v.63h-4.6Z" fill="#18397A"/><path d="M45.4 49.18h-1.25V45.6c0-.73-.1-1.25-.32-1.58-.28-.4-.75-.6-1.41-.6-.67 0-1.13.2-1.4.6-.22.33-.32.85-.32 1.58v3.58h-1.26V45.6c0-.73-.1-1.25-.32-1.58-.28-.4-.74-.6-1.41-.6-.67 0-1.13.2-1.4.6-.22.33-.32.85-.32 1.58v3.58h-1.26V45.6c0-2.4 1-3.59 2.98-3.59 1.06 0 1.84.36 2.36 1.08.5-.72 1.29-1.08 2.35-1.08 1.99 0 2.98 1.2 2.98 3.59v3.57ZM51.13 45.6c0-.72-.11-1.25-.33-1.58-.27-.4-.74-.6-1.4-.6-.68 0-1.14.2-1.4.6-.22.33-.33.86-.33 1.59v2.18h1.72c.67 0 1.14-.2 1.41-.6.22-.33.33-.86.33-1.58Zm1.25 0c0 2.39-1 3.58-2.99 3.58h-1.72V52h-1.25v-6.39c0-2.39.99-3.59 2.97-3.59 2 0 2.99 1.2 2.99 3.59ZM56.5 49.18c-2.14 0-3.2-.87-3.2-2.6V39.2h1.25v7.4c0 .37.1.64.33.82.3.25.84.37 1.62.37v1.39ZM61.57 45.6c0-.72-.11-1.25-.33-1.58-.26-.4-.73-.6-1.4-.6-.66 0-1.13.2-1.4.6-.2.33-.32.86-.32 1.59 0 .73.11 1.26.33 1.58.26.4.73.6 1.4.6.66 0 1.13-.2 1.4-.6.21-.32.32-.85.32-1.58Zm1.25 0c0 2.39-1 3.58-2.97 3.58-2 0-3-1.2-3-3.57 0-2.4 1-3.59 3-3.59 1.98 0 2.97 1.2 2.97 3.59ZM63.75 42.02H65v7.16h-1.25v-7.16ZM65 40.6h-1.25V39.2H65v1.4ZM32.13 44.1c-.22-.53-.73-.9-1.4-.9-.66 0-1.18.37-1.4.9-.14.32-.17.53-.18.96h3.17a2.22 2.22 0 0 0-.2-.96Zm-2.98 1.95c0 1.22.64 1.98 1.8 1.98.79 0 1.2-.22 1.7-.72l.91.85c-.72.73-1.4 1.1-2.64 1.1-1.77 0-3.18-.93-3.18-3.62 0-2.3 1.18-3.62 3-3.62 1.89 0 3 1.4 3 3.4v.63h-4.6Z" fill="#E31927"/><path d="M45.4 49.18h-1.25V45.6c0-.73-.1-1.25-.32-1.58-.28-.4-.75-.6-1.41-.6-.67 0-1.13.2-1.4.6-.22.33-.32.85-.32 1.58v3.58h-1.26V45.6c0-.73-.1-1.25-.32-1.58-.28-.4-.74-.6-1.41-.6-.67 0-1.13.2-1.4.6-.22.33-.32.85-.32 1.58v3.58h-1.26V45.6c0-2.4 1-3.59 2.98-3.59 1.06 0 1.84.36 2.36 1.08.5-.72 1.29-1.08 2.35-1.08 1.99 0 2.98 1.2 2.98 3.59v3.57ZM51.13 45.6c0-.72-.11-1.25-.33-1.58-.27-.4-.74-.6-1.4-.6-.68 0-1.14.2-1.4.6-.22.33-.33.86-.33 1.59v2.18h1.72c.67 0 1.14-.2 1.41-.6.22-.33.33-.86.33-1.58Zm1.25 0c0 2.39-1 3.58-2.99 3.58h-1.72V52h-1.25v-6.39c0-2.39.99-3.59 2.97-3.59 2 0 2.99 1.2 2.99 3.59ZM56.5 49.18c-2.14 0-3.2-.87-3.2-2.6V39.2h1.25v7.4c0 .37.1.64.33.82.3.25.84.37 1.62.37v1.39ZM61.57 45.6c0-.72-.11-1.25-.33-1.58-.26-.4-.73-.6-1.4-.6-.66 0-1.13.2-1.4.6-.2.33-.32.86-.32 1.59 0 .73.11 1.26.33 1.58.26.4.73.6 1.4.6.66 0 1.13-.2 1.4-.6.21-.32.32-.85.32-1.58Zm1.25 0c0 2.39-1 3.58-2.97 3.58-2 0-3-1.2-3-3.57 0-2.4 1-3.59 3-3.59 1.98 0 2.97 1.2 2.97 3.59ZM63.75 42.02H65v7.16h-1.25v-7.16ZM65 40.6h-1.25V39.2H65v1.4ZM32.13 44.1c-.22-.53-.73-.9-1.4-.9-.66 0-1.18.37-1.4.9-.14.32-.17.53-.18.96h3.17a2.22 2.22 0 0 0-.2-.96Zm-2.98 1.95c0 1.22.64 1.98 1.8 1.98.79 0 1.2-.22 1.7-.72l.91.85c-.72.73-1.4 1.1-2.64 1.1-1.77 0-3.18-.93-3.18-3.62 0-2.3 1.18-3.62 3-3.62 1.89 0 3 1.4 3 3.4v.63h-4.6Z" fill="#E31927"/></g><defs><radialGradient id="b" cx="0" cy="0" r="1" gradientUnits="userSpaceOnUse" gradientTransform="matrix(39.7435 0 0 39.762 37.32 6.49)"><stop stop-color="#E65D1B"/><stop offset=".05" stop-color="#E65D1B"/><stop offset=".35" stop-color="#ED1C24"/><stop offset="1" stop-color="#A61217"/></radialGradient><radialGradient id="e" cx="0" cy="0" r="1" gradientUnits="userSpaceOnUse" gradientTransform="matrix(22.7916 0 0 22.8022 37.95 8.21)"><stop stop-color="#fff"/><stop offset=".25" stop-color="#fff"/><stop offset=".46" stop-color="#fff"/><stop offset="1" stop-color="#CEDDE3"/></radialGradient><linearGradient id="c" x1="32.5" y1="0" x2="32.5" y2="33.97" gradientUnits="userSpaceOnUse"><stop stop-color="#65CDEB"/><stop offset=".05" stop-color="#65CDEB"/><stop offset=".41" stop-color="#164789"/><stop offset="1" stop-color="#06172F"/></linearGradient><linearGradient id="d" x1="33.74" y1="1.23" x2="31.44" y2="23.85" gradientUnits="userSpaceOnUse"><stop stop-color="#99DEF9"/><stop offset="1" stop-color="#103568"/></linearGradient><clipPath id="a"><path fill="#fff" d="M0 0h65v52H0z"/></clipPath></defs></svg>